<svg xmlns="http://www.w3.org/2000/svg" width="167" height="160" viewBox="0 0 167 160" fill="none">
  <g clip-path="url(#clip0_7201_137)">
    <path d="M60.22 154.667H114.753C115.66 154.667 115.66 153.267 114.753 153.267H60.22C59.3133 153.267 59.3133 154.667 60.22 154.667Z" fill="#161616"/>
    <path d="M118.66 154.24H125.047C125.953 154.24 125.953 152.84 125.047 152.84H118.66C117.753 152.84 117.753 154.24 118.66 154.24Z" fill="#161616"/>
    <path d="M129.767 154.04H131.82C132.727 154.04 132.727 152.64 131.82 152.64H129.767C128.86 152.64 128.86 154.04 129.767 154.04Z" fill="#161616"/>
    <path d="M1.57997 159.813H41.9133C42.82 159.813 42.82 158.413 41.9133 158.413H1.57997C0.68664 158.413 0.68664 159.813 1.57997 159.813Z" fill="#161616"/>
    <path d="M45.82 159.813H56.3267C57.2334 159.813 57.2334 158.413 56.3267 158.413H45.82C44.9267 158.413 44.9267 159.813 45.82 159.813Z" fill="#161616"/>
    <path d="M62.2867 159.387H62.9C63.2734 159.387 63.62 159.053 63.6067 158.68C63.58 158.307 63.3 157.973 62.9 157.973H62.2867C61.9134 157.973 61.5667 158.307 61.58 158.68C61.6067 159.053 61.8867 159.387 62.2867 159.387Z" fill="#161616"/>
    <path d="M68.3667 37.1201C70.4467 36.3201 74.1 40.6001 75.9 43.4134C78.66 47.6534 79.1 51.3467 80.46 59.9067C80.98 63.2267 81.82 68.4934 82.9667 75.1334C85.02 77.1467 85.7933 79.1067 86.1 80.3334C86.5267 81.9067 86.6333 83.9067 86.1 84.0934C85.5133 84.3067 84.4867 82.3334 84.06 82.52C83.5 82.7734 85.3267 85.9334 84.22 87.3867C83.1 88.8667 78.8867 88.6267 76.6867 86.4534C74.6333 84.4134 75.4467 81.8267 75.1133 75.6267C74.9933 73.5201 74.6733 67.7867 72.9133 62.1334C70.7667 55.2267 68.5133 54.8801 67.2467 48.7734C66.3533 44.4667 66.1 37.9867 68.34 37.1201H68.3667Z" fill="white"/>
    <path d="M81.58 88.5601C79.98 88.5601 77.9133 87.9868 76.5267 86.6268C74.98 85.1068 74.98 83.3334 74.98 80.1201C74.98 78.8401 74.98 77.4001 74.8867 75.6401C74.78 73.7201 74.46 67.8668 72.7 62.2001C71.6867 58.9601 70.6333 57.1468 69.7133 55.5468C68.6333 53.6801 67.7 52.0801 67.0333 48.8268C66.1933 44.7334 65.78 37.8801 68.2733 36.9068C70.46 36.0668 74.14 40.2668 76.0867 43.2934C78.7 47.3068 79.2467 50.7734 80.4467 58.3468L80.6867 59.8801C81.18 63.0934 82.02 68.3201 83.18 75.0268C85.1933 77.0134 85.9933 78.9734 86.3267 80.2801C86.6467 81.4668 87.0333 84.0268 86.18 84.3201C85.7267 84.4801 85.26 83.9468 84.7667 83.3868C84.5933 83.1868 84.34 82.8801 84.1933 82.7868C84.1933 82.9868 84.3267 83.4801 84.42 83.8401C84.7267 84.9868 85.1533 86.5601 84.42 87.5334C83.98 88.1068 83.1267 88.4668 82.02 88.5468C81.8867 88.5468 81.74 88.5601 81.58 88.5601ZM68.4467 37.3334C66.5533 38.0668 66.4733 43.8134 67.4867 48.7201C68.14 51.8934 69.06 53.4801 70.1133 55.3068C71.0467 56.9334 72.1133 58.7601 73.14 62.0668C74.9133 67.7868 75.2467 73.6801 75.3533 75.6268C75.4467 77.4001 75.4467 78.8534 75.4467 80.1334C75.4467 83.2268 75.4467 84.9201 76.8467 86.3068C78.2467 87.6934 80.4333 88.2001 81.9667 88.0934C82.9267 88.0268 83.6733 87.7201 84.0333 87.2668C84.6333 86.4801 84.2333 85.0401 83.9533 83.9734C83.7133 83.0934 83.5533 82.5068 83.9533 82.3201C84.3133 82.1601 84.66 82.5734 85.1 83.0801C85.3267 83.3334 85.8467 83.9334 86.0067 83.8801C86.2467 83.8001 86.3533 82.2268 85.86 80.4001C85.54 79.1334 84.7533 77.2401 82.7933 75.3068L82.74 75.2534V75.1734C81.5667 68.4268 80.7267 63.1601 80.22 59.9468L79.98 58.4134C78.7933 50.9068 78.26 47.4668 75.7 43.5468C73.78 40.5601 70.26 36.6534 68.4467 37.3468V37.3334Z" fill="#161616"/>
    <path opacity="0.15" d="M71.4467 43.1468C72.7267 42.8668 74.98 48.6934 75.1133 49.0134C77.1667 54.4001 76.1933 56.6801 77.1 64.6134C77.8467 71.0668 78.2733 74.7468 80.3533 79.2801C82.3667 83.6268 84.7 86.1868 83.82 87.3468C82.9267 88.5334 79.4467 87.4001 76.7133 86.2934C76.46 85.7068 76.0867 84.8001 75.78 83.6668C75.0067 80.9334 75.06 78.7601 75.06 77.7068C75.06 77.1201 75.0333 70.3334 73.7 64.4134C72.98 61.2534 72.6467 61.7201 71.8067 58.4534C69.9533 51.3468 70.0333 43.4401 71.46 43.1334L71.4467 43.1468Z" fill="#6D6C6C"/>
    <path opacity="0.17" d="M74.6067 54.4667C74.86 56.8933 75.1934 60.52 75.3267 64.9467C75.54 71.76 75.2067 77.4133 75.02 77.4133C74.86 77.4133 75.0734 73.3467 74.18 67.7733C73.5934 64.08 72.7267 61.08 72.0734 59.0933C72.5134 58.6533 73.06 58.04 73.5534 57.2C74.1667 56.12 74.46 55.1467 74.6067 54.4667Z" fill="#6D6C6C"/>
    <path d="M72.9933 137.453C72.38 138.573 72.2866 139.787 73.7 150.387C73.86 151.693 74.0333 152.773 74.1266 153.52C77.7 154.08 82.7533 154.52 88.7533 153.947C92.38 153.6 96.62 153.2 96.8466 151.813C97.0333 150.693 94.58 148.68 83.3533 144.84C82.8333 141.093 82.3 137.36 81.78 133.613C75.2066 134.053 73.5 136.587 73.0066 137.453H72.9933Z" fill="#161616"/>
    <path d="M58.8867 70.7601C61.0867 73.7601 64.22 78.0534 67.8867 83.3201C76.5933 95.7601 80.94 101.987 82.46 106.147C86.9533 118.48 85.78 130.453 85.34 134.52C85.0867 136.853 84.7533 138.773 84.5 140.093C82.7267 140.773 80.1667 141.52 77.06 141.773C74.2733 142.013 71.8867 141.747 70.14 141.44C69.6067 138.253 69.1533 134.68 68.9533 130.8C68.6467 125.027 68.9267 119.853 69.4733 115.427C63.46 110.813 59.58 106.067 57.22 102.773C50.9 93.8667 49.22 86.1467 48.22 81.1867C46.7933 74.3067 47.78 72.4401 48.6867 71.4534C51.7267 68.2934 58.3267 70.5601 58.9133 70.7467L58.8867 70.7601Z" fill="white"/>
    <path d="M74.8734 142.107C73.3 142.107 71.7267 141.96 70.1 141.68L69.94 141.653L69.9134 141.493C69.3134 137.92 68.9134 134.333 68.7134 130.827C68.4467 125.693 68.6067 120.56 69.2067 115.547C64.54 111.947 60.4334 107.707 57.0067 102.92C50.5 93.7334 48.8467 85.6 47.9667 81.24C46.5667 74.4934 47.4467 72.4267 48.4867 71.3067C51.2467 68.44 56.6867 69.8 58.8867 70.52L59.02 70.56L59.06 70.6267C61.14 73.4534 64.3267 77.84 68.0734 83.2C76.78 95.6534 81.14 101.893 82.6734 106.08C85.74 114.493 86.7134 124.067 85.5667 134.56C85.3 136.973 84.9667 138.933 84.7267 140.147L84.7 140.28L84.58 140.32C82.18 141.24 79.66 141.8 77.0734 142.013C76.34 142.08 75.6067 142.107 74.86 142.107H74.8734ZM70.34 141.253C72.6334 141.64 74.8334 141.733 77.0467 141.547C79.54 141.347 81.98 140.8 84.3 139.92C84.54 138.707 84.86 136.813 85.1134 134.493C86.2467 124.08 85.2867 114.56 82.2467 106.227C80.74 102.093 76.38 95.8667 67.7 83.4534C63.98 78.1334 60.82 73.7734 58.74 70.9467C57.0734 70.4 51.4734 68.8667 48.8334 71.6134C47.8734 72.6534 47.0734 74.5867 48.42 81.1334C49.3 85.4667 50.94 93.5334 57.3934 102.64C60.82 107.413 64.9267 111.653 69.6067 115.24L69.7134 115.32V115.453C69.0867 120.48 68.9134 125.64 69.18 130.787C69.3667 134.227 69.7534 137.747 70.34 141.24V141.253Z" fill="#161616"/>
    <path opacity="0.19" d="M59.5666 90.4934C61.98 92.5334 65.1133 95.5467 68.1533 99.6934C68.9933 100.867 72.4866 105.84 75.54 113.84C79.7533 124.933 80.1 135.267 79.9133 141.12C78.8866 141.493 77.4333 141.893 75.7 142.027C73.38 142.187 71.4866 141.787 70.2733 141.413C69.5266 136.853 68.9666 131.587 68.9133 125.733C68.8866 121.947 69.06 118.413 69.3533 115.187C68.7666 114.853 57.4733 108.493 57.6066 97.8534C57.6333 94.88 58.5666 92.36 59.5533 90.48L59.5666 90.4934Z" fill="#6D6C6C"/>
    <path opacity="0.15" d="M62.58 108.413C63.1 107.707 69.5267 109.68 72.0733 114.453C73.9933 118.027 72.4467 120.787 72.5133 125.893C72.5667 129.707 73.54 135.133 77.78 141.707C75.3267 141.653 72.8733 141.613 70.3933 141.56C69.7133 137.213 69.18 132.253 69.0333 126.8C68.9133 122.493 69.06 118.52 69.34 114.893C68.4333 114.427 67.26 113.707 66.02 112.627C64.6333 111.413 62.2067 108.933 62.58 108.413Z" fill="#6D6C6C"/>
    <path d="M31.66 135.6C29.8867 136.747 29.58 138.333 27.9667 141.84C26.8467 144.267 25.1533 147.52 22.5667 151.227C24.0467 152.893 26.5 155.2 30.1 156.907C35.0333 159.24 41.9667 160.373 43.0333 158.333C44.18 156.133 38.1667 150.92 36.3667 149.373C36.86 148.28 37.6466 146.52 38.6333 144.387C41.2333 138.813 41.74 138 41.3267 137C40.34 134.613 34.9 133.533 31.66 135.6Z" fill="#161616"/>
    <path d="M39.1667 65.4667C37.7667 69.32 36.34 73.1867 34.9267 77.0267C32.6067 83.72 33.62 88.3467 34.3667 90.5734C35.18 93.0267 36.6067 95.1334 39.4467 99.32C41.6467 102.547 43.6333 105.147 45.0867 106.947C42.18 109.96 38.8867 113.867 35.78 118.787C31.5933 125.427 29.1133 131.68 27.5933 136.56C28.98 137.613 31.06 138.947 33.7933 139.947C36.86 141.067 39.5667 141.333 41.42 141.347C44.6733 138.84 49.1133 134.933 53.26 129.2C56.5133 124.733 60.8867 118.72 62.2867 110.293C64.6733 95.9467 56.8867 84.28 54.1 80.12C49.0733 72.56 43.0333 67.9734 39.18 65.4534L39.1667 65.4667Z" fill="white"/>
    <path d="M41.5 141.587H41.42C38.78 141.547 36.1934 141.08 33.7134 140.173C31.4467 139.347 29.34 138.187 27.4467 136.747L27.3134 136.653L27.3667 136.493C29.3267 130.2 32.0867 124.2 35.58 118.653C38.2067 114.507 41.3 110.573 44.78 106.933C43.46 105.293 41.4734 102.707 39.26 99.4533L39.22 99.4C36.3934 95.2267 34.98 93.1333 34.1534 90.6533C33.22 87.8667 32.5534 83.2267 34.7134 76.96C35.26 75.4667 35.8067 73.9867 36.3534 72.4933C37.22 70.1333 38.0867 67.76 38.9534 65.4L39.06 65.12L39.3134 65.28C45.4067 69.2667 50.46 74.2267 54.3 80.0133C57.2067 84.36 64.9267 95.9067 62.5267 110.36C61.1134 118.84 56.6867 124.92 53.46 129.36C50.18 133.907 46.18 138.013 41.58 141.547L41.5134 141.6L41.5 141.587ZM27.8734 136.467C29.6867 137.827 31.7134 138.933 33.8867 139.72C36.2867 140.6 38.7934 141.067 41.3534 141.107C45.8867 137.6 49.8334 133.547 53.0734 129.067C56.2734 124.667 60.6734 118.627 62.06 110.267C64.4334 96 56.7934 84.56 53.9134 80.2533C50.1534 74.6 45.2334 69.7467 39.3 65.8133C38.4734 68.0933 37.6334 70.36 36.8067 72.6267C36.26 74.12 35.7134 75.6 35.1667 77.0933C33.0467 83.2267 33.6867 87.76 34.6067 90.48C35.4067 92.8933 36.82 94.9733 39.62 99.12L39.66 99.1733C41.94 102.52 43.98 105.16 45.2867 106.787L45.42 106.947L45.2734 107.093C41.7534 110.747 38.6334 114.72 35.9934 118.893C32.5534 124.36 29.82 130.267 27.8867 136.453L27.8734 136.467Z" fill="#161616"/>
    <path d="M49.02 73.8934C50.82 76.4001 52.5933 78.9201 54.3133 81.4667C54.5267 81.3467 54.7133 81.2267 54.9266 81.1201C53.4066 79.0801 52.0466 76.9067 50.8733 74.6401C50.7133 74.8001 50.54 74.9734 50.38 75.1334C51.34 75.7867 51.8733 76.7734 52.46 77.7334C53.14 78.8534 53.8466 79.9734 54.5133 81.1067C55.8466 83.2801 57.18 85.4801 58.5133 87.6534C58.7266 87.5334 58.9133 87.4134 59.1267 87.3067C57.0867 84.1201 55.06 80.9467 52.9933 77.7601C52.7533 77.3867 52.1533 77.7334 52.38 78.1067C54.9 82.3201 57.46 86.5067 59.98 90.7201C60.22 91.1201 60.82 90.7734 60.5933 90.3734C58.74 87.2401 56.9267 84.0801 55.0733 80.9467C54.8867 81.0934 54.7 81.2267 54.5133 81.3734C57.1533 84.2934 57.62 88.5601 60.5 91.2934C60.8333 91.6001 61.3133 91.1067 60.9933 90.8001C58.1133 88.0801 57.6467 83.8001 55.0067 80.8801C54.7267 80.5734 54.26 80.9734 54.4466 81.3067C56.3 84.4401 58.1133 87.6001 59.9666 90.7334C60.18 90.6134 60.3667 90.4934 60.58 90.3867C58.06 86.1734 55.5 81.9867 52.98 77.7734C52.7667 77.8934 52.58 78.0134 52.3667 78.1201C54.4067 81.3067 56.4333 84.4801 58.5 87.6667C58.74 88.0401 59.34 87.6934 59.1133 87.3201C57.62 84.8667 56.1133 82.4134 54.62 79.9734C53.5266 78.1467 52.5133 75.7867 50.6866 74.5467C50.38 74.3334 50.06 74.7334 50.1933 75.0401C51.3667 77.3067 52.7 79.4667 54.2467 81.5201C54.5 81.8667 55.1133 81.5467 54.86 81.1734C53.1533 78.6001 51.3933 76.0801 49.5666 73.6001C49.38 73.2001 48.7667 73.5467 49.0333 73.9334L49.02 73.8934Z" fill="white"/>
    <path opacity="0.2" d="M50.4866 74.92C49.2733 76.68 47.58 79.5733 46.86 83.3867C44.6333 94.9467 53.9933 100.067 51.9133 110.2C50.82 115.533 48.0333 115.04 41.8066 126.133C38.6466 131.773 36.6333 136.733 35.4466 140.093C33.9266 139.627 32.26 139.013 30.5133 138.227C29.4866 137.76 28.5266 137.293 27.66 136.8C29.0466 132.493 31.1266 127.307 34.26 121.733C37.82 115.44 41.7266 110.533 45.02 106.907C44.1133 105.733 42.7533 103.96 41.18 101.733C36.8466 95.6 34.6466 92.4667 33.9266 88.8667C33.1133 84.8933 33.78 81.4933 34.26 79.2C34.9666 75.7333 36.1533 73.0267 37.1133 71.1733C41.5533 72.4133 46.02 73.68 50.5 74.92H50.4866Z" fill="#6D6C6C"/>
    <path opacity="0.17" d="M44.9933 73.4934C42.3533 76.5067 38.8866 81.4667 39.1666 87.4534C39.5933 96.8401 48.8466 100.413 47.5133 108.107C47.14 110.24 44.1933 113.653 38.2733 120.413C35.02 124.133 32.26 127.107 30.3666 129.093C31.82 125.533 33.9266 121.28 36.9666 116.787C39.66 112.813 42.42 109.627 44.8733 107.12C44.1533 106.027 42.86 104.053 41.2466 101.627C35.6066 93.1601 34.5133 91.8267 33.8733 88.8801C33.1266 85.4134 33.62 82.4934 33.9933 80.3201C34.6733 76.2667 36.1 73.1601 37.18 71.2001C39.78 71.9467 42.3933 72.7201 44.9933 73.4934Z" fill="#6D6C6C"/>
    <path d="M57.0867 32.7867C53.7667 34.7467 47.4467 39.08 42.6333 47.0267C36.5 57.16 36.5 67.0534 36.7133 70.8934C37.86 71.2667 39.0333 71.64 40.22 71.9867C48.1933 74.3734 55.9133 75.9867 63.22 77.0134C63.8333 74.9334 64.4867 72.8267 65.18 70.6534C66.2333 67.4534 67.3267 64.3867 68.46 61.4534C72.34 59.44 73.7 56.84 74.14 55.7734C75.94 51.56 74.2333 47.16 72.38 42.4134C71.3533 39.7467 70.8067 38.3867 69.5267 36.9334C65.5 32.3734 58.86 32.6534 57.0867 32.7734V32.7867Z" fill="#EC615B"/>
    <path opacity="0.27" d="M64.9667 38.3334C58.58 39.1734 55.1667 42.0801 53.78 43.4268C45.9933 51.1201 48.6867 64.1068 49.4067 67.6134C50.06 70.7734 51.0467 73.2934 51.82 75.0001C46.8867 73.6668 41.9667 72.3068 37.0333 70.9734C36.7267 67.4001 36.42 58.2001 41.74 48.4001C46.6733 39.3201 53.7667 34.6668 56.9267 32.8401C57.3667 32.8668 57.82 32.9068 58.26 32.9334C58.94 33.7334 59.7533 34.5734 60.7667 35.4401C62.26 36.7468 63.74 37.6668 64.98 38.3201L64.9667 38.3334Z" fill="#6D6C6C"/>
    <path opacity="0.2" d="M44.5 44.2001C43.8466 47.6401 43.3133 52.6267 44.0066 58.5201C44.8466 65.4401 47.0733 70.8001 48.8066 74.1734C44.78 73.1467 40.74 72.1201 36.7133 71.1067C36.5266 67.8801 36.62 63.0401 38.1666 57.4667C39.8466 51.3867 42.5666 46.9334 44.5 44.2001Z" fill="#6D6C6C"/>
    <path d="M56.0467 95.9467C62.2734 90.4133 68.54 84.9067 74.82 79.44C86.6734 69.1334 98.6334 58.96 110.713 48.92C109.767 46.1067 108.553 41.2267 109.273 35.3067C109.5 33.4267 111.42 19.5733 124.127 12.4133C125.18 11.8133 139.753 3.93335 153.42 12.6267C162.433 18.36 167.1 28.8133 165.993 39.0267C164.367 54.2133 150.887 60.9333 150.1 61.3067C140.38 65.9467 128.687 64.5733 119.98 57.8C106.887 68.5733 93.8334 79.36 80.7934 90.1733C75.0734 94.9067 69.38 99.6534 63.6734 104.4C62.4867 103.827 60.5134 102.68 58.74 100.6C57.2467 98.8533 56.4734 97.1067 56.0467 95.9467Z" fill="#161616"/>
    <path d="M137.94 59.36C151.121 59.36 161.807 49.1223 161.807 36.4934C161.807 23.8645 151.121 13.6267 137.94 13.6267C124.759 13.6267 114.073 23.8645 114.073 36.4934C114.073 49.1223 124.759 59.36 137.94 59.36Z" fill="white"/>
    <path d="M137.94 59.5066C124.7 59.5066 113.927 49.1867 113.927 36.4933C113.927 23.8 124.7 13.48 137.94 13.48C151.18 13.48 161.953 23.8 161.953 36.4933C161.953 49.1867 151.18 59.5066 137.94 59.5066ZM137.94 13.7733C124.86 13.7733 114.233 23.96 114.233 36.4933C114.233 49.0266 124.873 59.2133 137.94 59.2133C151.007 59.2133 161.647 49.0266 161.647 36.4933C161.647 23.96 151.007 13.7733 137.94 13.7733Z" fill="#161616"/>
    <path d="M139.887 14.8933C135.527 24.1333 130.94 33.28 126.14 42.3067C124.78 44.8533 123.42 47.3867 122.033 49.92C121.9 50.1733 122.287 50.4 122.42 50.1467C127.34 41.1733 132.047 32.1067 136.527 22.92C137.793 20.3333 139.033 17.7333 140.287 15.1067C140.407 14.8667 140.02 14.64 139.887 14.8933Z" fill="#E8E8E8"/>
    <path d="M147.233 17.1334C142.447 24.68 137.9 32.3734 133.593 40.2C133.46 40.4534 133.847 40.68 133.98 40.4267C138.3 32.6 142.847 24.92 147.62 17.36C147.767 17.12 147.38 16.8934 147.233 17.1334Z" fill="#E8E8E8"/>
    <path d="M132.793 42.84C130.807 46.7067 128.687 50.5067 126.42 54.2267C126.273 54.48 126.66 54.7067 126.807 54.4533C129.06 50.7333 131.193 46.9333 133.18 43.0667C133.313 42.8133 132.927 42.5733 132.793 42.84Z" fill="#E8E8E8"/>
    <path d="M141.14 31.5601C138.607 36.3201 136.1 41.0667 133.567 45.8267C133.433 46.0801 133.82 46.3067 133.953 46.0534C136.487 41.2934 138.993 36.5467 141.527 31.7867C141.66 31.5334 141.273 31.3067 141.14 31.5601Z" fill="#E8E8E8"/>
    <path opacity="0.08" d="M137.233 13.5468C135.567 14.1468 124.567 18.2668 121.047 29.3201C120.647 30.6001 119.38 34.7201 120.327 39.4934C122.153 48.5868 131.233 55.9334 143.113 58.4001C142.207 58.7068 140.953 59.0668 139.38 59.2534C129.927 60.4401 122.607 54.0001 121.753 53.2401C119.887 51.5334 114.127 45.7601 114.02 36.6134C114.007 35.8134 114.047 26.7868 120.9 20.2801C124.887 16.4934 129.553 15.1068 131.5 14.5468C133.793 13.8934 135.793 13.6534 137.233 13.5601V13.5468Z" fill="#6D6C6C"/>
    <path d="M52.5267 44.5601C54.2067 44.3468 56.74 44.3201 58.58 45.8268C62.5534 49.0534 59.4867 56.0668 61.46 63.4934C62.5134 67.4668 65.3 72.8268 73.3933 78.1334C76.5933 79.7468 79.26 80.9601 81.1133 81.8001C83.7533 82.9868 85.4467 83.6668 85.42 84.5868C85.3934 85.4934 83.74 86.1734 82.54 86.5734C83.9667 87.9068 84.6867 89.5868 84.2067 90.8801C83.8333 91.8801 82.8067 92.3734 81.66 92.9334C80.3534 93.5868 79.2467 93.7334 77.9933 93.8934C75.6333 94.2001 74.46 94.3334 73.38 93.8934C71.7134 93.1868 70.9667 91.6534 69.8733 89.4268C69.26 88.2134 68.5133 86.3201 68.1133 83.8534C65.4733 82.6401 61.6867 80.5334 57.9134 77.0001C56.4334 75.6134 42.78 62.5201 47.0867 51.2001C47.74 49.6134 49.1267 47.0401 52.54 44.5601H52.5267Z" fill="white"/>
    <path d="M75.0067 94.4001C74.3533 94.4001 73.8067 94.3201 73.2867 94.0934C71.5667 93.3601 70.78 91.7867 69.7 89.5867L69.66 89.5067C69.0867 88.3601 68.3267 86.48 67.9 84C64.1533 82.2667 60.74 79.96 57.7533 77.16C56.7133 76.1867 53.1 72.6534 50.1267 67.9467C46.1267 61.5867 45.02 55.9334 46.86 51.1067C47.9267 48.5201 49.78 46.2534 52.3933 44.36L52.4467 44.3201H52.5C55.1533 43.9867 57.2467 44.4267 58.74 45.6267C61.14 47.5734 61.0733 50.8267 60.9933 54.6C60.94 57.28 60.8733 60.3334 61.7 63.4134C63.1267 68.8267 67.1133 73.7067 73.5267 77.92C76.7533 79.5467 79.4467 80.7734 81.22 81.5867L81.82 81.8534C84.2333 82.9334 85.6867 83.5867 85.66 84.5867C85.6467 85.36 84.7933 86.0267 82.98 86.6667C84.34 88.0667 84.9 89.7201 84.42 90.9601C84.02 92.0401 82.94 92.56 81.8067 93.12L81.7533 93.1467C80.42 93.8134 79.3133 93.96 78.02 94.12C76.7533 94.28 75.7933 94.4001 75.0067 94.4001ZM52.62 44.7734C50.0733 46.6267 48.34 48.76 47.3 51.28C43.0867 62.36 56.5267 75.3734 58.0733 76.8267C61.06 79.6267 64.4733 81.92 68.2067 83.64L68.3133 83.6934V83.8134C68.74 86.3067 69.5 88.1734 70.06 89.32L70.1 89.4001C71.18 91.5867 71.8867 93.0267 73.4467 93.6801C74.4467 94.0934 75.54 93.9734 77.94 93.6667C79.1933 93.5067 80.2733 93.3601 81.54 92.7334L81.5933 92.7067C82.6867 92.1734 83.6333 91.7067 83.98 90.8C84.42 89.6534 83.7933 88.0667 82.38 86.7467L82.0867 86.48L82.46 86.36C84.6867 85.6134 85.1667 84.9867 85.18 84.5867C85.1933 83.9067 83.7 83.2267 81.6067 82.2934L81.0067 82.0267C79.22 81.2134 76.5133 79.9734 73.2733 78.3467H73.2467C66.7267 74.0534 62.6867 69.08 61.22 63.56C60.3933 60.4134 60.4467 57.3334 60.5 54.6134C60.58 50.8134 60.6333 47.8134 58.42 46.0134C57.0467 44.9067 55.0867 44.4934 52.5933 44.7867L52.62 44.7734Z" fill="#161616"/>
    <path d="M73.4467 90.9867C74.0333 92.2667 74.9267 93.3467 76.0733 94.2134C76.42 94.4934 76.78 93.88 76.42 93.6C75.3933 92.8267 74.5933 91.8 74.06 90.6267C73.8733 90.2267 73.26 90.5734 73.4467 90.9734V90.9867Z" fill="#161616"/>
    <path d="M76.2467 90.6134C76.9533 91.9734 78.0067 93.0934 79.2867 93.9334C79.66 94.1734 80.0067 93.5601 79.6333 93.3201C78.4467 92.5734 77.4867 91.5201 76.82 90.2534C76.6333 89.8534 76.02 90.2001 76.2333 90.6001L76.2467 90.6134Z" fill="#161616"/>
    <path d="M79.1933 89.0267C79.8467 90.4134 80.9667 91.5067 82.3533 92.16C82.7533 92.3467 83.1267 91.7334 82.7 91.5467C81.42 90.9334 80.4067 89.96 79.7933 88.6667C79.58 88.24 78.9933 88.6 79.18 89.0134L79.1933 89.0267Z" fill="#161616"/>
    <path opacity="0.2" d="M53.1133 44.6001C52.5933 46.9201 52.0333 50.5601 52.5266 54.9601C53.8066 66.0934 61.02 73.4401 62.2066 74.6401C68.1533 80.5334 72.0333 79.7334 74.3933 85.0001C75.02 86.4001 76.1533 89.5868 79.1933 91.2401C80.38 91.8668 81.5133 92.1068 82.26 92.2001C81.86 92.5334 81.2066 92.9734 80.34 93.3468C78.8866 93.9734 77.62 94.0001 75.6333 94.0268C74.1533 94.0534 73.4066 94.0534 72.7533 93.7468C71.3666 93.1201 70.7133 91.8001 70.46 91.1468C69.5266 88.6268 68.6066 86.0934 67.6733 83.5734C63.1133 81.2401 56.66 77.0668 51.5533 69.9334C49.42 66.9601 45.8733 61.8668 46.1666 55.7334C46.3133 52.9468 47.1933 51.0134 47.4066 50.5468C49.0733 47.1068 51.8333 45.3334 53.0866 44.6001H53.1133Z" fill="#6D6C6C"/>
    <path opacity="0.32" d="M46.4867 57.16C46.6334 57.1067 47.5134 59.9201 49.2734 63.2001C53.5534 71.2934 59.7267 76.2534 64.1534 79.7201C66.1667 81.2934 67.8734 82.4534 68.9534 83.1867C70.26 85.3867 71.0067 87.28 71.46 88.6667C71.8334 89.8134 72.0467 90.8401 72.9134 91.9201C73.8067 93.0934 74.9534 93.7467 75.7934 94.12C75.1667 94.1467 74.2067 94.0934 73.1934 93.6267C71.2734 92.7334 70.4334 90.8934 69.54 88.9201C69.02 87.8001 68.42 86.1067 68.0867 83.9334C55.8734 77.76 51.2867 69.9734 49.5534 66.2667C47.78 62.4801 46.3 57.2667 46.4867 57.16Z" fill="#6D6C6C"/>
    <path d="M65.86 23.2C64.1933 23.8534 65.18 27.1334 62.5133 30.1067C61.2066 31.5867 59.6066 32.28 58.5133 32.68C59.22 33.7334 60.5933 35.44 62.86 36.8C64.4733 37.7867 66.02 38.2534 67.1 38.4667C67.4466 37.84 68.0333 36.8534 68.7666 35.68C71.3666 31.5867 72.3 31.1467 72.4333 29.7867C72.78 26.4667 67.9933 22.3734 65.86 23.2134V23.2Z" fill="white"/>
    <path d="M67.22 38.7067L67.0467 38.6801C66.02 38.4801 64.4333 38.0267 62.74 36.9867C60.5 35.6401 59.1 33.9734 58.3133 32.8001L58.1533 32.5467L58.4333 32.4401C59.4867 32.0534 61.0467 31.3734 62.34 29.9334C63.7267 28.3867 64.1 26.7601 64.3933 25.4667C64.6733 24.2667 64.8867 23.3201 65.7667 22.9734C66.6867 22.6134 68.06 23.0401 69.4733 24.1067C71.22 25.4267 72.8866 27.7067 72.66 29.7867C72.5666 30.6401 72.1933 31.1601 71.3667 32.2667C70.7933 33.0401 70.02 34.0934 68.94 35.7867C68.2333 36.9201 67.6467 37.9067 67.2867 38.5601L67.2066 38.7067H67.22ZM58.8733 32.7867C59.6466 33.8934 60.9667 35.3867 62.98 36.5867C64.5267 37.5334 65.98 37.9734 66.9666 38.1867C67.34 37.5334 67.8867 36.6001 68.5533 35.5467C69.6333 33.8401 70.42 32.7867 70.9933 32.0001C71.7933 30.9201 72.1133 30.4801 72.1933 29.7467C72.3933 27.8534 70.78 25.6934 69.1933 24.4801C67.94 23.5201 66.6867 23.1201 65.94 23.4134C65.2867 23.6801 65.1 24.4667 64.8466 25.5734C64.54 26.9334 64.1533 28.6267 62.6867 30.2534C61.4467 31.6534 59.9666 32.3734 58.8733 32.7867Z" fill="#161616"/>
    <path d="M65.5533 29.5067C66.5133 31.4267 67.5133 33.3201 69.1133 34.8001C69.4467 35.1067 69.9267 34.6134 69.6067 34.3067C68.06 32.8801 67.1 31.0134 66.1667 29.1601C65.9533 28.7601 65.3533 29.1067 65.5533 29.5067Z" fill="#161616"/>
    <path d="M64.86 28.2534C65.94 30.3601 67.1 32.4401 69.1667 33.7334C69.5133 33.9468 69.8733 33.4801 69.5933 33.1734C68.9133 32.4534 68.2067 31.7201 67.5533 31.0001C67.3933 31.1601 67.22 31.3334 67.06 31.4934C67.46 31.9201 67.8733 32.3068 68.34 32.6401C68.5 32.7601 69.02 32.9868 69.1133 33.1334C69.26 33.3734 69.1133 33.7468 69.0467 33.9734C69.2867 34.0401 69.4867 34.0934 69.7267 34.1601C69.7533 34.0401 69.7533 33.9201 69.78 33.8268C69.8333 33.5201 69.4467 33.2001 69.1933 33.4801C69.1933 33.2268 69.1267 32.9601 68.9533 32.7601C68.74 32.8801 68.5533 33.0001 68.34 33.1068C68.5933 33.4534 68.86 33.8134 69.1133 34.1601C69.3 34.0134 69.4867 33.8801 69.6733 33.7334C69.46 33.4934 69.3 33.2668 69.14 33.0134C68.9267 32.7068 68.34 32.8934 68.5133 33.2934C68.66 33.6001 68.7 33.7201 68.9133 33.9734C69.1933 34.3201 69.6867 33.8268 69.4067 33.4801C69.34 33.3601 69.26 33.2401 69.1933 33.1068C68.98 33.2001 68.7667 33.2934 68.5667 33.3868C68.78 33.6934 68.9933 33.9734 69.22 34.2534C69.4733 34.5601 70.02 34.1601 69.78 33.8268C69.5267 33.4801 69.26 33.1201 69.0067 32.7734C68.7533 32.4001 68.2067 32.7201 68.3933 33.1201C68.6333 33.5868 69.1 34.6934 69.7267 33.9868C69.54 33.8668 69.3267 33.7468 69.14 33.6401C69.1133 33.7601 69.1133 33.8801 69.0867 33.9734C69.02 34.4134 69.6467 34.6001 69.7667 34.1601C69.9267 33.6001 70.3267 33.3468 69.86 32.7734C69.6467 32.5201 69.3 32.4001 69.0467 32.2401C68.5133 31.8934 68.0467 31.4668 67.5933 31.0001C67.2867 30.6668 66.7933 31.1601 67.1 31.4934C67.78 32.2134 68.46 32.9468 69.14 33.6668C69.2867 33.4801 69.42 33.2934 69.5667 33.1068C67.62 31.8934 66.5533 29.8801 65.5133 27.8934C65.26 27.4934 64.6467 27.8668 64.86 28.2668V28.2534Z" fill="#161616"/>
    <path d="M87.38 17C86.9133 19.08 85.9533 22.1733 83.7533 25.3467C79.9 30.9333 74.6467 33.3067 72.4067 34.16C71.1267 33.6667 69.4333 32.8 67.8467 31.3333C63.5 27.28 63.1667 21.7467 63.1267 20.32C62.66 20.2 61.98 19.9467 61.3933 19.3867C59.9 17.9333 59.54 15.0533 60.9267 13.8667C62.5 12.5067 65.4867 14.1733 65.82 14.3333C66.54 14.7333 67.06 15.2267 67.3933 15.6C68.6733 11.72 71.7667 8.78667 75.4467 8.18667C80.4467 7.37334 85.9267 11.0133 87.4067 17H87.38Z" fill="white"/>
    <path d="M72.4067 34.4133L72.3266 34.3867C71.14 33.9333 69.3666 33.0667 67.6867 31.5067C63.6733 27.7733 62.9933 22.6933 62.8867 20.4933C62.4067 20.3467 61.78 20.08 61.22 19.5467C60.3267 18.68 59.78 17.28 59.82 15.96C59.8467 15 60.18 14.1867 60.7667 13.68C61.8067 12.7867 63.6066 12.92 65.8466 14.08L65.9133 14.1067C66.42 14.3867 66.8733 14.7333 67.2867 15.1333C68.7 11.28 71.7666 8.53334 75.3933 7.93334C80.7 7.06667 86.18 11.1067 87.6067 16.9333V16.9867V17.04C86.9133 20.12 85.6867 22.96 83.94 25.4667C80.4467 30.52 75.78 33.0933 72.4867 34.3733L72.4067 34.4V34.4133ZM62.5133 13.56C61.9666 13.56 61.46 13.6933 61.0733 14.04C60.5933 14.4533 60.3133 15.1467 60.2867 15.9733C60.2467 17.1733 60.7533 18.44 61.5533 19.2133C62.1 19.7333 62.74 19.9867 63.18 20.0933L63.3533 20.1333V20.3067C63.42 22.3333 64.0067 27.44 68.0067 31.16C69.5933 32.6267 71.26 33.4667 72.4067 33.9067C75.6333 32.6533 80.1667 30.12 83.5667 25.2C85.26 22.7467 86.46 19.9867 87.14 16.9867C85.74 11.4133 80.5133 7.57334 75.46 8.40001C71.9533 8.98667 68.86 11.8267 67.5933 15.6533L67.46 16.04L67.1933 15.7333C66.7667 15.24 66.26 14.8267 65.6867 14.52L65.62 14.4933C64.82 14.08 63.5933 13.56 62.5 13.56H62.5133Z" fill="#161616"/>
    <path d="M81.7267 22.5867C80.7933 24.6934 79.4067 26.4934 77.6333 27.9734C77.2867 28.2534 77.78 28.7467 78.1267 28.4667C79.98 26.9734 81.38 25.12 82.34 22.9467C82.5267 22.52 81.9133 22.1734 81.7267 22.6V22.5867Z" fill="#161616"/>
    <path d="M76.74 26.4001C76.6467 27.2001 76.9267 27.9734 77.46 28.5468C77.7667 28.8801 78.26 28.3868 77.9534 28.0534C77.5267 27.5868 77.3667 27.0268 77.4334 26.3868C77.4867 25.9468 76.78 25.9468 76.7267 26.3868L76.74 26.4001Z" fill="#161616"/>
    <path d="M75.3133 22.4C75.9266 21.56 76.6467 20.8133 77.46 20.1333C77.2733 20.0133 77.06 19.8933 76.8733 19.7866C76.5666 20.72 75.9133 21.4666 75.0466 21.9333C75.1933 22.12 75.3266 22.3066 75.4733 22.4933C76.0066 21.84 76.5533 21.2133 77.0866 20.5466C77.3666 20.2 76.8733 19.7066 76.5933 20.0533C76.06 20.7066 75.5133 21.3333 74.98 22C74.7266 22.3066 75.0466 22.7466 75.4066 22.56C76.4333 22 77.18 21.08 77.5533 19.9866C77.6733 19.6133 77.22 19.4533 76.9666 19.64C76.1 20.3466 75.3533 21.1333 74.7266 22.0533C74.4466 22.4266 75.06 22.7733 75.3133 22.4Z" fill="#161616"/>
    <path d="M83.0733 24.4534C83.38 23.9334 83.78 23.4934 84.22 23.0934C84.0333 22.9734 83.82 22.8534 83.6333 22.7467C83.42 23.4534 83.0067 24.08 82.3933 24.52C82.5533 24.6667 82.74 24.7734 82.9133 24.92C83.06 24.5467 83.26 24.2 83.5267 23.8934C83.8067 23.5467 83.3133 23.0534 83.0333 23.4C82.7 23.8267 82.4467 24.24 82.26 24.7334C82.14 25.0134 82.54 25.32 82.78 25.1334C83.5267 24.5734 84.06 23.8534 84.3267 22.96C84.4467 22.6134 83.9933 22.4 83.74 22.6134C83.2467 23.04 82.8333 23.5467 82.4733 24.1067C82.22 24.48 82.82 24.8267 83.0867 24.4534H83.0733Z" fill="#161616"/>
    <path d="M72.9 20.6666C73.2467 21.48 73.4333 22.3333 73.4333 23.1866C73.4333 23.4266 73.78 23.4266 73.78 23.1866C73.78 22.2533 73.5667 21.3333 73.1933 20.4666C73.1 20.2533 72.7933 20.44 72.8867 20.6533L72.9 20.6666Z" fill="#161616"/>
    <path d="M71.9266 20.0667C72.1666 20.4401 72.3266 20.8134 72.46 21.2134C72.5266 21.4267 72.86 21.3334 72.7933 21.1201C72.6466 20.6801 72.46 20.2801 72.2333 19.8801C72.1133 19.6934 71.8066 19.8801 71.9266 20.0667Z" fill="#161616"/>
    <path d="M77.3266 18.1467C78.1933 17.8934 79.0066 18.48 79.0333 19.3867C79.0333 19.72 79.5667 19.7334 79.5667 19.3867C79.5133 18.1467 78.3933 17.3067 77.18 17.6267C76.8466 17.72 76.9933 18.24 77.3266 18.1467Z" fill="#161616"/>
    <path d="M83.5934 21.5867C83.9667 21.3467 84.4067 21.3334 84.8067 21.5601C85.0867 21.7467 85.3667 21.2801 85.06 21.1201C84.5267 20.7867 83.8467 20.7867 83.3267 21.1467C83.0467 21.3334 83.3 21.7734 83.58 21.5867H83.5934Z" fill="#161616"/>
    <path d="M72.18 27.6C72.74 28.6 73.7 29.3333 74.82 29.64C75.26 29.76 75.4467 29.08 75.0067 28.96C74.0467 28.7067 73.2734 28.12 72.78 27.2533C72.54 26.8533 71.94 27.2 72.1667 27.6H72.18Z" fill="#161616"/>
    <path d="M67.3533 16.5334C67.8733 15.6401 69.1133 13.7468 71.5 12.4401C73.14 11.5334 74.6867 11.2668 75.62 11.1734C76.14 11.8534 76.98 12.7468 78.22 13.3068C81.14 14.6401 83.5133 12.8801 85.2333 14.0534C86.14 14.6668 87.06 16.1334 86.7133 20.1601C88.26 21.7468 89.2867 21.8401 89.8467 21.7334C92.18 21.2668 93.8733 16.0001 92.3933 12.1601C91.9533 11.0134 91.3667 10.3601 86.4067 6.40009C79.4067 0.826755 78.54 0.506755 77.6333 0.293422C72.82 -0.826578 68.5533 1.60009 67.8333 2.02675C66.9 2.56009 66.6867 2.82676 61.3267 8.45342C57.1667 12.8268 56.7667 13.2268 56.3933 14.3068C55.4067 17.0268 55.5933 20.9468 58.1 23.8268C60.46 26.5201 63.6467 26.9201 64.46 27.0134C64.1133 26.2134 63.74 25.0934 63.5533 23.7201C63.3133 21.9468 63.5533 20.4668 63.7667 19.5068C63.6067 19.3868 62.6733 18.6134 62.5933 17.3068C62.54 16.3468 62.9933 15.1334 64.02 14.7334C65.1667 14.2934 66.74 14.9734 67.3667 16.5334H67.3533Z" fill="#5222D0"/>
    <path d="M66.3533 4.76009C65.3933 2.86675 62.5933 2.58675 62.1 2.53342C58.1933 2.13342 55.06 5.62675 53.2067 7.65342C49.9267 11.2801 50.8733 12.3601 47.6867 16.7334C43.4733 22.5334 40.3133 22.7868 39.66 26.7868C39.6067 27.0934 39.0333 31.1201 41.7 33.5468C43.9933 35.6534 47.6867 35.6801 50.1267 34.4134C53.42 32.7068 53.14 29.2668 55.5267 23.4934C60.2067 12.2134 68.2067 8.40009 66.3533 4.76009Z" fill="#5222D0"/>
    <path opacity="0.12" d="M70.1133 13.28C69.3667 15.1467 68.4733 18.12 68.5267 21.84C68.5933 27.7867 71.0333 32.1334 72.2467 34C70.9133 33.44 68.6867 32.24 66.7533 29.9067C65.9533 28.9467 64.0867 26.68 63.5933 23.1867C63.3533 21.6134 63.5 20.3067 63.6467 19.4267C63.5 19.3067 62.5533 18.44 62.5933 17.0934C62.62 16.2 63.0867 15.0134 64.0867 14.6667C65.2067 14.2667 66.7533 15 67.3667 16.56C67.6067 16.0934 67.9267 15.5067 68.42 14.8934C69.0333 14.1734 69.6333 13.6534 70.1267 13.28H70.1133Z" fill="#6D6C6C"/>
    <path opacity="0.13" d="M66.0067 30.4001C65.82 30.8268 65.6067 31.2401 65.3533 31.6668C64.18 33.6268 62.66 34.9468 61.4733 35.7334C61.0467 35.4801 60.4867 35.0801 59.9267 34.4668C59.3133 33.8134 58.94 33.1601 58.74 32.6934C59.6467 32.4134 61.9267 31.5468 63.46 29.2801C63.9933 28.4668 64.3267 27.6668 64.5133 27.0134C65.0067 28.1601 65.5 29.2801 66.0067 30.4001Z" fill="#6D6C6C"/>
    <path opacity="0.18" d="M63.94 19.0267C64.06 20.6401 64.3666 22.7467 65.1533 25.1067C66.2466 28.3067 67.8466 30.6801 69.06 32.1734C67.8466 31.1867 66.3933 29.7201 65.22 27.6534C64.4466 26.2667 63.3 24.2801 63.4466 21.5734C63.5 20.5201 63.7266 19.6267 63.94 19.0267Z" fill="#6D6C6C"/>
    <path opacity="0.32" d="M67.5267 2.6134C66.54 3.5734 60.42 9.74674 61.26 18.5201C61.6067 22.2667 63.1133 25.0934 64.18 26.7601C63.4333 26.7067 61.98 26.5467 60.42 25.6401C58.86 24.7334 57.9667 23.5334 57.5667 22.9201C57.26 22.4267 56.8867 21.6401 56.66 20.6267C56.66 20.6267 56.2334 18.6667 57.0067 16.2267C57.82 13.5601 61.5267 8.36007 67.54 2.6134H67.5267Z" fill="#32198E"/>
    <path opacity="0.33" d="M54.8733 6.40008C55.4066 6.74674 52.4466 13.0001 49.1666 18.4534C46.22 23.3467 44.7666 24.6934 44.5533 27.6934C44.34 30.8001 45.6466 33.4667 46.82 35.2667C46.2333 35.3201 44.0333 35.3867 42.1133 33.8667C41.06 33.0267 40.5 32.0401 40.2466 31.4401C39.6866 29.8001 39.1933 27.4134 40.18 25.1734C40.8333 23.6534 41.6066 23.5334 44.02 21.1067C46.1533 18.9601 48.26 16.8267 49.7933 13.6667C50.5933 12.0534 50.8733 10.8801 52.22 9.05341C53.1133 7.84007 54.5533 6.20007 54.86 6.41341L54.8733 6.40008Z" fill="#32198E"/>
  </g>
  <defs>
    <clipPath id="clip0_7201_137">
      <rect width="172.653" height="160" fill="white" transform="translate(-6.5)"/>
    </clipPath>
  </defs>
</svg>