<svg width="1202" height="541" viewBox="0 0 1202 541" fill="none" xmlns="http://www.w3.org/2000/svg">
<path d="M757.745 523.568C796.17 523.568 834.542 523.568 872.967 523.568C911.182 523.568 949.45 523.568 987.665 523.568C1009.41 523.568 1031.11 523.568 1052.86 523.568C1053.85 523.568 1053.85 522 1052.86 522C1014.43 522 976.06 522 937.635 522C899.419 522 861.152 522 822.936 522C801.188 522 779.493 522 757.745 522C756.752 522 756.752 523.568 757.745 523.568Z" fill="#161616"/>
<path d="M970.745 498.568C1015.39 498.568 1060.04 498.568 1104.68 498.568C1117.39 498.568 1130.04 498.568 1142.74 498.568C1143.73 498.568 1143.73 497 1142.74 497C1098.1 497 1053.45 497 1008.8 497C996.1 497 983.449 497 970.745 497C969.752 497 969.752 498.568 970.745 498.568Z" fill="#161616"/>
<path d="M1047.74 520.381C1087.26 520.381 1126.84 520.381 1166.36 520.381C1177.71 520.381 1189 520.381 1200.34 520.381C1201.34 520.381 1201.34 518.812 1200.34 518.812C1160.82 518.812 1121.24 518.812 1081.72 518.812C1070.38 518.812 1059.09 518.812 1047.74 518.812C1046.7 518.812 1046.7 520.381 1047.74 520.381Z" fill="#323232"/>
<path d="M1040.8 369.237C1050.03 405.478 1059.27 441.72 1068.45 477.961C1071.07 488.316 1073.72 498.622 1076.34 508.977C1076.79 510.751 1079.4 509.984 1078.95 508.21C1069.72 471.969 1060.48 435.727 1051.3 399.486C1048.68 389.131 1046.03 378.825 1043.41 368.47C1042.96 366.696 1040.35 367.463 1040.8 369.237Z" fill="#161616"/>
<path d="M1014.19 370.771C1014.59 410.655 1015 450.588 1015.36 490.472C1015.45 501.738 1015.58 513.051 1015.67 524.317C1015.67 526.186 1018.37 526.186 1018.37 524.317C1017.97 484.432 1017.56 444.5 1017.2 404.615C1017.11 393.349 1016.98 382.036 1016.89 370.771C1016.89 368.949 1014.19 368.949 1014.19 370.771Z" fill="#161616"/>
<path d="M976.49 365.641C968.473 404.615 960.727 443.637 953.251 482.754C951.134 493.828 949.063 504.902 946.991 515.928C946.631 517.749 949.243 518.516 949.603 516.695C956.944 477.577 964.51 438.507 972.392 399.486C974.598 388.46 976.85 377.434 979.147 366.408C979.462 364.587 976.85 363.82 976.49 365.641Z" fill="#161616"/>
<path d="M957.754 468.325C977.255 468.517 996.711 468.996 1016.17 469.811C1017.92 469.907 1017.92 467.031 1016.17 466.935C996.711 466.12 977.21 465.64 957.754 465.449C956.043 465.449 956.043 468.325 957.754 468.325Z" fill="#161616"/>
<path d="M1017.16 469.188C1018.96 469.476 1020.35 468.709 1022.02 467.989C1024.05 467.127 1026.07 466.216 1028.1 465.305C1031.7 463.675 1035.31 462.045 1038.91 460.367C1046.7 456.724 1054.4 452.937 1062.01 449.054C1063.59 448.239 1062.19 445.794 1060.66 446.561C1053.68 450.156 1046.66 453.608 1039.54 456.964C1035.98 458.641 1032.42 460.271 1028.82 461.901C1026.98 462.716 1025.17 463.531 1023.33 464.346C1021.89 464.969 1019.41 466.647 1017.83 466.407C1016.17 466.168 1015.4 468.948 1017.16 469.188Z" fill="#161616"/>
<path d="M1004.23 371.585C1000.63 405.622 997.026 439.658 993.423 473.742C992.387 483.377 991.396 493.061 990.36 502.697C990.18 504.518 992.882 504.518 993.062 502.697C996.665 468.66 1000.27 434.624 1003.87 400.54C1004.91 390.905 1005.9 381.221 1006.93 371.585C1007.16 369.764 1004.46 369.764 1004.23 371.585Z" fill="#161616"/>
<path d="M996.802 452.745C1018.19 452.218 1039.5 450.78 1060.84 449.294C1062.55 449.198 1062.6 446.273 1060.84 446.417C1039.5 447.903 1018.19 449.294 996.802 449.869C995.045 449.917 995.045 452.793 996.802 452.745Z" fill="#161616"/>
<path d="M958.251 468.181C971.717 464.011 984.687 458.354 997.702 452.793C999.279 452.122 998.603 449.342 996.982 450.013C983.966 455.574 970.996 461.23 957.53 465.401C955.864 465.88 956.584 468.661 958.251 468.181Z" fill="#161616"/>
<path d="M1025.08 332.612C1036.66 334.242 1046.25 337.645 1053.59 341.001C1053.73 349.678 1053.82 358.307 1053.95 366.984C1045.48 371.01 1032.51 375.852 1016.17 377.242C995.225 379.016 978.426 374.27 968.743 370.675C968.338 360.943 967.978 351.212 967.572 341.48C978.201 336.591 999.143 328.969 1025.08 332.612Z" fill="white" stroke="#323232" stroke-width="3"/>
<path d="M971.266 343.734C974.779 347.904 979.823 349.39 984.912 350.061C991.487 350.972 998.242 351.26 1004.91 351.5C1018.6 351.979 1032.47 351.164 1045.49 346.178C1046.3 345.891 1045.94 344.501 1045.13 344.788C1032.74 349.534 1019.59 350.493 1006.57 350.109C1000.36 349.918 994.144 349.534 987.929 348.959C982.3 348.432 976.22 347.425 972.256 342.727C971.626 342.008 970.68 343.063 971.266 343.734Z" fill="#161616"/>
<path d="M1000.5 190.953C998.204 189.752 994.319 193.442 992.732 194.954C985.088 202.246 983.542 210.783 978.488 224.522C976.859 228.923 974.353 235.282 970.719 242.885C966.667 247.598 960.736 253.422 952.716 258.58C947.87 261.692 943.234 263.915 939.224 265.516C936.843 264.716 932.206 263.515 926.734 264.716C923.392 265.427 919.8 266.227 917.962 269.251C914.704 274.631 919.048 283.834 924.478 288.414C926.191 289.881 929.073 292.282 932.749 291.882C937.469 291.349 941.688 286.28 942.983 279.121C950.209 277.565 964.913 273.297 978.237 260.225C981.203 257.29 988.597 249.554 994.236 237.06C998.914 226.745 999.875 218.786 1001.5 205.67C1002.84 194.776 1002.05 191.797 1000.5 190.953Z" fill="white" stroke="#161616" stroke-width="2"/>
<path opacity="0.08" d="M999.291 190.508C997.244 190.508 996.826 202.735 993.443 214.784C988.723 231.68 979.742 242.84 975.69 247.82C971.179 253.289 957.771 269.206 935.131 275.787C928.072 277.832 921.973 278.454 917.629 278.588C918.214 280.277 921.096 288.103 928.239 290.726C929.575 291.215 932.04 292.104 934.88 291.304C939.308 290.059 942.691 285.168 943.652 278.899C951.589 276.943 967.67 271.785 980.494 257.735C986.133 251.599 989.809 245.197 990.853 243.329C995.364 235.237 997.202 228.657 999.333 221.009C1003.13 207.448 1002.63 201.357 1001.96 197.577C1001.71 196.288 1000.71 190.508 999.291 190.508Z" fill="#6D6C6C"/>
<path opacity="0.15" d="M998.747 219.275C998.204 219.053 995.74 228.212 987.093 241.018C982.624 247.598 976.985 255.912 967.461 263.026C961.446 267.517 953.217 271.385 936.718 279.122C928.363 283.035 923.56 285.035 923.727 287.57C923.894 290.149 929.032 292.505 933.292 291.794C938.096 290.993 942.148 286.191 943.109 279.655C947.494 278.277 953.426 276.054 960.067 272.586C962.824 271.163 972.139 266.272 979.157 259.87C996.116 244.397 999.624 219.676 998.747 219.275Z" fill="#6D6C6C"/>
<path d="M930.728 431.683C931.877 442.539 932.979 453.395 934.128 464.25C917.273 479.082 909.612 487.797 911.145 490.396C912.964 493.454 927.329 488.256 954.334 474.648C952.945 460.683 951.557 446.718 950.12 432.753C943.656 432.396 937.192 432.039 930.728 431.683Z" fill="#161616" stroke="#161616" stroke-width="3"/>
<path d="M1012.27 281.433C1014.71 288.211 1017.82 300.086 1014.95 314C1013.47 321.238 1010.5 328.322 1001.26 341.523C993.644 352.379 981.722 367.414 963.91 383.519C961.324 389.839 958.547 398.606 957.446 409.207C956.009 423.223 958.068 434.843 960.127 442.488C957.829 444.017 951.317 447.891 942.076 447.84C931.542 447.789 924.407 442.59 922.349 441.01C920.721 430.511 919.571 417.667 920.146 403.04C920.721 388.106 922.971 375.161 925.461 364.662C930.249 359.208 937.958 350.85 948.3 341.523C963.192 328.118 969.799 324.958 976.12 315.835C980.908 308.853 986.127 297.538 985.648 279.292C994.458 279.955 1003.36 280.719 1012.27 281.433Z" fill="#EC615B"/>
<path opacity="0.12" d="M1006 281.637C1000.25 285.051 1003.36 297.946 1002.31 310.331C1001.02 325.315 993.979 335.407 984.116 349.575C971.762 367.312 957.494 377.76 948.157 383.417C945.858 404.925 943.56 426.433 941.262 447.941C943.369 447.891 945.858 447.636 948.635 446.973C953.519 445.801 957.302 443.762 959.936 442.08C959.074 439.43 958.02 435.658 957.398 431.02C956.68 425.873 956.775 421.999 956.919 417.056C957.111 411.194 957.254 405.741 958.786 398.657C959.552 394.936 960.941 389.788 963.383 383.927C966.735 380.716 970.134 377.352 973.534 373.887C980.86 366.394 986.318 360.839 992.639 353.041C1003.17 340.147 1007.91 331.227 1009.25 328.781C1011.5 324.449 1012.75 322.104 1013.85 318.486C1017.3 307.375 1015.91 297.538 1015.24 293.206C1014.76 290.046 1013.9 286.02 1012.22 281.433C1010.45 280.872 1008.06 280.413 1006 281.637Z" fill="#3D3D3D"/>
<path opacity="0.16" d="M953.143 384.182C947.302 393.152 944.62 401.154 943.232 406.76C942.418 410.022 942.035 412.723 940.455 426.382C939.497 434.843 938.731 441.978 938.156 447.228C941.987 445.699 945.817 444.119 949.696 442.59C947.254 433.11 946.679 424.904 946.679 419.043C946.679 416.495 946.775 409.92 948.307 401.612C949.552 394.579 951.419 388.718 953.143 384.182Z" fill="#3D3D3D"/>
<path d="M964.683 434.69C965.833 445.546 966.934 456.402 968.083 467.258C951.229 482.09 943.568 490.805 945.1 493.404C946.919 496.462 961.284 491.264 988.289 477.656C986.9 463.691 985.512 449.726 984.075 435.761C977.611 435.404 971.147 435.047 964.683 434.69Z" fill="#161616" stroke="#161616" stroke-width="3"/>
<path d="M1028.56 289.486C1030.33 296.468 1032.15 306.611 1031.72 318.894C1031.67 319.607 1031.19 331.584 1028.56 340.605C1021.18 366.038 993.029 380.971 985.081 384.896C985.751 390.961 986.517 397.026 987.331 403.193C989.103 416.597 991.018 429.645 993.173 442.386C992.071 443.61 985.559 450.745 974.355 451.357C963.199 451.968 955.873 445.648 954.628 444.527C950.558 434.945 945.483 419.145 946.105 399.37C946.488 387.903 948.691 378.219 951.037 370.829C961.954 354.825 970.716 342.44 976.606 334.184C987.81 318.486 990.635 315.071 993.173 307.324C997.195 295.245 995.423 288.415 1000.79 284.746C1004.62 282.146 1012.13 281.127 1028.56 289.486Z" fill="#EC615B"/>
<path opacity="0.18" d="M1015.44 294.684C1009.45 303.145 1011.8 311.503 1009.16 322.257C1005.48 337.446 996.907 347.69 984.745 362.216C978.903 369.147 973.541 374.448 969.566 378.066C972.822 402.174 976.126 426.281 979.382 450.337C981.01 450.082 983.404 449.522 985.99 448.095C989.437 446.209 991.64 443.661 992.789 442.081C992.31 438.768 991.831 435.404 991.4 432.091C989.198 416.342 987.091 400.543 985.032 384.743C987.809 383.316 991.736 381.175 996.332 378.321C1001.5 375.059 1006.1 372.154 1011.22 367.363C1013.52 365.223 1017.16 361.757 1020.9 356.201C1022.62 353.653 1028.65 344.428 1030.57 332.196C1031 329.495 1031.24 326.233 1031.38 324.551C1031.48 323.583 1031.96 317.365 1031.86 312.013C1031.81 307.63 1031.29 299.934 1028.6 289.69C1027.84 288.976 1026.69 288.11 1025.16 287.906C1020.7 287.294 1016.87 292.646 1015.44 294.684Z" fill="#3D3D3D"/>
<path opacity="0.16" d="M984.89 385.354C984.315 392.592 983.836 399.982 983.453 407.576C982.735 422.153 982.448 436.219 982.543 449.624C984.076 449.012 985.943 448.095 987.954 446.77C990.061 445.343 991.737 443.814 992.982 442.539C990.3 423.427 987.619 404.365 984.89 385.354Z" fill="#3D3D3D"/>
<path d="M989.707 187.44C980.225 194.065 977.26 205.181 974.169 216.652C973.542 218.919 971.036 228.79 970.869 242.707C970.743 256.268 972.999 259.958 973.25 271.296C973.417 278.899 972.665 289.837 968.195 303.398C971.621 306.911 981.98 316.514 998.354 318.96C1015.4 321.539 1028.3 314.691 1032.4 312.291C1032.77 307.088 1033.27 298.996 1033.27 289.081C1033.32 247.153 1024.84 225.189 1037.16 209.982C1038.79 207.982 1041.59 205.136 1046.1 202.691C1042.88 198.778 1028.55 182.105 1007.88 182.371C1003.95 182.371 996.683 182.549 989.707 187.44Z" fill="white" stroke="#161616" stroke-width="2"/>
<path opacity="0.1" d="M1016.61 183.483C1011.72 193.798 1005.91 209.493 1005.58 228.923C1005.25 247.198 1010.01 255.29 1008.71 271.563C1007.84 282.767 1003.99 298.685 990.25 317.27C993.341 318.293 996.975 319.182 1001.03 319.582C1015.35 320.961 1026.84 315.581 1032.69 312.157C1033.61 299.574 1033.57 289.437 1033.4 282.812C1032.86 262.626 1031.23 247.064 1031.23 247.064C1030.39 240.706 1030.35 235.282 1030.52 231.236C1030.77 225.455 1030.93 222.032 1032.44 217.941C1033.48 215.14 1035.86 210.205 1041.54 205.67C1043.13 204.736 1044.76 203.802 1046.35 202.869C1042.25 197.444 1034.82 189.307 1023.33 185.261C1020.99 184.417 1018.74 183.839 1016.61 183.483Z" fill="#6D6C6C"/>
<path opacity="0.12" d="M1046.35 202.602C1043.09 199.445 1039.79 196.288 1036.53 193.176C1025.71 204.869 1020.95 216.029 1018.78 225.1C1016.82 233.37 1018.15 235.104 1017.36 264.405C1016.73 287.481 1015.69 294.372 1012.1 301.664C1008 310.023 1002.24 315.536 998.186 318.782C1001.78 319.582 1007.25 320.294 1013.77 319.271C1022.33 317.937 1028.59 314.247 1031.98 311.846C1032.73 300.508 1032.86 290.726 1032.69 282.99C1032.02 245.953 1025.46 227.59 1036.03 212.295C1039.33 207.537 1043.3 204.514 1046.35 202.602Z" fill="#6D6C6C"/>
<path d="M908.85 218.1C909.358 218.1 909.918 218.1 910.427 218.1C910.579 217.504 910.732 216.854 910.885 216.258C911.495 217.612 912.513 219.832 913.785 222.594C919.381 234.671 920.5 236.674 921.518 240.302C922.332 243.281 923.298 247.559 923.603 253.029C924.57 252.325 925.995 251.35 927.826 250.267C937.696 244.526 945.938 244.472 953.365 243.064C958.911 241.981 966.695 239.598 975.801 233.804C975.242 234.616 974.682 235.483 974.123 236.295C974.987 236.62 975.903 236.999 976.768 237.324C977.277 238.028 977.938 239.165 978.498 240.627C981.449 248.371 977.073 256.873 972.851 264.672C955.604 296.947 953.823 298.626 950.72 300.251C949.448 300.955 936.628 307.615 927.521 301.442C925.638 300.196 922.23 297.218 917.855 276.152C914.853 261.801 914.497 253.787 911.648 234.941C910.579 227.793 909.562 221.944 908.85 218.1Z" fill="white" stroke="#191919" stroke-width="2"/>
<path d="M911.749 221.078C916.073 230.934 920.347 240.952 921.67 251.783C921.72 252.054 922.077 252.054 922.077 251.783C920.754 240.844 916.48 230.771 912.105 220.861C911.952 220.645 911.647 220.861 911.749 221.078Z" fill="#191919"/>
<path d="M910.12 219.345C912.664 225.085 914.75 230.988 916.48 237.053C916.53 237.324 916.937 237.216 916.836 236.945C915.106 230.825 912.969 224.923 910.425 219.128C910.324 218.912 910.018 219.128 910.12 219.345Z" fill="#191919"/>
<path d="M917.09 236.728C918.769 241.602 919.889 246.638 920.55 251.783C920.601 252.054 920.957 252.054 920.957 251.783C920.296 246.584 919.176 241.548 917.497 236.62C917.396 236.403 916.989 236.512 917.09 236.728Z" fill="#191919"/>
<path d="M912.665 229.039C915.005 235.158 917.04 241.44 918.719 247.83C918.77 248.101 919.177 247.992 919.075 247.722C917.396 241.331 915.361 235.05 913.021 228.93C912.97 228.66 912.563 228.768 912.665 229.039Z" fill="#191919"/>
<path d="M924.518 254.383C930.878 249.888 938 246.963 945.581 245.826C945.835 245.772 945.733 245.393 945.479 245.447C937.848 246.584 930.725 249.509 924.315 254.003C924.111 254.166 924.315 254.545 924.518 254.383Z" fill="#191919"/>
<path d="M927.674 253.733C934.287 249.454 941.766 247.83 949.194 246.043C957.08 244.147 964.762 241.602 972.24 238.353C972.444 238.245 972.342 237.866 972.139 237.974C964.406 241.386 956.418 243.931 948.227 245.88C941.054 247.613 933.83 249.292 927.47 253.408C927.318 253.516 927.47 253.841 927.674 253.733Z" fill="#191919"/>
<path d="M926.452 255.628C934.287 251.675 942.274 249.238 950.668 247.072C958.91 244.906 966.898 241.548 974.936 238.624C975.19 238.516 975.089 238.137 974.834 238.245C966.542 241.277 958.249 244.797 949.702 246.909C941.613 248.967 933.829 251.512 926.248 255.303C926.045 255.412 926.248 255.736 926.452 255.628Z" fill="#191919"/>
<path d="M908.595 217.991C912.309 230.501 916.073 242.956 919.787 255.465C921.619 256.115 923.45 256.765 925.282 257.415C942.681 251.296 960.03 245.23 977.429 239.111C978.039 239.653 978.65 240.194 979.26 240.79C981.245 266.513 983.28 292.182 985.264 317.905C984.551 318.392 983.89 318.825 983.178 319.313C965.524 322.183 947.921 325.053 930.268 327.923C927.724 327.273 925.231 326.623 922.687 325.973C920.449 315.414 918.159 304.908 915.921 294.348C912.614 269.383 909.307 244.418 906 219.453C906.865 218.912 907.73 218.479 908.595 217.991Z" fill="white" stroke="#191919" stroke-width="2"/>
<path d="M918.922 255.79C919.736 279.239 921.313 302.741 922.534 326.19C922.585 326.948 923.704 326.948 923.704 326.19C922.483 302.741 920.906 279.293 920.092 255.79C920.041 255.032 918.922 255.032 918.922 255.79Z" fill="#191919"/>
<path d="M924.213 257.307C924.926 263.968 925.231 270.629 925.231 277.344C925.231 278.102 926.35 278.102 926.401 277.344C926.401 270.629 926.096 263.968 925.383 257.307C925.282 256.495 924.112 256.495 924.213 257.307Z" fill="#191919"/>
<path d="M938.102 259.148C938.407 263.21 938.661 267.271 938.966 271.333C950.21 267.704 961.453 264.022 972.646 260.394C972.29 256.17 971.934 251.946 971.628 247.722C960.436 251.567 949.294 255.357 938.102 259.148Z" fill="#5222D0"/>
<path opacity="0.16" d="M955.857 247.234C956.061 252.65 955.908 264.78 949.396 277.831C942.477 291.694 932.353 298.843 927.978 301.55C927.774 297.11 927.52 292.669 927.316 288.283C925.586 291.369 923.907 294.456 922.178 297.543C922.534 307.182 922.941 316.822 923.297 326.515C925.739 327.057 928.181 327.598 930.674 328.194C947.819 325.27 965.015 322.345 982.16 319.421C983.075 319.042 983.94 318.609 984.856 318.23C982.923 292.182 980.99 266.188 979.056 240.14C971.323 242.523 963.59 244.851 955.857 247.234Z" fill="#6C6D6D"/>
<path opacity="0.1" d="M924.467 257.794C924.111 257.794 923.704 267.812 923.958 278.697C924.264 294.185 925.637 300.954 925.23 315.738C925.078 320.558 924.823 324.511 924.62 327.056C926.502 327.327 928.435 327.598 930.318 327.869C929.962 325.215 929.453 321.37 928.944 316.767C924.976 282.326 925.027 257.794 924.467 257.794Z" fill="#6C6D6D"/>
<path d="M1036.11 205.669C1037.7 203.847 1040.96 200.067 1043.97 200.868C1049.69 202.335 1050.4 218.786 1050.65 223.677C1051.11 234.036 1050.11 251.243 1040.16 272.852C1035.57 278.632 1029.18 285.657 1020.62 292.371C1010.72 300.152 1001.23 304.91 993.966 307.889C990.29 311.401 986.948 313.891 984.484 315.492C980.891 317.893 979.053 319.093 976.297 319.582C974.876 319.849 970.115 320.694 965.729 317.448C961.552 314.336 960.549 309.623 960.34 308.422C959.672 304.91 960.34 302.02 960.758 300.597C965.269 299.752 969.739 298.907 974.25 298.062C966.021 296.684 964.308 295.572 964.308 294.817C964.308 293.216 971.075 291.393 977.216 291.704C982.896 291.971 987.366 294.061 990.165 295.661C996.597 289.481 1001.9 284.635 1005.62 281.345C1010.92 276.631 1013.89 274.231 1017.86 269.918C1022.24 265.16 1025.38 260.847 1027.34 257.957C1027.51 249.287 1027.93 241.951 1028.34 236.393C1029.81 216.918 1031.89 210.516 1036.11 205.669Z" fill="white" stroke="#161616" stroke-width="2"/>
<path d="M960.007 304.509C964.1 306.644 968.653 306.555 972.747 304.42C973.457 304.065 972.83 302.909 972.12 303.264C968.444 305.132 964.309 305.221 960.633 303.353C959.923 302.998 959.255 304.154 960.007 304.509Z" fill="#161616"/>
<path d="M960.049 308.2C963.641 312.112 968.779 312.335 973.457 310.778C974.209 310.512 973.875 309.222 973.123 309.489C968.862 310.912 964.226 310.867 960.968 307.266C960.383 306.643 959.464 307.577 960.049 308.2Z" fill="#161616"/>
<path d="M962.428 314.692C966.563 317.404 971.743 317.404 975.92 314.692C976.588 314.247 975.962 313.091 975.293 313.536C971.534 315.981 966.856 315.981 963.096 313.536C962.386 313.091 961.718 314.247 962.428 314.692Z" fill="#161616"/>
<path opacity="0.17" d="M1041.63 201.268C1042 203.713 1042.38 206.203 1042.75 208.693C1043.42 213.228 1044.05 217.719 1044.63 222.165C1044.63 222.165 1046.35 240.039 1039.75 257.557C1033.9 273.03 1023.75 281.7 1013.51 290.459C1004.24 298.373 995.511 305.888 981.977 307.933C972.746 309.356 964.935 307.666 960.006 306.11C960.089 307.622 960.507 310.601 962.345 313.58C963.222 314.958 965.937 318.915 970.657 319.938C971.952 320.205 974.333 320.471 978.97 318.559C982.27 317.226 987.867 314.336 993.464 307.888C1000.65 305.087 1006.41 301.93 1010.72 299.263C1013.93 297.262 1022.04 292.015 1030.97 283.167C1034.9 279.255 1037.99 275.653 1040.12 272.941C1042.59 267.917 1045.18 261.603 1047.14 254.089C1050.27 242.395 1050.4 233.77 1050.56 222.565C1050.56 222.565 1050.65 217.852 1048.64 208.515C1047.85 204.825 1046.97 201.846 1044.8 201.045C1043.63 200.601 1042.42 200.912 1041.63 201.268Z" fill="#6D6C6C"/>
<path opacity="0.17" d="M962.68 314.469C964.852 315.091 968.361 315.847 972.454 315.18C976.882 314.469 978.386 312.779 987.116 308.689C992.88 305.977 992.922 306.421 997.725 304.065C1003.16 301.397 1007.04 298.952 1010.09 296.995C1021.66 289.57 1032.77 280.366 1037.24 276.587C1031.1 283.656 1022.29 292.193 1010.34 299.574C1004.41 303.264 998.728 306.021 993.632 308.111C992.295 309.622 990.123 311.846 987.116 314.024C982.73 317.226 978.427 320.382 972.997 319.938C971.535 319.849 967.149 319.226 962.68 314.469Z" fill="#6D6C6C"/>
<path d="M982.129 170.652C980.197 172.562 979.783 176.576 979.001 184.459C978.127 193.517 977.759 198.119 979.553 200.42C982.819 204.63 989.856 204.875 994.732 202.574C1000.48 199.832 1002.46 193.908 1002.97 192.439C1005.22 185.634 1004.48 175.352 997.675 170.652C993.076 167.421 985.946 166.882 982.129 170.652Z" fill="#5222D0"/>
<path d="M992.063 177.8C992.753 181.326 996.433 181.619 999.56 187.25C1001.81 191.313 1002.27 195.475 1002.32 198.461C1005.13 198.413 1010.32 197.825 1015.93 194.741C1020.3 192.293 1023.25 189.208 1024.95 187.103C1023.8 185.095 1022.1 182.158 1020.07 178.633C1011.34 163.7 1010.05 162.525 1008.3 162.035C1001.22 160.224 990.729 171.24 992.063 177.8Z" fill="white" stroke="#161616" stroke-width="2"/>
<path d="M1006.37 171.876C1004.25 176.626 1002.09 181.326 999.148 185.585C999.516 185.536 999.884 185.487 1000.25 185.438C999.976 185.096 999.7 184.704 999.47 184.361C999.424 184.655 999.378 184.949 999.378 185.242C1000.57 184.165 1001.49 182.99 1002.32 181.57C1001.91 181.326 1001.54 181.081 1001.13 180.836C1000.48 182.305 999.654 183.186 998.32 183.823C998.596 184.214 998.872 184.606 999.148 184.998C1001.54 182.599 1003.7 179.955 1005.63 177.115C1006.14 176.332 1004.94 175.597 1004.44 176.381C1002.6 179.122 1000.48 181.668 998.182 183.969C997.584 184.557 998.366 185.438 999.01 185.145C1000.53 184.41 1001.63 183.235 1002.32 181.619C1002.69 180.787 1001.63 180.053 1001.13 180.885C1000.34 182.158 999.47 183.235 998.412 184.263C998.182 184.459 998.136 184.9 998.32 185.145C998.734 185.83 998.78 185.928 999.332 186.515C999.654 186.907 1000.16 186.711 1000.44 186.369C1003.38 182.158 1005.54 177.409 1007.66 172.66C1007.93 171.778 1006.74 171.044 1006.37 171.876Z" fill="#161616"/>
<path d="M961.798 134.275C959.682 138.437 960.188 142.647 961.2 150.872C962.396 160.175 963.96 167.959 965.846 173.1C966.122 173.884 966.858 174.324 967.64 174.226C968.652 174.128 970.17 173.296 971.043 173.002C972.147 175.108 973.987 177.947 976.839 180.591C982.497 185.781 988.706 187.005 991.466 187.348C994.179 186.27 1000.89 183.088 1005.36 175.45C1008.3 170.358 1008.9 165.658 1009.04 164.581C1009.82 157.531 1007.61 152.047 1006.55 149.795C1007.52 149.159 1008.99 148.033 1010 146.123C1012.12 142.158 1012.03 135.597 1008.67 133.834C1006.14 132.512 1002.14 133.981 999.423 137.751C998.549 136.136 997.215 133.981 995.191 131.827C994.685 131.288 990.96 127.274 986.728 125.462C978.449 121.986 966.122 125.805 961.798 134.275Z" fill="white" stroke="#161616" stroke-width="2"/>
<path d="M973.942 177.507C977.116 176.625 978.955 173.786 980.565 170.995C981.025 170.212 979.829 169.477 979.369 170.261C977.944 172.709 976.334 175.304 973.574 176.136C972.7 176.332 973.068 177.752 973.942 177.507Z" fill="#161616"/>
<path d="M978.127 170.898C979.047 170.946 979.783 171.338 980.381 172.073C980.979 172.807 981.945 171.73 981.347 171.044C980.519 170.016 979.369 169.478 978.127 169.429C977.208 169.429 977.208 170.898 978.127 170.898Z" fill="#161616"/>
<path d="M974.632 162.819C974.632 162.77 974.632 162.721 974.632 162.672C974.632 162.28 974.31 161.938 973.942 161.938C973.574 161.938 973.252 162.28 973.252 162.672C973.252 162.721 973.252 162.77 973.252 162.819C973.252 163.21 973.574 163.553 973.942 163.553C974.31 163.504 974.632 163.21 974.632 162.819Z" fill="#161616"/>
<path d="M977.714 158.902C978.588 158.902 978.588 157.434 977.714 157.434C976.84 157.434 976.84 158.902 977.714 158.902Z" fill="#161616"/>
<path d="M977.3 162.623C978.174 162.623 978.174 161.154 977.3 161.154C976.426 161.154 976.426 162.623 977.3 162.623Z" fill="#161616"/>
<path d="M959.821 150.971C958.349 150.432 955.221 149.012 953.427 145.732C950.622 140.64 952.875 134.716 953.979 131.925C954.577 130.358 956.233 126.491 964.236 118.902C970.308 113.076 973.39 110.187 976.839 108.571C989.166 102.843 1001.77 108.327 1004.07 109.355C1007.47 110.823 1009.96 112.635 1014.88 116.16C1020.86 120.469 1024.68 123.259 1027.66 128.057C1031.3 133.933 1029.09 135.45 1032.22 142.06C1037.19 152.537 1044.04 151.264 1048.13 160.958C1048.82 162.574 1052.64 171.583 1048.32 179.465C1044.78 185.879 1037.55 188.18 1032.22 188.033C1022.33 187.739 1016.12 178.731 1012.85 174.031C1006.64 165.071 1005.45 155.573 1005.17 150.481C1009.08 148.376 1010.6 143.871 1009.17 140.738C1008.07 138.241 1004.85 136.136 1002.05 137.409C1000.11 138.29 998.871 140.64 998.917 143.235C997.077 143.578 991.42 144.312 985.578 140.885C981.255 138.388 978.909 134.863 977.897 133.1C975.321 134.177 971.182 136.234 967.088 140.297C963.178 144.214 960.971 148.327 959.821 150.971Z" fill="#5222D0"/>
<path opacity="0.24" d="M989.81 153.81C994.916 158.902 997.399 164.533 998.181 166.442C1001.4 174.276 1001.22 181.473 1000.9 185.145C1002.55 182.158 1004.16 179.172 1005.82 176.136C1008.48 182.501 1011.11 188.866 1013.77 195.182C1015.2 194.839 1018.01 193.958 1020.72 191.412C1022.79 189.453 1023.89 187.348 1024.45 186.026C1020.58 183.088 1012.99 176.43 1008.58 164.973C1006.46 159.49 1005.63 154.398 1005.36 150.579C1009.08 148.425 1010.65 144.116 1009.4 140.885C1008.53 138.535 1005.82 135.891 1002.83 136.772C1000.3 137.507 998.549 140.395 998.963 143.627C997.031 143.872 992.432 144.214 987.326 141.815C982.037 139.318 979.139 135.255 978.035 133.541C979.277 142.207 982.405 146.907 985.027 149.6C986.682 151.411 987.372 151.411 989.81 153.81Z" fill="#6D6C6C"/>
<path opacity="0.24" d="M1005.45 156.161C1005.13 156.161 1005.31 161.204 1004.85 165.855C1004.25 171.828 1002.6 176.577 1001.22 179.759C1002.46 178.927 1004.3 177.36 1005.91 174.912C1008.21 171.338 1008.62 167.813 1008.76 166.099C1008.35 165.414 1007.79 164.435 1007.29 163.211C1005.68 159.294 1005.72 156.161 1005.45 156.161Z" fill="#6D6C6C"/>
<path opacity="0.19" d="M1007.06 173.149C1008.16 174.373 1009.73 175.989 1011.75 177.751C1017.87 183.186 1023.8 186.27 1023.99 185.928C1024.17 185.585 1018.37 183.088 1013.96 176.332C1011.2 172.121 1009.59 167.127 1008.9 167.372C1008.58 167.47 1008.85 168.645 1008.3 170.554C1007.93 171.68 1007.43 172.562 1007.06 173.149Z" fill="#6D6C6C"/>
<path opacity="0.74" d="M1012.16 114.349C1017.59 124.336 1021.46 133.051 1024.08 139.514C1031.39 157.678 1030.79 162.672 1029.78 165.903C1027.53 173.198 1021.27 177.311 1017.55 179.269C1018.47 180.64 1022.28 186.075 1029.27 187.593C1030.61 187.886 1038.66 189.502 1044.78 183.578C1049.33 179.22 1050.02 173.443 1050.16 171.925C1050.98 163.7 1046.39 157.531 1044.91 155.769C1042.98 153.468 1042.57 154.006 1038.06 149.355C1034.56 145.781 1032.86 143.969 1031.85 141.717C1030.24 138.045 1031.3 136.479 1029.41 131.827C1028.4 129.281 1027.2 127.568 1026.33 126.246C1021.87 119.832 1015.43 116.062 1012.16 114.349Z" fill="#2C167C"/>
<path opacity="0.52" d="M979.46 187.054C979.874 192.733 984.75 196.846 989.855 196.063C994.777 195.279 998.319 190.187 997.445 184.753C998.365 185.879 999.653 187.739 1000.57 190.285C1001.31 192.293 1001.58 194.104 1001.68 195.426C1000.99 196.65 997.399 202.721 990.683 203.896C989.533 204.092 983.002 205.12 979.92 200.959C978.448 198.902 978.31 196.405 978.218 194.398C978.126 191.118 978.908 188.523 979.46 187.054Z" fill="#2C167C"/>
<path d="M970.815 154.741C971.275 155.72 971.275 157.14 970.677 157.434C970.079 157.776 968.929 156.846 968.515 155.769C968.193 154.839 968.285 153.517 968.883 153.272C969.527 153.027 970.447 153.909 970.815 154.741Z" fill="#161616"/>
<path d="M967.041 153.614C968.651 153.027 970.307 152.586 972.008 152.292C972.652 152.194 972.376 151.117 971.733 151.215C970.031 151.509 968.375 151.95 966.765 152.537C966.121 152.782 966.397 153.81 967.041 153.614Z" fill="#161616"/>
<path d="M10 96.5584C10 98.7019 10.1046 100.845 10.2614 102.936C10.3659 103.93 11.9343 103.93 11.8297 102.936C11.6206 100.793 11.5161 98.7019 11.5684 96.5584C11.5684 95.5652 10 95.5652 10 96.5584Z" fill="#323232"/>
<path d="M11.4637 104.661C49.1565 104.661 86.7969 104.661 124.49 104.661C125.483 104.661 125.483 103.093 124.49 103.093C86.7969 103.093 49.1565 103.093 11.4637 103.093C10.4704 103.093 10.4704 104.661 11.4637 104.661Z" fill="#323232"/>
<path d="M11.2549 97.1333C48.9476 97.1333 86.5881 97.1333 124.281 97.1333C125.274 97.1333 125.274 95.5649 124.281 95.5649C86.5881 95.5649 48.9476 95.5649 11.2549 95.5649C10.2093 95.5649 10.2093 97.1333 11.2549 97.1333Z" fill="#323232"/>
<path d="M106.967 96.5584C106.967 99.0155 106.967 101.42 106.967 103.877C106.967 104.871 108.535 104.871 108.535 103.877C108.535 101.42 108.535 99.0155 108.535 96.5584C108.535 95.5652 106.967 95.5652 106.967 96.5584Z" fill="#323232"/>
<path d="M15.7502 73.974C17.4754 81.293 19.2006 88.6119 21.0303 95.8786C21.2917 96.8719 22.8078 96.4537 22.5464 95.4604C20.7167 88.1937 18.9915 80.8747 17.2663 73.5557C17.0572 72.5625 15.5411 72.9807 15.7502 73.974Z" fill="#323232"/>
<path d="M16.4814 73.8692C20.35 73.7646 24.1663 73.6078 27.9826 73.3464C29.8123 73.2419 31.6421 73.085 33.4718 72.9282C35.563 72.7191 37.8632 72.2486 39.8498 73.1896C40.7385 73.6078 41.575 72.2486 40.634 71.8303C37.3927 70.262 33.3673 71.3598 29.9169 71.6212C25.421 71.9349 20.925 72.1963 16.3768 72.3008C15.4358 72.3008 15.4358 73.8692 16.4814 73.8692Z" fill="#323232"/>
<path d="M39.3275 72.6151C38.7002 80.3523 37.341 87.9849 35.3544 95.513C35.093 96.5063 36.6091 96.9245 36.8705 95.9313C38.9093 88.2986 40.2686 80.5091 40.8959 72.6151C40.9482 71.6218 39.3798 71.6218 39.3275 72.6151Z" fill="#323232"/>
<path d="M21.2387 71.9873C18.2066 68.3801 15.8018 64.6683 14.2857 60.1724C12.9788 56.3561 12.2469 52.3829 11.515 48.4098C11.2013 48.7234 10.8876 49.0371 10.574 49.3508C20.1932 52.6443 25.0028 62.0021 26.8848 71.4123C27.0939 72.4055 28.61 71.9873 28.4009 70.994C26.4143 61.0089 21.1342 51.3374 10.9922 47.887C10.3648 47.6779 9.94661 48.3052 10.0512 48.828C10.8876 53.3762 11.7241 57.9244 13.397 62.2113C14.9653 66.2367 17.3701 69.7393 20.1409 73.0329C20.7682 73.8693 21.8661 72.7715 21.2387 71.9873Z" fill="#323232"/>
<path d="M25.8925 62.0544C24.5333 57.1925 29.0815 53.6376 31.6954 50.1872C34.2048 46.8937 36.2436 43.2864 37.9166 39.4701C37.4461 39.4178 36.9755 39.3656 36.505 39.261C39.0667 49.769 41.5238 62.3681 33.3683 71.1508C32.6887 71.8827 33.7866 72.9806 34.4662 72.2487C42.9876 62.9954 40.6873 49.9258 37.9688 38.8428C37.812 38.2154 36.8187 38.0063 36.5573 38.6337C34.4662 43.5478 31.6431 47.9392 28.1928 52.0169C25.6311 54.9968 23.2786 58.3426 24.4287 62.4726C24.6378 63.4136 26.1539 63.0477 25.8925 62.0544Z" fill="#323232"/>
<path d="M55.6973 95.8784C55.6973 92.8985 55.6973 89.9187 55.6973 86.9911C55.6973 85.9978 54.1289 85.9978 54.1289 86.9911C54.1289 89.9709 54.1289 92.9508 54.1289 95.8784C54.1289 96.924 55.6973 96.924 55.6973 95.8784Z" fill="#323232"/>
<path d="M54.9129 87.5664C73.89 87.5664 92.8148 87.5664 111.792 87.5664C112.785 87.5664 112.785 85.998 111.792 85.998C92.8148 85.998 73.89 85.998 54.9129 85.998C53.9196 85.998 53.9196 87.5664 54.9129 87.5664Z" fill="#323232"/>
<path d="M101.217 87.4619C101.217 90.3372 101.217 93.2648 101.217 96.1401C101.217 97.1334 102.785 97.1334 102.785 96.1401C102.785 93.2648 102.785 90.3372 102.785 87.4619C102.785 86.4163 101.217 86.4163 101.217 87.4619Z" fill="#323232"/>
<path d="M66.2051 86.5207C66.2051 84.7955 66.2051 83.018 66.2051 81.2928C66.2051 80.2995 64.6367 80.2995 64.6367 81.2928C64.6367 83.018 64.6367 84.7955 64.6367 86.5207C64.6367 87.5662 66.2051 87.5662 66.2051 86.5207Z" fill="#323232"/>
<path d="M65.4207 81.3975C80.3201 81.3975 95.2717 81.3975 110.171 81.3975C111.164 81.3975 111.164 79.8291 110.171 79.8291C95.2717 79.8291 80.3201 79.8291 65.4207 79.8291C64.4275 79.8291 64.4275 81.3975 65.4207 81.3975Z" fill="#323232"/>
<path d="M99.6484 80.6133C99.6484 82.5999 99.6484 84.5864 99.6484 86.573C99.6484 87.5663 101.217 87.5663 101.217 86.573C101.217 84.5864 101.217 82.5999 101.217 80.6133C101.217 79.5677 99.6484 79.5677 99.6484 80.6133Z" fill="#323232"/>
<path d="M68.334 79.9341C68.334 77.2156 68.334 74.4449 68.334 71.7264C68.334 70.7331 66.7656 70.7331 66.7656 71.7264C66.7656 74.4449 66.7656 77.2156 66.7656 79.9341C66.7656 80.9274 68.334 80.9274 68.334 79.9341Z" fill="#323232"/>
<path d="M68.2293 72.0395C78.2145 72.0395 88.1474 72.0395 98.1326 72.0395C99.1259 72.0395 99.1259 70.4712 98.1326 70.4712C88.1474 70.4712 78.2145 70.4712 68.2293 70.4712C67.2361 70.4712 67.2361 72.0395 68.2293 72.0395Z" fill="#323232"/>
<path d="M97.8184 70.994C97.8184 73.9739 97.8184 76.9537 97.8184 79.8813C97.8184 80.8746 99.3867 80.8746 99.3867 79.8813C99.3867 76.9015 99.3867 73.9216 99.3867 70.994C99.3867 70.0007 97.8184 70.0007 97.8184 70.994Z" fill="#323232"/>
<path d="M87.3622 71.6737C88.0941 74.4967 88.2509 77.2675 87.9895 80.1428C87.885 81.1361 89.4533 81.1361 89.5579 80.1428C89.8716 77.1106 89.6624 74.183 88.8783 71.2555C88.6169 70.2622 87.1008 70.6804 87.3622 71.6737Z" fill="#323232"/>
<path d="M92.0675 72.1444C92.3289 74.4446 92.4335 76.6926 92.3289 78.9929C92.2766 79.9861 93.845 79.9861 93.8972 78.9929C94.0018 76.6926 93.9495 74.4446 93.6359 72.1444C93.5313 71.1511 91.9629 71.1511 92.0675 72.1444Z" fill="#323232"/>
<path d="M85.6891 81.0316C85.9505 82.7568 85.8982 84.5342 85.6891 86.3117C85.5845 87.305 87.1529 87.305 87.2574 86.3117C87.5188 84.4297 87.4666 82.5477 87.2052 80.6134C87.0483 79.6201 85.5323 80.0383 85.6891 81.0316Z" fill="#323232"/>
<path d="M89.6632 80.7704C89.9769 82.1819 89.8724 83.5412 89.4019 84.9527C89.0882 85.8937 90.6043 86.3119 90.9179 85.3709C91.493 83.7503 91.5453 82.0774 91.1793 80.3522C90.9702 79.4112 89.4541 79.8294 89.6632 80.7704Z" fill="#323232"/>
<path d="M77.8488 86.7821C78.1624 89.9188 78.2147 93.0032 78.0056 96.1399C77.9533 97.1332 79.5217 97.1332 79.5739 96.1399C79.7831 93.0032 79.7308 89.9188 79.4171 86.7821C79.3125 85.7888 77.7442 85.7888 77.8488 86.7821Z" fill="#323232"/>
<path d="M93.9499 86.9911C94.3159 89.9187 94.3159 92.794 93.8453 95.7216C93.6885 96.7148 95.2046 97.1331 95.3614 96.1398C95.8319 93.1076 95.9365 90.0755 95.5183 86.9911C95.4137 85.9978 93.8453 85.9978 93.9499 86.9911Z" fill="#323232"/>
<path d="M150.566 0.784176C150.566 9.88062 150.566 18.9771 150.566 28.0735C150.566 29.0668 152.135 29.0668 152.135 28.0735C152.135 18.9771 152.135 9.88062 152.135 0.784176C152.135 -0.261392 150.566 -0.261392 150.566 0.784176Z" fill="#323232"/>
<path d="M128.61 29.2236C142.987 29.2236 157.416 29.2236 171.792 29.2236C172.785 29.2236 172.785 27.6553 171.792 27.6553C157.416 27.6553 142.987 27.6553 128.61 27.6553C127.617 27.6553 127.617 29.2236 128.61 29.2236Z" fill="#323232"/>
<path d="M156.211 29.537C156.211 38.4766 156.211 47.4685 156.211 56.4081C156.211 57.4014 157.779 57.4014 157.779 56.4081C157.779 47.4685 157.779 38.4766 157.779 29.537C157.779 28.5437 156.211 28.5437 156.211 29.537Z" fill="#323232"/>
<path d="M190 207.132C190 209.641 190 212.15 190 214.66C190 215.653 191.568 215.653 191.568 214.66C191.568 212.15 191.568 209.641 191.568 207.132C191.568 206.138 190 206.138 190 207.132Z" fill="#323232"/>
<path d="M190.784 215.758C227.431 215.758 264.078 215.758 300.726 215.758C301.719 215.758 301.719 214.189 300.726 214.189C264.078 214.189 227.431 214.189 190.784 214.189C189.791 214.189 189.791 215.758 190.784 215.758Z" fill="#323232"/>
<path d="M191.62 207.655C227.797 207.655 264.026 207.655 300.202 207.655C301.196 207.655 301.196 206.086 300.202 206.086C264.026 206.086 227.797 206.086 191.62 206.086C190.627 206.086 190.627 207.655 191.62 207.655Z" fill="#323232"/>
<path d="M286.366 207.446C286.471 209.955 286.418 212.465 286.105 214.974C286 215.967 287.568 215.967 287.673 214.974C287.987 212.465 288.091 209.955 287.934 207.446C287.882 206.4 286.314 206.4 286.366 207.446Z" fill="#323232"/>
<path d="M240.048 172.21C237.069 183.502 238.741 195.16 241.46 206.295C241.721 207.288 243.185 206.87 242.976 205.877C240.31 194.951 238.637 183.659 241.565 172.628C241.826 171.634 240.31 171.216 240.048 172.21Z" fill="#323232"/>
<path d="M264.984 174.301C265.35 176.654 265.716 178.954 266.082 181.306C266.239 182.3 267.755 181.881 267.598 180.888C267.232 178.536 266.866 176.235 266.5 173.883C266.343 172.89 264.827 173.308 264.984 174.301Z" fill="#323232"/>
<path d="M266.972 181.568C271.206 178.379 273.611 184.6 273.663 187.841C273.716 191.919 271.781 195.578 267.338 195.892C266.345 195.944 266.345 197.513 267.338 197.461C273.402 197.095 275.702 191.762 275.127 186.325C274.709 182.143 270.684 176.863 266.188 180.261C265.351 180.836 266.135 182.195 266.972 181.568Z" fill="#323232"/>
<path d="M266.657 196.415C266.343 199.551 265.768 202.583 265.036 205.668C264.775 206.661 266.291 207.079 266.552 206.086C267.336 202.897 267.911 199.708 268.277 196.415C268.33 195.369 266.761 195.421 266.657 196.415Z" fill="#323232"/>
<path d="M268.069 184.025C269.742 182.665 270.421 186.952 270.474 187.527C270.526 188.207 270.421 188.939 270.264 189.618C269.846 191.239 268.958 192.546 267.703 193.592C266.919 194.219 268.017 195.317 268.801 194.689C271.205 192.703 272.46 189.514 271.937 186.429C271.571 184.129 269.533 180.783 266.971 182.927C266.187 183.554 267.285 184.652 268.069 184.025Z" fill="#323232"/>
<path d="M266.762 182.718C266.553 186.377 266.605 190.037 266.866 193.749C266.919 194.742 268.487 194.742 268.435 193.749C268.173 190.089 268.121 186.43 268.33 182.718C268.382 181.672 266.814 181.672 266.762 182.718Z" fill="#323232"/>
<path d="M242.661 173.987C248.987 176.026 255.574 176.549 262.161 175.556C263.154 175.399 262.736 173.883 261.743 174.04C255.417 174.981 249.144 174.458 243.08 172.471C242.139 172.158 241.72 173.674 242.661 173.987Z" fill="#323232"/>
<path d="M246.27 170.014C243.185 168.08 246.792 163.846 247.315 161.388C247.838 158.931 246.427 157.729 245.486 155.638C244.126 152.606 247.263 150.358 247.733 147.43C248.152 144.868 246.061 142.725 248.884 140.634C249.668 140.059 248.936 138.7 248.099 139.275C246.374 140.529 245.329 142.464 245.695 144.659C245.956 146.28 246.374 147.116 245.59 148.789C245.224 149.626 244.701 150.358 244.283 151.194C243.76 152.344 243.29 153.547 243.447 154.854C243.551 156.161 244.231 156.736 244.858 157.781C246.688 160.866 245.015 162.434 243.969 165.362C243.185 167.557 243.394 169.962 245.486 171.269C246.322 171.896 247.106 170.537 246.27 170.014Z" fill="#323232"/>
<path d="M255.575 132.53C254.791 134.569 253.798 136.87 253.641 139.065C253.484 141.052 254.948 142.15 255.418 143.927C255.993 146.071 253.954 147.848 253.745 149.939C253.484 152.658 255.889 154.435 253.536 157.049C252.856 157.781 253.954 158.931 254.634 158.147C255.836 156.84 256.464 155.272 256.255 153.494C256.098 152.187 255.157 151.089 255.366 149.678C255.523 148.58 256.359 147.587 256.725 146.541C257.352 144.868 257.091 143.561 256.255 142.045C254.582 138.908 255.941 136.033 257.091 132.949C257.457 132.008 255.941 131.589 255.575 132.53Z" fill="#323232"/>
<path d="M263.312 148.11C260.855 150.671 259.705 154.174 260.384 157.729C260.593 158.879 261.168 160.029 261.221 161.231C261.325 162.747 260.384 163.479 259.966 164.786C259.391 166.459 261.43 168.864 260.175 170.171C259.496 170.903 260.593 172.001 261.273 171.269C262.057 170.432 262.266 169.491 262.057 168.341C261.848 167.087 261.116 166.198 261.639 164.891C261.953 164.107 262.58 163.688 262.789 162.8C263.207 160.813 262.162 158.931 261.848 156.997C261.378 154.122 262.423 151.299 264.41 149.207C265.142 148.475 263.992 147.378 263.312 148.11Z" fill="#323232"/>
<path d="M199.463 206.086C199.306 204.047 199.253 202.061 199.306 200.022C199.044 200.283 198.783 200.545 198.522 200.806C206.938 199.97 215.407 199.551 223.877 199.447C227.954 199.395 232.032 199.447 236.057 199.604C237.051 199.656 238.096 199.656 239.09 199.708C239.769 199.761 241.494 199.499 242.122 199.865C243.638 200.754 243.01 205.564 243.063 207.08C243.115 208.073 244.683 208.073 244.631 207.08C244.579 204.936 244.945 202.113 244.37 200.074C244.108 199.186 243.795 198.715 242.854 198.349C240.972 197.669 237.992 198.035 236.005 197.983C233.653 197.879 231.248 197.826 228.895 197.826C218.753 197.722 208.559 198.192 198.469 199.186C198.051 199.238 197.685 199.499 197.685 199.97C197.581 202.009 197.633 203.995 197.842 206.034C197.946 207.08 199.515 207.08 199.463 206.086Z" fill="#323232"/>
<path d="M206.532 198.558C206.532 197.617 206.167 195.63 206.585 194.794C207.264 193.278 210.087 193.696 211.447 193.644C214.426 193.539 217.354 193.383 220.334 193.278C223.105 193.173 225.875 193.069 228.698 192.964C230.476 192.912 232.463 192.389 233.194 194.376C233.613 195.526 233.456 197.303 233.56 198.506C233.665 199.499 235.233 199.499 235.129 198.506C234.92 196.415 235.547 192.023 232.828 191.291C231.312 190.873 229.221 191.344 227.601 191.396C225.144 191.5 222.739 191.605 220.282 191.71C215.995 191.866 211.29 191.5 207.108 192.285C204.128 192.807 204.964 196.31 204.912 198.558C204.964 199.551 206.532 199.551 206.532 198.558Z" fill="#323232"/>
<path d="M223.576 199.551C224.465 201.956 224.778 204.361 224.465 206.87C224.36 207.863 225.929 207.863 226.033 206.87C226.399 204.204 226.085 201.642 225.092 199.133C224.726 198.192 223.21 198.61 223.576 199.551Z" fill="#323232"/>
<path d="M223.679 192.755C224.62 194.899 224.829 197.147 224.411 199.447C224.202 200.44 225.718 200.859 225.927 199.865C226.45 197.147 226.136 194.533 225.038 191.971C224.62 191.03 223.313 191.814 223.679 192.755Z" fill="#323232"/>
<path d="M229.586 192.285C229.952 194.167 230.318 196.101 230.527 197.983C230.632 198.977 232.2 198.977 232.096 197.983C231.834 195.944 231.52 193.853 231.102 191.867C230.893 190.873 229.377 191.292 229.586 192.285Z" fill="#323232"/>
<path d="M232.252 199.813C233.036 201.904 233.193 203.995 232.722 206.139C232.513 207.132 233.977 207.55 234.238 206.557C234.813 204.152 234.657 201.695 233.768 199.395C233.402 198.454 231.886 198.872 232.252 199.813Z" fill="#323232"/>
<path d="M145.371 524C217.822 524 290.178 524 362.629 524C364.457 524 364.457 522 362.629 522C290.178 522 217.822 522 145.371 522C143.543 522 143.543 524 145.371 524Z" fill="#161616"/>
<path d="M1.51166 518C39.1706 518 76.8295 518 114.488 518C116.504 518 116.504 516 114.488 516C76.8295 516 39.1706 516 1.51166 516C-0.503887 516 -0.503887 518 1.51166 518Z" fill="#161616"/>
<path d="M92.6562 443.392C93.8064 443.602 95.4793 443.915 97.5704 444.177C107.556 445.64 114.665 445.588 123.448 445.693C128.728 445.745 136.518 445.902 146.294 446.268C156.697 445.536 167.153 444.804 177.556 444.02C163.18 442.556 148.803 441.04 134.427 439.576C120.468 440.831 106.562 442.086 92.6562 443.392Z" fill="#5222D0"/>
<path d="M106.396 475.857C109.376 476.485 112.356 477.112 115.336 477.739C125.687 477.112 137.032 475.544 149.003 472.407C151.304 471.832 153.552 471.205 155.695 470.525C139.28 472.302 122.864 474.08 106.396 475.857Z" fill="#5222D0"/>
<path d="M93.3359 517.105C93.3882 521.496 93.4405 525.94 93.4928 530.331C117.645 533.416 141.85 536.5 166.003 539.585C166.003 535.193 166.003 530.749 166.003 526.358C180.798 519.771 195.54 513.184 210.335 506.597C206.205 505.97 202.075 505.342 197.945 504.715C197.475 505.447 197.004 506.179 196.586 506.963C178.654 512.504 160.723 518.098 142.791 523.64C126.324 521.444 109.804 519.248 93.3359 517.105Z" fill="#5222D0"/>
<path d="M66.4648 457.351C84.5532 459.546 102.694 461.742 120.782 463.938C140.962 462.526 161.141 461.063 181.32 459.651C176.929 458.24 172.538 456.88 168.146 455.469C159.05 456.148 149.901 456.828 140.805 457.508C123.605 456.305 106.458 455.051 89.2582 453.848C81.6779 454.998 74.0452 456.148 66.4648 457.351Z" fill="#EC615B"/>
<path d="M117.375 489.397C122.969 490.234 128.615 491.07 134.209 491.907C149.683 487.881 165.105 483.908 180.58 479.883C175.456 479.099 170.385 478.367 165.262 477.583C149.265 481.556 133.32 485.477 117.375 489.397Z" fill="#EC615B"/>
<path d="M70.0195 502.677C93.8585 506.075 117.645 509.525 141.484 512.923C148.855 511.355 156.54 509.525 164.539 507.329C175.517 504.35 185.712 501.056 195.174 497.71C191.619 497.083 188.064 496.455 184.509 495.828C173.374 498.913 162.239 501.997 151.051 505.081C131.29 502.363 111.529 499.697 91.7673 496.978C84.5529 498.913 77.2862 500.795 70.0195 502.677Z" fill="#EC615B"/>
<path d="M89.363 444.909C89.363 448.046 89.363 451.235 89.363 454.371C89.363 455.365 90.9314 455.365 90.9314 454.371C90.9314 451.235 90.9314 448.046 90.9314 444.909C90.9314 443.916 89.363 443.916 89.363 444.909Z" fill="#161616"/>
<path d="M90.4092 445.222C108.916 445.85 127.475 446.425 145.981 447.052C146.974 447.104 146.974 445.536 145.981 445.484C127.475 444.857 108.916 444.281 90.4092 443.654C89.3636 443.602 89.3636 445.17 90.4092 445.222Z" fill="#161616"/>
<path d="M90.4092 455.573C107.243 455.887 124.076 456.671 140.858 457.926C141.851 457.978 141.851 456.41 140.858 456.357C124.076 455.155 107.243 454.371 90.4092 454.005C89.3636 454.005 89.3636 455.573 90.4092 455.573Z" fill="#161616"/>
<path d="M129.503 447.261C140.22 446.32 150.989 445.693 161.706 445.327C162.7 445.275 162.7 443.706 161.706 443.759C150.937 444.072 140.22 444.752 129.503 445.693C128.51 445.745 128.457 447.314 129.503 447.261Z" fill="#161616"/>
<path d="M124.118 457.978C136.717 456.724 149.368 455.521 161.968 454.267C162.961 454.162 162.961 452.594 161.968 452.698C149.368 453.953 136.717 455.155 124.118 456.41C123.125 456.515 123.125 458.083 124.118 457.978Z" fill="#161616"/>
<path d="M128.719 447.052C128.353 447.627 128.092 448.202 127.987 448.882C127.83 450.032 128.301 450.921 127.726 452.071C127.046 453.535 126.628 454.685 126.889 456.305C127.046 457.299 128.562 456.88 128.405 455.887C128.144 454.162 129.033 453.378 129.555 451.966C130.026 450.502 129.137 449.248 130.078 447.836C130.601 447 129.242 446.163 128.719 447.052Z" fill="#161616"/>
<path d="M90.6179 444.752C104.733 442.818 118.901 441.458 133.173 440.57C134.166 440.517 134.166 438.949 133.173 439.001C118.796 439.89 104.472 441.302 90.252 443.236C89.2064 443.393 89.6246 444.856 90.6179 444.752Z" fill="#161616"/>
<path d="M115.126 440.622C130.339 440.726 145.5 442.085 160.451 444.699C161.444 444.856 161.863 443.34 160.869 443.183C145.761 440.517 130.443 439.106 115.126 439.001C114.133 439.053 114.133 440.622 115.126 440.622Z" fill="#161616"/>
<path d="M93.4937 450.084C97.9897 451.13 102.695 450.032 107.295 450.084C112.419 450.136 117.542 450.711 122.665 451.339C123.658 451.443 123.658 449.875 122.665 449.77C117.908 449.248 113.098 448.673 108.289 448.568C103.636 448.463 98.5125 449.666 93.912 448.62C92.9187 448.307 92.5004 449.823 93.4937 450.084Z" fill="#161616"/>
<path d="M97.1961 453.482C105.195 453.744 113.246 454.11 121.244 454.58C122.237 454.632 122.237 453.064 121.244 453.012C113.246 452.541 105.195 452.175 97.1961 451.914C96.2028 451.862 96.2028 453.43 97.1961 453.482Z" fill="#161616"/>
<path d="M110.265 450.712C114.865 451.077 119.518 451.548 124.118 452.123C125.112 452.228 125.112 450.659 124.118 450.555C119.518 449.98 114.917 449.509 110.265 449.143C109.219 449.039 109.271 450.607 110.265 450.712Z" fill="#161616"/>
<path d="M132.588 451.496C136.248 452.019 139.803 451.13 143.41 450.607C147.697 449.928 152.036 449.405 156.375 449.143C157.368 449.091 157.368 447.523 156.375 447.575C152.872 447.784 149.369 448.202 145.919 448.673C141.737 449.248 137.293 450.607 133.059 450.032C132.013 449.823 131.595 451.339 132.588 451.496Z" fill="#161616"/>
<path d="M139.175 454.214C142.416 454.58 145.396 453.43 148.532 452.802C152.192 452.018 155.956 451.705 159.668 451.652C160.661 451.652 160.661 450.084 159.668 450.084C156.427 450.136 153.238 450.398 150.049 450.92C146.494 451.548 142.834 453.116 139.175 452.698C138.181 452.541 138.181 454.109 139.175 454.214Z" fill="#161616"/>
<path d="M160.348 445.955C160.4 448.621 160.452 451.235 160.557 453.901C160.557 454.894 162.125 454.894 162.125 453.901C162.073 451.235 162.021 448.621 161.916 445.955C161.916 444.909 160.348 444.909 160.348 445.955Z" fill="#161616"/>
<path d="M65.3151 457.717C65.3673 461.219 65.2628 464.722 65.0014 468.225C64.9491 469.218 66.5175 469.218 66.5698 468.225C66.8311 464.722 66.9357 461.219 66.8834 457.717C66.8311 456.671 65.2628 456.671 65.3151 457.717Z" fill="#161616"/>
<path d="M66.0987 469.741C84.3961 472.041 102.746 474.028 121.148 475.805C122.141 475.91 122.141 474.341 121.148 474.237C102.746 472.459 84.3961 470.473 66.0987 468.172C65.0531 468.068 65.1054 469.636 66.0987 469.741Z" fill="#161616"/>
<path d="M103.835 464.618C103.678 467.963 103.469 471.257 103.312 474.603C103.26 475.596 104.828 475.596 104.88 474.603C105.037 471.257 105.246 467.963 105.403 464.618C105.455 463.624 103.887 463.624 103.835 464.618Z" fill="#161616"/>
<path d="M104.618 464.932C124.797 464.147 144.977 462.631 165.052 460.488C166.045 460.383 166.045 458.815 165.052 458.92C144.977 461.063 124.797 462.527 104.618 463.363C103.625 463.415 103.625 464.984 104.618 464.932Z" fill="#161616"/>
<path d="M104.88 476.223C124.798 473.871 144.768 471.832 164.791 470.002C165.784 469.898 165.784 468.329 164.791 468.434C144.82 470.263 124.85 472.355 104.88 474.655C103.886 474.759 103.886 476.328 104.88 476.223Z" fill="#161616"/>
<path d="M164.373 460.278C164.373 463.101 164.425 465.924 164.425 468.747C164.425 469.741 165.994 469.741 165.994 468.747C165.994 465.924 165.942 463.101 165.942 460.278C165.942 459.233 164.373 459.233 164.373 460.278Z" fill="#161616"/>
<path d="M66.3086 457.612C74.1503 456.567 81.9921 455.626 89.8861 454.894C90.8794 454.789 90.8794 453.221 89.8861 453.325C81.8875 454.057 73.8889 454.998 65.8903 456.096C64.8971 456.201 65.3153 457.717 66.3086 457.612Z" fill="#161616"/>
<path d="M67.0925 458.658C85.1808 459.965 103.217 461.847 121.201 464.304C122.194 464.461 122.612 462.945 121.619 462.788C103.531 460.331 85.3377 458.397 67.0925 457.09C66.0992 457.037 66.0992 458.606 67.0925 458.658Z" fill="#161616"/>
<path d="M150.834 455.991C155.539 456.88 160.191 458.083 164.74 459.651C165.681 459.965 166.099 458.448 165.158 458.135C160.61 456.619 156.009 455.364 151.252 454.475C150.259 454.266 149.84 455.782 150.834 455.991Z" fill="#161616"/>
<path d="M74.829 465.872C84.2391 465.402 93.231 468.695 102.589 468.852C103.582 468.852 103.582 467.284 102.589 467.284C93.231 467.127 84.1868 463.833 74.829 464.304C73.8357 464.356 73.8357 465.924 74.829 465.872Z" fill="#161616"/>
<path d="M92.8135 463.833C99.7143 466.395 107.19 464.827 114.3 466.395C115.293 466.604 115.711 465.088 114.718 464.879C107.608 463.311 100.132 464.879 93.2317 462.317C92.2907 461.951 91.8725 463.467 92.8135 463.833Z" fill="#161616"/>
<path d="M107.965 470.682C125.321 466.761 143.357 466.343 161.027 465.297C162.021 465.245 162.021 463.677 161.027 463.729C143.148 464.827 125.06 465.193 107.546 469.166C106.553 469.375 106.971 470.891 107.965 470.682Z" fill="#161616"/>
<path d="M136.979 469.375C143.148 469.532 149.317 468.957 155.329 467.65C156.322 467.44 155.904 465.924 154.911 466.134C149.003 467.388 142.991 467.963 136.979 467.806C135.986 467.754 135.986 469.322 136.979 469.375Z" fill="#161616"/>
<path d="M76.3984 470.577C76.3984 474.498 76.3984 478.367 76.3984 482.288C76.3984 483.281 77.9668 483.281 77.9668 482.288C77.9668 478.367 77.9668 474.498 77.9668 470.577C77.9668 469.584 76.3984 469.584 76.3984 470.577Z" fill="#161616"/>
<path d="M76.9738 483.281C85.4429 485.79 94.8007 485.842 103.583 486.679C112.889 487.567 122.247 488.508 131.552 489.397C132.546 489.502 132.546 487.933 131.552 487.829C122.561 486.94 113.569 486.104 104.577 485.215C95.6372 484.326 86.018 484.326 77.392 481.765C76.451 481.503 76.0328 483.019 76.9738 483.281Z" fill="#161616"/>
<path d="M114.499 477.269C114.552 480.876 114.552 484.431 114.447 488.038C114.447 489.032 116.015 489.032 116.015 488.038C116.12 484.431 116.12 480.876 116.068 477.269C116.068 476.223 114.499 476.223 114.499 477.269Z" fill="#161616"/>
<path d="M106.136 477.008C109.011 477.269 111.886 477.74 114.709 478.419C115.703 478.681 116.121 477.164 115.128 476.903C112.148 476.171 109.168 475.701 106.136 475.439C105.09 475.387 105.09 476.955 106.136 477.008Z" fill="#161616"/>
<path d="M115.493 478.105C130.131 476.903 144.664 474.707 159.041 471.414C160.034 471.205 159.616 469.689 158.623 469.898C144.403 473.139 130.026 475.335 115.493 476.537C114.5 476.589 114.5 478.158 115.493 478.105Z" fill="#161616"/>
<path d="M115.492 489.607C132.116 486.418 148.636 482.497 164.895 477.844C165.888 477.583 165.47 476.067 164.476 476.328C148.166 480.981 131.698 484.954 115.073 488.091C114.132 488.3 114.551 489.816 115.492 489.607Z" fill="#161616"/>
<path d="M164.113 469.427C164.165 472.041 164.113 474.655 163.903 477.217C163.799 478.21 165.367 478.21 165.472 477.217C165.681 474.603 165.733 471.989 165.681 469.427C165.681 468.434 164.113 468.434 164.113 469.427Z" fill="#161616"/>
<path d="M159.04 471.414C160.817 471.414 162.595 471.152 164.32 470.734C165.313 470.473 164.895 468.957 163.902 469.218C162.281 469.636 160.713 469.845 159.04 469.845C158.047 469.845 158.047 471.414 159.04 471.414Z" fill="#161616"/>
<path d="M85.7567 479.726C98.4081 481.242 111.007 482.706 123.659 484.013C124.652 484.118 124.652 482.549 123.659 482.445C111.007 481.138 98.3558 479.726 85.7567 478.158C84.7634 478.053 84.7634 479.622 85.7567 479.726Z" fill="#161616"/>
<path d="M80.8934 475.387C86.2258 475.91 91.5582 476.328 96.8906 476.589C97.8839 476.642 97.8839 475.073 96.8906 475.021C91.5582 474.76 86.2258 474.341 80.8934 473.819C79.9001 473.766 79.9001 475.335 80.8934 475.387Z" fill="#161616"/>
<path d="M93.5828 478.262C100.327 478.262 107.018 478.733 113.71 479.778C114.703 479.935 115.122 478.419 114.128 478.262C107.332 477.217 100.484 476.694 93.5828 476.694C92.5895 476.694 92.5372 478.262 93.5828 478.262Z" fill="#161616"/>
<path d="M118.055 483.333C125.583 482.131 133.058 480.772 140.534 479.256C141.528 479.046 141.109 477.53 140.116 477.739C132.64 479.256 125.164 480.615 117.636 481.817C116.643 481.974 117.061 483.49 118.055 483.333Z" fill="#161616"/>
<path d="M132.275 483.961C141.319 480.929 150.625 478.681 160.035 477.321C161.028 477.165 160.61 475.648 159.616 475.805C150.154 477.165 140.901 479.36 131.857 482.445C130.916 482.811 131.334 484.327 132.275 483.961Z" fill="#161616"/>
<path d="M155.171 475.91C157.733 475.126 160.295 474.655 162.961 474.446C163.954 474.394 163.954 472.825 162.961 472.878C160.19 473.087 157.419 473.557 154.753 474.394C153.812 474.707 154.23 476.224 155.171 475.91Z" fill="#161616"/>
<path d="M88.3185 485.32C88.2662 489.032 88.1617 492.744 88.1094 496.455C88.1094 497.449 89.6777 497.449 89.6777 496.455C89.73 492.744 89.8346 489.032 89.8868 485.32C89.9391 484.327 88.3708 484.327 88.3185 485.32Z" fill="#161616"/>
<path d="M89.0497 497.501C109.334 500.219 129.67 502.938 149.954 505.604C150.947 505.761 150.947 504.192 149.954 504.036C129.67 501.317 109.334 498.599 89.0497 495.932C88.0564 495.776 88.0564 497.344 89.0497 497.501Z" fill="#161616"/>
<path d="M116.747 489.921C122.812 490.862 128.876 491.646 134.993 492.221C135.986 492.325 135.986 490.757 134.993 490.652C129.033 490.077 123.073 489.345 117.166 488.404C116.172 488.248 115.754 489.764 116.747 489.921Z" fill="#161616"/>
<path d="M135.202 492.064C150.781 490.6 165.053 483.49 180.371 480.876C181.364 480.719 180.946 479.203 179.952 479.36C164.739 481.922 150.624 488.979 135.202 490.443C134.209 490.6 134.209 492.168 135.202 492.064Z" fill="#161616"/>
<path d="M164.791 478.106C170.071 478.89 175.403 479.465 180.736 479.778C181.729 479.831 181.729 478.262 180.736 478.21C175.508 477.896 170.332 477.374 165.209 476.589C164.216 476.433 163.797 477.949 164.791 478.106Z" fill="#161616"/>
<path d="M133.373 491.907C133.216 495.984 133.111 500.114 132.954 504.192C132.902 505.185 134.47 505.185 134.523 504.192C134.68 500.114 134.784 495.984 134.941 491.907C134.993 490.861 133.425 490.861 133.373 491.907Z" fill="#161616"/>
<path d="M133.791 505.656C149.422 501.892 164.844 497.448 180.11 492.377C181.051 492.064 180.632 490.548 179.691 490.861C164.426 495.932 149.004 500.324 133.373 504.14C132.379 504.349 132.798 505.865 133.791 505.656Z" fill="#161616"/>
<path d="M179.691 480.144C180.109 483.961 180.213 487.777 180.004 491.593C179.952 492.587 181.52 492.587 181.573 491.593C181.729 487.777 181.625 483.961 181.259 480.144C181.154 479.151 179.586 479.151 179.691 480.144Z" fill="#161616"/>
<path d="M93.0757 493.109C92.7097 493.162 92.3961 493.214 92.0301 493.214C91.0368 493.319 91.0368 494.678 92.0301 494.782C105.309 496.194 118.483 498.337 131.709 500.428C132.703 500.585 133.121 499.069 132.128 498.912C118.797 496.769 105.466 494.626 92.0301 493.214C92.0301 493.737 92.0301 494.26 92.0301 494.782C92.3961 494.73 92.7097 494.678 93.0757 494.678C94.069 494.573 94.069 493.005 93.0757 493.109Z" fill="#161616"/>
<path d="M92.1535 490.809C96.1266 491.803 100.1 492.744 104.125 493.528C105.119 493.737 105.537 492.221 104.543 492.012C100.518 491.227 96.5449 490.339 92.5717 489.293C91.6307 489.084 91.2125 490.6 92.1535 490.809Z" fill="#161616"/>
<path d="M96.7242 492.848C107.232 494.469 117.688 496.089 128.196 497.71C129.189 497.867 129.607 496.351 128.614 496.194C118.106 494.573 107.65 492.952 97.1424 491.332C96.1491 491.227 95.7309 492.743 96.7242 492.848Z" fill="#161616"/>
<path d="M142.05 495.2C150.78 494.991 158.674 490.757 167.248 489.45C168.241 489.293 167.823 487.777 166.83 487.934C158.413 489.241 150.676 493.423 142.05 493.632C141.056 493.684 141.056 495.253 142.05 495.2Z" fill="#161616"/>
<path d="M139.226 500.481C143.043 499.54 146.859 498.599 150.675 497.605C151.669 497.344 151.25 495.828 150.257 496.089C146.441 497.03 142.625 497.971 138.808 498.965C137.815 499.174 138.233 500.69 139.226 500.481Z" fill="#161616"/>
<path d="M165.209 493.475C169.705 492.273 174.201 491.07 178.697 489.816C179.69 489.554 179.272 488.038 178.278 488.3C173.782 489.502 169.287 490.705 164.791 491.959C163.797 492.221 164.216 493.737 165.209 493.475Z" fill="#161616"/>
<path d="M68.1903 503.199C76.5025 502.31 84.7103 500.585 92.6566 497.971C93.5976 497.657 93.1794 496.141 92.2383 496.455C84.3966 499.017 76.398 500.742 68.1903 501.631C67.197 501.735 67.197 503.304 68.1903 503.199Z" fill="#161616"/>
<path d="M67.5638 503.042C67.7206 506.597 67.9297 510.099 68.0866 513.654C68.1388 514.648 69.7072 514.648 69.6549 513.654C69.4981 510.099 69.289 506.597 69.1321 503.042C69.0799 502.049 67.5115 502.049 67.5638 503.042Z" fill="#161616"/>
<path d="M68.9755 514.7C93.1281 517.889 117.228 521.078 141.381 524.215C142.374 524.372 142.374 522.751 141.381 522.647C117.228 519.458 93.1281 516.269 68.9755 513.132C67.9822 512.975 68.0345 514.544 68.9755 514.7Z" fill="#161616"/>
<path d="M68.5042 503.879C91.8204 507.172 115.137 510.152 138.505 512.871C139.498 512.975 139.498 511.407 138.505 511.302C115.293 508.636 92.0818 505.656 68.9224 502.363C67.9814 502.258 67.5109 503.774 68.5042 503.879Z" fill="#161616"/>
<path d="M124.433 524.529C143.097 519.144 161.656 513.393 180.058 507.225C180.999 506.911 180.58 505.395 179.639 505.708C161.185 511.825 142.679 517.628 124.015 523.013C123.022 523.274 123.44 524.79 124.433 524.529Z" fill="#161616"/>
<path d="M130.654 512.243C147.226 508.531 163.537 503.826 179.534 498.076C180.475 497.762 180.057 496.246 179.116 496.56C163.119 502.31 146.808 507.015 130.236 510.727C129.243 510.936 129.661 512.452 130.654 512.243Z" fill="#161616"/>
<path d="M178.593 497.605C178.645 500.585 178.698 503.513 178.75 506.493C178.75 507.486 180.318 507.486 180.318 506.493C180.266 503.513 180.214 500.585 180.161 497.605C180.109 496.612 178.541 496.612 178.593 497.605Z" fill="#161616"/>
<path d="M166.726 496.716C170.751 497.135 174.724 497.553 178.75 497.919C179.743 498.023 179.743 496.455 178.75 496.35C174.724 495.932 170.751 495.514 166.726 495.148C165.732 495.044 165.732 496.612 166.726 496.716Z" fill="#161616"/>
<path d="M74.2022 511.72C85.7557 512.4 97.2047 513.811 108.601 515.85C109.595 516.007 110.013 514.491 109.02 514.334C97.5184 512.243 85.9126 510.884 74.2022 510.152C73.1566 510.099 73.2089 511.668 74.2022 511.72Z" fill="#161616"/>
<path d="M94.5758 511.564C103.829 512.923 113.082 514.491 122.283 516.216C123.277 516.425 123.695 514.909 122.702 514.7C113.501 512.975 104.247 511.407 94.994 510.047C94.0007 509.891 93.5825 511.407 94.5758 511.564Z" fill="#161616"/>
<path d="M123.648 515.328C123.752 517.628 123.909 519.928 124.014 522.176C124.066 523.17 125.634 523.17 125.582 522.176C125.478 519.876 125.321 517.576 125.216 515.328C125.164 514.335 123.595 514.335 123.648 515.328Z" fill="#161616"/>
<path d="M132.379 515.798C140.116 514.073 147.801 512.138 155.486 510.047C156.479 509.786 156.061 508.27 155.068 508.531C147.435 510.622 139.698 512.557 131.961 514.282C130.967 514.491 131.385 516.007 132.379 515.798Z" fill="#161616"/>
<path d="M132.118 518.673C134.157 518.464 136.143 518.151 138.078 517.576C139.071 517.314 138.653 515.798 137.66 516.059C135.83 516.582 134 516.896 132.118 517.105C131.125 517.21 131.125 518.778 132.118 518.673Z" fill="#161616"/>
<path d="M160.347 510.362C165.209 508.793 170.071 507.225 174.88 505.709C175.822 505.395 175.403 503.879 174.462 504.193C169.6 505.761 164.738 507.33 159.929 508.846C158.988 509.159 159.406 510.675 160.347 510.362Z" fill="#161616"/>
<path d="M169.759 504.872C171.85 504.245 173.993 503.67 176.084 503.042C177.078 502.781 176.659 501.265 175.666 501.526C173.575 502.154 171.431 502.729 169.34 503.356C168.399 503.617 168.765 505.133 169.759 504.872Z" fill="#161616"/>
<path d="M92.2374 517.628C92.7602 521.705 92.9693 525.783 92.8125 529.913C92.7602 530.906 94.3286 530.906 94.3808 529.913C94.5377 525.783 94.3286 521.705 93.8058 517.628C93.7012 516.634 92.1329 516.634 92.2374 517.628Z" fill="#161616"/>
<path d="M94.1726 531.011C118.325 534.148 142.426 537.232 166.578 540.369C167.571 540.473 167.571 538.905 166.578 538.8C142.426 535.664 118.325 532.579 94.1726 529.443C93.1793 529.286 93.1793 530.854 94.1726 531.011Z" fill="#161616"/>
<path d="M148.376 527.091C148.638 531.169 148.847 535.299 149.108 539.376C149.16 540.37 150.729 540.37 150.677 539.376C150.415 535.299 150.206 531.169 149.945 527.091C149.892 526.098 148.324 526.045 148.376 527.091Z" fill="#161616"/>
<path d="M149.37 540.265C164.479 532.946 179.639 525.679 194.748 518.36C195.637 517.942 194.852 516.583 193.964 517.001C178.855 524.32 163.694 531.587 148.586 538.905C147.645 539.376 148.481 540.735 149.37 540.265Z" fill="#161616"/>
<path d="M149.16 526.881C164.634 521.34 179.69 514.753 194.276 507.12C195.165 506.649 194.38 505.29 193.492 505.761C179.063 513.289 164.111 519.824 148.741 525.365C147.8 525.731 148.219 527.247 149.16 526.881Z" fill="#161616"/>
<path d="M192.865 506.493C192.97 510.414 193.074 514.335 193.179 518.204C193.231 519.197 194.8 519.197 194.747 518.204C194.643 514.283 194.538 510.362 194.434 506.493C194.434 505.448 192.865 505.448 192.865 506.493Z" fill="#161616"/>
<path d="M180.161 505.656C184.5 505.709 188.839 506.022 193.126 506.65C194.119 506.806 194.538 505.29 193.544 505.133C189.101 504.506 184.657 504.14 180.161 504.088C179.168 504.088 179.168 505.656 180.161 505.656Z" fill="#161616"/>
<path d="M125.269 524.686C130.549 525.627 135.882 526.202 141.266 526.411C142.26 526.464 142.26 524.895 141.266 524.843C136.038 524.634 130.863 524.111 125.687 523.17C124.694 522.961 124.276 524.477 125.269 524.686Z" fill="#161616"/>
<path d="M153.76 529.234C159.511 527.822 165 525.836 170.332 523.274C171.221 522.856 170.437 521.497 169.548 521.915C164.373 524.424 158.988 526.306 153.394 527.718C152.349 527.927 152.767 529.443 153.76 529.234Z" fill="#161616"/>
<path d="M154.388 533.312C158.988 531.586 163.432 529.548 167.719 527.195C168.607 526.725 167.823 525.365 166.934 525.836C162.752 528.136 158.465 530.123 153.969 531.796C153.028 532.162 153.394 533.678 154.388 533.312Z" fill="#161616"/>
<path d="M173.156 520.242C178.959 518.203 184.709 515.85 190.355 513.289C191.296 512.871 190.46 511.511 189.571 511.93C184.082 514.439 178.488 516.687 172.737 518.673C171.796 519.039 172.215 520.555 173.156 520.242Z" fill="#161616"/>
<path d="M175.404 523.693C181.103 521.236 186.54 518.308 191.767 514.91C192.604 514.335 191.82 513.028 190.983 513.551C185.808 516.949 180.318 519.876 174.62 522.333C173.679 522.752 174.463 524.059 175.404 523.693Z" fill="#161616"/>
<path d="M1174.53 30.8728C1182.83 36.0484 1185.45 48.2815 1186.39 59.1031C1187.65 73.6365 1187.37 88.6404 1187.29 103.226C1187.12 135.116 1185.65 167.006 1184.3 198.843C1181.65 262.466 1178.95 326.089 1176.29 389.712C1174.78 425.523 1173.27 461.333 1171.8 497.144C1171.76 498.137 1172.98 498.137 1173.02 497.144C1175.76 432.11 1178.5 367.075 1181.2 302.093C1182.54 269.733 1183.89 237.425 1185.28 205.064C1186.63 172.861 1188.18 140.657 1188.51 108.402C1188.59 99.4098 1188.59 90.4179 1188.43 81.3737C1188.31 73.6888 1188.27 65.9516 1187.57 58.319C1186.51 47.1837 1183.69 34.7414 1175.19 29.4613C1174.45 29.0953 1173.84 30.4546 1174.53 30.8728Z" fill="#323232"/>
<path d="M1153.08 20.5217C1162.39 22.5082 1171.14 27.1087 1178.87 34.0095C1179.52 34.5846 1180.13 33.2253 1179.48 32.6503C1171.67 25.6972 1162.76 21.0444 1153.4 19.0056C1152.63 18.7965 1152.3 20.3125 1153.08 20.5217Z" fill="#323232"/>
<path d="M1122.91 5.25646C1135.62 6.92937 1149.31 9.07278 1159.08 20.7309C1159.65 21.4105 1160.51 20.3126 1159.94 19.633C1149.92 7.66127 1135.99 5.41329 1122.91 3.68811C1122.09 3.58355 1122.13 5.1519 1122.91 5.25646Z" fill="#323232"/>
<path d="M1158.79 20.7831C1157.03 37.5121 1149.8 52.9343 1139.05 62.7103C1138.4 63.2854 1139.01 64.6446 1139.66 64.0696C1150.82 53.8753 1158.22 38.1395 1160.02 20.7831C1160.14 19.7898 1158.91 19.7898 1158.79 20.7831Z" fill="#323232"/>
<path d="M1122.13 4.36762C1132.84 20.9922 1138.6 42.2695 1138.28 63.8082C1138.28 64.8015 1139.5 64.8015 1139.5 63.8082C1139.79 41.8512 1133.9 20.208 1122.99 3.26978C1122.5 2.4856 1121.64 3.58345 1122.13 4.36762Z" fill="#323232"/>
<path d="M1128.72 23.016C1123.81 22.5977 1119.28 30.4918 1121.65 36.3469C1123.41 40.6861 1130.07 42.9863 1132.4 38.2812C1132.81 37.4448 1131.74 36.6606 1131.33 37.4971C1129.49 41.2611 1123.77 38.6995 1122.67 35.3014C1121.03 30.3872 1124.79 24.2184 1128.76 24.5843C1129.49 24.6366 1129.49 23.0682 1128.72 23.016Z" fill="#323232"/>
<path d="M1121.8 4.05405C1122.25 11.373 1123.15 18.6397 1124.54 25.7496C1124.75 26.7429 1125.93 26.3246 1125.73 25.3314C1124.38 18.3261 1123.48 11.2162 1123.03 4.05405C1122.95 3.06076 1121.72 3.06076 1121.8 4.05405Z" fill="#323232"/>
<path d="M1129.45 40.701C1132.14 48.5428 1134.84 56.3845 1137.5 64.2263C1137.82 65.1673 1138.89 64.3308 1138.56 63.4421C1135.86 55.6003 1133.17 47.7586 1130.51 39.9168C1130.22 39.0281 1129.16 39.8123 1129.45 40.701Z" fill="#323232"/>
<path d="M1129.77 40.022C1131.37 45.8771 1133 51.7323 1135.5 57.117C1135.9 58.0057 1136.93 57.2216 1136.56 56.3328C1134.35 51.0527 1132.76 45.5112 1131.74 39.7083C1131.41 39.9697 1131.04 40.2311 1130.71 40.4925C1130.76 40.5447 1130.76 40.5447 1130.8 40.597C1130.76 40.2834 1130.71 39.9697 1130.71 39.656C1130.67 39.7083 1130.67 39.7606 1130.63 39.8128C1130.96 39.7606 1131.29 39.7083 1131.61 39.656C1131.57 39.5515 1135.21 35.3169 1135.46 35.0555C1135.13 34.951 1134.76 34.8464 1134.43 34.6896C1135.29 39.4469 1135.86 44.2565 1136.23 49.1184C1136.64 49.0661 1137.05 48.9616 1137.42 48.9093C1136.72 45.5112 1135.82 42.1654 1134.76 38.9241C1134.47 38.0354 1133.41 38.3491 1133.58 39.3423C1134.27 43.5769 1134.92 47.8114 1135.62 52.0983C1136.03 51.9414 1136.4 51.8369 1136.8 51.68C1135.9 48.1251 1134.92 44.6747 1133.82 41.2244C1133.53 40.2834 1132.43 40.6493 1132.64 41.6426C1133.45 45.5635 1134.27 49.5366 1135.09 53.4575C1135.46 53.2484 1135.82 53.0393 1136.19 52.8302C1135.05 49.4321 1133.94 46.034 1132.8 42.5836C1132.51 41.7994 1131.45 42.3745 1131.7 43.2109C1133.33 48.857 1134.96 54.5031 1136.52 60.2014C1136.76 61.1424 1137.91 60.7765 1137.7 59.7832C1137.09 57.0124 1136.64 54.1894 1136.44 51.3141C1136.03 51.3664 1135.62 51.4709 1135.25 51.5232C1135.99 54.7645 1136.72 58.0057 1137.46 61.247C1137.66 62.2403 1138.81 61.8221 1138.64 60.8288C1137.99 57.1693 1137.54 53.4575 1137.25 49.6935C1136.84 49.7457 1136.44 49.8503 1136.07 49.9026C1136.6 53.7189 1137.09 57.5352 1137.83 61.2993C1137.99 62.1357 1139.09 61.9789 1139.01 61.0902C1138.68 56.3851 1138.07 51.7323 1137.17 47.1318C1136.97 46.1385 1135.82 46.5568 1135.99 47.5501C1136.27 49.1707 1136.27 50.739 1136.11 52.4119C1136.48 52.2551 1136.89 52.1506 1137.25 51.9937C1136.23 49.7457 1135.58 47.4455 1135.33 44.8839C1135.25 44.0997 1134.56 43.786 1134.19 44.4656C1133.9 44.9884 1133.66 45.5112 1133.37 46.034C1133.74 46.034 1134.07 46.034 1134.43 46.034C1133.9 44.4656 1133.7 43.0018 1133.74 41.2766C1133.33 41.2766 1132.92 41.2766 1132.51 41.2766C1132.43 41.6426 1132.35 42.0085 1132.27 42.3745C1132.59 42.479 1132.96 42.5836 1133.29 42.7404C1133.08 41.3812 1133.08 40.3356 1133.17 39.0287C1132.76 39.081 1132.35 39.1855 1131.98 39.2378C1131.9 39.8128 1131.86 40.3879 1131.78 40.963C1132.15 40.963 1132.47 40.963 1132.84 40.963C1133 40.2311 1133.21 39.4992 1133.37 38.7673C1133.08 38.6104 1132.76 38.4536 1132.47 38.2968C1132.27 39.1332 1132.06 39.9697 1131.86 40.8061C1132.19 41.0675 1132.55 41.3289 1132.88 41.5903C1133.17 39.9174 1133.74 38.715 1134.72 37.5126C1134.39 37.408 1134.02 37.3035 1133.7 37.1466C1133.86 38.5582 1133.74 39.7083 1133.37 41.0675C1133.78 41.1198 1134.19 41.2244 1134.56 41.2766C1134.56 40.1265 1134.68 39.1332 1135.01 38.0354C1134.6 37.9831 1134.19 37.8785 1133.82 37.8263C1133.82 38.7673 1133.86 39.7083 1133.86 40.6493C1133.86 41.4858 1134.96 41.7471 1135.05 40.8584C1135.17 39.9174 1135.29 38.9764 1135.41 38.0354C1135.01 38.0354 1134.64 38.0354 1134.23 38.0354C1134.23 38.5582 1134.19 39.081 1134.19 39.656C1133.86 40.597 1134.92 41.3812 1135.25 40.4402C1135.62 39.3946 1135.7 38.7673 1135.41 37.6172C1135.25 36.9375 1134.35 36.833 1134.23 37.6172C1134.11 38.5582 1133.98 39.4992 1133.86 40.4402C1134.27 40.4925 1134.68 40.597 1135.05 40.6493C1135.05 39.7083 1135.01 38.7673 1135.01 37.8263C1135.01 36.9375 1134.02 36.7807 1133.82 37.6172C1133.45 38.8718 1133.33 39.9697 1133.33 41.2766C1133.33 42.1654 1134.31 42.3222 1134.52 41.4858C1134.96 39.8651 1135.05 38.4536 1134.84 36.7284C1134.76 36.1011 1134.11 36.0488 1133.82 36.3625C1132.72 37.6694 1132.02 39.2378 1131.65 41.1198C1131.53 41.8517 1132.23 42.479 1132.68 41.904C1133.53 40.7016 1133.82 39.4992 1133.58 37.8785C1133.49 37.408 1132.96 37.1466 1132.68 37.408C1131.45 38.4536 1131.12 40.022 1131.7 41.7471C1131.9 42.3222 1132.51 42.1654 1132.76 41.7471C1133.29 40.7539 1133.37 39.9174 1133.08 38.8196C1132.84 37.9308 1131.94 38.1399 1131.9 39.0287C1131.78 40.4402 1131.86 41.7471 1132.06 43.1587C1132.15 43.7337 1132.8 43.8906 1133.08 43.5246C1133.58 42.845 1133.78 42.3222 1133.7 41.3289C1133.62 40.3356 1132.47 40.2834 1132.47 41.3289C1132.43 43.3155 1132.72 45.0407 1133.33 46.8704C1133.53 47.4455 1134.15 47.2887 1134.39 46.8704C1134.68 46.3476 1134.92 45.8249 1135.21 45.3021C1134.84 45.1452 1134.43 45.0407 1134.07 44.8839C1134.35 47.7592 1135.01 50.3208 1136.15 52.7779C1136.48 53.5098 1137.21 53.0916 1137.29 52.3597C1137.5 50.5299 1137.42 48.9093 1137.13 47.0795C1136.72 47.2364 1136.35 47.3409 1135.95 47.4978C1136.84 51.9414 1137.42 56.4897 1137.74 61.0379C1138.15 60.9856 1138.56 60.881 1138.93 60.8288C1138.23 57.0647 1137.7 53.2484 1137.17 49.4321C1137.05 48.5433 1135.9 48.7525 1135.99 49.6412C1136.27 53.5621 1136.72 57.3784 1137.42 61.1947C1137.83 61.0379 1138.19 60.9333 1138.6 60.7765C1137.87 57.5352 1137.13 54.294 1136.4 51.0527C1136.19 50.2163 1135.13 50.3731 1135.21 51.2618C1135.46 54.294 1135.86 57.2216 1136.52 60.1492C1136.93 59.9923 1137.29 59.8878 1137.7 59.7309C1136.11 54.0326 1134.52 48.3865 1132.88 42.7404C1132.51 42.9496 1132.15 43.1587 1131.78 43.3678C1132.92 46.7659 1134.02 50.164 1135.17 53.6143C1135.46 54.4508 1136.48 53.8235 1136.27 52.987C1135.46 49.0661 1134.64 45.093 1133.82 41.1721C1133.41 41.3289 1133.04 41.4335 1132.64 41.5903C1133.7 45.0407 1134.68 48.5433 1135.62 52.046C1135.86 52.987 1136.97 52.6211 1136.8 51.6278C1136.11 47.3932 1135.46 43.1587 1134.76 38.8718C1134.35 39.0287 1133.98 39.1332 1133.58 39.2901C1134.64 42.5313 1135.54 45.8771 1136.23 49.2752C1136.4 50.1117 1137.5 49.9549 1137.42 49.0661C1137.05 44.0474 1136.44 39.1332 1135.58 34.2191C1135.46 33.644 1134.88 33.4872 1134.56 33.8531C1133.41 35.2123 1131.41 36.833 1130.63 38.6104C1130.27 39.4992 1130.27 39.9697 1130.71 40.6493C1131 41.0675 1131.45 40.8584 1131.7 40.4925C1131.74 40.4402 1131.74 40.3879 1131.78 40.3356C1131.94 40.0742 1131.86 39.6037 1131.7 39.3946C1131.65 39.3423 1131.65 39.3423 1131.61 39.2901C1131.16 38.715 1130.47 39.2901 1130.59 40.0742C1131.61 46.034 1133.25 51.7323 1135.54 57.0647C1135.9 56.8033 1136.23 56.5419 1136.6 56.2805C1134.19 51.0004 1132.55 45.3021 1131 39.5515C1130.67 38.6627 1129.49 39.081 1129.77 40.022Z" fill="#323232"/>
<path d="M1122.46 6.30195C1123.64 11.8957 1124.5 17.5418 1125.07 23.2402C1125.12 23.8152 1125.57 24.2334 1126.01 23.9198C1127.36 22.9788 1128.71 22.2991 1130.22 21.8286C1130.59 21.7241 1130.8 21.0967 1130.59 20.6785C1128.71 17.0713 1126.95 13.3595 1125.32 9.59549C1124.95 8.70676 1123.93 9.49093 1124.26 10.3797C1125.36 13.4641 1126.22 16.6531 1126.91 19.8943C1127.28 19.6852 1127.65 19.4761 1128.02 19.267C1127.08 16.9667 1126.42 14.6142 1126.01 12.0526C1125.65 12.2617 1125.28 12.4708 1124.91 12.6799C1126.42 15.503 1127.24 18.5874 1127.36 21.9855C1127.73 21.7764 1128.06 21.6195 1128.43 21.4104C1127.49 20.3126 1126.95 19.1102 1126.67 17.4895C1126.38 17.8032 1126.06 18.0646 1125.77 18.3783C1126.63 19.2147 1126.91 20.1557 1126.71 21.2536C1127.08 21.0967 1127.49 20.9922 1127.85 20.8354C1126.83 19.1102 1126.01 17.2804 1125.28 15.3461C1124.99 15.7121 1124.71 16.078 1124.42 16.444C1125.57 17.385 1127.08 26.7428 1129.98 22.5083C1131.04 20.9399 1130.43 18.9533 1129.73 17.3327C1128.59 14.6142 1127.16 12.1049 1125.69 9.70005C1125.24 8.96815 1124.38 9.90916 1124.71 10.6411C1126.3 14.1437 1127.49 17.8032 1128.26 21.7241C1128.63 21.515 1129 21.3059 1129.37 21.0967C1129.2 20.6262 1129.04 20.208 1128.88 19.7375C1128.59 20.1035 1128.3 20.4694 1128.02 20.8354C1128.02 20.7831 1128.02 20.7831 1128.02 20.7308C1127.77 20.9922 1127.49 21.2536 1127.24 21.4627C1127.77 21.7241 1128.34 21.9855 1128.88 22.2469C1129.61 22.6128 1129.94 21.0967 1129.2 20.7308C1128.67 20.4694 1128.1 20.208 1127.57 19.9466C1127.2 19.7375 1126.79 20.2603 1126.79 20.6785C1126.75 24.8085 1131.33 21.515 1128.63 19.4238C1128.06 19.0056 1127.53 19.8421 1127.77 20.5217C1127.94 20.9922 1128.1 21.4104 1128.26 21.8809C1128.55 22.7174 1129.53 22.09 1129.37 21.2536C1128.55 17.1759 1127.36 13.4118 1125.69 9.80461C1125.36 10.1183 1125.03 10.4319 1124.71 10.7456C1125.61 12.2617 1126.46 13.7778 1127.28 15.3461C1127.61 15.9735 1127.94 16.6008 1128.22 17.2804C1128.47 17.7509 1128.67 18.2737 1128.83 18.7965C1129.49 19.8943 1129 20.5217 1127.32 20.6262C1126.75 20.0512 1126.67 18.1169 1126.42 17.2804C1126.1 16.2348 1125.69 15.5552 1124.95 14.9802C1124.38 14.5619 1123.89 15.3984 1124.09 16.078C1124.83 18.0646 1125.65 19.8421 1126.67 21.5672C1127.04 22.1946 1127.73 21.9855 1127.81 21.149C1127.98 19.3193 1127.45 17.96 1126.26 16.9145C1125.81 16.4962 1125.24 17.1759 1125.36 17.8032C1125.69 19.6329 1126.38 21.149 1127.45 22.4037C1127.81 22.8219 1128.51 22.5605 1128.51 21.8286C1128.39 18.1169 1127.49 14.7711 1125.89 11.7389C1125.48 11.007 1124.63 11.4775 1124.79 12.3662C1125.24 15.0324 1125.93 17.5418 1126.91 19.9466C1127.24 20.7308 1128.22 20.208 1128.02 19.3193C1127.32 15.9212 1126.38 12.6276 1125.24 9.43866C1124.87 9.70005 1124.54 9.96144 1124.18 10.2228C1125.81 14.0392 1127.57 17.6986 1129.45 21.3059C1129.57 20.9399 1129.69 20.5217 1129.82 20.1557C1128.22 20.6262 1126.75 21.3581 1125.32 22.4037C1125.65 22.6128 1125.93 22.8742 1126.26 23.0833C1125.69 17.2281 1124.83 11.4252 1123.6 5.72689C1123.44 4.89043 1122.25 5.30866 1122.46 6.30195Z" fill="#323232"/>
<path d="M1122.58 32.9887C1121.64 30.0089 1123.89 27.2381 1125.69 25.8789C1127.45 24.5196 1129.41 24.0491 1131.45 24.206C1132.02 24.2582 1132.19 23.3695 1131.9 22.8467C1131.53 22.2717 1131.21 21.6966 1130.84 21.1215C1130.51 20.5987 1129.74 21.017 1129.78 21.6966C1129.65 20.651 1128.51 21.2784 1127.98 21.2784C1126.02 21.2261 1126.79 20.7556 1126.71 19.3441C1126.55 17.6189 1125.77 15.8414 1125.44 14.1685C1124.95 11.7114 1124.71 9.25433 1124.55 6.74497C1124.5 5.75168 1123.28 5.75168 1123.32 6.74497C1123.48 9.72484 1123.81 12.6524 1124.42 15.5277C1124.71 16.7824 1125.4 18.3508 1125.28 19.6577C1125.24 20.2328 1124.91 20.651 1124.91 21.2261C1124.95 22.4285 1125.89 23.1604 1126.75 23.1604C1127.69 23.1604 1128.63 22.899 1129.61 22.9513C1130.14 23.0036 1130.23 23.1604 1130.72 22.7422C1130.88 22.5853 1131.04 22.3239 1131 22.0625C1131 21.958 1130.96 21.8011 1130.96 21.6966C1130.59 21.9057 1130.27 22.0625 1129.9 22.2717C1130.27 22.8467 1130.59 23.4218 1130.96 23.9968C1131.13 23.5263 1131.25 23.1081 1131.41 22.6376C1127.41 22.3239 1119.19 26.5585 1121.36 33.407C1121.68 34.348 1122.87 33.9297 1122.58 32.9887Z" fill="#323232"/>
<path d="M1124.83 24.1815C1123.03 26.0635 1121.64 28.7297 1121.35 31.7618C1121.11 34.428 1122.38 36.7806 1123.93 38.4535C1128.1 43.0017 1132.55 37.9307 1135.17 33.6439C1135.66 32.8597 1134.8 31.7618 1134.31 32.546C1132.18 36.0487 1128.47 41.1719 1124.83 37.3556C1123.23 35.6827 1122.25 33.3825 1122.79 30.7163C1123.23 28.5206 1124.34 26.6908 1125.73 25.2793C1126.34 24.652 1125.44 23.5541 1124.83 24.1815Z" fill="#323232"/>
<path d="M1137.05 43.524C1137.05 43.4717 1137.05 43.4195 1137.01 43.3672C1136.93 43.6809 1136.8 43.9423 1136.72 44.2559C1136.76 44.2036 1136.8 44.2036 1136.85 44.1514C1136.56 44.0468 1136.27 43.9423 1135.99 43.89C1136.56 45.0401 1136.56 47.1312 1136.72 48.4382C1136.93 50.1634 1137.13 51.9408 1137.3 53.666C1137.54 56.6459 1137.66 59.6258 1137.74 62.6579C1137.74 63.6512 1138.97 63.6512 1138.97 62.6579C1138.89 58.9984 1138.73 55.3389 1138.36 51.6795C1138.24 50.2679 1138.07 48.9087 1137.87 47.4972C1137.7 46.0857 1137.66 44.2559 1137.05 43.0535C1136.89 42.6876 1136.52 42.583 1136.19 42.7921C1136.15 42.8444 1136.11 42.8444 1136.07 42.8967C1135.82 43.0535 1135.7 43.4717 1135.78 43.7854C1135.78 43.8377 1135.78 43.89 1135.82 43.9423C1136.07 44.9355 1137.25 44.5173 1137.05 43.524Z" fill="#323232"/>
<path d="M1122.87 6.61608C1124.3 8.91633 1125.36 11.478 1126.06 14.301C1126.3 15.242 1127.49 14.8238 1127.24 13.8828C1126.47 10.7983 1125.32 8.02759 1123.73 5.51823C1123.28 4.68177 1122.38 5.8319 1122.87 6.61608Z" fill="#323232"/>
<path d="M1095.89 14.6665C1101.49 16.7053 1107.13 18.4828 1112.85 19.9466C1113.62 20.1557 1113.95 18.6396 1113.17 18.4305C1107.45 16.9667 1101.81 15.1892 1096.21 13.1504C1095.48 12.8367 1095.15 14.3528 1095.89 14.6665Z" fill="#323232"/>
<path d="M1081.58 39.0808C1092.29 37.983 1102.88 35.4214 1113.21 31.4482C1113.95 31.1345 1113.66 29.6185 1112.89 29.9321C1102.67 33.853 1092.21 36.4146 1081.58 37.4602C1080.81 37.5648 1080.81 39.1331 1081.58 39.0808Z" fill="#323232"/>
<path d="M1120.49 39.8647C1118.04 41.799 1115.75 43.9946 1113.58 46.3995C1112.97 47.0791 1113.87 48.1769 1114.44 47.4973C1116.53 45.197 1118.77 43.1059 1121.1 41.2239C1121.8 40.7011 1121.18 39.3419 1120.49 39.8647Z" fill="#323232"/>
<path d="M1121.27 56.646C1112.52 66.3175 1103.73 75.989 1094.99 85.6605C1094.37 86.3401 1095.27 87.438 1095.85 86.7583C1104.59 77.0868 1113.38 67.4153 1122.12 57.7438C1122.74 57.1165 1121.88 55.9664 1121.27 56.646Z" fill="#323232"/>
<path d="M1124.58 68.5658C1121.92 75.0483 1119.22 81.5831 1116.57 88.0656C1116.2 88.9543 1117.26 89.7385 1117.63 88.8498C1120.29 82.3673 1122.98 75.8325 1125.64 69.3499C1126.01 68.4612 1124.94 67.677 1124.58 68.5658Z" fill="#323232"/>
<path d="M1125.77 72.2252C1124.42 82.4195 1123.6 92.7183 1123.28 103.069C1123.24 104.063 1124.46 104.063 1124.5 103.069C1124.83 92.8752 1125.65 82.6809 1126.95 72.6434C1127.08 71.6501 1125.89 71.2319 1125.77 72.2252Z" fill="#323232"/>
<path d="M1156.39 22.09C1166.85 20.3125 1176.29 29.043 1181.44 40.126C1187.53 53.1956 1187.73 69.3496 1187.45 84.1444C1186.84 117.655 1185.73 151.113 1184.67 184.571C1182.54 251.958 1179.89 319.345 1176.78 386.732C1175.02 424.581 1173.1 488.15 1171.02 526C1170.9 528.039 1173.35 527.987 1173.47 526C1177.27 456.94 1180.54 362.109 1183.28 292.997C1186.02 224.041 1188.43 155.034 1189.9 86.0265C1190.23 69.8724 1190.15 52.15 1183.28 37.9303C1177.68 26.3245 1167.5 17.1235 1156.43 19.0055C1154.84 19.2147 1154.84 22.3514 1156.39 22.09Z" fill="#323232"/>
<path d="M1154.18 21.4107C1157.12 21.5152 1160.07 21.5675 1162.93 22.404C1165.91 23.2927 1168.2 25.4361 1170.85 27.1613C1171.55 27.6318 1172.16 26.2726 1171.47 25.8021C1168.69 24.0246 1166.32 21.8289 1163.25 20.8879C1160.27 19.9992 1157.2 19.8946 1154.18 19.79C1153.4 19.79 1153.4 21.3584 1154.18 21.4107Z" fill="#323232"/>
<path d="M1154.18 22.4562C1162.93 23.554 1171.22 27.6317 1178.33 34.2711C1178.99 34.8461 1179.6 33.4869 1178.95 32.9118C1171.63 26.1679 1163.13 22.0379 1154.18 20.8878C1153.4 20.7833 1153.4 22.3516 1154.18 22.4562Z" fill="#323232"/>
<path d="M1152.42 18.7966C1156.27 19.7376 1160.03 20.9923 1163.7 22.4561C1164.44 22.7697 1164.77 21.2536 1164.03 20.94C1160.31 19.4239 1156.55 18.2215 1152.75 17.2805C1151.97 17.0714 1151.65 18.5874 1152.42 18.7966Z" fill="#323232"/>
<path d="M1153.32 18.6398C1158.1 19.3194 1162.76 20.6263 1167.3 22.5084C1168.04 22.822 1168.36 21.306 1167.63 20.9923C1162.97 19.058 1158.19 17.751 1153.32 17.0714C1152.55 16.9669 1152.55 18.5352 1153.32 18.6398Z" fill="#323232"/>
<path d="M1144.28 9.59566C1150.58 12.4187 1156.58 15.9736 1162.31 20.2605C1163 20.7832 1163.61 19.424 1162.92 18.9012C1157.07 14.5098 1150.94 10.9026 1144.57 8.07959C1143.87 7.76592 1143.55 9.28199 1144.28 9.59566Z" fill="#323232"/>
<path d="M1142.57 9.07271C1148.98 12.1049 1155.15 15.7643 1161.08 20.1035C1161.77 20.6262 1162.39 19.267 1161.69 18.7442C1155.64 14.3528 1149.39 10.6411 1142.85 7.55664C1142.16 7.24297 1141.83 8.75904 1142.57 9.07271Z" fill="#323232"/>
<path d="M1152.05 48.0204C1155.77 39.6559 1159 30.9777 1161.73 21.9858C1162.02 21.0448 1160.84 20.6265 1160.55 21.5675C1157.85 30.4026 1154.66 38.9762 1150.99 47.2362C1150.62 48.0727 1151.68 48.8569 1152.05 48.0204Z" fill="#323232"/>
<path d="M1154.06 21.3582C1153.32 22.9266 1152.79 24.5472 1152.42 26.3247C1152.22 27.318 1153.4 27.7362 1153.61 26.7429C1153.94 25.1223 1154.43 23.6062 1155.12 22.1424C1155.53 21.2537 1154.47 20.4695 1154.06 21.3582Z" fill="#323232"/>
</svg>
