<svg width="778" height="823" viewBox="0 0 778 823" fill="none" xmlns="http://www.w3.org/2000/svg">
<path d="M-16.1081 730.503H131.884H280.522H363.897C366.419 730.503 366.419 726.622 363.897 726.622C314.545 726.622 265.257 726.622 215.905 726.622C166.359 726.622 116.813 726.622 67.2666 726.622C39.4535 726.622 11.7051 726.622 -16.1081 726.622C-18.6306 726.622 -18.6306 730.503 -16.1081 730.503Z" fill="#161616"/>
<path d="M438.281 732.249H569.39H699.853H774.108C776.63 732.249 776.63 728.368 774.108 728.368C730.383 728.368 686.723 728.368 642.998 728.368C599.532 728.368 556.001 728.368 512.535 728.368C487.762 728.368 463.054 728.368 438.281 728.368C435.758 728.368 435.758 732.249 438.281 732.249Z" fill="#161616"/>
<path d="M1.20816 669.284C31.0828 670.565 60.9425 671.213 90.8172 671.155C91.9691 671.155 91.9691 669.4 90.8172 669.4C60.9425 669.457 31.0828 668.809 1.20816 667.528C0.0562629 667.471 0.0562629 669.227 1.20816 669.284Z" fill="#E8E8E8"/>
<path d="M92.6424 625.831C97.3099 642.714 101.693 659.713 105.702 676.769C105.942 677.877 107.707 677.417 107.468 676.308C103.399 659.252 99.0901 642.254 94.4076 625.37C94.1085 624.319 92.3432 624.78 92.6424 625.831Z" fill="#E8E8E8"/>
<path d="M173.993 627.112C172.288 643.175 170.597 659.295 168.952 675.358C168.832 676.467 170.657 676.467 170.777 675.358C172.482 659.295 174.173 643.175 175.818 627.112C175.878 626.003 174.053 626.003 173.993 627.112Z" fill="#E8E8E8"/>
<path d="M106.181 678.338C127.035 681.605 149.355 682.224 169.805 676.467C170.897 676.121 170.418 674.423 169.326 674.768C149.13 680.425 127.244 679.82 106.674 676.639C105.522 676.409 105.029 678.093 106.196 678.338H106.181Z" fill="#E8E8E8"/>
<path d="M93.3604 626.421C119.705 632.264 147.634 630.048 174.353 627.759C175.504 627.644 175.504 625.888 174.353 626.003C147.739 628.321 120.108 630.422 93.8541 624.722C92.7022 624.435 92.2085 626.118 93.3753 626.421H93.3604Z" fill="#E8E8E8"/>
<path d="M88.1392 620.404C88.4384 622.247 88.3187 624.233 88.8722 626.018C89.6052 627.543 92.0288 627.011 93.42 627.011C94.5719 627.011 94.5719 625.255 93.42 625.255C92.3728 625.054 90.2036 625.931 90.3831 624.204C90.2635 622.923 90.1438 621.685 90.0241 620.404C89.8446 619.296 88.0195 619.239 88.1392 620.404Z" fill="#E8E8E8"/>
<path d="M89.3514 621.34C115.77 624.305 142.429 624.535 168.997 623.211C172.602 622.895 177.554 621.542 177.195 626.838C177.375 626.493 177.614 626.133 177.808 625.788H175.445C174.293 625.557 173.799 627.241 174.966 627.486C176.223 627.63 178.99 628.177 178.856 626.435C178.556 624.391 178.796 621.815 176.238 621.297C147.32 622.52 118.089 623.082 89.2466 619.598C88.2144 619.483 88.2144 621.239 89.3663 621.354L89.3514 621.34Z" fill="#E8E8E8"/>
<path d="M102.53 663.8C103.024 665.355 122.816 685.376 120.437 678.28C114.244 673.905 108.724 668.766 104.041 662.865C103.368 661.987 101.797 662.865 102.53 663.8Z" fill="#E8E8E8"/>
<path d="M98.4616 645.981C98.7758 649.263 136.16 687.55 133.976 678.511C120.797 669.284 109.322 657.957 100.032 645.103C99.3592 644.168 97.7884 645.046 98.4467 645.981H98.4616Z" fill="#E8E8E8"/>
<path d="M94.7665 630.336C111.162 649.033 129.369 666.492 151.105 679.46C152.077 680.05 153.05 678.525 152.018 677.949C130.401 665.096 112.314 647.752 96.0382 629.112C95.3051 628.234 94.0335 629.515 94.7665 630.336Z" fill="#E8E8E8"/>
<path d="M112.18 629.343C127.783 646.802 145.091 663.398 164.389 677.071C165.362 677.719 166.274 676.193 165.302 675.56C146.123 662.001 128.935 645.42 113.451 628.134C112.658 627.256 111.387 628.479 112.18 629.357V629.343Z" fill="#E8E8E8"/>
<path d="M132.091 630.566C142.653 643.002 154.8 654.099 168.279 663.628C169.251 664.275 170.164 662.75 169.192 662.117C155.833 652.718 143.82 641.678 133.378 629.343C132.645 628.465 131.373 629.688 132.106 630.566H132.091Z" fill="#E8E8E8"/>
<path d="M148.368 629.918C149.16 631.732 175.056 654.618 172.468 647.378C163.971 642.182 156.311 635.877 149.639 628.681C148.846 627.803 147.575 629.026 148.368 629.904V629.918Z" fill="#E8E8E8"/>
<path d="M64.3382 533.655C68.2876 541.658 70.9504 550.064 72.4763 558.829C72.7456 560.11 75.214 558.959 75.7525 559.995C72.7007 563.133 74.6006 567.811 79.268 567.408C79.7467 567.35 79.6869 567.408 79.1483 567.638C77.024 569.222 77.0839 571.179 78.3555 573.367C84.3993 592.553 95.1403 609.912 111.806 622.376C112.718 623.082 113.99 621.858 113.077 621.153C96.3671 608.803 86.0299 591.315 79.7468 572.258C77.6225 569.653 83.1127 568.387 81.0183 566.184C80.2254 565.422 79.0137 565.839 77.9815 565.537C71.8779 563.738 83.4418 557.606 73.1196 557.707C73.4188 557.937 73.733 558.11 73.9723 558.354C74.4061 556.757 65.5499 526.156 64.3232 533.641L64.3382 533.655Z" fill="#E8E8E8"/>
<path d="M65.0117 533.252C106.331 544.421 132.615 583.629 140.783 622.448C141.022 623.556 142.787 623.096 142.548 621.988C135.637 584.896 102.441 535.584 65.0266 533.267L65.0117 533.252Z" fill="#E8E8E8"/>
<path d="M72.1774 540.492C96.3374 563.104 114.977 590.84 126.451 621.398C126.87 622.448 128.636 621.988 128.217 620.937C116.623 590.149 97.8633 562.111 73.4639 539.283C72.6711 538.463 71.3397 539.686 72.1924 540.507L72.1774 540.492Z" fill="#E8E8E8"/>
<path d="M82.9185 577.238C92.6573 578.577 103.832 581.038 110.295 588.681C110.968 589.617 112.539 588.739 111.866 587.803C109.771 581.125 77.3535 571.553 82.9036 577.224L82.9185 577.238Z" fill="#E8E8E8"/>
<path d="M91.9687 545.227C91.3404 546.782 94.4222 570.574 97.0701 564.443C94.886 558.254 93.7939 551.82 93.7939 545.227C93.7939 544.119 91.9687 544.119 91.9687 545.227Z" fill="#E8E8E8"/>
<path d="M125.3 576.994C128.277 566.299 138.165 559.938 146.602 553.389C155.593 546.437 164.27 539.024 172.528 531.309C172.049 531.021 171.495 530.719 171.017 530.431C164.599 544.897 170.942 560.988 167.247 575.698C167.546 575.468 167.86 575.295 168.099 575.051C155.608 575.799 163.926 575.914 164.464 581.888C164.524 591.042 158.361 589.199 161.008 596.727C161.068 599.246 159.183 601.347 157.852 603.334C154.112 608.861 151.315 614.935 149.474 621.268C149.175 622.376 150.926 622.851 151.24 621.728C152.751 616.532 154.95 611.509 157.792 606.831C159.737 603.679 163.372 599.994 162.953 596.022C162.774 594.439 161.921 593.978 162.654 592.165C165.571 588.825 166.454 584.003 166.424 579.786C166.065 577.627 164.359 577.454 163.088 575.813C162.849 576.274 162.534 576.692 162.295 577.152C164.344 576.677 167.501 577.555 168.967 576.101C171.271 569.322 169.88 561.434 169.64 554.425C169.401 546.422 169.7 538.362 172.677 530.762C173.036 529.884 171.765 529.366 171.166 529.884C162.37 538.117 153.14 546.005 143.476 553.36C135.218 559.664 126.302 566.098 123.445 576.375C123.265 577.598 125.015 578.073 125.329 576.965L125.3 576.994Z" fill="#E8E8E8"/>
<path d="M165.795 538.923C154.89 558.225 140.813 576.663 135.741 598.382C135.502 599.491 137.252 599.966 137.506 598.843C142.548 577.238 156.625 559.031 167.381 539.787C167.935 538.851 166.349 537.916 165.81 538.909L165.795 538.923Z" fill="#E8E8E8"/>
<path d="M147.889 555.159C148.682 558.484 149.041 561.823 148.921 565.205C148.861 566.314 150.686 566.314 150.746 565.205C150.985 563.896 150.282 550.121 147.889 555.159Z" fill="#E8E8E8"/>
<path d="M157.777 544.004C158.45 546.509 158.57 548.97 158.256 551.474C161.712 556.498 160.186 538.132 157.777 544.004Z" fill="#E8E8E8"/>
<path d="M158.196 555.62C161.772 553.576 165.482 551.762 169.311 550.251C170.403 549.848 169.925 548.15 168.833 548.553C167.666 549.056 152.167 555.188 158.211 555.62H158.196Z" fill="#E8E8E8"/>
<path d="M142.533 584.939C147.56 581.24 152.062 576.706 157.777 573.957C158.869 573.554 158.391 571.856 157.298 572.259C151.344 575.022 146.482 579.844 141.277 583.702C140.364 584.407 141.635 585.63 142.548 584.925L142.533 584.939Z" fill="#E8E8E8"/>
<path d="M72.2372 552.18C73.6434 551.964 89.8149 555.058 84.9829 551.59C83.5917 551.805 67.3902 548.711 72.2372 552.18Z" fill="#E8E8E8"/>
<path d="M183.643 668.709C281.136 668.709 378.583 668.709 476.076 668.709C387.694 665.412 270.604 665.297 183.643 668.709Z" fill="#E8E8E8"/>
<path d="M384.582 685.65C432.408 683.822 491.335 689.104 533.746 683.908C485.934 685.722 426.978 680.454 384.582 685.65Z" fill="#E8E8E8"/>
<path d="M590.219 670.522C652.765 670.522 715.327 670.522 777.874 670.522C722.478 665.355 649.788 670.58 590.219 668.766C589.067 668.766 589.067 670.522 590.219 670.522Z" fill="#E8E8E8"/>
<path d="M-15.0081 700.417C33.1175 698.589 92.4181 703.872 135.128 698.676C87.0176 700.489 27.7021 695.221 -15.0081 700.417Z" fill="#E8E8E8"/>
<path d="M85.8951 717.949H208.46C209.612 717.949 209.612 716.193 208.46 716.193H85.8951C84.6834 716.193 84.6834 717.949 85.8951 717.949Z" fill="#E8E8E8"/>
<path d="M271.147 701.243C299.611 681.995 313.889 672.326 317.594 671.152C326.63 668.26 355.908 658.953 381.481 674.586C399.824 685.791 416.722 710.098 409.674 726.364C404.614 737.93 389.162 741.545 375.155 744.888C354.462 749.768 336.751 747.057 326.811 744.708C322.925 748.503 316.69 753.563 307.925 756.907C293.376 762.509 276.569 761.515 275.755 758.172C275.394 756.455 279.008 753.112 296.539 746.244C294.461 743.985 291.388 741.274 287.051 739.376C274.219 733.503 261.387 739.196 258.948 740.37C271.508 747.69 274.219 751.485 273.587 753.563C271.96 758.804 246.387 760.521 239.519 748.503C238.797 747.328 236.809 743.262 238.435 735.581C241.688 721.484 253.435 713.261 271.147 701.243Z" fill="#161616"/>
<path d="M395.126 721.304C398.017 715.34 411.03 716.785 416.09 717.328C422.596 718.05 428.38 718.683 433.621 723.292C437.597 726.725 443.38 734.226 441.302 740.28C439.404 746.063 432.265 745.611 418.44 752.389C416.09 753.563 393.499 764.678 395.035 771.998C395.668 774.98 399.734 774.889 412.656 780.401C423.861 785.1 430.458 787.992 435.97 794.317C438.681 797.48 444.103 803.715 442.657 810.041C439.946 821.697 415.729 823.685 415.096 821.878C414.554 820.342 431.542 816.095 431.723 808.143C431.904 802.089 422.416 797.209 416.452 794.046C398.921 784.92 387.083 788.173 382.475 779.407C379.854 774.437 381.3 769.106 381.571 768.112C382.927 763.232 386.722 759.076 405.247 749.768C422.145 741.274 429.645 739.286 429.554 735.491C429.464 731.966 422.958 729.075 418.982 728.081C407.777 725.099 399.554 732.147 395.758 728.171C394.132 726.364 394.222 723.292 395.126 721.304Z" fill="#161616"/>
<path d="M240.784 677.568C246.477 681.815 252.17 686.062 257.863 690.309C265.996 689.496 274.038 688.773 282.171 687.959C287.231 683.08 292.292 678.11 297.352 673.23C297.713 676.303 298.436 683.261 298.707 686.604C301.87 716.695 302.141 719.316 300.244 722.749C294.009 733.864 272.954 738.382 260.845 730.611C254.972 726.816 252.712 721.123 248.465 710.189C243.315 696.996 241.507 685.429 240.784 677.568Z" fill="#161616"/>
<path d="M263.737 708.833C262.382 711.635 259.4 713.352 256.327 712.809C255.514 712.629 255.153 713.984 255.966 714.074C259.671 714.707 263.376 712.9 264.912 709.466C265.273 708.743 264.189 708.02 263.737 708.833Z" fill="white"/>
<path d="M276.297 707.93C279.279 710.822 283.255 712.087 287.322 711.454C288.225 711.364 287.774 710.008 286.96 710.189C283.346 710.731 279.822 709.556 277.201 707.026C276.569 706.394 275.665 707.297 276.297 707.93Z" fill="white"/>
<path d="M271.508 716.514C271.237 716.514 271.057 716.424 270.785 716.424C270.876 716.334 270.876 716.153 270.966 716.063C271.147 716.243 271.418 716.424 271.599 716.605C271.599 716.424 271.508 716.334 271.508 716.153C271.237 715.34 269.972 715.701 270.243 716.514C270.695 718.502 271.418 721.575 268.978 722.569C268.165 722.93 268.526 724.195 269.34 723.834C272.593 722.478 272.231 718.954 271.599 716.063C271.147 716.153 270.695 716.334 270.334 716.424C270.334 716.605 270.424 716.695 270.424 716.876C270.514 717.147 270.785 717.418 271.057 717.418C273.406 717.237 271.508 713.984 270.424 715.882C269.972 716.514 271.057 717.237 271.508 716.514Z" fill="white"/>
<path d="M270.605 717.147C271.057 718.683 271.147 720.4 272.141 721.756C272.954 722.84 274.219 723.382 275.575 723.111C276.388 722.931 276.027 721.665 275.213 721.846C272.683 722.388 272.322 718.412 271.87 716.786C271.689 715.973 270.424 716.334 270.605 717.147Z" fill="white"/>
<path d="M266.267 718.412C263.647 717.237 260.936 716.695 258.044 716.876C257.141 716.966 257.141 718.322 258.044 718.231C260.665 718.051 263.195 718.502 265.544 719.587C266.358 719.948 267.081 718.773 266.267 718.412Z" fill="white"/>
<path d="M263.918 720.219C261.659 720.4 259.671 721.304 258.134 722.84C257.502 723.472 258.496 724.376 259.128 723.834C260.484 722.569 262.11 721.755 264.008 721.575C264.731 721.484 264.731 720.129 263.918 720.219Z" fill="white"/>
<path d="M276.839 717.78C279.46 716.786 282.081 716.424 284.882 716.695C285.785 716.786 285.785 715.43 284.882 715.34C281.99 715.069 279.189 715.52 276.478 716.514C275.665 716.786 275.936 718.141 276.839 717.78Z" fill="white"/>
<path d="M278.647 720.219C280.635 719.948 282.533 720.129 284.43 720.852C285.244 721.123 285.605 719.858 284.792 719.587C282.804 718.864 280.726 718.683 278.647 718.954C277.744 718.954 277.744 720.4 278.647 720.219Z" fill="white"/>
<path d="M257.321 704.857C258.676 704.044 260.303 704.044 261.658 704.857C262.381 705.309 263.104 704.135 262.381 703.683C260.574 702.689 258.496 702.689 256.688 703.683C255.875 704.135 256.598 705.309 257.321 704.857Z" fill="white"/>
<path d="M276.297 703.05C277.653 702.328 279.189 702.147 280.815 702.328C281.629 702.418 282.081 701.153 281.177 701.062C279.279 700.791 277.382 701.062 275.665 701.966C274.761 702.237 275.484 703.412 276.297 703.05Z" fill="white"/>
<path d="M254.7 674.676C257.502 673.501 260.303 672.326 263.014 671.061C262.472 670.7 262.02 670.338 261.478 669.887C260.393 673.32 258.767 676.393 256.598 679.284C256.056 680.007 256.96 681.092 257.773 680.821C260.845 679.646 263.918 678.562 266.99 677.387C268.165 676.935 267.713 674.947 266.448 675.399C263.375 676.574 260.303 677.658 257.231 678.833C257.592 679.375 257.954 679.827 258.405 680.369C260.755 677.387 262.381 674.134 263.556 670.519C263.827 669.616 262.833 669.073 262.02 669.344C259.219 670.519 256.417 671.694 253.706 672.959C252.441 673.501 253.526 675.218 254.7 674.676Z" fill="#161616"/>
<path d="M259.219 658.23C261.116 657.146 263.014 656.423 265.092 655.971C264.731 655.429 264.369 654.977 263.918 654.435C263.104 656.242 262.11 658.049 260.936 659.676C260.484 660.399 261.116 661.122 261.839 661.212C264.279 661.393 266.538 660.76 268.436 659.314C269.43 658.501 268.436 656.784 267.442 657.597C265.815 658.862 264.008 659.405 261.93 659.224C262.201 659.766 262.472 660.218 262.833 660.76C264.008 659.043 265.002 657.326 265.815 655.519C266.177 654.706 265.544 653.802 264.641 653.983C262.381 654.435 260.213 655.248 258.225 656.423C257.05 657.146 258.044 658.862 259.219 658.23Z" fill="#161616"/>
<path d="M274.129 680.098C271.147 677.116 276.297 675.399 276.84 672.779C277.382 669.706 273.767 666.815 277.834 664.465C279.008 663.833 277.924 662.025 276.84 662.748C275.394 663.561 274.219 664.827 273.858 666.543C273.315 669.435 275.846 671.152 273.677 673.773C272.683 675.038 271.508 675.399 271.147 677.116C270.785 678.833 271.508 680.279 272.683 681.544C273.677 682.447 275.123 681.002 274.129 680.098Z" fill="#161616"/>
<path d="M627.051 159.538V71.6756C627.051 69.6788 623.774 69.6788 623.774 71.6756V159.538C623.774 161.535 627.051 161.535 627.051 159.538Z" fill="#E8E8E8"/>
<path d="M626.505 71.0451H744.805C746.881 71.0451 746.881 67.8921 744.805 67.8921H626.505C624.429 67.8921 624.429 71.0451 626.505 71.0451Z" fill="#E8E8E8"/>
<path d="M743.167 69.6788C742.948 99.4218 742.73 129.165 742.402 158.908C742.402 160.905 745.679 160.905 745.679 158.908C745.898 129.165 746.116 99.4218 746.444 69.6788C746.444 67.6819 743.167 67.6819 743.167 69.6788Z" fill="#E8E8E8"/>
<path d="M627.051 161.115H743.713C745.788 161.115 745.788 157.962 743.713 157.962H627.051C624.976 157.962 624.976 161.115 627.051 161.115Z" fill="#E8E8E8"/>
<path d="M630.23 77.7713V151.761C630.23 153.758 633.507 153.758 633.507 151.761V77.7713C633.507 75.7745 630.23 75.7745 630.23 77.7713Z" fill="#E8E8E8"/>
<path d="M632.622 79.3477H736.067C738.142 79.3477 738.142 76.1947 736.067 76.1947H632.622C630.437 76.1947 630.437 79.3477 632.622 79.3477Z" fill="#E8E8E8"/>
<path d="M734.319 78.5071C734.21 102.68 734.1 126.852 733.991 151.13C733.991 153.127 737.268 153.127 737.268 151.13C737.377 126.958 737.487 102.785 737.596 78.5071C737.596 76.5102 734.319 76.5102 734.319 78.5071Z" fill="#E8E8E8"/>
<path d="M633.277 153.758H735.193C737.268 153.758 737.268 150.605 735.193 150.605H633.277C631.202 150.605 631.202 153.758 633.277 153.758Z" fill="#E8E8E8"/>
<path d="M632.622 132.002C657.768 125.833 683.853 139.832 707.229 147.557C719.124 144.866 670.504 131.95 667.577 130.951C655.889 127.903 643.545 124.961 631.748 128.954C629.782 129.585 630.656 132.633 632.622 132.002Z" fill="#E8E8E8"/>
<path d="M674.131 135.576C694.776 134.42 714.111 126.432 734.537 124.225C736.613 124.015 736.613 120.862 734.537 121.072C714.111 123.279 694.776 131.161 674.131 132.423C671.946 132.633 671.946 135.786 674.131 135.576Z" fill="#E8E8E8"/>
<path d="M713.248 97.1094C708.66 94.587 712.811 86.2842 717.726 88.2811C723.876 91.4236 717.65 99.1273 712.155 96.689C704.465 98.9381 718.808 103.678 722.751 95.5329C724.717 91.8545 723.188 87.0199 719.037 85.3383C710.517 81.8701 703.526 95.5329 711.609 99.842C713.357 100.788 715.105 98.0553 713.248 97.1094Z" fill="#E8E8E8"/>
<path d="M679.811 68.943C680.969 55.0384 687.13 55.1856 688.004 69.2583C688.222 71.2552 691.499 71.2552 691.281 69.2583C691.554 61.3969 685.841 46.7251 678.5 60.1147C677.189 62.8473 676.753 65.8951 676.643 68.8379C676.534 70.9399 679.811 70.9399 679.811 68.943Z" fill="#E8E8E8"/>
<path d="M498.77 474.838C331.026 486.496 163.267 498.083 -4.41654 509.727C-8.9643 392.68 -13.5121 275.647 -18 158.6C150.492 156.412 318.969 154.224 487.46 152.037C491.2 259.613 494.955 367.189 498.77 474.838Z" fill="white" stroke="#161616" stroke-width="3.5"/>
<path d="M124.537 215.584H222.164C223.436 215.584 223.436 213.655 222.164 213.655H124.537C123.265 213.655 123.265 215.584 124.537 215.584Z" fill="#161616"/>
<path d="M161.069 223.5H261.643C262.915 223.5 262.915 221.571 261.643 221.571H161.069C159.737 221.571 159.737 223.5 161.069 223.5Z" fill="#161616"/>
<path d="M2.34504 412.385C3.55679 439.3 4.75357 466.274 5.96531 493.175C6.02515 494.398 8.04471 494.398 7.96992 493.175C6.75817 466.259 5.56139 439.286 4.34965 412.385C4.28981 411.161 2.27025 411.161 2.34504 412.385Z" fill="#161616"/>
<path d="M149.759 396.682C151.06 396.466 163.058 397.689 158.451 394.753C157.149 394.969 145.151 393.745 149.759 396.682Z" fill="#161616"/>
<path d="M166.02 396.681C167.681 396.12 194.818 398.308 188.236 394.753C186.59 395.314 159.438 393.126 166.02 396.681Z" fill="#161616"/>
<path d="M205.02 395.645C206.755 395.026 238.709 397.372 231.588 393.716C229.883 394.335 197.899 391.989 205.02 395.645Z" fill="#161616"/>
<path d="M161.727 410.197C163.911 409.492 201.654 412.083 194.249 408.268C192.185 408.959 154.052 406.411 161.727 410.197Z" fill="#161616"/>
<path d="M177.39 402.928C179.978 402.151 222.957 404.929 215.328 401C212.784 401.777 169.745 398.999 177.39 402.928Z" fill="#161616"/>
<path d="M244.573 471.743H308.481C309.753 471.743 309.753 469.814 308.481 469.814H244.573C243.302 469.814 243.302 471.743 244.573 471.743Z" fill="#161616"/>
<path d="M297.098 476.968C299.297 476.249 338.252 478.868 330.682 475.04C328.513 475.759 289.513 473.14 297.098 476.968Z" fill="#161616"/>
<path d="M326.344 469.109C328.588 468.389 366.81 471.009 359.405 467.18C357.191 467.9 318.924 465.28 326.344 469.109Z" fill="#161616"/>
<path d="M431.99 376.847C433.59 376.344 456.404 378.373 450.39 374.919C448.849 375.408 425.766 373.422 431.99 376.847Z" fill="#161616"/>
<path d="M420.082 382.072C421.772 381.54 446.321 383.641 440.083 380.143C438.467 380.647 413.634 378.603 420.082 382.072Z" fill="#161616"/>
<path d="M429.791 387.283C432.469 386.491 477.094 389.312 469.33 385.354C466.697 386.146 422.012 383.324 429.791 387.283Z" fill="#161616"/>
<path d="M454.743 381.036C456.165 380.69 471.768 382.274 466.651 379.107C465.2 379.453 449.567 377.855 454.743 381.036Z" fill="#161616"/>
<path d="M179.125 300.749C181.01 300.116 214.355 302.52 207.159 298.821C205.304 299.454 171.929 297.05 179.125 300.749Z" fill="#161616"/>
<path d="M199.545 306.291C202.342 305.47 248.822 308.349 240.968 304.362C238.291 305.168 191.511 302.318 199.545 306.291Z" fill="#161616"/>
<path d="M235.867 298.893C237.558 298.317 266.191 300.548 259.414 296.964C257.753 297.54 229.09 295.309 235.867 298.893Z" fill="#161616"/>
<path d="M-3.60864 196.138C-1.69379 258.893 0.116337 321.692 2.07607 384.447C6.32464 329.263 -1.82843 255.712 -1.60403 196.138C-1.60403 194.914 -3.60864 194.914 -3.60864 196.138Z" fill="#161616"/>
<path d="M482.778 355.862C483.78 388.175 484.783 420.431 485.785 452.758C485.845 453.982 487.864 453.982 487.789 452.758C486.787 420.445 485.785 388.189 484.783 355.862C484.783 354.638 482.778 354.638 482.778 355.862Z" fill="#161616"/>
<path d="M344.206 341.051C344.61 344.981 345.014 348.967 345.343 352.897C349.218 351.932 353.032 350.896 356.922 349.932C356.383 346.002 355.92 342.015 355.381 338.086C351.641 339.05 347.961 340.087 344.206 341.051Z" fill="#EC615B"/>
<path d="M341.857 371.119C345.866 370.601 349.816 370.154 353.84 369.636C354.378 374.343 354.842 379.035 355.381 383.742C351.76 383.871 348.155 384.001 344.61 384.13C343.667 379.755 342.799 375.437 341.872 371.119H341.857Z" fill="#EC615B"/>
<path d="M356.517 399.647C357.789 403.705 359.061 407.822 360.392 411.881C364.012 410.269 367.618 408.657 371.163 407.059C370.026 403.446 368.814 399.906 367.677 396.307C363.997 397.473 360.257 398.567 356.502 399.661L356.517 399.647Z" fill="#EC615B"/>
<path d="M92.0137 438.019C92.8814 450.513 93.7491 462.992 94.6167 475.428C117.371 474.017 140.124 472.664 162.863 471.239C163.267 460.041 163.731 448.771 164.135 437.573C140.109 437.76 116.024 437.89 91.9988 438.019H92.0137Z" fill="#5222D0"/>
<path d="M51.9963 207.336C57.1275 207.293 57.1275 212.403 51.9963 212.359C46.8651 212.403 46.8651 207.293 51.9963 207.336Z" fill="#EC615B"/>
<path d="M114.828 278.224C118.822 278.152 118.822 285.248 114.828 285.176C110.833 285.248 110.833 278.152 114.828 278.224Z" fill="#EC615B"/>
<path opacity="0.21" d="M86.5839 198.455C91.5805 211.525 110.34 277.72 116.354 289.105C97.9683 302.952 49.9924 309.155 24.6206 296.129C43.4101 298.778 99.2249 296.417 107.587 285.824C97.6691 273.344 81.2134 202.126 86.5839 198.455Z" fill="#6D6C6C"/>
<path opacity="0.25" d="M149.295 268.307C151.315 298.259 175.579 340.806 191.781 355.286C166.274 377.265 109.367 384.116 89.2764 378.531L87.4663 368.298C116.772 369.68 153.843 362.627 176.058 354.264C159.887 326.471 145.151 298.447 149.295 268.321V268.307Z" fill="#6D6C6C"/>
<path opacity="0.14" d="M362.008 310.926C365 351.213 368.59 389.902 395.667 417.667C369.218 444.007 309.544 452.384 286.94 445.806C286.207 442.654 285.474 439.502 284.726 436.278C309.349 438.538 353.391 434.608 385.36 415.091C360.272 387.887 355.695 330.63 362.008 310.926Z" fill="#6D6C6C"/>
<path d="M13.2509 194.785C6.62372 228.523 13.3107 262.636 20.0127 295.856C20.282 297.079 22.2267 296.561 21.9575 295.338C15.3303 262.506 8.70312 228.71 15.1957 195.289C15.3901 194.123 13.4603 193.547 13.2509 194.771V194.785Z" fill="#161616"/>
<path d="M15.1362 194.526C36.5287 207.466 62.9326 198.499 86.0604 195.433C87.332 195.246 86.7935 193.375 85.5219 193.562C62.8878 196.426 37.0971 205.436 16.1385 192.784C15.0614 192.137 14.0591 193.821 15.1362 194.526Z" fill="#161616"/>
<path d="M84.7137 196.786C86.5837 227.559 91.4007 258.98 107.602 286.011C108.275 287.104 110.011 286.14 109.337 285.046C93.3455 258.26 88.5883 227.17 86.7183 196.786C86.6585 195.562 84.6389 195.562 84.7137 196.786Z" fill="#161616"/>
<path d="M21.6886 296.374C39.9695 301.109 93.5104 297.943 108.874 287.493C109.951 286.788 108.934 285.104 107.872 285.823C93.2112 296 39.9994 299.008 22.2272 294.445C20.9556 294.186 20.417 296.057 21.6886 296.374Z" fill="#161616"/>
<path d="M47.3745 210.244C45.1605 208.459 51.1444 207.091 51.7278 208.963C52.4459 211.74 48.5264 212.014 47.1801 210.244C46.2376 209.337 44.8314 210.69 45.7738 211.597C49.0949 215.512 56.3653 211.956 53.134 207.279C50.1271 203.651 41.4654 208.315 46.447 211.856C47.584 212.431 48.5863 210.762 47.3895 210.244H47.3745Z" fill="#161616"/>
<path d="M74.2118 296.633C69.3948 320.137 74.5409 343.886 79.7619 366.93C80.0312 368.154 81.9759 367.636 81.7066 366.412C76.5605 343.757 71.4742 320.31 76.1566 297.137C76.4258 295.913 74.4811 295.395 74.2118 296.618V296.633Z" fill="#161616"/>
<path d="M101.843 271.977C117.296 269.141 132.959 268.12 148.607 268.695L147.605 267.731C144.463 298.763 158.241 328.313 174.966 354.005C175.639 355.041 177.375 354.063 176.701 353.041C158.75 327.507 148.188 296.633 148.607 266.767C145.436 265.989 93.5701 267.774 101.828 271.977H101.843Z" fill="#161616"/>
<path d="M80.8392 368.283C113.362 371.953 146.348 367.247 176.462 354.897C177.674 354.379 176.597 352.767 175.46 353.228C145.75 365.462 112.958 369.967 80.8392 366.354C79.5676 366.225 79.5676 368.154 80.8392 368.283Z" fill="#161616"/>
<path d="M114.424 279.894C114.723 277.907 118.074 277.173 118.702 279.375C119.361 281.419 116.174 282.11 115.83 280.023C115.636 278.8 113.691 279.318 113.885 280.541C115.89 286.529 124.133 281.347 119.376 276.928C116.473 274.151 109.906 278.627 113.616 281.563C114.618 282.081 116.084 281.621 116.354 280.397C116.548 279.174 114.618 278.656 114.409 279.879L114.424 279.894Z" fill="#161616"/>
<path d="M19.8781 229.804C23.3338 233.014 81.5124 225.947 71.8633 222.075C55.1383 226.652 37.7999 230.25 20.4017 227.933C19.1302 227.746 18.5916 229.603 19.8632 229.804H19.8781Z" fill="#161616"/>
<path d="M23.2288 242.427C25.0689 243.823 57.8308 241.29 50.0666 237.922C41.375 240.556 32.3393 241.405 23.2288 240.498C21.9573 240.369 21.9573 242.298 23.2288 242.427Z" fill="#161616"/>
<path d="M23.2288 258.015C40.8963 260.016 58.6984 258.792 75.8273 254.474C77.0989 254.158 76.5604 252.287 75.2888 252.603C58.2945 256.921 40.7018 258.073 23.2288 256.087C21.9573 255.899 21.9573 257.828 23.2288 258.015Z" fill="#161616"/>
<path d="M89.3362 356.826C92.777 358.568 149.878 353.228 141.262 348.78C124.402 353.616 106.929 355.675 89.3362 354.897C88.0048 354.84 88.0048 356.769 89.3362 356.826Z" fill="#161616"/>
<path d="M92.7471 342.087C94.4376 341.728 122.906 341.713 116.428 338.489C108.53 339.324 100.706 339.9 92.7471 340.159C91.4756 340.216 91.4756 342.159 92.7471 342.087Z" fill="#161616"/>
<path d="M99.1651 315.56C104.386 316.208 109.802 314.912 114.963 314.207C116.414 313.516 138.27 312.336 131.418 309.889C120.707 310.954 109.951 314.178 99.1651 313.617C97.8935 313.43 97.8935 315.359 99.1651 315.546V315.56Z" fill="#161616"/>
<path d="M87.1218 433.889C86.7927 436.738 82.6189 478.954 87.5257 472.65C87.062 459.71 87.5856 446.771 89.1264 433.889C89.2611 432.665 87.2565 432.665 87.1218 433.889Z" fill="#161616"/>
<path d="M87.7955 434.666C111.611 434.666 135.502 434.349 159.318 433.629C160.59 433.572 160.59 431.629 159.318 431.701C135.502 432.406 111.611 432.737 87.7955 432.737C86.5239 432.737 86.5239 434.666 87.7955 434.666Z" fill="#161616"/>
<path d="M159.124 432.737C159.946 434.997 157.837 473.514 161.727 466.274C160.919 464.028 162.998 425.454 159.124 432.737Z" fill="#161616"/>
<path d="M85.3267 471.225C85.4613 475.414 93.016 473.542 95.4993 473.413C116.996 472.002 138.389 470.563 159.871 469.167C163.776 463.51 94.7962 473.989 87.2714 471.225C87.3313 470.002 85.3267 470.002 85.3267 471.225Z" fill="#161616"/>
<path d="M93.2107 443.36C109.262 442.654 125.329 443.23 141.246 445.159C149.684 441.114 83.2026 439.128 93.2107 443.36Z" fill="#161616"/>
<path d="M93.8242 453.147C95.6044 452.398 127.947 452.341 120.797 449.218C119.046 449.952 86.6734 450.024 93.8242 453.147Z" fill="#161616"/>
<path d="M96.8314 462.992C109.742 461.38 123.804 458.098 136.774 460.358C138.046 460.545 138.584 458.746 137.313 458.487C135.472 456.443 89.2319 459.552 96.8314 462.992Z" fill="#161616"/>
<path d="M270.873 324.326C260.237 360.77 261.568 399.776 274.613 435.515C275.017 436.681 276.962 436.163 276.558 434.997C263.647 399.589 262.301 360.957 272.818 324.844C273.147 323.621 271.217 323.103 270.873 324.326Z" fill="#161616"/>
<path d="M272.204 324.959C301.974 324.829 331.624 321.102 360.467 313.819C361.738 313.502 361.2 311.631 359.928 311.947C331.295 319.158 301.854 322.886 272.204 323.016C270.873 323.016 270.873 324.945 272.204 324.945V324.959Z" fill="#161616"/>
<path d="M359.928 312.667C358.492 347.672 360.228 387.383 384.956 415.292C385.764 416.257 387.23 414.904 386.362 413.939C361.963 386.347 360.587 347.254 361.873 312.667C362.008 311.444 360.003 311.444 359.928 312.667Z" fill="#161616"/>
<path d="M274.882 436.537C312.76 439.113 352.299 434.997 385.494 416.199C386.631 415.551 385.629 413.881 384.492 414.529C351.506 433.197 312.356 437.127 274.897 434.622C273.625 434.493 273.625 436.422 274.897 436.551L274.882 436.537Z" fill="#161616"/>
<path d="M315.169 330.76C314.032 328.888 316.306 326.571 318.25 328.054C320.33 329.666 318.116 332.242 315.902 331.407C314.69 330.961 314.166 332.818 315.363 333.278C319.567 334.948 323.352 329.148 319.447 326.514C315.827 323.75 311.279 328.054 313.418 331.724C314.092 332.818 315.827 331.853 315.154 330.76H315.169Z" fill="#161616"/>
<path d="M272.878 352.969C292.879 352.652 312.895 351.299 332.837 348.982C334.108 348.852 334.108 346.923 332.837 347.053C312.97 349.442 292.954 350.723 272.878 351.04C271.606 351.097 271.606 353.041 272.878 352.969Z" fill="#161616"/>
<path d="M339.987 340.029C340.466 341.238 341.707 353.847 343.727 348.464C343.188 347.211 342.126 334.761 339.987 340.029Z" fill="#161616"/>
<path d="M341.319 339.77C342.62 339.281 357.7 338.619 351.895 336.287C350.609 336.762 335.514 337.438 341.319 339.77Z" fill="#161616"/>
<path d="M351.835 337.582C352.314 338.892 353.152 350.45 355.321 345.312C354.812 343.987 354.049 332.588 351.835 337.582Z" fill="#161616"/>
<path d="M343.473 350.45C344.909 350.191 360.048 347.039 354.378 345.369C350.623 346.722 346.824 347.816 342.934 348.593C341.662 348.852 342.201 350.723 343.473 350.464V350.45Z" fill="#161616"/>
<path d="M343.802 341.958C349.846 352.695 348.484 339.756 352.628 336.042C353.361 335.006 351.626 334.041 350.893 335.078C348.679 338.043 347.272 341.382 346.749 344.995C347.287 344.865 347.886 344.736 348.424 344.549C347.153 343.584 346.21 342.418 345.552 340.95C345.014 339.856 343.278 340.821 343.817 341.987L343.802 341.958Z" fill="#161616"/>
<path d="M344.535 369.579C343.458 374.214 343.936 378.719 345.866 383.037C346.405 384.203 348.08 383.166 347.602 382.072C345.866 378.272 345.522 374.156 346.465 370.097C346.734 368.874 344.789 368.355 344.52 369.579H344.535Z" fill="#161616"/>
<path d="M345.881 370.226C349.891 369.579 353.915 369.003 357.924 368.355C357.52 367.966 357.116 367.578 356.712 367.189C356.039 371.306 356.518 375.235 358.178 379.093C358.642 380.258 360.587 379.74 360.123 378.574C357.191 374.026 359.854 365.736 357.445 366.542C356.144 367.045 339.912 368.024 345.866 370.212L345.881 370.226Z" fill="#161616"/>
<path d="M346.749 383.094C348.335 383.397 364.85 380.935 359.001 378.848C355.052 380.259 350.968 381.036 346.749 381.166C345.478 381.166 345.478 383.094 346.749 383.094Z" fill="#161616"/>
<path d="M347.347 374.141C347.766 375.696 350.893 379.755 352.104 377.034C352.508 373.623 353.436 370.341 354.917 367.189C353.481 361.101 349.965 375.566 350.1 377.034C350.638 376.775 351.102 376.459 351.641 376.2C350.504 375.552 349.831 374.789 349.367 373.566C348.903 372.472 346.958 372.99 347.362 374.141H347.347Z" fill="#161616"/>
<path d="M348.693 399.445C348.379 401 352.658 417.005 354.109 410.715C352.299 407.174 351.162 403.374 350.758 399.445C350.563 398.222 348.544 398.222 348.678 399.445H348.693Z" fill="#161616"/>
<path d="M349.621 399.258C354.767 399.704 359.584 398.812 364.207 396.624C363.743 396.437 363.204 396.235 362.741 396.048C363.608 399.978 365.418 403.389 368.231 406.412C369.098 407.318 370.505 405.965 369.637 405.059C367.094 402.295 365.493 399.201 364.685 395.588C364.551 394.94 363.743 394.753 363.219 395.012C358.941 397.013 354.393 397.776 349.636 397.401C348.364 397.272 348.364 399.201 349.636 399.272L349.621 399.258Z" fill="#161616"/>
<path d="M354.169 412.385C355.516 411.622 375.651 405.534 368.561 404.656C363.669 406.786 358.657 408.714 353.646 410.514C352.434 410.96 352.972 412.831 354.184 412.385H354.169Z" fill="#161616"/>
<path d="M353.107 402.669C363.414 413.522 359.076 397.876 365.359 393.213C366.167 392.248 364.76 390.895 363.953 391.86C361.155 394.926 359.42 398.754 358.806 402.799C358.477 405.634 355.575 402.079 354.528 401.316C353.585 400.481 352.179 401.834 353.122 402.669H353.107Z" fill="#161616"/>
<path d="M274.688 384.447C293.418 384.26 312.087 382.777 330.563 379.942C331.834 379.755 331.296 377.884 330.024 378.071C311.684 380.834 293.223 382.317 274.688 382.446C273.416 382.504 273.416 384.447 274.688 384.447Z" fill="#161616"/>
<path d="M272.533 358.309C275.076 358.194 315.692 359.316 308.736 355.344C296.693 356.308 284.576 356.625 272.533 356.38C271.262 356.322 271.262 358.251 272.533 358.309Z" fill="#161616"/>
<path d="M275.421 388.247C278.263 388.477 320.016 389.111 313.433 384.893C300.792 386.376 288.077 386.894 275.421 386.304C274.149 386.246 274.149 388.175 275.421 388.233V388.247Z" fill="#161616"/>
<path d="M317.712 385.929C319.223 386.289 333.3 384.807 327.81 382.576C324.534 383.612 321.183 384.058 317.712 383.986C316.44 383.986 316.44 385.915 317.712 385.915V385.929Z" fill="#161616"/>
<path d="M282.243 412.457C285.728 411.795 334.811 410.039 327.81 406.282C312.686 408.211 297.502 409.636 282.243 410.528C280.911 410.586 280.911 412.529 282.243 412.457Z" fill="#161616"/>
<path d="M283.978 416.962C285.504 416.53 304.562 418.372 299.027 415.033C297.516 415.465 278.443 413.623 283.978 416.962Z" fill="#161616"/>
<path d="M288.331 421.28C301.974 419.61 317.936 420.92 330.278 414.587C331.355 413.882 330.338 412.198 329.276 412.917C324.713 418.905 279.924 417.681 288.331 421.28Z" fill="#161616"/>
<path d="M364.745 369.262C376.923 368.686 389.04 367.132 401.008 364.685C400.604 364.498 400.2 364.239 399.796 364.037C399.527 367.823 424.54 416.487 426.095 407.75C414.591 394.638 408.204 377.25 400.529 362.943C388.756 365.39 376.833 366.873 364.79 367.449C363.384 367.391 363.384 369.32 364.73 369.248L364.745 369.262Z" fill="#161616"/>
<path d="M366.825 423.597C368.71 425.137 370.745 432.061 372.51 431.845C387.35 427.109 401.786 421.539 415.863 415.047C419.05 413.104 423.837 412.37 425.961 409.376C426.245 408.34 424.779 407.678 423.957 408.283C421.982 409.981 426.036 411.406 425.423 408.858C425.288 409.247 425.093 409.564 424.959 409.952H424.495C424.36 409.564 424.166 409.247 424.031 408.858C407.89 417.581 389.624 424.187 371.971 430.045C372.375 430.175 372.704 430.362 373.108 430.492C372.749 429.254 366.99 418.272 366.825 423.597Z" fill="#161616"/>
<path d="M378.464 374.271C378.329 373.436 379.93 372.659 380.543 373.235C381.351 374.012 380.005 375.422 379.077 375.106C377.865 374.659 377.342 376.516 378.539 376.977C381.411 378.013 384.223 374.012 382.024 371.896C379.96 369.967 375.921 372.04 376.609 374.789C376.743 376.012 378.688 375.437 378.479 374.271H378.464Z" fill="#161616"/>
<path d="M81.9763 322.771C97.3549 323.88 112.195 319.13 127.409 318.784C128.681 318.856 128.681 316.913 127.409 316.856C112.15 317.23 97.3399 321.965 81.9015 320.843C80.7047 320.843 80.7047 322.771 81.9613 322.771H81.9763Z" fill="#161616"/>
<path d="M83.0379 301.469C85.1323 302.649 124.476 300.404 116.293 296.705C105.388 299.411 94.2727 300.375 83.0379 299.54C81.7663 299.483 81.7663 301.412 83.0379 301.469Z" fill="#161616"/>
<path d="M382.682 294.575H443.913C445.184 294.575 445.184 292.646 443.913 292.646H382.682C381.411 292.646 381.411 294.575 382.682 294.575Z" fill="#161616"/>
<path d="M363.743 297.669C365.344 297.151 389.414 299.224 383.221 295.741C381.62 296.244 357.46 294.186 363.743 297.669Z" fill="#161616"/>
<path d="M367.483 302.879H432.992C434.263 302.879 434.263 300.951 432.992 300.951H367.483C366.211 300.951 366.211 302.879 367.483 302.879Z" fill="#161616"/>
<path d="M448.251 298.187C449.702 297.828 465.859 299.469 460.698 296.259C459.291 296.604 442.896 295.007 448.251 298.187Z" fill="#161616"/>
<path d="M374.843 176.318C381.006 176.246 381.006 183.99 374.843 183.918C368.68 183.99 368.68 176.246 374.843 176.318Z" fill="#5222D0"/>
<path opacity="0.18" d="M413.26 166.531C422.266 200.931 418.362 234.036 439.619 263.356C414.293 287.205 359.764 291.207 340.99 284.859C341.124 282.283 341.259 279.706 341.394 277.202C355.441 283.147 401.337 276.986 429.581 264.521C410.044 231.287 408.847 196.916 413.26 166.531Z" fill="#6D6C6C"/>
<path d="M335.634 171.223C328.334 205.667 327.601 241.074 333.42 275.777C333.614 277 335.559 276.482 335.365 275.259C329.605 240.945 330.413 205.796 337.579 171.741C337.848 170.518 335.903 170 335.634 171.223Z" fill="#161616"/>
<path d="M337.908 171.669C362.202 166.329 387.29 165.236 412.048 168.445C413.32 168.632 413.859 166.776 412.587 166.574C387.499 163.292 362.068 164.386 337.384 169.798C336.172 170.115 336.711 171.986 337.923 171.669H337.908Z" fill="#161616"/>
<path d="M411.45 166.718C410.717 199.88 411.181 234.899 428.654 264.579C429.327 265.673 431.002 264.708 430.389 263.614C413.125 234.252 412.722 199.564 413.455 166.718C413.514 165.494 411.51 165.494 411.45 166.718Z" fill="#161616"/>
<path d="M334.975 276.813C366.585 283.146 400.215 276.943 429.85 265.356C431.062 264.91 429.985 263.226 428.848 263.687C399.781 275.014 366.585 281.103 335.574 274.885C334.242 274.626 333.764 276.497 334.975 276.813Z" fill="#161616"/>
<path d="M375.921 173.742C370.401 175.656 374.215 184.206 379.406 180.694C381.486 179.283 382.144 176.448 380.14 174.649C378.404 173.109 375.382 173.037 373.782 174.706C372.914 175.613 374.32 176.966 375.188 176.059C377.192 174.001 381.142 176.894 378.404 178.952C375.771 181.068 373.797 176.664 376.459 175.541C377.656 175.153 377.133 173.281 375.921 173.742Z" fill="#161616"/>
<path d="M336.636 201.161C354.902 201.607 373.108 201.291 391.299 200.125C392.571 200.067 392.571 198.124 391.299 198.196C373.093 199.362 354.827 199.736 336.636 199.232C335.305 199.232 335.305 201.161 336.636 201.161Z" fill="#161616"/>
<path d="M338.446 210.949C340.122 210.474 365.224 213.54 358.851 209.797C357.206 210.258 331.969 207.206 338.446 210.949Z" fill="#161616"/>
<path d="M336.576 224.594C340.151 225.486 395.667 226.134 387.559 220.794C370.759 224.335 353.57 223.557 336.576 222.665C335.304 222.607 335.304 224.536 336.576 224.594Z" fill="#161616"/>
<path d="M340.526 247.264C339.389 254.345 338.446 262.002 343.069 268.192C343.802 269.228 345.537 268.249 344.804 267.227C340.526 261.499 341.453 254.345 342.455 247.782C342.65 246.558 340.72 246.04 340.511 247.264H340.526Z" fill="#161616"/>
<path d="M341.124 247.191C357.056 247.767 372.973 246.285 388.501 242.744C388.097 242.557 387.694 242.298 387.29 242.096C386.931 243.91 395.757 266.767 396.864 259.613C393.184 254.072 390.641 248.026 389.234 241.592C389.1 241.074 388.501 240.815 388.023 240.945C372.704 244.428 356.981 245.896 341.184 245.32C339.852 245.191 339.852 247.119 341.124 247.191Z" fill="#161616"/>
<path d="M344.744 268.12C348.469 268.753 403.207 262.909 395.129 258.908C378.673 263.283 361.798 265.73 344.744 266.176C343.413 266.234 343.413 268.177 344.744 268.105V268.12Z" fill="#161616"/>
<path d="M580.674 717.799V739.562C438.512 792.457 573.658 765.772 612.793 757.841C610.055 742.973 607.243 728.104 604.49 713.222C596.532 714.762 588.558 716.316 580.674 717.799Z" fill="#161616"/>
<path d="M604.685 409.88C592.927 451.031 581.527 475.759 572.237 523.056C556.649 610.481 570.098 709.825 571.37 719.152C581.258 724.549 604.416 724.477 614.858 718.374C591.251 629.265 715.821 463.265 669.401 393.457C653.2 382.389 615.262 390.492 604.685 409.88Z" fill="#EC615B"/>
<path opacity="0.2" d="M641.695 430.42C620.782 520.364 602.875 631.107 594.258 723.34C601.02 721.987 607.707 720.634 614.469 719.281C601.259 633.122 677.18 508.547 682.117 425.526C668.593 427.066 655.144 428.75 641.695 430.42Z" fill="#6D6C6C"/>
<path opacity="0.19" d="M663.776 512.246C608.41 581.32 606.345 649.588 600.81 722.505C605.223 721.469 609.577 720.375 613.99 719.353C609.442 644.479 634.41 582.054 663.776 512.246Z" fill="#6D6C6C"/>
<path d="M725.201 710.4C728.941 719.353 732.755 728.291 736.51 737.316C658.091 785.476 689.567 778.956 773.386 747.032C767.836 729.644 762.271 712.329 756.721 694.942C746.219 700.095 735.717 705.248 725.201 710.386V710.4Z" fill="#161616"/>
<path d="M699.38 410.658C715.776 425.08 715.238 445.288 717.317 478.767C716.524 493.247 732.591 642.708 765.891 700.296C757.544 712.545 733.862 720.001 719.86 715.107C659.153 638.16 557.711 336.056 699.38 410.658Z" fill="#EC615B"/>
<path opacity="0.15" d="M652.93 420.503C679.035 517.673 713.906 622.96 749.077 712.401C754.014 710.199 761.718 704.614 765.129 700.555C746.414 656.18 735.314 627.221 725.051 555.642C718.828 505.812 715.687 480.897 715.956 465.194C717.377 450.297 714.879 414.155 690.33 406.095C677.823 410.917 665.377 415.753 652.93 420.517V420.503Z" fill="#6D6C6C"/>
<path opacity="0.22" d="M716.764 481.919C706.441 539.047 726.099 659.361 753.834 710.659C757.649 707.637 761.463 704.614 765.278 701.52C732.86 625.81 723.825 564.811 716.764 481.919Z" fill="#6D6C6C"/>
<path d="M403.491 175.469C396.64 178.535 385.988 189.143 392.451 198.067C392.451 200.499 414.606 200.039 414.935 197.491C422.056 188.193 410.791 176.074 403.491 175.469Z" fill="white" stroke="#161616" stroke-width="2"/>
<path d="M443.898 191.633C463.54 211.251 545.026 239.549 569.485 242.499C591.895 245.133 603.877 242.37 608.021 249.379C613.437 258.462 600.721 275.446 587.616 289.681C526.535 278.944 461.071 236.137 431.571 204.76C417.643 209.481 382.233 192.31 418.451 190.467C412.303 188.078 390.611 177.11 388.681 168.776C389.893 166.517 400.32 169.611 410.163 172.504C422.326 174.937 438.377 184.005 443.883 191.619L443.898 191.633Z" fill="white" stroke="#161616" stroke-width="2"/>
<path d="M397.597 176.189C399.976 179.773 401.187 184.019 405.69 185.775C407.231 186.207 426.619 197.347 423.627 192.151C420.755 189.776 417.673 187.646 414.457 185.718C413.38 185.07 412.318 186.754 413.455 187.387C416.536 189.258 419.483 191.245 422.221 193.504C422.625 192.986 423.029 192.468 423.433 191.964C416.327 187.891 406.558 186.207 401.681 179.413C400.814 177.744 400.35 176.131 399.003 174.707C398.136 173.929 396.729 175.282 397.597 176.189Z" fill="white"/>
<path d="M402.818 182.939C405.9 184.22 408.847 185.904 411.51 187.891C412.512 188.668 413.918 187.315 412.916 186.538C411.958 185.559 400.095 177.959 402.818 182.925V182.939Z" fill="white"/>
<path d="M394.919 175.023C395.174 176.693 407.904 189.517 405.765 183.069C402.085 180.694 399.003 177.657 396.67 173.987C395.997 173.022 394.261 173.987 394.934 175.023H394.919Z" fill="white"/>
<path d="M397.941 180.305C399.093 183.328 409.64 188.855 406.169 191.633C405.631 191.95 406.169 192.799 406.708 192.468C409.909 189.863 405.765 186.408 403.491 184.681C402.459 184.379 397.627 177.556 397.941 180.305Z" fill="#161616"/>
<path d="M396.535 186.998C398.54 189.632 402.354 193.375 406.109 192.281C406.708 192.094 406.438 191.187 405.84 191.374C401.397 193.173 396.236 183.861 396.535 186.998Z" fill="#161616"/>
<path d="M393.588 191.503C394.62 194.555 405.466 198.095 402.758 195.303C397.343 195.634 393.214 188.668 393.588 191.503Z" fill="#161616"/>
<path d="M391.449 197.304C396.326 202.989 406.02 196.57 402.22 196.599C396.49 202.399 390.641 194.181 391.449 197.304Z" fill="#161616"/>
<path d="M392.107 174.893C399.527 179.6 404.883 187.516 414.187 189.056C414.786 189.186 415.13 188.222 414.457 188.15C405.286 186.667 399.931 178.751 392.645 174.116C392.047 173.67 391.568 174.505 392.107 174.893Z" fill="#161616"/>
<path opacity="0.2" d="M391.314 195.951C388.906 192.799 390.91 186.034 396.73 179.657C403.282 183.328 409.775 187.056 416.342 190.726C414.951 190.769 399.752 190.827 404.838 196.397C409.386 199.218 423.672 201.535 430.599 199.232C455.477 229.775 537.755 266.637 580.884 264.507C580.286 272.106 579.673 279.634 579.074 287.234C539.82 279.577 466.696 243.737 430.868 204.961C414.622 207.624 413.933 201.953 402.699 199.29C398.6 199.218 394.77 199.751 391.329 195.936L391.314 195.951Z" fill="#6D6C6C"/>
<path opacity="0.14" d="M477.497 241.406C505.098 257.166 553.986 268.364 580.136 268.062C579.867 274.625 579.672 281.261 579.403 287.824C551.518 282.671 503.722 262.262 477.497 241.406Z" fill="#6D6C6C"/>
<path d="M583.278 259.742C566.149 302.073 604.042 376.343 593.645 418.43C625.255 438.595 679.903 429.57 699.769 413.536C700.772 393.328 701.774 373.047 702.851 352.825C698.962 311.084 654.546 263.916 692.678 242.672C677.345 227.645 609.652 208.286 583.278 259.728V259.742Z" fill="white" stroke="#161616" stroke-width="2"/>
<path opacity="0.19" d="M620.423 228.969C650.641 272.337 659.857 347.139 627.918 428.419C652.481 432.809 669.7 427.843 700.383 413.551C700.712 391.989 701.056 370.486 701.385 348.91C695.416 309.573 653.529 261.686 693.292 242.24C679.215 230.884 639.87 222.838 620.423 228.984V228.969Z" fill="#6D6C6C"/>
<path opacity="0.11" d="M629.578 227.487C690 289.911 664.03 396.019 638.15 428.289C656.715 429.038 686.964 420.848 700.308 413.032C700.637 392.939 700.981 372.86 701.31 352.839C695.625 334.228 690.27 316.596 682.969 292.646C675.474 271.214 673.23 250.804 693.68 242.24C672.333 237.289 650.925 232.395 629.578 227.501V227.487Z" fill="#6D6C6C"/>
<path d="M624.626 359.014C624.432 345.239 624.297 331.522 624.088 317.748C658.421 316.078 692.738 314.394 727.131 312.725C728.342 325.477 729.539 338.215 730.811 350.968C695.416 353.674 660.021 356.308 624.626 359.014Z" fill="white" stroke="#161616" stroke-width="2"/>
<path d="M614.2 354.509V339.439C658.301 336.287 702.388 333.063 746.489 329.911C746.818 336.085 747.162 342.332 747.566 348.521C703.135 350.45 658.645 352.508 614.215 354.509H614.2Z" fill="white" stroke="#161616" stroke-width="2"/>
<path d="M617.88 331.853C618.418 339.252 618.957 346.592 619.42 354.005C660.231 350.853 700.981 347.629 741.806 344.476C742.135 337.784 742.479 331.091 742.883 324.326C701.191 326.83 659.513 329.349 617.895 331.853H617.88Z" fill="white" stroke="#161616" stroke-width="2"/>
<path d="M607.902 348.464C609.113 377.826 610.31 407.174 611.582 436.537C657.089 431.643 702.582 426.821 748.089 421.928C749.496 393.083 750.902 364.239 752.308 335.409C704.138 339.784 656.027 344.102 607.917 348.478L607.902 348.464Z" fill="white" stroke="#161616" stroke-width="2"/>
<path d="M615.665 359.921C636.34 357.287 657.014 355.416 677.823 354.25C678.766 354.192 678.766 352.767 677.823 352.767C657.014 353.933 636.265 355.79 615.665 358.438C614.723 358.568 614.723 360.05 615.665 359.921Z" fill="#161616"/>
<path d="M638.749 363.85C654.606 361.922 670.463 359.921 686.395 357.992C687.338 357.863 687.338 356.452 686.395 356.51C670.538 358.438 654.681 360.439 638.749 362.368C637.806 362.555 637.806 363.98 638.749 363.85Z" fill="#161616"/>
<path d="M714.969 405.044C714.969 406.282 713.847 421.136 716.644 417.279C716.24 413.22 716.18 409.103 716.509 405.044C716.569 404.137 715.043 404.137 714.969 405.044Z" fill="#161616"/>
<path d="M715.627 405.174C723.929 405.361 732.157 404.915 740.385 403.893C740.116 403.634 739.846 403.374 739.652 403.187C739.816 404.526 738.784 417.912 741.462 414.256C740.669 411.996 742.075 402.842 740.46 402.468C732.232 403.504 724.004 403.878 715.701 403.749C714.624 403.691 714.624 405.102 715.641 405.159L715.627 405.174Z" fill="#161616"/>
<path d="M716.24 418.444C718.05 418.775 745.77 417.293 740.19 414.587C732.292 416.257 724.333 417.091 716.24 416.976C715.297 416.976 715.297 418.387 716.24 418.459V418.444Z" fill="#161616"/>
<path d="M719.382 409.679C720.743 409.88 739.024 410.111 734.177 407.549C729.285 408.326 724.333 408.513 719.382 408.196C718.439 408.139 718.439 409.607 719.382 409.679Z" fill="#161616"/>
<path d="M722.598 413.738C724.049 414.069 742.479 411.521 737.587 409.492C732.77 411.233 727.744 412.126 722.598 412.327C721.655 412.27 721.595 413.738 722.598 413.738Z" fill="#161616"/>
<path opacity="0.2" d="M629.518 433.183C630.73 406.008 631.927 378.848 633.064 351.616C672.139 348.593 711.288 345.628 750.363 342.605C749.496 368.355 748.553 394.105 747.686 419.855C708.282 424.302 668.922 428.736 629.518 433.183Z" fill="#6D6C6C"/>
<path opacity="0.2" d="M735.643 325.031C738.784 349.557 720.967 390.881 708.476 402.741C713.966 409.765 719.456 416.775 725.006 423.799C708.207 425.67 691.422 427.527 674.622 429.398C675.46 396.192 685.632 362.08 679.978 329.421C698.513 327.881 717.108 326.456 735.643 325.045V325.031Z" fill="#6D6C6C"/>
<path d="M689.073 240.945C703.06 239.146 719.726 270.048 726.338 292.257C739.009 336.416 724.333 374.213 704.452 399.186C712.321 418.128 694.324 441.848 680.292 442.712C679.888 442.265 680.696 440.394 687.054 433.37C670.837 449.448 641.636 443.82 672.872 413.795C632.6 423.813 681.01 392.853 688.924 389.658C728.118 330.126 642.982 264.521 689.058 240.945H689.073Z" fill="white" stroke="#161616" stroke-width="2"/>
<path d="M659.961 437.3C662.071 437.127 685.647 419.279 677.898 420.373C672.617 426.548 666.259 431.701 658.959 435.702C657.822 436.22 658.824 437.89 659.961 437.314V437.3Z" fill="#161616"/>
<path d="M666.514 441.618C668.698 441.891 692.125 423.453 683.508 425.583C678.691 431.629 672.527 436.465 665.511 439.934C664.374 440.51 665.377 442.193 666.514 441.603V441.618Z" fill="#161616"/>
<path opacity="0.17" d="M683.448 244.039C681.818 289.753 759.728 336.877 682.446 422.431C675.086 429.513 661.233 438.206 662.908 441.229C668.354 444.856 684.062 437.659 687.338 434.147C672.931 448.57 686.739 443.921 697.57 432.794C707.877 421.208 706.396 405.116 705.394 398.538C737.019 362.425 736.136 301.527 717.108 269.458C711.378 257.368 699.979 235.346 683.448 244.025V244.039Z" fill="#6D6C6C"/>
<path opacity="0.22" d="M728.552 344.477C714.4 375.998 703.42 420.949 671.211 440.524C676.357 441.215 685.214 436.925 687.143 434.349C685.139 436.796 683.059 439.171 681.055 441.618C704.616 436.695 709.059 413.622 704.871 399.575C715.836 389.557 728.971 358.323 728.552 344.462V344.477Z" fill="#6D6C6C"/>
<path d="M567.884 198.585C547.554 226.192 586.718 267.544 607.363 238.57C625.928 212.187 596.801 171.77 567.884 198.585Z" fill="#5222D0"/>
<path d="M595.051 209.15C595.515 214.231 601.08 215.325 604.82 223.702C607.497 229.747 607.497 235.677 607.034 239.923C616.638 241.852 636.235 236.109 643.7 228.077C642.294 225.055 640.214 220.607 637.746 215.325C627.035 192.857 625.299 190.928 622.696 189.963C612.255 186.163 594.198 199.679 595.066 209.15H595.051Z" fill="white" stroke="#161616" stroke-width="2"/>
<path d="M556.515 142.638C549.708 151.504 553.298 190.784 554.645 203.666C557.652 201.996 560.673 200.312 563.68 198.642C567.241 210.287 583.996 221.542 592.388 222.464C614.573 218.318 630.924 193.144 622.158 172.706C638.404 165.581 632.136 138.348 613.392 154.555C604.88 132.505 574.825 121.926 556.515 142.652V142.638Z" fill="white" stroke="#161616" stroke-width="2"/>
<path d="M564.817 172.447C562.304 182.249 569.664 184.321 567.166 173.094C566.762 171.943 564.817 172.389 565.221 173.612C565.894 175.671 565.819 177.671 565.161 179.73H567.106C566.238 177.542 566.104 175.282 566.777 173.037C567.106 171.756 565.236 171.238 564.832 172.461L564.817 172.447Z" fill="#161616"/>
<path d="M562.409 168.46C564.144 167.423 566.283 167.625 567.764 168.978C568.707 169.813 570.113 168.46 569.171 167.625C564.578 163.249 557.816 168.388 562.409 168.46Z" fill="#161616"/>
<path d="M569.635 184.81C570.906 184.81 570.906 182.882 569.635 182.882C568.303 182.882 568.303 184.81 569.635 184.81Z" fill="#161616"/>
<path d="M574.047 179.211C573.838 180.564 576.022 180.78 576.052 179.398C576.261 178.074 574.062 177.786 574.047 179.211Z" fill="#161616"/>
<path d="M574.242 184.033C575.513 184.033 575.513 182.104 574.242 182.104C572.97 182.104 572.97 184.033 574.242 184.033Z" fill="#161616"/>
<path d="M546.686 175.412C545.863 177.038 545.639 185.976 548.825 183.141C549.633 180.823 549.693 178.377 549.02 176.059C548.691 174.836 546.746 175.354 547.075 176.577C547.673 178.636 547.613 180.636 546.88 182.623H548.825C548.017 180.435 547.883 178.175 548.631 175.93C548.96 174.706 547.03 174.188 546.686 175.412Z" fill="#161616"/>
<path d="M545.549 170.575C546.955 169.87 548.9 170.187 549.828 171.482C550.561 172.446 552.311 171.482 551.563 170.518C547.733 165.595 540.867 170.374 545.534 170.575H545.549Z" fill="#161616"/>
<path d="M568.093 205.609C573.24 204.702 577.727 202.068 581.078 198.139C581.677 197.433 580.615 196.397 580.001 197.102C576.86 200.83 572.641 203.277 567.69 204.184C566.747 204.371 567.151 205.796 568.093 205.594V205.609Z" fill="#161616"/>
<path d="M578.535 197.232C579.747 197.621 580.749 198.196 581.617 199.031C582.29 199.679 583.352 198.642 582.694 197.995C581.617 196.958 580.346 196.253 578.939 195.807C577.997 195.548 577.608 196.973 578.535 197.218V197.232Z" fill="#161616"/>
<path d="M551.638 162.861C535.915 160.845 539.909 145.243 545.011 137.888C572.821 104.222 611.163 96.7228 641.232 126.877C677.659 150.9 724.842 260.045 650.133 238.253C625.12 226.882 617.73 191.518 619.48 172.706C626.167 170.834 629.578 164.789 628.052 160.212C625.225 151.331 611.357 152.411 611.866 162.918C602.112 163.623 585.776 154.829 581.557 143.933C572.447 143.933 555.722 153.721 551.653 162.861H551.638Z" fill="#5222D0"/>
<path opacity="0.24" d="M595.934 175.153C610.893 193.403 608.679 206.372 603.698 218.606C607.916 215.512 612.195 212.431 616.413 209.337C619.361 218.736 622.233 228.077 625.18 237.476C629.817 237.98 641.112 231.488 643.176 226.537C632.495 219.168 617.61 191.964 620.288 173.483C641.71 163.336 615.366 140.954 611.716 162.472C600.751 163.436 585.372 154.138 581.408 144.581C582.649 162.76 586.569 165.567 595.934 175.167V175.153Z" fill="#6D6C6C"/>
<path opacity="0.45" d="M620.213 113.031C637.971 138.996 709.059 240.599 621.545 197.952C623.071 215.512 642.773 244.644 667.651 241.348C675.983 240.34 679.364 240.556 686.994 230.797C696.628 212.331 677.779 174.562 669.326 158.557C663.582 148.381 662.071 146.61 649.714 135.254C631.777 118.73 633.737 119.997 620.198 113.045L620.213 113.031Z" fill="#371B9B"/>
<path opacity="0.43" d="M604.087 222.536C609.726 245.234 579.852 249.696 567.555 232.064C578.805 259.57 619.271 248.271 604.087 222.536Z" fill="#371B9B"/>
<path d="M86.7183 94.3078C86.8049 97.4746 86.9781 100.558 87.4112 103.725C87.6711 105.308 90.2695 105.308 90.0097 103.725C89.5766 100.641 89.3167 97.4746 89.3167 94.3078C89.3167 92.7244 86.7183 92.7244 86.7183 94.3078Z" fill="#E8E8E8"/>
<path d="M88.6237 95.5576H256.746C258.391 95.5576 258.391 93.0575 256.746 93.0575H88.6237C86.978 93.0575 86.978 95.5576 88.6237 95.5576Z" fill="#E8E8E8"/>
<path d="M255.187 95.3077V100.808C255.187 102.391 257.785 102.391 257.785 100.808V95.3077C257.785 93.6409 255.187 93.6409 255.187 95.3077Z" fill="#E8E8E8"/>
<path d="M90.183 104.641H256.14C257.785 104.641 257.785 102.141 256.14 102.141H90.183C88.4507 102.141 88.4507 104.641 90.183 104.641Z" fill="#E8E8E8"/>
<path d="M89.9231 65.5564C92.0885 74.9735 93.9074 84.4739 95.3799 93.9743C95.6398 95.5577 98.1516 94.891 97.8918 93.3076C97.0603 91.3742 93.1106 56.2727 89.9231 65.5564Z" fill="#E8E8E8"/>
<path d="M91.4821 65.3896C94.2278 65.1313 133.993 68.8481 126.042 63.2228C114.695 64.5562 102.829 63.2228 91.4821 62.8895C89.8364 62.8062 89.8364 65.3063 91.4821 65.3896Z" fill="#E8E8E8"/>
<path d="M124.743 66.2231C125.202 68.1482 117.978 101.525 123.79 93.3077C123.34 91.3826 130.555 58.0061 124.743 66.2231Z" fill="#E8E8E8"/>
<path d="M104.388 62.6395C99.0439 61.2394 96.6619 56.9726 96.8525 51.889C96.3328 48.1389 94.1674 44.8054 93.9075 40.9719C93.2146 41.3052 92.6083 41.7219 91.9153 42.0553C99.9706 47.0555 107.073 54.1391 106.813 63.9729C106.727 65.5563 109.325 65.5563 109.412 63.9729C109.758 53.2224 102.049 45.3887 93.2146 39.8885C88.2082 38.1217 95.3713 53.4224 94.6004 56.3892C95.5532 60.9728 98.8446 62.9729 103.002 64.8063C104.561 65.3896 105.861 63.3062 104.388 62.6395Z" fill="#E8E8E8"/>
<path d="M106.9 51.9723C106.051 40.7385 117.025 31.7047 115.735 20.2209C114.868 20.3042 114.002 20.4709 113.223 20.5542C116.428 34.9716 120.412 48.6388 113.569 62.8061C115.951 72.0482 121.668 45.5054 120.239 43.3886C120.169 41.4302 116.454 12.8456 113.223 20.2209C113.742 31.8047 102.656 41.1385 104.475 52.639C104.648 54.2224 107.16 53.5557 106.9 51.9723Z" fill="#E8E8E8"/>
<path d="M149.255 3.72027C150.295 34.055 150.641 64.3063 150.035 94.641C150.035 96.2244 152.633 96.2244 152.633 94.641C153.153 64.3063 152.893 33.9716 151.854 3.72027C151.854 2.05353 149.255 2.05353 149.255 3.72027Z" fill="#E8E8E8"/>
<path d="M151.248 4.13686C154.972 1.13673 161.295 2.47012 165.453 3.72018C173.023 1.02006 152.833 -2.3801 149.429 2.38678C148.129 3.38683 149.948 5.13691 151.248 4.13686Z" fill="#E8E8E8"/>
<path d="M164.413 3.72027C164.586 33.6383 164.76 63.4729 164.933 93.3909C164.933 94.9743 167.531 94.9743 167.531 93.3909C167.358 63.4729 167.185 33.6383 167.012 3.72027C167.012 2.05353 164.413 2.05353 164.413 3.72027Z" fill="#E8E8E8"/>
<path d="M153.153 23.8877C156.618 21.1376 161.728 21.3876 164.933 24.3044C172.451 25.1628 159.562 14.854 151.334 22.1376C150.035 23.1377 151.854 24.8878 153.153 23.8877Z" fill="#E8E8E8"/>
<path d="M152.027 14.3041C155.838 11.1373 161.295 11.0539 165.279 13.9707C172.382 13.754 158.584 4.80365 150.122 12.554C148.909 13.6374 150.814 15.3875 152.027 14.3041Z" fill="#E8E8E8"/>
<path d="M167.098 25.1377C170.996 25.1377 174.807 25.5544 178.618 26.4711C178.272 26.0544 178.012 25.6377 177.665 25.3044C178.185 47.8054 177.925 70.223 176.712 92.724C176.626 94.3074 179.224 94.3074 179.311 92.724C179.657 70.248 182.507 45.8636 179.311 24.1376C177.553 23.3959 160.974 20.9542 167.098 25.1377Z" fill="#E8E8E8"/>
<path d="M167.704 48.8055C171.169 46.6387 175.326 46.5554 178.878 48.5555C180.35 49.3888 181.649 47.2221 180.177 46.3887C173.265 41.4301 160.844 48.1971 167.704 48.8055Z" fill="#E8E8E8"/>
<path d="M167.271 36.8884C170.303 35.4717 173.768 35.3884 176.886 36.6384C178.445 37.2218 179.744 35.1384 178.185 34.4717C174.114 32.8049 169.957 32.8883 165.972 34.7217C164.5 35.4717 165.799 37.6385 167.271 36.8884Z" fill="#E8E8E8"/>
<path d="M185.981 92.9742C185.981 91.5574 185.028 86.3905 185.894 85.3905C206.431 82.4154 228.656 83.7488 249.557 84.8905L248.258 83.6404C248.777 87.3906 249.037 91.1408 248.951 94.9743C253.212 100.65 251.055 85.3488 250.856 83.6404C250.77 82.8904 250.336 82.4737 249.557 82.3904C228.189 81.082 206.301 80.4153 185.114 82.7237C181.736 84.2238 183.296 90.3074 183.382 93.0575C183.382 94.5576 185.981 94.6409 185.981 92.9742Z" fill="#E8E8E8"/>
<path d="M194.902 81.557C193.551 77.2985 193.343 74.2734 199.06 75.0567C208.838 74.89 218.496 74.715 228.336 74.5567C238.054 74.39 247.92 74.1984 257.612 74.0567C260.037 74.0567 261.423 73.2233 262.203 76.2234C262.549 77.5568 262.289 79.3069 262.203 80.6403C262.116 82.2237 264.715 82.2237 264.801 80.6403C264.888 78.4735 265.581 74.2234 263.762 72.3899C262.116 70.8065 258.738 71.5566 256.746 71.6399C246.958 71.8066 237.257 71.9733 227.47 72.1399C218.028 72.3066 208.501 72.4733 199.06 72.64C197.154 72.64 193.083 71.8899 191.697 73.5567C190.051 75.4734 192.044 80.2236 192.39 82.307C192.737 83.8071 195.248 83.1404 194.902 81.557Z" fill="#E8E8E8"/>
<path d="M249.037 84.8073C252.961 84.1906 264.048 87.0574 264.455 81.7238C264.281 80.1404 261.683 80.1404 261.856 81.7238C261.943 82.6405 250.163 82.3905 249.037 82.3072C247.391 82.2238 247.391 84.7239 249.037 84.8073Z" fill="#E8E8E8"/>
<path d="M202.524 73.14C202.637 71.1566 200.723 66.2397 203.91 66.2231C221.285 67.7731 238.886 68.2232 256.313 67.1398C257.525 66.6397 258.478 66.9731 259.084 68.0565C260.86 68.8732 260.176 70.8733 260.903 72.39C261.51 73.8901 264.022 73.2234 263.415 71.7233C262.636 69.8899 263.155 67.1398 261.596 65.5564C260.21 64.1396 258.218 64.473 256.313 64.5563C239.379 65.4564 222.455 65.3814 205.556 63.8063C197.916 61.8229 199.042 68.1565 199.926 73.0567C200.099 74.7234 202.697 74.7234 202.524 73.14Z" fill="#E8E8E8"/>
</svg>
