<svg width="24" height="24" viewBox="0 0 24 24" fill="none" xmlns="http://www.w3.org/2000/svg">
<g clip-path="url(#clip0_1482_7601)">
<path d="M19.25 10H18V7.75C18 4.58 15.42 2 12.25 2H11.75C8.58 2 6 4.58 6 7.75V10H4.75C4.34 10 4 10.34 4 10.75V19.25C4 20.77 5.23 22 6.75 22H17.25C18.77 22 20 20.77 20 19.25V10.75C20 10.34 19.66 10 19.25 10ZM7.5 7.75C7.5 5.41 9.41 3.5 11.75 3.5H12.25C14.59 3.5 16.5 5.41 16.5 7.75V10H7.5V7.75ZM18.5 19.25C18.5 19.94 17.94 20.5 17.25 20.5H6.75C6.06 20.5 5.5 19.94 5.5 19.25V11.5H18.5V19.25Z" fill="#046AD0"/>
<path d="M13.25 15C13.25 15.17 13.22 15.33 13.16 15.48C13.09 15.63 13 15.77 12.88 15.88C12.84 15.92 12.8 15.96 12.75 16V17.29C12.75 17.71 12.41 18.04 12 18.04C11.59 18.04 11.25 17.71 11.25 17.29V16C11.2 15.96 11.16 15.92 11.12 15.88C11 15.77 10.91 15.63 10.84 15.48C10.78 15.33 10.75 15.17 10.75 15C10.75 14.92 10.76 14.84 10.77 14.76C10.79 14.68 10.81 14.6 10.85 14.52C10.88 14.45 10.92 14.37 10.96 14.31C11.01 14.24 11.06 14.17 11.12 14.12C11.17 14.06 11.24 14.01 11.31 13.96C11.37 13.92 11.45 13.88 11.52 13.85C11.6 13.81 11.68 13.79 11.76 13.77C12.16 13.7 12.6 13.83 12.88 14.12C13.12 14.35 13.25 14.67 13.25 15Z" fill="#046AD0"/>
</g>
<defs>
<clipPath id="clip0_1482_7601">
<rect width="24" height="24" fill="white"/>
</clipPath>
</defs>
</svg>
