<svg width="24" height="24" viewBox="0 0 24 24" fill="none" xmlns="http://www.w3.org/2000/svg">
<mask id="path-1-inside-1_2105_11700" fill="white">
<path fill-rule="evenodd" clip-rule="evenodd" d="M17.6573 6.34315L6.34359 17.6569L17.6573 6.34315Z"/>
</mask>
<path d="M18.3644 7.05025C18.7549 6.65973 18.7549 6.02656 18.3644 5.63604C17.9739 5.24552 17.3407 5.24552 16.9502 5.63604L18.3644 7.05025ZM5.63649 16.9497C5.24596 17.3403 5.24596 17.9734 5.63649 18.364C6.02701 18.7545 6.66018 18.7545 7.0507 18.364L5.63649 16.9497ZM16.9502 5.63604L5.63649 16.9497L7.0507 18.364L18.3644 7.05025L16.9502 5.63604Z" fill="#5D5F5D" mask="url(#path-1-inside-1_2105_11700)"/>
<mask id="path-3-inside-2_2105_11700" fill="white">
<path fill-rule="evenodd" clip-rule="evenodd" d="M17.6564 17.6569L6.3427 6.34315L17.6564 17.6569Z"/>
</mask>
<path d="M16.9493 18.364C17.3398 18.7545 17.973 18.7545 18.3635 18.364C18.754 17.9734 18.754 17.3403 18.3635 16.9497L16.9493 18.364ZM7.0498 5.63604C6.65928 5.24552 6.02612 5.24552 5.63559 5.63604C5.24507 6.02656 5.24507 6.65973 5.63559 7.05025L7.0498 5.63604ZM18.3635 16.9497L7.0498 5.63604L5.63559 7.05025L16.9493 18.364L18.3635 16.9497Z" fill="#5D5F5D" mask="url(#path-3-inside-2_2105_11700)"/>
</svg>
