<svg width="24" height="24" viewBox="0 0 24 24" fill="none" xmlns="http://www.w3.org/2000/svg">
<mask id="path-1-inside-1_1482_7596" fill="white">
<path fill-rule="evenodd" clip-rule="evenodd" d="M14.7843 3.15327C16.322 4.69097 16.322 7.18405 14.7843 8.72174C13.2466 10.2594 10.7535 10.2594 9.21579 8.72174C7.6781 7.18405 7.6781 4.69097 9.21579 3.15327C10.7535 1.61558 13.2466 1.61558 14.7843 3.15327Z"/>
</mask>
<path d="M15.4914 2.44616C15.1008 2.05564 14.4677 2.05564 14.0772 2.44616C13.6866 2.83669 13.6866 3.46985 14.0772 3.86038L15.4914 2.44616ZM14.0772 3.86038C14.4677 4.2509 15.1008 4.2509 15.4914 3.86038C15.8819 3.46985 15.8819 2.83669 15.4914 2.44616L14.0772 3.86038ZM14.0772 3.86038C15.2243 5.00755 15.2243 6.86746 14.0772 8.01463L15.4914 9.42885C17.4196 7.50063 17.4196 4.37438 15.4914 2.44616L14.0772 3.86038ZM14.0772 8.01463C12.93 9.1618 11.0701 9.1618 9.9229 8.01463L8.50869 9.42885C10.4369 11.3571 13.5632 11.3571 15.4914 9.42885L14.0772 8.01463ZM9.9229 8.01463C8.77573 6.86746 8.77573 5.00755 9.9229 3.86038L8.50869 2.44616C6.58047 4.37438 6.58047 7.50063 8.50869 9.42885L9.9229 8.01463ZM9.9229 3.86038C11.0701 2.71321 12.93 2.71321 14.0772 3.86038L15.4914 2.44616C13.5632 0.517945 10.4369 0.517945 8.50869 2.44616L9.9229 3.86038Z" fill="#5D5F5D" mask="url(#path-1-inside-1_1482_7596)"/>
<path d="M3.5 20V18.875C3.5 17.4187 4.44752 16.1518 6.04381 15.2225C7.6356 14.2958 9.79559 13.759 12 13.759C14.2044 13.759 16.3644 14.2958 17.9562 15.2225C19.5525 16.1518 20.5 17.4187 20.5 18.875V20C20.5 20.3448 20.2199 20.625 19.875 20.625H4.125C3.78014 20.625 3.5 20.3448 3.5 20Z" stroke="#5D5F5D" stroke-linecap="round" stroke-linejoin="round"/>
</svg>
