<svg width="24" height="24" viewBox="0 0 24 24" fill="none" xmlns="http://www.w3.org/2000/svg">
<g clip-path="url(#clip0_287_2261)">
<g clip-path="url(#clip1_287_2261)">
<path d="M12.0025 20C7.5025 20 3.6025 16.98 2.0525 12.31C1.9825 12.11 1.9825 11.89 2.0525 11.68C3.6025 7.02 7.5025 4 12.0025 4C16.5025 4 20.4025 7.02 21.9525 11.69C22.0225 11.89 22.0225 12.11 21.9525 12.32C20.4025 16.98 16.5025 20 12.0025 20ZM4.0625 12C5.4025 15.66 8.4825 18 12.0025 18C15.5225 18 18.6025 15.66 19.9425 12C18.6025 8.34 15.5225 6 12.0025 6C8.4825 6 5.3925 8.34 4.0625 12Z" fill="#046AD0"/>
<path d="M12 16C14.2091 16 16 14.2091 16 12C16 9.79086 14.2091 8 12 8C9.79086 8 8 9.79086 8 12C8 14.2091 9.79086 16 12 16Z" fill="#046AD0"/>
<path d="M21.2191 4L1.99998 19.3753" stroke="#046AD0" stroke-width="2" stroke-linecap="round"/>
</g>
</g>
<defs>
<clipPath id="clip0_287_2261">
<rect width="24" height="24" fill="white"/>
</clipPath>
<clipPath id="clip1_287_2261">
<rect width="24" height="24" fill="white"/>
</clipPath>
</defs>
</svg>
