<svg width="19" height="18" viewBox="0 0 19 18" fill="none" xmlns="http://www.w3.org/2000/svg">
<path fill-rule="evenodd" clip-rule="evenodd" d="M9.5 15.75V15.75C5.77175 15.75 2.75 12.7283 2.75 9V9C2.75 5.27175 5.77175 2.25 9.5 2.25V2.25C13.2283 2.25 16.25 5.27175 16.25 9V9C16.25 12.7283 13.2283 15.75 9.5 15.75Z" stroke="#5D5F5D" stroke-width="1.5" stroke-linecap="round" stroke-linejoin="round"/>
<path d="M9.5 12.75V9H8.75" stroke="#5D5F5D" stroke-width="1.5" stroke-linecap="round" stroke-linejoin="round"/>
<path d="M9.31175 6C9.20825 6 9.12425 6.084 9.125 6.1875C9.125 6.291 9.209 6.375 9.3125 6.375C9.416 6.375 9.5 6.291 9.5 6.1875C9.5 6.084 9.416 6 9.31175 6" stroke="#5D5F5D" stroke-width="1.5" stroke-linecap="round" stroke-linejoin="round"/>
</svg>
