<svg width="20" height="20" viewBox="0 0 20 20" fill="none" xmlns="http://www.w3.org/2000/svg">
<path d="M17.9167 19.375L11.3542 12.8125C10.8333 13.2292 10.2344 13.559 9.55729 13.8021C8.88021 14.0451 8.15972 14.1667 7.39583 14.1667C5.50347 14.1667 3.90208 13.5111 2.59167 12.2C1.28125 10.8889 0.625694 9.2875 0.625 7.39583C0.625 5.50347 1.28056 3.90208 2.59167 2.59167C3.90278 1.28125 5.50417 0.625694 7.39583 0.625C9.28819 0.625 10.8896 1.28056 12.2 2.59167C13.5104 3.90278 14.166 5.50417 14.1667 7.39583C14.1667 8.15972 14.0451 8.88021 13.8021 9.55729C13.559 10.2344 13.2292 10.8333 12.8125 11.3542L19.375 17.9167L17.9167 19.375ZM7.39583 12.0833C8.69792 12.0833 9.80486 11.6274 10.7167 10.7156C11.6285 9.80382 12.084 8.69722 12.0833 7.39583C12.0833 6.09375 11.6274 4.9868 10.7156 4.075C9.80382 3.16319 8.69722 2.70764 7.39583 2.70833C6.09375 2.70833 4.9868 3.16424 4.075 4.07604C3.16319 4.98785 2.70764 6.09444 2.70833 7.39583C2.70833 8.69792 3.16424 9.80486 4.07604 10.7167C4.98785 11.6285 6.09444 12.084 7.39583 12.0833Z" fill="#046AD0"/>
</svg>
