<svg width="169" height="185" viewBox="0 0 169 185" fill="none" xmlns="http://www.w3.org/2000/svg">
<path d="M142.915 40.0189L75.5542 11.5467C61.1477 5.45739 44.6356 12.4487 38.6734 27.1622L10.7955 95.9586C4.83324 110.672 11.6786 127.536 26.0851 133.626L93.4456 162.098C107.852 168.187 124.364 161.196 130.326 146.482L158.204 77.6858C164.167 62.9723 157.321 46.1082 142.915 40.0189Z" fill="#95C6FF"/>
<path d="M93.5199 149.652C89.7977 154.423 86.095 159.174 82.3728 163.945C86.7415 179.999 89.21 184.217 90.6793 183.992C91.7372 183.828 92.2465 181.432 92.8146 178.75C94.2252 172.054 93.3828 166.3 92.5208 162.716C94.8717 159.972 97.203 157.208 99.5538 154.464C97.536 152.867 95.5377 151.27 93.5199 149.652Z" fill="#161616" stroke="#161616" stroke-width="2"/>
<path d="M79.7864 125.08C82.1177 126.964 84.3511 126.288 88.9745 127.107C92.9122 127.804 97.3397 129.339 102.041 132.411C97.0262 138.554 92.011 145.045 87.035 151.884C85.84 153.543 84.6449 155.201 83.4891 156.86C85.409 157.331 87.7207 158.068 90.2283 159.256C92.6771 160.402 94.6754 161.693 96.2622 162.86C103.726 156.061 110.387 149.488 116.323 143.284C119.066 140.417 122.945 136.035 123.552 129.831C123.591 129.483 123.591 129.175 123.591 128.868C123.454 118.569 111.053 111.115 103.511 108.371C95.2631 105.382 81.0794 103.764 77.1221 110.91C74.7908 115.128 76.1622 122.152 79.7864 125.08Z" fill="#EC615B"/>
<path opacity="0.26" d="M94.2641 114.78C94.127 116.726 93.794 119.039 93.1083 121.599C92.6185 123.422 92.0308 125.039 91.4431 126.411C90.7966 126.677 90.1697 126.943 89.5232 127.21C93.7352 128.95 97.9668 130.691 102.179 132.431C99.0443 136.178 95.8902 140.11 92.7165 144.205C89.4448 148.424 86.3299 152.56 83.3717 156.635C85.4679 157.351 87.5445 158.068 89.6407 158.764C97.144 150.123 104.647 141.461 112.15 132.82C112.934 130.465 112.895 128.623 112.66 127.333C111.582 121.026 104.197 115.886 94.2641 114.78Z" fill="#6D6C6C"/>
<path opacity="0.23" d="M102.139 132.391C102.825 133.476 103.491 134.582 104.177 135.667C98.3389 143.018 92.5009 150.349 86.6628 157.7C85.6245 157.413 84.5666 157.106 83.5283 156.819C87.2701 151.454 91.3058 145.946 95.6745 140.397C97.8491 137.633 100.004 134.971 102.139 132.391Z" fill="#6D6C6C"/>
<path d="M82.647 141.871C88.4262 142.976 94.2251 144.062 100.004 145.167C106.685 160.402 107.429 165.316 106.175 166.156C105.274 166.75 103.394 165.275 101.297 163.617C96.047 159.46 93.128 154.505 91.5411 151.167C88.054 150.676 84.5669 150.164 81.0797 149.672C81.5891 147.072 82.118 144.471 82.647 141.871Z" fill="#161616" stroke="#161616" stroke-width="2"/>
<path d="M70.7358 107.941C60.1961 111.177 53.7703 117.893 49.6367 122.316C44.0533 128.316 37.1966 135.667 39.1752 141.093C40.194 143.857 43.2893 145.557 57.708 148.178C68.6005 150.164 78.0432 151.229 85.4093 151.823C86.33 148.301 87.2508 144.799 88.152 141.277C80.7467 138.779 73.361 136.301 65.9557 133.803C70.5008 132.8 75.2809 131.612 80.2569 130.158C84.0379 129.053 87.6426 127.906 91.071 126.698C94.2447 120.002 94.9303 112.774 91.6195 108.678C86.9961 102.945 76.6326 106.119 70.7358 107.941Z" fill="#EC615B"/>
<path opacity="0.29" d="M94.1858 115.026C94.0878 117.053 93.7548 119.654 92.8536 122.521C92.3051 124.261 91.6782 125.777 91.0513 127.026C90.5223 127.067 89.9934 127.128 89.4644 127.169C84.9978 128.705 80.2372 130.159 75.2024 131.51C71.9504 132.39 68.7767 133.148 65.7009 133.844C73.1258 136.281 80.5507 138.697 87.9755 141.134C87.8188 141.974 87.6229 142.854 87.3878 143.776C87.1135 144.84 86.8001 145.823 86.5062 146.724C76.2603 144.083 66.0144 141.441 55.7684 138.8C55.2983 138.206 53.7506 136.056 53.9857 133.21C54.2404 130.118 57.0614 127.927 60.6661 125.92C71.0884 120.145 88.5633 116.234 94.1858 115.026Z" fill="#6D6C6C"/>
<path opacity="0.24" d="M60.4312 134.274C62.2923 134.13 64.173 133.987 66.0341 133.823C73.3414 136.362 80.6487 138.922 87.9561 141.461C87.6426 142.669 87.3292 143.898 87.0157 145.106C78.1607 141.482 69.2861 137.878 60.4312 134.274Z" fill="#6D6C6C"/>
<path d="M67.9734 61.5408C70.8728 59.7594 75.9076 57.2202 82.6076 56.4831C92.8731 55.3569 100.749 59.2065 103.864 60.947C103.295 68.9944 102.414 75.424 101.709 79.847C100.866 85.13 100.18 88.0582 99.867 92.9111C99.4752 98.9927 99.965 103.989 100.416 107.265C97.0068 108.371 91.8544 109.579 85.5071 109.436C79.3948 109.293 74.4579 107.9 71.1471 106.692C72.0287 99.3613 71.7348 93.5459 71.3038 89.5939C70.814 85.1914 70.148 83.0414 69.3447 77.7174C68.3064 70.8373 68.0322 65.2062 67.9734 61.5408Z" fill="white" stroke="#161616" stroke-width="2"/>
<path opacity="0.14" d="M89.1707 58.9197C89.5821 60.4759 90.0523 62.6259 90.3658 65.206C90.5813 66.9465 91.4628 74.8301 88.7201 85.2322C87.0353 91.6414 85.2526 98.4192 79.4146 103.989C77.5339 105.791 75.7119 106.999 74.3798 107.757C77.338 108.555 81.1973 109.313 85.762 109.354C91.7371 109.415 96.674 108.289 100.102 107.183C99.9064 105.647 99.6518 103.334 99.5538 100.549C99.4754 98.1121 99.4754 94.2215 101.082 83.2665C102.355 74.6458 103.256 70.9395 103.707 63.1379C103.766 62.2369 103.785 61.4792 103.825 60.9673C102.394 60.0868 100.533 59.1244 98.2412 58.3463C96.1254 57.6296 94.2251 57.261 92.6579 57.0972C91.5216 57.6911 90.3462 58.3054 89.1707 58.9197Z" fill="#6D6C6C"/>
<path opacity="0.17" d="M103.256 64.3051C102.159 70.7962 100.709 76.0383 99.5732 79.6831C96.2428 90.331 93.9115 97.4978 87.6229 102.74C83.7243 105.996 79.669 107.368 77.0635 108.023C79.7082 108.801 83.45 109.559 87.9755 109.456C93.1866 109.333 97.3986 108.105 100.161 107.06C99.7887 104.562 99.3577 100.815 99.4752 96.2488C99.6124 90.331 100.533 86.7681 101.552 80.2769C102.12 76.4683 102.845 71.0215 103.256 64.3051Z" fill="#6D6C6C"/>
<path d="M67.8558 61.4384C65.309 63.2813 62.0374 66.189 59.1771 70.5096C52.7318 80.2975 52.9081 90.6791 53.1628 94.5083C54.3382 97.805 56.3561 102.126 59.8824 106.364C61.9394 108.842 64.9564 112.405 70.1087 114.698C71.8327 115.476 73.3412 115.906 74.4383 116.152C75.3786 115.272 76.2994 114.391 77.2398 113.511C74.2228 109.825 71.1862 105.955 68.1497 101.962C65.8184 98.9108 63.585 95.8802 61.4301 92.8906C61.5084 90.372 62.0178 85.8057 64.6429 81.0346C66.1318 78.3317 67.8754 76.3659 69.2663 75.0349C68.7962 70.5096 68.326 65.9842 67.8558 61.4384Z" fill="white" stroke="#161616" stroke-width="2"/>
<path opacity="0.13" d="M68.2281 66.0051C62.586 72.6601 59.9021 78.9669 58.5699 82.9394C56.2386 89.8195 56.7284 93.4234 57.081 95.1435C57.3749 96.4949 58.0213 98.8088 60.3918 102.331C62.4488 105.382 66.7784 110.849 75.0261 115.354C75.7509 114.617 76.4758 113.9 77.2006 113.163C74.8693 110.419 72.5185 107.532 70.148 104.522C67.0331 100.57 64.1336 96.6792 61.4497 92.8706C61.5281 90.8024 61.8611 87.9152 63.017 84.6799C64.7605 79.8269 67.5032 76.6325 69.2076 74.933C68.855 71.9638 68.5415 68.9947 68.2281 66.0051Z" fill="#6D6C6C"/>
<path opacity="0.16" d="M61.4302 93.1364C61.7828 95.5322 62.5077 98.5832 64.0357 101.88C67.4053 109.047 72.6752 112.999 75.3592 114.719C75.8881 114.227 76.3975 113.756 76.9264 113.265C71.7545 106.549 66.6021 99.8323 61.4302 93.1364Z" fill="#6D6C6C"/>
<path d="M104.157 61.0697C107.018 62.8921 110.701 65.7384 113.894 69.9771C121.143 79.5806 120.927 89.778 120.653 93.5458C119.321 96.7811 117.068 101.02 113.11 105.197C110.799 107.613 107.409 111.115 101.63 113.388C99.6908 114.145 97.9864 114.575 96.7522 114.821C95.7138 113.961 94.656 113.101 93.6176 112.241C96.9872 108.617 100.416 104.828 103.824 100.897C106.43 97.8868 108.938 94.9177 111.367 91.9895C111.269 89.5323 110.72 85.0479 107.762 80.3383C106.077 77.6763 104.138 75.7515 102.571 74.441C103.119 69.9771 103.648 65.5336 104.157 61.0697Z" fill="white" stroke="#161616" stroke-width="2"/>
<path opacity="0.16" d="M104.02 66.046C106.508 68.7694 109.897 73.131 112.542 79.2125C113.796 82.0998 115.833 86.7889 115.873 91.2119C116.01 104.665 97.7903 113.921 96.7324 114.453C95.6941 113.757 94.6754 113.081 93.6371 112.385C99.5339 105.627 105.411 98.8702 111.308 92.1129C111.19 89.9014 110.701 85.7856 108.35 81.4035C106.41 77.7996 104.001 75.4653 102.414 74.1753C102.962 71.4723 103.491 68.7694 104.02 66.046Z" fill="#6D6C6C"/>
<path opacity="0.12" d="M111.504 92.1736C111.21 93.9551 110.72 95.9004 109.956 97.9071C106.508 106.999 99.5339 111.975 96.0076 114.104C95.1652 113.531 94.3424 112.957 93.5 112.384C99.4948 105.647 105.49 98.9105 111.504 92.1736Z" fill="#6D6C6C"/>
<rect x="60.4897" y="93.6893" width="48.1735" height="31.8822" fill="white" stroke="#161616" stroke-width="2"/>
<path d="M83.8809 112.671C81.3341 112.999 80.0999 109.764 80.766 107.613C81.4125 105.484 83.8222 104.481 85.7812 105.218C87.7207 105.955 88.6611 108.433 87.9754 110.419C87.2114 112.63 84.547 113.531 82.588 112.548C82.2549 112.385 81.9415 112.917 82.2941 113.081C84.0377 113.961 86.173 113.634 87.564 112.2C88.9157 110.787 89.1117 108.555 88.2693 106.815C86.3494 102.842 80.4134 104.112 80.002 108.473C79.7865 110.808 81.3929 113.613 83.8809 113.306C84.2532 113.245 84.2532 112.63 83.8809 112.671Z" fill="#161616"/>
<path opacity="0.14" d="M78.5722 93.6074C85.0959 95.9827 89.5429 102.064 89.6801 108.596C89.8564 116.787 83.2739 124.486 74.3014 125.264C85.7228 125.367 97.1441 125.469 108.585 125.571C108.546 114.883 108.526 104.194 108.487 93.5255C98.5155 93.5255 88.5438 93.5664 78.5722 93.6074Z" fill="#6D6C6C"/>
<path opacity="0.26" d="M108.585 93.5046C108.409 100.016 107.175 105.094 106.136 108.432C104.608 113.285 103.511 116.828 100.357 119.961C96.0666 124.261 90.7183 125.059 88.3675 125.264C95.0479 125.325 101.728 125.387 108.409 125.469C108.428 119.387 108.468 113.306 108.507 107.204C108.507 102.637 108.546 98.0709 108.585 93.5046Z" fill="#6D6C6C"/>
<path d="M83.1561 45.0164C82.0787 46.3883 83.117 48.0674 82.9211 52.5518C82.8231 54.7837 82.4705 56.5857 82.1962 57.7938C83.117 58.2443 84.743 58.8791 86.8392 58.9405C89.4252 59.0019 91.3842 58.1624 92.3442 57.671C91.9132 56.77 91.3451 55.3776 90.9924 53.5756C90.1108 48.9888 91.6781 46.8388 90.3851 45.1392C88.8766 43.1735 84.6059 43.153 83.1561 45.0164Z" fill="white" stroke="#161616" stroke-width="2"/>
<path d="M76.319 25.3174C75.0848 28.6346 75.555 31.6242 75.8292 32.9142C75.7117 32.9347 73.4196 33.4466 72.7927 35.2895C72.1658 37.1529 73.4588 39.7944 76.1623 40.6544C77.1418 43.1526 79.5123 47.9851 84.5079 50.6266C85.3503 51.0566 86.1535 51.4047 86.9568 51.6504C87.6816 51.3637 88.6611 50.9132 89.7778 50.2375C93.265 48.1284 95.2044 45.5074 95.655 44.8726C96.4778 43.7259 97.5945 41.883 98.3781 39.3439C98.8091 39.4258 99.5732 39.4668 100.318 39.0777C102.002 38.1767 102.845 35.3714 101.669 33.549C100.69 32.0337 98.7895 31.9723 98.5544 31.9723C98.8091 30.9075 99.5928 27.0784 97.6141 23.2902C95.3416 18.9286 90.4635 16.6352 85.8793 17.2905C79.1009 18.212 76.4366 24.9897 76.319 25.3174Z" fill="white" stroke="#161616" stroke-width="2"/>
<path d="M82.9016 50.4427C84.0966 51.1799 85.4092 52.3266 86.8785 52.2037C88.0931 52.1013 89.4448 51.3642 90.3656 50.586C90.6595 50.3403 90.2481 49.9103 89.9542 50.156C89.0922 50.8727 87.7013 51.6304 86.565 51.6099C85.37 51.5894 84.1554 50.5451 83.1758 49.9103C82.882 49.7055 82.5881 50.2379 82.9016 50.4427Z" fill="#161616"/>
<path d="M82.8233 50.7088C83.9399 51.7122 85.2133 52.8384 86.7806 52.7565C88.3087 52.6746 89.7388 51.6098 90.7379 50.4631C90.9926 50.1764 90.5812 49.7464 90.3265 50.0331C89.4645 51.016 88.2499 51.9784 86.9177 52.1217C85.4484 52.265 84.273 51.2207 83.2347 50.2788C82.9604 50.0126 82.549 50.4426 82.8233 50.7088Z" fill="#161616"/>
<path d="M83.5675 50.8311C83.5675 50.8106 83.5675 50.8106 83.5675 50.8311C83.4499 50.6468 83.2344 50.6059 83.0973 50.7492C83.0973 50.7492 83.0973 50.7492 83.0777 50.7697C82.9601 50.8721 82.9601 51.0973 83.0777 51.1997C85.2327 53.3497 89.19 54.0459 90.7377 50.7492C90.8944 50.4011 90.4046 50.0735 90.2283 50.442C88.8569 53.3907 85.3894 52.674 83.5087 50.7697C83.5087 50.913 83.5087 51.0563 83.5087 51.1997C83.5087 51.1997 83.5087 51.1997 83.5283 51.1792C83.3716 51.1587 83.2148 51.1383 83.0581 51.1178V51.1383C83.254 51.4659 83.7634 51.1587 83.5675 50.8311Z" fill="#161616"/>
<path d="M85.9183 31.8905C85.6636 35.2077 85.8008 38.5045 86.3101 41.7808C86.3297 41.9446 86.5256 42.047 86.6628 41.9855C87.4268 41.7193 87.9753 41.2484 88.3868 40.5317C88.5827 40.1836 88.0733 39.8764 87.8774 40.2245C87.5444 40.8184 87.1329 41.1665 86.506 41.3917C86.6236 41.4531 86.7411 41.535 86.8587 41.5965C86.3493 38.3816 86.2318 35.1258 86.4865 31.87C86.5452 31.481 85.9575 31.481 85.9183 31.8905Z" fill="#161616"/>
<path d="M82.4313 35.1466C82.4705 35.3309 82.7644 36.4776 82.4313 36.6619C82.0983 36.8462 81.1579 36.109 80.8641 35.1466C80.629 34.3275 80.8249 33.3037 81.1971 33.2218C81.5889 33.1194 82.1962 34.2456 82.4313 35.1466Z" fill="#161616" stroke="#161616"/>
<path d="M92.5402 35.1466C92.5794 35.3309 92.8733 36.4776 92.5402 36.6619C92.2072 36.8462 91.2668 36.109 90.973 35.1466C90.7379 34.3275 90.9338 33.3037 91.306 33.2218C91.6978 33.1194 92.3051 34.2456 92.5402 35.1466Z" fill="#161616" stroke="#161616"/>
<path d="M85.2134 44.4839C87.6035 45.5487 89.778 44.0539 91.5412 42.4362C91.835 42.17 91.4041 41.74 91.1298 42.0062C89.6017 43.3986 87.6426 44.8934 85.5268 43.9515C85.1546 43.8081 84.8608 44.3405 85.2134 44.4839Z" fill="#161616"/>
<path d="M92.1092 38.4019C92.4814 38.4019 92.4814 37.7876 92.1092 37.7876C91.7369 37.7876 91.7369 38.4019 92.1092 38.4019Z" fill="#161616"/>
<path d="M94.2838 37.2555C94.3034 37.235 94.323 37.2145 94.3425 37.194C94.4601 37.0712 94.4601 36.8869 94.3425 36.764C94.225 36.6412 94.0487 36.6412 93.9311 36.764C93.9115 36.7845 93.892 36.805 93.8724 36.8255C93.7548 36.9483 93.7548 37.1326 93.8724 37.2555C93.9899 37.3783 94.1662 37.3783 94.2838 37.2555Z" fill="#161616"/>
<path d="M93.6373 38.7499C93.6569 38.7499 93.6765 38.7499 93.696 38.7499C93.8528 38.7499 93.9899 38.6066 93.9899 38.4428C93.9899 38.279 93.8528 38.1356 93.696 38.1356C93.6765 38.1356 93.6569 38.1356 93.6373 38.1356C93.4805 38.1356 93.3434 38.279 93.3434 38.4428C93.3434 38.6066 93.461 38.7499 93.6373 38.7499Z" fill="#161616"/>
<path d="M80.1197 31.4812C80.8641 30.8259 81.9612 30.8055 82.7057 31.4402C82.9995 31.686 83.4109 31.2559 83.1171 31.0102C82.0984 30.1502 80.6878 30.1502 79.6887 31.0512C79.4144 31.2969 79.8454 31.7269 80.1197 31.4812Z" fill="#161616"/>
<path d="M89.6799 31.2556C90.5223 30.4775 91.7173 30.3342 92.7164 30.8871C93.0495 31.0713 93.3433 30.5389 93.0103 30.3547C91.7761 29.6585 90.3068 29.8427 89.2685 30.8256C88.9746 31.0918 89.386 31.5218 89.6799 31.2556Z" fill="#161616"/>
<path d="M80.2765 38.341C80.6487 38.341 80.6487 37.7267 80.2765 37.7267C79.9043 37.7267 79.9043 38.341 80.2765 38.341Z" fill="#161616"/>
<path d="M82.3531 38.0542C82.7253 38.0542 82.7253 37.4399 82.3531 37.4399C81.9808 37.4399 81.9808 38.0542 82.3531 38.0542Z" fill="#161616"/>
<path d="M81.3147 38.5249C81.2951 38.5454 81.2755 38.5658 81.2559 38.5863C81.1384 38.7092 81.1384 38.8935 81.2559 39.0163C81.3735 39.1392 81.5498 39.1392 81.6673 39.0163C81.6869 38.9958 81.7065 38.9754 81.7261 38.9549C81.8436 38.832 81.8436 38.6477 81.7261 38.5249C81.6085 38.402 81.4322 38.402 81.3147 38.5249Z" fill="#161616"/>
<path d="M79.5125 18.6629C78.337 19.4205 75.7706 21.0792 74.0271 24.4783C72.2835 27.8569 72.3031 31.0513 72.3814 32.4232C69.5212 37.8086 68.2282 42.5592 67.6013 45.7945C66.5826 50.9342 67.1311 52.818 67.8364 54.0671C69.5604 57.1386 73.0279 57.8963 73.8703 58.0806C78.1999 59.043 81.6478 56.7291 82.4315 56.1967C82.647 55.521 82.8625 54.6814 82.98 53.7395C83.1955 52.1218 83.078 50.7294 82.9016 49.7261C81.9221 48.8865 80.7859 47.7603 79.6888 46.286C78.0236 44.0335 77.0832 41.8221 76.5543 40.2249C74.8303 40.0406 73.5373 38.812 73.4198 37.44C73.3022 36.15 74.1642 34.4914 75.3005 34.4914C76.1429 34.4914 76.7502 35.3924 76.8677 35.5562C77.5142 35.1671 78.4154 34.4914 79.2186 33.4266C80.3744 31.8909 80.5704 30.5189 81.0993 29.0855C81.6087 27.6931 82.5882 25.7683 84.704 23.7616C86.7414 24.5192 88.3674 25.2564 89.4841 25.8093C93.0692 27.5498 95.1066 28.5736 96.6935 30.8056C97.5751 32.0342 98.0257 33.2423 98.2607 34C100.083 32.5461 100.827 32.9352 100.984 33.0171C102.14 33.6928 102.101 37.3991 100.298 38.4229C99.6125 38.812 98.8289 38.7096 98.3391 38.5867C97.771 40.6549 96.5172 44.0335 93.6373 47.0231C92.6774 48.0265 91.6979 48.8046 90.8163 49.3984C90.7379 50.1561 90.6987 51.2004 90.8946 52.429C91.071 53.5552 91.3844 54.4767 91.6783 55.1319C96.4388 58.4082 102.355 57.8144 105.568 54.2924C108.428 51.139 108.428 46.3679 107.351 43.1121C106.371 40.143 104.471 38.3615 103.531 37.5834C103.785 36.4367 105.196 29.6384 101.101 23.393C100.043 21.7754 97.0853 17.8643 91.7566 16.5129C86.1145 15.0795 81.4715 17.4138 79.5125 18.6629Z" fill="#5222D0"/>
<path opacity="0.17" d="M91.9328 27.0785C94.1466 29.9862 94.7343 32.6686 94.9302 34.061C95.7334 39.9174 92.4813 44.668 90.8357 47.1047C89.484 49.091 88.093 50.5038 87.0939 51.4253C87.9559 53.8415 88.7983 56.2373 89.6603 58.6536C90.5419 58.3464 91.4234 58.0393 92.305 57.7321C91.8936 56.9745 91.4626 56.0326 91.1296 54.8859C90.5223 52.8382 90.4831 51.0362 90.5419 49.8076C91.6194 49.009 92.8732 47.9238 94.0878 46.4904C96.517 43.6237 97.7316 40.675 98.3585 38.6888C98.7504 38.7707 99.5928 38.8731 100.396 38.4021C102.081 37.3988 101.807 34.9006 101.787 34.7368C101.728 34.2044 101.611 33.3444 101.023 32.9963C100.337 32.6072 99.2009 32.9758 98.2998 34.0815C98.0255 33.0782 97.2419 30.7643 95.1261 28.9214C93.9506 27.8976 92.7556 27.3652 91.9328 27.0785Z" fill="#6D6C6C"/>
<path opacity="0.19" d="M86.1928 32.075C86.0753 32.0545 85.6835 33.836 84.4884 41.6991C85.1741 41.6991 85.8598 41.6991 86.5455 41.6991C86.4083 40.6547 86.2516 39.1395 86.1732 37.2966C86.0753 34.1431 86.3104 32.0955 86.1928 32.075Z" fill="#6D6C6C"/>
<path opacity="0.54" d="M103.413 37.7884C103.08 37.9932 104.334 39.7542 104.157 42.3752C104.099 43.1943 103.981 45.0577 102.571 46.3067C102.473 46.3886 100.376 48.1906 98.2998 47.0439C97.0655 46.3682 96.3211 44.9348 96.3603 43.3786C95.7726 44.5253 94.8126 46.0405 93.3041 47.5149C92.3638 48.4363 91.443 49.112 90.6398 49.624C90.581 50.5249 90.581 51.7535 90.8945 53.1459C91.0708 53.9036 91.2863 54.5588 91.5018 55.0912C92.1091 55.5008 93.0103 56.0536 94.1857 56.4837C94.9302 56.7498 99.0246 58.2446 103.021 56.1765C103.726 55.8079 105.294 54.9684 106.43 53.1664C106.567 52.9412 107.076 52.1426 107.449 50.7911C108.781 46.1634 106.822 41.9861 106.645 41.638C105.568 39.3651 103.824 37.5427 103.413 37.7884Z" fill="#341999"/>
<path opacity="0.35" d="M76.5345 40.3064C76.3582 40.3268 76.75 42.0059 76.3191 43.6645C76.0056 44.8931 75.0065 46.8998 73.3021 47.3094C71.5193 47.7189 69.3056 46.347 68.2869 43.7874C67.8167 44.9136 67.1898 46.7156 67.0918 49.0089C67.0331 50.5037 66.9547 52.1009 67.66 53.6776C69.2468 57.1996 73.9094 58.5716 77.3769 58.2439C79.6887 58.0187 81.4322 57.0768 82.3726 56.442C82.6077 55.7458 82.8428 54.9062 82.9995 53.9438C83.2542 52.2852 83.1954 50.8314 83.0582 49.7666C81.5106 48.5994 80.4527 47.3913 79.7866 46.5108C78.8462 45.2617 77.5729 43.5826 76.9264 41.2483C76.8284 40.9821 76.6521 40.2859 76.5345 40.3064Z" fill="#341999"/>
</svg>
