<svg width="179" height="179" viewBox="0 0 179 179" fill="none" xmlns="http://www.w3.org/2000/svg">
<path d="M77.0238 17.8765L21.501 62.6828C9.62634 72.2656 7.76587 89.6645 17.3455 101.544L62.1375 157.092C71.7171 168.971 89.1094 170.834 100.984 161.251L156.507 116.445C168.381 106.862 170.242 89.4628 160.662 77.5829L115.87 22.0358C106.291 10.1559 88.8985 8.29371 77.0238 17.8765Z" fill="#95C6FF"/>
<path d="M149.15 22.1063C144.987 25.3675 140.964 28.7578 137.067 32.2751C137.403 32.2106 137.724 32.1442 138.061 32.0677C137.751 31.94 137.532 31.7636 137.32 31.5271C137.325 31.8211 137.33 32.1151 137.333 32.4212C141.074 28.895 144.801 25.3789 148.542 21.8527C148.154 21.8856 147.752 21.9166 147.362 21.9614C147.623 22.1435 147.884 22.3257 148.143 22.5198C148.087 22.1821 148.033 21.8325 147.963 21.4929C146.283 22.9396 144.72 24.4633 143.272 26.0883C142.623 26.8192 143.983 27.7373 144.631 27.0184C146.077 25.4055 147.641 23.8697 149.322 22.4231C149.642 22.1487 149.468 21.6239 149.142 21.3962C148.881 21.2141 148.62 21.032 148.361 20.8379C147.984 20.5666 147.474 20.6564 147.181 20.9466C143.439 24.4728 139.713 27.9889 135.971 31.5151C135.727 31.7509 135.774 32.1606 135.983 32.4091C136.367 32.8524 136.85 33.1869 137.416 33.4227C137.78 33.5821 138.152 33.4493 138.41 33.2154C142.196 29.7929 146.122 26.4874 150.188 23.3108C150.982 22.6729 149.928 21.4784 149.15 22.1063Z" fill="#EC615B"/>
<path d="M152.729 22.4701C153.161 21.0007 153.593 19.5312 154.011 18.0599C154.083 17.8373 153.69 17.6862 153.618 17.9087C153.186 19.3782 152.754 20.8476 152.336 22.319C152.265 22.5415 152.658 22.6927 152.729 22.4701Z" fill="#161616"/>
<path d="M153.409 17.7703C151.627 18.5675 149.845 19.3648 148.063 20.162C147.822 20.2637 147.991 20.6046 148.232 20.5028C150.014 19.7056 151.796 18.9084 153.578 18.1112C153.819 18.0094 153.649 17.6685 153.409 17.7703Z" fill="#161616"/>
<path d="M152.49 22.2297C147.736 26.4375 143.046 30.6908 138.421 35.0016C138.242 35.173 138.582 35.4025 138.761 35.2312C143.387 30.9203 148.077 26.655 152.83 22.4593C153.007 22.2999 152.667 22.0704 152.49 22.2297Z" fill="#161616"/>
<path d="M147.477 20.6326C143.116 24.4414 138.857 28.3375 134.701 32.3208C134.522 32.4922 134.862 32.7217 135.041 32.5504C139.196 28.579 143.456 24.671 147.817 20.8622C148.009 20.7047 147.668 20.4752 147.477 20.6326Z" fill="#161616"/>
<path d="M138.547 35.0187C137.753 35.9867 136.818 37.1678 135.319 37.3189C133.834 37.4718 132.544 36.3431 132.682 35.0539C132.712 34.8256 132.293 34.7687 132.263 34.9969C132.117 36.2362 133.188 37.5186 134.675 37.6837C136.624 37.8994 137.921 36.4496 138.887 35.2483C139.039 35.0611 138.699 34.8316 138.547 35.0187Z" fill="#161616"/>
<path d="M134.612 32.3453C133.781 33.1615 133.016 34.0113 132.316 34.9186C132.163 35.1057 132.504 35.3353 132.656 35.1481C133.357 34.2408 134.121 33.3911 134.952 32.5748C135.115 32.4136 134.777 32.172 134.612 32.3453Z" fill="#161616"/>
<path d="M138.931 34.4718C137.202 35.1906 135.184 34.4032 134.583 32.7813C134.499 32.5499 134.111 32.6928 134.196 32.9122C134.872 34.7276 137.189 35.6168 139.1 34.8126C139.341 34.7108 139.171 34.37 138.931 34.4718Z" fill="#161616"/>
<path d="M139.811 33.491C138.314 34.0701 136.324 33.2866 135.855 31.8537C135.785 31.6242 135.367 31.6653 135.437 31.8948C135.993 33.535 138.214 34.5089 139.98 33.8319C140.221 33.7301 140.052 33.3892 139.811 33.491Z" fill="#161616"/>
<path d="M152.763 22.0956C152.046 21.5948 151.165 22.3554 150.369 22.2352C149.77 22.1416 149.242 21.8254 148.948 21.3455C148.737 20.999 148.65 20.6815 148.268 20.4463C148.044 20.3059 147.794 20.5898 148.018 20.7302C148.465 21.0109 148.536 21.5585 148.903 21.9139C149.156 22.1561 149.473 22.3458 149.827 22.4672C150.181 22.5887 150.559 22.6399 150.918 22.6153C151.378 22.5799 152.108 22.1045 152.499 22.3776C152.721 22.53 152.971 22.2461 152.763 22.0956Z" fill="#161616"/>
<path d="M150.387 22.4331C147.15 25.2454 143.897 28.0678 140.66 30.8802C140.469 31.0376 140.809 31.2671 141 31.1097C144.238 28.2974 147.49 25.4749 150.727 22.6626C150.905 22.5033 150.564 22.2738 150.387 22.4331Z" fill="#161616"/>
<path d="M145.646 24.2345C142.589 27.1935 139.392 30.0236 136.04 32.7347C135.849 32.8921 136.11 33.1843 136.301 33.0268C139.67 30.2936 142.912 27.4452 145.986 24.4641C146.151 24.2908 145.81 24.0613 145.646 24.2345Z" fill="#161616"/>
<path d="M153.345 18.9229C153.054 19.0791 152.688 18.8337 152.797 18.5428C152.882 18.3222 152.489 18.171 152.404 18.3917C152.296 18.6705 152.383 18.988 152.671 19.1859C152.958 19.3838 153.329 19.3731 153.62 19.2169C153.834 19.0993 153.573 18.8072 153.345 18.9229Z" fill="#161616"/>
<path d="M153.213 18.9538C153.315 18.711 153.471 18.4998 153.679 18.3203C153.575 18.245 153.457 18.1679 153.353 18.0926C153.235 18.3455 153.037 18.551 152.775 18.711C152.885 18.7382 152.995 18.7654 153.106 18.7926C153.053 18.6509 153.127 18.5143 153.277 18.4612C153.183 18.4119 153.076 18.3607 152.983 18.3114C153.017 18.4871 152.955 18.6376 152.812 18.7527C152.898 18.7521 152.983 18.7514 153.067 18.7628C152.961 18.6996 152.992 18.5693 153.11 18.5365C153.028 18.5131 152.946 18.4897 152.862 18.4783C152.938 18.5497 152.999 18.6313 153.03 18.7211C153.039 18.759 153.048 18.797 153.056 18.8469C153.053 18.871 153.048 19.127 153.099 19.0606C153.252 18.8735 152.912 18.6439 152.759 18.8311C152.523 19.1169 152.991 19.4615 153.303 19.2472C153.632 19.0107 153.426 18.5182 153.173 18.276C153.11 18.2064 153.014 18.1811 152.924 18.2178C152.511 18.3328 152.445 18.8374 152.8 19.0688C152.865 19.1144 152.991 19.1315 153.054 19.079C153.308 18.8811 153.429 18.6041 153.382 18.3044C153.368 18.1925 153.208 18.1097 153.089 18.1546C152.716 18.2873 152.571 18.6344 152.7 18.9576C152.742 19.0733 152.924 19.0979 153.031 19.0391C153.354 18.8507 153.587 18.589 153.727 18.2779C153.803 18.1293 153.559 17.9251 153.401 18.0502C153.145 18.2722 152.941 18.5257 152.803 18.8248C152.72 19.0214 153.113 19.1726 153.213 18.9538Z" fill="#161616"/>
<path d="M48.5502 132.508C44.7043 133.452 40.8358 134.397 36.9898 135.341C38.9915 148.285 40.5659 154.735 41.668 154.642C42.6126 154.573 43.2198 149.736 43.4897 140.132C45.6264 139.372 47.7631 138.635 49.8997 137.875C49.4499 136.101 49.0001 134.304 48.5502 132.508Z" fill="#161616" stroke="#161616" stroke-width="3"/>
<path d="M74.8423 84.254C74.3475 85.7742 73.6053 88.1926 72.8406 91.256C71.2437 97.6361 71.1762 100.354 69.5569 108.462C67.6226 118.112 66.633 119.771 66.0033 120.715C63.1469 124.907 59.1885 126.819 57.0293 127.855C51.8114 130.366 46.9533 130.596 44.0744 130.481C43.962 131.84 43.8495 135.157 45.7838 138.496C46.7509 140.155 47.8979 141.283 48.7751 141.997C51.6764 142.159 56.6694 142.043 62.2922 139.809C64.6988 138.865 70.8389 136.331 75.517 130.043C79.1156 125.206 80.1052 120.485 81.2072 115.187C83.3439 104.984 80.69 103.44 83.3439 94.78C84.9408 89.5285 86.785 86.9489 85.4806 85.0141C83.9287 82.6417 79.0481 83.2636 74.8423 84.254Z" fill="#EC615B"/>
<path opacity="0.09" d="M75.112 84.2773C74.8871 86.7418 74.5497 90.1506 74.0774 94.2044C73.6501 97.7745 73.1778 101.644 72.4131 106.158C71.0861 113.897 70.4114 117.767 68.9719 120.992C67.7124 123.802 65.2834 129.007 59.7056 132.946C53.9029 137.022 47.8978 137.414 45.2213 137.437C44.9065 136.7 44.5916 135.756 44.3892 134.673C44.0968 133.107 44.0968 131.748 44.1867 130.734C45.9186 130.757 48.3026 130.619 51.069 129.997C55.8821 128.892 59.0983 126.888 59.9305 126.358C61.9772 125.045 64.1139 123.686 65.8682 121.015C67.0602 119.218 67.555 117.583 68.3647 114.174C69.5567 109.153 70.164 106.665 70.6588 102.98C71.1986 98.7188 72.3906 92.5 75.112 84.2773Z" fill="#3D3D3D"/>
<path opacity="0.12" d="M44.2318 130.665C44.1418 131.679 44.0968 133.061 44.4117 134.65C44.6366 135.825 44.974 136.792 45.2888 137.552C48.3701 136.884 58.0638 134.351 64.0689 125.276C65.8457 122.581 66.9028 119.932 67.555 117.652C66.9478 119.103 65.8907 121.222 64.0239 123.272C60.8077 126.796 57.1192 128.086 54.4652 129.007C52.2161 129.813 48.7075 130.734 44.2318 130.665Z" fill="#3D3D3D"/>
<path d="M73.2007 153.652C71.4464 158.604 69.6921 163.556 67.9378 168.531C80.263 170.005 86.538 170.213 86.7629 169.107C86.9428 168.255 83.2993 166.573 75.8772 164.109C76.8893 161.046 77.9239 157.982 78.936 154.919C77.0242 154.504 75.1125 154.067 73.2007 153.652Z" fill="#161616" stroke="#161616" stroke-width="3"/>
<path d="M91.4858 86.8801C91.7332 90.2889 91.9581 94.9415 91.9131 100.423C91.8007 115.556 89.799 126.911 89.2142 129.997C87.7073 138.082 85.0983 148.516 80.3977 160.17C78.9133 160.24 75.2472 160.193 71.5812 157.844C69.3321 156.393 67.9376 154.643 67.1729 153.468C68.5449 150.796 70.2317 147.272 71.8736 142.965C74.7749 135.364 76.0344 129.306 76.8441 125.322C78.6659 116.362 79.588 111.894 78.8458 107.103C78.1261 102.565 76.9566 101.782 77.1365 97.9128C77.1815 97.0606 77.7437 87.1334 83.8163 85.2447C86.9426 84.3004 90.0464 85.9587 91.4858 86.8801Z" fill="#EC615B"/>
<path opacity="0.14" d="M86.1555 85.1524C88.1572 86.0276 87.505 91.7858 87.3251 93.306C84.9185 115.003 88.2247 103.325 85.3233 116.707C81.3424 135.087 75.967 152.754 74.0778 158.834C73.628 158.834 72.9982 158.788 72.3235 158.466C71.6937 158.166 71.5588 157.775 70.7941 157.153C69.9619 156.485 69.6695 156.531 69.0398 156.07C68.4775 155.656 67.7803 154.919 67.2855 153.56C68.455 151.21 69.8495 148.193 71.2664 144.554C73.0657 139.947 74.0553 136.446 75.1349 132.669C75.1349 132.669 78.5085 120.761 79.1158 111.663C79.2283 109.844 79.1383 108.6 79.0033 107.701C78.8009 106.273 78.5085 105.559 78.0587 103.855C77.9463 103.417 77.3165 100.93 77.1141 99.0642C76.5518 93.5594 79.4082 89.1371 80.7577 87.5478C81.23 86.972 81.8597 86.3501 82.7594 85.8664C83.0967 85.7052 85.0535 84.6687 86.1555 85.1524Z" fill="#3D3D3D"/>
<path opacity="0.11" d="M81.0051 122.627C80.6228 128.224 79.3408 129.882 75.6073 143.633C73.9654 149.667 72.7509 154.619 71.9637 157.798C71.334 157.545 70.5468 157.13 69.7371 156.485C68.5226 155.518 67.8029 154.458 67.398 153.721C68.5226 151.349 70.0295 147.963 71.4914 143.748C72.0762 142.089 72.4585 140.823 72.8184 139.671C77.9464 122.834 78.756 117.721 79.0034 114.22C79.2059 111.249 79.0484 108.853 79.0034 108.093C78.7785 104.915 78.2387 102.726 78.2387 102.726C78.2387 102.726 81.7474 111.755 81.0051 122.627Z" fill="#3D3D3D"/>
<path d="M52.5761 76.584C52.621 76.5149 52.846 76.538 53.2958 76.584C54.0605 76.6531 54.3079 76.7683 54.8027 76.8143C55.275 76.8374 55.9047 76.8834 56.0847 76.584C56.3321 76.1925 55.5449 75.4324 54.4428 73.797C52.5536 71.0331 52.6435 70.0657 52.801 69.6281C52.846 69.5129 52.9809 69.0753 53.2733 69.0062C53.6556 68.9141 54.083 69.4438 54.4878 69.9736C55.1625 70.8258 55.4324 71.4938 55.4999 71.4477C55.6349 71.4016 54.8477 69.6742 55.0276 67.5552C55.0726 66.9793 55.1625 66.1502 55.5674 66.035C55.9272 65.9198 56.467 66.3805 56.8944 67.1175C56.8944 67.0254 57.0068 65.7586 57.4341 65.6665C57.7715 65.5974 58.1539 66.2653 58.5362 66.9102C58.8511 67.44 59.0535 67.9237 59.166 68.2461C59.1435 67.6012 59.4808 67.0715 59.9531 66.9102C60.4704 66.749 60.9428 67.1636 60.9652 67.1866C61.4825 67.6703 61.4376 68.5225 61.4376 68.822C61.3926 70.1348 61.5275 72.346 61.8199 75.5706C62.4047 75.3402 63.2593 74.9257 64.204 74.2807C65.1711 73.6128 66.1832 72.7375 68.6797 69.6742C69.6468 68.4765 70.1416 67.8776 70.9963 66.7029C74.0776 62.4879 75.8993 60.0004 77.7436 56.4764C78.3284 55.3478 79.273 53.4361 81.2297 51.7316C81.8595 51.1788 83.0965 50.1424 83.8162 50.5339C84.3335 50.8103 84.3785 51.6856 84.356 52.9754C84.3335 55.7854 84.311 57.1674 83.8387 59.0791C82.7591 63.5014 80.7574 66.5878 80.3076 67.2788C78.5308 69.9506 76.754 71.4938 74.4599 73.4976C72.0759 75.5706 70.0966 77.275 66.9704 78.5648C64.9237 79.394 63.3043 79.6934 61.595 80.0159C58.7611 80.5226 57.2992 80.776 55.8373 80.1311C53.7456 79.2098 52.3287 76.9295 52.5761 76.584Z" fill="white"/>
<path d="M83.7261 50.2116C81.297 50.5571 79.8576 52.8834 78.5531 54.7952C76.8888 57.2366 75.3144 59.7472 73.695 62.2117C72.0757 64.6993 70.3888 67.1408 68.4771 69.421C67.555 70.5035 66.6103 71.563 65.5757 72.5304C64.4287 73.636 63.1692 74.9028 61.6623 75.4326C61.2574 75.5708 61.4374 76.2387 61.8422 76.1005C64.2038 75.2944 66.2055 72.9911 67.8473 71.1715C69.7366 69.0755 71.4234 66.7953 73.0203 64.4459C74.6397 62.0505 76.1915 59.586 77.7659 57.1675C79.2503 54.9103 81.0046 51.2942 83.906 50.8796C84.3333 50.8105 84.1534 50.1656 83.7261 50.2116Z" fill="black"/>
<path d="M62.4493 80.3847C65.3281 80.1083 67.7572 78.7494 70.1637 77.1832C72.5478 75.64 74.8194 73.8664 76.8436 71.8395C79.4526 69.2599 81.6567 66.1965 83.1186 62.7646C84.558 59.3327 85.2328 55.5784 84.7605 51.8471C84.7155 51.4095 84.0408 51.4095 84.0857 51.8471C84.8504 58.089 82.4214 64.2848 78.5079 69.0295C76.7536 71.1486 74.7069 73.0142 72.5478 74.6726C69.579 76.9298 66.2053 79.3482 62.4268 79.7168C62.022 79.7398 62.022 80.4308 62.4493 80.3847Z" fill="black"/>
<path d="M62.4505 79.6703C61.1234 79.6473 59.8413 79.9698 58.5367 80.0619C57.0297 80.1771 55.7701 79.7164 54.5329 78.8642C54.0381 78.5187 53.4983 78.1041 53.1834 77.5513C52.531 76.3766 53.8806 77.0676 54.353 77.2058C55.1178 77.4361 55.815 77.344 56.3999 76.8143C56.7373 76.5148 56.2424 76.0311 55.9275 76.3306C54.9153 77.2519 53.0259 75.202 52.3511 76.3766C51.8338 77.2749 53.0259 78.5648 53.6107 79.0484C54.6229 79.9007 55.86 80.5916 57.1871 80.7529C58.9416 80.9602 60.6961 80.3383 62.4505 80.3843C62.8779 80.3613 62.8779 79.6703 62.4505 79.6703Z" fill="black"/>
<path d="M56.4455 76.4228C55.9956 74.8796 54.9832 73.6819 54.1733 72.323C54.0608 72.1387 52.7109 69.6282 53.1609 69.4209C53.9483 69.0523 55.0732 71.3787 55.2306 71.8393C55.3656 72.2539 56.0181 72.0696 55.8831 71.6551C55.5231 70.5955 54.8932 69.6051 53.9483 68.9602C53.4534 68.6147 52.7334 68.3614 52.5085 69.1445C52.216 70.204 52.9809 71.632 53.4984 72.5073C54.3083 73.8662 55.3656 75.0409 55.8156 76.6071C55.9281 77.0447 56.5805 76.8605 56.4455 76.4228Z" fill="black"/>
<path d="M56.0848 71.632C55.8824 70.7798 55.6124 69.9045 55.4774 69.0293C55.3874 68.4995 55.3649 67.9698 55.4099 67.44C55.4774 66.749 55.6124 66.0581 56.1523 66.8642C56.9847 68.131 57.2547 69.8585 57.6597 71.2865C57.7721 71.7241 58.4246 71.5399 58.3121 71.1022C57.9746 69.8815 57.7047 68.5917 57.2097 67.417C56.9622 66.8412 56.3998 65.5513 55.6124 65.5513C54.8025 65.5513 54.78 66.8412 54.735 67.417C54.6225 68.9141 55.0725 70.3422 55.4324 71.7702C55.5224 72.2539 56.1748 72.0696 56.0848 71.632Z" fill="black"/>
<path d="M57.6591 68.3613C57.5466 67.8776 57.3216 67.0714 57.5016 66.5877C57.8391 65.6895 58.334 67.3018 58.469 67.6473C58.9639 68.868 59.2339 70.1578 59.3014 71.4707C59.3239 71.9083 59.9988 71.9083 59.9763 71.4707C59.8863 70.2039 59.6839 68.9832 59.2564 67.8085C59.0089 67.0945 58.649 65.8277 57.9741 65.4361C56.4442 64.5378 56.8717 67.9927 56.9842 68.5686C57.0967 68.9832 57.7491 68.7989 57.6591 68.3613Z" fill="black"/>
<path d="M59.9306 69.1676C59.9081 68.9372 59.7506 67.6935 60.0206 67.4631C60.763 66.7952 60.9655 68.0159 61.0555 68.3845C61.213 69.1676 61.1905 70.0428 61.258 70.849C61.3705 72.5073 61.4829 74.1427 61.5954 75.801C61.6179 76.2386 62.2928 76.2386 62.2703 75.801C62.1579 74.1427 62.0454 72.5073 61.9329 70.849C61.8654 69.6973 61.9554 68.1772 61.3705 67.1407C61.0555 66.5879 60.5156 66.0812 59.8856 66.4958C59.0757 67.0486 59.1882 68.5227 59.3007 69.3518C59.3457 69.7895 59.9981 69.6052 59.9306 69.1676Z" fill="black"/>
<path opacity="0.09" d="M83.9737 51.0177C83.8612 51.0177 83.9512 52.8373 83.2539 55.3709C82.7142 57.3057 81.837 59.1483 79.0031 62.9717C76.3942 66.4957 74.5049 69.0524 71.2212 72.0466C67.6226 75.3403 65.8233 76.9757 63.3493 77.5976C57.9964 78.9565 53.0709 75.801 52.5986 76.8605C52.3512 77.4363 53.7006 78.588 54.2179 78.9795C54.8702 79.4632 56.1297 80.2233 59.0985 80.2694C62.2697 80.3154 64.6988 79.5323 65.2386 79.348C70.9513 77.4133 74.7073 73.5898 76.709 71.4708C79.363 68.7069 81.5221 66.4497 82.9391 62.6723C85.2107 56.7989 84.1986 51.0177 83.9737 51.0177Z" fill="#3D3D3D"/>
<path opacity="0.13" d="M83.5236 59.9084C83.3662 59.8162 82.4215 61.4285 81.0721 63.3403C81.0721 63.3403 77.8334 67.9468 73.65 71.8624C71.3559 74.0044 67.1726 77.3212 60.5377 79.9239C61.9096 80.016 63.9563 79.9699 66.2279 79.1868C66.9477 78.9335 68.7469 78.2425 73.0877 74.373C76.5514 71.2866 78.4856 69.5821 80.4198 66.5879C82.5115 63.3863 83.7485 60.0235 83.5236 59.9084Z" fill="#3D3D3D"/>
<path d="M86.3351 47.6783C84.9181 48.185 84.041 49.0833 83.1188 50.0276C80.5548 52.6764 79.6327 55.6707 78.913 58.0891C76.7538 65.3675 75.6518 68.9836 75.157 72.1621C74.5722 75.7783 74.0774 80.5691 74.2348 86.2352C75.4044 87.0644 77.0687 88.1239 79.1829 89.0452C81.6119 90.1047 83.7936 91.049 86.6049 90.8187C87.7295 90.7266 89.6637 90.4041 91.8229 89.0452C91.9353 87.5481 92.1827 85.2217 92.835 82.4808C93.9595 77.6209 95.1741 76.2159 97.1533 70.1813C98.7052 65.4135 99.4699 62.9721 99.3574 60.0469C99.2674 57.997 99.0875 53.9893 96.1412 50.8568C93.8921 48.4844 89.8662 46.4115 86.3351 47.6783Z" fill="white"/>
<path d="M85.3228 47.8397C82.6239 49.4981 80.982 52.262 79.6325 55.095C78.1931 58.1584 77.1135 61.383 76.3264 64.6997C74.6845 71.6096 74.2797 78.7728 74.0098 85.8669C73.9873 86.3045 74.662 86.3045 74.6845 85.8669C74.9319 79.0952 75.3143 72.3005 76.7987 65.6671C77.5184 62.4195 78.508 59.2179 79.8799 56.1776C81.2069 53.2064 82.8488 50.143 85.6602 48.4386C86.02 48.2082 85.6827 47.6094 85.3228 47.8397Z" fill="black"/>
<path d="M94.0272 49.3367C96.5689 51.3636 98.3233 54.2196 98.8857 57.4673C99.5155 61.1755 98.6383 64.9529 97.4236 68.4309C96.254 71.7937 94.7244 74.9952 93.6673 78.4041C92.6101 81.7438 91.9578 85.2218 91.6879 88.7228C91.6429 89.1604 92.3177 89.1604 92.3627 88.7228C92.6776 84.7842 93.4873 80.8916 94.7919 77.1833C96.029 73.6363 97.671 70.2505 98.7282 66.6343C99.6729 63.3867 100.168 59.8627 99.3805 56.4999C98.6832 53.4596 96.9288 50.7647 94.522 48.876C94.1621 48.5766 93.6898 49.0603 94.0272 49.3367Z" fill="black"/>
<path d="M74.1448 86.3275C76.8662 88.815 80.2399 90.4504 83.861 90.9801C86.7398 91.3947 90.4509 91.4177 92.3401 88.769C92.5875 88.4004 92.0027 88.0549 91.7553 88.4235C89.8661 91.0492 85.6827 90.7037 82.9388 90.1279C79.835 89.483 76.9787 87.9858 74.6171 85.8438C74.3022 85.5444 73.8299 86.0281 74.1448 86.3275Z" fill="black"/>
<path opacity="0.11" d="M89.2364 47.7705C90.0011 49.1294 87.1672 51.64 84.9856 55.5556C83.5911 58.0431 83.0513 60.2082 81.9942 64.5384C79.5202 74.6728 79.9925 86.1892 80.195 89.529C78.2607 88.4695 76.349 87.433 74.4147 86.3735C74.5047 84.1163 74.6846 80.8917 75.0445 77.0222C75.6293 70.8954 75.9666 67.5557 77.1137 63.2255C78.1258 59.4712 79.1154 55.9702 81.8143 52.2158C83.5686 49.7743 85.4354 48.093 86.7848 47.0334C87.6395 46.9874 88.8315 47.0565 89.2364 47.7705Z" fill="#3D3D3D"/>
<path opacity="0.15" d="M80.6456 54.7263C80.938 54.8185 79.7458 59.6323 77.8339 70.2735C76.5743 77.2524 76.2819 79.763 77.2941 82.8724C78.5987 86.8571 81.2304 89.2755 80.7355 89.8053C80.4206 90.1277 79.071 89.6671 74.415 86.097C74.3025 81.0759 74.6174 74.143 76.5743 66.1967C78.1263 59.9087 80.3307 54.6112 80.6456 54.7263Z" fill="#3D3D3D"/>
<path d="M101.63 38.2807C102.687 39.2711 102.552 41.2059 102.35 44.0159C102.215 45.9736 102.147 46.9641 101.495 47.9084C100.146 49.8662 97.0865 50.7645 94.6797 49.6589C94.3873 49.5207 92.9028 48.8067 92.093 47.0792C90.9234 44.5917 92.138 42.1041 92.3854 41.6435C94.2749 38.0273 99.7407 36.4841 101.63 38.2807Z" fill="#5222D0"/>
<path d="M101.674 25.5436C102.529 25.7279 103.046 26.9486 104.081 29.4131C104.958 31.5091 105.363 33.2135 105.543 34.0197C105.835 35.4247 105.993 36.6224 106.06 37.5207C105.453 37.7049 104.846 37.8662 104.238 38.0504C104.103 38.8566 103.811 40.0543 103.226 41.3902C102.417 43.2328 101.742 44.8221 100.168 45.5591C98.3457 46.4113 96.389 45.6513 95.7368 45.3288C95.4894 45.9737 95.1295 46.7108 94.6572 47.4939C94.3198 48.0467 93.96 48.5073 93.6451 48.8989C91.5984 49.4286 90.6538 48.8759 90.2939 48.5995C88.4047 47.1714 88.5621 42.5649 91.4635 37.3595C91.306 37.1061 91.0586 36.7376 90.7437 36.323C90.0915 35.4938 89.8666 35.4708 89.5742 34.9871C89.4842 34.8489 88.787 33.6281 89.3493 32.5226C89.6192 31.9928 90.1815 31.5322 90.8112 31.4861C91.5759 31.417 91.8233 32.0389 92.4756 32.2231C93.6001 32.5686 94.8371 31.3249 97.9184 28.3536C100.505 25.8661 101.022 25.4054 101.674 25.5436Z" fill="white"/>
<path d="M103.834 29.3211C104.891 32.0389 105.566 34.872 105.813 37.7971C105.836 38.1196 106.353 38.1196 106.331 37.7971C106.083 34.8259 105.408 31.9468 104.329 29.1829C104.216 28.8604 103.721 28.9986 103.834 29.3211Z" fill="black"/>
<path d="M105.948 37.5665C105.341 37.6356 104.733 37.7277 104.126 37.7968C103.811 37.8429 103.811 38.3496 104.126 38.3266C104.733 38.2575 105.341 38.1653 105.948 38.0962C106.263 38.0271 106.263 37.5204 105.948 37.5665Z" fill="black"/>
<path d="M103.992 38.0273C103.587 40.3306 102.665 42.5648 101.158 44.3383C99.3582 46.5034 96.5016 45.3748 94.2973 44.4535C94.0049 44.3153 93.8699 44.822 94.1623 44.9602C96.2317 45.8355 99.2008 47.0332 101.068 45.1905C102.912 43.394 104.014 40.6991 104.464 38.1655C104.532 37.8431 104.059 37.7049 103.992 38.0273Z" fill="black"/>
<path d="M95.3996 45.4439C94.9272 46.5495 94.3422 47.5859 93.6673 48.5763C93.4873 48.8527 93.9148 49.1061 94.0948 48.8297C94.7697 47.8393 95.3546 46.7798 95.8271 45.6972C95.9621 45.3978 95.5346 45.1445 95.3996 45.4439Z" fill="black"/>
<path d="M94.1173 45.0294C94.4548 45.398 94.8372 45.7204 95.2647 45.9507C95.5571 46.112 95.8046 45.6743 95.5122 45.5131C95.1072 45.2828 94.7697 45.0064 94.4548 44.6609C94.2523 44.4075 93.8923 44.7761 94.1173 45.0294Z" fill="black"/>
<path d="M101.944 33.0752C101.809 32.7988 101.832 32.4533 102.012 32.223C101.877 32.1769 101.719 32.1539 101.584 32.1078C101.652 32.4993 101.652 32.8679 101.629 33.2594C101.719 33.1673 101.809 33.0752 101.877 33.0061C101.899 33.0521 101.922 33.0982 101.967 33.1443C102.034 32.8218 101.539 32.6836 101.472 33.0061C101.404 33.2825 101.584 33.5358 101.877 33.5358C102.034 33.5358 102.124 33.4207 102.124 33.2825C102.169 32.8448 102.147 32.4302 102.079 31.9926C102.057 31.8084 101.764 31.7393 101.652 31.8775C101.314 32.3151 101.247 32.8679 101.517 33.3516C101.652 33.628 102.102 33.3746 101.944 33.0752Z" fill="black"/>
<path d="M100.595 29.9659C100.91 29.1598 101.81 28.9295 102.507 29.3901C102.777 29.5744 103.025 29.1137 102.755 28.9525C101.765 28.2845 100.55 28.7222 100.1 29.8277C99.9874 30.1502 100.482 30.2884 100.595 29.9659Z" fill="black"/>
<path d="M99.5602 34.1118C99.4703 34.1118 99.3578 34.1118 99.2678 34.1118C99.2453 34.0657 99.2453 34.0197 99.2228 33.9736C99.2678 33.8124 99.3353 33.7663 99.4703 33.8124C99.4927 33.8354 99.5377 33.8815 99.5602 33.9045C99.5602 33.9045 99.5602 33.9045 99.5602 33.8815C99.4927 33.7663 99.3353 33.7202 99.2228 33.7893C99.1103 33.8584 99.0653 34.0197 99.1328 34.1348C99.2228 34.25 99.3578 34.3191 99.4927 34.296C99.6277 34.25 99.7402 34.1348 99.7402 33.9736C99.7402 33.6281 99.2678 33.536 99.1103 33.8124C99.0428 33.9275 99.0878 34.0888 99.2003 34.1579C99.3353 34.273 99.4927 34.2269 99.5602 34.1118Z" fill="black"/>
<path d="M100.685 35.171C100.64 35.217 100.572 35.2861 100.505 35.3322C100.505 35.3322 100.505 35.3322 100.527 35.3322C100.482 35.3322 100.437 35.3322 100.392 35.3322C100.392 35.3322 100.37 35.3322 100.37 35.3092C100.347 35.2861 100.302 35.2401 100.28 35.217V35.2401C100.28 35.171 100.257 35.1019 100.257 35.0328C100.28 35.0098 100.302 34.9867 100.325 34.9637C100.212 35.0558 100.167 35.194 100.235 35.3092C100.302 35.4243 100.482 35.4934 100.572 35.4013C100.73 35.2861 100.842 35.0558 100.662 34.8946C100.595 34.8255 100.482 34.7794 100.37 34.8255C100.257 34.8485 100.212 34.9176 100.167 35.0328C100.122 35.171 100.212 35.3092 100.347 35.3552C100.505 35.4013 100.64 35.3092 100.685 35.171Z" fill="black"/>
<path d="M98.9081 35.1944C98.8857 35.1944 98.8857 35.1944 98.8632 35.1944C98.5482 35.1944 98.5257 35.7242 98.8632 35.7242C98.8857 35.7242 98.8857 35.7242 98.9081 35.7242C99.2456 35.7242 99.2456 35.1944 98.9081 35.1944Z" fill="black"/>
<path d="M100.932 38.6034C101.292 39.732 101.855 40.7454 102.98 41.183C103.272 41.2982 103.407 40.8145 103.115 40.6763C102.192 40.3078 101.72 39.3634 101.427 38.4421C101.315 38.1427 100.842 38.2809 100.932 38.6034Z" fill="black"/>
<path d="M100.865 38.8796C101 38.6724 101.225 38.5572 101.495 38.5111C101.63 38.4881 101.697 38.3038 101.675 38.1887C101.63 38.0274 101.495 37.9814 101.36 38.0044C100.977 38.0505 100.662 38.2808 100.437 38.6033C100.235 38.8796 100.662 39.156 100.865 38.8796Z" fill="black"/>
<path d="M91.3067 35.8851C89.9343 36.3919 89.1919 34.2268 89.4394 33.2133C89.5744 32.6836 89.9343 32.0617 90.4743 31.9005C91.2167 31.6701 91.8916 32.269 92.364 32.7296C92.589 32.96 92.949 32.5914 92.724 32.3611C92.1166 31.7623 91.3742 31.1864 90.4743 31.3707C89.6644 31.5319 89.1694 32.315 88.9669 33.0751C88.607 34.4801 89.7094 37.0137 91.4417 36.3919C91.7566 36.2767 91.6216 35.77 91.3067 35.8851Z" fill="black"/>
<path d="M99.8974 26.0503C99.6275 26.3727 99.2226 26.9025 98.7503 27.5935C97.041 30.1501 97.1984 31.1866 96.0064 31.9236C95.0843 32.4995 93.6673 32.6837 92.5878 32.2231C91.7781 31.8776 91.5532 31.3478 90.856 31.3709C90.0913 31.3939 89.3715 32.0388 89.0792 32.7989C88.7193 33.6972 89.0792 34.5263 89.3266 35.0561C89.5515 35.5398 89.8663 36.2538 90.5411 36.415C90.9684 36.5072 91.3508 36.3459 91.5532 36.2308C91.5307 36.4841 91.4857 36.8757 91.4632 37.3594C91.3508 39.3632 91.5757 40.7452 91.6656 41.6435C91.8905 43.8086 92.093 45.536 91.4632 47.1714C90.4961 49.6128 88.0895 50.6954 87.2124 51.0869C83.4789 52.7683 80.0152 51.3633 79.5429 51.156C78.8007 50.8336 75.2471 49.3364 74.37 45.9276C73.8302 43.8777 74.4374 41.8047 74.6848 40.9295C74.7973 40.5609 75.0897 39.6396 75.6745 38.5801C76.9564 36.2308 78.8007 34.8027 80.0827 33.9966C80.51 32.4073 81.2298 30.1271 82.4893 27.5244C83.9062 24.5762 84.6934 22.9408 86.4927 21.4207C89.349 19.0022 92.5878 18.7028 93.6448 18.6337C94.1846 18.5876 96.8386 18.4264 99.9873 19.7393C102.214 20.6606 104.823 21.7662 105.903 24.5071C107.14 27.7086 105.385 30.8872 105.048 31.486C104.958 31.0945 104.778 30.4956 104.396 29.9198C103.833 29.0676 103.204 28.7221 102.259 28.0541C101.652 27.5704 100.842 26.9486 99.8974 26.0503Z" fill="#5222D0"/>
<path d="M90.6311 48.8064C91.5985 49.3823 92.7234 49.5205 93.8033 49.1519C94.2082 49.0137 94.0282 48.3458 93.6233 48.484C92.7234 48.7834 91.801 48.6913 90.9686 48.2076C90.5862 48.0003 90.2487 48.5991 90.6311 48.8064Z" fill="black"/>
<path opacity="0.14" d="M89.5739 35.0329C89.7539 35.5627 90.2262 35.9312 90.7435 36.0003C91.3057 36.0694 91.868 35.793 92.1604 35.2863C92.048 36.0464 91.9355 37.5896 92.6327 39.294C93.5773 41.6433 95.4216 42.7489 96.2313 43.2326C98.2105 44.3842 100.1 44.4533 101.022 44.4303C100.819 44.7988 100.37 45.3977 99.605 45.7892C97.7832 46.7105 95.8714 45.4668 95.759 45.3977C95.2642 46.5033 94.7469 47.3094 94.342 47.8852C93.7798 48.6683 93.5549 48.8526 93.3974 48.9217C92.3178 49.5666 90.9009 48.8987 90.4961 48.6914C90.0462 49.129 89.394 49.6818 88.5393 50.2115C87.8196 50.6492 85.8854 51.8008 83.2089 51.8238C83.2089 51.8238 79.6104 51.8238 76.709 49.3363C75.5845 48.3689 75.1121 47.5167 74.9772 47.2403C74.8647 47.01 74.3924 46.0887 74.28 44.5915C74.0326 41.7124 75.2471 39.271 75.9218 38.1654C77.1363 36.1846 78.6882 35.0099 79.6778 34.388C79.6104 34.6414 78.7782 38.2114 80.6225 39.9389C82.9391 42.081 88.1795 40.0541 89.3265 36.9677C89.6189 36.2076 89.6189 35.4936 89.5739 35.0329Z" fill="#3D3D3D"/>
<path opacity="0.07" d="M92.318 41.4131C92.1381 41.5053 92.5655 42.703 92.9703 43.5552C93.6226 44.9602 94.4324 45.9967 95.0172 46.6185C95.1747 46.2039 95.3321 45.7894 95.4896 45.3978C96.0069 45.6281 96.9741 45.9506 98.1888 45.8815C98.9985 45.8354 99.6508 45.6281 100.101 45.4439C96.6367 45.3748 94.8823 44.2922 93.9151 43.3018C93.1278 42.4957 92.498 41.321 92.318 41.4131Z" fill="#3D3D3D"/>
<path d="M96.2763 48.3459C95.0617 48.6223 92.9251 49.152 91.9355 50.9486C91.2832 52.1233 91.4182 53.367 91.4632 53.8046C91.6881 55.7624 93.015 57.3978 94.5219 58.1118C96.3662 58.964 98.278 58.3191 99.2451 57.9736C107.657 55.0024 111.863 53.5283 113.572 52.653C118.52 50.0964 124.03 47.2173 130.305 41.8737C131.925 40.4917 133.207 39.2709 134.106 38.3957C134.466 38.603 135.276 38.9946 136.243 38.8794C137.03 38.7873 137.547 38.4187 138.312 37.8659C138.852 37.4744 139.482 37.0137 140.044 36.1615C140.584 35.3554 140.764 34.6414 140.921 34.0425C141.079 33.3746 141.393 32.1768 140.989 31.9235C140.696 31.7392 140.381 32.2459 139.594 32.269C139.527 32.269 138.56 32.269 138.132 31.6471C137.727 31.0713 138.155 30.5415 137.795 30.0809C137.412 29.5741 136.423 29.6202 135.793 29.8045C134.331 30.2651 133.634 31.9235 133.184 32.7987C131.947 35.3093 130.17 36.6682 126.864 39.2249C124.3 41.2057 122.006 42.127 118.925 43.3938C117.71 43.9005 115.394 44.8219 112.335 45.5819C107.184 46.8257 103.114 46.7796 96.2763 48.3459Z" fill="white"/>
<path d="M92.588 50.7183C94.9045 48.346 98.5481 48.2538 101.607 47.8162C105.183 47.3095 108.759 46.7567 112.268 45.9045C118.498 44.4304 124.683 41.9659 129.563 37.6357C130.845 36.4841 132.037 35.2173 133.027 33.7662C133.927 32.4533 135.636 28.5838 137.75 30.4264C138.087 30.7028 138.56 30.2191 138.222 29.9427C137.413 29.2287 136.333 29.1827 135.389 29.6664C134.062 30.3573 133.454 31.8775 132.667 33.0982C130.62 36.2768 127.517 38.7182 124.323 40.5839C117.598 44.4995 109.861 45.9045 102.304 47.0331C98.8855 47.5398 94.7471 47.5859 92.1381 50.2346C91.8008 50.5341 92.2731 51.0178 92.588 50.7183Z" fill="black"/>
<path d="M92.0929 49.8892C90.586 52.5149 90.8784 55.9929 93.3974 57.8585C96.4112 60.0927 100.64 57.9737 103.721 56.8912C110.985 54.3115 117.913 50.8105 124.345 46.4803C127.921 44.0849 131.317 41.4131 134.534 38.534C134.871 38.2346 134.376 37.7509 134.061 38.0503C123.963 47.0792 111.705 54.2194 98.7053 57.7894C96.4787 58.4113 94.1621 58.2731 92.7227 56.2002C91.4632 54.4267 91.6206 52.0773 92.6777 50.2577C92.9026 49.8662 92.3178 49.5207 92.0929 49.8892Z" fill="black"/>
<path d="M140.562 31.4399C140.674 31.9696 140.787 32.5454 140.742 33.0982C140.652 33.8583 140.292 34.1117 140.022 34.7336C139.91 35.0099 139.887 35.2863 139.797 35.5627C139.617 36.1846 139.37 36.3228 138.942 36.6913C138.47 37.0829 138.2 37.5436 137.795 37.9812C137.143 38.6952 136.761 38.4649 135.951 38.3727C135.366 38.3036 134.759 38.2115 134.174 38.1424C133.747 38.0963 133.747 38.7873 134.174 38.8334C135.141 38.9716 136.783 39.5474 137.683 39.0637C138.043 38.8795 138.245 38.534 138.47 38.2115C138.763 37.7969 139.032 37.4514 139.482 37.2211C139.707 37.1059 139.82 37.1981 140.022 37.0138C140.27 36.8065 140.337 36.461 140.405 36.1616C140.562 35.4245 140.787 34.9408 141.102 34.2959C141.574 33.3516 141.417 32.2921 141.214 31.3017C141.124 30.818 140.472 31.0022 140.562 31.4399Z" fill="black"/>
<path d="M137.795 30.1503C137.278 30.9334 137.682 32.062 138.492 32.4305C139.437 32.8682 140.495 32.2232 140.967 31.371C141.192 30.9795 140.607 30.634 140.382 31.0255C140.09 31.5553 139.482 32.039 138.875 31.8317C138.335 31.6705 138.042 30.9795 138.38 30.4958C138.605 30.1273 138.02 29.7818 137.795 30.1503Z" fill="black"/>
<path d="M92.363 50.6722C93.0828 49.2211 95.692 48.6683 97.1315 48.4841C97.5589 48.415 97.379 47.747 96.9516 47.8161C95.3321 48.0464 92.6104 48.6913 91.7782 50.3267C91.5982 50.7182 92.183 51.0868 92.363 50.6722Z" fill="black"/>
<path opacity="0.13" d="M91.5982 54.0122C93.6224 53.874 96.5687 53.5976 100.055 52.9066C110.041 50.9489 117.148 47.1484 121.489 44.7991C125.087 42.8413 129.856 39.9161 135.096 35.7011C137.39 34.9411 138.807 33.9046 139.707 33.0754C140.314 32.5226 140.764 31.9698 140.989 32.085C141.349 32.2923 140.786 34.204 140.022 35.586C139.347 36.8297 138.56 37.5438 138.312 37.7741C137.682 38.3269 137.323 38.7184 136.715 38.8797C135.591 39.1791 134.579 38.5572 134.241 38.3269C133.409 38.9948 132.195 39.9852 130.688 41.1599C124.615 45.8816 121.556 48.254 117.53 50.5112C113.819 52.5842 110.716 53.828 104.666 56.2234C104.103 56.4537 103.361 56.7071 101.877 57.2138C97.9182 58.5727 96.9736 58.7339 95.8715 58.5266C95.4217 58.4345 94.3196 58.2272 93.3075 57.3289C91.9806 56.1082 91.6882 54.542 91.5982 54.0122Z" fill="#3D3D3D"/>
<path opacity="0.19" d="M109.433 54.1733C109.388 54.1042 109.771 53.7818 118.205 48.3C129.316 41.0677 128.528 41.7126 129.698 40.8373C134.556 37.1521 136.715 34.6645 137.84 35.4016C138.604 35.9083 138.739 37.7509 137.907 38.5571C137.187 39.2711 135.681 39.202 134.331 38.1886C131.61 40.6761 127.561 44.0619 122.231 47.4938C115.933 51.4785 109.591 54.4497 109.433 54.1733Z" fill="#3D3D3D"/>
</svg>
