<svg width="181" height="181" viewBox="0 0 181 181" fill="none" xmlns="http://www.w3.org/2000/svg">
<path d="M153.063 41.4196L80.9191 11.5622C65.4897 5.17657 47.8051 12.508 41.4195 27.9374L11.5621 100.081C5.1765 115.51 12.5079 133.195 27.9373 139.58L100.081 169.438C115.51 175.823 133.195 168.492 139.58 153.063L169.438 80.9191C175.823 65.4897 168.492 47.8052 153.063 41.4196Z" fill="#95C6FF"/>
<path d="M71.8195 17.8842C72.212 25.4594 72.3101 33.0983 74.1743 40.3871C75.9159 47.1667 78.8349 53.3733 82.6615 58.4977C82.9804 58.9433 82.4652 59.6117 82.1464 59.1661C78.3198 54.0417 75.3763 47.8669 73.5856 41.1192C71.5988 33.6394 71.5006 25.7141 71.0836 17.8842C71.0591 17.2794 71.795 17.2794 71.8195 17.8842Z" fill="#161616"/>
<path d="M71.2697 18.1815C61.6285 18.0224 51.9627 18.0542 42.3215 18.3088C39.862 18.3724 37.4025 18.4679 34.9676 18.5634C33.7133 18.6271 31.7949 18.1497 31.1308 19.8683C30.6635 21.0777 30.6881 23.0191 30.5405 24.3558C29.9011 30.2119 29.7781 36.1635 30.1224 42.0514C30.5159 48.735 31.5489 55.3231 33.1476 61.6884C33.2952 62.2613 32.5819 62.5159 32.4343 61.943C29.4338 50.0081 28.4746 37.2774 29.7535 24.8332C29.8765 23.5284 30.0486 22.2235 30.2208 20.9504C30.3438 20.0274 30.4176 18.8498 31.057 18.2451C31.6719 17.6404 32.5327 17.7359 33.246 17.7041C34.6479 17.6404 36.0252 17.5768 37.4271 17.545C42.7396 17.354 48.0521 17.2267 53.3646 17.1949C59.3411 17.1312 65.3177 17.163 71.2697 17.2585C71.737 17.2585 71.737 18.2133 71.2697 18.1815Z" fill="#161616"/>
<path d="M82.4946 59.71C69.9997 64.1922 56.7915 64.6657 44.0998 61.162C43.6325 61.0357 43.8292 60.1204 44.2966 60.2466C56.8407 63.7503 69.9259 63.2453 82.2978 58.7947C82.7652 58.6368 82.9619 59.5206 82.4946 59.71Z" fill="#161616"/>
<path d="M32.4876 20.4348C33.052 34.3615 35.997 47.9695 41.1017 60.2072C41.3225 60.7489 40.6844 61.227 40.4636 60.6852C35.3099 48.2882 32.3158 34.5209 31.7513 20.4348C31.7268 19.8293 32.463 19.8293 32.4876 20.4348Z" fill="#161616"/>
<path d="M32.3866 23.1325C31.6902 27.3741 31.9887 31.6476 32.5607 35.8573C33.0582 39.5249 33.6302 43.1925 34.2769 46.86C35.5454 54.0357 37.2616 61.1157 40.5447 67.207C40.8183 67.7173 40.1716 68.1957 39.898 67.6854C36.4905 61.3708 34.7495 54.0038 33.4561 46.573C32.1379 38.9827 30.372 30.659 31.6653 22.8774C31.7648 22.2714 32.4861 22.5265 32.3866 23.1325Z" fill="#161616"/>
<path d="M31.8936 26.2067C31.0292 40.6449 32.8568 55.1785 37.2281 68.5355C37.401 69.1079 36.6848 69.3624 36.5119 68.7899C32.1406 55.3694 30.2883 40.7403 31.1527 26.2067C31.1774 25.6024 31.9183 25.6024 31.8936 26.2067Z" fill="#161616"/>
<path d="M77.7964 67.6305C65.4826 70.4107 52.8985 70.3137 40.6094 67.3719C40.1424 67.2749 40.339 66.3373 40.806 66.4343C52.9477 69.3439 65.4335 69.4409 77.5998 66.693C78.0668 66.596 78.2634 67.5335 77.7964 67.6305Z" fill="#161616"/>
<path d="M76.174 62.2134C76.724 63.4162 77.4414 64.4291 78.3023 65.252C78.6848 65.6002 78.3262 66.4232 77.9436 66.075C76.9871 65.1571 76.174 64.0492 75.5762 62.7198C75.3132 62.1817 75.9349 61.7069 76.174 62.2134Z" fill="#161616"/>
<path d="M74.4759 69.2309C74.818 70.0294 75.2128 70.7958 75.6866 71.4985C76.0024 71.9775 75.4497 72.6482 75.1339 72.1691C74.6075 71.4026 74.1601 70.6042 73.8179 69.71C73.5811 69.1671 74.239 68.6561 74.4759 69.2309Z" fill="#161616"/>
<path d="M75.1632 72.771C62.8152 74.6309 50.2708 73.6221 38.1929 69.7762C37.7264 69.6186 37.9228 68.7044 38.3892 68.8621C50.3936 72.6764 62.8643 73.6537 75.1632 71.7938C75.6296 71.7622 75.6296 72.7079 75.1632 72.771Z" fill="#161616"/>
<path d="M69.1414 30.7173C58.4918 28.8761 47.7435 29.7499 37.0693 30.6861C36.6009 30.7173 36.6009 29.7811 37.0693 29.7499C47.8175 28.8137 58.615 27.9399 69.3386 29.8123C69.807 29.8747 69.6098 30.7797 69.1414 30.7173Z" fill="#161616"/>
<path d="M72.1915 44.9806C62.2489 45.1749 52.3308 45.7898 42.4374 46.8256C41.9709 46.8903 41.9709 45.9193 42.4374 45.8546C52.3308 44.7864 62.2489 44.1715 72.1915 44.0096C72.6825 44.0096 72.6825 44.9806 72.1915 44.9806Z" fill="#161616"/>
<path d="M75.1618 52.3353C64.1199 52.9947 53.078 53.6856 42.0361 54.345C41.5678 54.3764 41.5678 53.4344 42.0361 53.403C53.078 52.7435 64.1199 52.0527 75.1618 51.3933C75.6301 51.3619 75.6301 52.3039 75.1618 52.3353Z" fill="#161616"/>
<path d="M65.9887 39.4283C68.1075 45.8558 70.1266 52.3151 71.9961 58.8699C72.1706 59.4426 71.4477 59.6972 71.2732 59.1245C69.4037 52.6651 67.4345 46.2695 65.3406 39.9374C65.1662 39.3647 65.8143 38.8556 65.9887 39.4283Z" fill="#161616"/>
<path d="M57.802 40.4887C60.2167 46.8489 62.2168 53.3999 63.9486 60.0781C64.095 60.6505 63.3876 60.9049 63.2413 60.3325C61.5339 53.7179 59.5582 47.2305 57.1678 40.9657C56.9483 40.4251 57.5825 39.9481 57.802 40.4887Z" fill="#161616"/>
<path d="M48.2934 41.2749C51.1271 47.1773 53.2399 53.5902 54.5573 60.3221C54.6816 60.9283 53.9608 61.1836 53.8365 60.5774C52.5439 53.9092 50.456 47.5921 47.6471 41.7535C47.3986 41.243 48.0449 40.7644 48.2934 41.2749Z" fill="#161616"/>
<path d="M41.0177 41.6959C43.3216 47.4776 45.2824 53.4816 46.9001 59.6763C47.0471 60.2481 46.3363 60.5022 46.1893 59.9304C44.5961 53.8311 42.6598 47.9223 40.3804 42.2042C40.1843 41.6324 40.7971 41.1559 41.0177 41.6959Z" fill="#161616"/>
<path d="M73.2995 47.293C72.2162 47.9297 71.3053 48.7894 70.4928 49.9037C70.1728 50.3495 69.6558 49.6809 69.9758 49.2351C70.8129 48.0571 71.7977 47.1338 72.9302 46.4652C73.3734 46.2423 73.7427 47.0383 73.2995 47.293Z" fill="#161616"/>
<path d="M69.8844 45.6927C71.442 46.9128 72.8048 48.4541 73.9486 50.2843C74.2406 50.7659 73.7295 51.4402 73.4375 50.9586C72.3181 49.1605 71.0282 47.6835 69.5194 46.5275C69.1057 46.2064 69.4707 45.3716 69.8844 45.6927Z" fill="#161616"/>
<path d="M60.0392 55.6465C58.6441 56.6953 57.4484 57.9984 56.402 59.5557C56.1031 60.0324 55.555 59.3332 55.8789 58.8883C56.9501 57.2674 58.2206 55.9008 59.6655 54.8202C60.0641 54.5024 60.4378 55.3287 60.0392 55.6465Z" fill="#161616"/>
<path d="M55.7775 54.2965C57.3913 55.8251 58.8789 57.5447 60.2405 59.4236C60.5683 59.8694 60.0388 60.57 59.711 60.0923C58.3999 58.2453 56.9626 56.5894 55.3993 55.0926C55.0211 54.7742 55.3993 53.9462 55.7775 54.2965Z" fill="#161616"/>
<path d="M66.9424 45.8997C65.668 47.4293 64.3936 48.9271 63.1192 50.4567C62.7761 50.871 62.2615 50.2018 62.6046 49.7875C63.879 48.2579 65.1534 46.7601 66.4278 45.2304C66.7709 44.7843 67.2855 45.4535 66.9424 45.8997Z" fill="#161616"/>
<path d="M62.6457 45.1547C64.47 46.4871 66.0694 48.2003 67.3689 50.2941C67.6688 50.77 67.144 51.4362 66.8441 50.9603C65.5696 48.9299 64.0452 47.2802 62.2709 45.9795C61.846 45.6623 62.2459 44.8374 62.6457 45.1547Z" fill="#161616"/>
<path d="M57.5961 52.2942C59.3554 51.0404 59.5997 47.9218 57.9138 46.3143C56.6432 45.1247 54.0531 44.1281 53.0757 46.3143C52.2205 48.2755 53.2468 50.6546 54.4685 51.8441C56.3744 53.6767 57.7183 51.6512 58.5979 49.5615C58.8178 49.0149 59.4531 49.4972 59.2332 50.0437C58.1092 52.7122 56.3011 54.802 54.0531 52.6479C52.3916 51.0725 51.2431 47.7289 52.6603 45.3498C54.1264 42.9064 57.4739 44.1924 58.8911 46.1214C60.4794 48.3076 59.893 51.6834 57.9626 53.0658C57.5472 53.4195 57.1807 52.5836 57.5961 52.2942Z" fill="#161616"/>
<path d="M67.9679 20.4393C68.3812 22.6428 68.5118 24.8783 68.2942 27.1776C68.2507 27.7844 67.5762 27.7844 67.6415 27.1776C67.8373 24.9741 67.7503 22.8344 67.3369 20.6948C67.2281 20.12 67.8591 19.8645 67.9679 20.4393Z" fill="#161616"/>
<path d="M67.5114 21.0184C58.2858 19.6914 48.9865 19.3755 39.7118 20.1022C39.8345 19.9442 39.9572 19.7862 40.0799 19.6282C39.9572 21.4924 39.9817 23.3249 40.2271 25.1575C40.3007 25.7578 39.5891 26.0105 39.5155 25.4102C39.2702 23.4829 39.1965 21.5872 39.3438 19.6282C39.3683 19.3755 39.491 19.1859 39.7118 19.1543C48.9865 18.4276 58.2858 18.7435 67.5114 20.0706C67.9776 20.1338 67.9776 21.0816 67.5114 21.0184Z" fill="#161616"/>
<path d="M66.8376 26.8268C57.944 26.5684 49.0505 26.31 40.1569 26.0516C39.6876 26.0516 39.6876 25.0825 40.1569 25.0825C49.0505 25.3409 57.944 25.5994 66.8376 25.8578C67.307 25.8901 67.307 26.8591 66.8376 26.8268Z" fill="#161616"/>
<path d="M108.829 154.88C108.829 156.521 108.829 158.148 108.829 159.79C97.2065 164.396 94.8384 166.037 95.0127 166.633C95.0563 166.778 95.3614 167.214 101.463 166.502C107.507 165.79 112.403 164.759 115.802 163.916C115.207 160.56 114.597 157.204 114.001 153.848C112.272 154.197 110.543 154.545 108.829 154.88Z" fill="#161616"/>
<path d="M114.044 85.3915C113.71 86.0162 113.594 86.5247 113.565 86.6409C111.487 95.474 108.77 100.69 106.998 110.932C103.613 130.661 106.533 153.078 106.809 155.185C107.739 155.592 109.526 156.202 111.807 156.115C113.812 156.027 115.366 155.432 116.252 155.01C115.918 148.574 116.252 140.628 118.475 131.867C121.192 121.131 124.635 117.571 127.73 105.019C130.025 95.721 132.684 84.8976 128.093 81.6868C124.577 79.188 116.339 81.0185 114.044 85.3915Z" fill="#EC615B"/>
<path opacity="0.2" d="M122.078 90.0258C119.753 100.631 117.589 111.934 115.758 123.891C114.029 135.136 112.736 145.901 111.777 156.129C113.245 155.824 114.698 155.519 116.165 155.214C115.976 150.695 116.179 146.845 116.47 143.896C116.819 140.235 117.705 131.707 121.264 123.194C121.729 122.104 122.325 120.782 123.298 118.298C124.94 114.186 126.131 110.67 126.669 109.014C129.197 101.111 130.461 91.9435 130.853 88.9217C127.918 89.2704 124.998 89.6481 122.078 90.0258Z" fill="#6D6C6C"/>
<path opacity="0.19" d="M126.873 108.491C121.178 115.915 118.519 122.641 117.182 127.16C115.962 131.271 115.424 134.903 114.727 139.61C113.739 146.293 113.361 151.93 113.202 155.94C114.161 155.707 115.105 155.46 116.064 155.228C115.904 149.606 116.296 144.797 116.776 141.049C117.357 136.603 118.025 131.445 120.35 125.242C121.192 122.99 121.599 122.351 123.517 117.484C124.999 113.678 126.132 110.554 126.873 108.491Z" fill="#6D6C6C"/>
<path d="M140.21 153.209C141.023 155.228 141.851 157.248 142.665 159.282C135.837 163.626 132.611 166.154 132.975 166.895C133.425 167.81 139.323 165.994 150.67 161.476C149.464 157.553 148.258 153.645 147.052 149.722C144.771 150.885 142.491 152.047 140.21 153.209Z" fill="#161616"/>
<path d="M134.602 85.566C138.161 88.8203 138.045 93.3821 138.495 100.937C138.495 100.937 139.599 119.518 143.304 134.453C144.234 138.187 145.919 143.984 149.043 150.928C148.52 151.596 147.096 153.224 144.597 154.081C142.04 154.952 139.861 154.488 139.047 154.27C134.602 146.686 131.449 140.221 129.415 135.746C119.986 115.087 119.231 104.206 119.231 98.5251C119.231 92.6847 119.333 85.6822 123.677 83.3431C126.945 81.5852 131.74 82.9509 134.602 85.566Z" fill="#EC615B"/>
<path opacity="0.15" d="M124.519 87.7887C126.132 93.9923 127.875 100.297 129.735 106.69C134.587 123.281 139.861 138.957 145.396 153.659C145.934 153.383 146.588 153.006 147.256 152.497C147.939 151.974 148.476 151.451 148.883 150.986C148.128 149.228 147.082 146.686 145.978 143.562C144.307 138.783 141.59 129.993 140.181 118.283C138.83 107.039 138.147 101.416 138.205 97.8713C138.249 94.9511 138.51 89.0091 134.733 85.8129C133.948 85.1591 133.178 84.7669 132.641 84.5344C129.924 85.624 127.222 86.7136 124.519 87.7887Z" fill="#6D6C6C"/>
<path opacity="0.22" d="M138.379 101.648C137.711 108.404 137.493 117.455 139.12 127.915C140.762 138.434 143.74 147.02 146.428 153.267C147.256 152.584 148.084 151.901 148.912 151.204C147.924 148.865 146.631 145.611 145.338 141.63C142.854 133.973 141.779 128.002 140.849 122.641C139.905 117.15 138.917 110.046 138.379 101.648Z" fill="#6D6C6C"/>
<path d="M70.3581 32.4946C69.777 32.7852 68.9779 33.2937 68.3532 34.1654C68.0191 34.6157 67.6123 35.2114 67.5542 36.054C67.5396 36.3882 67.4961 37.1146 67.961 37.594C68.0917 37.7393 68.4404 38.0153 70.1547 37.9572C71.6802 37.8991 72.4502 37.87 72.8424 37.4633C73.5979 36.6787 73.3218 35.1969 72.8424 34.3106C72.0869 32.9014 70.6051 32.5527 70.3581 32.4946Z" fill="white" stroke="#161616" stroke-width="2"/>
<path d="M79.1337 36.1412C81.1821 38.4802 84.4655 39.8749 90.4947 42.3592C98.0929 45.4973 101.899 47.0663 106.403 47.6184C111.27 48.2141 113.87 47.5893 114.771 49.1729C115.948 51.2214 113.188 55.0568 110.34 58.2675C108.219 57.8026 106.025 57.2215 103.759 56.466C91.3373 52.3546 82.3589 45.1196 76.4605 39.1049C75.7196 39.2647 74.4556 39.4245 73.0173 38.9887C71.7824 38.6255 70.0391 37.6957 70.1407 36.9547C70.2715 36.054 73.4241 35.8942 73.613 35.8797C72.6541 35.4874 71.2739 34.8191 69.7775 33.7295C69.3417 33.4099 66.8429 31.5648 67.148 30.9837C67.4095 30.4752 69.6758 31.1725 71.8115 31.8263C73.7583 32.422 75.1094 32.8433 76.5913 33.8602C78.015 34.8191 78.8431 35.807 79.1337 36.1412Z" fill="white" stroke="#161616" stroke-width="2"/>
<path d="M69.0798 32.6542C69.4285 33.0464 69.5011 33.5695 69.8062 33.9762C70.0677 34.3395 70.4454 34.601 70.8377 34.8189C72.0145 35.4726 73.2639 36.0102 74.4697 36.6058C74.6731 36.7075 74.9346 36.4315 74.7312 36.2572C74.1065 35.7196 73.4382 35.2402 72.7409 34.8044C72.5084 34.6591 72.276 35.0368 72.523 35.1821C73.1913 35.6034 73.8305 36.0538 74.4261 36.5623C74.5133 36.446 74.6005 36.3298 74.6877 36.2136C73.5399 35.6615 72.3922 35.124 71.259 34.5283C70.7215 34.2523 70.242 33.9327 69.966 33.3806C69.7771 33.0029 69.6754 32.6397 69.3849 32.32C69.196 32.1457 68.8909 32.4508 69.0798 32.6542Z" fill="white"/>
<path d="M70.213 34.18C70.8813 34.4706 71.5206 34.8483 72.1017 35.2987C72.3196 35.473 72.6247 35.1679 72.4068 34.9936C71.7966 34.5142 71.1428 34.1219 70.431 33.8023C70.1695 33.6861 69.9515 34.0638 70.213 34.18Z" fill="white"/>
<path d="M68.4988 32.3924C69.0509 33.2786 69.7773 34.005 70.6345 34.5861C70.8669 34.7459 71.0848 34.3682 70.8524 34.2084C70.0533 33.6708 69.385 32.988 68.8765 32.1599C68.7313 31.942 68.3535 32.1599 68.4988 32.3924Z" fill="white"/>
<path d="M69.1524 33.584C69.443 33.9763 69.7626 34.3395 70.1258 34.6591C70.3873 34.8916 71.535 35.7197 70.9394 36.141C70.8232 36.2136 70.9394 36.4025 71.0556 36.3298C71.4624 36.0538 71.3026 35.5598 71.0556 35.2257C70.8667 34.9787 70.6052 34.7899 70.3583 34.5719C69.9805 34.2378 69.6464 33.8746 69.3413 33.4823C69.2541 33.3516 69.0652 33.4678 69.1524 33.584Z" fill="#161616"/>
<path d="M68.8473 35.0949C69.2831 35.6905 70.1112 36.5331 70.9248 36.2862C71.0556 36.2426 70.9975 36.0392 70.8667 36.0828C70.1693 36.3007 69.3994 35.5016 69.0362 34.9932C68.949 34.8769 68.7601 34.9786 68.8473 35.0949Z" fill="#161616"/>
<path d="M68.2081 36.1124C68.6876 36.7662 69.3849 37.1439 70.1985 37.1875C70.3438 37.202 70.3438 36.9841 70.1985 36.9696C69.4721 36.926 68.8329 36.5773 68.397 35.9962C68.3098 35.88 68.121 35.9962 68.2081 36.1124Z" fill="#161616"/>
<path d="M67.7433 37.4202C68.4261 38.1321 69.5593 38.1466 70.2421 37.4202C70.3438 37.3185 70.184 37.1587 70.0823 37.2604C69.4867 37.8997 68.4988 37.8851 67.9031 37.2604C67.8014 37.1587 67.6416 37.3185 67.7433 37.4202Z" fill="#161616"/>
<path d="M67.8885 32.364C69.5011 33.4245 70.6634 35.2115 72.6828 35.5602C72.8136 35.5892 72.8862 35.3713 72.7409 35.3568C70.7506 35.0226 69.5883 33.2357 68.0047 32.1896C67.874 32.0879 67.7723 32.2768 67.8885 32.364Z" fill="#161616"/>
<path opacity="0.2" d="M67.7146 37.1143C67.1916 36.4024 67.6274 34.8769 68.8914 33.4387C70.3152 34.2668 71.7244 35.1094 73.1481 35.9375C72.8866 35.9375 70.5912 35.9666 70.4314 36.6784C70.4023 36.7947 70.4314 36.969 70.6493 37.216C71.3757 37.5647 72.5961 38.0296 74.1651 38.0731C74.9787 38.0877 75.6906 37.986 76.2426 37.8552C79.2064 40.848 84.422 45.3663 92.0929 48.6496C98.8339 51.5262 104.878 52.3543 108.873 52.5868C108.742 54.3011 108.611 56.0009 108.481 57.7152C101.899 55.9718 92.9791 52.6594 84.1169 46.0055C81.095 43.7391 78.509 41.4001 76.3008 39.1482C74.2668 39.4824 73.0029 39.1337 72.2038 38.7269C71.521 38.3782 71.0851 37.9424 70.1844 37.8697C69.5887 37.8262 69.0803 37.9714 68.4265 37.6518C68.3539 37.6228 67.9325 37.4048 67.7146 37.1143Z" fill="#6D6C6C"/>
<path opacity="0.14" d="M86.4266 47.3714C88.4605 48.461 90.8141 49.5652 93.5018 50.5095C99.3566 52.587 104.659 53.2408 108.713 53.3861C108.655 54.8679 108.611 56.3643 108.553 57.8462C104.34 56.8583 99.0515 55.1294 93.4437 51.9914C90.7559 50.495 88.4314 48.9114 86.4266 47.3714Z" fill="#6D6C6C"/>
<path d="M109.395 51.5115C108.567 53.3857 108.524 54.9402 108.451 57.7296C108.393 59.8362 108.538 62.1026 109.671 68.0591C111.052 75.2651 111.705 76.4273 111.923 80.2482C112.098 83.241 111.865 85.6963 111.647 87.3234C113.478 88.3259 116.543 89.6915 120.553 89.9966C127.643 90.5342 132.887 87.4106 134.689 86.2193C134.907 81.6575 135.125 77.0811 135.357 72.5193C134.558 68.6257 133.614 65.5748 132.931 63.5699C130.781 57.2502 128.776 54.2574 130.054 51.0902C130.766 49.3323 132.176 48.2572 133.149 47.6616C132.466 47.1386 125.304 41.8358 117.488 44.5816C116.674 44.8577 111.531 46.6737 109.395 51.5115Z" fill="white" stroke="#161616" stroke-width="2"/>
<path opacity="0.19" d="M117.459 44.5677C119.638 48.0545 120.858 51.1345 121.556 53.2846C121.556 53.2846 124.97 63.6577 122.471 77.5757C121.933 80.5395 120.974 84.7526 119.086 89.576C119.812 89.7358 120.684 89.8665 121.672 89.9101C121.672 89.9101 123.197 89.9827 124.912 89.7648C127.004 89.4888 130.592 88.3701 134.82 86.22C134.892 81.353 134.965 76.5006 135.038 71.6337C133.963 67.5222 132.873 64.2243 132.059 61.9144C130.098 56.4082 128.718 53.8222 129.851 51.0909C130.592 49.3039 132.103 48.1998 133.28 47.5605C131.74 46.5436 128.892 44.96 124.999 44.3498C121.788 43.8559 119.144 44.2045 117.459 44.5677Z" fill="#6D6C6C"/>
<path opacity="0.11" d="M119.449 44.2332C121.788 47.1097 124.52 51.3084 126.205 56.8436C130.985 72.6502 123.125 86.5101 121.309 89.5465C122.834 89.5319 124.621 89.4012 126.568 89.0234C130.04 88.3552 132.815 87.1638 134.806 86.1033C134.878 81.5705 134.951 77.0377 135.024 72.5195C133.789 68.3208 132.626 64.3401 131.043 58.9356C129.968 55.231 129.125 52.1946 130.709 49.7684C131.479 48.5916 132.554 47.9378 133.367 47.5601C128.733 46.4414 124.084 45.3373 119.449 44.2332Z" fill="#6D6C6C"/>
<path d="M132.364 47.2701C135.401 46.8633 139.018 53.8368 140.456 58.849C142.113 64.6167 141.386 69.5998 140.791 72.2294C139.628 77.3869 137.217 81.019 135.706 82.9803C135.938 83.7503 136.476 85.8423 135.59 88.1378C134.282 91.4938 130.737 93.1064 130.461 92.8013C130.374 92.6996 130.548 92.2783 131.928 90.6947C131.638 90.9998 129.546 93.0773 127.192 92.5834C126.785 92.4962 126.277 92.3945 125.986 91.9877C125.304 90.9998 126.437 88.7625 128.848 86.2782C126.219 86.9319 125.521 86.7576 125.391 86.467C125.057 85.7697 127.744 83.7938 128.718 83.0674C130.156 82.0069 131.449 81.2805 132.335 80.8301C134.82 75.6726 134.689 71.6483 134.471 69.7596C134.151 66.9702 133.105 63.9339 132.902 63.3527C132.321 61.682 132.045 61.3043 130.882 58.2969C129.008 53.4736 129.008 52.6455 129.081 52.0062C129.342 50.0885 130.635 47.5025 132.364 47.2701Z" fill="white" stroke="#161616" stroke-width="2"/>
<path d="M126.045 91.5807C127.658 90.6654 129.067 89.4886 130.244 88.0649C130.418 87.847 130.113 87.5419 129.938 87.7598C128.791 89.1545 127.411 90.3167 125.827 91.2175C125.58 91.3337 125.798 91.7114 126.045 91.5807Z" fill="#161616"/>
<path d="M127.469 92.5537C129.067 91.7256 130.432 90.5778 131.537 89.1541C131.711 88.9362 131.333 88.7182 131.159 88.9362C130.113 90.3018 128.776 91.3914 127.251 92.1759C127.004 92.3067 127.222 92.6844 127.469 92.5537Z" fill="#161616"/>
<path opacity="0.17" d="M131.144 47.9665C128.253 50.4799 140.05 61.5068 138.03 74.03C136.65 82.6162 130.926 88.224 130.926 88.224C129.328 89.8221 126.321 91.7834 126.684 92.4662C126.945 92.9602 128.761 92.5098 129.415 92.3064C130.65 91.9287 131.507 91.2895 131.987 90.8681C131.26 91.6817 130.432 92.6842 130.607 92.8876C130.853 93.1491 132.916 92.074 134.209 90.5631C136.447 87.948 136.127 84.316 135.909 82.8341C136.432 82.1513 137.115 81.1924 137.812 79.972C138.452 78.8824 140.297 75.4828 141.096 70.8629C142.505 62.6835 139.614 56.233 138.452 53.7051C137.406 51.4533 135.633 47.7195 132.946 47.5597C132.597 47.5161 131.711 47.4726 131.144 47.9665Z" fill="#6D6C6C"/>
<path opacity="0.22" d="M140.936 70.6307C140.152 72.9116 139.222 75.3087 138.118 77.8221C137.333 79.6091 136.534 81.2798 135.721 82.8634C135.314 84.1709 134.544 86.1322 133.018 88.1516C131.42 90.2727 129.662 91.5657 128.486 92.3067C128.82 92.3212 129.226 92.2922 129.677 92.1759C130.81 91.9144 131.565 91.2897 131.943 90.912C131.507 91.464 131.057 92.0016 130.621 92.5537C130.97 92.4955 131.522 92.3938 132.132 92.1178C135.328 90.6795 135.997 86.7715 136.04 86.5099C136.156 85.7981 136.229 84.5777 135.793 83.0668C136.839 81.8319 138.161 79.9868 139.222 77.5025C140.399 74.7712 140.791 72.3159 140.936 70.6307Z" fill="#6D6C6C"/>
<path d="M106.054 37.7102C103.715 40.3834 105.327 44.1171 105.545 44.6256C106.359 46.5143 108.466 49.202 111.139 48.984C113.085 48.8097 114.32 47.168 114.625 46.7322C116.776 43.6377 116.064 37.7247 112.432 36.1993C110.427 35.3566 107.666 35.8506 106.054 37.7102Z" fill="#5222D0"/>
<path d="M111.953 40.0926C112.054 41.2403 113.26 41.4873 114.074 43.376C114.655 44.7416 114.655 46.0782 114.553 47.0371C115.497 47.1242 117.241 47.1678 119.217 46.4124C120.771 45.8167 121.861 44.9595 122.515 44.3639C122.209 43.6811 121.759 42.6786 121.222 41.4873C118.897 36.417 118.519 35.9811 117.953 35.7632C115.686 34.9061 111.764 37.957 111.953 40.0926Z" fill="white" stroke="#161616" stroke-width="2"/>
<path d="M103.584 25.085C103.09 25.7824 102.785 26.6396 102.742 30.3152C102.713 33.4533 102.887 36.3153 103.178 38.8577C103.831 38.48 104.485 38.1023 105.139 37.7245C105.429 38.4364 105.923 39.4098 106.766 40.3541C108.437 42.2283 110.471 42.8675 111.371 43.1C112.316 42.8675 114.669 42.1411 116.456 39.9183C117.633 38.4364 118.011 36.9691 118.098 36.6349C118.636 34.4412 118.113 32.6252 117.836 31.8697C118.185 31.7099 118.723 31.4048 119.13 30.8527C119.987 29.6905 120.219 27.6129 119.159 26.9156C118.374 26.3926 116.979 26.6977 115.933 27.7728C115.701 27.2352 115.338 26.4943 114.757 25.7243C114.611 25.5354 113.522 24.1117 112.185 23.3707C109.614 21.8889 105.357 22.5862 103.584 25.085Z" fill="white" stroke="#161616" stroke-width="2"/>
<path d="M102.524 29.6469C101.943 29.5452 100.868 29.2401 100.36 28.3539C99.4879 26.8575 100.766 24.5765 101.086 24.01C101.348 23.5305 102.045 22.3828 105.009 20.3053C107.261 18.7217 108.394 17.9372 109.614 17.5595C113.943 16.2664 117.91 18.5038 118.651 18.9251C120.205 19.8113 121.193 20.7702 121.978 21.5256C123.183 22.6879 124.534 24.0245 126.045 25.5645C129.924 30.5912 131.29 35.1821 131.842 37.9279C132.467 41.0369 133.106 44.2041 131.246 46.0637C129.387 47.9233 125.987 47.5456 123.91 46.6593C121.019 45.4244 119.784 42.8094 118.825 40.79C117.198 37.3323 117.096 34.0198 117.256 31.8697C118.709 31.4484 119.45 30.0827 119.115 29.0512C118.854 28.2376 117.881 27.4241 116.878 27.7146C116.108 27.9326 115.556 28.7316 115.6 29.6614C114.902 29.6469 113.043 29.4871 111.27 28.1505C109.977 27.1771 109.323 26.0148 109.018 25.3756C108.219 25.4773 106.621 25.7679 105.009 26.9301C103.658 27.8599 102.902 28.9786 102.524 29.6469Z" fill="#5222D0"/>
<path opacity="0.24" d="M112.141 32.4215C113.885 34.5281 114.437 36.7509 114.437 36.7509C115.003 39.2497 114.19 41.3708 113.826 42.228C114.742 41.5307 115.672 40.8333 116.587 40.1359C117.226 42.2571 117.851 44.3636 118.49 46.4848C118.969 46.4412 119.957 46.2668 120.945 45.5695C121.701 45.0319 122.151 44.4072 122.398 44.015C121.221 42.9254 118.969 40.5137 117.938 36.7218C117.444 34.8913 117.371 33.2641 117.429 32.0438C118.751 31.5062 119.434 30.2132 119.158 29.1381C118.955 28.3536 118.156 27.4093 117.124 27.5546C116.267 27.6853 115.555 28.528 115.57 29.5595C114.916 29.5595 113.376 29.4868 111.763 28.5134C110.093 27.511 109.294 26.1163 108.989 25.5206C109.061 28.31 109.918 29.9227 110.688 30.8815C111.197 31.5353 111.429 31.5643 112.141 32.4215Z" fill="#6D6C6C"/>
<path d="M105.386 31.812C105.226 32.3931 105.241 32.9888 105.458 33.5554C105.531 33.7588 105.807 33.7733 105.88 33.5554C106.054 33.0324 106.054 32.4803 105.894 31.9573C105.807 31.6958 105.386 31.7975 105.473 32.0735C105.618 32.5384 105.604 32.9888 105.458 33.4537C105.604 33.4537 105.735 33.4537 105.88 33.4537C105.691 32.9597 105.662 32.4513 105.807 31.9428C105.88 31.6522 105.473 31.536 105.386 31.812Z" fill="#161616"/>
<path d="M104.863 30.9112C105.24 30.6787 105.705 30.7223 106.025 31.0274C106.228 31.2163 106.533 30.9112 106.33 30.7223C105.88 30.2865 105.182 30.1993 104.645 30.5334C104.412 30.6787 104.63 31.0564 104.863 30.9112Z" fill="#161616"/>
<path d="M106.432 34.6008C106.708 34.6008 106.708 34.165 106.432 34.165C106.141 34.165 106.141 34.6008 106.432 34.6008Z" fill="#161616"/>
<path d="M107.391 33.3377C107.391 33.3522 107.391 33.3667 107.391 33.3813C107.391 33.4975 107.493 33.5992 107.609 33.5992C107.725 33.5992 107.827 33.4975 107.827 33.3813C107.827 33.3667 107.827 33.3522 107.827 33.3377C107.827 33.2214 107.725 33.1198 107.609 33.1198C107.493 33.1198 107.391 33.2069 107.391 33.3377Z" fill="#161616"/>
<path d="M107.434 34.4266C107.71 34.4266 107.71 33.9907 107.434 33.9907C107.158 33.9907 107.158 34.4266 107.434 34.4266Z" fill="#161616"/>
<path d="M101.449 32.48C101.274 33.0611 101.289 33.6568 101.492 34.2234C101.565 34.4268 101.841 34.4268 101.914 34.2234C102.088 33.7003 102.102 33.1483 101.957 32.6253C101.885 32.3492 101.463 32.4655 101.536 32.7415C101.667 33.2064 101.652 33.6568 101.492 34.1071C101.638 34.1071 101.768 34.1071 101.914 34.1071C101.739 33.6132 101.71 33.1047 101.87 32.5962C101.943 32.3202 101.521 32.2039 101.449 32.48Z" fill="#161616"/>
<path d="M101.202 31.3902C101.507 31.2304 101.928 31.3031 102.131 31.5936C102.291 31.8116 102.669 31.5936 102.509 31.3757C102.146 30.8963 101.521 30.7365 100.984 31.0125C100.737 31.1433 100.955 31.521 101.202 31.3902Z" fill="#161616"/>
<path d="M106.098 39.2936C107.216 39.0902 108.19 38.4946 108.916 37.6084C109.047 37.4486 108.815 37.2161 108.684 37.3759C108.001 38.2186 107.086 38.7706 106.011 38.974C105.807 39.0176 105.894 39.3372 106.098 39.2936Z" fill="#161616"/>
<path d="M108.364 37.4052C108.625 37.4924 108.843 37.6231 109.032 37.812C109.177 37.9573 109.41 37.7248 109.264 37.5795C109.032 37.3471 108.756 37.1873 108.451 37.0856C108.247 37.0275 108.16 37.3471 108.364 37.4052Z" fill="#161616"/>
<path opacity="0.45" d="M117.415 18.4027C119.26 20.9597 121.629 24.5772 123.88 29.1971C126.263 34.0786 128.006 37.7542 126.655 39.207C124.868 41.1393 118.694 38.0738 117.706 37.5653C117.909 38.8874 118.418 40.994 119.914 43.1006C120.67 44.1611 121.992 46.0353 124.433 46.9069C125.9 47.43 127.207 47.4009 127.716 47.3573C128.399 47.3137 129.183 47.2556 130.04 46.7907C130.04 46.7907 131.159 46.1951 131.915 44.9747C133.062 43.1151 132.452 40.6017 131.638 37.4491C130.665 33.6718 129.358 31.1584 128.079 28.6741C127.759 28.0639 127.382 27.3521 126.772 26.5239C126.161 25.6813 125.711 25.2309 123.822 23.4149C121.018 20.6982 120.583 20.3059 119.74 19.7393C118.81 19.1001 117.982 18.6787 117.415 18.4027Z" fill="#371B9B"/>
<path opacity="0.43" d="M113.914 43.114C114.031 43.4481 114.292 44.3924 113.914 45.4385C113.348 46.993 111.779 47.516 111.532 47.5886C109.745 48.1697 107.493 47.2545 105.982 45.2641C106.185 45.7871 106.636 46.7169 107.566 47.5305C108.03 47.9373 109.294 49.0269 111.081 48.8962C111.386 48.8671 113.348 48.7218 114.248 47.022C114.902 45.8162 114.757 44.3053 113.914 43.114Z" fill="#371B9B"/>
</svg>
