<svg width="24" height="24" viewBox="0 0 24 24" fill="none" xmlns="http://www.w3.org/2000/svg">
<mask id="path-1-inside-1_1270_12577" fill="white">
<path fill-rule="evenodd" clip-rule="evenodd" d="M17.6569 6.34315L6.34315 17.6569Z"/>
</mask>
<path d="M18.364 7.05026C18.7545 6.65974 18.7545 6.02657 18.364 5.63605C17.9734 5.24552 17.3403 5.24552 16.9498 5.63605L18.364 7.05026ZM5.63604 16.9498C5.24552 17.3403 5.24552 17.9734 5.63604 18.364C6.02657 18.7545 6.65973 18.7545 7.05026 18.364L5.63604 16.9498ZM16.9498 5.63605L5.63604 16.9498L7.05026 18.364L18.364 7.05026L16.9498 5.63605Z" fill="#5D5F5D" mask="url(#path-1-inside-1_1270_12577)"/>
<mask id="path-3-inside-2_1270_12577" fill="white">
<path fill-rule="evenodd" clip-rule="evenodd" d="M17.6568 17.6569L6.34314 6.34315Z"/>
</mask>
<path d="M16.9497 18.364C17.3403 18.7545 17.9734 18.7545 18.364 18.364C18.7545 17.9734 18.7545 17.3403 18.364 16.9498L16.9497 18.364ZM7.05025 5.63605C6.65972 5.24552 6.02656 5.24552 5.63603 5.63605C5.24551 6.02657 5.24551 6.65974 5.63603 7.05026L7.05025 5.63605ZM18.364 16.9498L7.05025 5.63605L5.63603 7.05026L16.9497 18.364L18.364 16.9498Z" fill="#5D5F5D" mask="url(#path-3-inside-2_1270_12577)"/>
</svg>
