<svg width="264" height="41" viewBox="0 0 264 41" fill="none" xmlns="http://www.w3.org/2000/svg">
<path d="M53.5186 31.7349L55.946 28.7456C58.5425 31.2016 61.9954 32.5428 65.5663 32.4822C66.726 32.5158 67.8813 32.3246 68.9687 31.9192C69.7778 31.6173 70.4896 31.1006 71.028 30.4246C71.4706 29.854 71.7151 29.1542 71.7244 28.4317C71.7306 27.6676 71.5108 26.9187 71.0927 26.2794C70.5125 25.4872 69.7564 24.8407 68.8841 24.3912C67.4668 23.6281 65.9792 23.0041 64.4421 22.5278C62.4203 21.8717 60.4782 20.991 58.652 19.9022C57.4292 19.2073 56.4023 18.2131 55.6674 17.0126C55.0918 15.9596 54.7988 14.7752 54.8168 13.5749C54.806 12.1065 55.2529 10.6714 56.0952 9.46956C57.0174 8.19024 58.2595 7.17648 59.6966 6.53007C61.353 5.76578 63.1609 5.38762 64.9843 5.42403C66.779 5.4392 68.5564 5.77669 70.2321 6.42047C71.9723 7.05749 73.5858 7.99877 74.9975 9.20052L72.6148 12.3243C71.567 11.2982 70.3394 10.474 68.9935 9.89304C67.6274 9.30973 66.1559 9.01462 64.6709 9.02615C62.7342 9.02615 61.2817 9.43801 60.3134 10.2617C59.8695 10.6026 59.5083 11.0396 59.2568 11.54C59.0053 12.0404 58.8699 12.5912 58.8609 13.1514C58.8675 13.8047 59.0722 14.4407 59.4479 14.9749C59.9962 15.6833 60.7011 16.2546 61.5072 16.6439C62.8404 17.3258 64.2322 17.886 65.6657 18.3179C67.8139 18.9438 69.8659 19.8624 71.7642 21.0481C73.0793 21.8566 74.1921 22.9558 75.0174 24.2616C75.6693 25.3569 76.0131 26.6085 76.0123 27.8837C76.025 29.3811 75.5883 30.8478 74.7587 32.0936C73.8457 33.4324 72.5754 34.4872 71.0927 35.1377C69.242 35.9388 67.2383 36.3232 65.223 36.2637C63.751 36.2613 62.2858 36.0636 60.8656 35.6758C59.4417 35.3025 58.0661 34.7641 56.7668 34.0715C55.5798 33.4493 54.4863 32.6627 53.5186 31.7349Z" fill="#046AD0"/>
<path d="M80.7825 24.6553C80.7103 22.4635 81.1551 20.2855 82.0808 18.298C82.8589 16.6704 84.0929 15.3046 85.6324 14.3671C87.2089 13.4848 88.9848 13.0216 90.7907 13.0216C92.5967 13.0216 94.3725 13.4848 95.9491 14.3671C97.4845 15.3065 98.7148 16.6721 99.4907 18.298C100.414 20.2864 100.858 22.4637 100.789 24.6553C100.856 26.8467 100.411 29.0234 99.4907 31.0126C98.7176 32.6438 97.4802 34.0097 95.9341 34.9385C94.3535 35.8081 92.5792 36.264 90.7758 36.264C88.9724 36.264 87.1981 35.8081 85.6175 34.9385C84.0784 34.0071 82.8481 32.6414 82.0808 31.0126C81.1579 29.0242 80.7133 26.8469 80.7825 24.6553ZM84.8564 24.6553C84.8133 26.1564 85.0529 27.6522 85.5628 29.0645C85.9578 30.1581 86.6675 31.1099 87.6022 31.7997C88.5537 32.4084 89.6592 32.7318 90.7882 32.7318C91.9173 32.7318 93.0227 32.4084 93.9743 31.7997C94.9061 31.1081 95.6138 30.1567 96.0087 29.0645C96.5219 27.6529 96.7649 26.1571 96.725 24.6553C96.7643 23.1552 96.5213 21.6611 96.0087 20.2511C95.61 19.154 94.9036 18.1956 93.9743 17.4909C93.0274 16.8698 91.9201 16.5389 90.7882 16.5389C89.6564 16.5389 88.5491 16.8698 87.6022 17.4909C86.67 18.1939 85.9616 19.1527 85.5628 20.2511C85.0536 21.6618 84.8139 23.1558 84.8564 24.6553Z" fill="#046AD0"/>
<path d="M106.878 27.176V13.4551H110.857V26.6529C110.857 28.6823 111.298 30.1587 112.18 31.082C112.617 31.5416 113.146 31.9032 113.733 32.1428C114.319 32.3824 114.95 32.4946 115.583 32.472C116.759 32.4672 117.912 32.1453 118.92 31.5404C120.059 30.8591 121.084 30.0015 121.955 28.9995V32.1233C121.034 33.3161 119.903 34.3293 118.617 35.1126C117.411 35.8387 116.035 36.2351 114.628 36.2622C113.221 36.2893 111.832 35.9462 110.599 35.267C109.404 34.5608 108.452 33.508 107.868 32.2479C107.152 30.656 106.814 28.9204 106.878 27.176ZM122.223 35.8151L121.313 31.4706V13.4551H125.293V30.5141C125.293 31.1219 125.293 31.6799 125.357 32.1831C125.422 32.6863 125.482 33.2642 125.596 33.897L125.944 35.8101L122.223 35.8151Z" fill="#046AD0"/>
<path d="M129.834 32.6019L133.997 27.7393C134.508 28.4523 135.175 29.0387 135.947 29.4531C136.77 29.9043 137.695 30.1359 138.633 30.1257C139.323 30.1641 140.012 30.0501 140.653 29.7918C141.293 29.5335 141.869 29.1372 142.339 28.6311C143.22 27.6346 143.662 26.1998 143.662 24.2916V5.85754H150.597V25.1784C150.662 27.3082 150.112 29.4115 149.015 31.2367C147.986 32.8792 146.513 34.1957 144.767 35.0332C142.921 35.917 140.898 36.3636 138.852 36.3385C137.125 36.3648 135.411 36.0253 133.823 35.3421C132.334 34.686 130.981 33.7566 129.834 32.6019ZM136.574 11.0838V5.85754H148.279V11.0838H136.574Z" fill="#046AD0"/>
<path d="M156.904 27.176V13.0216H163.405V26.1746C163.405 27.5928 163.745 28.6424 164.425 29.3233C164.786 29.6653 165.212 29.93 165.678 30.1014C166.144 30.2727 166.64 30.347 167.136 30.3197C168.03 30.3128 168.91 30.1051 169.713 29.7119C170.598 29.2814 171.376 28.6584 171.991 27.8884V32.188C171.139 33.3654 170.08 34.3783 168.867 35.1773C167.637 35.9579 166.204 36.3582 164.748 36.3282C163.42 36.3334 162.113 35.9899 160.958 35.3318C159.715 34.6049 158.7 33.5434 158.028 32.2678C157.227 30.6939 156.84 28.9414 156.904 27.176ZM172.165 35.8151L171.339 31.4706V13.0366H177.841V30.3895C177.841 30.9973 177.841 31.5404 177.905 32.0137C177.97 32.487 178.03 33.05 178.144 33.6877L178.492 35.8151H172.165Z" fill="#046AD0"/>
<path d="M183.69 13.0226H190.023L190.843 17.3621V35.7961H184.342V18.4482C184.342 17.8404 184.342 17.2973 184.277 16.819C184.213 16.3407 184.153 15.7877 184.039 15.15L183.69 13.0226ZM190.197 20.9243V16.6247C191.058 15.4337 192.138 14.419 193.38 13.6354C194.637 12.8602 196.088 12.4609 197.564 12.4845C198.964 12.4832 200.338 12.862 201.541 13.5804C202.743 14.2989 203.729 15.3303 204.393 16.5649C205.213 18.1366 205.609 19.895 205.542 21.6667V35.8161H199.041V22.6581C199.072 21.8403 198.901 21.0275 198.544 20.2916C198.244 19.7044 197.767 19.2268 197.181 18.9265C196.56 18.6284 195.879 18.48 195.191 18.493C194.235 18.5108 193.295 18.7376 192.435 19.1576C191.576 19.5776 190.819 20.1805 190.217 20.9243H190.197Z" fill="#046AD0"/>
<path d="M211.347 6.46554C211.342 5.97955 211.434 5.49739 211.615 5.04678C211.797 4.59618 212.066 4.18603 212.407 3.83994C213.12 3.12802 214.086 2.72827 215.093 2.72827C216.1 2.72827 217.066 3.12802 217.779 3.83994C218.116 4.1875 218.382 4.59835 218.56 5.04892C218.739 5.49948 218.827 5.9809 218.819 6.46554C218.824 6.95119 218.734 7.43315 218.553 7.88373C218.372 8.33431 218.104 8.74465 217.764 9.09115C217.05 9.79493 216.088 10.1893 215.086 10.1893C214.083 10.1893 213.121 9.79493 212.407 9.09115C212.066 8.74489 211.798 8.33471 211.616 7.88415C211.434 7.43358 211.343 6.9515 211.347 6.46554ZM211.845 35.8155V13.0221H218.351V35.8155H211.845Z" fill="#046AD0"/>
<path d="M223.226 24.4418C223.164 22.228 223.657 20.0338 224.659 18.0597C225.563 16.3312 226.945 14.8994 228.638 13.9344C230.422 12.9793 232.413 12.4796 234.436 12.4796C236.458 12.4796 238.45 12.9793 240.233 13.9344C241.907 14.9091 243.269 16.3396 244.163 18.0597C245.162 20.0278 245.654 22.2148 245.596 24.4219C245.651 26.6143 245.158 28.7859 244.163 30.7393C243.265 32.4613 241.897 33.8921 240.218 34.8645C238.435 35.8197 236.443 36.3193 234.421 36.3193C232.398 36.3193 230.407 35.8197 228.623 34.8645C226.93 33.8996 225.549 32.4677 224.644 30.7393C223.657 28.7905 223.17 26.6263 223.226 24.4418ZM229.817 24.4418C229.779 25.7241 229.969 27.003 230.379 28.2183C230.674 29.0919 231.234 29.8514 231.981 30.3905C232.711 30.8432 233.552 31.083 234.411 31.083C235.269 31.083 236.111 30.8432 236.841 30.3905C237.588 29.8514 238.148 29.0919 238.443 28.2183C238.855 27.0036 239.046 25.7243 239.005 24.4418C239.046 23.1594 238.856 21.8799 238.443 20.6653C238.145 19.7865 237.586 19.0198 236.841 18.4682C236.115 18.0031 235.272 17.7559 234.411 17.7559C233.55 17.7559 232.706 18.0031 231.981 18.4682C231.236 19.0198 230.677 19.7865 230.379 20.6653C229.968 21.8805 229.778 23.1595 229.817 24.4418Z" fill="#046AD0"/>
<path d="M249.843 13.0223H256.18L256.996 17.5611V35.7958H250.495V18.4479C250.495 17.8401 250.47 17.297 250.43 16.8187C250.39 16.3404 250.306 15.7874 250.191 15.1497L249.843 13.0223ZM256.345 21.5767V17.4913C257.149 16.0262 258.286 14.7703 259.662 13.8244C260.943 12.9566 262.454 12.4948 264 12.4992V18.9262C262.555 18.8907 261.114 19.0806 259.727 19.4892C258.469 19.9451 257.317 20.6557 256.345 21.5767Z" fill="#046AD0"/>
<path d="M9.87412 29.0989H3.47719C2.10908 29.0989 1 30.2097 1 31.58V37.9871C1 39.3574 2.10908 40.4682 3.47719 40.4682H9.87412C11.2422 40.4682 12.3513 39.3574 12.3513 37.9871V31.58C12.3513 30.2097 11.2422 29.0989 9.87412 29.0989Z" fill="#046AD0"/>
<path d="M23.6378 15.0502H17.2409C15.8727 15.0502 14.7637 16.161 14.7637 17.5313V23.9384C14.7637 25.3087 15.8727 26.4195 17.2409 26.4195H23.6378C25.0059 26.4195 26.115 25.3087 26.115 23.9384V17.5313C26.115 16.161 25.0059 15.0502 23.6378 15.0502Z" fill="#046AD0"/>
<path d="M37.6353 1H31.2384C29.8703 1 28.7612 2.11084 28.7612 3.48112V9.88821C28.7612 11.2585 29.8703 12.3693 31.2384 12.3693H37.6353C39.0035 12.3693 40.1125 11.2585 40.1125 9.88821V3.48112C40.1125 2.11084 39.0035 1 37.6353 1Z" fill="#046AD0"/>
<path d="M23.6378 29.0989H17.2409C15.8727 29.0989 14.7637 30.2097 14.7637 31.58V37.9871C14.7637 39.3574 15.8727 40.4682 17.2409 40.4682H23.6378C25.0059 40.4682 26.115 39.3574 26.115 37.9871V31.58C26.115 30.2097 25.0059 29.0989 23.6378 29.0989Z" stroke="#046AD0" stroke-width="0.830793" stroke-miterlimit="10"/>
<path d="M37.6353 15.0502H31.2384C29.8703 15.0502 28.7612 16.161 28.7612 17.5313V23.9384C28.7612 25.3087 29.8703 26.4195 31.2384 26.4195H37.6353C39.0035 26.4195 40.1125 25.3087 40.1125 23.9384V17.5313C40.1125 16.161 39.0035 15.0502 37.6353 15.0502Z" stroke="#046AD0" stroke-width="0.830793" stroke-miterlimit="10"/>
<path d="M9.87412 15.0502H3.47719C2.10908 15.0502 1 16.161 1 17.5313V23.9384C1 25.3087 2.10908 26.4195 3.47719 26.4195H9.87412C11.2422 26.4195 12.3513 25.3087 12.3513 23.9384V17.5313C12.3513 16.161 11.2422 15.0502 9.87412 15.0502Z" stroke="#046AD0" stroke-width="0.830793" stroke-miterlimit="10"/>
<path d="M23.6378 1H17.2409C15.8727 1 14.7637 2.11084 14.7637 3.48112V9.88821C14.7637 11.2585 15.8727 12.3693 17.2409 12.3693H23.6378C25.0059 12.3693 26.115 11.2585 26.115 9.88821V3.48112C26.115 2.11084 25.0059 1 23.6378 1Z" stroke="#046AD0" stroke-width="0.830793" stroke-miterlimit="10"/>
</svg>
