<svg width="234" height="147" viewBox="0 0 234 147" fill="none" xmlns="http://www.w3.org/2000/svg">
<path d="M110.298 69.0683C108.899 70.1093 107.209 71.7818 106.595 74.1711C106.151 75.946 106.578 76.987 106.424 79.2739C106.322 80.861 105.912 83.0967 104.598 85.759C101.612 85.1446 96.5941 84.5473 90.6721 85.9126C87.1394 86.7318 84.3064 88.0117 82.2244 89.1722C82.5486 89.377 82.9924 89.6159 83.5555 89.7695C86.7469 90.6399 90.1089 87.9605 90.2113 88.1482C90.3137 88.3189 86.4568 90.1279 86.6616 91.698C86.7981 92.7561 88.6924 93.3193 90.6551 93.9166C92.3105 94.4115 93.8806 94.8894 95.9797 94.6504C98.8639 94.3262 100.861 92.8756 101.748 92.1247C102.601 92.5513 103.864 93.1145 105.451 93.6094C108.37 94.4968 112.397 95.7256 115.077 94.0531C116.817 92.9609 117.347 90.401 118.336 85.3153C119.531 79.1203 120.094 76.0142 118.49 73.4714C116.391 70.0752 112.073 69.2902 110.298 69.0683Z" fill="white" stroke="#161616" stroke-width="3"/>
<path d="M104.052 85.9467C106.117 86.7147 107.824 88.1141 109.001 89.9743C109.172 90.2474 109.616 89.9914 109.445 89.7183C108.199 87.7386 106.373 86.271 104.189 85.4518C103.864 85.3323 103.745 85.8272 104.052 85.9467Z" fill="#161616"/>
<path d="M93.0613 89.3088C91.0305 89.6501 89.3921 91.0154 88.6583 92.9268C88.5388 93.234 89.0337 93.3705 89.1532 93.0633C89.8188 91.3226 91.3547 90.1109 93.1979 89.8037C93.5221 89.7525 93.3856 89.2576 93.0613 89.3088Z" fill="#161616"/>
<path d="M95.4506 91.0153C94.7167 91.4591 94.0341 91.9711 93.3856 92.5172C92.9589 92.8926 92.4811 93.3363 92.5835 93.9507C92.8394 95.572 94.785 95.2136 95.8431 94.804C96.1503 94.6846 96.0138 94.1897 95.7066 94.3091C95.2458 94.4798 94.7338 94.7016 94.2389 94.6846C93.4368 94.6504 92.72 93.8825 93.4026 93.1827C94.0511 92.5001 94.9045 91.954 95.7066 91.442C95.9796 91.2713 95.7236 90.8276 95.4506 91.0153Z" fill="#161616"/>
<path d="M126.221 48.0599C125.351 48.3501 124.241 48.7938 122.995 49.4082C122.637 49.5788 121.733 50.0396 120.76 50.6711C119.258 51.6268 118.166 52.6337 116.92 53.8966C115.333 55.5178 113.729 57.1391 111.817 59.7332C110.213 61.9176 107.721 65.3479 105.929 70.3824C105.213 72.3792 104.803 74.1029 104.564 75.3316C105.503 74.7855 106.356 74.5125 107.022 74.3589C110.861 73.4885 114.548 75.434 118.046 77.2601C119.36 77.9427 120.401 78.6083 121.118 79.0691C121.494 77.226 121.869 75.3658 122.245 73.5226C122.569 71.9696 122.876 70.3995 123.2 68.8465C123.695 68.4198 124.361 67.7884 125.095 66.9692C126.477 65.3991 129.225 62.276 129.6 57.9412C130.061 52.9409 127.091 49.118 126.221 48.0599Z" fill="#EC615B"/>
<path d="M125.214 48.2647C123.388 48.5378 121.818 49.5105 120.401 50.6369C118.763 51.9169 117.227 53.3333 115.793 54.8352C112.995 57.7364 110.554 60.979 108.54 64.4775C108.37 64.7677 108.813 65.0236 108.984 64.7335C110.93 61.3544 113.251 58.2143 115.947 55.3983C117.261 54.0331 118.643 52.736 120.094 51.5243C121.647 50.2444 123.303 49.0497 125.35 48.7425C125.675 48.7084 125.538 48.2135 125.214 48.2647Z" fill="#161616"/>
<path d="M124.497 66.9009C123.234 68.1809 121.937 69.4267 120.623 70.6384C120.384 70.8603 120.743 71.2187 120.982 70.9968C122.296 69.7851 123.593 68.5393 124.856 67.2593C125.077 67.0204 124.719 66.662 124.497 66.9009Z" fill="#161616"/>
<path d="M122.722 69.239C122.125 72.5157 121.545 75.8095 120.948 79.0862C121.067 79.035 121.204 78.9838 121.323 78.9326C118.609 77.0382 115.589 75.6217 112.38 74.7343C109.872 74.0517 106.68 73.3861 104.53 75.2804C104.291 75.5023 104.649 75.8607 104.888 75.6388C107.073 73.6933 110.605 74.7172 113.08 75.4681C115.93 76.3385 118.609 77.6697 121.05 79.3592C121.186 79.4445 121.391 79.3592 121.425 79.2056C122.023 75.9289 122.603 72.6352 123.2 69.3585C123.269 69.0513 122.774 68.9147 122.722 69.239Z" fill="#161616"/>
<path d="M108.66 64.2386C106.885 67.703 104.666 71.2698 104.513 75.2804C104.496 75.6046 105.008 75.6046 105.025 75.2804C105.178 71.3722 107.363 67.8907 109.104 64.4946C109.24 64.2045 108.796 63.9485 108.66 64.2386Z" fill="#161616"/>
<path opacity="0.4" d="M123.832 57.7876C120.777 63.8631 119.121 68.983 118.149 72.5669C116.732 77.8232 116.237 81.9703 112.568 85.4177C111.971 85.9809 110.213 87.6021 107.448 88.609C101.646 90.7082 97.3449 87.8752 93.6928 90.8788C93.2832 91.2202 92.0715 92.0735 92.208 93.0462C92.3446 93.9678 93.6075 94.4457 93.7952 94.531C95.297 95.1112 96.85 94.5139 98.7956 93.7289C100.997 92.8414 100.758 92.5343 101.748 92.3636C103.83 92.0052 104.786 93.3193 107.55 94.1897C108.728 94.5481 112.21 95.6403 114.718 94.1897C116.561 93.1145 117.125 91.1007 118.012 87.7045C118.626 85.4006 119.258 82.0386 119.155 77.8062C119.838 78.3352 120.521 78.8643 121.203 79.3933C122.091 72.1914 122.961 64.9895 123.832 57.7876Z" fill="#3D3D3D"/>
<path opacity="0.38" d="M122.808 65.1772C120.47 69.5973 119.326 73.3348 118.712 75.8606C117.483 80.9293 117.876 83.3185 116.203 86.8853C114.411 90.7594 111.51 93.2169 109.496 94.6163C110.622 94.8723 113.336 95.3502 115.299 93.8142C116.681 92.739 117.039 91.2031 117.568 88.6944C118.234 85.6054 118.934 82.0898 119.616 78.2328C120.145 78.5741 120.674 78.9155 121.203 79.2568C121.75 74.5807 122.279 69.8704 122.808 65.1772Z" fill="#3D3D3D"/>
<path d="M125.862 47.7187C125.248 51.7292 124.651 55.7739 124.07 59.8356C121.818 75.5877 119.872 91.0667 118.234 106.29C118.268 106.802 118.404 107.621 118.916 108.44C119.428 109.276 120.111 109.703 120.435 109.925C123.541 112.143 125.094 113.27 126.664 114.021C134.191 117.656 142.519 117.229 142.519 117.229C144.277 117.144 147.775 116.922 151.53 115.42C151.735 115.335 153.168 114.669 156.035 113.321C158.629 112.109 159.09 111.87 159.722 111.29C161.223 109.908 161.804 108.201 162.196 106.989C163.032 104.412 162.947 102.228 162.913 101.699C162.913 101.699 162.742 97.4494 162.623 72.6352C162.606 67.5836 163.101 60.1599 165.763 50.9954C162.998 49.6471 160.404 48.4013 157.281 46.8995C155.131 45.8585 153.134 44.9028 150.267 44.5614C149.448 44.459 148.714 44.4249 147.622 44.442C143.185 44.4761 139.532 45.1587 137.962 45.4318C134.907 45.9267 130.777 46.6776 125.862 47.7187Z" fill="#EC615B"/>
<path d="M125.726 48.316C131.016 47.1896 136.358 46.2851 141.717 45.6195C141.956 45.5854 142.092 45.2782 141.853 45.1417C141.785 45.1075 141.717 45.0563 141.632 45.0222C141.342 44.8515 141.086 45.2953 141.376 45.4659C141.444 45.5001 141.512 45.5513 141.597 45.5854C141.649 45.4318 141.683 45.2611 141.734 45.1075C136.324 45.7731 130.931 46.6776 125.607 47.8211C125.265 47.8893 125.402 48.3842 125.726 48.316Z" fill="#161616"/>
<path d="M124.139 57.2586C122.261 70.6385 120.555 84.0354 119.019 97.4665C118.831 99.156 118.643 100.829 118.456 102.518C118.302 103.986 117.875 105.641 118.063 107.109C118.234 108.406 119.258 109.225 120.196 110.01C121.22 110.863 122.296 111.666 123.422 112.399C128.047 115.386 133.457 117.178 138.952 117.502C145.488 117.878 152.059 116.205 157.64 112.792C157.913 112.621 157.657 112.177 157.384 112.348C147.622 118.304 135.198 118.543 125.248 112.894C124.105 112.246 122.995 111.529 121.937 110.744C120.862 109.942 119.121 108.85 118.678 107.535C118.473 106.904 118.575 106.204 118.643 105.539C118.729 104.703 118.831 103.849 118.917 103.013C119.087 101.443 119.258 99.8728 119.446 98.3027C120.179 91.9029 120.93 85.5202 121.749 79.1374C122.671 71.8843 123.627 64.6312 124.651 57.3952C124.685 57.0709 124.19 56.9344 124.139 57.2586Z" fill="#161616"/>
<path d="M149.277 44.4078C152.281 45.0051 155.097 46.3875 157.896 47.5651C160.643 48.7256 163.698 49.6642 166.122 51.4391C166.395 51.6268 166.651 51.1831 166.378 50.9954C164.005 49.2546 161.019 48.333 158.339 47.2067C155.438 45.995 152.52 44.5444 149.414 43.9129C149.09 43.8446 148.953 44.3396 149.277 44.4078Z" fill="#161616"/>
<path d="M162.657 73.352C162.384 80.5368 162.111 87.7217 162.367 94.8894C162.486 98.3709 163.033 101.989 162.384 105.453C161.838 108.303 160.234 111.153 157.384 112.212C157.076 112.331 157.213 112.826 157.52 112.706C162.06 111.017 163.237 105.846 163.169 101.511C163.135 98.5757 162.879 95.6404 162.811 92.6879C162.742 89.6843 162.777 86.6977 162.828 83.6941C162.896 80.2467 163.033 76.7993 163.152 73.352C163.186 73.0106 162.674 73.0106 162.657 73.352Z" fill="#161616"/>
<path opacity="0.38" d="M160.2 69.3073C159.295 72.4133 157.879 75.8095 155.694 79.1886C145.915 94.2238 128.013 97.2275 123.439 97.8589C129.583 98.5074 135.795 99.2071 142.075 99.958C149.004 100.777 155.848 101.648 162.589 102.535C162.162 94.9065 162.162 88.6261 162.265 84.1377C162.452 74.8538 163.118 67.3447 161.906 67.1057C161.616 67.0375 161.104 67.3617 160.2 69.3073Z" fill="#3D3D3D"/>
<path opacity="0.42" d="M162.299 74.8879C161.684 76.6969 160.746 79.2568 159.363 82.2093C157.418 86.3905 155.557 90.4181 153.151 92.8927C146.427 99.8045 133.286 96.8179 133.252 97.2958C133.235 97.5688 138.048 98.3368 162.35 100.572C162.35 92.0052 162.333 83.4551 162.299 74.8879Z" fill="#3D3D3D"/>
<path d="M192.915 145.252C130.283 136.889 67.6327 128.527 5 120.181C23.4826 109.464 41.9823 98.7463 60.465 88.0288C116.971 93.5924 173.494 99.173 230 104.737C217.627 118.236 205.271 131.752 192.915 145.252Z" fill="white" stroke="#161616" stroke-width="3"/>
<path d="M170.576 110.437C164.176 115.437 157.913 120.591 151.752 125.881C151.496 126.103 151.871 126.462 152.11 126.24C158.271 120.949 164.551 115.795 170.934 110.795C171.19 110.607 170.832 110.232 170.576 110.437Z" fill="#161616"/>
<path d="M151.991 126.155C154.005 126.581 156.052 126.581 158.117 126.598C160.438 126.632 162.623 126.871 164.842 127.52C169.006 128.732 173.084 129.534 177.436 129.431C177.761 129.431 177.761 128.919 177.436 128.919C175.201 128.97 172.965 128.834 170.746 128.476C168.664 128.134 166.685 127.52 164.654 126.957C162.708 126.411 160.763 126.155 158.732 126.12C156.513 126.069 154.295 126.137 152.11 125.677C151.803 125.591 151.666 126.086 151.991 126.155Z" fill="#161616"/>
<path d="M170.951 110.812C177.709 111.358 184.416 112.433 191.004 114.038C191.328 114.123 191.465 113.628 191.14 113.543C184.519 111.921 177.761 110.846 170.951 110.3C170.627 110.266 170.627 110.778 170.951 110.812Z" fill="#161616"/>
<path d="M177.829 129.124C182.59 124.414 187.164 119.499 191.499 114.379C191.704 114.123 191.345 113.765 191.14 114.021C186.806 119.123 182.232 124.038 177.47 128.766C177.231 129.005 177.59 129.363 177.829 129.124Z" fill="#161616"/>
<path d="M157.947 124.124C163.818 123.407 169.757 124.141 175.269 126.291C175.576 126.411 175.713 125.916 175.405 125.796C169.859 123.646 163.852 122.895 157.947 123.612C157.623 123.646 157.623 124.158 157.947 124.124Z" fill="#161616"/>
<path d="M166.838 122.246C170.456 122.519 174.023 123.083 177.556 123.919C177.88 124.004 178.016 123.509 177.692 123.424C174.125 122.571 170.507 122.007 166.838 121.734C166.497 121.717 166.514 122.229 166.838 122.246Z" fill="#161616"/>
<path d="M164.125 118.475C169.569 118.594 174.962 119.379 180.218 120.83C180.542 120.915 180.679 120.42 180.355 120.335C175.064 118.884 169.62 118.082 164.125 117.963C163.8 117.963 163.8 118.475 164.125 118.475Z" fill="#161616"/>
<path d="M170.883 116.905C173.818 117.314 176.719 117.826 179.621 118.441C179.945 118.509 180.081 118.014 179.757 117.946C176.856 117.331 173.955 116.819 171.019 116.41C170.695 116.359 170.559 116.853 170.883 116.905Z" fill="#161616"/>
<path d="M167.145 128.356C166.104 129.96 165.063 131.564 164.005 133.152C163.903 133.305 164.039 133.561 164.227 133.544C172.641 132.588 181.174 133.135 189.4 135.148C189.724 135.234 189.86 134.739 189.536 134.653C181.259 132.623 172.692 132.076 164.227 133.015C164.295 133.152 164.381 133.271 164.449 133.408C165.49 131.803 166.531 130.199 167.589 128.612C167.777 128.339 167.333 128.083 167.145 128.356Z" fill="#161616"/>
<path d="M187.778 118.663C191.072 118.594 194.349 118.526 197.643 118.458C197.557 118.355 197.472 118.236 197.404 118.133C195.134 123.543 192.847 128.936 190.577 134.346C190.458 134.654 190.953 134.79 191.072 134.483C193.342 129.073 195.629 123.68 197.899 118.27C197.967 118.116 197.796 117.946 197.66 117.946C194.366 118.014 191.089 118.082 187.796 118.151C187.454 118.168 187.454 118.68 187.778 118.663Z" fill="#161616"/>
<path d="M175.303 131.377C176.173 131.206 177.044 131.172 177.931 131.24C178.255 131.257 178.255 130.745 177.931 130.728C176.993 130.66 176.088 130.711 175.166 130.882C174.842 130.933 174.979 131.428 175.303 131.377Z" fill="#161616"/>
<path d="M180.15 131.428C182.829 131.53 185.509 131.786 188.171 132.196C188.495 132.247 188.632 131.752 188.307 131.701C185.611 131.274 182.88 131.018 180.15 130.916C179.826 130.899 179.826 131.411 180.15 131.428Z" fill="#161616"/>
<path d="M180.303 128.22C180.935 128.22 181.566 128.22 182.215 128.22C182.539 128.22 182.539 127.708 182.215 127.708C181.583 127.708 180.952 127.708 180.303 127.708C179.979 127.708 179.979 128.22 180.303 128.22Z" fill="#161616"/>
<path d="M184.28 128.168C186.379 128.22 188.461 128.424 190.543 128.766C190.867 128.817 191.004 128.322 190.68 128.271C188.563 127.929 186.43 127.725 184.28 127.656C183.956 127.656 183.956 128.168 184.28 128.168Z" fill="#161616"/>
<path d="M183.956 125.25C186.345 125.284 188.717 125.421 191.089 125.694C191.413 125.728 191.413 125.216 191.089 125.182C188.717 124.909 186.345 124.755 183.956 124.738C183.631 124.721 183.631 125.233 183.956 125.25Z" fill="#161616"/>
<path d="M167.93 130.916C169.074 130.95 170.2 130.814 171.327 130.541C171.651 130.455 171.514 129.96 171.19 130.046C170.115 130.319 169.04 130.438 167.93 130.404C167.606 130.404 167.606 130.916 167.93 130.916Z" fill="#161616"/>
<path d="M176.037 104.173C175.593 104.72 175.081 105.829 175.61 106.494C175.934 106.904 176.549 106.819 177.01 106.836C177.846 106.87 178.682 106.921 179.518 106.955C182.915 107.109 186.294 107.279 189.69 107.433C190.014 107.45 190.014 106.938 189.69 106.921C187.181 106.802 184.689 106.682 182.181 106.563C180.952 106.511 179.74 106.443 178.511 106.392C177.914 106.358 177.283 106.392 176.685 106.307C176.242 106.238 175.917 106.221 175.934 105.675C175.952 105.249 176.139 104.856 176.395 104.532C176.6 104.276 176.242 103.9 176.037 104.173Z" fill="#161616"/>
<path d="M176.498 104.822C179.365 104.924 182.232 105.01 185.099 105.112C186.498 105.163 187.915 105.197 189.314 105.249C190.577 105.3 191.908 105.385 192.813 106.358C193.035 106.597 193.393 106.238 193.171 105.999C192.489 105.249 191.567 104.958 190.577 104.822C189.109 104.634 187.591 104.668 186.106 104.617C182.897 104.515 179.689 104.395 176.498 104.293C176.173 104.31 176.173 104.822 176.498 104.822Z" fill="#161616"/>
<path d="M189.519 107.45C190.833 107.467 192.079 107.058 193.137 106.272C193.393 106.085 193.137 105.641 192.881 105.829C191.891 106.563 190.765 106.955 189.519 106.938C189.178 106.938 189.178 107.45 189.519 107.45Z" fill="#161616"/>
<path d="M189.929 104.822C189.212 105.3 188.888 106.187 189.127 107.006C189.212 107.313 189.707 107.194 189.622 106.87C189.451 106.272 189.656 105.607 190.185 105.248C190.458 105.078 190.202 104.634 189.929 104.822Z" fill="#161616"/>
<path d="M120.248 122.52C99.5125 118.97 78.7771 115.42 58.0417 111.87C70.6366 106.785 83.2314 101.716 95.8262 96.6302C115.52 101.016 135.215 105.402 154.892 109.788C143.355 114.038 131.802 118.27 120.248 122.52Z" fill="white" stroke="#161616" stroke-width="3"/>
<path d="M119.394 122.776C119.463 122.98 119.514 123.202 119.582 123.407C119.667 123.68 120.077 123.629 120.077 123.339C120.077 123.168 120.077 123.014 120.077 122.844C120.077 122.52 119.565 122.52 119.565 122.844C119.565 123.049 119.531 123.236 119.446 123.424C119.616 123.424 119.77 123.424 119.94 123.424C119.872 123.202 119.855 122.997 119.906 122.758C119.753 122.776 119.599 122.793 119.446 122.827C119.497 122.878 119.497 122.912 119.463 122.963C119.616 122.98 119.77 122.997 119.923 123.032C119.889 122.912 119.906 122.81 119.975 122.707C119.821 122.656 119.65 122.622 119.497 122.571C119.463 122.844 119.429 123.1 119.394 123.373C119.377 123.509 119.531 123.629 119.65 123.629C119.804 123.629 119.889 123.509 119.906 123.373C119.94 123.1 119.975 122.844 120.009 122.571C120.043 122.315 119.65 122.246 119.531 122.434C119.394 122.656 119.36 122.912 119.429 123.168C119.48 123.39 119.787 123.407 119.889 123.236C120.026 123.032 120.026 122.776 119.872 122.588C119.753 122.434 119.446 122.417 119.411 122.656C119.343 122.963 119.36 123.287 119.446 123.595C119.531 123.851 119.855 123.817 119.94 123.595C120.026 123.356 120.077 123.117 120.077 122.878C119.906 122.878 119.736 122.878 119.565 122.878C119.565 123.049 119.565 123.202 119.565 123.373C119.736 123.356 119.906 123.322 120.06 123.305C119.992 123.1 119.94 122.878 119.872 122.673C119.804 122.315 119.309 122.451 119.394 122.776Z" fill="#161616"/>
<path d="M119.787 124.004C122.535 122.588 125.538 121.837 128.491 121.001C129.941 120.591 131.375 120.147 132.757 119.567C134.088 119.021 135.368 118.338 136.682 117.724C139.601 116.359 142.758 115.471 145.813 114.464C148.987 113.406 152.144 112.348 155.319 111.307C155.626 111.205 155.489 110.71 155.182 110.812C152.008 111.87 148.851 112.928 145.676 113.969C142.673 114.959 139.584 115.847 136.7 117.161C135.198 117.843 133.73 118.646 132.194 119.243C130.795 119.789 129.361 120.216 127.91 120.625C125.06 121.444 122.176 122.195 119.514 123.561C119.241 123.714 119.497 124.158 119.787 124.004Z" fill="#161616"/>
<path d="M120.026 123.902C131.819 119.823 143.577 115.693 155.336 111.495C156.257 111.171 155.865 109.686 154.926 110.01C143.185 114.208 131.409 118.338 119.616 122.417C118.695 122.741 119.087 124.226 120.026 123.902Z" fill="#161616"/>
<path d="M118.695 107.416C120.913 107.638 122.808 108.986 124.992 109.413C125.316 109.481 125.453 108.986 125.129 108.918C122.91 108.474 120.982 107.126 118.695 106.904C118.37 106.887 118.37 107.399 118.695 107.416Z" fill="#161616"/>
<path d="M125.146 109.174C126.494 108.44 127.757 107.57 128.9 106.546C129.139 106.324 128.781 105.965 128.542 106.187C127.416 107.177 126.204 108.03 124.89 108.73C124.6 108.901 124.856 109.344 125.146 109.174Z" fill="#161616"/>
<path d="M119.224 106.443C120.299 105.675 121.408 104.941 122.552 104.259C122.842 104.088 122.569 103.644 122.296 103.815C121.152 104.498 120.043 105.214 118.968 106C118.695 106.204 118.951 106.648 119.224 106.443Z" fill="#161616"/>
<path d="M122.637 104.344C124.583 105.078 126.528 105.795 128.491 106.529C128.798 106.648 128.934 106.153 128.627 106.034C126.682 105.3 124.736 104.583 122.773 103.849C122.466 103.747 122.33 104.242 122.637 104.344Z" fill="#161616"/>
<path d="M117.159 109.362C122.296 110.949 127.364 112.775 132.331 114.84C132.638 114.959 132.774 114.464 132.467 114.345C127.501 112.28 122.432 110.454 117.295 108.867C116.971 108.764 116.835 109.259 117.159 109.362Z" fill="#161616"/>
<path d="M117.654 113.338C120.845 114.874 124.071 116.325 127.33 117.741C127.637 117.878 127.893 117.434 127.586 117.297C124.327 115.898 121.101 114.43 117.91 112.894C117.62 112.758 117.364 113.201 117.654 113.338Z" fill="#161616"/>
<path d="M118.114 117.724C119.855 118.611 121.596 119.516 123.337 120.403C123.627 120.557 123.883 120.113 123.593 119.96C121.852 119.072 120.111 118.168 118.37 117.28C118.08 117.127 117.824 117.57 118.114 117.724Z" fill="#161616"/>
<path d="M119.104 117.878C121.511 115.83 124.036 113.952 126.665 112.212C126.938 112.024 126.682 111.58 126.409 111.768C123.746 113.526 121.186 115.454 118.746 117.519C118.49 117.741 118.848 118.099 119.104 117.878Z" fill="#161616"/>
<path d="M118.473 114.379C119.838 113.423 121.203 112.468 122.569 111.495C122.842 111.307 122.586 110.863 122.313 111.051C120.947 112.007 119.582 112.963 118.217 113.935C117.961 114.123 118.217 114.567 118.473 114.379Z" fill="#161616"/>
<path d="M119.326 123.697C97.874 120.045 76.4218 116.393 54.9697 112.741C52.9559 97.5005 50.925 82.2775 48.9112 67.0375C72.0017 70.1435 95.0751 73.2496 118.166 76.3727C118.558 92.1418 118.951 107.911 119.326 123.697Z" fill="white" stroke="#161616" stroke-width="3"/>
<path d="M81.098 97.3299C79.2378 96.7497 78.2309 95.1796 78.0773 93.2852C77.9237 91.3568 78.2992 89.4966 80.0911 88.4897C81.6783 87.6022 83.5726 87.8582 84.9891 88.9334C86.4056 90.0085 87.6685 92.2101 86.5251 93.8996C86.3373 94.1727 86.7811 94.4287 86.9688 94.1556C88.1975 92.3466 87.037 89.9573 85.5352 88.7115C83.9822 87.4316 81.8831 87.039 80.057 87.9435C77.9408 88.9846 77.3947 91.1008 77.5653 93.3023C77.736 95.4356 78.8624 97.1934 80.9615 97.8419C81.2687 97.9272 81.4052 97.4323 81.098 97.3299Z" fill="#161616"/>
<path d="M81.5759 97.5176C80.7909 96.2206 81.0469 94.4116 82.3098 93.5071C83.5726 92.6026 85.3817 92.978 86.3374 94.1385C86.5422 94.3945 86.9005 94.0361 86.6958 93.7801C85.5694 92.4319 83.4532 92.0564 81.9855 93.0975C80.5178 94.1556 80.2106 96.2718 81.1322 97.7736C81.3029 98.0467 81.7466 97.7907 81.5759 97.5176Z" fill="#161616"/>
<path d="M83.3337 98.2344C82.5316 97.3811 82.651 95.794 83.7262 95.1796C84.7843 94.5652 86.2178 95.2649 86.5592 96.3913C86.6616 96.6985 87.1565 96.579 87.0541 96.2548C86.6104 94.8212 84.8184 93.9679 83.4702 94.7529C82.122 95.538 81.9513 97.5177 82.9753 98.6099C83.1971 98.8317 83.5555 98.4734 83.3337 98.2344Z" fill="#161616"/>
<path d="M84.6478 99.4291C85.3134 99.668 86.0814 99.2755 86.3373 98.644C86.6104 98.0126 86.252 97.3299 85.6547 97.0569C85.0574 96.7838 84.3406 96.9374 84.0164 97.5177C83.7092 98.0808 83.8116 98.8488 84.3235 99.2584C84.5795 99.4632 84.9379 99.1048 84.6819 98.9C83.9993 98.371 84.4771 97.1251 85.3816 97.5006C85.7742 97.6542 86.0472 98.0638 85.8595 98.4904C85.6718 98.9 85.1939 99.1048 84.7843 98.9512C84.4771 98.8318 84.3406 99.3267 84.6478 99.4291Z" fill="#161616"/>
<path d="M118.166 76.3556L119.667 123.373" stroke="#161616" stroke-width="3"/>
<path d="M118.268 76.3215C118.729 91.7834 119.19 107.245 119.65 122.707" stroke="#161616" stroke-width="3"/>
<path opacity="0.37" d="M88.7264 73.1813C89.8357 73.7616 99.3586 78.9497 100.024 88.1654C100.4 93.2511 97.908 97.108 96.3379 99.4632C87.8731 112.194 71.1313 114.447 66.5917 114.925C73.1963 119.311 96.2697 133.766 121.493 132.913C127.108 132.725 135.812 132.333 145.249 127.144C152.332 123.253 156.923 118.253 159.551 114.925C157.93 113.918 156.325 112.928 154.704 111.921C142.792 116 130.863 120.079 118.951 124.141C118.336 108.372 117.722 92.6196 117.107 76.8505C107.636 75.6559 98.1811 74.4271 88.7264 73.1813Z" fill="#3D3D3D"/>
<path opacity="0.5" d="M75.1589 116.034C77.3775 117.502 80.8078 119.601 85.2449 121.615C90.7744 124.141 107.141 131.616 124.873 127.469C137.757 124.448 147.724 116.171 147.076 114.806C146.666 113.952 141.666 114.84 119.394 123.697C119.036 116.478 118.678 109.242 118.336 102.023C117.722 108.099 117.09 114.174 116.476 120.233C102.704 118.85 88.9312 117.434 75.1589 116.034Z" fill="#3D3D3D"/>
<path d="M79.7498 96.5789C78.504 95.2136 78.0944 93.3022 78.7088 91.6297C79.3402 89.9402 81.0127 88.4896 83.0094 88.5578C84.7672 88.6261 86.1837 89.8549 86.6957 91.0154C87.0712 91.9028 86.9858 92.722 86.9858 92.722C86.9346 93.1828 86.781 93.5411 86.6616 93.763C85.7912 92.7561 84.46 92.2953 83.2142 92.5854C81.6783 92.9438 81.0127 94.2579 80.9444 94.3774C80.2447 95.8109 80.8591 97.1421 80.9444 97.2957C80.5348 97.0397 80.1423 96.8008 79.7498 96.5789Z" fill="#5222D0"/>
<path d="M166.104 74.9732C165.183 75.6559 164.193 76.5774 163.289 77.7891C159.927 82.3117 160.387 87.6192 160.626 89.3429C157.64 88.7285 152.622 88.1312 146.7 89.4965C143.168 90.3157 140.335 91.5956 138.253 92.7561C138.577 92.9609 139.021 93.1999 139.584 93.3535C142.775 94.2238 146.137 91.5445 146.239 91.7322C146.342 91.9028 142.485 93.7119 142.69 95.2819C142.826 96.34 144.721 96.9032 146.683 97.5005C148.339 97.9955 149.909 98.4733 152.008 98.2344C154.892 97.9101 156.889 96.4595 157.776 95.7086C158.63 96.1352 159.892 96.6984 161.48 97.1933C164.398 98.0808 168.425 99.3095 171.105 97.6371C172.846 96.5448 173.375 93.9849 174.364 88.8992C175.627 82.3799 176.259 79.1203 174.518 77.0553C172.214 74.3076 167.589 74.7684 166.104 74.9732Z" fill="white" stroke="#161616" stroke-width="3"/>
<path d="M160.046 89.5136C162.111 90.2816 163.818 91.681 164.995 93.5412C165.166 93.8143 165.61 93.5583 165.439 93.2852C164.193 91.3056 162.367 89.8379 160.183 89.0187C159.875 88.9163 159.739 89.4112 160.046 89.5136Z" fill="#161616"/>
<path d="M149.072 92.8927C147.042 93.234 145.403 94.5993 144.669 96.5107C144.55 96.8179 145.045 96.9545 145.164 96.6473C145.83 94.9065 147.366 93.6948 149.209 93.3876C149.533 93.3364 149.397 92.8415 149.072 92.8927Z" fill="#161616"/>
<path d="M144.908 96.835C145.966 97.8419 147.434 98.1832 148.816 97.7395C149.124 97.6371 148.987 97.1422 148.68 97.2446C147.468 97.6371 146.188 97.3641 145.267 96.4766C145.028 96.2377 144.669 96.5961 144.908 96.835Z" fill="#161616"/>
<path d="M151.445 94.5822C150.711 95.0259 150.028 95.5379 149.38 96.084C148.953 96.4595 148.475 96.9032 148.578 97.5176C148.834 99.1389 150.779 98.7805 151.837 98.3709C152.144 98.2514 152.008 97.7565 151.701 97.876C151.24 98.0466 150.728 98.2685 150.233 98.2514C149.431 98.2173 148.714 97.4493 149.397 96.7496C150.045 96.067 150.899 95.5209 151.701 95.0089C151.991 94.8553 151.735 94.4116 151.445 94.5822Z" fill="#161616"/>
<path d="M165.251 50.6198C165.951 51.166 166.855 51.9169 167.811 52.8896C168.084 53.1627 168.784 53.8795 169.484 54.7669C170.576 56.1322 171.276 57.4292 172.044 59.0164C173.033 61.0473 174.023 63.0781 175.013 66.1159C175.849 68.6758 177.129 72.7034 177.283 78.0622C177.351 80.1784 177.215 81.9533 177.078 83.1991C176.378 82.397 175.679 81.8679 175.098 81.5266C171.839 79.5299 167.879 80.2467 164.142 80.9293C162.742 81.1853 161.582 81.4925 160.78 81.7143C160.985 79.8371 161.172 77.9598 161.377 76.0825C161.548 74.5124 161.701 72.9253 161.872 71.3381C161.548 70.775 161.104 69.9728 160.695 68.9659C159.892 67.0375 158.288 63.2488 159.21 58.9993C160.302 54.1184 164.142 51.3537 165.251 50.6198Z" fill="#EC615B"/>
<path d="M165.849 51.5585C167.555 52.4459 168.699 53.9819 169.688 55.569C170.712 57.2074 171.634 58.8969 172.453 60.6377C174.126 64.1874 175.354 67.942 176.156 71.7819C176.225 72.1061 176.72 71.9696 176.651 71.6453C175.832 67.6519 174.535 63.7778 172.76 60.0916C171.89 58.2825 170.934 56.5247 169.842 54.8352C168.869 53.3334 167.726 51.9339 166.122 51.0977C165.814 50.9612 165.558 51.4049 165.849 51.5585Z" fill="#161616"/>
<path d="M160.524 68.9148C161.309 70.519 162.128 72.0891 162.981 73.6592C163.135 73.9493 163.579 73.6933 163.425 73.4032C162.572 71.8331 161.753 70.263 160.968 68.6588C160.814 68.3516 160.37 68.6076 160.524 68.9148Z" fill="#161616"/>
<path d="M161.736 71.8501C161.309 75.1609 160.882 78.4718 160.473 81.7826C160.456 81.9533 160.66 82.0727 160.797 82.0215C163.698 81.1 166.719 80.6562 169.757 80.7586C172.163 80.844 175.354 81.0658 176.703 83.4209C176.873 83.7111 177.3 83.4551 177.146 83.165C175.866 80.9122 173.068 80.4514 170.712 80.2978C167.316 80.0589 163.903 80.5026 160.677 81.5266C160.78 81.6119 160.899 81.6973 161.002 81.7655C161.428 78.4547 161.855 75.1439 162.265 71.833C162.299 71.5258 161.787 71.5258 161.736 71.8501Z" fill="#161616"/>
<path d="M176.122 71.5259C176.72 75.2804 177.692 79.2568 176.685 83.0285C176.6 83.3527 177.095 83.4892 177.18 83.165C178.204 79.308 177.232 75.2463 176.617 71.3894C176.566 71.0651 176.071 71.2016 176.122 71.5259Z" fill="#161616"/>
<path opacity="0.32" d="M163.954 49.9884C165.507 52.8896 167.06 56.3541 168.374 60.3305C170.951 68.1809 171.634 75.2292 171.685 80.5027C169.944 80.6051 168.204 80.7075 166.463 80.8099C167.026 84.8545 167.606 88.9163 168.17 92.9609C167.077 92.3295 165.405 91.5274 163.254 91.0495C162.555 90.8959 159.978 90.384 157.23 90.8447C151.462 91.8175 147.98 96.5448 147.195 97.6712C147.98 97.9955 148.987 98.3026 150.199 98.3709C153.919 98.5928 156.633 96.4424 157.435 95.7598C159.978 97.0398 162.196 97.6541 163.766 97.9613C166.514 98.5245 169.723 99.173 171.497 97.4664C171.634 97.3299 171.941 97.0056 172.607 95.3502C173.648 92.722 174.194 90.2645 174.911 85.8102C175.064 84.8204 175.286 83.4892 175.508 81.9021C175.935 82.3287 176.378 82.7725 176.805 83.1991C177.01 82.4311 177.266 81.2877 177.402 79.8883C177.761 76.2532 177.061 73.3861 176.395 71.048C173.716 61.5934 172.112 55.8933 166.753 51.7633C165.644 50.9441 164.62 50.3468 163.954 49.9884Z" fill="#3D3D3D"/>
<path opacity="0.29" d="M172.982 61.6787C174.126 67.2423 174.279 71.9696 174.194 75.3829C174.109 78.5572 173.784 80.8781 173.443 83.2162C172.436 90.2645 171.924 93.7801 169.979 95.4185C166.292 98.5245 159.722 96.1694 158.152 95.5721C159.636 96.5619 164.978 99.924 170.2 98.0637C170.747 97.859 171.344 97.603 171.924 97.2275C172.538 96.1865 173.358 94.5823 173.887 92.4831C174.194 91.2373 174.279 90.3328 174.399 89.2747C174.586 87.5681 174.911 85.0764 175.457 81.9533C175.952 82.38 176.464 82.8066 176.959 83.2333C177.129 82.3629 177.351 81.0317 177.402 79.3934C177.556 75.434 176.686 72.4304 175.679 69.0001C175.133 67.1228 174.279 64.5971 172.982 61.6787Z" fill="#3D3D3D"/>
<path d="M126.067 16.8801C126.238 18.7062 126.545 21.2661 127.228 24.2868C127.671 26.2494 127.944 27.4953 128.525 29.0483C129.395 31.3863 131.05 35.8577 135.368 38.776C136.409 39.4928 138.133 40.4485 140.556 41.0116C140.949 41.0458 141.341 41.097 141.734 41.1311C141.87 41.8479 142.041 42.906 142.212 44.1859C142.621 47.4797 142.417 48.4866 143.27 49.3741C144.311 50.4492 145.966 50.3468 146.325 50.3127C149.175 50.125 150.608 47.292 150.677 47.1384C150.216 46.3021 149.755 45.2782 149.38 44.0835C148.56 41.4383 148.543 39.0832 148.68 37.479C149.994 35.5846 151.445 34.134 152.912 33.0076C153.475 32.581 153.953 32.0007 154.789 31.7106C155.984 31.301 156.599 31.7106 157.486 31.4375C158.954 30.9768 159.585 29.0824 159.858 28.2974C160.899 25.1913 159.619 22.1194 158.8 20.2933C158.066 18.6209 156.155 14.4738 151.496 11.2312C146.7 7.88626 137.109 4.16584 130.76 8.99556C129.668 9.8318 127.176 12.0675 126.067 16.8801Z" fill="white"/>
<path d="M126.784 23.9113C125.692 23.7236 122.927 23.0751 121.135 20.7029C118.404 17.1019 119.872 12.0674 121.391 9.4051C123.78 5.2239 128.132 3.77328 133.593 1.9472C136.836 0.872032 139.925 -0.151937 144.123 0.0187248C146.444 0.121122 154.312 0.462445 159.022 6.31613C161.821 9.78056 162.128 13.501 162.742 20.8394C163.032 24.2014 162.811 26.0275 162.23 27.7683C161.804 29.0312 160.421 33.0758 156.445 34.6971C154.363 35.5504 152.434 35.3798 151.376 35.2091C152.332 33.7926 153.288 32.3932 154.26 30.9767C154.807 31.0108 156.752 31.045 158.237 29.6967C160.268 27.8365 160.626 24.1332 159.141 23.1433C158.049 22.4095 155.882 23.1263 154.004 24.8158C153.834 23.7407 153.561 22.5631 153.1 21.3514C150.95 15.566 146.273 12.3917 143.987 11.0776C143.082 12.2381 140.215 15.6342 135.129 16.9825C131.102 18.0406 127.757 17.2897 126.272 16.8459C126.443 19.2011 126.613 21.5562 126.784 23.9113Z" fill="#5222D0"/>
<path d="M125.931 17.3238C126.63 22.5972 127.364 28.0755 129.941 32.8198C132.057 36.7109 135.471 40.0388 139.857 41.1481C140.181 41.2335 140.317 40.7385 139.993 40.6532C135.658 39.5439 132.313 36.1989 130.266 32.3249C127.825 27.7171 127.125 22.4266 126.443 17.3238C126.391 16.9995 125.88 16.9995 125.931 17.3238Z" fill="#161616"/>
<path d="M139.857 41.2164C142.946 41.2164 146.188 39.5609 148.612 37.7861C151.052 35.9941 153.049 33.6902 154.482 31.0279C154.636 30.7377 154.192 30.4818 154.039 30.7719C152.656 33.3659 150.728 35.6187 148.356 37.3423C145.983 39.0831 142.843 40.7044 139.857 40.7044C139.515 40.7044 139.515 41.2164 139.857 41.2164Z" fill="#161616"/>
<path d="M148.595 37.3765C148.253 40.8239 148.919 44.2712 150.489 47.3602C150.642 47.6503 151.086 47.3943 150.933 47.1042C149.397 44.0835 148.782 40.7386 149.107 37.3765C149.141 37.0523 148.629 37.0523 148.595 37.3765Z" fill="#161616"/>
<path d="M141.171 41.1311C141.734 43.0767 142.195 45.0563 142.536 47.0531C142.758 48.3842 142.843 49.8861 144.328 50.381C146.547 51.1319 149.823 49.8007 150.677 47.5992C150.796 47.292 150.301 47.1555 150.182 47.4627C149.704 48.7085 148.509 49.3911 147.28 49.7495C146.256 50.0397 144.703 50.3468 143.833 49.5106C143.321 49.0157 143.253 48.2306 143.15 47.5651C143.031 46.8654 142.911 46.1656 142.775 45.4659C142.468 43.9641 142.109 42.4623 141.683 40.9946C141.58 40.6874 141.085 40.8239 141.171 41.1311Z" fill="#161616"/>
<path d="M141.905 43.2473C144.942 42.8548 146.939 40.5338 148.407 38.0421C148.578 37.752 148.134 37.496 147.963 37.7861C146.615 40.1071 144.738 42.3769 141.905 42.7353C141.58 42.7865 141.58 43.2985 141.905 43.2473Z" fill="#161616"/>
<path d="M141.785 41.5065C144.157 41.2335 146.291 40.1242 147.878 38.3322C148.1 38.0933 147.741 37.7178 147.519 37.9738C146.035 39.6634 144.021 40.7385 141.785 40.9945C141.478 41.0287 141.461 41.5407 141.785 41.5065Z" fill="#161616"/>
<path d="M141.871 41.1311C143.782 40.8581 145.506 40.073 146.973 38.8272C147.229 38.6053 146.854 38.2469 146.615 38.4688C145.215 39.6634 143.56 40.3973 141.734 40.6533C141.41 40.6874 141.546 41.1823 141.871 41.1311Z" fill="#161616"/>
<path d="M141.768 41.5577C141.853 41.9673 141.836 42.7865 142.348 42.923C142.843 43.0596 143.594 42.4793 143.987 42.2404C145.335 41.4212 146.461 40.3119 147.349 39.0149C147.536 38.7418 147.093 38.4858 146.905 38.7589C146.274 39.6975 145.506 40.5338 144.601 41.2164C144.174 41.5407 143.731 41.8137 143.27 42.0697C143.082 42.1721 142.656 42.4622 142.468 42.3428C142.348 42.2745 142.297 41.5407 142.28 41.4212C142.195 41.097 141.7 41.2335 141.768 41.5577Z" fill="#161616"/>
<path d="M142.007 42.0356C143.475 41.4383 144.857 40.6873 146.154 39.7828C146.427 39.5951 146.171 39.1514 145.898 39.3391C144.635 40.2266 143.304 40.9604 141.87 41.5407C141.563 41.6601 141.7 42.155 142.007 42.0356Z" fill="#161616"/>
<path d="M142.263 42.5475C143.901 41.9673 145.335 41.0628 146.529 39.7999C146.751 39.561 146.393 39.2026 146.171 39.4415C145.028 40.6191 143.679 41.5065 142.126 42.0526C141.819 42.1721 141.956 42.667 142.263 42.5475Z" fill="#161616"/>
<path d="M142.536 42.2745C143.748 41.7454 144.857 41.0287 145.813 40.1071C146.052 39.8852 145.693 39.5268 145.454 39.7487C144.516 40.6361 143.458 41.3188 142.28 41.8308C141.973 41.9673 142.229 42.411 142.536 42.2745Z" fill="#161616"/>
<path d="M128.593 30.2941C125.811 29.3042 124.89 25.6692 125.163 23.041C125.453 20.1568 128.047 17.0166 131.221 18.3648C132.74 19.0134 133.303 20.6858 133.713 22.1706C134.139 23.7407 134.327 25.4814 133.918 27.0856C133.559 28.5021 132.689 29.8504 131.324 30.4647C129.958 31.0791 128.337 30.7378 127.415 29.5602C127.211 29.3042 126.852 29.6626 127.057 29.9186C128.61 31.9154 131.528 31.5228 133.098 29.765C135.095 27.5294 134.89 24.1332 134.037 21.4538C133.645 20.208 133.133 18.911 131.989 18.1942C130.999 17.5627 129.736 17.4091 128.627 17.6993C126.033 18.399 124.685 21.1466 124.634 23.6554C124.582 26.403 125.658 29.7992 128.491 30.789C128.764 30.8914 128.9 30.3965 128.593 30.2941Z" fill="#161616"/>
<path d="M134.498 25.1913C136.17 24.1844 138.201 24.082 139.942 24.9524C140.232 25.106 140.488 24.6623 140.198 24.5087C138.287 23.553 136.068 23.6383 134.225 24.7476C133.969 24.9183 134.225 25.362 134.498 25.1913Z" fill="#161616"/>
<path d="M142.655 28.8264C140.727 26.9662 139.925 24.082 140.676 21.488C141.461 18.7915 144.157 16.4705 147.059 17.4262C150.267 18.4843 150.438 23.0751 149.601 25.7716C149.106 27.3587 148.117 28.9459 146.478 29.5261C144.84 30.1064 143.423 29.236 142.109 28.3144C141.836 28.1267 141.58 28.5704 141.853 28.7581C142.929 29.5261 144.089 30.2941 145.454 30.2429C146.751 30.1917 147.929 29.4749 148.731 28.5021C150.54 26.3177 150.898 22.9898 150.148 20.3275C149.465 17.9041 147.451 16.334 144.874 16.7606C142.417 17.1532 140.608 19.3718 140.061 21.6927C139.43 24.3721 140.283 27.2734 142.263 29.1848C142.536 29.4237 142.894 29.0483 142.655 28.8264Z" fill="#161616"/>
<path d="M130.146 23.2116C129.975 24.2868 130.163 25.3278 130.743 26.2494C130.863 26.4371 131.136 26.403 131.204 26.1811C131.614 25.0036 131.033 23.8431 130.453 22.8362C130.334 22.6143 129.975 22.7167 129.975 22.9727C129.992 23.8772 130.18 24.7646 130.521 25.6009C130.641 25.9081 131.136 25.7715 131.016 25.4644C130.692 24.6622 130.504 23.8431 130.487 22.9727C130.334 23.0239 130.163 23.058 130.01 23.1092C130.539 24.0137 131.085 25.0036 130.709 26.0617C130.863 26.0446 131.016 26.0275 131.17 25.9934C130.658 25.1913 130.47 24.2868 130.624 23.3482C130.692 23.0239 130.197 22.8874 130.146 23.2116Z" fill="#161616"/>
<path d="M145.25 22.7338C145.25 22.512 145.233 22.4608 145.13 22.273C145.011 22.0512 144.652 22.1536 144.652 22.4096C144.669 23.4677 144.755 24.6111 145.574 25.362C145.745 25.5156 145.983 25.3961 146.018 25.1743C146.154 23.9114 145.779 22.7338 144.994 21.744C144.823 21.5392 144.516 21.761 144.567 22C144.772 22.8362 145.028 23.6554 145.335 24.4404C145.454 24.7476 145.949 24.6111 145.83 24.3039C145.506 23.5018 145.25 22.6997 145.062 21.8634C144.925 21.9488 144.772 22.0341 144.635 22.1194C145.335 23.0069 145.625 24.065 145.506 25.1913C145.659 25.1231 145.796 25.0719 145.949 25.0036C145.215 24.338 145.181 23.3311 145.164 22.4096C145.011 22.4608 144.84 22.4949 144.686 22.5461C144.704 22.6144 144.721 22.6826 144.738 22.7509C144.738 23.0581 145.25 23.0581 145.25 22.7338Z" fill="#161616"/>
<path d="M136.204 26.0958C135.863 27.1198 135.573 28.1608 135.385 29.219C135.283 29.7821 134.925 30.8402 135.18 31.4034C135.692 32.5468 137.962 31.8471 138.747 31.4717C139.037 31.3352 138.781 30.8914 138.491 31.028C137.86 31.3352 137.177 31.4887 136.478 31.4375C136.068 31.4034 135.744 31.3352 135.658 30.8744C135.607 30.6184 135.778 29.9528 135.829 29.6627C136.034 28.4851 136.341 27.3417 136.716 26.2153C136.802 25.9252 136.307 25.7887 136.204 26.0958Z" fill="#161616"/>
<path d="M138.781 35.943C140.061 35.7723 141.171 34.9531 141.734 33.7756C141.87 33.4855 141.427 33.2124 141.29 33.5196C140.778 34.5947 139.822 35.2945 138.645 35.4481C138.321 35.4993 138.474 35.9942 138.781 35.943Z" fill="#161616"/>
<path d="M129.071 21.7439C129.395 21.3514 129.992 21.2832 130.402 21.6245C130.658 21.8463 131.016 21.4709 130.76 21.2661C130.163 20.7541 129.241 20.7882 128.712 21.3856C128.491 21.6245 128.849 21.9829 129.071 21.7439Z" fill="#161616"/>
<path d="M143.714 20.7882C144.243 20.3275 145.045 20.3275 145.574 20.7712C145.83 20.976 146.188 20.6176 145.932 20.4128C145.181 19.7643 144.089 19.7813 143.338 20.4298C143.099 20.6517 143.475 21.0101 143.714 20.7882Z" fill="#161616"/>
<path d="M150.438 23.1434C152.281 22.4949 154.175 22.1023 156.138 22C156.462 21.9829 156.462 21.4709 156.138 21.488C154.141 21.5904 152.196 21.9829 150.301 22.6485C149.994 22.7679 150.113 23.2628 150.438 23.1434Z" fill="#161616"/>
<path opacity="0.4" d="M152.98 1.87897C154.004 3.19306 157.947 8.58596 157.213 15.9927C156.803 20.1227 155.097 23.1604 154.022 24.7647C154.636 24.2868 155.165 23.9626 155.557 23.7407C156.598 23.1604 157.264 22.8021 158.117 22.8533C158.373 22.8703 158.988 22.9215 159.431 23.2799C160.729 24.3721 160.285 28.2462 157.981 30.0552C156.718 31.045 155.233 31.1474 154.482 31.1303C153.51 32.5127 152.52 33.895 151.547 35.2945C152.195 35.3969 153.185 35.4822 154.329 35.3115C154.824 35.2433 156.803 34.8849 158.681 33.3831C160.524 31.8983 161.275 30.0893 161.77 28.8605C163.135 25.4473 162.862 22.4437 162.384 17.0337C162.179 14.6274 162.06 13.3986 161.582 11.7773C161.07 10.0195 160.268 7.42546 157.981 5.10447C156.343 3.39785 154.499 2.44215 152.98 1.87897Z" fill="#3D3D3D"/>
<path opacity="0.48" d="M136.495 16.4705C138.201 14.9516 140.113 13.0061 141.956 10.5827C143.099 9.08089 144.055 7.63027 144.84 6.28204C144.55 7.818 144.26 9.35395 143.987 10.8899C143.321 11.8456 142.212 13.2109 140.488 14.4567C138.969 15.5319 137.536 16.1292 136.495 16.4705Z" fill="#3D3D3D"/>
<path opacity="0.27" d="M148.629 14.525C149.926 18.8427 150.028 22.4607 149.908 24.85C149.823 26.6249 149.345 35.9259 144.447 39.1344C143.969 39.4416 142.758 40.1583 142.809 40.2607C142.877 40.3802 145.147 39.3733 146.393 38.6906C148.355 37.6325 151.376 35.4993 154.175 30.9938C154.636 31.045 156.889 31.1986 158.51 29.6456C160.472 27.7854 160.814 24.1332 159.261 23.0581C158.151 22.2901 156.035 22.9386 154.175 24.4746C153.987 23.6895 153.748 22.8703 153.424 22C152.144 18.6209 150.216 16.1633 148.629 14.525Z" fill="#3D3D3D"/>
<path opacity="0.36" d="M144.516 40.1242C144.959 41.4895 145.403 42.8547 145.847 44.2371C146.461 46.1144 147.059 48.0087 147.656 49.886C147.997 49.8177 148.833 49.5788 149.567 48.8279C150.301 48.077 150.54 47.2578 150.625 46.9165C149.96 45.6024 149.175 43.6057 148.902 41.0799C148.765 39.7658 148.799 38.6053 148.902 37.6325C147.451 38.4687 145.983 39.305 144.516 40.1242Z" fill="#3D3D3D"/>
<path opacity="0.43" d="M136 26.6931C135.146 28.5192 134.293 30.3282 133.44 32.1543C134.839 32.1202 136.221 32.1031 137.621 32.069C136.802 31.813 135.965 31.557 135.146 31.301C135.419 29.7651 135.709 28.2291 136 26.6931Z" fill="#3D3D3D"/>
</svg>
