<svg width="304" height="200" viewBox="0 0 304 200" fill="none" xmlns="http://www.w3.org/2000/svg">
<path d="M23.1297 178.578C20.3243 176.284 17.396 174.093 14.7954 171.575C13.5872 170.407 12.461 169.138 11.6009 167.684C11.1504 166.947 10.7818 166.148 10.5156 165.329C10.2904 164.653 10.0651 163.609 11.048 163.506C11.4166 163.466 11.8057 163.547 12.1538 163.65C12.5429 163.752 12.7067 163.158 12.3176 163.056C11.1504 162.769 9.47128 162.851 9.65557 164.489C9.88082 166.332 11.089 168.216 12.1948 169.629C15.0616 173.315 19.1161 176.08 22.6997 179.008C23.0068 179.254 23.4369 178.824 23.1297 178.578Z" fill="#E8E8E8"/>
<path d="M12.4197 163.158C11.232 161.745 10.3106 160.107 9.77815 158.325C9.53242 157.526 9.43003 156.707 9.1843 155.929C9.02048 155.438 8.71332 154.987 9.16383 154.557C9.3686 154.373 9.67576 154.25 9.90101 154.086C10.5972 153.615 10.9863 153.062 10.1263 152.469C9.6348 152.141 9.02048 152.079 8.48807 151.813C7.77136 151.424 7.21847 150.789 6.80893 150.114C5.94888 148.721 5.4779 147.083 4.96596 145.547C4.35164 143.725 3.7578 141.861 3.22539 140.018C2.16056 136.291 1.28003 132.524 0.563326 128.735C0.501894 128.858 0.419984 128.981 0.358552 129.104C4.2083 127.834 8.03757 131.09 10.7815 133.404C13.6074 135.779 16.1466 138.503 18.3786 141.452C22.9861 147.595 26.201 154.68 28.2078 162.072C29.4364 166.598 30.2146 171.246 30.6446 175.915C30.6856 176.304 31.2999 176.304 31.2589 175.915C29.7641 159.799 23.8256 143.479 11.1092 132.851C8.20139 130.435 4.26973 127.179 0.21521 128.51C0.0513914 128.571 -0.0305181 128.715 0.0104367 128.879C0.7681 132.933 1.73054 136.947 2.89775 140.919C3.45064 142.783 4.024 144.626 4.6588 146.448C5.17074 147.923 5.64172 149.499 6.54272 150.789C6.89084 151.281 7.27991 151.731 7.77136 152.079C8.36521 152.51 9.06144 152.55 9.65528 152.919C10.4334 153.39 9.30717 153.759 8.89762 154.045C8.59046 154.271 8.30377 154.537 8.24234 154.946C8.16043 155.561 8.69285 156.277 8.83619 156.851C9.04096 157.731 9.22526 158.591 9.5529 159.451C10.1467 160.967 10.9863 162.359 12.0307 163.608C12.2354 163.895 12.6655 163.465 12.4197 163.158Z" fill="#E8E8E8"/>
<path d="M3.65483 132.033C12.2144 141.698 18.8695 152.981 23.2107 165.145C24.4189 168.524 25.4223 171.964 26.2619 175.445C26.3642 175.834 26.9376 175.67 26.8557 175.281C23.8251 162.667 18.3781 150.647 10.8424 140.06C8.7537 137.111 6.50119 134.286 4.10533 131.583C3.81865 131.316 3.38863 131.746 3.65483 132.033Z" fill="#E8E8E8"/>
<path d="M5.04761 145.506C6.03053 145.752 6.99296 146.079 7.93492 146.468C8.30351 146.612 8.46733 146.018 8.09874 145.875C7.15678 145.486 6.19434 145.158 5.21143 144.912C4.84284 144.81 4.67902 145.404 5.04761 145.506Z" fill="#E8E8E8"/>
<path d="M12.2554 159.104C13.5864 159.063 14.6922 159.759 15.7775 160.415C16.7604 161.009 17.7228 161.602 18.6648 162.258C20.6101 163.609 22.3712 165.206 23.5384 167.295C23.7227 167.643 24.2551 167.336 24.0708 166.988C22.8422 164.817 20.9992 163.138 18.9719 161.746C17.9071 161.009 16.7809 160.312 15.6546 159.657C14.5898 159.022 13.5045 158.49 12.2349 158.51C11.8663 158.49 11.8663 159.104 12.2554 159.104Z" fill="#E8E8E8"/>
<path d="M20.4065 155.417C19.8536 152.1 19.8741 148.742 20.4679 145.445C20.5294 145.056 19.9355 144.892 19.8741 145.281C19.2598 148.701 19.2393 152.161 19.8127 155.581C19.8741 155.97 20.4679 155.806 20.4065 155.417Z" fill="#E8E8E8"/>
<path d="M19.3613 141.391C19.7914 137.337 20.6514 133.282 22.0848 129.474C23.293 126.259 25.095 123.105 28.1871 121.385C28.0233 121.303 27.8799 121.201 27.7161 121.119C28.0437 126.812 31.3816 131.869 31.5249 137.583C31.6068 137.48 31.6682 137.378 31.7501 137.296C30.972 137.501 30.1939 137.706 29.4157 137.91C29.1905 137.972 29.1086 138.258 29.2724 138.422C30.2143 139.323 30.3986 140.593 30.4396 141.842C30.4601 142.497 30.8082 145.671 30.0505 145.876C29.8662 145.937 29.7638 146.163 29.8662 146.326C32.1392 149.971 31.0949 154.292 30.4601 158.224C29.8048 162.278 29.7229 166.374 30.1939 170.428C30.2348 170.817 30.8491 170.817 30.8082 170.428C30.2758 165.862 30.542 161.377 31.3201 156.872C31.9549 153.227 32.4669 149.316 30.4191 145.999C30.3577 146.142 30.2963 146.306 30.2348 146.449C30.7877 146.306 30.972 145.876 31.0539 145.344C31.1973 144.361 31.0949 143.275 31.0744 142.292C31.0539 140.736 30.8901 139.118 29.7024 137.992C29.6615 138.156 29.6205 138.34 29.5591 138.504C30.3372 138.299 31.1153 138.095 31.8935 137.89C32.0164 137.849 32.1187 137.726 32.1187 137.603C31.9754 131.869 28.6581 126.832 28.3099 121.139C28.2895 120.914 28.0642 120.75 27.839 120.873C24.7878 122.573 22.9449 125.583 21.6753 128.757C20.0576 132.791 19.1566 137.112 18.7061 141.432C18.7061 141.781 19.3204 141.781 19.3613 141.391Z" fill="#E8E8E8"/>
<path d="M26.7939 124.189C24.6028 132.483 23.4765 141.042 23.4561 149.622C23.4561 150.011 24.0704 150.011 24.0704 149.622C24.0909 141.083 25.1966 132.605 27.3672 124.353C27.4901 123.964 26.8963 123.8 26.7939 124.189Z" fill="#E8E8E8"/>
<path d="M267.219 111.923C268.529 116.142 269.512 120.442 270.127 124.824C270.434 127.036 270.659 129.288 270.761 131.52C270.802 132.094 270.823 132.687 270.843 133.261C270.864 133.609 270.761 134.182 270.884 134.51C271.007 134.817 271.437 135.022 271.683 135.227C272.113 135.575 272.543 135.923 272.952 136.271C272.973 136.107 272.993 135.943 273.014 135.78C272.441 136.128 271.888 136.291 271.212 136.312C271.069 136.312 270.966 136.414 270.925 136.537C270.331 138.38 270.761 140.326 272.092 141.759C272.174 141.575 272.236 141.411 272.318 141.227C270.188 141.145 270.147 143.602 270.352 145.117C270.638 147.226 271.048 149.336 271.642 151.383C272.83 155.397 274.816 159.206 278.072 161.95C278.379 162.195 278.809 161.765 278.502 161.52C275.758 159.206 273.915 156.093 272.727 152.714C272.174 151.117 271.744 149.479 271.417 147.841C271.15 146.469 269.819 141.759 272.318 141.841C272.604 141.861 272.707 141.513 272.543 141.308C271.376 140.039 271.007 138.319 271.539 136.701C271.437 136.783 271.335 136.844 271.253 136.926C272.031 136.926 272.686 136.742 273.362 136.312C273.505 136.21 273.587 135.964 273.423 135.821C272.666 135.206 271.621 134.674 271.499 133.65C271.376 132.565 271.417 131.438 271.335 130.353C271.191 128.326 270.987 126.299 270.679 124.271C270.065 120.032 269.103 115.855 267.833 111.76C267.69 111.371 267.096 111.534 267.219 111.923Z" fill="#E8E8E8"/>
<path d="M268.223 112.845C267.384 111.74 268.961 110.92 269.882 111.146C270.804 111.391 271.561 112.129 272.196 112.784C273.363 113.972 274.285 115.364 275.083 116.818C276.742 119.808 278.134 123.002 279.363 126.176C281.882 132.708 283.622 139.548 284.544 146.469C285.056 150.401 285.322 154.353 285.322 158.305C285.322 158.694 285.936 158.694 285.936 158.305C285.936 150.073 284.81 141.862 282.598 133.958C281.513 130.108 280.182 126.34 278.605 122.654C277.151 119.255 275.595 115.61 273.097 112.825C272.094 111.699 270.394 109.958 268.715 110.552C267.691 110.9 267.015 112.211 267.711 113.153C267.937 113.46 268.469 113.173 268.223 112.845Z" fill="#E8E8E8"/>
<path d="M282.967 135.35C284.011 131.848 285.22 128.428 286.591 125.049C287.308 123.309 288.066 121.568 288.885 119.869C289.274 119.07 289.663 118.251 290.073 117.452C290.339 116.94 291.137 114.688 291.977 114.893C292.223 114.954 292.387 114.749 292.346 114.524C292.141 113.254 293.574 112.169 294.332 111.33C295.008 110.592 295.663 109.855 296.339 109.118C297.731 107.603 299.103 106.087 300.496 104.552C300.332 104.511 300.148 104.47 299.984 104.408C302.093 109.63 301.54 115.343 300.311 120.708C299.677 123.452 298.878 126.176 298.202 128.92C297.731 130.824 297.219 133.711 294.885 134.121C294.721 134.141 294.639 134.346 294.68 134.489C295.274 136.926 293.636 139.179 292.55 141.227C291.527 143.151 290.585 145.138 289.725 147.165C288.045 151.117 286.714 155.192 285.711 159.349C285.609 159.738 286.202 159.902 286.305 159.513C287.411 154.905 288.926 150.421 290.871 146.1C291.793 144.052 292.817 142.046 293.902 140.08C294.885 138.298 295.786 136.414 295.294 134.346C295.233 134.469 295.151 134.592 295.09 134.715C297.076 134.367 297.936 132.36 298.448 130.599C299.287 127.65 300.045 124.619 300.762 121.63C302.134 115.937 302.871 109.814 300.619 104.244C300.537 104.04 300.27 103.917 300.107 104.101C298.366 106.005 296.625 107.93 294.885 109.835C294.066 110.736 293.185 111.596 292.428 112.558C291.936 113.213 291.67 113.828 291.793 114.647C291.916 114.524 292.038 114.401 292.161 114.278C290.687 113.91 289.97 116.326 289.479 117.288C288.496 119.234 287.574 121.2 286.735 123.186C285.056 127.077 283.622 131.09 282.414 135.145C282.25 135.554 282.844 135.718 282.967 135.35Z" fill="#E8E8E8"/>
<path d="M298.981 109.855C292.592 121.773 286.08 134.06 284.544 147.677C284.503 148.066 285.117 148.066 285.158 147.677C286.694 134.162 293.185 121.957 299.513 110.162C299.718 109.814 299.185 109.507 298.981 109.855Z" fill="#E8E8E8"/>
<path d="M272.339 118.046C277.315 131.213 280.284 145.097 281.164 159.144C281.185 159.533 281.799 159.533 281.779 159.144C280.898 145.035 277.929 131.111 272.932 117.882C272.789 117.534 272.195 117.678 272.339 118.046Z" fill="#E8E8E8"/>
<path d="M13.5865 111.452C26.0777 109.22 38.9784 109.343 51.4287 111.821C57.5924 113.049 63.6332 114.831 69.4488 117.165C75.5306 119.602 81.3666 122.53 87.3255 125.233C109.81 135.431 133.871 142.107 158.382 145.015C172.286 146.673 186.334 147.103 200.299 146.325C200.688 146.305 200.688 145.69 200.299 145.711C175.235 147.124 149.986 144.564 125.7 138.196C113.516 135.001 101.578 130.844 90.049 125.786C84.0696 123.165 78.2336 120.216 72.2337 117.657C66.5 115.22 60.5821 113.254 54.5208 111.862C41.0671 108.79 27.0196 108.442 13.4227 110.879C13.0336 110.92 13.1974 111.514 13.5865 111.452Z" fill="#E8E8E8"/>
<path d="M124.984 137.746C136.635 138.34 147.878 134.142 158.833 130.784C170.3 127.282 181.809 123.883 193.337 120.566C204.805 117.269 216.272 113.808 227.924 111.167C239.534 108.546 251.37 107.296 263.268 106.948C276.516 106.539 289.765 107.133 302.994 107.747C303.383 107.767 303.383 107.153 302.994 107.133C279.629 106.068 255.957 105.023 232.859 109.508C221.146 111.781 209.678 115.262 198.211 118.518C186.682 121.815 175.174 125.194 163.686 128.654C157.318 130.579 150.97 132.668 144.56 134.429C138.171 136.19 131.619 137.46 124.963 137.132C124.595 137.111 124.595 137.726 124.984 137.746Z" fill="#E8E8E8"/>
<path d="M75.2648 116.736C83.3534 119.07 91.7491 117.452 99.8172 115.896C108.459 114.237 117.182 113.111 125.987 112.763C143.434 112.108 160.778 114.606 178.164 115.302C187.788 115.691 197.453 115.466 206.955 113.889C207.344 113.828 207.18 113.234 206.791 113.295C189.692 116.142 172.328 114.442 155.168 113.152C146.588 112.497 137.987 111.944 129.366 112.087C120.827 112.231 112.288 113.05 103.851 114.545C94.5135 116.183 84.8073 118.886 75.4081 116.162C75.0396 116.039 74.8757 116.633 75.2648 116.736Z" fill="#E8E8E8"/>
<path d="M111.51 156.196C114.131 155.111 116.957 154.558 119.804 154.64C122.445 154.722 124.821 155.582 127.38 156.114C129.285 156.524 131.189 156.524 132.725 155.172C133.319 154.66 133.831 154.128 134.691 154.394C135.325 154.578 135.858 155.008 136.452 155.274C137.148 155.602 137.865 155.725 138.602 155.582C140.363 155.234 141.694 153.78 143.23 152.94C145.83 151.548 148.329 153.411 150.868 154.087C156.151 155.5 161.803 155.07 167.209 155.008C173.864 154.947 180.54 154.988 187.154 154.169C187.543 154.128 187.543 153.513 187.154 153.554C181.215 154.271 175.215 154.312 169.236 154.373C163.543 154.435 157.523 154.967 151.912 153.698C150.602 153.411 149.373 152.981 148.124 152.469C147.039 152.019 145.912 151.589 144.725 151.752C142.861 151.998 141.469 153.472 139.892 154.373C139.073 154.844 138.172 155.172 137.23 154.906C136.206 154.599 135.366 153.698 134.24 153.657C133.175 153.636 132.663 154.496 131.885 155.049C130.8 155.807 129.428 155.827 128.158 155.623C125.455 155.193 122.937 154.148 120.172 154.025C117.162 153.882 114.152 154.435 111.346 155.602C110.978 155.745 111.142 156.339 111.51 156.196Z" fill="#E8E8E8"/>
<path d="M124.574 137.93C124.943 137.992 125.291 138.074 125.66 138.135C126.049 138.217 126.192 137.685 125.823 137.541C125.598 137.459 125.373 137.378 125.127 137.296C124.8 137.173 124.574 137.705 124.882 137.848C126.765 138.831 128.731 139.61 130.779 140.162C131.168 140.265 131.332 139.671 130.943 139.569C128.936 139.036 127.032 138.279 125.189 137.316C125.107 137.5 125.025 137.685 124.943 137.869C125.168 137.951 125.393 138.033 125.639 138.115C125.701 137.91 125.742 137.726 125.803 137.521C125.434 137.459 125.086 137.378 124.718 137.316C124.349 137.255 124.185 137.848 124.574 137.93Z" fill="#E8E8E8"/>
<path d="M97.0526 166.312C96.6021 165.78 96.1925 165.227 95.8444 164.612C95.6806 164.305 95.4758 163.978 95.3734 163.629C95.2301 163.404 95.2096 163.138 95.2915 162.872C95.2301 162.585 95.312 162.36 95.5168 162.196C95.8239 161.356 95.4554 160.476 95.2506 159.616C94.9434 158.264 94.6363 156.913 94.3291 155.561C94.1653 154.845 94.0015 154.148 93.8581 153.432C93.7762 153.104 93.7148 152.797 93.6329 152.469C93.51 151.896 93.3871 151.63 93.8172 151.159C94.0219 150.729 94.3291 150.647 94.7386 150.974C94.9229 151.159 95.1072 151.343 95.2915 151.527C95.4963 151.794 95.6397 152.101 95.8035 152.387C96.0902 152.92 96.3768 153.452 96.643 153.985C97.2778 155.254 97.8307 156.565 98.3017 157.896C99.2027 160.394 99.817 162.974 100.186 165.616C100.288 165.493 100.39 165.35 100.472 165.227C100.513 165.268 100.534 165.329 100.575 165.37C100.677 164.981 100.083 164.817 99.9809 165.206C99.8989 165.575 100.083 165.841 100.472 165.841C100.698 165.841 100.8 165.657 100.759 165.452C100.288 162.073 99.4075 158.776 98.056 155.643C97.4212 154.169 96.7454 152.531 95.8035 151.22C95.2915 150.503 94.3701 149.848 93.4895 150.36C92.4861 150.933 92.9571 152.346 93.1619 153.227C93.5714 155.029 93.981 156.831 94.3701 158.633C94.5544 159.493 94.9434 160.455 94.9844 161.336C95.0049 162.053 94.411 162.38 94.5134 163.097C94.7182 164.428 95.7216 165.78 96.5611 166.762C96.8683 167.029 97.2983 166.599 97.0526 166.312Z" fill="#E8E8E8"/>
<path d="M98.9362 157.506C98.6291 155.663 98.67 153.779 99.1001 151.956C99.2024 151.485 99.3458 151.035 99.5096 150.584C99.7963 149.806 100.206 149.888 100.615 150.462C101.148 151.219 101.557 152.059 101.865 152.919C103.114 156.482 102.561 160.311 102.028 163.936C101.967 164.325 102.561 164.489 102.622 164.1C103.298 159.533 103.994 154.352 101.23 150.277C100.923 149.827 100.513 149.069 99.8782 149.172C99.2024 149.294 98.9772 150.216 98.7929 150.748C98.0557 152.98 97.9328 155.356 98.3219 157.649C98.4243 158.059 99.0181 157.895 98.9362 157.506Z" fill="#E8E8E8"/>
<path d="M100.043 152.796C100.657 155.991 100.882 159.206 100.78 162.441C100.759 162.83 101.374 162.83 101.394 162.441C101.517 159.144 101.251 155.868 100.637 152.633C100.555 152.244 99.9812 152.407 100.043 152.796Z" fill="#E8E8E8"/>
<path d="M24.7267 109.138C24.1329 107.828 22.8019 106.906 21.9623 105.76C21.0408 104.49 20.2627 103.118 19.505 101.766C19.4436 101.91 19.3822 102.074 19.3207 102.217C23.4367 101.48 25.812 105.534 26.6107 108.954C26.6926 109.343 27.2864 109.179 27.2045 108.79C26.324 105.002 23.621 100.845 19.1569 101.623C18.9521 101.664 18.8907 101.91 18.9726 102.074C19.7303 103.446 20.4879 104.818 21.4299 106.067C22.2695 107.213 23.621 108.176 24.1943 109.445C24.3582 109.814 24.8906 109.507 24.7267 109.138Z" fill="#E8E8E8"/>
<path d="M26.5079 105.841C26.815 102.626 29.8866 100.62 31.0743 97.7732C30.931 97.8346 30.7672 97.8961 30.6238 97.9575C31.9958 98.838 30.972 102.032 30.5829 103.261C30.0095 105.063 29.0676 106.701 27.8594 108.135C27.6137 108.442 28.0437 108.872 28.2894 108.565C29.8047 106.783 30.89 104.715 31.4429 102.442C31.791 101.009 32.4463 98.408 30.931 97.4251C30.7467 97.3022 30.5419 97.4456 30.4805 97.6094C29.2519 100.558 26.2212 102.483 25.8936 105.841C25.8526 106.23 26.4669 106.23 26.5079 105.841Z" fill="#E8E8E8"/>
<path d="M208.347 115.139C208.163 114.668 207.979 114.197 207.794 113.726C207.692 113.5 207.61 113.255 207.508 113.029C207.385 112.866 207.385 112.681 207.487 112.497C207.671 112.661 208.04 112.558 208.02 112.272C207.917 111.248 207.815 110.204 207.712 109.18C207.692 108.934 207.446 107.971 207.59 107.787C208.224 106.907 208.654 108.361 208.716 108.586C209.269 110.47 209.248 112.64 209.228 114.586C209.228 114.975 209.842 114.975 209.842 114.586C209.863 112.988 209.781 111.412 209.555 109.835C209.412 108.832 209.248 107.378 208.265 106.784C207.63 106.395 207.098 106.804 206.975 107.48C206.852 108.135 207.057 108.913 207.119 109.548C207.2 110.449 207.303 111.35 207.385 112.251C207.569 112.169 207.733 112.108 207.917 112.026C207.569 111.698 207.037 111.76 206.832 112.21C206.689 112.517 206.811 112.845 206.914 113.152C207.159 113.869 207.487 114.565 207.753 115.282C207.897 115.671 208.491 115.507 208.347 115.139Z" fill="#E8E8E8"/>
<path d="M209.719 111.8C209.637 108.933 210.231 106.128 211.48 103.527C211.316 103.548 211.152 103.568 210.989 103.589C212.32 104.695 211.439 107.684 211.214 109.118C210.907 111.043 210.518 112.968 210.026 114.851C209.924 115.24 210.518 115.404 210.62 115.015C211.214 112.722 211.664 110.387 211.992 108.032C212.197 106.517 212.791 104.285 211.419 103.138C211.275 103.015 211.03 103.015 210.927 103.2C209.637 105.882 209.002 108.79 209.084 111.78C209.125 112.189 209.739 112.189 209.719 111.8Z" fill="#E8E8E8"/>
<path d="M102.255 174.482C103.545 173.172 105.552 174.933 107.046 174.851C107.763 174.81 108.418 174.544 109.074 174.319C109.954 174.032 110.794 173.93 111.715 174.011C115.36 174.319 118.903 174.585 122.568 174.339C122.957 174.319 122.957 173.704 122.568 173.725C120.582 173.848 118.616 173.889 116.63 173.807C114.623 173.725 112.534 173.233 110.548 173.377C109.749 173.438 109.012 173.704 108.255 173.95C107.149 174.298 106.309 174.237 105.244 173.848C104.077 173.418 102.767 173.069 101.804 174.052C101.538 174.339 101.968 174.769 102.255 174.482Z" fill="#E8E8E8"/>
<path d="M63.5724 179.459C65.0058 177.903 67.5245 177.801 69.0398 179.275C69.0603 179.111 69.0808 178.947 69.1013 178.783C68.0365 179.295 66.9512 179.521 65.7839 179.459C65.3949 179.439 65.3949 180.053 65.7839 180.074C67.074 180.135 68.2617 179.889 69.4289 179.316C69.6132 179.234 69.6337 178.968 69.4903 178.824C67.7293 177.125 64.801 177.207 63.1424 179.009C62.8762 179.316 63.3062 179.746 63.5724 179.459Z" fill="#E8E8E8"/>
<path d="M6.50178 184.988C5.45744 184.906 4.41309 185.213 3.61447 185.929C3.12302 186.38 2.42679 187.22 3.06158 187.813C3.77829 188.469 5.49839 188.039 6.33797 187.957C7.87377 187.793 9.36862 187.506 10.8635 187.117C11.2525 187.015 11.0887 186.421 10.6996 186.523C8.89764 186.994 7.07515 187.301 5.21171 187.424C4.84312 187.445 4.45405 187.486 4.08545 187.486C3.16397 187.445 3.594 186.749 4.0445 186.36C4.72025 185.745 5.60078 185.52 6.50178 185.602C6.91133 185.622 6.89085 185.008 6.50178 184.988Z" fill="#E8E8E8"/>
<path d="M35.7641 168.094C35.8051 167.93 35.9279 167.827 36.0918 167.827C36.2351 167.807 36.3784 167.786 36.5013 167.766C36.8289 167.725 37.1361 167.745 37.4637 167.786C38.0985 167.868 38.6719 168.094 39.2248 168.442C39.2453 168.257 39.2657 168.073 39.3067 167.889C38.549 168.155 37.7914 168.216 36.9928 168.094C36.6037 168.032 36.4399 168.626 36.8289 168.687C37.7299 168.831 38.59 168.769 39.4705 168.483C39.7163 168.401 39.7777 168.073 39.5524 167.93C38.4876 167.254 37.0951 166.926 35.846 167.274C35.1703 167.459 34.6379 168.503 35.6003 168.708C35.9894 168.769 36.1532 168.175 35.7641 168.094Z" fill="#E8E8E8"/>
<path d="M52.7196 27.2702C47.8459 25.5501 44.3648 20.8199 43.8324 15.7005C43.2795 10.4174 46.2487 5.37992 50.7128 2.67691C55.525 -0.230878 62.3644 -0.251355 66.3165 4.15128C68.3438 6.38332 69.5929 9.43445 70.3301 12.3218C71.0878 15.291 71.2106 18.5878 69.511 21.2704C67.7909 23.9529 64.7193 25.4478 61.832 26.574C58.7809 27.7822 55.1154 28.7241 52.1257 26.8402C51.7981 26.6354 51.4909 27.1679 51.8186 27.3726C54.5011 29.0518 57.7365 28.6218 60.6034 27.6798C63.4088 26.7583 66.378 25.4682 68.5486 23.3795C73.4017 18.7312 71.4154 11.0522 68.3848 5.95329C66.7875 3.25028 64.3917 1.26397 61.3405 0.444876C58.4327 -0.333264 55.3202 -0.0670585 52.5557 1.0592C47.4773 3.14789 43.5047 8.02151 43.1771 13.5914C42.8085 19.7346 46.7606 25.8164 52.5557 27.8641C52.9243 28.0074 53.0882 27.4136 52.7196 27.2702Z" fill="#E8E8E8"/>
<path d="M206.689 146.141C220.654 145.26 234.538 143.377 248.217 140.489C252.169 139.65 256.101 138.728 260.012 137.725C260.401 137.622 260.237 137.029 259.848 137.131C246.292 140.592 232.49 143.09 218.566 144.544C214.613 144.953 210.661 145.281 206.709 145.527C206.3 145.547 206.3 146.161 206.689 146.141Z" fill="#E8E8E8"/>
<path d="M174.682 160.926C176.484 161.233 178.327 161.212 180.109 160.782C181.214 160.516 182.013 160.086 183.16 160.455C183.876 160.68 184.552 160.762 185.289 160.618C186.108 160.455 186.866 160.045 187.562 159.595C188.32 159.083 189.078 158.366 189.999 158.182C191.064 157.977 192.026 158.816 193.05 159.042C193.787 159.206 194.545 159.185 195.282 159.062C195.671 159.001 195.508 158.407 195.118 158.468C193.828 158.694 192.825 158.366 191.658 157.854C191.166 157.629 190.695 157.506 190.142 157.547C188.484 157.731 187.337 159.287 185.801 159.84C184.818 160.188 184.02 160.066 183.057 159.758C182.32 159.533 181.788 159.656 181.071 159.881C179.044 160.516 176.976 160.7 174.887 160.352C174.477 160.27 174.293 160.864 174.682 160.926Z" fill="#E8E8E8"/>
<path d="M73.2171 187.568C89.1281 187.568 105.039 187.568 120.95 187.568C121.749 187.568 121.749 186.339 120.95 186.339C105.039 186.339 89.1281 186.339 73.2171 186.339C72.4185 186.339 72.4185 187.568 73.2171 187.568Z" fill="#161616"/>
<path d="M124.368 187.198C126.232 187.198 128.095 187.198 129.959 187.198C130.757 187.198 130.757 185.97 129.959 185.97C128.095 185.97 126.232 185.97 124.368 185.97C123.57 185.97 123.57 187.198 124.368 187.198Z" fill="#161616"/>
<path d="M134.096 187.015C134.69 187.015 135.304 187.015 135.898 187.015C136.697 187.015 136.697 185.786 135.898 185.786C135.304 185.786 134.69 185.786 134.096 185.786C133.297 185.786 133.297 187.015 134.096 187.015Z" fill="#161616"/>
<path d="M21.8805 192.073C33.655 192.073 45.409 192.073 57.1835 192.073C57.9821 192.073 57.9821 190.845 57.1835 190.845C45.409 190.845 33.655 190.845 21.8805 190.845C21.1023 190.845 21.1023 192.073 21.8805 192.073Z" fill="#161616"/>
<path d="M60.6022 192.073C63.6738 192.073 66.7249 192.073 69.7965 192.073C70.5951 192.073 70.5951 190.845 69.7965 190.845C66.7249 190.845 63.6738 190.845 60.6022 190.845C59.824 190.845 59.824 192.073 60.6022 192.073Z" fill="#161616"/>
<path d="M75.0196 191.704C75.2039 191.704 75.3882 191.704 75.552 191.704C75.8796 191.704 76.1868 191.418 76.1663 191.09C76.1458 190.762 75.9001 190.476 75.552 190.476C75.3677 190.476 75.1834 190.476 75.0196 190.476C74.6919 190.476 74.3848 190.762 74.4053 191.09C74.4257 191.418 74.6715 191.704 75.0196 191.704Z" fill="#161616"/>
<path d="M15.4095 192.236C15.8395 192.236 16.2491 192.236 16.6791 192.236C17.4777 192.236 17.4777 191.008 16.6791 191.008C16.2491 191.008 15.8395 191.008 15.4095 191.008C14.6109 191.008 14.6109 192.236 15.4095 192.236Z" fill="#161616"/>
<path d="M177.672 169.732C194.177 169.732 210.682 169.732 227.207 169.732C228.006 169.732 228.006 168.503 227.207 168.503C210.702 168.503 194.197 168.503 177.672 168.503C176.874 168.503 176.874 169.732 177.672 169.732Z" fill="#161616"/>
<path d="M233.678 169.015C248.627 169.015 263.575 169.015 278.524 169.015C279.322 169.015 279.322 167.786 278.524 167.786C263.575 167.786 248.627 167.786 233.678 167.786C232.9 167.786 232.9 169.015 233.678 169.015Z" fill="#161616"/>
<path d="M282.496 168.646C283.705 168.646 284.892 168.646 286.1 168.646C286.899 168.646 286.899 167.417 286.1 167.417C284.892 167.417 283.705 167.417 282.496 167.417C281.698 167.417 281.698 168.646 282.496 168.646Z" fill="#161616"/>
<path d="M266.647 161.807C270.067 161.807 273.486 161.807 276.906 161.807C277.705 161.807 277.705 160.578 276.906 160.578C273.486 160.578 270.067 160.578 266.647 160.578C265.848 160.578 265.848 161.807 266.647 161.807Z" fill="#161616"/>
<path d="M280.325 161.622C281.164 161.622 282.004 161.622 282.844 161.622C283.642 161.622 283.642 160.394 282.844 160.394C282.004 160.394 281.164 160.394 280.325 160.394C279.547 160.394 279.547 161.622 280.325 161.622Z" fill="#161616"/>
<path d="M167.761 173.336C172.143 173.336 176.526 173.336 180.908 173.336C181.706 173.336 181.706 172.107 180.908 172.107C176.526 172.107 172.143 172.107 167.761 172.107C166.983 172.107 166.983 173.336 167.761 173.336Z" fill="#161616"/>
<path d="M185.597 173.151C187.46 173.151 189.324 173.151 191.187 173.151C191.986 173.151 191.986 171.922 191.187 171.922C189.324 171.922 187.46 171.922 185.597 171.922C184.798 171.922 184.798 173.151 185.597 173.151Z" fill="#161616"/>
<path d="M193.705 176.223C194.975 176.223 196.224 176.223 197.494 176.223C198.292 176.223 198.292 174.994 197.494 174.994C196.224 174.994 194.975 174.994 193.705 174.994C192.907 174.994 192.907 176.223 193.705 176.223Z" fill="#161616"/>
<path d="M106.493 73.5495C105.755 72.628 108.54 72.0546 108.991 71.8703C109.871 71.4813 110.424 70.7646 110.629 69.8226C110.834 68.8602 110.629 67.8363 110.916 66.8943C111.346 65.5019 112.943 65.5838 114.131 65.6452C114.929 65.6862 114.909 64.4575 114.131 64.4166C112.779 64.3347 111.223 64.3756 110.281 65.4814C109.441 66.4643 109.605 67.7953 109.503 69.0035C109.421 70.0888 109.011 70.6212 107.947 70.9284C107.332 71.1127 106.718 71.2151 106.206 71.6041C105.264 72.2799 104.875 73.4676 105.633 74.4095C106.104 75.0443 106.984 74.1638 106.493 73.5495Z" fill="#161616"/>
<path d="M110.854 74.5728C110.301 73.9175 111.571 73.2622 111.98 73.0165C112.533 72.6889 113.004 72.3817 113.414 71.8902C114.253 70.8868 114.806 68.9825 116.322 68.9005C117.1 68.8596 117.12 67.6309 116.322 67.6719C113.803 67.7948 113.598 70.4159 111.878 71.6445C111.141 72.1564 110.26 72.4431 109.789 73.2622C109.359 73.9994 109.441 74.798 109.974 75.4328C110.486 76.0471 111.366 75.1666 110.854 74.5728Z" fill="#161616"/>
<path d="M206.811 8.28744C206.729 9.59799 205.705 11.1748 206.934 12.2805C207.998 13.2225 209.329 12.5263 210.538 12.6082C211.869 12.7106 211.295 13.9392 211.131 14.8402C211.009 15.516 210.947 16.2531 211.254 16.9084C211.746 17.9323 213.077 18.5876 214.06 17.8504C214.674 17.3794 214.06 16.3146 213.445 16.7856C212.442 17.5432 212.237 15.7207 212.34 15.1678C212.442 14.574 212.647 13.9802 212.667 13.3658C212.688 12.5058 212.237 11.83 211.439 11.5433C210.456 11.1952 209.575 11.5843 208.592 11.5638C206.811 11.5229 207.998 9.35226 208.06 8.28744C208.101 7.48882 206.872 7.48882 206.811 8.28744Z" fill="#161616"/>
<path d="M213.857 9.70046C213.345 10.8062 212.853 12.1168 213.672 13.2226C213.979 13.6321 214.389 13.8779 214.88 13.9598C215.208 14.0007 215.638 13.8574 215.925 13.9802C216.396 14.1645 216.662 14.7174 216.437 15.2089C216.089 15.9256 217.153 16.5399 217.502 15.8232C217.932 14.9017 217.768 13.8369 216.949 13.1611C216.498 12.7925 216.089 12.7925 215.536 12.7311C214.041 12.5878 214.45 11.3387 214.921 10.3353C215.249 9.61855 214.184 8.98376 213.857 9.70046Z" fill="#161616"/>
<path d="M279.117 52.1705C278.667 51.0033 279.752 49.3242 281.124 49.7542C282.168 50.1023 282.639 51.6586 281.943 52.5186C281.452 53.133 282.312 53.993 282.803 53.3787C284.073 51.8429 283.438 49.1603 281.452 48.5665C279.261 47.9112 277.151 50.4095 277.95 52.4777C278.216 53.2353 279.404 52.9077 279.117 52.1705Z" fill="#161616"/>
<path d="M40.0645 100.785C39.9416 99.3309 41.7846 98.5118 42.5627 99.8838C43.218 101.071 41.9279 102.116 40.8017 101.727C40.0645 101.461 39.7368 102.648 40.474 102.914C42.747 103.734 44.8971 101.153 43.5252 99.1056C42.0508 96.9145 38.6311 98.2046 38.8563 100.785C38.8973 101.563 40.1259 101.583 40.0645 100.785Z" fill="#161616"/>
<path d="M47.1911 43.3863C46.7201 44.1645 46.6791 45.1679 47.2935 45.8846C47.6006 46.2327 48.0307 46.458 48.4812 46.5399C49.116 46.6422 49.5869 46.2941 50.1398 46.5603C50.6927 46.847 50.5698 47.1951 50.6313 47.7685C50.6518 48.1166 50.6722 48.4443 50.7132 48.7924C50.7541 49.161 50.7951 49.5296 51.0613 49.8162C51.307 50.0824 51.6142 50.1848 51.9623 50.2463C52.208 50.2872 52.4538 50.2667 52.72 50.2667C52.9247 50.2667 53.15 50.2667 53.3548 50.3077C53.7438 50.4101 53.9077 50.6763 53.8667 51.0654C53.5595 51.2906 53.8462 51.823 54.1739 51.5978C54.7882 51.1473 54.5834 50.451 54.051 50.0005C53.8053 49.7958 53.5391 49.6934 53.2114 49.6524C52.1466 49.5091 51.5323 49.9186 51.2866 48.4238C51.1637 47.6866 51.4299 46.1508 50.6722 45.6593C50.3241 45.4341 50.017 45.5365 49.6688 45.6798C49.116 45.9051 48.6655 46.0894 48.0921 45.7412C47.3139 45.2703 47.2935 44.3488 47.7235 43.6526C47.9283 43.3659 47.3959 43.0587 47.1911 43.3863Z" fill="#EC615B"/>
<path d="M55.4633 45.8231C55.0537 46.5398 54.5623 47.6251 55.1971 48.3623C55.6066 48.8537 56.3028 48.7923 56.8352 49.0994C57.6748 49.5704 58.0639 50.5533 57.9001 51.4748C57.8386 51.8639 58.4325 52.0277 58.4939 51.6386C58.6577 50.7171 58.453 49.8161 57.8182 49.1199C57.5519 48.8128 57.2038 48.5875 56.8352 48.4237C56.4052 48.2394 55.668 48.0141 55.5247 47.4817C55.4223 47.0927 55.8318 46.4374 55.9957 46.1302C56.18 45.7821 55.6476 45.4749 55.4633 45.8231Z" fill="#EC615B"/>
<path d="M170.73 110.49C170.034 109.056 171.345 107.377 172.901 107.93C174.519 108.504 174.457 110.715 172.921 111.329C172.553 111.473 172.717 112.067 173.085 111.923C175.071 111.125 175.338 108.278 173.269 107.418C171.14 106.517 169.256 108.831 170.218 110.817C170.382 111.166 170.915 110.838 170.73 110.49Z" fill="#EC615B"/>
<path d="M95.3119 105.637C94.0014 105.371 96.1105 103.958 96.3358 103.815C96.6634 103.59 96.9706 103.344 97.1344 102.955C97.6873 101.706 96.6839 99.2074 98.8955 99.0845C99.2845 99.0641 99.2845 98.4497 98.8955 98.4702C98.0354 98.5112 97.4006 98.9822 97.0115 99.7193C96.3767 100.907 97.1344 102.525 95.9058 103.344C95.2095 103.815 94.4723 104.122 94.3904 105.043C94.3495 105.596 94.5747 106.088 95.1481 106.211C95.5372 106.313 95.701 105.719 95.3119 105.637Z" fill="#EC615B"/>
<path d="M99.2439 103.855C98.6706 103.056 98.9982 101.93 99.9606 101.623C100.616 101.418 101.107 101.52 101.476 100.845C101.845 100.148 101.783 99.3293 102.193 98.6126C102.705 97.6911 103.565 97.0563 104.548 96.7492C104.916 96.6263 104.773 96.0324 104.384 96.1553C103.462 96.442 102.664 96.9539 102.07 97.7116C101.763 98.1007 101.496 98.5512 101.333 99.0426C101.107 99.6979 101.21 100.578 100.473 100.927C100.022 101.152 99.5716 101.029 99.1415 101.357C98.8549 101.561 98.6501 101.868 98.5272 102.176C98.2405 102.851 98.302 103.568 98.732 104.162C98.9368 104.49 99.4692 104.182 99.2439 103.855Z" fill="#EC615B"/>
<path d="M78.4178 9.68002C78.0492 8.94283 79.6259 9.20904 79.6874 9.22952C79.9126 9.31143 80.1379 9.49572 80.3426 9.61859C80.6703 9.80288 81.0389 9.98718 81.4279 10.0077C81.9399 10.0281 82.3699 9.80288 82.6975 9.43429C83.6395 8.28756 83.2914 5.31834 85.5029 6.19887C86.1582 6.46507 86.8954 6.85414 87.6121 6.5265C88.1855 6.2603 88.3083 5.68693 88.2264 5.11356C88.1855 4.82688 87.8578 4.25351 87.9398 3.96683C88.1036 3.41394 88.6155 3.37299 89.0046 3.55728C89.1889 3.63919 89.3527 3.76206 89.5575 3.82349C90.1718 4.04874 90.7656 4.00779 91.1342 3.43442C91.339 3.10678 90.8066 2.79962 90.6018 3.12726C90.1923 3.78253 88.5541 2.43103 87.8169 2.84057C87.223 3.14774 87.2435 3.76206 87.3869 4.33542C87.5507 5.01118 87.9602 5.99409 86.7111 5.97361C86.1582 5.97361 85.6463 5.50263 85.1139 5.40025C84.4791 5.27738 83.9057 5.4412 83.4962 5.93266C82.4723 7.14082 82.8614 10.2943 80.486 9.00427C79.7898 8.63567 79.2164 8.26708 78.4382 8.6152C77.8444 8.8814 77.5577 9.39334 77.8649 9.98718C78.0697 10.3353 78.5816 10.0281 78.4178 9.68002Z" fill="#5222D0"/>
<path d="M102.807 26.3894C101.885 26.1642 101.762 24.9765 102.213 24.2803C102.848 23.2973 104.342 23.3588 105.346 23.5431C107.025 23.8502 108.581 24.5055 110.281 23.8707C111.919 23.2564 113.148 21.9254 114.991 21.8844C116.915 21.8434 118.738 22.683 120.683 22.6216C124.083 22.5192 127.175 20.84 130.431 20.0619C132.355 19.5909 134.239 19.55 136.164 20.0414C138.007 20.5124 139.727 21.2701 141.57 21.7206C143.495 22.212 145.4 22.1301 147.345 21.9663C149.474 21.8025 151.666 21.6387 153.59 22.7444C153.549 22.6216 153.488 22.5192 153.447 22.3963C152.423 25.4065 149.106 26.6351 146.178 26.799C142.512 27.0037 138.949 25.6727 135.263 25.8161C131.536 25.9594 128.383 28.2324 124.717 28.5805C120.97 28.9491 117.427 27.1676 113.701 27.2699C109.912 27.3723 104.977 29.4406 101.987 26.0618C101.721 25.7751 101.291 26.2051 101.557 26.4918C103.912 29.1334 107.639 28.6624 110.772 28.1914C113.086 27.8433 115.195 27.8228 117.509 28.2733C119.475 28.6624 121.441 29.1948 123.448 29.2358C127.502 29.3382 130.922 26.7171 134.915 26.4509C138.949 26.1846 142.86 27.8024 146.894 27.3519C149.905 27.0242 153.038 25.6113 154.061 22.5397C154.102 22.4168 154.041 22.253 153.918 22.1916C150.314 20.0824 145.973 22.0687 142.103 21.1882C139.973 20.6967 137.987 19.7547 135.837 19.3042C133.973 18.8947 132.13 18.9971 130.287 19.4476C128.321 19.9186 126.458 20.6967 124.533 21.2906C122.321 21.9663 120.212 22.1711 117.919 21.7001C116.096 21.311 114.417 21.0039 112.697 21.8639C111.899 22.2735 111.161 22.8264 110.342 23.1949C108.95 23.8093 107.619 23.4407 106.206 23.0926C104.711 22.7444 102.458 22.4987 101.619 24.1574C101.086 25.2017 101.455 26.6966 102.684 26.9833C103.032 27.0652 103.196 26.4713 102.807 26.3894Z" fill="#E8E8E8"/>
<path d="M17.5385 57.9459C20.3234 57.5773 22.965 59.0107 25.7295 58.6626C26.8557 58.5193 27.9001 58.0278 28.9444 57.5978C29.4359 57.393 29.9478 57.2087 30.4802 57.0859C31.4836 56.8606 32.3846 57.1268 33.3675 57.3316C36.1115 57.9254 39.1831 57.2702 41.9271 56.8811C43.2786 56.6968 44.6096 56.492 45.9611 56.2668C47.4969 56.0006 49.0327 55.591 50.5685 55.4272C52.1862 55.2634 54.0906 55.9801 53.4354 57.9664C52.8825 59.666 50.8143 60.1575 49.258 60.2803C46.555 60.4851 43.8724 59.707 41.1694 60.2189C38.6507 60.6899 36.3982 62.0004 33.9614 62.7171C32.6099 63.1267 31.2584 63.2905 29.8659 63.1062C28.4734 62.9014 27.1629 62.5533 25.7295 62.6557C22.8217 62.84 19.7296 64.5396 16.8218 63.8639C15.0403 63.4543 14.1188 61.8161 14.9788 60.1165C15.8184 58.4783 17.7433 58.0483 19.4224 58.0483C19.8115 58.0483 19.8115 57.434 19.4224 57.434C17.0675 57.434 14.2826 58.4578 14.0369 61.1609C13.8116 63.6591 16.2689 64.683 18.3781 64.6011C19.9139 64.5396 21.4292 64.0891 22.9241 63.741C24.8694 63.2905 26.6509 63.1267 28.6168 63.4953C30.0707 63.7615 31.4222 63.9048 32.8965 63.6181C34.4119 63.3315 35.8453 62.7171 37.2582 62.1438C38.6916 61.5704 40.1455 60.9766 41.6813 60.7513C43.4834 60.4851 45.2854 60.7718 47.0874 60.8742C49.4423 61.0175 53.1896 60.9151 54.0497 58.1302C54.3568 57.1268 54.1316 55.9596 53.2511 55.3043C52.391 54.6695 51.2238 54.7105 50.2204 54.8333C46.5345 55.3453 42.91 56.1849 39.1831 56.5944C37.0944 56.8197 35.0876 57.0859 33.0399 56.5944C31.3812 56.1849 30.0707 56.4715 28.5144 57.1063C27.6953 57.434 26.8967 57.8026 26.0366 57.9664C24.9718 58.1712 23.866 58.0278 22.8012 57.8435C21.0606 57.5159 19.361 57.0654 17.5999 57.2906C17.1494 57.3725 17.1494 57.9869 17.5385 57.9459Z" fill="#E8E8E8"/>
<path d="M267.056 82.2933C263.186 83.6448 258.66 80.4503 255.875 78.034C255.834 78.1978 255.793 78.3821 255.732 78.5459C257.698 77.7473 259.766 77.7063 261.855 77.8292C263.923 77.9316 265.991 78.0749 268.059 78.1363C272.462 78.2592 276.885 78.1568 281.267 77.8292C283.54 77.6654 285.793 77.4401 288.045 77.1739C289.151 77.0306 290.482 76.7644 291.526 77.2763C292.98 78.0135 292.857 79.6107 291.465 80.225C290.748 80.5322 289.97 80.6346 289.212 80.7779C288.025 80.9827 286.837 81.208 285.649 81.4127C283.479 81.8018 281.308 82.1909 279.117 82.5799C277.868 82.8052 276.619 83.0304 275.37 83.2557C274.202 83.4605 272.994 83.7676 271.786 83.7881C269.738 83.8086 268.203 82.0066 266.155 82.2318C265.766 82.2728 265.766 82.8871 266.155 82.8461C267.322 82.7028 268.243 83.3376 269.247 83.8086C270.066 84.1977 270.865 84.4024 271.766 84.4024C274.12 84.3819 276.557 83.6652 278.871 83.2352C281.369 82.7847 283.888 82.3342 286.386 81.8837C287.574 81.6789 288.762 81.4537 289.949 81.2489C290.748 81.1056 291.588 80.9213 292.284 80.4503C293.451 79.6517 293.492 78.1773 292.509 77.2149C290.973 75.6995 288.332 76.4982 286.468 76.7029C281.431 77.2558 276.352 77.5425 271.274 77.522C268.489 77.522 265.704 77.4196 262.919 77.2353C260.442 77.092 257.923 76.9691 255.588 77.9111C255.404 77.993 255.261 78.2592 255.445 78.423C258.394 80.9827 263.104 84.2796 267.22 82.8461C267.588 82.7642 267.445 82.1704 267.056 82.2933Z" fill="#E8E8E8"/>
<path d="M173.147 190.475C172.962 189.308 174.621 189.492 175.276 189.717C175.788 189.881 176.28 190.086 176.812 190.147C178.082 190.311 179.331 189.881 180.519 189.492C181.665 189.103 182.874 188.673 184.102 188.796C185.577 188.939 186.764 190.147 186.539 191.704C186.293 193.321 184.635 194.079 183.16 193.629C182.157 193.321 181.276 192.687 180.232 192.523C178.02 192.195 175.706 194.12 173.577 193.096C173.229 192.932 172.901 193.444 173.27 193.629C174.539 194.243 175.809 193.956 177.099 193.588C177.918 193.362 178.778 193.076 179.638 193.096C180.641 193.117 181.461 193.608 182.341 193.977C183.59 194.509 184.901 194.611 186.007 193.71C186.949 192.953 187.358 191.745 187.071 190.577C186.211 187.199 182.321 188.243 179.986 189.021C178.88 189.39 177.713 189.738 176.526 189.492C175.768 189.328 175.051 188.857 174.232 188.878C173.249 188.898 172.369 189.615 172.532 190.639C172.614 191.028 173.208 190.864 173.147 190.475Z" fill="#E8E8E8"/>
<path d="M149.536 183.655C150.519 182.734 151.871 182.345 153.202 182.632C153.755 182.754 155.29 183.164 154.328 183.901C153.816 184.29 152.69 184.249 152.075 184.249C151.686 184.249 151.686 184.864 152.075 184.864C152.976 184.864 154.553 184.823 155.229 184.106C155.802 183.492 155.147 182.816 154.594 182.509C152.833 181.485 150.56 181.874 149.106 183.225C148.82 183.492 149.25 183.922 149.536 183.655Z" fill="#E8E8E8"/>
<path d="M138.151 197.233C137.987 197.171 137.844 197.11 137.68 197.048C137.659 197.212 137.639 197.376 137.618 197.54C138.867 196.639 140.28 197.294 141.611 197.601C142.738 197.867 143.721 197.745 144.826 197.478C146.198 197.151 147.591 196.946 149.004 196.864C149.659 196.823 150.314 196.803 150.97 196.782C151.584 196.762 153.12 196.454 152.587 197.499C151.952 198.748 150.11 198.789 148.983 198.42C148.021 198.113 147.12 197.663 146.096 197.908C145.031 198.154 144.13 198.83 143.024 199.055C141.55 199.362 140.096 199.219 138.683 198.707C138.315 198.584 138.151 199.157 138.519 199.301C139.912 199.792 141.366 199.956 142.84 199.71C144.499 199.424 145.973 198.134 147.693 198.605C148.922 198.953 149.925 199.506 151.236 199.117C152.075 198.871 153.263 198.134 153.427 197.192C153.632 196.086 152.26 196.127 151.543 196.147C149.884 196.188 148.205 196.27 146.546 196.516C145.645 196.659 144.785 196.905 143.905 197.069C142.82 197.274 141.939 197.069 140.895 196.782C139.666 196.434 138.396 196.229 137.291 197.007C137.127 197.13 137.086 197.335 137.229 197.499C137.536 197.847 137.864 197.929 138.294 197.847C138.704 197.765 138.54 197.171 138.151 197.233Z" fill="#E8E8E8"/>
<path d="M222.723 185.499C223.91 185.007 225.159 184.741 226.449 184.761C227.781 184.782 228.907 185.294 230.176 185.58C232.04 186.031 233.432 184.884 234.948 184.004C237.343 182.591 239.719 183.512 242.217 184.024C243.999 184.393 245.903 184.454 247.439 183.369C247.766 183.144 247.459 182.611 247.132 182.837C245.207 184.229 242.831 183.553 240.722 183.041C238.736 182.57 236.77 182.304 234.907 183.328C234.088 183.778 233.33 184.372 232.47 184.761C231.159 185.355 230.094 184.884 228.825 184.516C226.757 183.922 224.566 184.086 222.579 184.905C222.19 185.048 222.354 185.642 222.723 185.499Z" fill="#E8E8E8"/>
<path d="M80.3447 84.6688C82.1672 83.9726 85.3617 87.7199 86.9384 90.1772C89.3548 93.8836 89.7438 97.119 90.9315 104.614C91.382 107.522 92.1192 112.129 93.1226 117.945C94.9246 119.706 95.6004 121.426 95.8666 122.491C96.2352 123.862 96.3376 125.624 95.8666 125.787C95.3547 125.972 94.4536 124.252 94.0851 124.415C93.5936 124.641 95.1908 127.405 94.2284 128.675C93.2455 129.965 89.5596 129.76 87.6347 127.856C85.8327 126.074 86.5494 123.801 86.2627 118.375C86.1603 116.532 85.8736 111.515 84.3378 106.559C82.4539 100.518 80.4881 100.211 79.3823 94.8665C78.6042 91.0987 78.3789 85.4265 80.3447 84.6688Z" fill="white" stroke="#161616" stroke-width="2"/>
<path opacity="0.15" d="M83.0485 89.952C84.1747 89.7062 86.1405 94.8051 86.2634 95.0918C88.0654 99.8016 87.2054 101.808 88.004 108.75C88.6593 114.402 89.0279 117.617 90.8503 121.59C92.6114 125.398 94.6591 127.63 93.881 128.654C93.1029 129.699 90.0517 128.695 87.6559 127.733C87.4306 127.221 87.103 126.422 86.8368 125.439C86.161 123.043 86.202 121.139 86.202 120.218C86.202 119.706 86.1815 113.767 85.0143 108.586C84.3795 105.822 84.0928 106.231 83.3556 103.365C81.7379 97.1395 81.7993 90.2182 83.0485 89.952Z" fill="#6D6C6C"/>
<path opacity="0.17" d="M85.8112 99.8633C86.0364 101.993 86.3231 105.167 86.446 109.037C86.6303 114.996 86.3436 119.952 86.1798 119.952C86.0364 119.952 86.2207 116.389 85.4426 111.515C84.9306 108.279 84.173 105.658 83.5996 103.918C83.9887 103.529 84.4597 102.996 84.8897 102.259C85.4221 101.317 85.6883 100.457 85.8112 99.8633Z" fill="#6D6C6C"/>
<path d="M84.399 172.495C83.8666 173.478 83.7847 174.543 85.0133 183.819C85.1567 184.966 85.3 185.908 85.3819 186.563C88.5149 187.054 92.9381 187.443 98.1803 186.932C101.354 186.624 105.061 186.276 105.265 185.068C105.429 184.085 103.279 182.324 93.45 178.966C92.9995 175.689 92.5285 172.413 92.078 169.137C86.3239 169.526 84.829 171.737 84.399 172.495Z" fill="#161616"/>
<path d="M72.051 114.115C73.9759 116.736 76.7199 120.504 79.9348 125.111C87.5524 136.005 91.3612 141.452 92.6922 145.097C96.6239 155.889 95.6 166.373 95.2109 169.936C94.9857 171.984 94.699 173.663 94.4738 174.81C92.9175 175.404 90.6854 176.059 87.9619 176.284C85.5251 176.489 83.4364 176.264 81.9006 175.998C81.4297 173.213 81.0406 170.08 80.8563 166.68C80.5901 161.622 80.8358 157.097 81.3068 153.227C76.0441 149.193 72.6449 145.036 70.5766 142.148C65.0478 134.347 63.5734 127.589 62.6929 123.248C61.4437 117.227 62.3038 115.589 63.1024 114.729C65.7645 111.965 71.5391 113.951 72.051 114.115Z" fill="white" stroke="#161616" stroke-width="2"/>
<path opacity="0.19" d="M72.6451 131.397C74.7543 133.179 77.4982 135.821 80.1603 139.445C80.8975 140.469 83.9486 144.831 86.6311 151.834C90.3171 161.54 90.6242 170.591 90.4604 175.711C89.5594 176.038 88.2898 176.386 86.7745 176.509C84.7472 176.652 83.0886 176.304 82.0237 175.977C81.3685 171.984 80.877 167.376 80.836 162.257C80.8156 158.94 80.9589 155.847 81.2251 153.022C80.7132 152.735 70.8226 147.165 70.9455 137.848C70.9659 135.247 71.785 133.036 72.6451 131.397Z" fill="#6D6C6C"/>
<path opacity="0.15" d="M75.2858 147.084C75.7363 146.47 81.3676 148.19 83.5996 152.367C85.2788 155.5 83.9272 157.916 83.9887 162.38C84.0296 165.718 84.8897 170.469 88.5961 176.223C86.446 176.182 84.2958 176.141 82.1252 176.1C81.5314 172.292 81.0604 167.95 80.9376 163.179C80.8352 159.411 80.958 155.93 81.2038 152.756C80.4051 152.347 79.3813 151.712 78.296 150.77C77.0878 149.705 74.9582 147.534 75.2858 147.084Z" fill="#6D6C6C"/>
<path d="M48.2157 170.878C46.6594 171.881 46.3932 173.274 44.9803 176.346C43.9974 178.475 42.523 181.322 40.25 184.557C41.5401 186.011 43.6902 188.038 46.8437 189.533C51.1644 191.581 57.2257 192.564 58.1677 190.782C59.1711 188.857 53.9084 184.291 52.3317 182.939C52.7617 181.977 53.4579 180.441 54.318 178.578C56.5909 173.704 57.0415 172.987 56.6729 172.107C55.8128 170.018 51.0416 169.076 48.2157 170.878Z" fill="#161616"/>
<path d="M54.7886 109.487C53.56 112.866 52.3109 116.245 51.0822 119.603C49.055 125.46 49.9355 129.514 50.5908 131.46C51.3075 133.61 52.5566 135.453 55.0344 139.118C56.9592 141.944 58.6998 144.217 59.9694 145.794C57.4302 148.435 54.5429 151.855 51.8194 156.155C48.154 161.971 45.9834 167.438 44.6523 171.718C45.8605 172.64 47.683 173.807 50.0788 174.687C52.7614 175.67 55.1368 175.895 56.7545 175.916C59.6008 173.725 63.4915 170.305 67.116 165.288C69.9624 161.377 73.7917 156.114 75.0203 148.742C77.109 136.19 70.29 125.972 67.8532 122.327C63.4506 115.712 58.1674 111.699 54.7886 109.487Z" fill="white" stroke="#161616" stroke-width="2"/>
<path d="M63.4092 116.858C64.986 119.049 66.5423 121.261 68.0371 123.493C68.2214 123.391 68.3852 123.288 68.5695 123.186C67.2385 121.404 66.0508 119.5 65.0269 117.514C64.8836 117.657 64.7402 117.8 64.5969 117.944C65.4365 118.517 65.9075 119.377 66.4194 120.217C67.0132 121.2 67.6276 122.183 68.2214 123.165C69.3886 125.07 70.5558 126.995 71.723 128.899C71.9073 128.797 72.0711 128.694 72.2554 128.592C70.4739 125.807 68.6924 123.022 66.8904 120.237C66.6856 119.91 66.1532 120.217 66.358 120.544C68.5695 124.23 70.8015 127.896 73.0131 131.582C73.2179 131.93 73.7503 131.623 73.5455 131.274C71.9278 128.531 70.3306 125.766 68.7129 123.022C68.549 123.145 68.3852 123.268 68.2214 123.391C70.5353 125.95 70.9449 129.677 73.4636 132.073C73.7503 132.339 74.1803 131.909 73.8936 131.643C71.3749 129.268 70.9654 125.52 68.6514 122.961C68.4057 122.694 67.9961 123.043 68.16 123.329C69.7777 126.073 71.3749 128.838 72.9926 131.582C73.1769 131.479 73.3407 131.377 73.525 131.274C71.3135 127.589 69.0814 123.923 66.8699 120.237C66.6856 120.34 66.5218 120.442 66.3375 120.544C68.119 123.329 69.9005 126.114 71.7026 128.899C71.9073 129.227 72.4397 128.92 72.235 128.592C70.9244 126.442 69.6139 124.292 68.3033 122.162C67.3409 120.565 66.4603 118.497 64.8631 117.411C64.5969 117.227 64.3102 117.575 64.4331 117.841C65.457 119.828 66.6242 121.712 67.9757 123.514C68.2009 123.821 68.7333 123.534 68.5081 123.206C67.0132 120.954 65.4774 118.742 63.8802 116.572C63.7164 116.224 63.184 116.531 63.4092 116.858Z" fill="white"/>
<path opacity="0.2" d="M64.6998 117.761C63.635 119.297 62.1606 121.836 61.5258 125.174C59.5804 135.289 67.7714 139.774 65.9489 148.641C64.9865 153.309 62.5497 152.879 57.1027 162.586C54.3382 167.521 52.5772 171.862 51.5328 174.811C50.2018 174.401 48.7479 173.869 47.2121 173.173C46.3111 172.763 45.4715 172.353 44.7139 171.923C45.922 168.156 47.7445 163.61 50.4885 158.736C53.6011 153.228 57.0208 148.927 59.9081 145.753C59.1095 144.729 57.9218 143.173 56.5498 141.228C52.7615 135.863 50.8366 133.119 50.2018 129.965C49.4851 126.484 50.0789 123.515 50.4885 121.508C51.1028 118.477 52.1472 116.102 52.9867 114.484C56.8774 115.57 60.7886 116.675 64.6998 117.761Z" fill="#6D6C6C"/>
<path opacity="0.17" d="M59.8872 116.512C57.5733 119.153 54.5426 123.494 54.7884 128.737C55.157 136.948 63.266 140.081 62.0988 146.818C61.7712 148.682 59.191 151.671 54.0102 157.589C51.1639 160.845 48.7475 163.446 47.0889 165.186C48.3585 162.074 50.2014 158.347 52.8635 154.415C55.2184 150.934 57.6347 148.149 59.7848 145.958C59.15 144.996 58.0238 143.276 56.6108 141.146C51.6758 133.733 50.7134 132.566 50.1605 129.986C49.5052 126.955 49.9352 124.395 50.2629 122.491C50.8567 118.948 52.1058 116.225 53.0478 114.505C55.3208 115.16 57.6142 115.836 59.8872 116.512Z" fill="#6D6C6C"/>
<path d="M70.4719 80.8807C67.5641 82.6008 62.0353 86.3892 57.8169 93.3515C52.4518 102.218 52.4518 110.88 52.6361 114.238C53.6395 114.566 54.6634 114.894 55.7077 115.201C62.6905 117.29 69.4481 118.702 75.837 119.603C76.3694 117.781 76.9428 115.938 77.5571 114.034C78.4786 111.228 79.441 108.546 80.4239 105.986C83.8232 104.225 85.0109 101.952 85.3999 101.01C86.9767 97.3241 85.4819 93.4743 83.8641 89.3174C82.9631 86.983 82.4922 85.7953 81.3659 84.5257C77.8438 80.5326 72.0282 80.7784 70.4719 80.8807Z" fill="#EC615B"/>
<path opacity="0.27" d="M77.3737 85.7341C71.7834 86.4713 68.7937 89.0105 67.5855 90.1982C60.7666 96.9352 63.1215 108.3 63.7563 111.372C64.3296 114.136 65.1897 116.348 65.8654 117.843C61.5447 116.675 57.2444 115.488 52.9237 114.321C52.6575 111.187 52.3913 103.14 57.0397 94.5598C61.3604 86.6146 67.565 82.5396 70.3295 80.9424C70.7186 80.9629 71.1076 81.0038 71.4967 81.0243C72.0905 81.7205 72.8073 82.4577 73.6878 83.2154C74.9983 84.3621 76.2884 85.1607 77.3737 85.7341Z" fill="#6D6C6C"/>
<path opacity="0.2" d="M59.4558 90.874C58.8824 93.8842 58.4114 98.2459 59.0257 103.406C59.7629 109.467 61.7083 114.157 63.2236 117.106C59.7015 116.205 56.1589 115.304 52.6368 114.423C52.473 111.597 52.5549 107.358 53.9064 102.485C55.3808 97.1606 57.7561 93.2699 59.4558 90.874Z" fill="#6D6C6C"/>
<path d="M232.573 158.53C231.283 161.418 231.528 164.121 231.733 165.39C235.767 167.172 239.351 167.991 242.095 168.4C242.996 168.544 254.135 170.121 255.221 167.069C255.487 166.312 255.057 165.534 254.627 164.776C252.231 160.578 246.17 160.332 245.351 160.312C245.125 155.95 242.32 152.715 239.453 152.489C235.399 152.182 232.859 157.896 232.573 158.53Z" fill="#161616"/>
<path d="M237.897 88.0879C240.559 91.9172 244.143 97.8761 246.744 105.78C250.982 118.661 250.286 129.473 249.815 135.595C249.406 141.042 248.3 148.783 245.208 157.711C244.368 158.243 240.662 160.455 235.972 159.452C233.188 158.858 231.304 157.383 230.403 156.564C232.061 152.919 234.068 147.431 234.826 140.592C235.665 133.138 234.641 127.302 233.29 119.807C230.218 102.873 225.98 96.4427 229.645 91.7124C231.406 89.4189 234.416 88.3951 237.897 88.0879Z" fill="white" stroke="#161616" stroke-width="2"/>
<path opacity="0.16" d="M239.351 97.4453C240.744 104.223 241.85 112.005 242.28 120.646C243.017 135.984 241.358 149.212 239.208 159.512C238.287 159.635 236.055 159.778 233.679 158.591C232.266 157.874 231.304 156.932 230.751 156.277C233.311 150.379 234.232 145.362 234.601 141.984C235.174 136.68 234.703 132.421 233.823 124.475C233.311 119.827 232.717 116.018 232.287 113.418C234.642 108.114 236.997 102.769 239.351 97.4453Z" fill="#6D6C6C"/>
<path opacity="0.22" d="M234.866 107.644C236.627 112.23 239.268 120.974 238.367 132.094C237.507 142.803 233.74 150.769 231.344 154.987C235.357 143.397 235.562 136.291 234.948 131.889C234.784 130.763 234.088 126.298 233.289 119.725C232.961 117.002 232.716 114.77 232.572 113.336C233.351 111.432 234.108 109.527 234.866 107.644Z" fill="#6D6C6C"/>
<path d="M202.942 149.665C201.242 150.504 200.73 151.876 198.396 156.32C196.84 159.269 195.529 161.623 194.669 163.139C197.29 165.023 201.447 167.5 206.996 168.811C210.273 169.589 217.092 170.674 217.87 168.811C218.73 166.743 211.727 161.972 208.778 160.047C211.809 157.098 211.952 152.818 209.904 150.627C208.164 148.764 205.01 148.641 202.942 149.665Z" fill="#161616"/>
<path d="M232.634 87.6589C239.392 93.6178 231.488 113.481 224.996 129.371C222.191 136.231 217.809 146.163 211.358 157.773C210.232 157.937 206.853 158.265 203.249 156.32C199.625 154.374 198.048 151.323 197.577 150.32C199.461 147.064 201.734 142.682 203.905 137.337C204.765 135.228 208.471 125.808 210.56 112.498C211.379 107.235 212.116 100.293 212.014 92.0411C213.222 90.8124 219.959 84.1982 227.925 85.7136C229.133 85.9388 231.119 86.3279 232.634 87.6589Z" fill="white" stroke="#161616" stroke-width="2"/>
<path d="M234.825 95.8498C234.804 96.5665 234.784 97.2832 234.784 97.9999C234.989 97.9999 235.193 97.9999 235.398 97.9999C235.296 96.8532 235.357 95.7679 235.582 94.6417C235.378 94.6212 235.173 94.5802 234.989 94.5597C235.111 96.9761 234.558 99.5153 234.128 101.891C233.698 104.287 233.125 106.662 232.449 108.996C232.654 109.058 232.838 109.099 233.043 109.16C234.169 104.901 235.111 100.621 235.89 96.2798C235.951 95.8908 235.357 95.727 235.296 96.116C234.518 100.437 233.576 104.737 232.449 108.996C232.347 109.385 232.941 109.549 233.043 109.16C233.76 106.703 234.333 104.184 234.784 101.665C235.193 99.3719 235.726 96.8942 235.603 94.5597C235.582 94.2321 235.07 94.1297 235.009 94.4778C234.763 95.645 234.702 96.8123 234.804 97.9999C234.845 98.389 235.419 98.4095 235.419 97.9999C235.439 97.2832 235.459 96.5665 235.459 95.8498C235.459 95.4608 234.845 95.4608 234.825 95.8498Z" fill="white"/>
<path d="M232.223 107.706C232.244 109.282 232.285 110.859 232.305 112.436C232.305 112.825 232.919 112.825 232.919 112.436C232.899 110.859 232.858 109.282 232.837 107.706C232.817 107.296 232.203 107.296 232.223 107.706Z" fill="white"/>
<path opacity="0.19" d="M223.706 94.0264C223.768 98.1423 223.543 103.753 222.334 110.265C221.044 117.166 219.079 122.51 216.212 130.558C213.877 137.152 212.751 139.118 210.376 146.428C208.922 150.872 207.898 154.598 207.243 157.097C206.116 156.953 203.782 156.482 201.448 154.742C199.277 153.124 198.171 151.199 197.68 150.196C201.448 143.582 203.843 137.787 205.359 133.568C210.048 120.524 211.154 109.18 211.789 102.197C212.055 99.2891 212.198 96.8727 212.26 95.296C216.068 94.8659 219.898 94.4564 223.706 94.0264Z" fill="#6D6C6C"/>
<path opacity="0.24" d="M221.596 94.6211C219.999 101.645 218.156 107.174 216.702 111.044C215.514 114.238 213.692 118.539 210.067 127.119C208.736 130.293 208.06 131.869 207.733 132.586C205.726 137.091 202.511 143.419 197.371 150.872C201.979 142.6 207.262 130.805 210.067 115.938C211.48 108.443 211.992 101.604 212.053 95.6859C212.033 95.6654 212.033 95.6654 221.596 94.6211Z" fill="#6D6C6C"/>
<path d="M228.067 44.2665C228.394 45.0651 228.968 46.2323 230.012 47.42C230.77 48.28 231.732 49.3858 233.166 49.8158C235.951 50.6759 238.654 48.4643 239.022 48.1572C241.725 49.7544 244.428 51.3517 247.111 52.9489C247.356 56.2867 247.377 61.3241 246.066 67.2011C244.817 72.7915 243.609 73.4672 242.626 78.8937C241.131 87.0437 242.237 94.3132 241.868 94.3337C241.807 94.3337 241.725 94.1699 241.561 93.2893C231.015 94.0879 220.47 94.8866 209.924 95.6852C209.617 89.3577 209.658 84.0336 209.78 80.1019C209.944 73.9587 210.436 66.5254 212.483 57.9044C213.937 51.7407 215.084 49.652 216.825 48.0138C220.592 44.4303 225.753 44.205 228.067 44.2665Z" fill="#5222D0"/>
<path opacity="0.3" d="M240.272 48.8945C239.924 52.6419 239.269 58.2117 238.02 64.8874C237.651 66.8941 236.607 72.423 235.767 75.1261C234.743 78.4434 230.75 87.9244 211.215 95.6239C217.174 94.9277 223.317 94.3134 229.604 93.8014C233.535 93.4738 237.426 93.1871 241.255 92.9619C242.607 88.1497 243.856 82.7027 244.757 76.6823C246.129 67.5699 246.395 59.338 246.17 52.3962C244.204 51.229 242.238 50.0617 240.272 48.8945Z" fill="#32198E"/>
<path d="M231.835 31.9397C231.119 35.6052 230.791 39.6597 227.822 44.1443C227.412 44.7586 227.064 45.2295 226.818 45.5367C227.064 46.0282 229.665 51.0656 235.194 51.8233C238.347 52.2533 240.825 51.0451 241.767 50.5332C241.624 49.3046 241.542 47.8302 241.664 46.1715C241.828 43.7347 242.34 41.7074 242.852 40.1716C245.228 39.8645 247.582 39.5573 249.958 39.2502C250.429 38.2058 250.879 37.1615 251.35 36.0966C252.006 36.0762 252.64 36.0557 253.296 36.0352C252.804 34.6018 252.067 32.3288 251.207 29.5234C249.61 24.2402 249.63 23.4826 248.77 22.2949C246.395 19.039 241.071 16.9708 237.569 18.7113C234.19 20.37 233.166 25.1003 231.835 31.9397Z" fill="white" stroke="#161616" stroke-width="2"/>
<path d="M253.194 35.7483C252.026 35.7687 250.88 35.6868 249.733 35.523C249.344 35.4616 249.18 36.0554 249.569 36.1168C250.777 36.3011 251.965 36.3831 253.194 36.3626C253.603 36.3626 253.603 35.7483 253.194 35.7483Z" fill="#161616"/>
<path d="M254.013 26.3503C252.969 25.7769 251.719 26.1046 251.044 27.067C250.818 27.3946 251.351 27.7018 251.576 27.3741C252.047 26.6984 252.989 26.4936 253.706 26.8827C254.054 27.067 254.361 26.5346 254.013 26.3503Z" fill="#161616"/>
<path d="M253.479 30.0356C253.582 29.5646 253.561 29.0936 253.336 28.6636C253.172 28.3564 252.824 27.9878 252.435 28.1516C252.025 28.3155 252.046 28.8888 252.128 29.2369C252.21 29.667 252.435 30.056 252.763 30.3427C252.947 30.5065 253.295 30.4041 253.295 30.1175C253.295 29.6055 253.172 29.155 252.947 28.684C252.783 28.3359 252.251 28.6431 252.415 28.9912C252.578 29.3393 252.66 29.7079 252.681 30.097C252.865 30.0151 253.029 29.9536 253.213 29.8717C252.865 29.585 252.742 29.2165 252.722 28.7864C252.742 28.7455 252.722 28.7045 252.66 28.7045C252.701 28.725 252.742 28.766 252.763 28.8069C252.824 28.8888 252.886 29.0117 252.906 29.1141C252.988 29.3598 252.988 29.585 252.926 29.8308C252.783 30.2608 253.377 30.4246 253.479 30.0356Z" fill="#161616"/>
<path d="M248.073 27.1681C246.886 26.779 245.636 27.2705 244.94 28.2944C244.715 28.622 245.247 28.9292 245.473 28.6015C246.005 27.8029 246.988 27.4753 247.909 27.762C248.278 27.8643 248.442 27.291 248.073 27.1681Z" fill="#161616"/>
<path d="M248.402 30.5885C248.443 30.0356 248.217 29.1755 247.644 28.9503C246.886 28.6431 246.886 29.7079 246.968 30.1584C247.071 30.6089 247.439 31.4485 248.053 31.1004C248.299 30.9571 248.34 30.6909 248.258 30.4451C248.115 30.0561 247.89 29.7079 247.726 29.3393C247.562 29.4622 247.398 29.5851 247.234 29.7079C247.316 29.7898 247.378 29.8718 247.398 29.9946C247.501 30.3837 248.094 30.2199 247.992 29.8308C247.931 29.6056 247.828 29.4417 247.664 29.2779C247.398 29.0322 247.03 29.3393 247.173 29.6465C247.255 29.7898 247.316 29.9332 247.398 30.097C247.46 30.2199 247.521 30.4451 247.623 30.5475C247.664 30.6909 247.705 30.6909 247.767 30.5475C247.746 30.5066 247.705 30.4451 247.685 30.4042C247.623 30.2813 247.582 30.1584 247.562 30.0151C247.542 29.8922 247.562 29.7284 247.521 29.6056C247.542 29.5236 247.521 29.5032 247.501 29.6056C247.542 29.667 247.603 29.7284 247.623 29.7898C247.767 30.0356 247.808 30.3223 247.787 30.6089C247.746 30.9775 248.361 30.9775 248.402 30.5885Z" fill="#161616"/>
<path d="M249.589 23.6054C249.425 22.5201 248.995 20.7591 247.849 18.9366C247.439 18.3018 246.559 16.9298 245.166 16.0083C242.504 14.2473 238.409 14.3906 235.419 16.5407C232.511 18.6499 231.057 22.4382 231.692 26.1856C237.671 25.3255 243.63 24.4655 249.589 23.6054Z" fill="#EC615B"/>
<path d="M259.377 21.6398C250.183 22.807 241.009 23.9742 231.815 25.1414C230.648 25.2848 230.648 27.1277 231.815 26.9844C241.009 25.8172 250.183 24.65 259.377 23.4827C260.524 23.3394 260.545 21.4964 259.377 21.6398Z" fill="#161616"/>
<path d="M237.651 25.939C239.269 26.5329 240.211 27.6591 241.317 29.0106C243.631 31.8365 242.935 32.8809 244.573 34.6419C247.153 37.4473 249.774 35.7887 252.088 38.5326C254.054 40.867 253.788 44.0206 253.706 44.7168C253.624 45.413 253.276 48.2184 251.003 50.1433C249.037 51.802 246.354 52.191 246.19 51.8224C246.129 51.6791 246.354 51.3515 247.808 50.3686C247.378 50.6757 246.723 51.0443 245.842 51.2081C244.839 51.3924 243.897 51.2081 243.877 51.0648C243.877 50.9624 244.409 50.9624 244.819 50.5119C245.064 50.2457 245.167 49.9385 245.228 49.6723C244.429 50.2047 243.406 50.6552 242.443 50.3686C239.822 49.5699 239.351 43.6929 239.187 41.7476C238.696 35.4405 240.498 32.0003 238.307 29.7888C238.122 29.6045 237.242 28.7035 236.279 28.8878C235.051 29.113 234.109 31.0379 234.518 32.3075C234.867 33.3928 236.095 33.7 236.013 33.9047C235.89 34.1709 233.822 33.7614 232.082 32.3689C231.447 31.857 230.935 31.4475 230.669 30.6898C230.198 29.3792 230.751 27.8844 231.488 27.0039C233.024 25.1609 235.89 25.2838 237.651 25.939Z" fill="#161616" stroke="#161616" stroke-width="2"/>
<path opacity="0.22" d="M235.214 34.0697C235.603 34.1107 236.156 34.1312 236.197 33.9878C236.218 33.9264 236.074 33.824 236.074 33.824C236.074 33.824 236.545 34.4179 237.119 34.4998C237.405 34.5407 237.631 34.4383 237.794 34.3564C236.75 36.5475 235.685 39.2096 234.805 42.2812C233.883 45.4552 233.371 48.363 233.105 50.8407C232.204 50.554 230.566 49.8988 229.051 48.4244C227.945 47.3596 227.31 46.2333 226.941 45.4756C228.17 43.6327 228.887 42.015 229.317 40.9092C229.706 39.8853 229.849 39.2096 230.545 36.8751C231.119 34.9912 231.569 33.4349 231.876 32.3701C232.04 32.5135 232.286 32.7387 232.614 32.964C233.085 33.2916 234.006 33.9264 235.214 34.0697Z" fill="#6D6C6C"/>
<path d="M241.828 14.9025C239.433 15.3735 237.651 17.2983 237.385 19.5713C237.057 22.2743 239.044 24.1173 239.228 24.2811C236.689 24.5883 234.149 24.9159 231.61 25.2231C231.569 24.6292 231.549 23.8101 231.692 22.8682C232.184 19.8375 233.945 17.9741 234.313 17.585C234.907 16.9707 236.996 14.9844 240.088 14.8001C240.805 14.7591 241.398 14.841 241.828 14.9025Z" fill="#B74949"/>
<path d="M246.496 52.7444C248.134 52.4987 249.813 55.3451 250.592 56.6556C255.097 64.3142 253.213 73.1604 252.639 75.7405C252.189 77.7678 251.349 81.3513 248.728 85.3035C246.23 89.1123 243.281 91.4672 241.397 92.7572C238.244 93.9654 232.51 95.6241 225.609 94.4978C223.213 94.1088 221.125 93.4535 219.384 92.7572C216.435 92.9415 213.487 93.1054 210.538 93.2897C210.067 93.2077 209.412 93.0849 208.633 92.7982C207.691 92.4501 206.79 92.102 206.79 91.7743C206.79 91.4057 207.814 90.8324 212.811 90.0542C212.565 90.0952 209.289 90.73 207.098 88.4365C205.05 86.3069 204.927 82.6619 206.483 81.2285C207.794 80.0203 209.924 80.5527 213.814 81.5971C217.664 82.6209 220.756 84.0134 223.009 85.2011C223.869 85.5902 230.565 88.4775 236.687 84.9554C241.356 82.2728 242.913 77.4606 243.281 76.1296C244.756 70.8464 242.073 68.983 243.035 61.3449C243.158 60.0344 244.039 53.0926 246.496 52.7444Z" fill="white" stroke="#161616" stroke-width="2"/>
<path d="M205.706 85.7959C208.081 85.9802 210.354 86.5536 212.525 87.5365C212.873 87.7003 213.201 87.1679 212.832 87.0041C210.559 85.9598 208.184 85.3454 205.706 85.1611C205.317 85.1611 205.317 85.7755 205.706 85.7959Z" fill="#161616"/>
<path d="M205.562 83.2969C208.286 83.215 210.6 84.8737 213.139 85.6518C213.507 85.7747 213.671 85.1809 213.303 85.058C210.723 84.2594 208.368 82.6007 205.562 82.6826C205.173 82.7031 205.153 83.3174 205.562 83.2969Z" fill="#161616"/>
<path d="M208.184 81.126C210.416 81.3103 212.382 82.3752 214.307 83.4605C214.655 83.6448 214.962 83.1328 214.614 82.9281C212.587 81.8018 210.539 80.7165 208.184 80.5117C207.775 80.4708 207.775 81.0851 208.184 81.126Z" fill="#161616"/>
<path opacity="0.18" d="M243.999 56.5117C242.791 61.3649 246.006 64.6412 247.091 70.1906C247.275 71.1735 248.729 79.1392 244.47 84.791C239.719 91.098 230.299 91.3233 228.456 91.3847C223.644 91.5076 221.822 90.0946 214.286 90.4837C213.569 90.5247 207.017 90.8932 206.955 91.8147C206.935 92.3062 208.757 92.8591 210.129 93.0434C211.931 93.2891 212.873 92.8796 215.167 92.6953C216.15 92.6133 217.563 92.5519 219.303 92.6953C221.392 93.5553 224.095 94.3949 227.33 94.7225C228.211 94.8044 230.955 95.0502 234.477 94.5382C234.477 94.5382 237.426 94.1287 239.76 93.3096C245.555 91.3028 251.289 82.8456 252.906 73.6308C254.729 63.2488 250.674 55.4264 248.401 53.6858C248.094 53.4401 247.214 52.7644 246.292 52.9896C244.797 53.3173 244.183 55.7541 243.999 56.5117Z" fill="#6D6C6C"/>
<path opacity="0.17" d="M252.639 62.6768C252.311 62.6768 252.311 66.5879 251.41 71.5025C250.857 74.4922 249.731 80.574 247.008 84.8128C242.154 92.369 232.243 94.0686 228.476 94.5191C231.711 94.9696 236.687 95.072 241.54 92.4918C252.066 86.881 253.089 73.3455 253.274 70.8882C253.56 66.7518 252.967 62.6768 252.639 62.6768Z" fill="#6D6C6C"/>
<path d="M75.8174 140.162C84.295 132.627 92.8136 125.132 101.373 117.699C117.509 103.672 133.789 89.8289 150.232 76.15C148.942 72.3208 147.283 65.6861 148.266 57.618C148.574 55.0583 151.195 36.1987 168.478 26.4514C169.911 25.6323 189.754 14.9022 208.347 26.7381C220.613 34.54 226.961 48.7718 225.466 62.6759C223.255 83.3376 204.907 92.491 203.842 93.0029C190.614 99.3099 174.703 97.4465 162.846 88.2317C145.031 102.893 127.257 117.576 109.503 132.299C101.721 138.749 93.9603 145.2 86.1994 151.671C84.5817 150.892 81.8992 149.336 79.4828 146.49C77.4556 144.114 76.3907 141.739 75.8174 140.162Z" fill="#161616"/>
<ellipse cx="187.277" cy="59.235" rx="32.4771" ry="31.1256" fill="white" stroke="#161616" stroke-width="2"/>
<path d="M189.918 29.8295C183.98 42.4026 177.734 54.8529 171.202 67.1393C169.359 70.6 167.495 74.0607 165.611 77.5009C165.427 77.849 165.96 78.1562 166.144 77.808C172.84 65.6035 179.249 53.2557 185.352 40.744C187.072 37.2219 188.771 33.6793 190.471 30.1162C190.635 29.7886 190.102 29.4814 189.918 29.8295Z" fill="#E8E8E8"/>
<path d="M199.932 32.8813C193.42 43.1609 187.236 53.6249 181.359 64.2731C181.174 64.6212 181.707 64.9284 181.891 64.5803C187.768 53.932 193.952 43.4681 200.464 33.1884C200.669 32.8608 200.136 32.5536 199.932 32.8813Z" fill="#E8E8E8"/>
<path d="M180.272 67.877C177.569 73.1397 174.682 78.3205 171.59 83.3784C171.385 83.7265 171.918 84.0337 172.122 83.6856C175.194 78.6277 178.102 73.4469 180.805 68.1842C180.989 67.8361 180.457 67.5085 180.272 67.877Z" fill="#E8E8E8"/>
<path d="M191.637 52.5193C188.197 58.9902 184.777 65.4611 181.337 71.9319C181.153 72.28 181.685 72.5872 181.869 72.2391C185.31 65.7682 188.729 59.2974 192.17 52.8265C192.354 52.4784 191.821 52.1712 191.637 52.5193Z" fill="#E8E8E8"/>
<path opacity="0.08" d="M186.314 28.0068C184.041 28.8259 169.072 34.4367 164.28 49.4671C163.727 51.2077 162.007 56.8185 163.297 63.3098C165.775 75.6782 178.143 85.6916 194.321 89.0499C193.092 89.4595 191.372 89.9509 189.242 90.2171C176.382 91.8348 166.41 83.0705 165.243 82.0262C162.703 79.7122 154.861 71.8489 154.717 59.3987C154.697 58.3134 154.758 46.0269 164.075 37.1602C169.502 31.9999 175.85 30.116 178.512 29.3583C181.625 28.4778 184.348 28.1502 186.314 28.0068Z" fill="#6D6C6C"/>
<path d="M66.4808 91.1815C67.9552 90.9972 70.1667 90.9767 71.7845 92.2873C75.2656 95.1131 72.5831 101.256 74.3032 107.748C75.2247 111.229 77.6615 115.918 84.7466 120.567C87.552 121.979 89.8865 123.044 91.5042 123.781C93.8181 124.826 95.2925 125.42 95.272 126.218C95.2515 127.017 93.7976 127.611 92.7533 127.959C94.0024 129.126 94.6372 130.6 94.2072 131.727C93.8795 132.607 92.9785 133.037 91.9751 133.529C90.8284 134.102 89.866 134.225 88.7602 134.368C86.692 134.634 85.6681 134.757 84.7262 134.368C83.2723 133.754 82.617 132.402 81.6546 130.457C81.1221 129.392 80.4669 127.734 80.1187 125.583C77.8048 124.519 74.4875 122.676 71.1906 119.584C69.9005 118.375 57.9417 106.908 61.7096 96.9971C62.2829 95.6046 63.4911 93.3521 66.4808 91.1815Z" fill="white" stroke="#161616" stroke-width="2"/>
<path d="M84.7868 131.829C85.2987 132.956 86.0769 133.898 87.0803 134.655C87.3874 134.901 87.6946 134.369 87.3874 134.123C86.4864 133.447 85.7902 132.546 85.3192 131.522C85.1554 131.174 84.623 131.481 84.7868 131.829Z" fill="#161616"/>
<path d="M87.2453 131.502C87.8596 132.69 88.7811 133.673 89.9074 134.41C90.235 134.615 90.5422 134.082 90.2145 133.878C89.1702 133.222 88.3306 132.301 87.7572 131.195C87.5934 130.847 87.061 131.154 87.2453 131.502Z" fill="#161616"/>
<path d="M89.8239 130.109C90.3972 131.317 91.3801 132.28 92.5883 132.853C92.9364 133.017 93.2641 132.485 92.8955 132.321C91.7692 131.788 90.8887 130.928 90.3563 129.802C90.172 129.434 89.66 129.741 89.8239 130.109Z" fill="#161616"/>
<path opacity="0.2" d="M66.9924 91.2227C66.5419 93.2499 66.0504 96.4444 66.4804 100.294C67.6067 110.041 73.9137 116.471 74.9581 117.516C80.1593 122.676 83.5586 121.98 85.6268 126.587C86.1797 127.816 87.1626 130.601 89.8246 132.055C90.869 132.607 91.8519 132.812 92.5072 132.894C92.1591 133.181 91.5857 133.57 90.828 133.898C89.5584 134.45 88.4527 134.471 86.7121 134.491C85.422 134.512 84.7667 134.512 84.1934 134.246C82.9852 133.693 82.4118 132.546 82.1866 131.973C81.3675 129.761 80.5689 127.55 79.7498 125.338C75.7567 123.29 70.1049 119.645 65.6409 113.4C63.7774 110.799 60.6649 106.335 60.9311 100.97C61.0539 98.5331 61.8321 96.8335 62.0164 96.4239C63.4703 93.4137 65.8866 91.8575 66.9924 91.2227Z" fill="#6D6C6C"/>
<path opacity="0.32" d="M61.1967 102.218C61.3195 102.177 62.0977 104.635 63.6335 107.501C67.3808 114.587 72.7869 118.928 76.6571 121.958C78.4182 123.33 79.913 124.354 80.855 124.989C82.0017 126.914 82.657 128.573 83.046 129.781C83.3737 130.784 83.558 131.685 84.3156 132.627C85.0938 133.651 86.0972 134.224 86.8344 134.552C86.2815 134.573 85.4419 134.532 84.5614 134.122C82.8822 133.344 82.145 131.726 81.3669 130.006C80.9164 129.023 80.384 127.549 80.0973 125.644C69.4081 120.238 65.3945 113.419 63.8792 110.184C62.3229 106.867 61.0329 102.3 61.1967 102.218Z" fill="#6D6C6C"/>
<path d="M78.1526 72.4834C76.6987 73.0568 77.5587 75.9236 75.2243 78.5243C74.0776 79.8143 72.6851 80.4287 71.7227 80.7768C72.337 81.6983 73.5451 83.1931 75.5314 84.3808C76.9444 85.2408 78.2959 85.6504 79.2379 85.8347C79.545 85.2818 80.057 84.4217 80.6917 83.3979C82.9647 79.8143 83.7838 79.4253 83.9067 78.2376C84.2139 75.3298 80.016 71.7462 78.1526 72.4834Z" fill="white" stroke="#161616" stroke-width="2"/>
<path d="M77.8859 78.013C78.7254 79.6922 79.606 81.3508 80.9984 82.6409C81.2851 82.9071 81.7151 82.4771 81.4285 82.2109C80.0769 80.9618 79.2374 79.3236 78.4183 77.7059C78.234 77.3578 77.7016 77.6649 77.8859 78.013Z" fill="#161616"/>
<path d="M77.2725 76.9078C78.2144 78.7508 79.2383 80.5733 81.0403 81.6995C81.3475 81.8838 81.6546 81.4743 81.4089 81.2081C80.8151 80.5733 80.2007 79.9385 79.6274 79.3037C79.484 79.447 79.3407 79.5904 79.1973 79.7337C79.5455 80.1023 79.914 80.4504 80.3236 80.7371C80.4669 80.8395 80.9174 81.0443 80.9993 81.1671C81.1222 81.3719 80.9993 81.6995 80.9379 81.9043C81.1427 81.9657 81.327 82.0067 81.5318 82.0681C81.5522 81.9657 81.5522 81.8634 81.5727 81.7814C81.6137 81.5152 81.286 81.2286 81.0608 81.4743C81.0608 81.249 80.9993 81.0238 80.856 80.8395C80.6717 80.9419 80.5079 81.0443 80.3236 81.1466C80.5488 81.4538 80.7741 81.761 80.9993 82.0681C81.1632 81.9453 81.327 81.8224 81.4908 81.6995C81.3065 81.4948 81.1632 81.29 81.0198 81.0647C80.8355 80.7985 80.3236 80.9623 80.4669 81.3105C80.5898 81.5767 80.6308 81.6791 80.8151 81.9043C81.0608 82.2115 81.4908 81.7814 81.2451 81.4743C81.1836 81.3719 81.1222 81.2695 81.0608 81.1466C80.8765 81.2286 80.6922 81.3105 80.5079 81.3924C80.6922 81.6586 80.8765 81.9043 81.0813 82.15C81.3065 82.4162 81.7775 82.0681 81.5727 81.7814C81.3475 81.4743 81.1222 81.1671 80.897 80.86C80.6717 80.5323 80.2007 80.819 80.3645 81.1671C80.5693 81.5767 80.9789 82.5391 81.5318 81.9248C81.3679 81.8224 81.1836 81.72 81.0198 81.6176C80.9993 81.72 80.9993 81.8224 80.9789 81.9043C80.9174 82.2934 81.4703 82.4572 81.5727 82.0681C81.7161 81.5767 82.0642 81.3514 81.6546 80.86C81.4703 80.6347 81.1632 80.5323 80.9379 80.389C80.4669 80.0818 80.0574 79.7132 79.6683 79.3037C79.4021 79.017 78.9721 79.447 79.2383 79.7337C79.8321 80.3685 80.426 81.0033 81.0198 81.6381C81.1427 81.4743 81.2656 81.3105 81.3884 81.1466C79.6888 80.0818 78.7468 78.3208 77.8458 76.5802C77.6206 76.2321 77.0882 76.5597 77.2725 76.9078Z" fill="#161616"/>
<path d="M96.9918 67.0573C96.5823 68.8797 95.7427 71.5828 93.8179 74.3677C90.4391 79.2618 85.8521 81.33 83.8863 82.0877C82.7601 81.6576 81.2857 80.9 79.8932 79.6099C76.0844 76.0673 75.7978 71.2142 75.7568 69.965C75.3473 69.8627 74.7534 69.6374 74.2415 69.146C72.9309 67.8764 72.6238 65.3576 73.8319 64.3133C75.2039 63.1256 77.825 64.5795 78.1117 64.7228C78.7465 65.071 79.197 65.501 79.4837 65.8286C80.6099 62.4294 83.313 59.8697 86.5279 59.3373C90.9101 58.6206 95.7018 61.8151 96.9918 67.0573Z" fill="white" stroke="#161616" stroke-width="2"/>
<path d="M92.0369 71.9515C91.2178 73.7945 90.0096 75.3713 88.4533 76.6613C88.1462 76.9071 88.5762 77.3371 88.8834 77.0914C90.5011 75.7808 91.7297 74.1631 92.5693 72.2587C92.7331 71.8901 92.2007 71.583 92.0369 71.9515Z" fill="#161616"/>
<path d="M87.6747 75.2889C87.5928 75.9851 87.8386 76.6609 88.3095 77.1728C88.5757 77.4595 89.0058 77.0295 88.7396 76.7428C88.371 76.3332 88.2276 75.8418 88.2891 75.2889C88.33 74.8998 87.7157 74.8998 87.6747 75.2889Z" fill="#161616"/>
<path d="M86.4249 71.7881C86.9573 71.0509 87.5921 70.3956 88.3089 69.8018C88.145 69.6994 87.9607 69.597 87.7969 69.4946C87.5307 70.3137 86.9573 70.969 86.1997 71.3786C86.3225 71.5424 86.4454 71.7062 86.5683 71.87C87.0393 71.2967 87.5102 70.7438 87.9812 70.1704C88.2269 69.8632 87.7969 69.4332 87.5512 69.7404C87.0802 70.3137 86.6092 70.8666 86.1382 71.44C85.913 71.7062 86.1997 72.0953 86.5068 71.9315C87.4078 71.44 88.0631 70.6414 88.3908 69.6789C88.4931 69.3513 88.1041 69.208 87.8788 69.3718C87.1212 69.9861 86.4659 70.6823 85.913 71.4809C85.6673 71.8086 86.1997 72.1157 86.4249 71.7881Z" fill="#161616"/>
<path d="M93.2244 73.5907C93.4906 73.1402 93.8387 72.7511 94.2278 72.403C94.064 72.3006 93.8797 72.1982 93.7159 72.0958C93.5316 72.7101 93.163 73.263 92.6306 73.6521C92.7739 73.775 92.9377 73.8773 93.0811 74.0002C93.2039 73.6726 93.3882 73.3654 93.6135 73.0992C93.8592 72.792 93.4292 72.362 93.1835 72.6692C92.8968 73.0378 92.6715 73.4064 92.5077 73.8364C92.4053 74.0821 92.7534 74.3483 92.9582 74.1845C93.6135 73.693 94.0845 73.0582 94.3097 72.2801C94.4121 71.9729 94.023 71.7886 93.7978 71.9729C93.3677 72.3415 92.9992 72.792 92.692 73.2835C92.4667 73.6111 92.9992 73.9183 93.2244 73.5907Z" fill="#161616"/>
<path d="M84.3172 70.272C84.6244 70.9887 84.7882 71.7259 84.7882 72.4835C84.7882 72.6883 85.0954 72.6883 85.0954 72.4835C85.0954 71.6644 84.9111 70.8658 84.5834 70.1081C84.5015 69.9238 84.2353 70.0877 84.3172 70.272Z" fill="#161616"/>
<path d="M83.4566 69.7405C83.6614 70.0681 83.8047 70.3957 83.9276 70.7439C83.989 70.9282 84.2757 70.8462 84.2143 70.6619C84.0914 70.2729 83.9276 69.9248 83.7228 69.5766C83.6204 69.4128 83.3542 69.5766 83.4566 69.7405Z" fill="#161616"/>
<path d="M88.1864 68.0615C88.9441 67.8363 89.6608 68.3482 89.6813 69.1468C89.6813 69.4335 90.1523 69.454 90.1523 69.1468C90.1113 68.0615 89.1284 67.3243 88.0636 67.611C87.7769 67.6929 87.8997 68.1434 88.1864 68.0615Z" fill="#161616"/>
<path d="M93.6742 71.0713C94.0018 70.8665 94.3909 70.846 94.739 71.0508C94.9848 71.2146 95.2305 70.8051 94.9643 70.6617C94.4933 70.3751 93.8995 70.3751 93.449 70.6822C93.2032 70.846 93.4285 71.2351 93.6742 71.0713Z" fill="#161616"/>
<path d="M83.6808 76.3333C84.1723 77.2139 85.0119 77.8487 85.9948 78.1149C86.3838 78.2173 86.5477 77.6234 86.1586 77.521C85.319 77.2958 84.6433 76.7838 84.2132 76.0262C84.0085 75.6781 83.476 75.9852 83.6808 76.3333Z" fill="#161616"/>
<path d="M79.4629 66.6478C79.9134 65.8696 80.9987 64.211 83.0874 63.0642C84.5208 62.2656 85.8723 62.0404 86.6914 61.9585C87.1419 62.5523 87.8791 63.3304 88.9644 63.8219C91.5241 64.9891 93.5923 63.4533 95.1076 64.4772C95.9062 65.0096 96.7048 66.2997 96.3977 69.8218C97.7492 71.2142 98.6502 71.2962 99.1416 71.1938C101.189 70.7842 102.664 66.1768 101.374 62.8185C100.985 61.8151 100.473 61.2418 96.1315 57.7811C90.0087 52.9075 89.2511 52.6208 88.4524 52.4365C84.2341 51.4536 80.5072 53.5832 79.8724 53.9518C79.0533 54.4228 78.869 54.648 74.1797 59.5831C70.5347 63.4124 70.1866 63.7605 69.859 64.7024C68.9989 67.0778 69.1628 70.518 71.3538 73.0367C73.4221 75.3916 76.207 75.7397 76.9237 75.8217C76.6165 75.1254 76.2889 74.1425 76.1251 72.9343C75.9203 71.3781 76.1251 70.088 76.3094 69.2484C76.166 69.146 75.3469 68.4703 75.2855 67.3235C75.2445 66.484 75.6336 65.4191 76.5346 65.071C77.538 64.682 78.91 65.2758 79.4629 66.6478Z" fill="#5222D0"/>
<path d="M78.5826 56.3478C77.743 54.6891 75.2857 54.4434 74.8557 54.4024C71.436 54.0543 68.692 57.1054 67.0743 58.8869C64.2075 62.0609 65.0266 63.0029 62.2416 66.8322C58.5557 71.9106 55.7913 72.1358 55.2179 75.6374C55.1769 75.9037 54.665 79.4258 56.9994 81.5554C59.0062 83.3984 62.2416 83.4188 64.3713 82.3131C67.2586 80.8182 67.0129 77.808 69.1016 72.7501C73.197 62.88 80.2003 59.5422 78.5826 56.3478Z" fill="#5222D0"/>
<path opacity="0.12" d="M81.8793 63.8018C81.2241 65.4399 80.4459 68.0406 80.4869 71.2965C80.5483 76.4977 82.678 80.3065 83.7428 81.9447C82.5756 81.4533 80.6302 80.4089 78.9306 78.3612C78.2344 77.5216 76.5962 75.5353 76.1662 72.4842C75.9614 71.1122 76.0842 69.9654 76.2071 69.1873C76.0842 69.0849 75.2447 68.3273 75.2856 67.1396C75.3061 66.3614 75.7157 65.3171 76.5962 65.0099C77.5791 64.6618 78.9306 65.2966 79.463 66.6686C79.6678 66.259 79.9545 65.7471 80.3845 65.2147C80.9169 64.5799 81.4493 64.1294 81.8793 63.8018Z" fill="#6D6C6C"/>
<path opacity="0.13" d="M78.2757 78.7915C78.1119 79.1601 77.9276 79.5287 77.7023 79.8973C76.6785 81.6174 75.3474 82.7641 74.3031 83.4603C73.9345 83.2351 73.443 82.887 72.9516 82.3546C72.4192 81.7812 72.0915 81.2078 71.9072 80.7983C72.7058 80.5525 74.6922 79.7949 76.0437 77.8086C76.5146 77.0919 76.8013 76.3956 76.9651 75.8223C77.3952 76.8257 77.8252 77.8086 78.2757 78.7915Z" fill="#6D6C6C"/>
<path opacity="0.18" d="M76.4735 68.8389C76.5759 70.2518 76.8421 72.0948 77.5384 74.163C78.5008 76.9684 79.8933 79.0366 80.9581 80.3472C79.8933 79.4871 78.6237 78.197 77.5998 76.395C76.924 75.1869 75.9206 73.4463 76.0435 71.0709C76.0845 70.1494 76.2892 69.3713 76.4735 68.8389Z" fill="#6D6C6C"/>
<path opacity="0.32" d="M79.6057 54.4639C78.7457 55.3034 73.3806 60.7095 74.1178 68.3885C74.4249 71.6649 75.7355 74.1426 76.6775 75.5965C76.0222 75.5556 74.7526 75.4122 73.3806 74.6136C72.0086 73.815 71.2305 72.7706 70.8824 72.2382C70.6161 71.8082 70.2885 71.112 70.0837 70.2315C70.0837 70.2315 69.7151 68.5113 70.3909 66.3817C71.1076 64.0473 74.343 59.5013 79.6057 54.4639Z" fill="#32198E"/>
<path opacity="0.33" d="M68.5286 57.7818C68.9996 58.0889 66.3989 63.5564 63.5321 68.3276C60.952 72.6074 59.6824 73.7951 59.4981 76.4162C59.3138 79.1397 60.4605 81.4741 61.4844 83.0508C60.9724 83.0918 59.0476 83.1532 57.3684 81.8222C56.4469 81.085 55.9555 80.225 55.7302 79.6926C55.2388 78.2591 54.8087 76.1704 55.6688 74.2046C56.2422 72.8736 56.9179 72.7712 59.0271 70.6416C60.8905 68.7576 62.7335 66.8942 64.085 64.1297C64.7812 62.7168 65.0269 61.6929 66.2146 60.0957C66.9928 59.0309 68.2624 57.5975 68.5286 57.7818Z" fill="#32198E"/>
</svg>
