<svg width="24" height="24" viewBox="0 0 24 24" fill="none" xmlns="http://www.w3.org/2000/svg">
<g clip-path="url(#clip0_1482_7602)">
<path d="M19 9.99997H18V7.68997C18 4.52997 15.43 1.96997 12.28 1.96997H11.8C8.66 1.96997 6 4.61997 6 7.76997V9.99997H5C4.45 9.99997 4 10.45 4 11V19C4 20.65 5.35 22 7 22H17C18.65 22 20 20.65 20 19V11C20 10.45 19.55 9.99997 19 9.99997ZM8 7.76997C8 5.70997 9.74 3.96997 11.8 3.96997H12.28C14.33 3.96997 16 5.63997 16 7.68997V9.99997H8V7.76997ZM13.06 16.06C13.04 16.08 13.02 16.1 13 16.11V18C13 18.55 12.55 19 12 19C11.45 19 11 18.55 11 18V16.11C10.98 16.1 10.96 16.08 10.94 16.06C10.66 15.78 10.5 15.4 10.5 15C10.5 14.9 10.51 14.8 10.53 14.71C10.55 14.61 10.58 14.52 10.61 14.43C10.65 14.34 10.7 14.25 10.75 14.17C10.81 14.08 10.87 14.01 10.94 13.94C11.29 13.59 11.8 13.43 12.29 13.53C12.39 13.55 12.48 13.58 12.57 13.61C12.66 13.65 12.75 13.7 12.83 13.75C12.91 13.81 12.99 13.87 13.06 13.94C13.13 14.01 13.19 14.08 13.25 14.17C13.3 14.25 13.35 14.34 13.38 14.43C13.42 14.52 13.45 14.61 13.47 14.71C13.49 14.8 13.5 14.9 13.5 15C13.5 15.4 13.34 15.77 13.06 16.06Z" fill="#046AD0"/>
</g>
<defs>
<clipPath id="clip0_1482_7602">
<rect width="24" height="24" fill="white"/>
</clipPath>
</defs>
</svg>
