<svg width="249" height="40" viewBox="0 0 249 40" fill="none" xmlns="http://www.w3.org/2000/svg">
<path fill-rule="evenodd" clip-rule="evenodd" d="M17.5385 5H22.4615C23.2687 5 23.9231 5.65435 23.9231 6.46154V11.3846C23.9231 12.1918 23.2687 12.8462 22.4615 12.8462H17.5385C16.7313 12.8462 16.0769 12.1918 16.0769 11.3846V6.46154C16.0769 5.65435 16.7313 5 17.5385 5ZM28.6154 16.0769H33.5385C34.3456 16.0769 35 16.7313 35 17.5385V22.4615C35 23.2687 34.3456 23.9231 33.5385 23.9231H28.6154C27.8082 23.9231 27.1538 23.2687 27.1538 22.4615V17.5385C27.1538 16.7313 27.8082 16.0769 28.6154 16.0769ZM17.5385 27.1538H22.4615C23.2687 27.1538 23.9231 27.8082 23.9231 28.6154V33.5385C23.9231 34.3456 23.2687 35 22.4615 35H17.5385C16.7313 35 16.0769 34.3456 16.0769 33.5385V28.6154C16.0769 27.8082 16.7313 27.1538 17.5385 27.1538ZM6.46154 16.0769H11.3846C12.1918 16.0769 12.8462 16.7313 12.8462 17.5385V22.4615C12.8462 23.2687 12.1918 23.9231 11.3846 23.9231H6.46154C5.65435 23.9231 5 23.2687 5 22.4615V17.5385C5 16.7313 5.65435 16.0769 6.46154 16.0769ZM15.0769 6.46154C15.0769 5.10207 16.179 4 17.5385 4H22.4615C23.821 4 24.9231 5.10207 24.9231 6.46154V11.3846C24.9231 12.7441 23.821 13.8462 22.4615 13.8462H17.5385C16.179 13.8462 15.0769 12.7441 15.0769 11.3846V6.46154ZM26.1538 17.5385C26.1538 16.179 27.2559 15.0769 28.6154 15.0769H33.5385C34.8979 15.0769 36 16.179 36 17.5385V22.4615C36 23.821 34.8979 24.9231 33.5385 24.9231H28.6154C27.2559 24.9231 26.1538 23.821 26.1538 22.4615V17.5385ZM17.5385 26.1538C16.179 26.1538 15.0769 27.2559 15.0769 28.6154V33.5385C15.0769 34.8979 16.179 36 17.5385 36H22.4615C23.821 36 24.9231 34.8979 24.9231 33.5385V28.6154C24.9231 27.2559 23.821 26.1538 22.4615 26.1538H17.5385ZM4 17.5385C4 16.179 5.10207 15.0769 6.46154 15.0769H11.3846C12.7441 15.0769 13.8462 16.179 13.8462 17.5385V22.4615C13.8462 23.821 12.7441 24.9231 11.3846 24.9231H6.46154C5.10207 24.9231 4 23.821 4 22.4615V17.5385ZM26.1538 6.46154C26.1538 5.10207 27.2559 4 28.6154 4H33.5385C34.8979 4 36 5.10207 36 6.46154V11.3846C36 12.7441 34.8979 13.8462 33.5385 13.8462H28.6154C27.2559 13.8462 26.1538 12.7441 26.1538 11.3846V6.46154ZM4 28.6154C4 27.2559 5.10207 26.1538 6.46154 26.1538H11.3846C12.7441 26.1538 13.8462 27.2559 13.8462 28.6154V33.5385C13.8462 34.8979 12.7441 36 11.3846 36H6.46154C5.10207 36 4 34.8979 4 33.5385V28.6154ZM17.5385 15.0769C16.179 15.0769 15.0769 16.179 15.0769 17.5385V22.4615C15.0769 23.821 16.179 24.9231 17.5385 24.9231H22.4615C23.821 24.9231 24.9231 23.821 24.9231 22.4615V17.5385C24.9231 16.179 23.821 15.0769 22.4615 15.0769H17.5385Z" fill="#003986"/>
<path fill-rule="evenodd" clip-rule="evenodd" d="M194.519 6.20737C194.346 6.63637 194.259 7.09542 194.264 7.55811C194.259 8.02077 194.346 8.47975 194.519 8.90871C194.692 9.33768 194.948 9.72819 195.272 10.0579C195.953 10.7279 196.869 11.1034 197.823 11.1034C198.777 11.1034 199.693 10.7279 200.373 10.0579C200.696 9.72796 200.952 9.3373 201.124 8.90832C201.296 8.47933 201.382 8.02048 201.377 7.55811C201.384 7.0967 201.301 6.63837 201.131 6.2094C200.961 5.78043 200.708 5.38927 200.387 5.05837C199.708 4.38058 198.788 4 197.83 4C196.871 4 195.951 4.38058 195.272 5.05837C194.948 5.38788 194.692 5.77837 194.519 6.20737ZM194.737 13.8003V35.5011H200.932V13.8003H194.737ZM44 31.616L46.3111 28.77C48.7831 31.1083 52.0704 32.3851 55.4702 32.3275C56.5743 32.3594 57.6742 32.1774 58.7095 31.7915C59.4798 31.504 60.1575 31.0121 60.6701 30.3685C61.0915 29.8252 61.3243 29.159 61.3331 28.4712C61.339 27.7436 61.1297 27.0307 60.7317 26.422C60.1793 25.6678 59.4594 25.0523 58.629 24.6243C57.2796 23.8979 55.8633 23.3038 54.3999 22.8503C52.475 22.2256 50.626 21.3872 48.8874 20.3506C47.7231 19.689 46.7455 18.7424 46.0459 17.5994C45.4979 16.597 45.2188 15.4693 45.2361 14.3265C45.2257 12.9286 45.6512 11.5622 46.4532 10.418C47.3311 9.20003 48.5136 8.23486 49.8819 7.61944C51.4589 6.89179 53.1801 6.53176 54.9161 6.56642C56.6247 6.58087 58.317 6.90218 59.9124 7.51509C61.5691 8.12158 63.1052 9.01773 64.4493 10.1619L62.1808 13.1359C61.1832 12.159 60.0145 11.3743 58.7331 10.8212C57.4325 10.2658 56.0316 9.98489 54.6177 9.99586C52.7739 9.99586 51.391 10.388 50.4691 11.1722C50.0465 11.4967 49.7026 11.9128 49.4632 12.3892C49.2237 12.8656 49.0949 13.39 49.0863 13.9233C49.0926 14.5454 49.2875 15.1508 49.6451 15.6594C50.1671 16.3338 50.8383 16.8778 51.6057 17.2484C52.875 17.8976 54.2001 18.431 55.5649 18.8422C57.61 19.438 59.5637 20.3127 61.371 21.4415C62.623 22.2112 63.6825 23.2578 64.4682 24.501C65.0889 25.5438 65.4162 26.7354 65.4154 27.9494C65.4275 29.375 65.0117 30.7714 64.222 31.9575C63.3527 33.2321 62.1433 34.2364 60.7317 34.8557C58.9697 35.6184 57.062 35.9843 55.1434 35.9277C53.7419 35.9254 52.3469 35.7372 50.9948 35.368C49.6392 35.0126 48.3295 34.5 47.0925 33.8406C45.9625 33.2482 44.9214 32.4993 44 31.616ZM69.9539 24.8758C69.8852 22.7891 70.3087 20.7155 71.1899 18.8233C71.9307 17.2737 73.1056 15.9734 74.5713 15.0808C76.0723 14.2408 77.763 13.7998 79.4824 13.7998C81.2017 13.7998 82.8925 14.2408 84.3934 15.0808C85.8553 15.9752 87.0266 17.2753 87.7653 18.8233C88.6439 20.7164 89.0672 22.7893 89.0014 24.8758C89.065 26.9622 88.6417 29.0346 87.7653 30.9283C87.0293 32.4814 85.8512 33.7818 84.3792 34.6661C82.8743 35.494 81.1851 35.9281 79.4682 35.9281C77.7512 35.9281 76.062 35.494 74.5571 34.6661C73.0918 33.7794 71.9205 32.4791 71.1899 30.9283C70.3114 29.0353 69.888 26.9624 69.9539 24.8758ZM73.8325 24.8758C73.7915 26.305 74.0197 27.7291 74.505 29.0737C74.8811 30.1148 75.5568 31.021 76.4467 31.6778C77.3526 32.2572 78.4051 32.5651 79.48 32.5651C80.5549 32.5651 81.6074 32.2572 82.5133 31.6778C83.4005 31.0193 84.0742 30.1135 84.4503 29.0737C84.9388 27.7297 85.1702 26.3056 85.1322 24.8758C85.1696 23.4476 84.9383 22.0252 84.4503 20.6827C84.0706 19.6383 83.3981 18.7258 82.5133 18.0549C81.6118 17.4635 80.5576 17.1485 79.48 17.1485C78.4024 17.1485 77.3482 17.4635 76.4467 18.0549C75.5592 18.7242 74.8847 19.637 74.505 20.6827C74.0202 22.0258 73.7921 23.4482 73.8325 24.8758ZM94.8017 14.2126V27.2758C94.7408 28.9365 95.0633 30.589 95.7441 32.1045C96.3002 33.3042 97.2068 34.3066 98.3441 34.9789C99.5182 35.6255 100.841 35.9522 102.181 35.9264C103.52 35.9006 104.83 35.5232 105.978 34.8319C107.03 34.1913 107.973 33.3891 108.774 32.4557L109.412 35.5007L112.954 35.496L112.623 33.6745C112.538 33.2088 112.485 32.7743 112.437 32.3797C112.423 32.2639 112.409 32.1515 112.395 32.0428C112.334 31.5637 112.334 31.0325 112.334 30.4538V14.2126H108.545V29.6637C107.86 30.3417 107.096 30.9353 106.267 31.4309C105.307 32.0069 104.209 32.3133 103.089 32.3179C102.487 32.3394 101.886 32.2326 101.328 32.0044C100.77 31.7763 100.266 31.4321 99.8501 30.9945C99.0103 30.1154 98.5904 28.7098 98.5904 26.7777V14.2126H94.8017ZM116.658 32.4411L120.622 27.8116C121.108 28.4905 121.743 29.0487 122.478 29.4433C123.262 29.8728 124.142 30.0933 125.035 30.0837C125.692 30.1202 126.348 30.0117 126.958 29.7658C127.568 29.5199 128.116 29.1426 128.564 28.6607C129.402 27.712 129.823 26.3459 129.823 24.5292V11.9546H123.075V6.97885H129.823H134.218H136.425V25.3735C136.487 27.4012 135.964 29.4037 134.919 31.1414C133.94 32.7052 132.537 33.9585 130.875 34.7558C129.118 35.5973 127.191 36.0225 125.244 35.9986C123.599 36.0237 121.967 35.7004 120.456 35.0499C119.038 34.4253 117.75 33.5405 116.658 32.4411ZM142.43 13.7998V27.2757C142.369 28.9564 142.738 30.625 143.5 32.1234C144.139 33.3378 145.106 34.3484 146.29 35.0405C147.389 35.667 148.633 35.9941 149.898 35.9892C151.285 36.0177 152.648 35.6366 153.82 34.8935C154.795 34.2512 155.665 33.4639 156.4 32.5596L156.959 35.5006H162.983L162.652 33.4752C162.572 33.0298 162.52 32.6227 162.474 32.2595C162.457 32.1276 162.441 32.0015 162.425 31.8815C162.363 31.4308 162.363 30.9138 162.363 30.3351V13.8141H156.173V28.6251C155.714 29.0544 155.193 29.4138 154.625 29.69C153.861 30.0644 153.022 30.2621 152.172 30.2687C151.7 30.2947 151.227 30.2239 150.783 30.0608C150.34 29.8977 149.934 29.6456 149.59 29.32C148.943 28.6718 148.62 27.6725 148.62 26.3223V13.7998H142.43ZM167.93 13.8007H173.959L174.512 16.7256C175.26 15.8081 176.152 15.0169 177.155 14.3841C178.352 13.6461 179.734 13.2659 181.138 13.2884C182.471 13.2872 183.78 13.6478 184.925 14.3318C186.07 15.0158 187.008 15.9977 187.641 17.1732C188.421 18.6695 188.798 20.3436 188.735 22.0304V35.5015H182.545V22.9743C182.574 22.1957 182.411 21.4219 182.071 20.7212C181.786 20.1622 181.332 19.7075 180.774 19.4215C180.183 19.1378 179.534 18.9964 178.879 19.0089C177.969 19.0258 177.074 19.2417 176.256 19.6416C175.701 19.9129 175.19 20.2646 174.74 20.6839V35.4825H168.55V18.9662V18.9658C168.55 18.3872 168.55 17.8704 168.489 17.4151C168.474 17.3026 168.459 17.1857 168.443 17.0644L168.443 17.0631L168.443 17.0626L168.443 17.0622C168.396 16.693 168.343 16.2823 168.262 15.8261L167.93 13.8007ZM205.574 24.6723C205.515 22.5646 205.984 20.4756 206.938 18.5961C207.8 16.9505 209.115 15.5873 210.727 14.6686C212.425 13.7593 214.321 13.2836 216.247 13.2836C218.172 13.2836 220.068 13.7593 221.766 14.6686C223.359 15.5966 224.657 16.9585 225.508 18.5961C226.459 20.4699 226.928 22.552 226.871 24.6534C226.924 26.7407 226.455 28.8081 225.508 30.6679C224.653 32.3074 223.351 33.6696 221.752 34.5954C220.054 35.5047 218.158 35.9805 216.232 35.9805C214.307 35.9805 212.411 35.5047 210.713 34.5954C209.1 33.6767 207.785 32.3135 206.924 30.6679C205.985 28.8125 205.521 26.7521 205.574 24.6723ZM211.849 24.6723C211.813 25.8932 211.994 27.1108 212.385 28.2678C212.665 29.0995 213.198 29.8225 213.91 30.3359C214.604 30.7668 215.406 30.9951 216.223 30.9951C217.04 30.9951 217.841 30.7668 218.536 30.3359C219.247 29.8225 219.781 29.0995 220.061 28.2678C220.454 27.1113 220.636 25.8933 220.597 24.6723C220.636 23.4513 220.455 22.2332 220.061 21.0769C219.778 20.2401 219.246 19.5102 218.536 18.9851C217.846 18.5422 217.043 18.3069 216.223 18.3069C215.403 18.3069 214.6 18.5422 213.91 18.9851C213.2 19.5102 212.668 20.2401 212.385 21.0769C211.994 22.2338 211.812 23.4515 211.849 24.6723ZM236.948 13.8005H230.915L231.246 15.8259C231.355 16.4331 231.436 16.9596 231.473 17.4149C231.511 17.8703 231.535 18.3873 231.535 18.966V35.4823H237.725V21.4073C238.507 20.7882 239.384 20.2981 240.325 19.9574C241.645 19.5684 243.017 19.3876 244.393 19.4214V13.3025C242.921 13.2983 241.482 13.738 240.263 14.5642C239.201 15.2938 238.289 16.2172 237.574 17.2833L236.948 13.8005Z" fill="#003986"/>
</svg>
