<svg width="242" height="38" viewBox="0 0 242 38" fill="none" xmlns="http://www.w3.org/2000/svg">
<path d="M48.5999 28.8839L50.8167 26.1706C53.188 28.3999 56.3413 29.6172 59.6024 29.5622C60.6616 29.5927 61.7166 29.4192 62.7097 29.0512C63.4486 28.7771 64.0987 28.3082 64.5904 27.6946C64.9946 27.1766 65.2179 26.5415 65.2264 25.8857C65.232 25.1921 65.0312 24.5123 64.6494 23.9321C64.1195 23.213 63.4291 22.6262 62.6324 22.2182C61.3381 21.5256 59.9796 20.9592 58.5758 20.5269C56.7294 19.9313 54.9558 19.1319 53.288 18.1437C52.1712 17.5129 51.2334 16.6105 50.5623 15.5208C50.0367 14.5651 49.769 13.49 49.7855 12.4005C49.7756 11.0677 50.1838 9.76508 50.953 8.6742C51.7952 7.513 52.9295 6.59283 54.242 6.00611C55.7547 5.31238 57.4057 4.96913 59.0709 5.00218C60.7099 5.01595 62.3332 5.32228 63.8635 5.90662C65.4527 6.48483 66.9262 7.33921 68.2155 8.43L66.0395 11.2654C65.0826 10.334 63.9615 9.58589 62.7324 9.05859C61.4848 8.52913 60.1409 8.26127 58.7847 8.27173C57.0161 8.27173 55.6896 8.64556 54.8053 9.39323C54.3999 9.70263 54.07 10.0993 53.8403 10.5535C53.6106 11.0077 53.487 11.5077 53.4788 12.0161C53.4848 12.6091 53.6718 13.1864 54.0148 13.6712C54.5156 14.3142 55.1594 14.8328 55.8955 15.1862C57.1131 15.8051 58.3841 16.3136 59.6933 16.7056C61.6551 17.2737 63.5291 18.1076 65.2627 19.1838C66.4637 19.9176 67.48 20.9153 68.2337 22.1006C68.829 23.0948 69.143 24.2308 69.1422 25.3882C69.1538 26.7474 68.755 28.0787 67.9974 29.2095C67.1637 30.4247 66.0035 31.3821 64.6494 31.9726C62.9593 32.6997 61.1294 33.0485 59.289 32.9946C57.9446 32.9923 56.6065 32.8129 55.3095 32.461C54.0091 32.1221 52.7529 31.6334 51.5663 31.0048C50.4823 30.44 49.4837 29.7261 48.5999 28.8839Z" fill="#046AD0"/>
<path d="M73.6587 22.5113C73.5919 20.5309 74.0038 18.563 74.8609 16.7674C75.5814 15.2968 76.724 14.0627 78.1495 13.2157C79.6093 12.4185 81.2536 12 82.9258 12C84.598 12 86.2424 12.4185 87.7022 13.2157C89.1239 14.0645 90.2631 15.2983 90.9816 16.7674C91.8361 18.5639 92.2478 20.5311 92.1837 22.5113C92.2456 24.4912 91.8339 26.458 90.9816 28.2552C90.2657 29.7291 89.1199 30.9632 87.6884 31.8024C86.2247 32.5881 84.5819 33 82.912 33C81.2422 33 79.5993 32.5881 78.1357 31.8024C76.7106 30.9608 75.5714 29.7269 74.8609 28.2552C74.0064 26.4587 73.5947 24.4914 73.6587 22.5113ZM77.431 22.5113C77.3911 23.8676 77.613 25.2191 78.085 26.4951C78.4508 27.4832 79.1079 28.3431 79.9735 28.9664C80.8545 29.5163 81.8781 29.8085 82.9235 29.8085C83.9689 29.8085 84.9926 29.5163 85.8736 28.9664C86.7365 28.3415 87.3917 27.4819 87.7574 26.4951C88.2326 25.2197 88.4576 23.8681 88.4207 22.5113C88.4571 21.1559 88.2321 19.806 87.7574 18.532C87.3883 17.5408 86.7341 16.6748 85.8736 16.0381C84.9969 15.4769 83.9716 15.178 82.9235 15.178C81.8755 15.178 80.8502 15.4769 79.9735 16.0381C79.1103 16.6733 78.4543 17.5396 78.085 18.532C77.6135 19.8066 77.3917 21.1565 77.431 22.5113Z" fill="#046AD0"/>
<path d="M97.7087 24.8321V12.5H101.367V24.362C101.367 26.1859 101.773 27.5129 102.584 28.3428C102.985 28.7559 103.472 29.0808 104.011 29.2962C104.55 29.5116 105.13 29.6124 105.712 29.5921C106.793 29.5877 107.853 29.2985 108.781 28.7548C109.828 28.1424 110.769 27.3717 111.57 26.471V29.2787C110.724 30.3507 109.684 31.2614 108.502 31.9654C107.393 32.618 106.128 32.9743 104.834 32.9987C103.541 33.023 102.263 32.7146 101.129 32.1042C100.031 31.4695 99.1558 30.5232 98.6188 29.3906C97.9613 27.9599 97.6498 26.4 97.7087 24.8321ZM111.817 32.5968L110.98 28.6921V12.5H114.639V27.8323C114.639 28.3786 114.639 28.8801 114.698 29.3324C114.758 29.7847 114.813 30.3041 114.918 30.8728L115.238 32.5923L111.817 32.5968Z" fill="#046AD0"/>
<path d="M118.745 30.0664L122.562 25.5997C123.03 26.2548 123.642 26.7933 124.35 27.174C125.104 27.5884 125.953 27.8012 126.813 27.7919C127.445 27.8272 128.077 27.7224 128.664 27.4852C129.251 27.2479 129.779 26.8839 130.21 26.4189C131.017 25.5036 131.423 24.1856 131.423 22.4328V5.5H137.78V23.2475C137.84 25.2038 137.336 27.1358 136.33 28.8124C135.387 30.3212 134.036 31.5304 132.435 32.2997C130.744 33.1115 128.888 33.5218 127.013 33.4987C125.429 33.5229 123.858 33.211 122.403 32.5834C121.038 31.9808 119.797 31.1271 118.745 30.0664ZM124.925 10.3007V5.5H135.655V10.3007H124.925Z" fill="#046AD0"/>
<path d="M143.303 25.0563V12H149.336V24.1326C149.336 25.4408 149.652 26.409 150.283 27.037C150.617 27.3525 151.013 27.5967 151.445 27.7548C151.878 27.9128 152.338 27.9813 152.799 27.9562C153.628 27.9498 154.445 27.7582 155.19 27.3955C156.012 26.9984 156.734 26.4237 157.304 25.7135V29.6796C156.513 30.7656 155.531 31.6999 154.405 32.437C153.263 33.157 151.934 33.5262 150.583 33.4986C149.35 33.5033 148.137 33.1864 147.065 32.5794C145.911 31.9089 144.969 30.9297 144.346 29.7531C143.602 28.3013 143.243 26.6848 143.303 25.0563ZM157.466 33.0252L156.699 29.0178V12.0138H162.733V28.0205C162.733 28.5812 162.733 29.0821 162.793 29.5187C162.853 29.9553 162.909 30.4746 163.015 31.0628L163.338 33.0252H157.466Z" fill="#046AD0"/>
<path d="M167.847 11.9967H173.653L174.405 15.9954V32.9816H168.445V16.9962C168.445 16.4361 168.445 15.9357 168.385 15.495C168.326 15.0543 168.271 14.5447 168.166 13.957L167.847 11.9967ZM173.813 19.2779V15.3159C174.602 14.2185 175.593 13.2835 176.731 12.5614C177.883 11.8471 179.214 11.4791 180.567 11.5009C181.851 11.4997 183.111 11.8487 184.213 12.5108C185.316 13.1728 186.22 14.1232 186.829 15.2608C187.58 16.709 187.943 18.3293 187.882 19.9619V33H181.921V20.8755C181.95 20.1219 181.793 19.373 181.465 18.6948C181.19 18.1538 180.753 17.7137 180.216 17.4369C179.647 17.1623 179.022 17.0255 178.391 17.0375C177.515 17.0539 176.653 17.2629 175.865 17.6499C175.077 18.0369 174.383 18.5925 173.831 19.2779H173.813Z" fill="#046AD0"/>
<path d="M193.4 5.94503C193.396 5.49704 193.475 5.05258 193.634 4.63721C193.792 4.22185 194.027 3.84377 194.324 3.52474C194.946 2.86849 195.788 2.5 196.665 2.5C197.543 2.5 198.385 2.86849 199.007 3.52474C199.301 3.84512 199.532 4.22385 199.688 4.63918C199.843 5.05452 199.92 5.49829 199.913 5.94503C199.918 6.3927 199.839 6.83697 199.682 7.25233C199.524 7.66768 199.29 8.04592 198.994 8.36533C198.371 9.01408 197.533 9.37764 196.659 9.37764C195.785 9.37764 194.947 9.01408 194.324 8.36533C194.027 8.04615 193.793 7.66804 193.634 7.25271C193.476 6.83738 193.396 6.39299 193.4 5.94503ZM193.834 33V11.9889H199.506V33H193.834Z" fill="#046AD0"/>
<path d="M204.428 22.5391C204.372 20.4961 204.813 18.4712 205.711 16.6494C206.521 15.0544 207.758 13.7331 209.274 12.8425C210.872 11.9611 212.655 11.5 214.466 11.5C216.278 11.5 218.061 11.9611 219.658 12.8425C221.157 13.742 222.377 15.0621 223.177 16.6494C224.072 18.4657 224.513 20.4839 224.46 22.5207C224.51 24.5439 224.069 26.5479 223.177 28.3506C222.374 29.9397 221.149 31.2601 219.645 32.1575C218.048 33.0389 216.264 33.5 214.453 33.5C212.642 33.5 210.858 33.0389 209.261 32.1575C207.744 31.2669 206.508 29.9456 205.697 28.3506C204.814 26.5521 204.377 24.555 204.428 22.5391ZM210.33 22.5391C210.296 23.7224 210.466 24.9026 210.834 26.0241C211.098 26.8303 211.599 27.5311 212.268 28.0287C212.922 28.4464 213.675 28.6677 214.444 28.6677C215.213 28.6677 215.967 28.4464 216.62 28.0287C217.289 27.5311 217.791 26.8303 218.055 26.0241C218.424 24.9032 218.595 23.7226 218.558 22.5391C218.595 21.3556 218.425 20.1749 218.055 19.054C217.788 18.243 217.288 17.5354 216.62 17.0264C215.971 16.5972 215.215 16.3691 214.444 16.3691C213.673 16.3691 212.918 16.5972 212.268 17.0264C211.601 17.5354 211.1 18.243 210.834 19.054C210.466 20.1754 210.295 21.3557 210.33 22.5391Z" fill="#046AD0"/>
<path d="M228.473 11.9828H234.305L235.055 16.1715V33H229.073V16.99C229.073 16.429 229.05 15.9278 229.013 15.4864C228.977 15.045 228.899 14.5347 228.793 13.9461L228.473 11.9828ZM234.456 19.8775V16.1072C235.196 14.755 236.242 13.596 237.509 12.7231C238.687 11.9222 240.078 11.496 241.5 11.5V17.4314C240.171 17.3986 238.844 17.5739 237.568 17.9509C236.41 18.3717 235.35 19.0275 234.456 19.8775Z" fill="#046AD0"/>
<path d="M8.72565 26.5H2.79618C1.52803 26.5 0.5 27.5259 0.5 28.7914V34.7086C0.5 35.9741 1.52803 37 2.79618 37H8.72565C9.9938 37 11.0218 35.9741 11.0218 34.7086V28.7914C11.0218 27.5259 9.9938 26.5 8.72565 26.5Z" fill="#046AD0"/>
<path d="M21.2517 14H15.3222C14.054 14 13.026 14.977 13.026 16.1823V21.8177C13.026 23.023 14.054 24 15.3222 24H21.2517C22.5198 24 23.5478 23.023 23.5478 21.8177V16.1823C23.5478 14.977 22.5198 14 21.2517 14Z" fill="#046AD0"/>
<path d="M34.2786 1H28.3492C27.081 1 26.053 2.0259 26.053 3.29141V9.20859C26.053 10.4741 27.081 11.5 28.3492 11.5H34.2786C35.5468 11.5 36.5748 10.4741 36.5748 9.20859V3.29141C36.5748 2.0259 35.5468 1 34.2786 1Z" fill="#046AD0"/>
<path d="M21.2517 26.5H15.3222C14.054 26.5 13.026 27.5259 13.026 28.7914V34.7086C13.026 35.9741 14.054 37 15.3222 37H21.2517C22.5198 37 23.5478 35.9741 23.5478 34.7086V28.7914C23.5478 27.5259 22.5198 26.5 21.2517 26.5Z" stroke="#046AD0" stroke-width="0.830793" stroke-miterlimit="10"/>
<path d="M34.2786 14H28.3492C27.081 14 26.053 14.977 26.053 16.1823V21.8177C26.053 23.023 27.081 24 28.3492 24H34.2786C35.5468 24 36.5748 23.023 36.5748 21.8177V16.1823C36.5748 14.977 35.5468 14 34.2786 14Z" stroke="#046AD0" stroke-width="0.830793" stroke-miterlimit="10"/>
<path d="M8.72565 14H2.79618C1.52803 14 0.5 14.977 0.5 16.1823V21.8177C0.5 23.023 1.52803 24 2.79618 24H8.72565C9.9938 24 11.0218 23.023 11.0218 21.8177V16.1823C11.0218 14.977 9.9938 14 8.72565 14Z" stroke="#046AD0" stroke-width="0.830793" stroke-miterlimit="10"/>
<path d="M21.2517 1H15.3222C14.054 1 13.026 2.0259 13.026 3.29141V9.20859C13.026 10.4741 14.054 11.5 15.3222 11.5H21.2517C22.5198 11.5 23.5478 10.4741 23.5478 9.20859V3.29141C23.5478 2.0259 22.5198 1 21.2517 1Z" stroke="#046AD0" stroke-width="0.830793" stroke-miterlimit="10"/>
</svg>
