<svg width="21" height="20" viewBox="0 0 21 20" fill="none" xmlns="http://www.w3.org/2000/svg">
<path d="M14.334 9.00195C14.7507 9.00195 15.1048 8.85612 15.3965 8.56445C15.6882 8.27279 15.834 7.91862 15.834 7.50195C15.834 7.08529 15.6882 6.73112 15.3965 6.43945C15.1048 6.14779 14.7507 6.00195 14.334 6.00195C13.9173 6.00195 13.5632 6.14779 13.2715 6.43945C12.9798 6.73112 12.834 7.08529 12.834 7.50195C12.834 7.91862 12.9798 8.27279 13.2715 8.56445C13.5632 8.85612 13.9173 9.00195 14.334 9.00195ZM7.33398 9.00195C7.75065 9.00195 8.10482 8.85612 8.39648 8.56445C8.68815 8.27279 8.83398 7.91862 8.83398 7.50195C8.83398 7.08529 8.68815 6.73112 8.39648 6.43945C8.10482 6.14779 7.75065 6.00195 7.33398 6.00195C6.91732 6.00195 6.56315 6.14779 6.27148 6.43945C5.97982 6.73112 5.83398 7.08529 5.83398 7.50195C5.83398 7.91862 5.97982 8.27279 6.27148 8.56445C6.56315 8.85612 6.91732 9.00195 7.33398 9.00195ZM10.834 15.502C11.9673 15.502 12.9965 15.1811 13.9215 14.5395C14.8465 13.8978 15.5173 13.052 15.934 12.002H5.73398C6.15065 13.052 6.82148 13.8978 7.74648 14.5395C8.67148 15.1811 9.70065 15.502 10.834 15.502ZM10.834 20.002C9.45065 20.002 8.15065 19.7395 6.93398 19.2145C5.71732 18.6895 4.65898 17.977 3.75898 17.077C2.85898 16.177 2.14648 15.1186 1.62148 13.902C1.09648 12.6853 0.833984 11.3853 0.833984 10.002C0.833984 8.61862 1.09648 7.31862 1.62148 6.10195C2.14648 4.88529 2.85898 3.82695 3.75898 2.92695C4.65898 2.02695 5.71732 1.31445 6.93398 0.789453C8.15065 0.264453 9.45065 0.00195312 10.834 0.00195312C12.2173 0.00195312 13.5173 0.264453 14.734 0.789453C15.9507 1.31445 17.009 2.02695 17.909 2.92695C18.809 3.82695 19.5215 4.88529 20.0465 6.10195C20.5715 7.31862 20.834 8.61862 20.834 10.002C20.834 11.3853 20.5715 12.6853 20.0465 13.902C19.5215 15.1186 18.809 16.177 17.909 17.077C17.009 17.977 15.9507 18.6895 14.734 19.2145C13.5173 19.7395 12.2173 20.002 10.834 20.002ZM10.834 18.002C13.0673 18.002 14.959 17.227 16.509 15.677C18.059 14.127 18.834 12.2353 18.834 10.002C18.834 7.76862 18.059 5.87695 16.509 4.32695C14.959 2.77695 13.0673 2.00195 10.834 2.00195C8.60065 2.00195 6.70898 2.77695 5.15898 4.32695C3.60898 5.87695 2.83398 7.76862 2.83398 10.002C2.83398 12.2353 3.60898 14.127 5.15898 15.677C6.70898 17.227 8.60065 18.002 10.834 18.002Z" fill="#68C71D"/>
</svg>
