<svg width="20" height="20" viewBox="0 0 20 20" fill="none" xmlns="http://www.w3.org/2000/svg">
<path d="M10 20.002C8.61667 20.002 7.31667 19.7395 6.1 19.2145C4.88333 18.6895 3.825 17.977 2.925 17.077C2.025 16.177 1.3125 15.1186 0.7875 13.902C0.2625 12.6853 0 11.3853 0 10.002C0 8.61862 0.2625 7.31862 0.7875 6.10195C1.3125 4.88529 2.025 3.82695 2.925 2.92695C3.825 2.02695 4.88333 1.31445 6.1 0.789453C7.31667 0.264453 8.61667 0.00195312 10 0.00195312C11.3833 0.00195312 12.6833 0.264453 13.9 0.789453C15.1167 1.31445 16.175 2.02695 17.075 2.92695C17.975 3.82695 18.6875 4.88529 19.2125 6.10195C19.7375 7.31862 20 8.61862 20 10.002C20 11.3853 19.7375 12.6853 19.2125 13.902C18.6875 15.1186 17.975 16.177 17.075 17.077C16.175 17.977 15.1167 18.6895 13.9 19.2145C12.6833 19.7395 11.3833 20.002 10 20.002ZM10 18.002C12.2167 18.002 14.1042 17.2228 15.6625 15.6645C17.2208 14.1061 18 12.2186 18 10.002C18 7.78529 17.2208 5.89779 15.6625 4.33945C14.1042 2.78112 12.2167 2.00195 10 2.00195C7.78333 2.00195 5.89583 2.78112 4.3375 4.33945C2.77917 5.89779 2 7.78529 2 10.002C2 12.2186 2.77917 14.1061 4.3375 15.6645C5.89583 17.2228 7.78333 18.002 10 18.002ZM11.5 8.90195L12 8.60195C12.0333 9.00195 12.1917 9.33529 12.475 9.60195C12.7583 9.86862 13.1 10.002 13.5 10.002C13.9167 10.002 14.2708 9.85612 14.5625 9.56445C14.8542 9.27279 15 8.91862 15 8.50195C15 8.25195 14.9417 8.01445 14.825 7.78945C14.7083 7.56445 14.55 7.38529 14.35 7.25195L15 6.87695L14.5 6.00195L11 8.00195L11.5 8.90195ZM8.5 8.90195L9 8.00195L5.5 6.00195L5 6.87695L5.65 7.25195C5.45 7.38529 5.29167 7.56445 5.175 7.78945C5.05833 8.01445 5 8.25195 5 8.50195C5 8.91862 5.14583 9.27279 5.4375 9.56445C5.72917 9.85612 6.08333 10.002 6.5 10.002C6.9 10.002 7.24167 9.86862 7.525 9.60195C7.80833 9.33529 7.96667 9.00195 8 8.60195L8.5 8.90195ZM10 11.002C8.81667 11.002 7.775 11.3811 6.875 12.1395C5.975 12.8978 5.34167 13.852 4.975 15.002H15.025C14.6583 13.852 14.025 12.8978 13.125 12.1395C12.225 11.3811 11.1833 11.002 10 11.002Z" fill="#E94444"/>
</svg>
