<svg width="21" height="20" viewBox="0 0 21 20" fill="none" xmlns="http://www.w3.org/2000/svg">
<path d="M14.166 9.00195C14.5827 9.00195 14.9368 8.85612 15.2285 8.56445C15.5202 8.27279 15.666 7.91862 15.666 7.50195C15.666 7.08529 15.5202 6.73112 15.2285 6.43945C14.9368 6.14779 14.5827 6.00195 14.166 6.00195C13.7493 6.00195 13.3952 6.14779 13.1035 6.43945C12.8118 6.73112 12.666 7.08529 12.666 7.50195C12.666 7.91862 12.8118 8.27279 13.1035 8.56445C13.3952 8.85612 13.7493 9.00195 14.166 9.00195ZM7.16602 9.00195C7.58268 9.00195 7.93685 8.85612 8.22852 8.56445C8.52018 8.27279 8.66602 7.91862 8.66602 7.50195C8.66602 7.08529 8.52018 6.73112 8.22852 6.43945C7.93685 6.14779 7.58268 6.00195 7.16602 6.00195C6.74935 6.00195 6.39518 6.14779 6.10352 6.43945C5.81185 6.73112 5.66602 7.08529 5.66602 7.50195C5.66602 7.91862 5.81185 8.27279 6.10352 8.56445C6.39518 8.85612 6.74935 9.00195 7.16602 9.00195ZM10.666 15.502C11.7993 15.502 12.8285 15.1811 13.7535 14.5395C14.6785 13.8978 15.3493 13.052 15.766 12.002H14.116C13.7493 12.6186 13.2618 13.1061 12.6535 13.4645C12.0452 13.8228 11.3827 14.002 10.666 14.002C9.94935 14.002 9.28685 13.8228 8.67852 13.4645C8.07018 13.1061 7.58268 12.6186 7.21602 12.002H5.56602C5.98268 13.052 6.65352 13.8978 7.57852 14.5395C8.50352 15.1811 9.53268 15.502 10.666 15.502ZM10.666 20.002C9.28268 20.002 7.98268 19.7395 6.76602 19.2145C5.54935 18.6895 4.49102 17.977 3.59102 17.077C2.69102 16.177 1.97852 15.1186 1.45352 13.902C0.928516 12.6853 0.666016 11.3853 0.666016 10.002C0.666016 8.61862 0.928516 7.31862 1.45352 6.10195C1.97852 4.88529 2.69102 3.82695 3.59102 2.92695C4.49102 2.02695 5.54935 1.31445 6.76602 0.789453C7.98268 0.264453 9.28268 0.00195312 10.666 0.00195312C12.0493 0.00195312 13.3493 0.264453 14.566 0.789453C15.7827 1.31445 16.841 2.02695 17.741 2.92695C18.641 3.82695 19.3535 4.88529 19.8785 6.10195C20.4035 7.31862 20.666 8.61862 20.666 10.002C20.666 11.3853 20.4035 12.6853 19.8785 13.902C19.3535 15.1186 18.641 16.177 17.741 17.077C16.841 17.977 15.7827 18.6895 14.566 19.2145C13.3493 19.7395 12.0493 20.002 10.666 20.002ZM10.666 18.002C12.8993 18.002 14.791 17.227 16.341 15.677C17.891 14.127 18.666 12.2353 18.666 10.002C18.666 7.76862 17.891 5.87695 16.341 4.32695C14.791 2.77695 12.8993 2.00195 10.666 2.00195C8.43268 2.00195 6.54102 2.77695 4.99102 4.32695C3.44102 5.87695 2.66602 7.76862 2.66602 10.002C2.66602 12.2353 3.44102 14.127 4.99102 15.677C6.54102 17.227 8.43268 18.002 10.666 18.002Z" fill="#ACC12D"/>
</svg>
