<svg width="21" height="20" viewBox="0 0 21 20" fill="none" xmlns="http://www.w3.org/2000/svg">
<path d="M13.834 9.00195C14.2507 9.00195 14.6048 8.85612 14.8965 8.56445C15.1882 8.27279 15.334 7.91862 15.334 7.50195C15.334 7.08529 15.1882 6.73112 14.8965 6.43945C14.6048 6.14779 14.2507 6.00195 13.834 6.00195C13.4173 6.00195 13.0632 6.14779 12.7715 6.43945C12.4798 6.73112 12.334 7.08529 12.334 7.50195C12.334 7.91862 12.4798 8.27279 12.7715 8.56445C13.0632 8.85612 13.4173 9.00195 13.834 9.00195ZM6.83398 9.00195C7.25065 9.00195 7.60482 8.85612 7.89648 8.56445C8.18815 8.27279 8.33398 7.91862 8.33398 7.50195C8.33398 7.08529 8.18815 6.73112 7.89648 6.43945C7.60482 6.14779 7.25065 6.00195 6.83398 6.00195C6.41732 6.00195 6.06315 6.14779 5.77148 6.43945C5.47982 6.73112 5.33398 7.08529 5.33398 7.50195C5.33398 7.91862 5.47982 8.27279 5.77148 8.56445C6.06315 8.85612 6.41732 9.00195 6.83398 9.00195ZM10.334 11.502C9.20065 11.502 8.17148 11.8228 7.24648 12.4645C6.32148 13.1061 5.65065 13.952 5.23398 15.002H6.88398C7.25065 14.3853 7.73815 13.8978 8.34648 13.5395C8.95482 13.1811 9.61732 13.002 10.334 13.002C11.0507 13.002 11.7132 13.1811 12.3215 13.5395C12.9298 13.8978 13.4173 14.3853 13.784 15.002H15.434C15.0173 13.952 14.3465 13.1061 13.4215 12.4645C12.4965 11.8228 11.4673 11.502 10.334 11.502ZM10.334 20.002C8.95065 20.002 7.65065 19.7395 6.43398 19.2145C5.21732 18.6895 4.15898 17.977 3.25898 17.077C2.35898 16.177 1.64648 15.1186 1.12148 13.902C0.596484 12.6853 0.333984 11.3853 0.333984 10.002C0.333984 8.61862 0.596484 7.31862 1.12148 6.10195C1.64648 4.88529 2.35898 3.82695 3.25898 2.92695C4.15898 2.02695 5.21732 1.31445 6.43398 0.789453C7.65065 0.264453 8.95065 0.00195312 10.334 0.00195312C11.7173 0.00195312 13.0173 0.264453 14.234 0.789453C15.4507 1.31445 16.509 2.02695 17.409 2.92695C18.309 3.82695 19.0215 4.88529 19.5465 6.10195C20.0715 7.31862 20.334 8.61862 20.334 10.002C20.334 11.3853 20.0715 12.6853 19.5465 13.902C19.0215 15.1186 18.309 16.177 17.409 17.077C16.509 17.977 15.4507 18.6895 14.234 19.2145C13.0173 19.7395 11.7173 20.002 10.334 20.002ZM10.334 18.002C12.5673 18.002 14.459 17.227 16.009 15.677C17.559 14.127 18.334 12.2353 18.334 10.002C18.334 7.76862 17.559 5.87695 16.009 4.32695C14.459 2.77695 12.5673 2.00195 10.334 2.00195C8.10065 2.00195 6.20898 2.77695 4.65898 4.32695C3.10898 5.87695 2.33398 7.76862 2.33398 10.002C2.33398 12.2353 3.10898 14.127 4.65898 15.677C6.20898 17.227 8.10065 18.002 10.334 18.002Z" fill="#E39B0E"/>
</svg>
