<svg width="21" height="20" viewBox="0 0 21 20" fill="none" xmlns="http://www.w3.org/2000/svg">
<path d="M13.666 9.00195C14.0827 9.00195 14.4368 8.85612 14.7285 8.56445C15.0202 8.27279 15.166 7.91862 15.166 7.50195C15.166 7.08529 15.0202 6.73112 14.7285 6.43945C14.4368 6.14779 14.0827 6.00195 13.666 6.00195C13.2493 6.00195 12.8952 6.14779 12.6035 6.43945C12.3118 6.73112 12.166 7.08529 12.166 7.50195C12.166 7.91862 12.3118 8.27279 12.6035 8.56445C12.8952 8.85612 13.2493 9.00195 13.666 9.00195ZM6.66602 9.00195C7.08268 9.00195 7.43685 8.85612 7.72852 8.56445C8.02018 8.27279 8.16602 7.91862 8.16602 7.50195C8.16602 7.08529 8.02018 6.73112 7.72852 6.43945C7.43685 6.14779 7.08268 6.00195 6.66602 6.00195C6.24935 6.00195 5.89518 6.14779 5.60352 6.43945C5.31185 6.73112 5.16602 7.08529 5.16602 7.50195C5.16602 7.91862 5.31185 8.27279 5.60352 8.56445C5.89518 8.85612 6.24935 9.00195 6.66602 9.00195ZM10.166 11.502C9.03268 11.502 8.00352 11.8228 7.07852 12.4645C6.15352 13.1061 5.48268 13.952 5.06602 15.002H15.266C14.8493 13.952 14.1785 13.1061 13.2535 12.4645C12.3285 11.8228 11.2993 11.502 10.166 11.502ZM10.166 20.002C8.78268 20.002 7.48268 19.7395 6.26602 19.2145C5.04935 18.6895 3.99102 17.977 3.09102 17.077C2.19102 16.177 1.47852 15.1186 0.953516 13.902C0.428516 12.6853 0.166016 11.3853 0.166016 10.002C0.166016 8.61862 0.428516 7.31862 0.953516 6.10195C1.47852 4.88529 2.19102 3.82695 3.09102 2.92695C3.99102 2.02695 5.04935 1.31445 6.26602 0.789453C7.48268 0.264453 8.78268 0.00195312 10.166 0.00195312C11.5493 0.00195312 12.8493 0.264453 14.066 0.789453C15.2827 1.31445 16.341 2.02695 17.241 2.92695C18.141 3.82695 18.8535 4.88529 19.3785 6.10195C19.9035 7.31862 20.166 8.61862 20.166 10.002C20.166 11.3853 19.9035 12.6853 19.3785 13.902C18.8535 15.1186 18.141 16.177 17.241 17.077C16.341 17.977 15.2827 18.6895 14.066 19.2145C12.8493 19.7395 11.5493 20.002 10.166 20.002ZM10.166 18.002C12.3993 18.002 14.291 17.227 15.841 15.677C17.391 14.127 18.166 12.2353 18.166 10.002C18.166 7.76862 17.391 5.87695 15.841 4.32695C14.291 2.77695 12.3993 2.00195 10.166 2.00195C7.93268 2.00195 6.04102 2.77695 4.49102 4.32695C2.94102 5.87695 2.16602 7.76862 2.16602 10.002C2.16602 12.2353 2.94102 14.127 4.49102 15.677C6.04102 17.227 7.93268 18.002 10.166 18.002Z" fill="#E26834"/>
</svg>
