<svg width="21" height="20" viewBox="0 0 21 20" fill="none" xmlns="http://www.w3.org/2000/svg">
<path d="M14 9.00195C14.4167 9.00195 14.7708 8.85612 15.0625 8.56445C15.3542 8.27279 15.5 7.91862 15.5 7.50195C15.5 7.08529 15.3542 6.73112 15.0625 6.43945C14.7708 6.14779 14.4167 6.00195 14 6.00195C13.5833 6.00195 13.2292 6.14779 12.9375 6.43945C12.6458 6.73112 12.5 7.08529 12.5 7.50195C12.5 7.91862 12.6458 8.27279 12.9375 8.56445C13.2292 8.85612 13.5833 9.00195 14 9.00195ZM7 9.00195C7.41667 9.00195 7.77083 8.85612 8.0625 8.56445C8.35417 8.27279 8.5 7.91862 8.5 7.50195C8.5 7.08529 8.35417 6.73112 8.0625 6.43945C7.77083 6.14779 7.41667 6.00195 7 6.00195C6.58333 6.00195 6.22917 6.14779 5.9375 6.43945C5.64583 6.73112 5.5 7.08529 5.5 7.50195C5.5 7.91862 5.64583 8.27279 5.9375 8.56445C6.22917 8.85612 6.58333 9.00195 7 9.00195ZM7.5 13.502H13.5V12.002H7.5V13.502ZM10.5 20.002C9.11667 20.002 7.81667 19.7395 6.6 19.2145C5.38333 18.6895 4.325 17.977 3.425 17.077C2.525 16.177 1.8125 15.1186 1.2875 13.902C0.7625 12.6853 0.5 11.3853 0.5 10.002C0.5 8.61862 0.7625 7.31862 1.2875 6.10195C1.8125 4.88529 2.525 3.82695 3.425 2.92695C4.325 2.02695 5.38333 1.31445 6.6 0.789453C7.81667 0.264453 9.11667 0.00195312 10.5 0.00195312C11.8833 0.00195312 13.1833 0.264453 14.4 0.789453C15.6167 1.31445 16.675 2.02695 17.575 2.92695C18.475 3.82695 19.1875 4.88529 19.7125 6.10195C20.2375 7.31862 20.5 8.61862 20.5 10.002C20.5 11.3853 20.2375 12.6853 19.7125 13.902C19.1875 15.1186 18.475 16.177 17.575 17.077C16.675 17.977 15.6167 18.6895 14.4 19.2145C13.1833 19.7395 11.8833 20.002 10.5 20.002ZM10.5 18.002C12.7333 18.002 14.625 17.227 16.175 15.677C17.725 14.127 18.5 12.2353 18.5 10.002C18.5 7.76862 17.725 5.87695 16.175 4.32695C14.625 2.77695 12.7333 2.00195 10.5 2.00195C8.26667 2.00195 6.375 2.77695 4.825 4.32695C3.275 5.87695 2.5 7.76862 2.5 10.002C2.5 12.2353 3.275 14.127 4.825 15.677C6.375 17.227 8.26667 18.002 10.5 18.002Z" fill="#D1BA1B"/>
</svg>
