<svg width="20" height="20" viewBox="0 0 20 20" fill="none" xmlns="http://www.w3.org/2000/svg">
<path d="M10 15.502C11.1333 15.502 12.1625 15.1811 13.0875 14.5395C14.0125 13.8978 14.6833 13.052 15.1 12.002H4.9C5.31667 13.052 5.9875 13.8978 6.9125 14.5395C7.8375 15.1811 8.86667 15.502 10 15.502ZM5.8 9.00195L6.9 7.95195L7.95 9.00195L9 7.95195L6.9 5.80195L4.75 7.95195L5.8 9.00195ZM12.05 9.00195L13.1 7.95195L14.2 9.00195L15.25 7.95195L13.1 5.80195L11 7.95195L12.05 9.00195ZM10 20.002C8.61667 20.002 7.31667 19.7395 6.1 19.2145C4.88333 18.6895 3.825 17.977 2.925 17.077C2.025 16.177 1.3125 15.1186 0.7875 13.902C0.2625 12.6853 0 11.3853 0 10.002C0 8.61862 0.2625 7.31862 0.7875 6.10195C1.3125 4.88529 2.025 3.82695 2.925 2.92695C3.825 2.02695 4.88333 1.31445 6.1 0.789453C7.31667 0.264453 8.61667 0.00195312 10 0.00195312C11.3833 0.00195312 12.6833 0.264453 13.9 0.789453C15.1167 1.31445 16.175 2.02695 17.075 2.92695C17.975 3.82695 18.6875 4.88529 19.2125 6.10195C19.7375 7.31862 20 8.61862 20 10.002C20 11.3853 19.7375 12.6853 19.2125 13.902C18.6875 15.1186 17.975 16.177 17.075 17.077C16.175 17.977 15.1167 18.6895 13.9 19.2145C12.6833 19.7395 11.3833 20.002 10 20.002ZM10 18.002C12.2333 18.002 14.125 17.227 15.675 15.677C17.225 14.127 18 12.2353 18 10.002C18 7.76862 17.225 5.87695 15.675 4.32695C14.125 2.77695 12.2333 2.00195 10 2.00195C7.76667 2.00195 5.875 2.77695 4.325 4.32695C2.775 5.87695 2 7.76862 2 10.002C2 12.2353 2.775 14.127 4.325 15.677C5.875 17.227 7.76667 18.002 10 18.002Z" fill="#0CA909"/>
</svg>
