<svg width="170" height="167" viewBox="0 0 170 167" fill="none" xmlns="http://www.w3.org/2000/svg">
<path d="M143.815 136.954C107.415 173.754 64.2788 161.058 47.3152 151.454C30.3517 141.849 28.8152 138.954 15.3152 123.454C1.81523 107.954 -15.8848 53.7538 27.3152 18.9538C70.5152 -15.8462 119.537 6.4536 133.315 21.9538C147.093 37.4539 148.315 38.9538 148.315 38.9538C161.982 56.2871 180.215 100.154 143.815 136.954Z" fill="#338AFF"/>
<path d="M52.0164 120.61C52.4164 124.21 53.0414 128.16 54.0414 132.435C55.3914 138.21 57.1164 143.26 58.8414 147.51C58.3664 147.935 56.9414 149.06 54.8414 149.21C53.5164 149.31 52.4664 148.985 51.8664 148.76C50.9664 145.635 50.0914 142.385 49.2914 139.01C47.6414 132.06 46.4414 125.435 45.5664 119.26C47.7414 119.71 49.8914 120.16 52.0164 120.61Z" fill="#191919"/>
<path d="M108.141 118.261C107.816 121.836 107.266 125.811 106.341 130.086C105.041 136.136 103.316 141.386 101.566 145.811C101.816 146.036 103.241 147.386 105.441 147.286C107.341 147.211 108.566 146.086 108.866 145.811C109.441 142.786 109.991 139.736 110.541 136.686C111.741 130.011 112.816 123.436 113.841 116.936C111.941 117.361 110.041 117.811 108.141 118.261Z" fill="#191919"/>
<path d="M63.4406 108.285C64.0156 112.11 64.6906 116.06 65.4656 120.11C66.5906 125.985 67.8656 131.585 69.2156 136.885C68.6406 137.235 67.4906 137.81 65.9156 137.91C64.5906 137.985 63.5406 137.685 62.9406 137.46C62.1906 133.91 61.4656 130.31 60.7406 126.71C59.4156 120.035 58.1906 113.46 57.0156 106.96C59.1656 107.385 61.2906 107.835 63.4406 108.285Z" fill="#191919"/>
<path d="M98.7156 107.535C98.0406 111.31 97.4406 115.26 96.9156 119.36C96.1906 125.01 95.6906 130.41 95.3906 135.56C95.8156 135.835 96.8156 136.41 98.2406 136.485C99.7656 136.535 100.891 135.935 101.316 135.685C101.066 132.735 100.966 129.46 101.116 125.96C101.416 118.185 102.841 111.485 104.416 106.21C102.516 106.635 100.616 107.085 98.7156 107.535Z" fill="#191919"/>
<path d="M143.141 23.8853C147.516 31.6853 144.141 40.3103 135.941 61.7353C131.991 72.0353 124.766 90.9603 114.566 117.935C104.541 121.585 87.9412 126.085 67.4162 124.66C55.4912 123.835 45.4912 121.26 37.9162 118.61C36.7912 116.585 32.8912 109.01 35.8162 101.66C37.4412 97.5853 40.7162 94.6603 47.6662 91.2103C54.5162 87.8103 66.5912 83.0353 84.1412 82.1603C77.2662 47.9353 89.0412 19.8853 107.366 13.4103C119.391 9.18531 137.116 13.1603 143.141 23.8853Z" fill="white" stroke="#191919"/>
<path d="M141.542 26.7102C134.292 35.8852 132.642 48.2102 129.867 59.2352C126.892 71.0352 123.467 82.8102 118.342 93.8852C115.517 99.9602 112.192 105.81 108.217 111.21C107.942 111.61 108.592 111.985 108.867 111.585C115.842 102.085 120.767 91.3102 124.567 80.2102C128.417 68.9102 130.967 57.2602 133.967 45.7352C135.667 39.1852 137.842 32.6352 142.092 27.2602C142.367 26.8602 141.842 26.3352 141.542 26.7102Z" fill="#191919"/>
<path d="M38.0662 113.185C54.7412 119.31 72.9162 121.11 90.4662 118.385C95.4912 117.61 100.466 116.46 105.341 114.96C105.791 114.81 105.616 114.085 105.141 114.235C88.1412 119.485 69.8912 120.285 52.4912 116.585C47.6662 115.56 42.8912 114.16 38.2662 112.46C37.8162 112.285 37.6162 113.01 38.0662 113.185Z" fill="#191919"/>
<path d="M96.7657 93.5354C100.966 94.9104 104.541 97.6854 106.941 101.435C107.191 101.835 107.841 101.46 107.591 101.06C105.091 97.1604 101.366 94.2604 96.9657 92.8104C96.4907 92.6604 96.2907 93.3854 96.7657 93.5354Z" fill="#191919"/>
<path d="M76.2301 106.179C65.0453 104.264 53.8606 102.35 42.6758 100.435C49.4695 97.6917 56.2632 94.9576 63.0569 92.2144C73.6802 94.5802 84.3034 96.946 94.9175 99.3119C88.6945 101.604 82.4623 103.887 76.2301 106.179Z" fill="white" stroke="#161616"/>
<path d="M75.7694 106.317C75.8062 106.428 75.8338 106.548 75.8706 106.658C75.9167 106.805 76.1376 106.778 76.1376 106.621C76.1376 106.529 76.1376 106.446 76.1376 106.354C76.1376 106.179 75.8614 106.179 75.8614 106.354C75.8614 106.465 75.843 106.566 75.797 106.667C75.889 106.667 75.9719 106.667 76.064 106.667C76.0271 106.548 76.0179 106.437 76.0455 106.308C75.9627 106.317 75.8798 106.327 75.797 106.345C75.8246 106.373 75.8246 106.391 75.8062 106.419C75.889 106.428 75.9719 106.437 76.0547 106.456C76.0363 106.391 76.0455 106.336 76.0824 106.281C75.9995 106.253 75.9075 106.235 75.8246 106.207C75.8062 106.354 75.7878 106.492 75.7694 106.64C75.7602 106.713 75.843 106.778 75.9075 106.778C75.9903 106.778 76.0363 106.713 76.0455 106.64C76.064 106.492 76.0824 106.354 76.1008 106.207C76.1192 106.069 75.9075 106.032 75.843 106.133C75.7694 106.253 75.751 106.391 75.7878 106.529C75.8154 106.649 75.9811 106.658 76.0363 106.566C76.11 106.456 76.11 106.317 76.0271 106.216C75.9627 106.133 75.797 106.124 75.7786 106.253C75.7418 106.419 75.751 106.594 75.797 106.759C75.843 106.897 76.0179 106.879 76.064 106.759C76.11 106.63 76.1376 106.502 76.1376 106.373C76.0455 106.373 75.9535 106.373 75.8614 106.373C75.8614 106.465 75.8614 106.548 75.8614 106.64C75.9535 106.63 76.0455 106.612 76.1284 106.603C76.0916 106.492 76.064 106.373 76.0271 106.262C75.9903 106.069 75.7233 106.143 75.7694 106.317Z" fill="#161616"/>
<path d="M75.9815 106.98C77.4636 106.216 79.0838 105.811 80.6763 105.36C81.4588 105.139 82.2321 104.9 82.9777 104.587C83.6958 104.292 84.3862 103.924 85.095 103.593C86.6692 102.856 88.3722 102.378 90.02 101.834C91.7322 101.264 93.4353 100.693 95.1475 100.131C95.3132 100.076 95.2396 99.8092 95.0739 99.8644C93.3616 100.435 91.6586 101.006 89.9464 101.567C88.3262 102.101 86.66 102.58 85.1042 103.289C84.2941 103.657 83.5025 104.09 82.6739 104.412C81.9191 104.707 81.1458 104.937 80.3633 105.158C78.826 105.599 77.2703 106.005 75.8342 106.741C75.6869 106.824 75.825 107.063 75.9815 106.98Z" fill="#161616"/>
<path d="M76.1092 106.925C82.4703 104.725 88.8129 102.497 95.1556 100.232C95.6527 100.058 95.4409 99.2566 94.9346 99.4316C88.6012 101.696 82.2493 103.924 75.8883 106.124C75.3912 106.299 75.6029 107.1 76.1092 106.925Z" fill="#161616"/>
<path d="M75.3909 98.0323C76.5877 98.1519 77.6095 98.8792 78.7878 99.1093C78.9627 99.1461 79.0364 98.8792 78.8614 98.8423C77.6647 98.603 76.6245 97.8758 75.3909 97.7561C75.216 97.7469 75.216 98.023 75.3909 98.0323Z" fill="#161616"/>
<path d="M78.871 98.9807C79.5982 98.5848 80.2794 98.1153 80.8962 97.563C81.0251 97.4433 80.8318 97.25 80.7029 97.3697C80.0953 97.9036 79.4417 98.3639 78.7329 98.7413C78.5764 98.8334 78.7145 99.0727 78.871 98.9807Z" fill="#161616"/>
<path d="M75.6776 97.5077C76.2576 97.0934 76.8559 96.6976 77.4727 96.3294C77.6292 96.2373 77.4819 95.998 77.3346 96.09C76.7178 96.4583 76.1195 96.8449 75.5395 97.2684C75.3922 97.3788 75.5303 97.6182 75.6776 97.5077Z" fill="#161616"/>
<path d="M77.5172 96.3755C78.5667 96.7714 79.6161 97.158 80.6747 97.5538C80.8404 97.6183 80.9141 97.3513 80.7484 97.2869C79.699 96.891 78.6495 96.5044 77.5909 96.1086C77.4252 96.0533 77.3515 96.3203 77.5172 96.3755Z" fill="#161616"/>
<path d="M74.5629 99.0816C77.3338 99.9377 80.0678 100.923 82.7467 102.037C82.9124 102.101 82.986 101.834 82.8203 101.77C80.1415 100.656 77.4074 99.6707 74.6365 98.8146C74.4616 98.7594 74.388 99.0263 74.5629 99.0816Z" fill="#161616"/>
<path d="M74.8306 101.227C76.552 102.055 78.2919 102.838 80.0501 103.602C80.2158 103.676 80.3539 103.436 80.1882 103.363C78.4299 102.608 76.6901 101.816 74.9686 100.988C74.8121 100.914 74.6741 101.153 74.8306 101.227Z" fill="#161616"/>
<path d="M75.0786 103.592C76.0176 104.071 76.9565 104.559 77.8955 105.038C78.052 105.121 78.1901 104.881 78.0336 104.798C77.0946 104.32 76.1557 103.832 75.2167 103.353C75.0602 103.27 74.9221 103.51 75.0786 103.592Z" fill="#161616"/>
<path d="M75.6119 103.676C76.9099 102.571 78.2723 101.558 79.69 100.619C79.8373 100.518 79.6992 100.279 79.5519 100.38C78.1158 101.328 76.735 102.368 75.4186 103.482C75.2805 103.602 75.4738 103.795 75.6119 103.676Z" fill="#161616"/>
<path d="M75.2715 101.788C76.0079 101.273 76.7443 100.757 77.4808 100.233C77.6281 100.131 77.49 99.892 77.3427 99.9932C76.6063 100.509 75.8698 101.024 75.1334 101.549C74.9953 101.65 75.1334 101.89 75.2715 101.788Z" fill="#161616"/>
<path d="M75.7322 106.814C64.1608 104.844 52.5894 102.874 41.018 100.904C39.9317 92.6839 38.8363 84.4725 37.75 76.252C50.2052 77.9274 62.6511 79.6028 75.1063 81.2874C75.318 89.7934 75.5297 98.2993 75.7322 106.814Z" fill="white" stroke="#161616"/>
<path d="M55.1127 92.5917C54.1093 92.2787 53.5662 91.4318 53.4833 90.41C53.4005 89.3697 53.603 88.3663 54.5696 87.8232C55.4257 87.3445 56.4475 87.4826 57.2116 88.0625C57.9756 88.6425 58.6568 89.83 58.0401 90.7414C57.9388 90.8886 58.1782 91.0267 58.2794 90.8794C58.9422 89.9036 58.3162 88.6149 57.5061 87.9429C56.6684 87.2524 55.5362 87.0407 54.5512 87.5286C53.4097 88.0901 53.1151 89.2316 53.2071 90.4192C53.2992 91.5699 53.9068 92.518 55.0391 92.8678C55.2048 92.9139 55.2784 92.6469 55.1127 92.5917Z" fill="#161616"/>
<path d="M55.3686 92.6931C54.9451 91.9935 55.0832 91.0177 55.7644 90.5298C56.4456 90.0419 57.4214 90.2445 57.937 90.8704C58.0474 91.0085 58.2407 90.8152 58.1303 90.6771C57.5227 89.9499 56.3812 89.7474 55.5895 90.3089C54.7978 90.8796 54.6321 92.0211 55.1292 92.8312C55.2213 92.9785 55.4606 92.8404 55.3686 92.6931Z" fill="#161616"/>
<path d="M56.3186 93.0801C55.886 92.6198 55.9504 91.7637 56.5304 91.4323C57.1011 91.1009 57.8744 91.4783 58.0585 92.0859C58.1137 92.2516 58.3807 92.1871 58.3255 92.0122C58.0861 91.239 57.1195 90.7787 56.3923 91.2021C55.6651 91.6256 55.573 92.6934 56.1253 93.2826C56.245 93.4023 56.4383 93.2089 56.3186 93.0801Z" fill="#161616"/>
<path d="M57.0256 93.7243C57.3846 93.8532 57.7989 93.6414 57.937 93.3008C58.0843 92.9602 57.8909 92.592 57.5687 92.4447C57.2465 92.2974 56.8599 92.3803 56.685 92.6933C56.5193 92.9971 56.5745 93.4113 56.8507 93.6322C56.9888 93.7427 57.1821 93.5494 57.044 93.4389C56.6758 93.1536 56.9336 92.4815 57.4214 92.6841C57.6332 92.7669 57.7805 92.9879 57.6792 93.218C57.5779 93.4389 57.3202 93.5494 57.0993 93.4665C56.9336 93.4021 56.8599 93.6691 57.0256 93.7243Z" fill="#161616"/>
<path d="M75.1055 81.2783L75.9156 106.64" stroke="#161616"/>
<path d="M75.1621 81.2598C75.4107 89.6 75.6592 97.9403 75.9078 106.281" stroke="#161616"/>
<path opacity="0.37" d="M59.2267 79.5659C59.8251 79.8789 64.9618 82.6774 65.3208 87.6484C65.5234 90.3917 64.1794 92.4721 63.3324 93.7425C58.7665 100.61 49.7358 101.825 47.2871 102.083L75.5298 107.054C75.1984 98.5478 74.867 90.0511 74.5356 81.5451C69.4265 80.9007 64.3266 80.2379 59.2267 79.5659Z" fill="#3D3D3D"/>
</svg>
