<svg width="493" height="325" viewBox="0 0 493 325" fill="none" xmlns="http://www.w3.org/2000/svg">
<path d="M37.5972 290.283C33.0369 286.555 28.2769 282.993 24.0495 278.899C22.0856 277.002 20.2549 274.938 18.8568 272.575C18.1245 271.376 17.5254 270.078 17.0926 268.747C16.7265 267.648 16.3603 265.951 17.9581 265.784C18.5572 265.718 19.1897 265.851 19.7556 266.017C20.388 266.184 20.6543 265.218 20.0218 265.052C18.1245 264.586 15.395 264.719 15.6946 267.382C16.0607 270.378 18.0246 273.44 19.8221 275.737C24.4823 281.729 31.073 286.222 36.8982 290.982C37.3975 291.382 38.0965 290.683 37.5972 290.283Z" fill="#DEDEDE"/>
<path d="M20.1886 265.218C18.258 262.922 16.7601 260.259 15.8947 257.363C15.4952 256.065 15.3288 254.733 14.9294 253.468C14.6631 252.669 14.1638 251.937 14.8961 251.238C15.2289 250.939 15.7282 250.739 16.0944 250.473C17.2261 249.707 17.8586 248.808 16.4605 247.843C15.6617 247.31 14.6631 247.21 13.7976 246.778C12.6326 246.145 11.7338 245.113 11.0681 244.015C9.67008 241.751 8.90449 239.088 8.07232 236.592C7.07372 233.629 6.10841 230.6 5.24296 227.605C3.51206 221.546 2.08073 215.422 0.915703 209.264C0.815843 209.463 0.682697 209.663 0.582837 209.863C6.84072 207.799 13.0653 213.092 17.5257 216.853C22.1193 220.714 26.2468 225.141 29.875 229.935C37.3645 239.921 42.5905 251.438 45.8526 263.454C47.8498 270.811 49.1147 278.367 49.8137 285.956C49.8803 286.588 50.8789 286.588 50.8123 285.956C48.3824 259.759 38.7293 233.23 18.0583 215.954C13.3316 212.026 6.94058 206.734 0.349831 208.898C0.0835383 208.997 -0.0496081 209.23 0.0169651 209.497C1.24857 216.087 2.81304 222.612 4.71038 229.069C5.60911 232.098 6.54114 235.094 7.57302 238.057C8.40519 240.453 9.17078 243.016 10.6354 245.113C11.2013 245.912 11.8337 246.645 12.6326 247.21C13.5979 247.909 14.7296 247.976 15.695 248.575C16.9598 249.341 15.1291 249.94 14.4633 250.406C13.964 250.772 13.498 251.205 13.3982 251.871C13.265 252.869 14.1305 254.034 14.3635 254.966C14.6964 256.398 14.9959 257.796 15.5285 259.194C16.4938 261.657 17.8586 263.92 19.5562 265.951C19.8891 266.417 20.5881 265.718 20.1886 265.218Z" fill="#DEDEDE"/>
<path d="M5.94244 214.623C19.8562 230.334 30.6744 248.675 37.7311 268.447C39.6951 273.94 41.3261 279.532 42.6908 285.19C42.8573 285.823 43.7893 285.557 43.6562 284.924C38.7297 264.42 29.8755 244.88 17.626 227.671C14.2308 222.878 10.5693 218.284 6.67475 213.891C6.20874 213.458 5.50972 214.157 5.94244 214.623Z" fill="#DEDEDE"/>
<path d="M8.20297 236.525C9.80072 236.925 11.3652 237.457 12.8964 238.09C13.4955 238.323 13.7618 237.358 13.1627 237.125C11.6315 236.492 10.067 235.96 8.46926 235.56C7.8701 235.394 7.60381 236.359 8.20297 236.525Z" fill="#DEDEDE"/>
<path d="M19.9219 258.628C22.0856 258.561 23.883 259.693 25.6472 260.758C27.245 261.723 28.8095 262.689 30.3406 263.754C33.5029 265.951 36.3655 268.547 38.2629 271.942C38.5624 272.508 39.4279 272.009 39.1283 271.443C37.1311 267.915 34.1353 265.185 30.8399 262.922C29.109 261.723 27.2783 260.592 25.4475 259.527C23.7166 258.495 21.9524 257.629 19.8887 257.662C19.2895 257.629 19.2895 258.628 19.9219 258.628Z" fill="#DEDEDE"/>
<path d="M33.1676 252.636C32.2688 247.244 32.3021 241.785 33.2674 236.426C33.3673 235.793 32.402 235.527 32.3021 236.159C31.3035 241.718 31.2702 247.344 32.2023 252.902C32.3021 253.535 33.2674 253.269 33.1676 252.636Z" fill="#DEDEDE"/>
<path d="M31.4714 229.835C32.1704 223.244 33.5685 216.653 35.8985 210.462C37.8624 205.236 40.7917 200.11 45.8179 197.314C45.5517 197.181 45.3186 197.014 45.0524 196.881C45.5849 206.135 51.0107 214.356 51.2437 223.643C51.3768 223.477 51.4767 223.311 51.6098 223.177C50.3449 223.51 49.08 223.843 47.8151 224.176C47.449 224.276 47.3158 224.742 47.5821 225.008C49.1133 226.473 49.4129 228.537 49.4795 230.567C49.5128 231.632 50.0786 236.792 48.847 237.125C48.5474 237.224 48.381 237.591 48.5474 237.857C52.2423 243.782 50.5446 250.805 49.5128 257.196C48.4476 263.787 48.3144 270.444 49.08 277.035C49.1466 277.668 50.1452 277.668 50.0786 277.035C49.2132 269.612 49.6459 262.322 50.9108 254.999C51.9427 249.074 52.7748 242.717 49.4462 237.324C49.3463 237.557 49.2465 237.824 49.1466 238.057C50.0453 237.824 50.3449 237.125 50.4781 236.259C50.7111 234.661 50.5446 232.897 50.5114 231.299C50.4781 228.77 50.2118 226.14 48.2812 224.309C48.2146 224.575 48.148 224.875 48.0481 225.141C49.313 224.808 50.5779 224.476 51.8428 224.143C52.0425 224.076 52.209 223.876 52.209 223.677C51.976 214.356 46.5835 206.168 46.0177 196.914C45.9844 196.548 45.6182 196.282 45.2521 196.482C40.2924 199.244 37.2966 204.138 35.2328 209.297C32.6032 215.854 31.1386 222.878 30.4062 229.901C30.4062 230.467 31.4048 230.467 31.4714 229.835Z" fill="#DEDEDE"/>
<path d="M43.5546 201.874C39.993 215.355 38.1622 229.269 38.1289 243.216C38.1289 243.848 39.1275 243.848 39.1275 243.216C39.1608 229.335 40.9583 215.555 44.4866 202.14C44.6864 201.508 43.7211 201.242 43.5546 201.874Z" fill="#DEDEDE"/>
<path d="M434.375 181.935C436.505 188.792 438.103 195.783 439.101 202.906C439.601 206.501 439.967 210.162 440.133 213.791C440.2 214.723 440.233 215.688 440.266 216.62C440.3 217.186 440.133 218.118 440.333 218.65C440.533 219.15 441.232 219.483 441.631 219.816C442.33 220.381 443.029 220.947 443.695 221.513C443.728 221.247 443.761 220.981 443.795 220.714C442.863 221.28 441.964 221.546 440.866 221.58C440.633 221.58 440.466 221.746 440.4 221.946C439.434 224.942 440.133 228.104 442.297 230.434C442.43 230.134 442.53 229.868 442.663 229.568C439.201 229.435 439.135 233.43 439.468 235.893C439.934 239.321 440.599 242.75 441.565 246.079C443.495 252.603 446.724 258.794 452.017 263.255C452.516 263.654 453.215 262.955 452.716 262.556C448.255 258.794 445.259 253.735 443.329 248.242C442.43 245.646 441.731 242.983 441.198 240.32C440.766 238.09 438.602 230.434 442.663 230.567C443.129 230.6 443.295 230.034 443.029 229.702C441.132 227.638 440.533 224.842 441.398 222.212C441.232 222.345 441.065 222.445 440.932 222.578C442.197 222.578 443.262 222.279 444.361 221.58C444.594 221.413 444.727 221.014 444.461 220.781C443.229 219.782 441.531 218.917 441.332 217.252C441.132 215.488 441.198 213.657 441.065 211.893C440.832 208.598 440.499 205.303 440 202.007C439.002 195.117 437.437 188.326 435.373 181.669C435.14 181.037 434.175 181.303 434.375 181.935Z" fill="#DEDEDE"/>
<path d="M436.006 183.433C434.641 181.636 437.204 180.304 438.702 180.671C440.2 181.07 441.432 182.268 442.463 183.333C444.361 185.264 445.859 187.528 447.157 189.891C449.853 194.751 452.117 199.943 454.114 205.103C458.208 215.721 461.037 226.839 462.535 238.09C463.367 244.481 463.8 250.905 463.8 257.33C463.8 257.962 464.799 257.962 464.799 257.33C464.799 243.948 462.968 230.6 459.373 217.752C457.609 211.494 455.445 205.369 452.882 199.378C450.519 193.852 447.989 187.927 443.928 183.4C442.297 181.569 439.534 178.74 436.805 179.705C435.14 180.271 434.042 182.401 435.174 183.933C435.54 184.432 436.405 183.966 436.006 183.433Z" fill="#DEDEDE"/>
<path d="M459.97 220.015C461.668 214.323 463.632 208.764 465.862 203.272C467.027 200.443 468.259 197.613 469.59 194.851C470.223 193.552 470.855 192.221 471.521 190.923C471.953 190.091 473.252 186.429 474.616 186.762C475.016 186.862 475.282 186.529 475.216 186.163C474.883 184.099 477.213 182.335 478.444 180.97C479.543 179.772 480.608 178.573 481.706 177.375C483.97 174.912 486.2 172.449 488.464 169.952C488.197 169.886 487.898 169.819 487.631 169.719C491.06 178.207 490.161 187.494 488.164 196.215C487.132 200.676 485.834 205.103 484.735 209.563C483.97 212.659 483.138 217.352 479.343 218.018C479.077 218.051 478.944 218.384 479.01 218.617C479.975 222.578 477.313 226.24 475.548 229.568C473.884 232.697 472.353 235.926 470.955 239.222C468.225 245.646 466.062 252.27 464.431 259.027C464.264 259.66 465.23 259.926 465.396 259.293C467.193 251.804 469.657 244.514 472.819 237.491C474.317 234.162 475.981 230.9 477.745 227.704C479.343 224.808 480.808 221.746 480.009 218.384C479.909 218.584 479.776 218.784 479.676 218.983C482.905 218.417 484.303 215.155 485.135 212.293C486.5 207.499 487.731 202.573 488.896 197.713C491.126 188.46 492.325 178.507 488.663 169.453C488.53 169.12 488.097 168.92 487.831 169.22C485.002 172.316 482.172 175.444 479.343 178.54C478.012 180.005 476.58 181.403 475.349 182.967C474.55 184.032 474.117 185.031 474.317 186.362C474.516 186.163 474.716 185.963 474.916 185.763C472.519 185.164 471.354 189.092 470.555 190.656C468.958 193.819 467.46 197.014 466.095 200.243C463.365 206.567 461.035 213.092 459.072 219.682C458.805 220.348 459.771 220.614 459.97 220.015Z" fill="#DEDEDE"/>
<path d="M486.001 178.573C475.616 197.946 465.031 217.918 462.534 240.054C462.468 240.686 463.466 240.686 463.533 240.054C466.03 218.085 476.581 198.246 486.867 179.073C487.2 178.507 486.334 178.008 486.001 178.573Z" fill="#DEDEDE"/>
<path d="M442.696 191.888C450.785 213.291 455.611 235.86 457.043 258.694C457.076 259.327 458.075 259.327 458.041 258.694C456.61 235.76 451.783 213.125 443.661 191.622C443.428 191.056 442.463 191.289 442.696 191.888Z" fill="#DEDEDE"/>
<path d="M22.0869 181.17C42.3917 177.542 63.3623 177.741 83.6005 181.769C93.6198 183.766 103.439 186.662 112.893 190.457C122.779 194.418 132.266 199.178 141.952 203.572C178.501 220.149 217.612 231 257.456 235.727C280.058 238.423 302.893 239.122 325.594 237.857C326.227 237.824 326.227 236.825 325.594 236.858C284.851 239.155 243.809 234.994 204.331 224.642C184.526 219.449 165.119 212.692 146.379 204.471C136.659 200.21 127.173 195.417 117.42 191.256C108.099 187.295 98.4797 184.099 88.6268 181.836C66.7575 176.843 43.9229 176.277 21.8206 180.238C21.1882 180.304 21.4545 181.27 22.0869 181.17Z" fill="#DEDEDE"/>
<path d="M203.166 223.91C222.106 224.875 240.38 218.052 258.189 212.593C276.829 206.901 295.536 201.375 314.277 195.983C332.917 190.623 351.558 184.998 370.498 180.704C389.371 176.443 408.611 174.413 427.95 173.847C449.487 173.181 471.023 174.147 492.526 175.145C493.159 175.178 493.159 174.18 492.526 174.147C454.546 172.416 416.067 170.718 378.52 178.008C359.48 181.703 340.839 187.361 322.199 192.654C303.459 198.013 284.752 203.505 266.078 209.131C255.726 212.26 245.407 215.655 234.988 218.518C224.603 221.38 213.951 223.444 203.133 222.911C202.534 222.878 202.534 223.877 203.166 223.91Z" fill="#DEDEDE"/>
<path d="M122.344 189.758C135.492 193.552 149.14 190.923 162.255 188.393C176.302 185.697 190.482 183.866 204.795 183.3C233.155 182.235 261.349 186.296 289.609 187.428C305.254 188.06 320.965 187.694 336.41 185.131C337.043 185.031 336.777 184.066 336.144 184.166C308.35 188.792 280.123 186.03 252.229 183.933C238.281 182.867 224.301 181.969 210.287 182.202C196.407 182.435 182.526 183.766 168.812 186.196C153.634 188.859 137.856 193.253 122.577 188.826C121.978 188.626 121.712 189.591 122.344 189.758Z" fill="#DEDEDE"/>
<path d="M181.262 253.901C185.523 252.137 190.116 251.238 194.743 251.371C199.037 251.504 202.899 252.903 207.059 253.768C210.155 254.434 213.251 254.434 215.747 252.237C216.712 251.405 217.545 250.539 218.943 250.972C219.975 251.271 220.84 251.971 221.805 252.403C222.937 252.936 224.102 253.136 225.3 252.903C228.163 252.337 230.327 249.973 232.823 248.609C237.051 246.345 241.112 249.374 245.239 250.473C253.827 252.769 263.014 252.07 271.802 251.971C282.62 251.871 293.471 251.937 304.223 250.606C304.855 250.539 304.855 249.541 304.223 249.607C294.57 250.772 284.817 250.839 275.097 250.939C265.843 251.038 256.057 251.904 246.937 249.84C244.806 249.374 242.809 248.675 240.779 247.843C239.014 247.111 237.184 246.412 235.253 246.678C232.224 247.077 229.961 249.474 227.397 250.939C226.066 251.704 224.601 252.237 223.07 251.804C221.406 251.305 220.041 249.84 218.21 249.774C216.479 249.74 215.647 251.138 214.382 252.037C212.618 253.269 210.388 253.302 208.324 252.969C203.93 252.27 199.836 250.572 195.342 250.373C190.449 250.14 185.556 251.038 180.996 252.936C180.397 253.169 180.663 254.134 181.262 253.901Z" fill="#DEDEDE"/>
<path d="M202.497 224.209C203.096 224.309 203.662 224.442 204.261 224.542C204.893 224.675 205.126 223.81 204.527 223.577C204.161 223.444 203.795 223.311 203.395 223.177C202.863 222.978 202.497 223.843 202.996 224.076C206.058 225.674 209.254 226.939 212.582 227.838C213.215 228.004 213.481 227.039 212.849 226.872C209.587 226.007 206.491 224.775 203.495 223.211C203.362 223.51 203.229 223.81 203.096 224.11C203.462 224.243 203.828 224.376 204.227 224.509C204.327 224.176 204.394 223.877 204.494 223.544C203.895 223.444 203.329 223.311 202.73 223.211C202.13 223.111 201.864 224.076 202.497 224.209Z" fill="#DEDEDE"/>
<path d="M157.762 270.345C157.03 269.479 156.364 268.58 155.798 267.582C155.532 267.083 155.199 266.55 155.032 265.984C154.799 265.618 154.766 265.185 154.899 264.752C154.799 264.286 154.933 263.92 155.265 263.654C155.765 262.289 155.166 260.858 154.833 259.46C154.333 257.263 153.834 255.066 153.335 252.869C153.069 251.704 152.802 250.572 152.569 249.407C152.436 248.875 152.336 248.375 152.203 247.843C152.003 246.911 151.804 246.478 152.503 245.713C152.836 245.013 153.335 244.88 154.001 245.413C154.3 245.713 154.6 246.012 154.899 246.312C155.232 246.744 155.465 247.244 155.732 247.71C156.198 248.575 156.664 249.441 157.096 250.306C158.128 252.37 159.027 254.5 159.792 256.664C161.257 260.725 162.256 264.919 162.855 269.213C163.021 269.013 163.188 268.78 163.321 268.58C163.387 268.647 163.421 268.747 163.487 268.813C163.654 268.181 162.688 267.915 162.522 268.547C162.389 269.146 162.688 269.579 163.321 269.579C163.687 269.579 163.853 269.279 163.787 268.947C163.021 263.454 161.59 258.095 159.393 253.002C158.361 250.606 157.263 247.943 155.732 245.812C154.899 244.647 153.401 243.582 151.97 244.414C150.339 245.346 151.105 247.643 151.438 249.074C152.103 252.004 152.769 254.933 153.401 257.862C153.701 259.26 154.333 260.825 154.4 262.256C154.433 263.421 153.468 263.954 153.634 265.119C153.967 267.282 155.598 269.479 156.963 271.077C157.462 271.51 158.161 270.811 157.762 270.345Z" fill="#DEDEDE"/>
<path d="M160.823 256.031C160.324 253.036 160.39 249.973 161.089 247.011C161.256 246.245 161.489 245.513 161.755 244.781C162.221 243.516 162.887 243.649 163.553 244.581C164.418 245.812 165.084 247.177 165.583 248.575C167.614 254.367 166.715 260.592 165.849 266.483C165.75 267.116 166.715 267.382 166.815 266.75C167.913 259.327 169.045 250.905 164.551 244.281C164.052 243.549 163.386 242.317 162.354 242.484C161.256 242.684 160.89 244.181 160.59 245.047C159.392 248.675 159.192 252.536 159.825 256.264C159.991 256.93 160.956 256.664 160.823 256.031Z" fill="#DEDEDE"/>
<path d="M162.623 248.375C163.621 253.568 163.987 258.794 163.821 264.053C163.788 264.686 164.786 264.686 164.82 264.053C165.019 258.694 164.587 253.368 163.588 248.109C163.455 247.477 162.523 247.743 162.623 248.375Z" fill="#DEDEDE"/>
<path d="M40.1938 177.409C39.2285 175.278 37.0649 173.78 35.7001 171.916C34.2022 169.853 32.9373 167.622 31.7057 165.425C31.6059 165.658 31.506 165.925 31.4061 166.158C38.0967 164.959 41.958 171.55 43.2562 177.109C43.3893 177.741 44.3546 177.475 44.2215 176.843C42.7902 170.685 38.3963 163.928 31.1398 165.192C30.807 165.259 30.7071 165.658 30.8403 165.925C32.0719 168.155 33.3035 170.385 34.8347 172.416C36.1994 174.28 38.3963 175.844 39.3283 177.908C39.5946 178.507 40.4601 178.008 40.1938 177.409Z" fill="#DEDEDE"/>
<path d="M43.0897 172.049C43.589 166.823 48.582 163.561 50.5126 158.934C50.2796 159.034 50.0133 159.134 49.7803 159.234C52.0105 160.665 50.3462 165.858 49.7137 167.855C48.7817 170.784 47.2505 173.447 45.2866 175.777C44.8871 176.277 45.5862 176.976 45.9856 176.476C48.4488 173.58 50.213 170.218 51.1117 166.524C51.6776 164.194 52.7428 159.966 50.2796 158.368C49.98 158.169 49.6471 158.402 49.5473 158.668C47.5501 163.461 42.6237 166.59 42.0911 172.049C42.0245 172.682 43.0231 172.682 43.0897 172.049Z" fill="#DEDEDE"/>
<path d="M338.677 187.161C338.377 186.396 338.078 185.63 337.778 184.865C337.612 184.498 337.478 184.099 337.312 183.733C337.112 183.467 337.112 183.167 337.279 182.867C337.578 183.134 338.177 182.967 338.144 182.501C337.978 180.837 337.811 179.139 337.645 177.475C337.612 177.075 337.212 175.511 337.445 175.211C338.477 173.78 339.176 176.143 339.276 176.51C340.175 179.572 340.141 183.1 340.108 186.263C340.108 186.895 341.107 186.895 341.107 186.263C341.14 183.666 341.007 181.103 340.641 178.54C340.408 176.909 340.141 174.546 338.544 173.58C337.512 172.948 336.646 173.614 336.446 174.712C336.247 175.777 336.58 177.042 336.679 178.074C336.813 179.539 336.979 181.003 337.112 182.468C337.412 182.335 337.678 182.235 337.978 182.102C337.412 181.569 336.546 181.669 336.213 182.401C335.98 182.901 336.18 183.433 336.347 183.933C336.746 185.098 337.279 186.229 337.711 187.394C337.944 188.027 338.91 187.76 338.677 187.161Z" fill="#DEDEDE"/>
<path d="M340.905 181.736C340.771 177.076 341.737 172.515 343.767 168.288C343.501 168.321 343.235 168.354 342.968 168.388C345.132 170.185 343.701 175.045 343.335 177.375C342.835 180.504 342.203 183.633 341.404 186.695C341.238 187.328 342.203 187.594 342.369 186.962C343.335 183.234 344.067 179.439 344.599 175.611C344.932 173.148 345.898 169.519 343.667 167.655C343.434 167.456 343.035 167.456 342.869 167.755C340.771 172.116 339.74 176.843 339.873 181.702C339.939 182.368 340.938 182.368 340.905 181.736Z" fill="#DEDEDE"/>
<path d="M166.218 283.626C168.315 281.496 171.577 284.358 174.007 284.225C175.172 284.159 176.237 283.726 177.302 283.36C178.733 282.894 180.098 282.727 181.596 282.86C187.521 283.36 193.28 283.792 199.238 283.393C199.87 283.36 199.87 282.361 199.238 282.394C196.009 282.594 192.814 282.661 189.585 282.528C186.323 282.394 182.928 281.595 179.699 281.828C178.401 281.928 177.202 282.361 175.971 282.761C174.173 283.326 172.808 283.227 171.078 282.594C169.18 281.895 167.05 281.329 165.485 282.927C165.053 283.393 165.752 284.092 166.218 283.626Z" fill="#DEDEDE"/>
<path d="M103.337 291.715C105.667 289.185 109.761 289.018 112.225 291.415C112.258 291.149 112.291 290.883 112.325 290.616C110.594 291.448 108.829 291.815 106.932 291.715C106.3 291.681 106.3 292.68 106.932 292.713C109.029 292.813 110.96 292.414 112.857 291.482C113.157 291.349 113.19 290.916 112.957 290.683C110.094 287.92 105.334 288.053 102.638 290.982C102.205 291.482 102.904 292.181 103.337 291.715Z" fill="#DEDEDE"/>
<path d="M10.5675 300.702C8.86986 300.569 7.17225 301.068 5.87407 302.233C5.07519 302.966 3.94345 304.33 4.97533 305.296C6.14036 306.361 8.93644 305.662 10.3012 305.529C12.7977 305.262 15.2276 304.796 17.6575 304.164C18.29 303.997 18.0237 303.032 17.3912 303.199C14.462 303.964 11.4995 304.463 8.47042 304.663C7.87127 304.696 7.23882 304.763 6.63966 304.763C5.14176 304.696 5.84078 303.565 6.57309 302.932C7.67155 301.934 9.10287 301.567 10.5675 301.701C11.2332 301.734 11.1999 300.735 10.5675 300.702Z" fill="#DEDEDE"/>
<path d="M58.1378 273.241C58.2044 272.974 58.4041 272.808 58.6704 272.808C58.9034 272.775 59.1364 272.741 59.3361 272.708C59.8687 272.641 60.368 272.675 60.9006 272.741C61.9325 272.874 62.8645 273.241 63.7632 273.806C63.7965 273.507 63.8298 273.207 63.8964 272.908C62.6648 273.34 61.4332 273.44 60.135 273.241C59.5026 273.141 59.2363 274.106 59.8687 274.206C61.3333 274.439 62.7314 274.339 64.1627 273.873C64.5621 273.74 64.662 273.207 64.2958 272.974C62.5649 271.876 60.3014 271.343 58.271 271.909C57.1725 272.209 56.307 273.906 57.8715 274.239C58.504 274.339 58.7703 273.374 58.1378 273.241Z" fill="#DEDEDE"/>
<path d="M85.6967 44.3286C77.7745 41.5325 72.1158 33.8433 71.2503 25.5217C70.3516 16.9337 75.1781 8.74523 82.4346 4.3514C90.257 -0.375298 101.375 -0.408585 107.799 6.74803C111.094 10.3763 113.125 15.336 114.323 20.0294C115.555 24.8559 115.754 30.2151 112.992 34.5756C110.196 38.9362 105.203 41.3661 100.509 43.1969C95.5495 45.1608 89.5912 46.692 84.7314 43.6296C84.1988 43.2967 83.6995 44.1622 84.2321 44.495C88.5926 47.2245 93.8519 46.5255 98.512 44.9943C103.072 43.4964 107.899 41.3994 111.427 38.0042C119.316 30.4481 116.087 17.9656 111.161 9.67725C108.565 5.28342 104.67 2.05462 99.7104 0.723159C94.9837 -0.541731 89.9241 -0.109006 85.4304 1.72176C77.1753 5.11699 70.7177 13.0392 70.1851 22.0932C69.586 32.0791 76.0103 41.9653 85.4304 45.2939C86.0296 45.5269 86.2959 44.5616 85.6967 44.3286Z" fill="#DEDEDE"/>
<path d="M335.978 237.557C358.68 236.126 381.248 233.064 403.483 228.37C409.908 227.005 416.299 225.507 422.656 223.876C423.289 223.71 423.023 222.745 422.39 222.911C400.354 228.537 377.919 232.598 355.284 234.961C348.86 235.627 342.436 236.159 336.011 236.559C335.346 236.592 335.346 237.591 335.978 237.557Z" fill="#DEDEDE"/>
<path d="M283.952 261.59C286.881 262.09 289.877 262.056 292.773 261.357C294.57 260.925 295.868 260.226 297.732 260.825C298.898 261.191 299.996 261.324 301.194 261.091C302.526 260.825 303.757 260.159 304.889 259.427C306.121 258.594 307.352 257.429 308.85 257.13C310.581 256.797 312.146 258.162 313.81 258.528C315.008 258.794 316.24 258.761 317.438 258.561C318.071 258.461 317.804 257.496 317.172 257.596C315.075 257.962 313.444 257.429 311.546 256.597C310.748 256.231 309.982 256.031 309.083 256.098C306.387 256.398 304.523 258.927 302.026 259.826C300.429 260.392 299.131 260.192 297.566 259.693C296.368 259.327 295.502 259.527 294.337 259.893C291.042 260.925 287.68 261.224 284.285 260.658C283.619 260.525 283.319 261.49 283.952 261.59Z" fill="#DEDEDE"/>
<path d="M119.017 304.896C144.88 304.896 170.744 304.896 196.608 304.896C197.906 304.896 197.906 302.899 196.608 302.899C170.744 302.899 144.88 302.899 119.017 302.899C117.718 302.899 117.718 304.896 119.017 304.896Z" fill="#323232"/>
<path d="M202.167 304.297C205.196 304.297 208.225 304.297 211.254 304.297C212.552 304.297 212.552 302.3 211.254 302.3C208.225 302.3 205.196 302.3 202.167 302.3C200.869 302.3 200.869 304.297 202.167 304.297Z" fill="#323232"/>
<path d="M217.978 303.997C218.943 303.997 219.941 303.997 220.907 303.997C222.205 303.997 222.205 302 220.907 302C219.941 302 218.943 302 217.978 302C216.679 302 216.679 303.997 217.978 303.997Z" fill="#323232"/>
<path d="M35.5659 312.219C54.7057 312.219 73.8122 312.219 92.952 312.219C94.2501 312.219 94.2501 310.222 92.952 310.222C73.8122 310.222 54.7057 310.222 35.5659 310.222C34.301 310.222 34.301 312.219 35.5659 312.219Z" fill="#323232"/>
<path d="M98.5112 312.219C103.504 312.219 108.464 312.219 113.457 312.219C114.755 312.219 114.755 310.222 113.457 310.222C108.464 310.222 103.504 310.222 98.5112 310.222C97.2463 310.222 97.2463 312.219 98.5112 312.219Z" fill="#323232"/>
<path d="M121.947 311.62C122.247 311.62 122.547 311.62 122.813 311.62C123.345 311.62 123.845 311.154 123.811 310.621C123.778 310.089 123.379 309.623 122.813 309.623C122.513 309.623 122.214 309.623 121.947 309.623C121.415 309.623 120.916 310.089 120.949 310.621C120.982 311.154 121.382 311.62 121.947 311.62Z" fill="#323232"/>
<path d="M25.0479 312.485C25.7469 312.485 26.4126 312.485 27.1116 312.485C28.4098 312.485 28.4098 310.488 27.1116 310.488C26.4126 310.488 25.7469 310.488 25.0479 310.488C23.7497 310.488 23.7497 312.485 25.0479 312.485Z" fill="#323232"/>
<path d="M288.812 275.904C315.641 275.904 342.47 275.904 369.332 275.904C370.63 275.904 370.63 273.906 369.332 273.906C342.503 273.906 315.674 273.906 288.812 273.906C287.513 273.906 287.513 275.904 288.812 275.904Z" fill="#323232"/>
<path d="M379.851 274.739C404.15 274.739 428.449 274.739 452.749 274.739C454.047 274.739 454.047 272.741 452.749 272.741C428.449 272.741 404.15 272.741 379.851 272.741C378.586 272.741 378.586 274.739 379.851 274.739Z" fill="#323232"/>
<path d="M459.204 274.139C461.168 274.139 463.099 274.139 465.063 274.139C466.361 274.139 466.361 272.142 465.063 272.142C463.099 272.142 461.168 272.142 459.204 272.142C457.906 272.142 457.906 274.139 459.204 274.139Z" fill="#323232"/>
<path d="M433.44 263.021C438.999 263.021 444.558 263.021 450.117 263.021C451.415 263.021 451.415 261.024 450.117 261.024C444.558 261.024 438.999 261.024 433.44 261.024C432.142 261.024 432.142 263.021 433.44 263.021Z" fill="#323232"/>
<path d="M455.675 262.722C457.04 262.722 458.405 262.722 459.769 262.722C461.068 262.722 461.068 260.725 459.769 260.725C458.405 260.725 457.04 260.725 455.675 260.725C454.41 260.725 454.41 262.722 455.675 262.722Z" fill="#323232"/>
<path d="M272.703 281.762C279.826 281.762 286.949 281.762 294.073 281.762C295.371 281.762 295.371 279.765 294.073 279.765C286.949 279.765 279.826 279.765 272.703 279.765C271.438 279.765 271.438 281.762 272.703 281.762Z" fill="#323232"/>
<path d="M301.694 281.462C304.723 281.462 307.752 281.462 310.782 281.462C312.08 281.462 312.08 279.465 310.782 279.465C307.752 279.465 304.723 279.465 301.694 279.465C300.396 279.465 300.396 281.462 301.694 281.462Z" fill="#323232"/>
<path d="M314.876 286.455C316.94 286.455 318.97 286.455 321.034 286.455C322.332 286.455 322.332 284.458 321.034 284.458C318.97 284.458 316.94 284.458 314.876 284.458C313.578 284.458 313.578 286.455 314.876 286.455Z" fill="#323232"/>
<path d="M173.107 119.556C171.909 118.058 176.436 117.126 177.168 116.827C178.599 116.194 179.498 115.029 179.831 113.498C180.164 111.934 179.831 110.269 180.297 108.738C180.996 106.475 183.592 106.608 185.523 106.708C186.821 106.774 186.788 104.777 185.523 104.711C183.326 104.577 180.796 104.644 179.265 106.441C177.9 108.039 178.167 110.203 178 112.167C177.867 113.931 177.201 114.796 175.471 115.296C174.472 115.595 173.473 115.762 172.641 116.394C171.11 117.493 170.478 119.423 171.709 120.954C172.475 121.986 173.906 120.555 173.107 119.556Z" fill="#323232"/>
<path d="M180.199 121.221C179.3 120.156 181.364 119.09 182.029 118.691C182.928 118.158 183.694 117.659 184.359 116.86C185.724 115.229 186.623 112.134 189.086 112C190.351 111.934 190.384 109.937 189.086 110.003C184.992 110.203 184.659 114.464 181.863 116.461C180.665 117.293 179.233 117.759 178.468 119.09C177.769 120.289 177.902 121.587 178.767 122.619C179.599 123.617 181.031 122.186 180.199 121.221Z" fill="#323232"/>
<path d="M336.177 13.4719C336.044 15.6023 334.379 18.1653 336.377 19.9628C338.107 21.494 340.271 20.3622 342.235 20.4954C344.399 20.6618 343.467 22.659 343.2 24.1236C343.001 25.2221 342.901 26.4204 343.4 27.4856C344.199 29.1499 346.362 30.2151 347.96 29.0168C348.959 28.2512 347.96 26.5203 346.962 27.2858C345.331 28.5175 344.998 25.5549 345.164 24.6562C345.331 23.6909 345.663 22.7256 345.697 21.727C345.73 20.3289 344.998 19.2305 343.7 18.7645C342.102 18.1986 340.67 18.8311 339.073 18.7978C336.177 18.7312 338.107 15.2028 338.207 13.4719C338.274 12.1737 336.277 12.1737 336.177 13.4719Z" fill="#323232"/>
<path d="M347.629 15.7688C346.797 17.5663 345.998 19.6966 347.329 21.4941C347.829 22.1598 348.494 22.5593 349.293 22.6924C349.826 22.759 350.525 22.526 350.991 22.7257C351.756 23.0253 352.189 23.924 351.823 24.7229C351.257 25.8879 352.988 26.8865 353.554 25.7215C354.253 24.2236 353.987 22.4927 352.655 21.3942C351.923 20.7951 351.257 20.7951 350.358 20.6952C347.929 20.4622 348.594 18.4317 349.36 16.8007C349.892 15.6356 348.162 14.6038 347.629 15.7688Z" fill="#323232"/>
<path d="M453.713 84.8052C452.981 82.9079 454.745 80.1784 456.975 80.8774C458.673 81.4433 459.438 83.9731 458.307 85.3711C457.508 86.3697 458.906 87.7677 459.705 86.7691C461.769 84.2726 460.737 79.9121 457.508 78.9468C453.946 77.8816 450.518 81.9426 451.816 85.3045C452.249 86.5361 454.179 86.0035 453.713 84.8052Z" fill="#323232"/>
<path d="M65.1237 163.828C64.924 161.464 67.9198 160.133 69.1847 162.363C70.2499 164.294 68.1528 165.991 66.3221 165.359C65.1237 164.926 64.5912 166.857 65.7895 167.289C69.4843 168.621 72.9794 164.427 70.7492 161.098C68.3525 157.536 62.7937 159.633 63.1598 163.828C63.2264 165.092 65.2236 165.126 65.1237 163.828Z" fill="#323232"/>
<path d="M76.7097 70.5251C75.9442 71.7899 75.8776 73.421 76.8762 74.586C77.3755 75.1519 78.0745 75.518 78.8068 75.6512C79.8387 75.8176 80.6043 75.2518 81.503 75.6845C82.4018 76.1505 82.202 76.7164 82.3019 77.6484C82.3352 78.2143 82.3685 78.7468 82.435 79.3127C82.5016 79.9119 82.5682 80.511 83.0009 80.977C83.4004 81.4098 83.8997 81.5762 84.4655 81.6761C84.865 81.7426 85.2644 81.7094 85.6971 81.7094C86.03 81.7094 86.3961 81.7094 86.729 81.7759C87.3615 81.9424 87.6277 82.3751 87.5612 83.0075C87.0619 83.3737 87.5279 84.2391 88.0605 83.873C89.0591 83.1407 88.7262 82.0089 87.8608 81.2766C87.4613 80.9438 87.0286 80.7773 86.496 80.7108C84.7651 80.4777 83.7665 81.1435 83.3671 78.7136C83.1673 77.5152 83.6001 75.0187 82.3685 74.2199C81.8026 73.8537 81.3033 74.0201 80.7374 74.2532C79.8387 74.6193 79.1064 74.9189 78.1744 74.353C76.9095 73.5874 76.8762 72.0895 77.5752 70.9578C77.9081 70.4918 77.0426 69.9925 76.7097 70.5251Z" fill="#D10324"/>
<path d="M90.1562 74.4862C89.4904 75.6512 88.6916 77.4154 89.7234 78.6137C90.3892 79.4126 91.5209 79.3127 92.3864 79.812C93.7511 80.5776 94.3836 82.1754 94.1173 83.6733C94.0174 84.3057 94.9827 84.572 95.0826 83.9396C95.3489 82.4417 95.016 80.9771 93.9841 79.8453C93.5514 79.346 92.9855 78.9799 92.3864 78.7136C91.6874 78.414 90.489 78.0478 90.256 77.1824C90.0896 76.5499 90.7553 75.4848 91.0216 74.9855C91.3212 74.4196 90.4558 73.9203 90.1562 74.4862Z" fill="#D10324"/>
<path d="M277.528 179.605C276.396 177.275 278.526 174.546 281.056 175.445C283.686 176.377 283.586 179.971 281.089 180.97C280.49 181.203 280.756 182.168 281.356 181.935C284.584 180.637 285.017 176.01 281.655 174.612C278.193 173.148 275.131 176.909 276.695 180.138C276.962 180.704 277.827 180.171 277.528 179.605Z" fill="#D10324"/>
<path d="M154.931 171.716C152.801 171.284 156.229 168.987 156.596 168.754C157.128 168.388 157.628 167.988 157.894 167.356C158.793 165.325 157.162 161.264 160.756 161.065C161.389 161.031 161.389 160.033 160.756 160.066C159.358 160.133 158.327 160.898 157.694 162.097C156.662 164.027 157.894 166.657 155.897 167.988C154.765 168.754 153.567 169.253 153.433 170.751C153.367 171.65 153.733 172.449 154.665 172.648C155.297 172.815 155.564 171.85 154.931 171.716Z" fill="#D10324"/>
<path d="M161.324 168.82C160.392 167.522 160.924 165.691 162.489 165.192C163.554 164.859 164.353 165.026 164.952 163.927C165.551 162.795 165.451 161.464 166.117 160.299C166.949 158.801 168.347 157.769 169.945 157.27C170.544 157.07 170.311 156.105 169.679 156.305C168.181 156.771 166.882 157.603 165.917 158.834C165.418 159.467 164.985 160.199 164.719 160.998C164.353 162.063 164.519 163.495 163.321 164.06C162.589 164.427 161.856 164.227 161.157 164.759C160.691 165.092 160.358 165.592 160.159 166.091C159.693 167.189 159.792 168.354 160.491 169.32C160.824 169.852 161.69 169.353 161.324 168.82Z" fill="#D10324"/>
<path d="M127.47 15.7354C126.871 14.5371 129.434 14.9698 129.534 15.0031C129.9 15.1362 130.267 15.4358 130.599 15.6355C131.132 15.9351 131.731 16.2347 132.364 16.268C133.196 16.3012 133.895 15.9351 134.427 15.3359C135.959 13.4719 135.393 8.64533 138.988 10.0766C140.053 10.5094 141.251 11.1418 142.416 10.6092C143.348 10.1765 143.548 9.24448 143.415 8.31246C143.348 7.84645 142.816 6.91442 142.949 6.44841C143.215 5.54967 144.047 5.4831 144.68 5.78268C144.979 5.91582 145.246 6.11554 145.578 6.2154C146.577 6.58156 147.542 6.51498 148.141 5.58296C148.474 5.05037 147.609 4.55107 147.276 5.08366C146.61 6.14883 143.947 3.95191 142.749 4.61765C141.784 5.11695 141.817 6.11554 142.05 7.04757C142.316 8.14603 142.982 9.74378 140.952 9.7105C140.053 9.7105 139.221 8.9449 138.355 8.77847C137.323 8.57875 136.391 8.84504 135.726 9.64392C134.061 11.6078 134.694 16.734 130.832 14.6369C129.701 14.0378 128.769 13.4386 127.504 14.0045C126.538 14.4372 126.072 15.2694 126.572 16.2347C126.905 16.8005 127.737 16.3012 127.47 15.7354Z" fill="#003986"/>
<path d="M167.115 42.8973C165.617 42.5312 165.417 40.6005 166.149 39.4688C167.181 37.871 169.611 37.9709 171.242 38.2705C173.972 38.7698 176.502 39.8349 179.264 38.8031C181.927 37.8045 183.924 35.6408 186.92 35.5743C190.049 35.5077 193.012 36.8724 196.174 36.7726C201.7 36.6061 206.726 33.8766 212.018 32.6117C215.147 31.8462 218.21 31.7796 221.339 32.5785C224.334 33.3441 227.13 34.5757 230.126 35.308C233.255 36.1068 236.351 35.9737 239.513 35.7074C242.975 35.4411 246.537 35.1748 249.666 36.9723C249.599 36.7726 249.499 36.6061 249.433 36.4064C247.768 41.2995 242.376 43.2967 237.616 43.563C231.657 43.8959 225.866 41.7323 219.874 41.9653C213.816 42.1983 208.69 45.8931 202.731 46.459C196.64 47.0581 190.881 44.1622 184.823 44.3286C178.665 44.4951 170.643 47.857 165.783 42.3647C165.351 41.8987 164.652 42.5977 165.084 43.0637C168.912 47.3577 174.97 46.5921 180.063 45.8265C183.825 45.2607 187.253 45.2274 191.015 45.9597C194.21 46.5921 197.406 47.4576 200.668 47.5241C207.258 47.6906 212.817 43.4299 219.308 42.9972C225.866 42.5644 232.223 45.1941 238.781 44.4618C243.674 43.9292 248.767 41.6324 250.431 36.6394C250.498 36.4397 250.398 36.1734 250.198 36.0736C244.34 32.645 237.283 35.8738 230.992 34.4425C227.53 33.6436 224.301 32.1124 220.806 31.3801C217.777 30.7144 214.781 30.8808 211.785 31.6131C208.59 32.3787 205.561 33.6436 202.432 34.6089C198.837 35.7074 195.408 36.0403 191.68 35.2747C188.718 34.6422 185.988 34.1429 183.192 35.541C181.894 36.2067 180.696 37.1054 179.364 37.7046C177.101 38.7032 174.937 38.104 172.64 37.5382C170.21 36.9723 166.549 36.5729 165.184 39.2691C164.319 40.9667 164.918 43.3966 166.915 43.8626C167.481 43.9958 167.747 43.0305 167.115 42.8973Z" fill="#DEDEDE"/>
<path d="M28.5104 94.1919C33.0373 93.5928 37.3313 95.9228 41.825 95.357C43.6558 95.124 45.3534 94.3251 47.051 93.6261C47.8499 93.2932 48.682 92.9936 49.5475 92.7939C51.1785 92.4277 52.6432 92.8605 54.2409 93.1933C58.7013 94.1586 63.6943 93.0935 68.1547 92.461C70.3516 92.1614 72.5153 91.8286 74.7122 91.4624C77.2087 91.0297 79.7052 90.364 82.2017 90.0977C84.8313 89.8314 87.9269 90.9964 86.8618 94.2252C85.963 96.988 82.6011 97.7869 80.0713 97.9866C75.6775 98.3195 71.3169 97.0546 66.9231 97.8867C62.8288 98.6523 59.1673 100.783 55.2062 101.948C53.0093 102.613 50.8124 102.88 48.5489 102.58C46.2854 102.247 44.1551 101.681 41.825 101.848C37.0983 102.147 32.072 104.91 27.3453 103.812C24.4494 103.146 22.9515 100.483 24.3495 97.7203C25.7143 95.0574 28.8432 94.3584 31.5727 94.3584C32.2052 94.3584 32.2052 93.3598 31.5727 93.3598C27.7448 93.3598 23.2178 95.0241 22.8184 99.4179C22.4522 103.479 26.4466 105.143 29.8751 105.01C32.3716 104.91 34.8348 104.178 37.2647 103.612C40.427 102.88 43.3229 102.613 46.5184 103.213C48.8818 103.645 51.0787 103.878 53.4753 103.412C55.9385 102.946 58.2686 101.948 60.5654 101.016C62.8954 100.084 65.2588 99.1183 67.7553 98.7522C70.6845 98.3195 73.6137 98.7855 76.5429 98.9519C80.3709 99.1849 86.4623 99.0185 87.8604 94.4915C88.3597 92.8605 87.9935 90.9631 86.5622 89.898C85.1642 88.8661 83.2668 88.9326 81.6358 89.1324C75.6442 89.9645 69.7525 91.3293 63.6943 91.995C60.2991 92.3612 57.037 92.7939 53.7083 91.995C51.0121 91.3293 48.8818 91.7953 46.352 92.8272C45.0205 93.3598 43.7223 93.9589 42.3243 94.2252C40.5934 94.5581 38.7959 94.3251 37.065 94.0255C34.2357 93.4929 31.4729 92.7606 28.6102 93.1268C27.8779 93.2599 27.8779 94.2585 28.5104 94.1919Z" fill="#DEDEDE"/>
<path d="M434.107 133.77C427.815 135.967 420.459 130.774 415.932 126.846C415.866 127.112 415.799 127.412 415.699 127.678C418.895 126.38 422.257 126.313 425.652 126.513C429.014 126.68 432.376 126.913 435.738 127.012C442.894 127.212 450.084 127.046 457.207 126.513C460.902 126.247 464.564 125.881 468.225 125.448C470.023 125.215 472.186 124.782 473.884 125.614C476.247 126.813 476.048 129.409 473.784 130.408C472.619 130.907 471.354 131.073 470.123 131.306C468.192 131.639 466.261 132.005 464.331 132.338C460.802 132.971 457.274 133.603 453.712 134.236C451.682 134.602 449.651 134.968 447.621 135.334C445.724 135.667 443.76 136.166 441.796 136.2C438.467 136.233 435.971 133.304 432.642 133.67C432.01 133.736 432.01 134.735 432.642 134.668C434.539 134.435 436.037 135.467 437.668 136.233C439 136.865 440.298 137.198 441.763 137.198C445.59 137.165 449.552 136 453.313 135.301C457.374 134.569 461.468 133.836 465.529 133.104C467.46 132.771 469.39 132.405 471.321 132.072C472.619 131.839 473.984 131.539 475.116 130.774C477.013 129.476 477.08 127.079 475.482 125.515C472.985 123.051 468.691 124.35 465.662 124.682C457.474 125.581 449.219 126.047 440.964 126.014C436.437 126.014 431.91 125.847 427.383 125.548C423.355 125.315 419.261 125.115 415.466 126.646C415.167 126.779 414.934 127.212 415.233 127.478C420.026 131.639 427.682 136.998 434.373 134.668C434.972 134.535 434.739 133.57 434.107 133.77Z" fill="#DEDEDE"/>
<path d="M281.456 309.623C281.157 307.726 283.853 308.025 284.918 308.391C285.75 308.658 286.549 308.99 287.415 309.09C289.479 309.357 291.509 308.658 293.44 308.025C295.304 307.393 297.268 306.694 299.265 306.893C301.661 307.126 303.592 309.09 303.226 311.62C302.826 314.25 300.13 315.481 297.734 314.749C296.103 314.25 294.671 313.218 292.974 312.952C289.379 312.419 285.617 315.548 282.156 313.884C281.59 313.617 281.057 314.449 281.656 314.749C283.72 315.748 285.784 315.282 287.881 314.682C289.212 314.316 290.61 313.85 292.008 313.884C293.639 313.917 294.971 314.716 296.402 315.315C298.433 316.18 300.563 316.347 302.36 314.882C303.892 313.651 304.557 311.687 304.091 309.789C302.693 304.297 296.369 305.995 292.574 307.26C290.777 307.859 288.879 308.425 286.949 308.025C285.717 307.759 284.552 306.993 283.221 307.027C281.623 307.06 280.192 308.225 280.458 309.889C280.591 310.522 281.556 310.255 281.456 309.623Z" fill="#DEDEDE"/>
<path d="M243.075 298.538C244.673 297.04 246.87 296.408 249.034 296.874C249.932 297.074 252.429 297.74 250.864 298.938C250.032 299.57 248.201 299.504 247.203 299.504C246.57 299.504 246.57 300.502 247.203 300.502C248.668 300.502 251.231 300.436 252.329 299.271C253.261 298.272 252.196 297.174 251.297 296.674C248.435 295.01 244.74 295.642 242.376 297.839C241.91 298.272 242.609 298.971 243.075 298.538Z" fill="#DEDEDE"/>
<path d="M224.57 320.607C224.304 320.508 224.071 320.408 223.804 320.308C223.771 320.574 223.738 320.84 223.705 321.107C225.735 319.642 228.032 320.707 230.195 321.207C232.026 321.639 233.624 321.44 235.421 321.007C237.652 320.474 239.915 320.141 242.212 320.008C243.277 319.942 244.342 319.908 245.407 319.875C246.406 319.842 248.903 319.342 248.037 321.04C247.005 323.071 244.009 323.137 242.179 322.538C240.614 322.039 239.15 321.306 237.485 321.706C235.754 322.105 234.29 323.204 232.492 323.57C230.096 324.069 227.732 323.836 225.435 323.004C224.836 322.804 224.57 323.736 225.169 323.969C227.433 324.768 229.796 325.034 232.193 324.635C234.889 324.169 237.286 322.072 240.082 322.838C242.079 323.403 243.71 324.302 245.84 323.67C247.205 323.27 249.136 322.072 249.402 320.541C249.735 318.743 247.505 318.81 246.339 318.843C243.643 318.91 240.914 319.043 238.218 319.442C236.753 319.675 235.355 320.075 233.924 320.341C232.159 320.674 230.728 320.341 229.03 319.875C227.033 319.309 224.969 318.976 223.172 320.241C222.906 320.441 222.839 320.774 223.072 321.04C223.571 321.606 224.104 321.739 224.803 321.606C225.469 321.473 225.202 320.508 224.57 320.607Z" fill="#DEDEDE"/>
<path d="M362.042 301.534C363.973 300.735 366.003 300.303 368.1 300.336C370.264 300.369 372.095 301.201 374.158 301.667C377.187 302.4 379.451 300.536 381.914 299.104C385.809 296.808 389.67 298.305 393.731 299.138C396.627 299.737 399.723 299.837 402.219 298.072C402.752 297.706 402.252 296.841 401.72 297.207C398.591 299.47 394.73 298.372 391.301 297.54C388.072 296.774 384.877 296.342 381.848 298.006C380.516 298.738 379.285 299.703 377.887 300.336C375.756 301.301 374.025 300.536 371.962 299.936C368.6 298.971 365.038 299.237 361.809 300.569C361.177 300.802 361.443 301.767 362.042 301.534Z" fill="#DEDEDE"/>
<path d="M130.599 137.631C133.562 136.499 138.754 142.591 141.317 146.585C145.245 152.61 145.878 157.869 147.808 170.052C148.541 174.779 149.739 182.268 151.37 191.722C154.299 194.584 155.398 197.38 155.83 199.111C156.43 201.341 156.596 204.204 155.83 204.47C154.998 204.77 153.534 201.974 152.935 202.24C152.136 202.606 154.732 207.1 153.168 209.164C151.57 211.261 145.578 210.928 142.449 207.832C139.52 204.936 140.685 201.242 140.219 192.421C140.053 189.425 139.587 181.27 137.09 173.214C134.028 163.395 130.832 162.895 129.035 154.208C127.77 148.083 127.404 138.862 130.599 137.631Z" fill="white" stroke="#323232" stroke-width="2"/>
<path opacity="0.15" d="M134.989 146.219C136.82 145.819 140.016 154.108 140.215 154.574C143.145 162.23 141.747 165.492 143.045 176.776C144.11 185.963 144.709 191.189 147.672 197.646C150.534 203.838 153.863 207.466 152.598 209.13C151.333 210.828 146.373 209.197 142.479 207.632C142.113 206.8 141.58 205.502 141.147 203.904C140.049 200.01 140.116 196.914 140.116 195.416C140.116 194.584 140.082 184.931 138.185 176.509C137.153 172.016 136.687 172.682 135.489 168.021C132.859 157.902 132.959 146.651 134.989 146.219Z" fill="#666666"/>
<path opacity="0.17" d="M139.486 162.329C139.852 165.791 140.318 170.951 140.517 177.242C140.817 186.928 140.351 194.984 140.085 194.984C139.852 194.984 140.151 189.192 138.886 181.269C138.054 176.01 136.823 171.75 135.891 168.92C136.523 168.288 137.289 167.422 137.988 166.224C138.853 164.693 139.286 163.295 139.486 162.329Z" fill="#666666"/>
<path d="M137.187 280.397C136.322 281.995 136.189 283.726 138.186 298.805C138.419 300.669 138.652 302.2 138.785 303.265C143.878 304.064 151.068 304.697 159.589 303.864C164.749 303.365 170.773 302.799 171.106 300.835C171.373 299.238 167.878 296.375 151.9 290.916C151.168 285.59 150.402 280.264 149.67 274.938C140.316 275.571 137.886 279.166 137.187 280.397Z" fill="#323232"/>
<path d="M117.116 185.497C120.244 189.758 124.705 195.883 129.931 203.372C142.313 221.08 148.505 229.935 150.668 235.86C157.059 253.402 155.395 270.445 154.763 276.236C154.397 279.565 153.931 282.295 153.564 284.159C151.035 285.124 147.406 286.189 142.979 286.555C139.018 286.888 135.623 286.522 133.126 286.089C132.361 281.562 131.728 276.469 131.429 270.944C130.996 262.722 131.395 255.366 132.161 249.075C123.606 242.517 118.081 235.76 114.719 231.066C105.732 218.384 103.335 207.4 101.904 200.343C99.8731 190.557 101.271 187.894 102.569 186.496C106.897 182.002 116.283 185.231 117.116 185.497Z" fill="white" stroke="#323232" stroke-width="2"/>
<path opacity="0.19" d="M118.083 213.591C121.512 216.487 125.972 220.781 130.299 226.672C131.497 228.337 136.457 235.427 140.818 246.811C146.809 262.589 147.309 277.301 147.042 285.623C145.578 286.156 143.514 286.722 141.051 286.921C137.755 287.154 135.059 286.588 133.328 286.056C132.263 279.565 131.464 272.075 131.398 263.754C131.364 258.361 131.597 253.335 132.03 248.742C131.198 248.275 115.12 239.222 115.32 224.076C115.353 219.849 116.685 216.254 118.083 213.591Z" fill="#666666"/>
<path opacity="0.15" d="M122.375 239.088C123.108 238.09 132.261 240.886 135.89 247.676C138.619 252.769 136.422 256.697 136.522 263.954C136.589 269.379 137.987 277.102 144.012 286.455C140.517 286.389 137.021 286.322 133.493 286.256C132.528 280.064 131.762 273.008 131.562 265.252C131.396 259.127 131.596 253.468 131.995 248.309C130.697 247.643 129.033 246.611 127.268 245.08C125.305 243.349 121.843 239.821 122.375 239.088Z" fill="#666666"/>
<path d="M78.3723 277.767C75.8425 279.398 75.4098 281.662 73.113 286.655C71.5153 290.117 69.1186 294.744 65.4238 300.003C67.5209 302.366 71.016 305.662 76.1421 308.092C83.1656 311.42 93.0184 313.018 94.5496 310.122C96.1806 306.993 87.626 299.57 85.0629 297.373C85.7619 295.809 86.8937 293.312 88.2917 290.283C91.9865 282.361 92.7188 281.196 92.1197 279.765C90.7216 276.369 82.9659 274.838 78.3723 277.767Z" fill="#323232"/>
<path d="M89.0569 177.974C87.0597 183.467 85.0293 188.959 83.0321 194.418C79.7367 203.938 81.168 210.529 82.2332 213.691C83.3982 217.186 85.4287 220.182 89.4564 226.14C92.5853 230.734 95.4147 234.428 97.4785 236.991C93.3509 241.285 88.6575 246.844 84.2304 253.834C78.2721 263.288 74.7437 272.175 72.5801 279.132C74.544 280.63 77.5065 282.527 81.401 283.959C85.7616 285.557 89.6228 285.923 92.2525 285.956C96.8793 282.394 103.204 276.835 109.095 268.68C113.722 262.323 119.947 253.768 121.944 241.785C125.339 221.38 114.255 204.77 110.294 198.845C103.137 188.093 94.5492 181.569 89.0569 177.974Z" fill="white" stroke="#323232" stroke-width="2"/>
<path d="M103.071 189.958C105.634 193.519 108.164 197.114 110.594 200.742C110.894 200.576 111.16 200.41 111.46 200.243C109.296 197.347 107.365 194.251 105.701 191.023C105.468 191.256 105.235 191.489 105.002 191.722C106.367 192.654 107.132 194.052 107.965 195.417C108.93 197.014 109.928 198.612 110.894 200.21C112.791 203.305 114.688 206.434 116.586 209.53C116.885 209.364 117.152 209.197 117.451 209.031C114.555 204.504 111.659 199.977 108.73 195.45C108.397 194.917 107.532 195.417 107.865 195.949C111.46 201.941 115.088 207.899 118.683 213.891C119.016 214.456 119.881 213.957 119.548 213.391C116.919 208.931 114.322 204.437 111.693 199.977C111.426 200.177 111.16 200.376 110.894 200.576C114.655 204.737 115.321 210.795 119.415 214.689C119.881 215.122 120.58 214.423 120.114 213.99C116.02 210.129 115.354 204.038 111.593 199.877C111.193 199.444 110.528 200.01 110.794 200.476C113.424 204.936 116.02 209.43 118.65 213.891C118.949 213.724 119.215 213.558 119.515 213.391C115.92 207.4 112.292 201.441 108.697 195.45C108.397 195.616 108.131 195.783 107.831 195.949C110.727 200.476 113.623 205.003 116.552 209.53C116.885 210.063 117.751 209.563 117.418 209.031C115.288 205.536 113.157 202.041 111.027 198.579C109.462 195.982 108.031 192.62 105.435 190.856C105.002 190.557 104.536 191.123 104.736 191.555C106.4 194.784 108.297 197.846 110.494 200.776C110.86 201.275 111.726 200.809 111.36 200.276C108.93 196.615 106.433 193.02 103.837 189.492C103.571 188.926 102.705 189.425 103.071 189.958Z" fill="white"/>
<path opacity="0.2" d="M105.169 191.422C103.438 193.919 101.042 198.046 100.01 203.472C96.8477 219.915 110.162 227.205 107.2 241.618C105.635 249.208 101.674 248.509 92.82 264.286C88.3263 272.309 85.4637 279.365 83.7661 284.159C81.6024 283.493 79.2391 282.627 76.7426 281.496C75.278 280.83 73.9132 280.164 72.6816 279.465C74.6456 273.34 77.6081 265.951 82.0685 258.029C87.128 249.074 92.6869 242.084 97.3803 236.925C96.0821 235.261 94.1515 232.731 91.9213 229.569C85.7633 220.847 82.6343 216.387 81.6024 211.261C80.4374 205.602 81.4027 200.776 82.0685 197.514C83.0671 192.587 84.7647 188.726 86.1294 186.096C92.4539 187.86 98.8116 189.658 105.169 191.422Z" fill="#666666"/>
<path opacity="0.17" d="M97.3471 189.392C93.5857 193.686 88.6593 200.742 89.0587 209.264C89.6579 222.612 102.839 227.705 100.942 238.656C100.409 241.685 96.2153 246.545 87.7938 256.165C83.167 261.457 79.2392 265.685 76.543 268.514C78.6067 263.454 81.6025 257.396 85.9298 251.005C89.7577 245.346 93.6856 240.819 97.1807 237.258C96.1488 235.693 94.318 232.897 92.0212 229.435C83.9992 217.386 82.4347 215.488 81.536 211.294C80.4708 206.368 81.1698 202.207 81.7024 199.111C82.6677 193.353 84.6982 188.926 86.2294 186.13C89.9242 187.195 93.6523 188.293 97.3471 189.392Z" fill="#666666"/>
<path d="M114.554 131.473C109.827 134.269 100.84 140.427 93.9825 151.745C85.2614 166.158 85.2614 180.238 85.561 185.697C87.192 186.23 88.8563 186.762 90.554 187.261C101.905 190.657 112.889 192.953 123.275 194.418C124.14 191.456 125.072 188.46 126.071 185.364C127.569 180.804 129.133 176.443 130.731 172.282C136.256 169.42 138.187 165.725 138.82 164.194C141.383 158.202 138.953 151.944 136.323 145.187C134.858 141.393 134.093 139.462 132.262 137.398C126.537 130.907 117.083 131.307 114.554 131.473Z" fill="#D10324"/>
<path opacity="0.27" d="M125.772 139.362C116.685 140.56 111.825 144.688 109.861 146.618C98.7764 157.57 102.604 176.044 103.636 181.037C104.568 185.53 105.966 189.125 107.065 191.555C100.041 189.658 93.0511 187.727 86.0276 185.83C85.5949 180.737 85.1621 167.655 92.7182 153.708C99.7417 140.793 109.828 134.169 114.321 131.573C114.954 131.606 115.586 131.673 116.219 131.706C117.184 132.838 118.349 134.036 119.78 135.268C121.911 137.132 124.008 138.43 125.772 139.362Z" fill="#666666"/>
<path opacity="0.2" d="M96.6475 147.717C95.7154 152.61 94.9498 159.7 95.9484 168.088C97.1468 177.941 100.309 185.564 102.772 190.357C97.0469 188.892 91.2883 187.428 85.563 185.996C85.2967 181.403 85.4299 174.513 87.6268 166.59C90.0234 157.936 93.8847 151.611 96.6475 147.717Z" fill="#666666"/>
<path d="M378.052 257.696C375.955 262.389 376.355 266.783 376.688 268.847C383.245 271.743 389.07 273.074 393.531 273.74C394.995 273.973 413.103 276.536 414.867 271.576C415.3 270.345 414.601 269.08 413.902 267.848C410.008 261.024 400.155 260.625 398.823 260.592C398.457 253.502 393.897 248.242 389.237 247.876C382.646 247.377 378.518 256.664 378.052 257.696Z" fill="#323232"/>
<path d="M386.706 143.19C391.033 149.414 396.859 159.101 401.086 171.949C407.976 192.887 406.845 210.462 406.079 220.415C405.413 229.269 403.616 241.851 398.589 256.364C397.225 257.23 391.2 260.825 383.577 259.194C379.05 258.228 375.988 255.832 374.523 254.5C377.219 248.575 380.482 239.654 381.713 228.537C383.078 216.42 381.414 206.934 379.217 194.751C374.224 167.223 367.333 156.771 373.292 149.082C376.154 145.353 381.047 143.689 386.706 143.19Z" fill="white" stroke="#323232" stroke-width="2"/>
<path opacity="0.16" d="M389.07 158.402C391.334 169.42 393.131 182.068 393.83 196.115C395.029 221.047 392.332 242.55 388.837 259.293C387.339 259.493 383.711 259.726 379.85 257.795C377.553 256.63 375.989 255.099 375.09 254.034C379.251 244.448 380.749 236.292 381.348 230.8C382.28 222.179 381.514 215.255 380.083 202.34C379.251 194.784 378.285 188.593 377.586 184.365C381.414 175.744 385.242 167.056 389.07 158.402Z" fill="#666666"/>
<path opacity="0.22" d="M381.778 174.979C384.641 182.435 388.935 196.648 387.47 214.723C386.072 232.132 379.947 245.08 376.053 251.937C382.577 233.097 382.91 221.547 381.911 214.39C381.645 212.559 380.513 205.303 379.215 194.618C378.682 190.191 378.283 186.562 378.05 184.232C379.315 181.137 380.546 178.041 381.778 174.979Z" fill="#666666"/>
<path d="M329.887 243.282C327.124 244.647 326.292 246.877 322.498 254.101C319.968 258.894 317.837 262.722 316.439 265.185C320.7 268.247 327.457 272.275 336.478 274.405C341.804 275.67 352.888 277.435 354.153 274.405C355.551 271.044 344.167 263.288 339.374 260.159C344.3 255.366 344.533 248.409 341.205 244.847C338.375 241.818 333.249 241.618 329.887 243.282Z" fill="#323232"/>
<path d="M378.153 142.491C389.137 152.177 376.289 184.465 365.737 210.295C361.177 221.446 354.053 237.59 343.568 256.464C341.737 256.73 336.245 257.263 330.386 254.101C324.495 250.938 321.932 245.979 321.166 244.348C324.228 239.055 327.923 231.932 331.452 223.244C332.85 219.815 338.874 204.504 342.27 182.867C343.601 174.313 344.799 163.028 344.633 149.614C346.597 147.617 357.548 136.865 370.497 139.328C372.461 139.694 375.689 140.327 378.153 142.491Z" fill="white" stroke="#323232" stroke-width="2"/>
<path d="M381.716 155.805C381.683 156.97 381.65 158.135 381.65 159.3C381.983 159.3 382.316 159.3 382.648 159.3C382.482 157.436 382.582 155.672 382.948 153.841C382.615 153.808 382.282 153.742 381.983 153.708C382.182 157.636 381.284 161.764 380.585 165.625C379.886 169.519 378.954 173.381 377.855 177.175C378.188 177.275 378.488 177.342 378.82 177.442C380.651 170.518 382.182 163.561 383.447 156.504C383.547 155.872 382.582 155.606 382.482 156.238C381.217 163.262 379.686 170.252 377.855 177.175C377.689 177.808 378.654 178.074 378.82 177.442C379.985 173.447 380.918 169.353 381.65 165.259C382.316 161.531 383.181 157.503 382.981 153.708C382.948 153.176 382.116 153.009 382.016 153.575C381.617 155.472 381.517 157.37 381.683 159.3C381.75 159.933 382.682 159.966 382.682 159.3C382.715 158.135 382.748 156.97 382.748 155.805C382.748 155.173 381.75 155.173 381.716 155.805Z" fill="white"/>
<path d="M377.485 175.078C377.518 177.641 377.585 180.204 377.618 182.767C377.618 183.4 378.617 183.4 378.617 182.767C378.584 180.204 378.517 177.641 378.484 175.078C378.451 174.412 377.452 174.412 377.485 175.078Z" fill="white"/>
<path opacity="0.19" d="M363.637 152.843C363.737 159.533 363.371 168.654 361.407 179.239C359.31 190.457 356.115 199.144 351.454 212.226C347.66 222.944 345.829 226.14 341.968 238.023C339.604 245.246 337.94 251.305 336.875 255.366C335.044 255.132 331.249 254.367 327.455 251.538C323.926 248.908 322.129 245.779 321.33 244.148C327.455 233.396 331.349 223.976 333.813 217.119C341.435 195.916 343.233 177.475 344.265 166.124C344.697 161.397 344.93 157.47 345.03 154.907C351.221 154.208 357.446 153.542 363.637 152.843Z" fill="#666666"/>
<path opacity="0.24" d="M360.212 153.808C357.616 165.226 354.62 174.213 352.257 180.504C350.326 185.697 347.363 192.687 341.472 206.634C339.308 211.793 338.21 214.357 337.677 215.522C334.415 222.845 329.189 233.13 320.834 245.246C328.323 231.799 336.911 212.626 341.472 188.46C343.768 176.277 344.601 165.159 344.7 155.539C344.667 155.506 344.667 155.506 360.212 153.808Z" fill="#666666"/>
<path d="M370.73 71.9564C371.262 73.2546 372.194 75.1519 373.892 77.0825C375.124 78.4806 376.688 80.278 379.018 80.977C383.545 82.3751 387.939 78.7801 388.538 78.2808C392.932 80.8772 397.326 83.4735 401.686 86.0699C402.086 91.4956 402.119 99.6841 399.989 109.237C397.958 118.325 395.994 119.423 394.397 128.244C391.967 141.492 393.764 153.309 393.165 153.342C393.065 153.342 392.932 153.076 392.666 151.645C375.523 152.943 358.381 154.241 341.238 155.539C340.739 145.253 340.805 136.599 341.005 130.208C341.271 120.222 342.07 108.139 345.399 94.1253C347.762 84.106 349.626 80.7108 352.455 78.0478C358.58 72.2227 366.968 71.8565 370.73 71.9564Z" fill="#003986"/>
<path opacity="0.3" d="M390.568 79.4792C390.002 85.5707 388.937 94.6246 386.906 105.476C386.307 108.738 384.609 117.726 383.245 122.119C381.58 127.512 375.089 142.923 343.334 155.439C353.02 154.308 363.006 153.309 373.225 152.477C379.616 151.944 385.941 151.478 392.165 151.112C394.362 143.29 396.393 134.435 397.857 124.649C400.088 109.837 400.52 96.4554 400.154 85.1712C396.959 83.2739 393.763 81.3766 390.568 79.4792Z" fill="#002C66"/>
<path d="M376.851 51.918C375.685 57.8763 375.153 64.4671 370.326 71.7568C369.661 72.7554 369.095 73.521 368.695 74.0203C369.095 74.8192 373.322 83.0077 382.31 84.2393C387.436 84.9383 391.463 82.9744 392.995 82.1423C392.762 80.1451 392.628 77.7484 392.828 75.0522C393.094 71.0911 393.927 67.7957 394.759 65.2992C398.62 64.7999 402.448 64.3006 406.309 63.8013C407.075 62.1037 407.807 60.4061 408.573 58.6752C409.638 58.6419 410.67 58.6086 411.735 58.5753C410.936 56.2453 409.738 52.5505 408.34 47.9902C405.743 39.4023 405.777 38.1706 404.379 36.24C400.517 30.9475 391.863 27.5855 386.171 30.4149C380.678 33.1111 379.014 40.8003 376.851 51.918Z" fill="white" stroke="#323232" stroke-width="2"/>
<path d="M411.57 58.1093C409.672 58.1426 407.808 58.0095 405.944 57.7432C405.312 57.6433 405.046 58.6086 405.678 58.7085C407.642 59.0081 409.573 59.1412 411.57 59.1079C412.235 59.1079 412.235 58.1093 411.57 58.1093Z" fill="#323232"/>
<path d="M412.897 42.8308C411.2 41.8987 409.169 42.4313 408.071 43.9958C407.705 44.5284 408.57 45.0277 408.936 44.4951C409.702 43.3966 411.233 43.0638 412.398 43.6962C412.964 43.9958 413.463 43.1303 412.897 42.8308Z" fill="#323232"/>
<path d="M412.036 48.8223C412.203 48.0567 412.169 47.2911 411.803 46.5921C411.537 46.0928 410.971 45.4936 410.339 45.7599C409.673 46.0262 409.706 46.9582 409.839 47.5241C409.973 48.2231 410.339 48.8556 410.871 49.3216C411.171 49.5879 411.737 49.4214 411.737 48.9554C411.737 48.1233 411.537 47.391 411.171 46.6254C410.905 46.0595 410.039 46.5588 410.305 47.1247C410.572 47.6905 410.705 48.2897 410.738 48.9221C411.038 48.789 411.304 48.6891 411.604 48.556C411.038 48.09 410.838 47.4908 410.805 46.7918C410.838 46.7252 410.805 46.6587 410.705 46.6587C410.771 46.6919 410.838 46.7585 410.871 46.8251C410.971 46.9582 411.071 47.158 411.104 47.3244C411.237 47.7238 411.237 48.09 411.138 48.4894C410.905 49.1884 411.87 49.4547 412.036 48.8223Z" fill="#323232"/>
<path d="M403.246 44.1623C401.315 43.5298 399.285 44.3287 398.153 45.993C397.787 46.5256 398.652 47.0249 399.018 46.4923C399.884 45.1941 401.482 44.6616 402.979 45.1276C403.579 45.294 403.845 44.362 403.246 44.1623Z" fill="#323232"/>
<path d="M403.78 49.721C403.847 48.8223 403.481 47.4243 402.549 47.0581C401.317 46.5588 401.317 48.2897 401.45 49.022C401.617 49.7543 402.216 51.1191 403.215 50.5532C403.614 50.3202 403.681 49.8875 403.547 49.488C403.314 48.8556 402.948 48.2897 402.682 47.6906C402.416 47.8903 402.149 48.09 401.883 48.2897C402.016 48.4229 402.116 48.556 402.149 48.7557C402.316 49.3882 403.281 49.1219 403.115 48.4894C403.015 48.1233 402.848 47.857 402.582 47.5907C402.149 47.1913 401.55 47.6906 401.783 48.1899C401.916 48.4229 402.016 48.6559 402.149 48.9222C402.249 49.1219 402.349 49.488 402.515 49.6545C402.582 49.8875 402.649 49.8875 402.748 49.6545C402.715 49.5879 402.649 49.488 402.615 49.4215C402.515 49.2217 402.449 49.022 402.416 48.789C402.382 48.5893 402.416 48.323 402.349 48.1233C402.382 47.9901 402.349 47.9569 402.316 48.1233C402.382 48.2231 402.482 48.323 402.515 48.4229C402.748 48.8223 402.815 49.2883 402.782 49.7543C402.715 50.3535 403.714 50.3535 403.78 49.721Z" fill="#323232"/>
<path d="M405.708 38.3704C405.442 36.6062 404.743 33.7436 402.879 30.7811C402.213 29.7492 400.782 27.519 398.518 26.0211C394.191 23.1584 387.534 23.3914 382.674 26.8865C377.947 30.3151 375.584 36.4731 376.616 42.5645C386.336 41.1665 396.022 39.7684 405.708 38.3704Z" fill="#D10324"/>
<path d="M421.621 35.1748C406.676 37.0722 391.763 38.9695 376.818 40.8668C374.92 41.0998 374.92 44.0956 376.818 43.8626C391.763 41.9653 406.676 40.068 421.621 38.1706C423.485 37.9376 423.519 34.9418 421.621 35.1748Z" fill="#323232"/>
<path d="M386.304 42.1649C388.934 43.1302 390.465 44.961 392.263 47.1579C396.024 51.7514 394.892 53.4491 397.555 56.3117C401.749 60.872 406.01 58.1758 409.771 62.6362C412.967 66.4308 412.534 71.557 412.401 72.6887C412.268 73.8205 411.702 78.3807 408.007 81.5097C404.812 84.2059 400.451 84.8383 400.185 84.2392C400.085 84.0062 400.451 83.4736 402.814 81.8758C402.115 82.3751 401.05 82.9743 399.619 83.2406C397.988 83.5401 396.457 83.2406 396.423 83.0076C396.423 82.8411 397.289 82.8411 397.955 82.1088C398.354 81.6761 398.52 81.1768 398.62 80.7441C397.322 81.6095 395.658 82.3418 394.093 81.8758C389.833 80.5776 389.067 71.0244 388.801 67.8622C388.002 57.6099 390.931 52.0177 387.369 48.4228C387.07 48.1232 385.639 46.6586 384.074 46.9582C382.077 47.3243 380.546 50.4533 381.211 52.517C381.777 54.2812 383.775 54.7805 383.641 55.1134C383.442 55.5461 380.08 54.8804 377.25 52.6169C376.218 51.7847 375.386 51.119 374.954 49.8874C374.188 47.757 375.087 45.3271 376.285 43.8958C378.782 40.9 383.442 41.0997 386.304 42.1649Z" fill="#323232" stroke="#323232" stroke-width="2"/>
<path opacity="0.22" d="M382.342 55.3799C382.975 55.4464 383.874 55.4797 383.94 55.2467C383.973 55.1468 383.74 54.9804 383.74 54.9804C383.74 54.9804 384.506 55.9457 385.438 56.0789C385.904 56.1454 386.27 55.979 386.536 55.8459C384.839 59.4075 383.108 63.7348 381.677 68.7278C380.179 73.8872 379.347 78.6139 378.914 82.6416C377.449 82.1756 374.786 81.1104 372.323 78.7138C370.526 76.9829 369.494 75.1521 368.895 73.9205C370.892 70.9247 372.057 68.2951 372.756 66.4976C373.388 64.8332 373.621 63.7348 374.753 59.9401C375.685 56.8777 376.417 54.348 376.917 52.6171C377.183 52.8501 377.582 53.2162 378.115 53.5824C378.881 54.115 380.378 55.1468 382.342 55.3799Z" fill="#666666"/>
<path d="M393.095 24.2235C389.2 24.9891 386.304 28.1181 385.871 31.8129C385.339 36.2067 388.568 39.2025 388.867 39.4688C384.74 39.9681 380.612 40.5007 376.485 41C376.418 40.0347 376.385 38.7032 376.618 37.172C377.417 32.2456 380.279 29.2165 380.878 28.5841C381.844 27.5855 385.239 24.3567 390.265 24.0571C391.43 23.9905 392.396 24.1237 393.095 24.2235Z" fill="#A7021D"/>
<path d="M400.686 85.7371C403.349 85.3376 406.079 89.9645 407.344 92.0948C414.667 104.544 411.604 118.924 410.672 123.118C409.94 126.413 408.575 132.238 404.315 138.663C400.254 144.854 395.46 148.682 392.398 150.779C387.272 152.743 377.952 155.439 366.734 153.608C362.84 152.976 359.444 151.911 356.615 150.779C351.822 151.079 347.028 151.345 342.235 151.645C341.47 151.511 340.404 151.312 339.14 150.846C337.608 150.28 336.144 149.714 336.144 149.181C336.144 148.582 337.808 147.65 345.93 146.385C345.531 146.452 340.205 147.484 336.643 143.756C333.314 140.294 333.115 134.369 335.644 132.039C337.775 130.075 341.237 130.94 347.561 132.638C353.819 134.302 358.845 136.566 362.507 138.496C363.905 139.129 374.79 143.822 384.742 138.097C392.332 133.736 394.861 125.914 395.46 123.75C397.857 115.162 393.497 112.133 395.061 99.7175C395.261 97.5871 396.692 86.303 400.686 85.7371Z" fill="white" stroke="#323232" stroke-width="2"/>
<path d="M334.383 139.462C338.244 139.761 341.939 140.693 345.467 142.291C346.033 142.557 346.565 141.692 345.966 141.426C342.271 139.728 338.41 138.729 334.383 138.43C333.75 138.43 333.75 139.428 334.383 139.462Z" fill="#323232"/>
<path d="M334.147 135.401C338.574 135.267 342.336 137.964 346.463 139.229C347.062 139.428 347.329 138.463 346.729 138.263C342.535 136.965 338.707 134.269 334.147 134.402C333.515 134.435 333.481 135.434 334.147 135.401Z" fill="#323232"/>
<path d="M338.409 131.872C342.038 132.172 345.233 133.903 348.362 135.667C348.928 135.967 349.427 135.134 348.861 134.802C345.566 132.971 342.237 131.207 338.409 130.874C337.744 130.807 337.744 131.806 338.409 131.872Z" fill="#323232"/>
<path opacity="0.18" d="M396.626 91.862C394.662 99.7509 399.888 105.077 401.652 114.097C401.952 115.695 404.315 128.644 397.391 137.831C389.669 148.083 374.357 148.449 371.361 148.549C363.539 148.749 360.577 146.452 348.327 147.084C347.162 147.151 336.51 147.75 336.41 149.248C336.377 150.047 339.34 150.946 341.57 151.245C344.499 151.645 346.03 150.979 349.758 150.679C351.356 150.546 353.653 150.446 356.482 150.679C359.877 152.077 364.271 153.442 369.531 153.975C370.962 154.108 375.422 154.507 381.148 153.675C381.148 153.675 385.941 153.009 389.736 151.678C399.156 148.416 408.476 134.669 411.106 119.69C414.068 102.813 407.477 90.0978 403.783 87.2684C403.283 86.869 401.852 85.7705 400.354 86.1367C397.924 86.6693 396.925 90.6304 396.626 91.862Z" fill="#666666"/>
<path opacity="0.17" d="M410.673 101.881C410.14 101.881 410.14 108.239 408.676 116.228C407.777 121.088 405.946 130.974 401.519 137.864C393.63 150.147 377.519 152.91 371.395 153.642C376.654 154.374 384.742 154.541 392.631 150.346C409.741 141.226 411.405 119.224 411.705 115.229C412.171 108.505 411.205 101.881 410.673 101.881Z" fill="#666666"/>
<path d="M123.242 227.838C137.023 215.588 150.87 203.405 164.784 191.322C191.014 168.521 217.477 146.019 244.206 123.784C242.109 117.559 239.412 106.774 241.01 93.6593C241.509 89.4985 245.77 58.8415 273.864 42.9971C276.194 41.6657 308.449 24.2235 338.673 43.4631C358.612 56.1453 368.931 79.2795 366.501 101.881C362.906 135.467 333.081 150.346 331.35 151.179C309.847 161.431 283.983 158.402 264.71 143.423C235.751 167.256 206.858 191.122 177.999 215.056C165.35 225.541 152.734 236.026 140.118 246.545C137.489 245.28 133.128 242.75 129.2 238.123C125.905 234.262 124.174 230.401 123.242 227.838Z" fill="#323232"/>
<ellipse cx="304.421" cy="96.2889" rx="52.7925" ry="50.5956" fill="white" stroke="#323232" stroke-width="2"/>
<path d="M308.714 48.4894C299.061 68.9274 288.908 89.1656 278.29 109.138C275.294 114.763 272.265 120.388 269.203 125.981C268.903 126.546 269.769 127.046 270.068 126.48C280.953 106.641 291.372 86.5693 301.291 66.2312C304.087 60.5059 306.85 54.7473 309.613 48.9554C309.879 48.4228 309.014 47.9235 308.714 48.4894Z" fill="#DEDEDE"/>
<path d="M324.991 53.449C314.406 70.1589 304.354 87.1683 294.8 104.477C294.501 105.043 295.366 105.543 295.666 104.977C305.219 87.6676 315.272 70.6582 325.857 53.9483C326.19 53.4157 325.324 52.9164 324.991 53.449Z" fill="#DEDEDE"/>
<path d="M293.038 110.336C288.644 118.891 283.951 127.312 278.924 135.534C278.592 136.1 279.457 136.599 279.79 136.033C284.783 127.811 289.51 119.39 293.903 110.835C294.203 110.269 293.338 109.737 293.038 110.336Z" fill="#DEDEDE"/>
<path d="M311.512 85.3709C305.92 95.8895 300.361 106.408 294.769 116.927C294.47 117.493 295.335 117.992 295.635 117.426C301.227 106.907 306.786 96.3888 312.378 85.8702C312.677 85.3044 311.812 84.8051 311.512 85.3709Z" fill="#DEDEDE"/>
<path opacity="0.08" d="M302.858 45.5268C299.163 46.8583 274.83 55.9788 267.041 80.4112C266.143 83.2405 263.347 92.3611 265.444 102.913C269.471 123.018 289.576 139.295 315.873 144.754C313.876 145.42 311.08 146.219 307.618 146.651C286.714 149.281 270.503 135.034 268.606 133.337C264.478 129.575 251.73 116.793 251.497 96.5552C251.463 94.791 251.563 74.819 266.709 60.4059C275.529 52.0177 285.848 48.9553 290.176 47.7237C295.235 46.2924 299.662 45.7598 302.858 45.5268Z" fill="#666666"/>
<path d="M108.061 148.216C110.458 147.916 114.053 147.883 116.683 150.013C122.341 154.607 117.981 164.593 120.777 175.145C122.275 180.804 126.236 188.426 137.753 195.982C142.313 198.279 146.108 200.01 148.738 201.208C152.499 202.906 154.896 203.871 154.862 205.169C154.829 206.468 152.466 207.433 150.768 207.999C152.799 209.896 153.83 212.293 153.131 214.123C152.599 215.555 151.134 216.254 149.503 217.053C147.639 217.985 146.075 218.184 144.277 218.417C140.915 218.85 139.251 219.05 137.72 218.417C135.356 217.419 134.291 215.222 132.727 212.06C131.861 210.329 130.796 207.633 130.23 204.137C126.469 202.407 121.076 199.411 115.717 194.385C113.62 192.421 94.1808 173.78 100.306 157.669C101.238 155.406 103.201 151.744 108.061 148.216Z" fill="white" stroke="#323232" stroke-width="2"/>
<path d="M137.818 214.29C138.65 216.121 139.915 217.652 141.546 218.884C142.045 219.283 142.545 218.418 142.045 218.018C140.581 216.92 139.449 215.455 138.683 213.791C138.417 213.225 137.552 213.724 137.818 214.29Z" fill="#323232"/>
<path d="M141.812 213.757C142.811 215.688 144.309 217.286 146.139 218.484C146.672 218.817 147.171 217.951 146.639 217.619C144.941 216.553 143.576 215.055 142.644 213.258C142.378 212.692 141.513 213.191 141.812 213.757Z" fill="#323232"/>
<path d="M146.009 211.494C146.941 213.458 148.539 215.022 150.503 215.954C151.068 216.221 151.601 215.355 151.002 215.089C149.171 214.224 147.74 212.825 146.874 210.995C146.575 210.396 145.743 210.895 146.009 211.494Z" fill="#323232"/>
<path opacity="0.2" d="M108.893 148.283C108.16 151.578 107.361 156.771 108.06 163.029C109.891 178.873 120.143 189.325 121.841 191.023C130.296 199.411 135.821 198.279 139.183 205.769C140.082 207.766 141.68 212.293 146.007 214.656C147.705 215.555 149.302 215.888 150.368 216.021C149.802 216.487 148.87 217.119 147.638 217.652C145.574 218.551 143.777 218.584 140.948 218.617C138.85 218.65 137.785 218.65 136.853 218.218C134.889 217.319 133.957 215.455 133.591 214.523C132.26 210.928 130.962 207.333 129.63 203.738C123.139 200.409 113.952 194.484 106.696 184.332C103.667 180.105 98.607 172.848 99.0397 164.127C99.2394 160.166 100.504 157.403 100.804 156.737C103.167 151.844 107.095 149.315 108.893 148.283Z" fill="#666666"/>
<path opacity="0.32" d="M99.4721 166.157C99.6718 166.091 100.937 170.085 103.433 174.745C109.525 186.262 118.312 193.319 124.603 198.246C127.466 200.476 129.896 202.14 131.427 203.172C133.291 206.301 134.356 208.997 134.989 210.961C135.521 212.592 135.821 214.057 137.053 215.588C138.318 217.252 139.949 218.184 141.147 218.717C140.248 218.75 138.883 218.684 137.452 218.018C134.723 216.753 133.524 214.123 132.259 211.327C131.527 209.729 130.662 207.333 130.196 204.237C112.82 195.449 106.296 184.365 103.833 179.106C101.303 173.713 99.2058 166.29 99.4721 166.157Z" fill="#666666"/>
<path d="M127.04 117.825C124.677 118.757 126.075 123.417 122.28 127.645C120.416 129.742 118.152 130.74 116.588 131.306C117.586 132.804 119.55 135.234 122.779 137.165C125.076 138.563 127.273 139.228 128.804 139.528C129.303 138.629 130.136 137.231 131.167 135.567C134.862 129.742 136.194 129.109 136.393 127.179C136.893 122.452 130.069 116.627 127.04 117.825Z" fill="white" stroke="#323232" stroke-width="2"/>
<path d="M126.607 126.813C127.972 129.542 129.403 132.238 131.667 134.335C132.133 134.768 132.832 134.069 132.366 133.636C130.169 131.606 128.804 128.943 127.472 126.313C127.173 125.747 126.307 126.247 126.607 126.813Z" fill="#323232"/>
<path d="M125.609 125.015C127.14 128.011 128.804 130.973 131.734 132.804C132.233 133.104 132.732 132.438 132.333 132.005C131.367 130.973 130.369 129.942 129.437 128.91C129.204 129.143 128.971 129.376 128.738 129.609C129.304 130.208 129.903 130.774 130.568 131.24C130.802 131.406 131.534 131.739 131.667 131.939C131.867 132.272 131.667 132.804 131.567 133.137C131.9 133.237 132.2 133.304 132.532 133.403C132.566 133.237 132.566 133.07 132.599 132.937C132.666 132.505 132.133 132.039 131.767 132.438C131.767 132.072 131.667 131.706 131.434 131.406C131.134 131.573 130.868 131.739 130.568 131.905C130.935 132.405 131.301 132.904 131.667 133.403C131.933 133.204 132.2 133.004 132.466 132.804C132.166 132.471 131.933 132.138 131.7 131.772C131.401 131.34 130.568 131.606 130.802 132.172C131.001 132.604 131.068 132.771 131.367 133.137C131.767 133.636 132.466 132.937 132.066 132.438C131.967 132.272 131.867 132.105 131.767 131.905C131.467 132.039 131.168 132.172 130.868 132.305C131.168 132.738 131.467 133.137 131.8 133.537C132.166 133.969 132.932 133.403 132.599 132.937C132.233 132.438 131.867 131.939 131.501 131.439C131.134 130.907 130.369 131.373 130.635 131.939C130.968 132.604 131.634 134.169 132.532 133.17C132.266 133.004 131.967 132.837 131.7 132.671C131.667 132.837 131.667 133.004 131.634 133.137C131.534 133.77 132.433 134.036 132.599 133.403C132.832 132.604 133.398 132.238 132.732 131.439C132.433 131.073 131.933 130.907 131.567 130.674C130.801 130.175 130.136 129.575 129.503 128.91C129.071 128.444 128.372 129.143 128.804 129.609C129.77 130.641 130.735 131.672 131.7 132.704C131.9 132.438 132.1 132.172 132.299 131.905C129.537 130.175 128.005 127.312 126.541 124.483C126.175 123.917 125.309 124.449 125.609 125.015Z" fill="#323232"/>
<path d="M157.664 109.004C156.998 111.967 155.633 116.361 152.504 120.888C147.012 128.843 139.556 132.205 136.36 133.437C134.529 132.738 132.133 131.506 129.869 129.409C123.678 123.65 123.212 115.761 123.145 113.731C122.48 113.564 121.514 113.198 120.682 112.399C118.552 110.336 118.053 106.241 120.016 104.544C122.247 102.613 126.507 104.977 126.973 105.21C128.005 105.775 128.738 106.474 129.204 107.007C131.034 101.481 135.428 97.3206 140.654 96.4552C147.777 95.2901 155.567 100.483 157.664 109.004Z" fill="white" stroke="#323232" stroke-width="2"/>
<path d="M149.606 116.96C148.275 119.956 146.311 122.519 143.781 124.616C143.282 125.015 143.981 125.714 144.48 125.315C147.11 123.184 149.107 120.555 150.472 117.459C150.738 116.86 149.873 116.361 149.606 116.96Z" fill="#323232"/>
<path d="M142.517 122.385C142.384 123.517 142.784 124.616 143.549 125.448C143.982 125.914 144.681 125.215 144.248 124.749C143.649 124.083 143.416 123.284 143.516 122.385C143.583 121.753 142.584 121.753 142.517 122.385Z" fill="#323232"/>
<path d="M140.488 116.693C141.353 115.495 142.385 114.43 143.55 113.465C143.284 113.298 142.984 113.132 142.718 112.965C142.285 114.297 141.353 115.362 140.122 116.028C140.322 116.294 140.521 116.56 140.721 116.827C141.487 115.895 142.252 114.996 143.018 114.064C143.417 113.565 142.718 112.866 142.319 113.365C141.553 114.297 140.788 115.196 140.022 116.128C139.656 116.56 140.122 117.193 140.621 116.926C142.086 116.128 143.151 114.829 143.683 113.265C143.85 112.732 143.217 112.499 142.851 112.766C141.62 113.764 140.555 114.896 139.656 116.194C139.256 116.727 140.122 117.226 140.488 116.693Z" fill="#323232"/>
<path d="M151.539 119.623C151.971 118.89 152.537 118.258 153.17 117.692C152.904 117.526 152.604 117.359 152.338 117.193C152.038 118.191 151.439 119.09 150.573 119.723C150.806 119.922 151.073 120.089 151.306 120.288C151.505 119.756 151.805 119.257 152.171 118.824C152.571 118.324 151.872 117.625 151.472 118.125C151.006 118.724 150.64 119.323 150.374 120.022C150.207 120.422 150.773 120.854 151.106 120.588C152.171 119.789 152.937 118.757 153.303 117.492C153.469 116.993 152.837 116.693 152.471 116.993C151.772 117.592 151.173 118.324 150.673 119.123C150.307 119.656 151.173 120.155 151.539 119.623Z" fill="#323232"/>
<path d="M137.058 114.23C137.558 115.395 137.824 116.594 137.824 117.825C137.824 118.158 138.323 118.158 138.323 117.825C138.323 116.494 138.024 115.196 137.491 113.964C137.358 113.664 136.925 113.931 137.058 114.23Z" fill="#323232"/>
<path d="M135.662 113.365C135.995 113.897 136.228 114.43 136.428 114.996C136.528 115.295 136.994 115.162 136.894 114.863C136.694 114.23 136.428 113.664 136.095 113.098C135.929 112.832 135.496 113.098 135.662 113.365Z" fill="#323232"/>
<path d="M143.352 110.635C144.583 110.269 145.748 111.101 145.782 112.399C145.782 112.865 146.547 112.899 146.547 112.399C146.481 110.635 144.883 109.437 143.152 109.903C142.686 110.036 142.886 110.768 143.352 110.635Z" fill="#323232"/>
<path d="M152.271 115.528C152.804 115.196 153.436 115.162 154.002 115.495C154.402 115.761 154.801 115.096 154.368 114.863C153.603 114.397 152.637 114.397 151.905 114.896C151.506 115.162 151.872 115.795 152.271 115.528Z" fill="#323232"/>
<path d="M136.026 124.083C136.825 125.514 138.19 126.546 139.787 126.979C140.42 127.145 140.686 126.18 140.054 126.014C138.689 125.648 137.591 124.815 136.891 123.584C136.559 123.018 135.693 123.517 136.026 124.083Z" fill="#323232"/>
<path d="M129.17 108.339C129.902 107.074 131.666 104.377 135.061 102.513C137.391 101.215 139.588 100.849 140.92 100.716C141.652 101.681 142.85 102.946 144.615 103.745C148.775 105.642 152.137 103.146 154.601 104.81C155.899 105.676 157.197 107.773 156.698 113.498C158.895 115.761 160.359 115.895 161.158 115.728C164.487 115.062 166.883 107.573 164.786 102.114C164.154 100.483 163.322 99.5509 156.265 93.9254C146.312 86.0032 145.081 85.5372 143.782 85.2376C136.925 83.6399 130.867 87.1017 129.835 87.7009C128.504 88.4664 128.204 88.8326 120.582 96.8547C114.657 103.079 114.091 103.645 113.558 105.176C112.16 109.038 112.426 114.63 115.988 118.724C119.35 122.552 123.877 123.118 125.042 123.251C124.543 122.119 124.01 120.521 123.744 118.558C123.411 116.028 123.744 113.931 124.043 112.566C123.81 112.4 122.479 111.301 122.379 109.437C122.313 108.072 122.945 106.341 124.41 105.775C126.041 105.143 128.271 106.108 129.17 108.339Z" fill="#003986"/>
<path d="M127.739 91.5954C126.374 88.8992 122.38 88.4997 121.681 88.4332C116.122 87.8673 111.662 92.827 109.032 95.7229C104.372 100.882 105.703 102.414 101.176 108.638C95.1849 116.893 90.6912 117.259 89.7591 122.951C89.6926 123.384 88.8604 129.109 92.6551 132.571C95.9172 135.567 101.176 135.6 104.638 133.803C109.332 131.373 108.932 126.48 112.327 118.258C118.985 102.214 130.369 96.7881 127.739 91.5954Z" fill="#003986"/>
<path opacity="0.12" d="M133.098 103.712C132.032 106.375 130.768 110.602 130.834 115.895C130.934 124.35 134.396 130.541 136.127 133.204C134.229 132.405 131.067 130.707 128.304 127.379C127.173 126.014 124.51 122.785 123.811 117.825C123.478 115.595 123.677 113.731 123.877 112.466C123.677 112.3 122.313 111.068 122.379 109.138C122.413 107.873 123.078 106.175 124.51 105.676C126.107 105.11 128.304 106.142 129.17 108.372C129.503 107.706 129.969 106.874 130.668 106.009C131.533 104.977 132.399 104.244 133.098 103.712Z" fill="#666666"/>
<path opacity="0.13" d="M127.239 128.078C126.973 128.677 126.673 129.276 126.307 129.875C124.642 132.671 122.479 134.535 120.781 135.667C120.182 135.301 119.383 134.735 118.584 133.869C117.719 132.937 117.186 132.005 116.887 131.34C118.185 130.94 121.414 129.709 123.611 126.48C124.376 125.315 124.842 124.183 125.109 123.251C125.808 124.882 126.507 126.48 127.239 128.078Z" fill="#666666"/>
<path opacity="0.18" d="M124.311 111.9C124.478 114.197 124.911 117.193 126.042 120.555C127.607 125.115 129.87 128.477 131.601 130.607C129.87 129.209 127.807 127.112 126.142 124.183C125.044 122.219 123.413 119.39 123.612 115.529C123.679 114.031 124.012 112.766 124.311 111.9Z" fill="#666666"/>
<path opacity="0.32" d="M129.405 88.533C128.007 89.8978 119.286 98.6854 120.484 111.168C120.984 116.494 123.114 120.521 124.645 122.885C123.58 122.818 121.516 122.585 119.286 121.287C117.056 119.989 115.791 118.291 115.225 117.426C114.792 116.727 114.26 115.595 113.927 114.164C113.927 114.164 113.328 111.368 114.426 107.906C115.591 104.111 120.85 96.7215 129.405 88.533Z" fill="#002C66"/>
<path opacity="0.33" d="M111.395 93.9255C112.161 94.4248 107.933 103.312 103.273 111.068C99.0792 118.025 97.0154 119.956 96.7158 124.216C96.4162 128.643 98.2803 132.438 99.9446 135.001C99.1124 135.068 95.9835 135.168 93.254 133.004C91.7561 131.806 90.9572 130.408 90.5911 129.542C89.7922 127.212 89.0932 123.817 90.4912 120.621C91.4232 118.458 92.5217 118.291 95.9502 114.829C98.9793 111.767 101.975 108.738 104.172 104.244C105.304 101.948 105.703 100.283 107.634 97.6868C108.899 95.9559 110.962 93.6259 111.395 93.9255Z" fill="#002C66"/>
</svg>
