<svg xmlns="http://www.w3.org/2000/svg" width="143" height="160" viewBox="0 0 143 160" fill="none">
  <g clip-path="url(#clip0_7201_300)">
    <path d="M138.953 4.85783C138.194 4.48518 138.101 3.95282 137.862 3.7665C137.502 3.51363 137.023 3.64672 136.77 3.97944C133.47 8.0919 130.196 12.2044 126.895 16.3168C126.682 16.5963 126.749 17.0355 126.948 17.2751C127.321 17.7143 127.68 18.6459 130.062 18.606C130.435 18.606 130.741 18.566 130.968 18.2999C134.308 14.2939 138.154 8.8372 141.774 5.07077C142.387 4.41864 139.339 5.64306 138.953 4.85783Z" fill="#EC615B"/>
    <path opacity="0.19" d="M138.647 5.05738C134.947 8.91697 131.38 12.923 127.946 17.0354C128.252 16.9423 128.545 16.8358 128.865 16.7293C128.572 16.6228 128.359 16.4498 128.146 16.2103C128.159 16.5297 128.186 16.8358 128.199 17.1685C131.5 13.056 134.774 8.94359 138.074 4.83113C137.715 4.89767 137.342 4.96422 136.983 5.04407C137.236 5.21709 137.489 5.39011 137.742 5.57643C137.675 5.21709 137.609 4.84444 137.529 4.4851C136.038 6.18864 134.667 7.95873 133.403 9.83529C132.831 10.6738 134.148 11.5521 134.707 10.7137C135.972 8.85043 137.342 7.06703 138.833 5.36349C139.113 5.04407 138.926 4.4851 138.62 4.27215C138.367 4.09914 138.114 3.92612 137.862 3.7398C137.502 3.47362 137.036 3.62002 136.77 3.95274C133.47 8.0652 130.196 12.1777 126.895 16.2901C126.682 16.5696 126.749 16.9955 126.948 17.2484C127.321 17.6876 127.787 18.007 128.332 18.2199C128.678 18.3663 129.011 18.18 129.251 17.9138C132.591 13.9078 136.078 10.0083 139.685 6.24188C140.39 5.48327 139.352 4.28546 138.66 5.03076L138.647 5.05738Z" fill="#3D3D3D"/>
    <path d="M141.987 5.15052C142.32 3.52683 142.639 1.91645 142.959 0.292763C143.012 0.0532017 142.639 -0.0798876 142.586 0.159673C142.254 1.78336 141.934 3.39374 141.615 5.01743C141.561 5.25699 141.934 5.39008 141.987 5.15052Z" fill="#161616"/>
    <path d="M142.387 0.026638C140.776 1.03812 139.166 2.0496 137.542 3.06107C137.329 3.19416 137.502 3.5402 137.715 3.40711C139.326 2.39563 140.936 1.38415 142.56 0.37267C142.773 0.239581 142.6 -0.106451 142.387 0.026638Z" fill="#161616"/>
    <path d="M141.748 4.91098C137.542 9.8486 133.403 14.8261 129.33 19.8569C129.171 20.0566 129.504 20.2695 129.663 20.0699C133.736 15.0391 137.875 10.0482 142.08 5.12393C142.24 4.9376 141.907 4.72466 141.748 4.91098Z" fill="#161616"/>
    <path d="M137.023 3.62009C133.163 8.09189 129.41 12.6569 125.75 17.2884C125.591 17.488 125.923 17.7009 126.083 17.5013C129.743 12.8698 133.496 8.30483 137.356 3.83303C137.529 3.64671 137.196 3.43376 137.023 3.62009Z" fill="#161616"/>
    <path d="M129.45 19.8703C128.758 20.9749 127.946 22.3325 126.576 22.6253C125.205 22.9181 123.954 21.8134 124.02 20.416C124.034 20.1631 123.648 20.1365 123.634 20.3894C123.554 21.7336 124.619 23.0245 126.003 23.0778C127.827 23.1443 128.958 21.4674 129.796 20.0966C129.929 19.8836 129.597 19.6707 129.464 19.8836L129.45 19.8703Z" fill="#161616"/>
    <path d="M125.671 17.3283C124.939 18.2732 124.273 19.258 123.674 20.2961C123.541 20.5091 123.874 20.722 124.007 20.5091C124.606 19.471 125.285 18.4861 126.003 17.5412C126.15 17.3549 125.817 17.1286 125.671 17.3283Z" fill="#161616"/>
    <path d="M129.783 19.2447C128.213 20.163 126.309 19.4976 125.671 17.794C125.577 17.5545 125.231 17.7408 125.324 17.967C126.043 19.8569 128.239 20.6155 129.969 19.5907C130.182 19.4576 130.009 19.1116 129.796 19.2447H129.783Z" fill="#161616"/>
    <path d="M130.555 18.1135C129.197 18.8588 127.308 18.1934 126.802 16.6894C126.722 16.4499 126.336 16.5297 126.416 16.7693C127.015 18.4862 129.118 19.3512 130.728 18.4595C130.941 18.3264 130.768 17.9804 130.555 18.1135Z" fill="#161616"/>
    <path d="M142.001 4.73796C141.308 4.25884 140.537 5.15054 139.791 5.0973C139.232 5.04407 138.727 4.75127 138.434 4.25884C138.221 3.8995 138.128 3.56678 137.755 3.35383C137.542 3.22075 137.329 3.55347 137.542 3.68656C137.968 3.95274 138.061 4.53833 138.42 4.88436C138.673 5.12392 138.966 5.29694 139.299 5.40341C139.632 5.50988 139.991 5.52319 140.324 5.46996C140.75 5.3901 141.402 4.81782 141.774 5.084C141.987 5.23039 142.2 4.89767 142.001 4.75127V4.73796Z" fill="#161616"/>
    <path d="M139.818 5.31028C136.956 8.61089 134.082 11.9248 131.207 15.2387C131.034 15.4251 131.367 15.638 131.54 15.4517C134.401 12.1511 137.276 8.83714 140.151 5.52322C140.31 5.33689 139.978 5.12395 139.818 5.31028Z" fill="#161616"/>
    <path d="M135.506 7.65265C132.818 11.0997 129.996 14.4136 127.015 17.621C126.842 17.8074 127.108 18.1002 127.268 17.9138C130.262 14.6798 133.124 11.3392 135.825 7.86559C135.972 7.66595 135.639 7.45301 135.493 7.65265H135.506Z" fill="#161616"/>
    <path d="M142.387 1.27771C142.12 1.46404 141.774 1.23779 141.854 0.918373C141.921 0.678812 141.548 0.545723 141.482 0.785284C141.402 1.09139 141.482 1.42411 141.774 1.62375C142.054 1.81007 142.4 1.77014 142.653 1.57051C142.852 1.42411 142.586 1.13132 142.387 1.27771Z" fill="#161616"/>
    <path d="M142.267 1.31759C142.347 1.05141 142.48 0.811851 142.666 0.598908C142.56 0.532363 142.453 0.452509 142.347 0.385965C142.254 0.665452 142.081 0.905013 141.841 1.10465C141.947 1.11796 142.054 1.14457 142.147 1.15788C142.094 1.01148 142.147 0.851777 142.293 0.785233C142.2 0.745306 142.107 0.69207 142.014 0.652143C142.054 0.838468 142.014 1.01148 141.881 1.14457C141.961 1.14457 142.041 1.13127 142.12 1.14457C142.014 1.09134 142.041 0.94494 142.147 0.891704C142.067 0.878395 141.987 0.851777 141.908 0.851777C141.987 0.918322 142.041 0.998176 142.081 1.10465C142.081 1.14457 142.107 1.1845 142.107 1.23774C142.107 1.26435 142.107 1.54384 142.16 1.46399C142.293 1.25105 141.961 1.0381 141.828 1.25105C141.628 1.58377 142.067 1.90318 142.347 1.65031C142.64 1.37083 142.427 0.851777 142.174 0.612217C142.107 0.545672 142.027 0.519054 141.934 0.57229C141.561 0.731997 141.522 1.27766 141.868 1.50392C141.934 1.54384 142.054 1.55715 142.107 1.50392C142.333 1.26435 142.427 0.958249 142.373 0.638834C142.36 0.519054 142.2 0.4392 142.094 0.505745C141.761 0.678761 141.641 1.06472 141.774 1.39744C141.814 1.51722 141.987 1.53053 142.081 1.45068C142.373 1.22443 142.573 0.918322 142.693 0.57229C142.759 0.399274 142.52 0.212949 142.373 0.359347C142.147 0.625526 141.974 0.905013 141.854 1.23774C141.788 1.45068 142.16 1.58377 142.24 1.34421L142.267 1.31759Z" fill="#161616"/>
    <path d="M46.6421 124.093C49.2241 120.699 51.8725 117.292 55.639 115.162C56.0382 114.949 55.6922 114.324 55.2796 114.537C51.4067 116.733 48.6651 120.246 46.0166 123.733C45.7504 124.093 46.376 124.452 46.6421 124.093Z" fill="#E8E8E8"/>
    <path d="M34.7039 120.685C30.6181 121.67 26.5189 122.642 22.4331 123.627C24.5625 137.042 26.2262 143.736 27.3973 143.63C28.3955 143.563 29.0476 138.546 29.3271 128.591C31.5897 127.806 33.8655 127.034 36.128 126.249C35.6489 124.412 35.1698 122.549 34.6906 120.685H34.7039Z" fill="#161616"/>
    <path d="M27.3575 143.989C26.7586 143.989 26.0399 143.271 24.922 138.772C24.0835 135.418 23.1253 130.334 22.0739 123.667L22.0206 123.334L22.34 123.254C24.2965 122.788 26.2662 122.309 28.2359 121.843C30.3653 121.338 32.4948 120.832 34.6109 120.313L34.9569 120.233L35.0501 120.579C35.5292 122.442 36.0083 124.305 36.4874 126.142L36.5673 126.461L36.2612 126.568C35.1299 126.967 33.9854 127.353 32.8541 127.739C31.8027 128.098 30.738 128.458 29.6866 128.83C29.5402 133.675 29.3139 137.388 28.9945 139.85C28.542 143.417 27.9697 143.936 27.4241 143.976C27.3974 143.976 27.3841 143.976 27.3575 143.976V143.989ZM22.8325 123.893C23.8306 130.188 24.749 135.032 25.5475 138.306C26.6788 142.965 27.3176 143.257 27.3841 143.271C27.6503 143.151 28.5952 141.753 28.9812 128.578V128.325L29.2208 128.245C30.352 127.846 31.4966 127.46 32.6278 127.074C33.6526 126.728 34.6907 126.368 35.7155 126.009C35.2896 124.385 34.8771 122.748 34.4512 121.111C32.4415 121.59 30.4319 122.07 28.4089 122.562C26.5457 123.001 24.6957 123.454 22.8325 123.893Z" fill="#161616"/>
    <path d="M62.6128 70.6572C62.0937 72.2276 61.2952 74.743 60.4833 77.9105C58.7931 84.5251 58.7133 87.3466 56.9964 95.7445C54.9468 105.753 53.8954 107.47 53.23 108.441C50.1955 112.793 45.9899 114.763 43.7008 115.841C38.1643 118.45 33.0004 118.676 29.9527 118.569C29.8329 119.98 29.7131 123.414 31.7627 126.874C32.7875 128.591 34.0119 129.762 34.9435 130.507C38.0179 130.68 43.3281 130.561 49.2905 128.245C51.8459 127.26 58.3672 124.638 63.3315 118.117C67.1511 113.099 68.2025 108.202 69.3737 102.718C71.6362 92.1378 68.8281 90.5407 71.6362 81.5572C73.3265 76.1138 75.2829 73.4387 73.8988 71.4291C72.2484 68.9669 67.0713 69.6191 62.5995 70.6439L62.6128 70.6572Z" fill="#EC615B"/>
    <path opacity="0.09" d="M62.9057 70.6837C62.6661 73.239 62.3068 76.7659 61.801 80.9715C61.3485 84.6714 60.8428 88.6774 60.0309 93.3621C58.6202 101.387 57.9015 105.393 56.3843 108.734C55.0534 111.649 52.4715 117.039 46.549 121.125C40.387 125.357 34.012 125.756 31.1772 125.783C30.8444 125.024 30.5117 124.039 30.2988 122.921C29.9927 121.298 29.9927 119.887 30.0858 118.835C31.9225 118.862 34.4512 118.716 37.3924 118.077C42.5031 116.932 45.9102 114.856 46.8019 114.31C48.9712 112.953 51.247 111.542 53.1103 108.774C54.3746 106.911 54.907 105.22 55.7588 101.68C57.0231 96.4764 57.6753 93.8945 58.1943 90.0748C58.7666 85.6563 60.0309 79.2147 62.919 70.6837H62.9057Z" fill="#3D3D3D"/>
    <path opacity="0.12" d="M30.1257 118.769C30.0325 119.82 29.9793 121.258 30.312 122.895C30.5516 124.106 30.9109 125.117 31.2436 125.903C34.5176 125.21 44.8054 122.589 51.1804 113.179C53.0703 110.384 54.1882 107.643 54.8803 105.274C54.2415 106.778 53.1102 108.974 51.1272 111.103C47.7068 114.75 43.794 116.094 40.9858 117.052C38.6035 117.891 34.877 118.849 30.1257 118.769Z" fill="#3D3D3D"/>
    <path d="M60.8693 142.605C59.006 147.742 57.1428 152.866 55.2795 158.03C68.3622 159.561 75.03 159.774 75.2696 158.629C75.4559 157.751 71.5963 156.007 63.7174 153.452C64.7954 150.271 65.8868 147.104 66.9648 143.923C64.9418 143.497 62.9056 143.044 60.8826 142.605H60.8693Z" fill="#161616"/>
    <path d="M71.4899 159.707C71.0641 159.707 70.5982 159.707 70.0792 159.681C66.7786 159.574 61.7877 159.135 55.2397 158.376L54.7872 158.323L54.9469 157.897C56.8102 152.733 58.6734 147.609 60.5367 142.472L60.6432 142.179L60.9493 142.246C61.9607 142.459 62.9855 142.685 63.997 142.898C65.0085 143.124 66.02 143.337 67.0448 143.55L67.444 143.63L67.3109 144.016C66.7786 145.6 66.2329 147.197 65.6872 148.781C65.1815 150.258 64.6758 151.722 64.1833 153.199C67.9365 154.424 70.7979 155.475 72.6744 156.313C74.9236 157.325 75.7754 158.004 75.629 158.682C75.5226 159.215 74.9103 159.694 71.5033 159.694L71.4899 159.707ZM55.7721 157.724C61.8942 158.43 66.6189 158.855 69.8263 158.962C74.4578 159.122 74.8837 158.603 74.9236 158.549C74.897 158.376 74.205 157.232 63.5977 153.785L63.2517 153.678L63.3715 153.332C63.9039 151.748 64.4495 150.151 64.9952 148.568C65.5009 147.104 65.9934 145.653 66.4858 144.189C65.6074 144.003 64.7157 143.803 63.8373 143.617C62.919 143.417 62.014 143.217 61.0957 143.031C59.3256 147.929 57.5422 152.826 55.7721 157.737V157.724Z" fill="#161616"/>
    <path d="M80.2871 73.3722C80.5533 76.9124 80.7928 81.7302 80.7396 87.4131C80.6198 103.104 78.4904 114.869 77.8782 118.077C76.2811 126.462 73.5129 137.268 68.522 149.353C66.9516 149.419 63.052 149.38 59.1658 146.944C56.7835 145.44 55.2929 143.63 54.4811 142.406C55.9318 139.637 57.7285 135.977 59.4719 131.519C62.5463 123.64 63.8905 117.358 64.7423 113.232C66.6721 103.943 67.6569 99.3113 66.8717 94.3471C66.1131 89.649 64.862 88.8372 65.0617 84.8179C65.1149 83.9395 65.7005 73.6384 72.1553 71.682C75.4693 70.6971 78.7699 72.4273 80.3004 73.3722H80.2871Z" fill="#EC615B"/>
    <path opacity="0.14" d="M74.6308 71.5888C76.7602 72.4938 76.0681 78.4695 75.8685 80.0399C73.3132 102.532 76.8268 90.4209 73.7391 104.302C69.5068 123.361 63.8106 141.674 61.801 147.969C61.3218 147.969 60.6564 147.915 59.9377 147.583C59.2723 147.277 59.1259 146.864 58.314 146.225C57.4356 145.533 57.1162 145.586 56.4508 145.107C55.8519 144.681 55.1199 143.91 54.5875 142.499C55.8253 140.063 57.3159 136.936 58.8198 133.169C60.7363 128.391 61.7743 124.758 62.9322 120.845C62.9322 120.845 66.5123 108.494 67.1645 99.0717C67.2842 97.1818 67.1911 95.8909 67.0447 94.9593C66.8317 93.482 66.5256 92.7367 66.0465 90.9666C65.9267 90.5141 65.2613 87.9321 65.0483 86.0023C64.4494 80.2928 67.4839 75.7145 68.9212 74.0642C69.427 73.4653 70.0924 72.8265 71.0507 72.3208C71.41 72.1477 73.4862 71.083 74.6574 71.5755L74.6308 71.5888Z" fill="#3D3D3D"/>
    <path opacity="0.11" d="M69.1608 110.438C68.7482 116.24 67.3907 117.957 63.4246 132.211C61.6812 138.466 60.3902 143.603 59.5517 146.891C58.8863 146.625 58.0478 146.199 57.1827 145.533C55.8918 144.535 55.1332 143.43 54.694 142.672C55.8918 140.21 57.4888 136.696 59.046 132.331C59.6715 130.614 60.0708 129.296 60.4567 128.099C65.9001 110.637 66.7652 105.34 67.018 101.72C67.231 98.6458 67.0713 96.1571 67.018 95.3719C66.7785 92.0712 66.2062 89.8087 66.2062 89.8087C66.2062 89.8087 69.9327 99.1649 69.1475 110.438H69.1608Z" fill="#3D3D3D"/>
    <path d="M38.9762 62.6985C39.0294 62.6319 39.269 62.6452 39.7348 62.6985C40.5466 62.765 40.8128 62.8848 41.3318 62.938C41.8376 62.9646 42.503 63.0046 42.6894 62.6985C42.9555 62.2859 42.1171 61.5007 40.9459 59.8104C38.9362 56.949 39.0294 55.9375 39.2024 55.485C39.2556 55.3652 39.3887 54.9127 39.7081 54.8462C40.1207 54.753 40.5732 55.2987 40.9991 55.8444C41.7178 56.7227 41.9973 57.4148 42.0771 57.3749C42.2235 57.3216 41.3851 55.5383 41.5714 53.3423C41.6246 52.7434 41.7178 51.8916 42.1437 51.7718C42.5296 51.652 43.1019 52.1312 43.5544 52.8898C43.5544 52.7966 43.6742 51.479 44.1267 51.3859C44.4861 51.3193 44.8853 52.0114 45.2979 52.6768C45.6306 53.2225 45.8436 53.7282 45.9633 54.061C45.9367 53.3955 46.2961 52.8498 46.8018 52.6768C47.3475 52.5038 47.8532 52.943 47.8798 52.9696C48.4255 53.4754 48.3856 54.3538 48.3856 54.6599C48.3323 56.0174 48.4787 58.3198 48.7982 61.6604C49.4237 61.4208 50.3287 60.9949 51.3268 60.3295C52.3516 59.6374 53.4297 58.7324 56.0781 55.5516C57.1029 54.3138 57.6353 53.6883 58.5403 52.4772C61.8143 48.1119 63.7441 45.5299 65.7005 41.87C66.326 40.6988 67.3242 38.7158 69.4004 36.9457C70.0658 36.3734 71.3834 35.2954 72.142 35.7079C72.6877 36.0007 72.7409 36.9057 72.7143 38.2366C72.6877 41.1513 72.6611 42.5887 72.1686 44.5584C71.0241 49.1367 68.8946 52.3441 68.4155 53.0628C66.5257 55.831 64.6491 57.4281 62.2136 59.5043C59.6849 61.647 57.5821 63.4171 54.2681 64.7613C52.0988 65.6264 50.3819 65.9325 48.5586 66.2653C45.5508 66.7843 43.9936 67.0505 42.4498 66.385C40.2272 65.4268 38.7233 63.0711 38.9895 62.7118L38.9762 62.6985Z" fill="white"/>
    <path d="M72.0488 35.3619C69.4669 35.7212 67.9364 38.1301 66.5522 40.1131C64.7822 42.6418 63.1185 45.2504 61.3884 47.8057C59.6715 50.3876 57.8748 52.9163 55.8519 55.2853C54.867 56.4033 53.8688 57.5079 52.7775 58.5061C51.5531 59.6507 50.2222 60.9683 48.6251 61.5139C48.1992 61.6603 48.3856 62.3524 48.8114 62.206C51.3135 61.3675 53.4429 58.9852 55.1864 57.0954C57.1961 54.926 58.9795 52.557 60.683 50.1215C62.3999 47.6327 64.0502 45.0774 65.7271 42.5753C67.2975 40.2329 69.1608 36.4931 72.2485 36.0539C72.701 35.9874 72.5147 35.3086 72.0621 35.3619H72.0488Z" fill="black"/>
    <path d="M49.4636 66.6512C52.5247 66.3584 55.0933 64.961 57.6486 63.3373C60.1773 61.7402 62.5862 59.9036 64.7423 57.8008C67.5105 55.1257 69.8529 51.9448 71.4101 48.3914C72.9406 44.8379 73.6593 40.9383 73.1535 37.0788C73.1003 36.6263 72.3949 36.6263 72.4348 37.0788C73.2467 43.5469 70.6648 49.9751 66.5124 54.8861C64.6491 57.0821 62.4798 59.0119 60.1906 60.742C57.0364 63.0844 53.4563 65.5865 49.4503 65.9724C49.0244 65.9991 49.0244 66.7177 49.4769 66.6645L49.4636 66.6512Z" fill="black"/>
    <path d="M49.4636 65.9058C48.0529 65.8792 46.6953 66.2119 45.3112 66.3184C43.7141 66.4382 42.3699 65.959 41.0657 65.0807C40.5466 64.7213 39.961 64.2954 39.6283 63.7231C38.9362 62.512 40.3736 63.2174 40.866 63.3638C41.6779 63.6034 42.4232 63.5102 43.0354 62.9512C43.3947 62.6451 42.8624 62.1394 42.5297 62.4455C41.4516 63.4037 39.4553 61.2743 38.7366 62.4987C38.1909 63.4303 39.4553 64.7612 40.0675 65.267C41.1455 66.1454 42.4498 66.864 43.8606 67.0371C45.7238 67.25 47.587 66.6112 49.4503 66.6511C49.9028 66.6245 49.9028 65.9058 49.4503 65.9058H49.4636Z" fill="black"/>
    <path d="M43.0886 62.5387C42.6095 60.9417 41.5315 59.7039 40.6797 58.2932C40.5599 58.1069 39.1226 55.4983 39.6017 55.2854C40.4401 54.8994 41.6246 57.3083 41.7977 57.7875C41.944 58.2133 42.6361 58.027 42.4897 57.6011C42.1038 56.4965 41.4383 55.4717 40.4401 54.8063C39.9211 54.4469 39.1492 54.1807 38.9096 54.9926C38.6035 56.0972 39.4153 57.5745 39.961 58.4795C40.8261 59.8903 41.944 61.1014 42.4232 62.7251C42.543 63.1776 43.235 62.9913 43.0886 62.5387Z" fill="black"/>
    <path d="M42.7027 57.5744C42.4897 56.696 42.1969 55.7777 42.0638 54.8727C41.9707 54.327 41.9441 53.7681 41.9973 53.2224C42.0638 52.5037 42.2102 51.785 42.7825 52.6235C43.6609 53.9411 43.9537 55.7245 44.3796 57.2018C44.4994 57.6543 45.1914 57.468 45.0717 57.0155C44.7123 55.7511 44.4328 54.4069 43.9005 53.1958C43.6343 52.5969 43.0354 51.266 42.2102 51.266C41.3851 51.266 41.3319 52.5969 41.2786 53.1958C41.1588 54.7529 41.638 56.2302 42.0239 57.7075C42.1171 58.2133 42.8091 58.0136 42.716 57.5611L42.7027 57.5744Z" fill="black"/>
    <path d="M44.3796 54.1807C44.2598 53.6749 44.0202 52.8498 44.2065 52.3441C44.5659 51.4124 45.0849 53.0893 45.2313 53.4487C45.7504 54.713 46.0432 56.0572 46.1097 57.4148C46.1363 57.8673 46.855 57.8673 46.8284 57.4148C46.7352 56.0972 46.5223 54.8328 46.0698 53.6217C45.8036 52.8764 45.431 51.5721 44.7123 51.1596C43.0886 50.2279 43.5411 53.808 43.6609 54.4069C43.7807 54.8328 44.4727 54.6465 44.3796 54.194V54.1807Z" fill="black"/>
    <path d="M46.7885 55.0192C46.7619 54.7796 46.6022 53.4886 46.8817 53.2491C47.6669 52.557 47.8799 53.8214 47.9863 54.2073C48.1594 55.0192 48.1327 55.9242 48.1993 56.7626C48.3191 58.4795 48.4389 60.183 48.5586 61.8999C48.5853 62.3524 49.3039 62.3524 49.2773 61.8999C49.1575 60.183 49.0378 58.4795 48.918 56.7626C48.8514 55.5648 48.9446 53.9944 48.3191 52.9164C47.9863 52.3441 47.4141 51.8117 46.7486 52.2509C45.8835 52.8232 46.0033 54.3537 46.1231 55.2055C46.1763 55.658 46.8684 55.4717 46.7885 55.0192Z" fill="black"/>
    <path opacity="0.09" d="M72.315 36.2003C72.1953 36.2003 72.2884 38.0902 71.5564 40.712C70.9841 42.7217 70.0525 44.6249 67.0447 48.5909C64.2764 52.2376 62.2668 54.8994 58.7798 58.0004C54.9602 61.4208 53.0437 63.111 50.4218 63.7498C44.7389 65.1606 39.5085 61.8866 39.0028 62.9912C38.7366 63.5901 40.174 64.7879 40.7196 65.1872C41.4117 65.6929 42.7426 66.4781 45.8968 66.5181C49.264 66.5713 51.8459 65.7595 52.4182 65.5598C58.487 63.5502 62.4664 59.5841 64.5958 57.3881C67.4173 54.5267 69.7065 52.1844 71.2104 48.2715C73.6193 42.1893 72.5413 36.187 72.315 36.187V36.2003Z" fill="#3D3D3D"/>
    <path opacity="0.13" d="M71.836 45.4234C71.6629 45.3302 70.6648 46.9939 69.2274 48.9769C69.2274 48.9769 65.7937 53.7548 61.3485 57.814C58.913 60.0366 54.4678 63.4703 47.4274 66.172C48.878 66.2652 51.0607 66.2253 53.4696 65.4134C54.2282 65.1472 56.1447 64.4286 60.7496 60.4226C64.4229 57.2284 66.4858 55.4583 68.5353 52.3574C70.7579 49.0434 72.0755 45.5565 71.836 45.4367V45.4234Z" fill="#3D3D3D"/>
    <path d="M74.8171 32.74C73.3132 33.259 72.3816 34.1906 71.3968 35.1755C68.6684 37.9171 67.6969 41.0314 66.9249 43.5335C64.6358 51.0797 63.4646 54.8328 62.9323 58.1201C62.3067 61.8732 61.7877 66.8375 61.9474 72.7067C63.1851 73.5718 64.9552 74.6631 67.2044 75.6213C69.7864 76.726 72.1021 77.6975 75.0833 77.458C76.2811 77.3648 78.3307 77.0321 80.6198 75.6213C80.7396 74.0642 81.0058 71.6553 81.6979 68.8205C82.8957 63.7764 84.1866 62.3257 86.2761 56.0705C87.9264 51.1329 88.7383 48.5909 88.6185 45.5698C88.5253 43.4403 88.3257 39.288 85.1981 36.0406C82.8158 33.5784 78.5303 31.4357 74.7905 32.74H74.8171Z" fill="white"/>
    <path d="M73.7391 32.8997C70.8777 34.6165 69.1343 37.4779 67.6969 40.4192C66.1664 43.6 65.0218 46.9406 64.1833 50.3743C62.4399 57.5345 62.014 64.9609 61.7212 72.3207C61.6946 72.7732 62.4132 72.7732 62.4399 72.3207C62.706 65.3069 63.1053 58.2532 64.6891 51.3858C65.4477 48.0186 66.4991 44.7047 67.9631 41.5505C69.3738 38.4761 71.1173 35.2953 74.0985 33.5252C74.4844 33.2856 74.1251 32.6601 73.7391 32.8997Z" fill="black"/>
    <path d="M82.9888 34.4568C85.6905 36.5596 87.5537 39.5142 88.1526 42.8814C88.8181 46.7277 87.8865 50.6405 86.5955 54.2472C85.3578 57.7341 83.7341 61.0481 82.6028 64.5882C81.4849 68.0486 80.7928 71.6553 80.5 75.2886C80.4468 75.7411 81.1655 75.7411 81.2187 75.2886C81.5514 71.2028 82.4165 67.1702 83.8006 63.3239C85.1182 59.6506 86.8617 56.1371 87.9796 52.384C88.9778 49.0168 89.5102 45.3701 88.6717 41.8832C87.9264 38.729 86.0631 35.9341 83.5078 33.9777C83.1219 33.6716 82.6294 34.164 82.9888 34.4568Z" fill="black"/>
    <path d="M61.8808 72.7999C64.7688 75.3819 68.3489 77.0721 72.1952 77.6178C75.2563 78.0436 79.1957 78.0703 81.1921 75.3286C81.4582 74.9427 80.8327 74.5833 80.5665 74.9693C78.5569 77.6976 74.125 77.3383 71.2104 76.7394C67.9097 76.0739 64.8886 74.5168 62.3732 72.2942C62.0405 71.9881 61.5348 72.4805 61.8675 72.7999H61.8808Z" fill="black"/>
    <path opacity="0.11" d="M77.9047 32.8331C78.7166 34.2439 75.7088 36.8391 73.393 40.8983C71.9157 43.4803 71.3434 45.7162 70.2122 50.2146C67.5903 60.7153 68.0827 72.6535 68.2957 76.1271C66.2461 75.0224 64.2099 73.9577 62.1603 72.8531C62.2534 70.5107 62.4531 67.1702 62.8257 63.1642C63.4512 56.8158 63.8106 53.3555 65.0217 48.8571C66.0997 44.9709 67.1511 41.3375 70.0125 37.438C71.8758 34.9093 73.8588 33.1658 75.2829 32.0612C76.1879 32.008 77.4522 32.0878 77.8914 32.8198L77.9047 32.8331Z" fill="#3D3D3D"/>
    <path opacity="0.15" d="M68.7749 40.0466C69.081 40.1398 67.8166 45.1306 65.7937 56.1637C64.4628 63.4038 64.1434 65.999 65.2214 69.2198C66.6055 73.3456 69.4004 75.8609 68.868 76.4066C68.5353 76.7393 67.0979 76.2602 62.1603 72.5603C62.0405 67.3565 62.3733 60.1697 64.4495 51.9315C66.0998 45.4101 68.4421 39.9268 68.7749 40.0466Z" fill="#3D3D3D"/>
    <path d="M91.054 22.9979C92.1719 24.0226 92.0388 26.0323 91.8126 28.9469C91.6662 30.9699 91.5996 32.008 90.9076 32.9796C89.4702 35.0025 86.2228 35.9341 83.6675 34.7896C83.3614 34.6432 81.7776 33.9112 80.9259 32.1145C79.6881 29.5325 80.9791 26.9506 81.232 26.4848C83.2416 22.7317 89.0443 21.1346 91.0407 22.9979H91.054Z" fill="#5222D0"/>
    <path d="M91.1072 9.79545C92.0122 9.98177 92.5579 11.2461 93.6625 13.8014C94.5942 15.9708 95.02 17.7409 95.2197 18.5793C95.5258 20.03 95.6988 21.2811 95.7653 22.2127C95.1265 22.399 94.4744 22.572 93.8355 22.7584C93.6891 23.5968 93.383 24.8345 92.7575 26.2187C91.8924 28.1352 91.1871 29.7722 89.5101 30.5441C87.5803 31.4225 85.5042 30.6372 84.8121 30.3045C84.5459 30.97 84.1733 31.7419 83.6675 32.5537C83.3082 33.126 82.9222 33.6051 82.5895 34.0044C80.4201 34.5501 79.4087 33.9778 79.036 33.6983C77.0264 32.221 77.1994 27.4431 80.2737 22.0397C80.1007 21.7735 79.8479 21.4008 79.5151 20.9616C78.8231 20.0966 78.5835 20.0833 78.2774 19.5775C78.1842 19.4311 77.4389 18.1668 78.0378 17.0222C78.3306 16.4765 78.9162 15.9974 79.595 15.9442C80.4068 15.8776 80.673 16.5165 81.3651 16.7028C82.5629 17.0621 83.8672 15.7712 87.1412 12.6968C89.8828 10.1149 90.4418 9.63574 91.1338 9.78214L91.1072 9.79545Z" fill="white"/>
    <path d="M93.3964 13.7082C94.5143 16.5297 95.233 19.4577 95.4992 22.4921C95.5258 22.8249 96.0714 22.8249 96.0448 22.4921C95.7787 19.4178 95.06 16.4233 93.9154 13.5618C93.7956 13.2291 93.2766 13.3755 93.3964 13.7082Z" fill="black"/>
    <path d="M95.6456 22.2525C95.0068 22.3191 94.3547 22.4255 93.7159 22.4921C93.3831 22.5453 93.3831 23.0644 93.7159 23.0377C94.3547 22.9712 95.0068 22.8647 95.6456 22.7982C95.9784 22.7316 95.9784 22.1993 95.6456 22.2525Z" fill="black"/>
    <path d="M93.5561 22.7316C93.1302 25.1139 92.1454 27.4297 90.5483 29.2796C88.6318 31.5288 85.6107 30.3577 83.2683 29.3994C82.9622 29.253 82.8158 29.7854 83.1219 29.9185C85.3179 30.8235 88.4721 32.0612 90.4551 30.158C92.4116 28.2948 93.5828 25.4999 94.0619 22.878C94.1284 22.5453 93.636 22.3989 93.5561 22.7316Z" fill="black"/>
    <path d="M84.4395 30.4243C83.9337 31.5688 83.3215 32.6468 82.6028 33.6716C82.4165 33.9644 82.869 34.2173 83.0553 33.9378C83.774 32.913 84.3862 31.8084 84.892 30.6904C85.0384 30.3843 84.5859 30.1182 84.4395 30.4243Z" fill="black"/>
    <path d="M83.0819 29.9983C83.4412 30.3843 83.8405 30.717 84.293 30.9565C84.5991 31.1296 84.8653 30.6637 84.5592 30.504C84.1333 30.2645 83.774 29.985 83.4412 29.6257C83.2283 29.3595 82.8423 29.7454 83.0819 30.0116V29.9983Z" fill="black"/>
    <path d="M91.3867 17.5945C91.2403 17.3017 91.2669 16.9556 91.4533 16.7161C91.3069 16.6628 91.1472 16.6495 91.0008 16.5963C91.0673 17.0089 91.0673 17.3815 91.054 17.7941C91.1472 17.7009 91.2403 17.6078 91.3202 17.5279C91.3468 17.5812 91.3734 17.6211 91.4133 17.6743C91.4799 17.3416 90.9608 17.1952 90.8943 17.5279C90.8277 17.8207 91.0141 18.0736 91.3202 18.0736C91.4932 18.0736 91.5864 17.9538 91.5864 17.8074C91.6396 17.3549 91.613 16.929 91.5331 16.4765C91.5065 16.2902 91.2004 16.2103 91.0806 16.3567C90.7213 16.8092 90.6547 17.3815 90.9342 17.8873C91.0806 18.1801 91.5597 17.9139 91.3867 17.5945Z" fill="black"/>
    <path d="M89.9627 14.3737C90.2954 13.5352 91.2536 13.2956 91.9856 13.7748C92.2784 13.9611 92.5313 13.482 92.2518 13.3223C91.2004 12.6302 89.9094 13.0827 89.4303 14.2273C89.3105 14.56 89.8296 14.7064 89.9493 14.3737H89.9627Z" fill="black"/>
    <path d="M88.858 18.6724H88.5519C88.5519 18.6724 88.5253 18.5793 88.4986 18.526C88.5519 18.353 88.6184 18.3131 88.7648 18.353C88.7914 18.3796 88.8314 18.4196 88.858 18.4462V18.4196C88.7914 18.2998 88.6184 18.2466 88.4986 18.3264C88.3789 18.4063 88.3256 18.566 88.4055 18.6858C88.4986 18.8055 88.645 18.8721 88.7914 18.8588C88.9378 18.8055 89.0576 18.6858 89.0576 18.526C89.0576 18.1667 88.5519 18.0735 88.3922 18.353C88.3256 18.4728 88.3655 18.6458 88.4853 18.7124C88.6317 18.8322 88.7914 18.7789 88.8713 18.6591L88.858 18.6724Z" fill="black"/>
    <path d="M90.0559 19.7771C90.0559 19.7771 89.9361 19.8968 89.8696 19.9501H89.8962H89.7498C89.7498 19.9501 89.7232 19.9501 89.7232 19.9235C89.6965 19.8968 89.6566 19.8569 89.63 19.8303V19.8569C89.63 19.7904 89.6034 19.7105 89.6034 19.644C89.63 19.6174 89.6566 19.5907 89.6699 19.5774C89.5501 19.6706 89.4969 19.817 89.5768 19.9368C89.6566 20.0565 89.8429 20.1231 89.9361 20.0299C90.1091 19.9101 90.2289 19.6706 90.0293 19.5109C89.9627 19.4443 89.8429 19.3911 89.7232 19.4443C89.6034 19.471 89.5501 19.5375 89.5102 19.6573C89.457 19.8037 89.5635 19.9501 89.6965 19.99C89.8696 20.0432 90.0027 19.9368 90.0559 19.8037V19.7771Z" fill="black"/>
    <path d="M88.166 19.7904H88.1128C87.78 19.7904 87.7534 20.3361 88.1128 20.3361H88.166C88.5253 20.3361 88.5253 19.7904 88.166 19.7904Z" fill="black"/>
    <path d="M90.3087 23.3306C90.6947 24.5018 91.2936 25.5532 92.478 26.0057C92.7842 26.1255 92.9306 25.6198 92.6244 25.4867C91.6396 25.1007 91.1472 24.1292 90.8277 23.1709C90.708 22.8648 90.2022 22.9979 90.3087 23.3439V23.3306Z" fill="black"/>
    <path d="M90.2422 23.6233C90.3886 23.4104 90.6282 23.2906 90.9077 23.2374C91.0541 23.2108 91.1206 23.0244 91.094 22.9047C91.0408 22.7316 90.9077 22.6917 90.7613 22.7183C90.362 22.7716 90.016 23.0111 89.7764 23.3439C89.5635 23.6367 90.016 23.9161 90.2289 23.6367L90.2422 23.6233Z" fill="black"/>
    <path d="M80.1008 20.5091C78.6501 21.0281 77.8516 18.7922 78.1177 17.7408C78.2641 17.1951 78.6368 16.543 79.2224 16.3833C80.0076 16.1437 80.7263 16.7693 81.232 17.2484C81.4716 17.4879 81.8575 17.102 81.618 16.8624C80.9792 16.2369 80.1806 15.6513 79.2357 15.8376C78.3706 16.0106 77.8515 16.8225 77.6386 17.6077C77.2526 19.0584 78.4238 21.6936 80.2605 21.0414C80.5932 20.9216 80.4468 20.4026 80.1141 20.5224L80.1008 20.5091Z" fill="black"/>
    <path d="M89.2174 10.3144C88.9246 10.6471 88.4987 11.1928 88.0062 11.9115C86.1962 14.56 86.3559 15.638 85.0916 16.3966C84.1067 16.9955 82.6028 17.1818 81.4582 16.7027C80.5932 16.3434 80.3536 15.7977 79.6216 15.8243C78.8098 15.8509 78.0512 16.5164 77.7317 17.3016C77.3458 18.2332 77.7317 19.0983 77.9979 19.644C78.2375 20.1497 78.5702 20.8817 79.2889 21.0547C79.7414 21.1479 80.154 20.9882 80.3669 20.8684C80.3403 21.1346 80.3004 21.5338 80.2737 22.0396C80.154 24.1158 80.3935 25.5531 80.4867 26.4848C80.7263 28.734 80.9392 30.5174 80.2737 32.2209C79.249 34.7496 76.6936 35.8809 75.762 36.2801C71.796 38.0236 68.1227 36.5729 67.617 36.3467C66.8317 36.014 63.052 34.4568 62.1204 30.93C61.5481 28.8005 62.1869 26.6578 62.4531 25.7528C62.5729 25.3668 62.879 24.4219 63.5045 23.3172C64.862 20.8817 66.8184 19.4044 68.1892 18.566C68.6417 16.9156 69.4003 14.56 70.7446 11.8583C72.2485 8.7972 73.0869 7.10697 74.9901 5.53651C78.0245 3.03443 81.4582 2.71502 82.5895 2.64847C83.1618 2.59524 85.9833 2.43553 89.3238 3.79304C91.6928 4.75128 94.4611 5.89585 95.6056 8.73066C96.9232 12.0446 95.06 15.3452 94.7006 15.9707C94.6075 15.5581 94.4078 14.9459 94.0086 14.347C93.4097 13.4686 92.7442 13.1093 91.746 12.4172C91.1072 11.9115 90.2421 11.2727 89.244 10.341L89.2174 10.3144Z" fill="#5222D0"/>
    <path d="M79.3821 33.9112C80.4069 34.5101 81.6047 34.6565 82.7493 34.2705C83.1752 34.1241 82.9888 33.432 82.563 33.5784C81.6047 33.8845 80.6332 33.7914 79.7415 33.2856C79.3289 33.0727 78.9829 33.6982 79.3821 33.9112Z" fill="black"/>
    <path opacity="0.14" d="M78.2509 19.6307C78.4372 20.1763 78.9429 20.5623 79.4886 20.6288C80.0875 20.6954 80.6864 20.4159 80.9925 19.8835C80.8727 20.6688 80.753 22.2658 81.4983 24.0359C82.4964 26.4714 84.4528 27.616 85.3179 28.1218C87.4207 29.3196 89.4304 29.3861 90.4019 29.3595C90.189 29.7454 89.7099 30.3577 88.898 30.7702C86.9682 31.7285 84.932 30.4375 84.8122 30.371C84.2931 31.5155 83.7342 32.354 83.3083 32.9529C82.7094 33.7647 82.4698 33.9511 82.3101 34.0309C81.1655 34.6964 79.6616 34.0043 79.2357 33.7914C78.7566 34.2439 78.0646 34.8161 77.1595 35.3618C76.4009 35.8143 74.3381 37.0121 71.5032 37.0387C71.5032 37.0387 67.6836 37.0387 64.6092 34.4568C63.4114 33.4586 62.919 32.5669 62.7726 32.2875C62.6528 32.0479 62.1471 31.0897 62.0273 29.5458C61.7611 26.5646 63.0521 24.0359 63.7708 22.878C65.0617 20.8285 66.712 19.604 67.7634 18.9652C67.6969 19.2314 66.8052 22.9313 68.7616 24.7147C71.2238 26.9373 76.7869 24.8345 77.998 21.6403C78.3041 20.8551 78.3041 20.1098 78.2642 19.6307H78.2509Z" fill="#3D3D3D"/>
    <path opacity="0.07" d="M81.1654 26.2452C80.9791 26.3384 81.4316 27.5761 81.8575 28.4678C82.5495 29.9185 83.4146 30.9965 84.0268 31.6487C84.1998 31.2228 84.3596 30.7836 84.5326 30.3843C85.0782 30.6239 86.103 30.9566 87.394 30.8901C88.2591 30.8368 88.9511 30.6239 89.417 30.4376C85.7437 30.371 83.8804 29.2398 82.8557 28.215C82.0172 27.3765 81.3517 26.1654 81.1654 26.2585V26.2452Z" fill="#3D3D3D"/>
    <path d="M85.3711 33.4321C84.0802 33.7249 81.8177 34.2705 80.7663 36.1338C80.0742 37.3449 80.2206 38.6359 80.2605 39.0884C80.5001 41.1113 81.9108 42.8149 83.5079 43.5469C85.4643 44.4253 87.5006 43.7598 88.5254 43.4005C97.4557 40.3261 101.914 38.7956 103.737 37.8906C108.995 35.2421 114.837 32.2609 121.505 26.7111C123.222 25.2737 124.579 24.0094 125.538 23.1043C125.923 23.3173 126.775 23.7299 127.8 23.6101C128.638 23.5169 129.184 23.131 129.996 22.5587C130.568 22.1461 131.234 21.6803 131.833 20.7886C132.405 19.9501 132.591 19.2181 132.764 18.5926C132.937 17.9006 133.27 16.6628 132.831 16.3966C132.525 16.2103 132.192 16.7294 131.354 16.756C131.287 16.756 130.249 16.756 129.796 16.1172C129.37 15.5183 129.823 14.9726 129.437 14.4935C129.038 13.9744 127.986 14.0143 127.308 14.2007C125.75 14.6798 125.018 16.3966 124.539 17.3017C123.222 19.9102 121.345 21.3076 117.832 23.9694C115.103 26.019 112.668 26.9772 109.407 28.2948C108.116 28.8139 105.654 29.7721 102.407 30.5573C96.9366 31.8483 92.6112 31.7951 85.3578 33.4188L85.3711 33.4321Z" fill="white"/>
    <path d="M81.4583 35.8942C83.9205 33.432 87.7801 33.3389 91.0274 32.8864C94.8205 32.3673 98.6268 31.7817 102.34 30.9033C108.955 29.3728 115.516 26.8175 120.706 22.3324C122.064 21.1346 123.328 19.8303 124.38 18.3264C125.338 16.9689 127.148 12.9496 129.397 14.8661C129.756 15.1589 130.262 14.6531 129.903 14.3603C129.038 13.615 127.893 13.5751 126.895 14.0675C125.484 14.7862 124.845 16.3567 124.007 17.621C121.838 20.9216 118.537 23.4503 115.143 25.3801C108.01 29.4393 99.7847 30.89 91.7727 32.0612C88.1394 32.5802 83.7475 32.6335 80.9792 35.3751C80.6199 35.6812 81.1256 36.187 81.4583 35.8809V35.8942Z" fill="black"/>
    <path d="M80.9259 35.0291C79.3288 37.7574 79.6349 41.3508 82.31 43.2939C85.5042 45.6097 90.0026 43.4137 93.2766 42.2958C100.996 39.6207 108.342 35.9873 115.17 31.5022C118.963 29.0135 122.57 26.2452 125.99 23.264C126.349 22.9579 125.817 22.4522 125.484 22.7583C114.757 32.1144 101.754 39.5142 87.953 43.2274C85.584 43.8662 83.1352 43.7331 81.6047 41.5771C80.2738 39.7405 80.4335 37.3049 81.5514 35.4151C81.791 35.0025 81.1655 34.6564 80.9259 35.0291Z" fill="black"/>
    <path d="M132.392 15.9041C132.511 16.4498 132.631 17.0487 132.578 17.621C132.485 18.4062 132.099 18.6724 131.819 19.3112C131.7 19.604 131.673 19.8835 131.58 20.1763C131.393 20.8151 131.127 20.9615 130.675 21.3475C130.169 21.7601 129.889 22.2259 129.464 22.6784C128.772 23.4237 128.359 23.1841 127.507 23.091C126.882 23.0244 126.243 22.9179 125.617 22.8514C125.165 22.7982 125.165 23.5168 125.617 23.5701C126.642 23.7165 128.386 24.3154 129.344 23.8096C129.73 23.6233 129.943 23.264 130.182 22.9313C130.488 22.5054 130.781 22.146 131.26 21.9065C131.5 21.7867 131.62 21.8799 131.833 21.6935C132.099 21.4806 132.165 21.1212 132.232 20.8151C132.405 20.0565 132.644 19.5508 132.977 18.8853C133.483 17.9005 133.31 16.8091 133.097 15.7844C133.004 15.2786 132.312 15.4783 132.405 15.9308L132.392 15.9041Z" fill="black"/>
    <path d="M129.45 14.5733C128.905 15.3851 129.331 16.5563 130.196 16.9423C131.194 17.3948 132.325 16.7293 132.817 15.8376C133.057 15.425 132.431 15.079 132.192 15.4783C131.886 16.0239 131.234 16.5297 130.595 16.3167C130.023 16.1437 129.716 15.4383 130.076 14.9326C130.315 14.5467 129.69 14.1873 129.45 14.5733Z" fill="black"/>
    <path d="M81.2187 35.8409C81.9773 34.337 84.7589 33.7647 86.2761 33.5784C86.7286 33.5119 86.5423 32.8198 86.0898 32.8863C84.3729 33.1259 81.4849 33.7913 80.5932 35.4949C80.4069 35.9075 81.0191 36.2801 81.2187 35.8542V35.8409Z" fill="black"/>
    <path opacity="0.13" d="M80.4069 39.3013C82.5496 39.1549 85.6772 38.8754 89.3904 38.1567C99.9976 36.1338 107.544 32.181 112.149 29.7455C115.968 27.7225 121.026 24.6881 126.589 20.3094C129.024 19.5242 130.528 18.4462 131.487 17.5811C132.125 17.0088 132.604 16.4365 132.844 16.5563C133.23 16.7693 132.631 18.7523 131.819 20.1897C131.101 21.4806 130.262 22.2126 130.009 22.4522C129.344 23.0245 128.958 23.437 128.319 23.5967C127.121 23.9028 126.057 23.264 125.697 23.0245C124.819 23.7165 123.528 24.7413 121.931 25.9657C115.489 30.8634 112.242 33.3256 107.956 35.6546C104.017 37.7974 100.716 39.0883 94.3014 41.5771C93.7025 41.8167 92.9173 42.0828 91.3468 42.6019C87.1412 44.0126 86.143 44.1723 84.9718 43.9594C84.4927 43.8662 83.3215 43.6533 82.2435 42.7217C80.8327 41.4573 80.5266 39.8336 80.4335 39.288L80.4069 39.3013Z" fill="#3D3D3D"/>
    <path opacity="0.19" d="M99.3454 39.4743C99.2922 39.4078 99.7048 39.0617 108.662 33.3921C120.453 25.8992 119.628 26.5647 120.866 25.6597C126.03 21.84 128.319 19.2581 129.503 20.03C130.315 20.549 130.462 22.4655 129.57 23.304C128.811 24.0493 127.201 23.9694 125.777 22.918C122.889 25.4999 118.59 29.0002 112.934 32.567C106.253 36.6928 99.5185 39.7804 99.3454 39.4876V39.4743Z" fill="#3D3D3D"/>
    <path d="M11.7327 159.814H67.8565C69.1209 159.814 69.1209 158.416 67.8565 158.416H11.7327C10.495 158.416 10.495 159.814 11.7327 159.814Z" fill="#161616"/>
    <path d="M73.2999 159.814H87.9131C89.1774 159.814 89.1774 158.416 87.9131 158.416H73.2999C72.0621 158.416 72.0621 159.814 73.2999 159.814Z" fill="#161616"/>
    <path d="M96.2178 159.388H97.0696C97.5887 159.388 98.0811 159.055 98.0412 158.682C98.0145 158.31 97.6153 157.977 97.0696 157.977H96.2178C95.6988 157.977 95.2064 158.31 95.2463 158.682C95.2729 159.055 95.6722 159.388 96.2178 159.388Z" fill="#161616"/>
    <path d="M1.45827 160H3.48123C4.74558 160 4.74558 158.603 3.48123 158.603H1.45827C0.193923 158.603 0.193923 160 1.45827 160Z" fill="#161616"/>
  </g>
  <defs>
    <clipPath id="clip0_7201_300">
      <rect width="142.459" height="160" fill="white" transform="translate(0.5)"/>
    </clipPath>
  </defs>
</svg>