<svg width="181" height="180" viewBox="0 0 181 180" fill="none" xmlns="http://www.w3.org/2000/svg">
<path d="M78.3053 17.5387L21.8588 62.8298C9.7865 72.5162 7.89483 90.103 17.6336 102.111L63.1694 158.257C72.9081 170.265 90.5895 172.147 102.662 162.461L159.108 117.17C171.181 107.484 173.072 89.8967 163.333 77.8887L117.798 21.7424C108.059 9.73433 90.3776 7.85227 78.3053 17.5387Z" fill="#95C6FF"/>
<path d="M56.9425 66.4514C58.4817 65.8665 61.1797 69.0148 62.5114 71.0792C64.5521 74.1931 64.8807 76.9113 65.8838 83.2079C66.2643 85.6508 66.8869 89.5216 67.7344 94.4075C69.2563 95.887 69.827 97.3321 70.0519 98.2267C70.3632 99.3794 70.4496 100.859 70.0519 100.997C69.6195 101.151 68.8585 99.7062 68.5472 99.8439C68.1321 100.033 69.4811 102.356 68.6683 103.422C67.8381 104.506 64.7251 104.334 63.0994 102.734C61.5775 101.237 62.1828 99.3278 61.9407 94.7688C61.8542 93.2204 61.6121 89.0055 60.315 84.8422C58.7238 79.7671 57.0636 79.5091 56.1296 75.0189C55.4724 71.8534 55.2822 67.088 56.9425 66.4514Z" fill="white" stroke="#161616" stroke-width="2"/>
<path opacity="0.15" d="M59.2256 70.8903C60.1768 70.6839 61.8373 74.9676 61.9411 75.2085C63.4631 79.1653 62.7367 80.8513 63.4112 86.6834C63.9647 91.4316 64.276 94.1326 65.8154 97.4701C67.3029 100.67 69.0325 102.545 68.3753 103.405C67.718 104.283 65.1409 103.44 63.1172 102.631C62.9269 102.201 62.6502 101.53 62.4254 100.704C61.8546 98.6916 61.8892 97.0916 61.8892 96.3175C61.8892 95.8874 61.8719 90.8983 60.886 86.5457C60.3498 84.2232 60.1077 84.5673 59.485 82.1588C58.1186 76.9289 58.1705 71.114 59.2256 70.8903Z" fill="#6D6C6C"/>
<path opacity="0.17" d="M61.5601 79.2169C61.7504 81.0061 61.9925 83.6727 62.0963 86.9242C62.252 91.9305 62.0098 96.0938 61.8715 96.0938C61.7504 96.0938 61.9061 93.1003 61.2488 89.0058C60.8164 86.2877 60.1764 84.0856 59.6921 82.6233C60.0208 82.2964 60.4186 81.8491 60.7818 81.2298C61.2315 80.4384 61.4564 79.7158 61.5601 79.2169Z" fill="#6D6C6C"/>
<path d="M60.3668 140.238C59.9172 141.064 59.848 141.959 60.8857 149.752C61.0067 150.716 61.1278 151.507 61.197 152.057C63.8431 152.47 67.5787 152.797 72.0062 152.367C74.6868 152.109 77.8172 151.817 77.9901 150.802C78.1285 149.976 76.3125 148.496 68.0111 145.675C67.6306 142.922 67.2328 140.17 66.8523 137.417C61.9925 137.744 60.73 139.602 60.3668 140.238Z" fill="#161616"/>
<path d="M49.9384 91.1903C51.564 93.3924 53.8814 96.5579 56.5965 100.429C63.0299 109.581 66.2466 114.157 67.3707 117.22C70.6911 126.286 69.8264 135.094 69.4978 138.088C69.3076 139.808 69.0655 141.219 68.8752 142.182C67.5609 142.681 65.6759 143.232 63.3758 143.421C61.3178 143.593 59.5538 143.404 58.2568 143.18C57.859 140.84 57.5304 138.208 57.3748 135.352C57.15 131.103 57.3575 127.301 57.7552 124.049C53.3107 120.66 50.4399 117.168 48.6932 114.742C44.0238 108.188 42.7787 102.51 42.035 98.8632C40.9801 93.8053 41.7065 92.429 42.3809 91.7065C44.6291 89.3839 49.506 91.0527 49.9384 91.1903Z" fill="white" stroke="#161616" stroke-width="2"/>
<path opacity="0.19" d="M50.4403 105.71C52.2217 107.207 54.5392 109.426 56.7875 112.471C57.4101 113.332 59.987 116.996 62.2526 122.88C65.3656 131.034 65.6251 138.638 65.4867 142.939C64.7257 143.214 63.6535 143.507 62.3737 143.61C60.6615 143.731 59.2606 143.438 58.3613 143.163C57.8079 139.808 57.3928 135.937 57.3582 131.636C57.3409 128.849 57.462 126.252 57.6868 123.877C57.2544 123.637 48.9011 118.957 49.0049 111.129C49.0222 108.945 49.7139 107.087 50.4403 105.71Z" fill="#6D6C6C"/>
<path opacity="0.15" d="M52.6704 118.889C53.0509 118.373 57.8069 119.818 59.6921 123.327C61.1102 125.959 59.9688 127.989 60.0207 131.74C60.0553 134.544 60.7816 138.535 63.912 143.37C62.096 143.335 60.2801 143.301 58.4469 143.266C57.9453 140.066 57.5475 136.419 57.4438 132.411C57.3573 129.245 57.4611 126.321 57.6686 123.654C56.9941 123.31 56.1294 122.777 55.2127 121.985C54.1924 121.091 52.3937 119.267 52.6704 118.889Z" fill="#6D6C6C"/>
<path d="M29.8087 138.879C28.4943 139.722 28.2695 140.892 27.0761 143.473C26.246 145.262 25.0008 147.653 23.0811 150.371C24.1706 151.593 25.9866 153.296 28.6499 154.552C32.2991 156.272 37.4183 157.098 38.2139 155.601C39.0613 153.984 34.6166 150.148 33.2849 149.012C33.6481 148.204 34.2361 146.913 34.9625 145.348C36.8822 141.253 37.2627 140.651 36.9514 139.911C36.225 138.157 32.1954 137.365 29.8087 138.879Z" fill="#161616"/>
<path d="M35.3598 87.3021C34.3222 90.1407 33.2673 92.9794 32.2296 95.8008C30.5175 100.721 31.2612 104.127 31.8146 105.762C32.4198 107.568 33.4748 109.116 35.5673 112.196C37.193 114.57 38.663 116.48 39.7352 117.804C37.5907 120.024 35.1523 122.897 32.8522 126.509C29.7566 131.395 27.9234 135.989 26.7993 139.584C27.8197 140.358 29.3588 141.339 31.3822 142.079C33.6477 142.905 35.6538 143.094 37.02 143.111C39.4239 141.27 42.7097 138.397 45.7708 134.182C48.1746 130.896 51.4086 126.475 52.4462 120.282C54.2102 109.736 48.4513 101.151 46.3934 98.0889C42.6752 92.5321 38.2133 89.1601 35.3598 87.3021Z" fill="white" stroke="#161616" stroke-width="2"/>
<path d="M42.6402 93.4955C43.972 95.3363 45.2865 97.1943 46.5492 99.0695C46.7048 98.9834 46.8432 98.8974 46.9989 98.8114C45.8746 97.3147 44.8714 95.7147 44.0066 94.046C43.8855 94.1664 43.7645 94.2868 43.6434 94.4073C44.3525 94.889 44.7504 95.6115 45.1828 96.3169C45.6843 97.1426 46.2032 97.9684 46.7048 98.7942C47.6907 100.394 48.6766 102.011 49.6625 103.611C49.8181 103.525 49.9565 103.439 50.1122 103.353C48.6074 101.013 47.1026 98.6738 45.5806 96.3341C45.4076 96.0588 44.9579 96.3169 45.1309 96.5921C46.9989 99.6888 48.8841 102.768 50.7521 105.865C50.9251 106.157 51.3748 105.899 51.2018 105.607C49.8354 103.302 48.4863 100.979 47.1199 98.6738C46.9816 98.777 46.8432 98.8802 46.7048 98.9834C48.6593 101.134 49.0052 104.265 51.1327 106.278C51.3748 106.501 51.738 106.14 51.4959 105.917C49.3684 103.921 49.0225 100.773 47.068 98.6222C46.8605 98.3985 46.5146 98.691 46.6529 98.9318C48.0193 101.237 49.3684 103.56 50.7348 105.865C50.8905 105.779 51.0289 105.693 51.1845 105.607C49.3166 102.51 47.4313 99.4307 45.5633 96.3341C45.4076 96.4201 45.2692 96.5061 45.1136 96.5921C46.6183 98.9318 48.1231 101.272 49.6452 103.611C49.8181 103.887 50.2678 103.628 50.0949 103.353C48.9879 101.547 47.881 99.7404 46.774 97.9512C45.9611 96.6093 45.2174 94.8718 43.8682 93.96C43.6434 93.8051 43.4012 94.0976 43.505 94.3212C44.3698 95.99 45.3557 97.5727 46.4973 99.0867C46.6875 99.3447 47.1372 99.1039 46.947 98.8286C45.6843 96.9362 44.3871 95.0782 43.038 93.2546C42.8997 92.9621 42.45 93.2202 42.6402 93.4955Z" fill="white"/>
<path opacity="0.2" d="M43.7312 94.2525C42.8319 95.5428 41.5866 97.6761 41.0505 100.48C39.4075 108.979 46.3254 112.747 44.7861 120.196C43.9733 124.118 41.9152 123.757 37.3148 131.912C34.9801 136.058 33.4927 139.705 32.6107 142.182C31.4865 141.838 30.2586 141.391 28.9615 140.806C28.2005 140.462 27.4915 140.118 26.8516 139.756C27.8719 136.591 29.4112 132.772 31.7287 128.677C34.3575 124.049 37.2457 120.437 39.6842 117.77C39.0097 116.91 38.0066 115.602 36.8479 113.968C33.6484 109.461 32.0227 107.155 31.4865 104.506C30.8812 101.581 31.3828 99.0868 31.7287 97.4008C32.2475 94.8547 33.1295 92.859 33.8386 91.4999C37.1246 92.4117 40.4279 93.3407 43.7312 94.2525Z" fill="#6D6C6C"/>
<path opacity="0.17" d="M39.6664 93.2029C37.7121 95.4222 35.1524 99.0694 35.36 103.474C35.6713 110.372 42.52 113.004 41.5342 118.664C41.2575 120.23 39.0783 122.742 34.7028 127.714C32.2988 130.449 30.258 132.634 28.8572 134.096C29.9294 131.481 31.486 128.35 33.7343 125.047C35.7232 122.122 37.7639 119.783 39.5799 117.942C39.0437 117.133 38.0925 115.688 36.8992 113.899C32.7312 107.671 31.9183 106.691 31.4514 104.523C30.898 101.977 31.2611 99.8264 31.5379 98.2264C32.0394 95.2502 33.0944 92.9621 33.8899 91.517C35.8096 92.0675 37.7466 92.6352 39.6664 93.2029Z" fill="#6D6C6C"/>
<path d="M48.6069 63.2685C46.1512 64.7136 41.4818 67.8963 37.9193 73.7456C33.3882 81.1948 33.3882 88.472 33.5439 91.2934C34.3913 91.5687 35.256 91.8439 36.138 92.102C42.0352 93.8567 47.7422 95.0438 53.1379 95.8008C53.5876 94.2696 54.0718 92.7213 54.5906 91.1214C55.3688 88.7644 56.1817 86.5108 57.0118 84.3603C59.8826 82.8808 60.8856 80.9712 61.2142 80.1798C62.5458 77.0831 61.2834 73.8488 59.9172 70.3564C59.1562 68.3952 58.7585 67.3974 57.8073 66.3308C54.8327 62.976 49.9213 63.1825 48.6069 63.2685Z" fill="#EC615B"/>
<path opacity="0.27" d="M54.4357 67.3457C49.7142 67.965 47.1892 70.0983 46.1688 71.0961C40.4097 76.7561 42.3986 86.3042 42.9347 88.8848C43.4189 91.2073 44.1453 93.0653 44.716 94.3211C41.0669 93.3405 37.435 92.3427 33.7858 91.3621C33.561 88.7299 33.3361 81.9689 37.262 74.7605C40.9112 68.0854 46.1515 64.6619 48.4863 63.32C48.8149 63.3372 49.1435 63.3716 49.4721 63.3888C49.9736 63.9737 50.5789 64.5931 51.3226 65.2296C52.4295 66.193 53.519 66.864 54.4357 67.3457Z" fill="#6D6C6C"/>
<path opacity="0.2" d="M39.3031 71.6642C38.8188 74.1931 38.421 77.8575 38.9399 82.1929C39.5626 87.2852 41.2057 91.2248 42.4856 93.7022C39.5107 92.9452 36.5184 92.1882 33.5435 91.4485C33.4051 89.0744 33.4743 85.5132 34.6158 81.4187C35.8612 76.9457 37.8675 73.677 39.3031 71.6642Z" fill="#6D6C6C"/>
<path d="M56.6223 110.554C62.2252 105.6 67.8551 100.672 73.5121 95.7853C84.1764 86.5632 94.9355 77.4623 105.803 68.4691C104.95 65.9516 103.854 61.5896 104.504 56.2853C104.707 54.6024 106.439 42.2031 117.861 35.7948C118.809 35.2563 131.922 28.2017 144.211 35.9833C152.317 41.1126 156.513 50.4693 155.525 59.6106C154.063 73.1946 141.937 79.2125 141.233 79.5491C132.491 83.6956 121.975 82.4705 114.139 76.4122C102.365 86.0516 90.6184 95.7045 78.8848 105.384C73.7421 109.625 68.613 113.866 63.4838 118.12C62.4146 117.609 60.6418 116.585 59.0448 114.714C57.705 113.152 57.0013 111.591 56.6223 110.554Z" fill="#161616"/>
<ellipse cx="130.285" cy="57.349" rx="21.4641" ry="20.4635" fill="white" stroke="#161616" stroke-width="2"/>
<path d="M132.031 38.0161C128.106 46.2823 123.979 54.4677 119.661 62.5454C118.443 64.8206 117.212 67.0958 115.966 69.3576C115.845 69.5865 116.196 69.7884 116.318 69.5595C120.744 61.5357 124.98 53.4176 129.013 45.1918C130.15 42.8762 131.273 40.5471 132.397 38.2045C132.505 37.9891 132.153 37.7872 132.031 38.0161Z" fill="#E8E8E8"/>
<path d="M138.649 40.0224C134.346 46.7807 130.258 53.6603 126.374 60.661C126.252 60.8898 126.604 61.0918 126.726 60.8629C130.61 53.8622 134.698 46.9827 139.001 40.2243C139.137 40.0089 138.785 39.807 138.649 40.0224Z" fill="#E8E8E8"/>
<path d="M125.657 63.0305C123.871 66.4904 121.962 69.8965 119.918 73.2219C119.783 73.4507 120.135 73.6527 120.27 73.4238C122.301 70.0985 124.223 66.6924 126.009 63.2324C126.131 63.0035 125.779 62.7881 125.657 63.0305Z" fill="#E8E8E8"/>
<path d="M133.168 52.9336C130.895 57.1879 128.634 61.4422 126.36 65.6964C126.238 65.9253 126.59 66.1272 126.712 65.8984C128.986 61.6441 131.246 57.3898 133.52 53.1356C133.642 52.9067 133.29 52.7048 133.168 52.9336Z" fill="#E8E8E8"/>
<path opacity="0.08" d="M129.649 36.8181C128.147 37.3566 118.254 41.0455 115.087 50.9272C114.722 52.0715 113.585 55.7604 114.437 60.0281C116.075 68.1597 124.249 74.743 134.941 76.9509C134.129 77.2202 132.992 77.5433 131.584 77.7183C123.085 78.7819 116.494 73.0197 115.723 72.3331C114.045 70.8118 108.862 65.6421 108.767 57.4567C108.753 56.7431 108.794 48.6654 114.952 42.836C118.538 39.4434 122.733 38.2048 124.493 37.7067C126.55 37.1278 128.35 36.9124 129.649 36.8181Z" fill="#6D6C6C"/>
<path d="M45.2341 71.9224C46.4793 71.7675 48.347 71.7503 49.7133 72.8514C52.6532 75.2255 50.3877 80.3866 51.8404 85.8402C52.6186 88.7648 54.6766 92.7045 60.6603 96.6097C63.0296 97.7968 65.0011 98.6914 66.3673 99.3107C68.3215 100.188 69.5667 100.687 69.5494 101.358C69.5321 102.029 68.3042 102.528 67.4222 102.82C68.4772 103.801 69.0133 105.04 68.6501 105.986C68.3734 106.726 67.6125 107.087 66.7651 107.5C65.7966 107.981 64.9838 108.085 64.0499 108.205C62.3032 108.429 61.4385 108.532 60.643 108.205C59.4152 107.689 58.8617 106.553 58.0489 104.919C57.5993 104.025 57.0459 102.631 56.7519 100.825C54.7977 99.93 51.9961 98.3817 49.2117 95.7839C48.1222 94.7689 38.0225 85.1348 41.2046 76.8082C41.6889 75.6384 42.7092 73.746 45.2341 71.9224Z" fill="white" stroke="#161616" stroke-width="2"/>
<path d="M60.6953 106.072C61.1277 107.018 61.785 107.809 62.6325 108.446C62.8919 108.652 63.1514 108.205 62.8919 107.999C62.1309 107.431 61.5428 106.674 61.145 105.813C61.0066 105.521 60.5569 105.779 60.6953 106.072Z" fill="#161616"/>
<path d="M62.7704 105.796C63.2892 106.794 64.0676 107.62 65.0189 108.24C65.2956 108.412 65.5551 107.964 65.2783 107.792C64.3962 107.242 63.6871 106.468 63.2028 105.538C63.0644 105.246 62.6147 105.504 62.7704 105.796Z" fill="#161616"/>
<path d="M64.9498 104.627C65.4341 105.642 66.2643 106.451 67.2848 106.932C67.5788 107.07 67.8555 106.623 67.5442 106.485C66.5929 106.038 65.8492 105.315 65.3995 104.369C65.2438 104.059 64.8114 104.317 64.9498 104.627Z" fill="#161616"/>
<path opacity="0.2" d="M45.6672 71.957C45.2867 73.6601 44.8717 76.3439 45.2349 79.5782C46.186 87.7672 51.5126 93.1692 52.3946 94.0466C56.7872 98.3819 59.658 97.797 61.4047 101.668C61.8716 102.7 62.7017 105.04 64.95 106.261C65.8319 106.726 66.6621 106.898 67.2155 106.967C66.9215 107.207 66.4372 107.534 65.7974 107.81C64.7251 108.274 63.7913 108.291 62.3213 108.308C61.2318 108.326 60.6784 108.326 60.1941 108.102C59.1738 107.638 58.6895 106.674 58.4993 106.192C57.8076 104.334 57.1331 102.476 56.4413 100.618C53.069 98.898 48.2959 95.8358 44.5258 90.5886C42.9521 88.4037 40.3234 84.6533 40.5482 80.1459C40.652 78.0987 41.3091 76.6708 41.4648 76.3267C42.6927 73.7978 44.7333 72.4903 45.6672 71.957Z" fill="#6D6C6C"/>
<path opacity="0.32" d="M40.7731 81.1948C40.8769 81.1604 41.5341 83.2249 42.8312 85.6334C45.9961 91.5859 50.5619 95.2331 53.8306 97.7792C55.3179 98.9319 56.5804 99.7921 57.376 100.325C58.3445 101.943 58.8979 103.336 59.2265 104.351C59.5032 105.194 59.6589 105.951 60.2988 106.742C60.956 107.603 61.8034 108.084 62.426 108.36C61.9591 108.377 61.25 108.342 60.5063 107.998C59.0882 107.344 58.4656 105.985 57.8084 104.54C57.4279 103.715 56.9782 102.476 56.7361 100.876C47.7083 96.3341 44.3185 90.6053 43.0387 87.8871C41.7243 85.1001 40.6348 81.2636 40.7731 81.1948Z" fill="#6D6C6C"/>
<path d="M55.0921 56.2154C53.8641 56.6971 54.5906 59.1056 52.6188 61.2905C51.6502 62.3743 50.4741 62.8904 49.6611 63.1829C50.18 63.9571 51.2005 65.2129 52.8782 66.2107C54.0717 66.9333 55.2132 67.2774 56.0088 67.4322C56.2683 66.9677 56.7007 66.2451 57.2369 65.385C59.1567 62.3743 59.8486 62.0474 59.9524 61.0496C60.2118 58.6067 56.6661 55.596 55.0921 56.2154Z" fill="white" stroke="#161616" stroke-width="2"/>
<path d="M54.8663 60.8605C55.5754 62.2714 56.3191 63.6651 57.4953 64.7491C57.7374 64.9728 58.1006 64.6115 57.8585 64.3878C56.717 63.3382 56.0078 61.9617 55.316 60.6024C55.1603 60.3099 54.7106 60.568 54.8663 60.8605Z" fill="#161616"/>
<path d="M54.3481 59.9312C55.1437 61.4798 56.0085 63.0112 57.5306 63.9575C57.79 64.1124 58.0495 63.7682 57.8419 63.5446C57.3403 63.0112 56.8214 62.4778 56.3372 61.9444C56.2161 62.0648 56.095 62.1853 55.9739 62.3057C56.268 62.6154 56.5793 62.9079 56.9252 63.1488C57.0463 63.2349 57.4268 63.4069 57.496 63.5102C57.5998 63.6822 57.496 63.9575 57.4441 64.1296C57.6171 64.1812 57.7727 64.2156 57.9457 64.2672C57.963 64.1812 57.963 64.0952 57.9803 64.0263C58.0149 63.8027 57.7381 63.5618 57.5479 63.7682C57.5479 63.579 57.496 63.3897 57.3749 63.2349C57.2193 63.3209 57.0809 63.4069 56.9252 63.4929C57.1155 63.751 57.3057 64.0091 57.496 64.2672C57.6344 64.164 57.7727 64.0608 57.9111 63.9575C57.7554 63.7855 57.6344 63.6134 57.5133 63.4241C57.3576 63.2004 56.9252 63.3381 57.0463 63.6306C57.1501 63.8543 57.1847 63.9403 57.3403 64.1296C57.5479 64.3877 57.9111 64.0263 57.7036 63.7682C57.6517 63.6822 57.5998 63.5962 57.5479 63.4929C57.3922 63.5618 57.2366 63.6306 57.0809 63.6994C57.2366 63.9231 57.3922 64.1296 57.5652 64.3361C57.7554 64.5597 58.1533 64.2672 57.9803 64.0263C57.79 63.7682 57.5998 63.5102 57.4095 63.2521C57.2193 62.9768 56.8214 63.2176 56.9598 63.5102C57.1328 63.8543 57.4787 64.663 57.9457 64.1468C57.8073 64.0608 57.6517 63.9747 57.5133 63.8887C57.496 63.9747 57.496 64.0608 57.4787 64.1296C57.4268 64.4565 57.8938 64.5941 57.9803 64.2672C58.1014 63.8543 58.3954 63.665 58.0495 63.2521C57.8938 63.0628 57.6344 62.9768 57.4441 62.8563C57.0463 62.5982 56.7004 62.2885 56.3717 61.9444C56.1469 61.7035 55.7837 62.0648 56.0085 62.3057C56.5101 62.8391 57.0117 63.3725 57.5133 63.9059C57.6171 63.7682 57.7209 63.6306 57.8246 63.4929C56.389 62.5982 55.5934 61.1185 54.8324 59.6559C54.6421 59.3634 54.1924 59.6387 54.3481 59.9312Z" fill="#161616"/>
<path d="M71.003 51.6563C70.6572 53.1874 69.9481 55.4583 68.3224 57.798C65.4688 61.9097 61.5947 63.6473 59.9345 64.2838C58.9832 63.9226 57.738 63.286 56.562 62.2022C53.3452 59.2259 53.1031 55.1487 53.0685 54.0992C52.7226 54.0132 52.221 53.824 51.7887 53.4111C50.6818 52.3444 50.4224 50.2284 51.4428 49.351C52.6015 48.3532 54.8152 49.5746 55.0574 49.6951C55.5935 49.9875 55.974 50.3488 56.2161 50.6241C57.1673 47.7682 59.4502 45.6178 62.1655 45.1705C65.8665 44.5684 69.9135 47.2521 71.003 51.6563Z" fill="white" stroke="#161616" stroke-width="2"/>
<path d="M66.8175 55.768C66.1257 57.3165 65.1052 58.6414 63.7907 59.7254C63.5312 59.9319 63.8944 60.2932 64.1539 60.0868C65.5203 58.9856 66.5581 57.6263 67.2672 56.0261C67.4056 55.7164 66.9559 55.4583 66.8175 55.768Z" fill="#161616"/>
<path d="M63.1335 58.5725C63.0643 59.1575 63.2719 59.7253 63.6697 60.1555C63.8945 60.3964 64.2578 60.0351 64.0329 59.7942C63.7216 59.45 63.6005 59.0371 63.6524 58.5725C63.687 58.2456 63.1681 58.2456 63.1335 58.5725Z" fill="#161616"/>
<path d="M62.0787 55.6307C62.5284 55.0113 63.0646 54.4607 63.67 53.9617C63.5316 53.8757 63.3759 53.7897 63.2376 53.7036C63.0127 54.3919 62.5284 54.9425 61.8885 55.2866C61.9922 55.4243 62.096 55.5619 62.1998 55.6996C62.5976 55.2178 62.9954 54.7532 63.3932 54.2715C63.6008 54.0134 63.2376 53.652 63.03 53.9101C62.6322 54.3919 62.2344 54.8565 61.8366 55.3382C61.6463 55.5619 61.8885 55.8888 62.1479 55.7512C62.9089 55.3382 63.4624 54.6672 63.7392 53.8585C63.8256 53.5832 63.497 53.4628 63.3068 53.6004C62.6668 54.1166 62.1133 54.7016 61.6463 55.3727C61.4388 55.648 61.8885 55.906 62.0787 55.6307Z" fill="#161616"/>
<path d="M67.8202 57.1448C68.045 56.7662 68.339 56.4393 68.6677 56.1468C68.5293 56.0608 68.3736 55.9747 68.2353 55.8887C68.0796 56.4049 67.7683 56.8695 67.3186 57.1964C67.4396 57.2996 67.578 57.3857 67.6991 57.4889C67.8029 57.2136 67.9585 56.9555 68.1488 56.7318C68.3563 56.4737 67.9931 56.1124 67.7856 56.3705C67.5434 56.6802 67.3532 56.9899 67.2148 57.3513C67.1283 57.5577 67.4223 57.7814 67.5953 57.6438C68.1488 57.2308 68.5466 56.6974 68.7369 56.0436C68.8233 55.7855 68.4947 55.6306 68.3045 55.7855C67.9412 56.0952 67.6299 56.4737 67.3705 56.8867C67.1802 57.162 67.6299 57.4201 67.8202 57.1448Z" fill="#161616"/>
<path d="M60.2972 54.3576C60.5567 54.9598 60.6951 55.5792 60.6951 56.2159C60.6951 56.3879 60.9545 56.3879 60.9545 56.2159C60.9545 55.5276 60.7988 54.8566 60.5221 54.2199C60.4529 54.0651 60.2281 54.2027 60.2972 54.3576Z" fill="#161616"/>
<path d="M59.5707 53.9102C59.7437 54.1855 59.8648 54.4608 59.9685 54.7534C60.0204 54.9082 60.2626 54.8394 60.2107 54.6845C60.1069 54.3576 59.9685 54.0651 59.7956 53.7726C59.7091 53.6349 59.4842 53.7726 59.5707 53.9102Z" fill="#161616"/>
<path d="M63.5661 52.4992C64.206 52.3099 64.8114 52.74 64.8287 53.4111C64.8287 53.652 65.2265 53.6692 65.2265 53.4111C65.1919 52.4992 64.3617 51.8797 63.4623 52.1206C63.2201 52.1894 63.3239 52.568 63.5661 52.4992Z" fill="#161616"/>
<path d="M68.2006 55.0285C68.4773 54.8564 68.806 54.8392 69.1 55.0113C69.3076 55.1489 69.5151 54.8048 69.2903 54.6844C68.8925 54.4435 68.3909 54.4435 68.0103 54.7016C67.8028 54.8392 67.993 55.1661 68.2006 55.0285Z" fill="#161616"/>
<path d="M59.7608 59.4498C60.1759 60.1897 60.8851 60.7231 61.7153 60.9468C62.0439 61.0328 62.1823 60.5338 61.8537 60.4478C61.1445 60.2585 60.5737 59.8284 60.2105 59.1917C60.0376 58.8992 59.5879 59.1573 59.7608 59.4498Z" fill="#161616"/>
<path d="M56.1983 51.3122C56.5788 50.6584 57.4954 49.2649 59.2593 48.3015C60.4699 47.6306 61.6113 47.4413 62.3031 47.3725C62.6835 47.8714 63.3061 48.5252 64.2227 48.9381C66.3844 49.9187 68.1311 48.6284 69.4109 49.4886C70.0854 49.9359 70.7598 51.0197 70.5004 53.9788C71.6418 55.1486 72.4027 55.2174 72.8178 55.1314C74.5472 54.7873 75.7923 50.9165 74.7028 48.0951C74.3742 47.2521 73.9419 46.7704 70.2756 43.863C65.1047 39.7685 64.4648 39.5276 63.7904 39.3728C60.2278 38.547 57.0803 40.3362 56.5442 40.6459C55.8524 41.0415 55.6968 41.2308 51.7365 45.3769C48.6582 48.594 48.3642 48.8864 48.0875 49.6778C47.3611 51.6735 47.4995 54.5637 49.3499 56.6797C51.0966 58.6582 53.4486 58.9506 54.0539 59.0194C53.7945 58.4345 53.5178 57.6087 53.3794 56.5937C53.2065 55.2862 53.3794 54.2024 53.535 53.497C53.414 53.411 52.7222 52.8433 52.6704 51.8799C52.6358 51.1745 52.9643 50.28 53.7253 49.9875C54.5727 49.6606 55.7314 50.1595 56.1983 51.3122Z" fill="#5222D0"/>
<path d="M55.4558 42.6589C54.7467 41.2654 52.6713 41.059 52.3081 41.0245C49.4199 40.7321 47.1024 43.2954 45.7362 44.7922C43.3149 47.4587 44.0067 48.2501 41.6546 51.4672C38.5416 55.7337 36.2068 55.923 35.7225 58.8648C35.6879 59.0885 35.2556 62.0475 37.2272 63.8367C38.9221 65.385 41.6546 65.4022 43.4533 64.4732C45.8918 63.2174 45.6843 60.6884 47.4483 56.4391C50.9073 48.1469 56.822 45.3427 55.4558 42.6589Z" fill="#5222D0"/>
<path opacity="0.12" d="M58.2398 48.9208C57.6863 50.2971 57.0291 52.482 57.0637 55.2174C57.1155 59.5872 58.9143 62.787 59.8137 64.1633C58.8279 63.7505 57.1847 62.8731 55.7491 61.1527C55.1611 60.4473 53.7774 58.7786 53.4142 56.2152C53.2412 55.0626 53.345 54.0992 53.4487 53.4454C53.345 53.3594 52.6358 52.7229 52.6704 51.725C52.6877 51.0713 53.0336 50.1939 53.7774 49.9359C54.6076 49.6434 55.7491 50.1767 56.1988 51.3294C56.3718 50.9853 56.6139 50.5552 56.9772 50.1079C57.4269 49.5746 57.8766 49.1961 58.2398 48.9208Z" fill="#6D6C6C"/>
<path opacity="0.13" d="M55.1958 61.5145C55.0574 61.8242 54.9017 62.1339 54.7115 62.4436C53.8467 63.889 52.7224 64.8525 51.8403 65.4375C51.529 65.2483 51.1139 64.9558 50.6988 64.5084C50.2491 64.0266 49.9723 63.5448 49.8167 63.2007C50.4912 62.9942 52.1689 62.3576 53.3105 60.6886C53.7083 60.0864 53.9504 59.5014 54.0888 59.0196C54.452 59.8627 54.8153 60.6886 55.1958 61.5145Z" fill="#6D6C6C"/>
<path opacity="0.18" d="M53.6734 53.1529C53.7599 54.34 53.9848 55.8883 54.5728 57.6259C55.3858 59.9828 56.5619 61.7204 57.4613 62.8214C56.5619 62.0988 55.4895 61.015 54.6247 59.5011C54.054 58.4861 53.2064 57.0237 53.3102 55.0281C53.3448 54.2539 53.5178 53.6002 53.6734 53.1529Z" fill="#6D6C6C"/>
<path opacity="0.32" d="M56.3206 41.0759C55.5942 41.7812 51.0626 46.323 51.6852 52.7744C51.9447 55.527 53.0516 57.6087 53.8472 58.8301C53.2938 58.7957 52.2214 58.6753 51.0626 58.0043C49.9037 57.3334 49.2465 56.456 48.9524 56.0087C48.7276 55.6474 48.4508 55.0625 48.2779 54.3227C48.2779 54.3227 47.9665 52.8776 48.5373 51.0884C49.1427 49.1272 51.8755 45.308 56.3206 41.0759Z" fill="#32198E"/>
<path opacity="0.33" d="M46.9644 43.8626C47.3621 44.1207 45.1657 48.7141 42.7445 52.7225C40.5653 56.3181 39.4931 57.3159 39.3374 59.518C39.1818 61.8061 40.1503 63.7673 41.015 65.092C40.5826 65.1264 38.9569 65.178 37.5388 64.0598C36.7605 63.4405 36.3454 62.7179 36.1552 62.2706C35.7401 61.0663 35.3769 59.3116 36.1033 57.66C36.5876 56.5418 37.1583 56.4557 38.9396 54.6666C40.5134 53.0838 42.07 51.5183 43.2114 49.1958C43.7994 48.0087 44.007 47.1485 45.0101 45.8066C45.6673 44.912 46.7395 43.7078 46.9644 43.8626Z" fill="#32198E"/>
</svg>
