<svg xmlns="http://www.w3.org/2000/svg" width="153" height="160" viewBox="0 0 153 160" fill="none">
  <g clip-path="url(#clip0_7201_216)">
    <path d="M40.8219 35.9406C41.0742 36.4717 41.6053 37.5737 42.1098 38.3172C31.0236 39.5386 18.2114 39.1138 7.43053 36.4451C6.7534 34.8253 6.36837 33.6702 5.82402 31.9974C5.74436 31.7451 5.51865 31.5592 5.51865 31.5725C5.06724 31.3999 4.15113 31.5194 3.79265 31.5725C2.3853 27.1778 1.72146 22.1061 1.36298 17.4857C1.04433 13.33 1.16383 9.1478 1.74801 5.01868C1.88078 4.07602 1.85423 2.7085 2.29236 1.85878C2.9031 0.650579 4.64238 0.982502 5.79747 0.942671C8.01471 0.876287 10.2585 0.809902 12.5023 0.756794C21.2252 0.584195 29.988 0.557641 38.7109 0.663856C39.0827 6.12066 39.1889 11.6306 40.9813 16.8351C42.5612 21.4157 45.1104 25.6244 48.4296 29.1561C46.4646 29.6872 44.4864 30.1386 42.4816 30.5103C42.4683 30.5103 42.4417 30.5103 42.4285 30.5236C42.2559 30.5236 42.1364 30.6697 42.2691 30.8821C42.6542 31.5327 44.1544 33.2056 45.1768 34.3341C45.4025 34.5864 45.2697 34.9979 44.9245 35.051C43.318 35.3033 40.7025 35.7282 40.8087 35.9273L40.8219 35.9406Z" fill="white"/>
    <path d="M39.3349 0.517836C39.6934 5.85515 39.7863 11.2323 41.4858 16.3705C43.079 21.1501 45.7477 25.5183 49.2395 29.1296C49.5316 29.4482 49.0536 29.9129 48.7748 29.5943C45.2697 25.9829 42.5878 21.6281 40.9414 16.875C39.1225 11.6041 39.0296 6.01447 38.6578 0.504559C38.6313 0.0796978 39.3084 0.0796978 39.3349 0.504559V0.517836Z" fill="#161616"/>
    <path d="M38.857 0.716942C30.0676 0.610727 21.2518 0.624004 12.4625 0.80988C10.2187 0.849711 7.97487 0.916095 5.75763 0.995757C4.61582 1.03559 2.86326 0.703665 2.25253 1.91186C1.82767 2.76159 1.85422 4.12911 1.70817 5.07177C1.12399 9.20088 1.01777 13.3964 1.32314 17.5388C1.68162 22.2521 2.62428 26.8857 4.08474 31.3733C4.21751 31.7716 3.56694 31.9575 3.43417 31.5592C0.712405 23.1416 -0.163871 14.1797 1.0045 5.40369C1.11071 4.48758 1.27004 3.5582 1.42936 2.66865C1.53557 2.01808 1.61523 1.19491 2.18614 0.756773C2.74377 0.331912 3.52711 0.398296 4.17768 0.371742C5.45226 0.331912 6.71357 0.278804 7.98815 0.265527C12.8475 0.132758 17.6936 0.0398197 22.5396 0.0265428C27.9832 -0.0265648 33.44 -1.09915e-05 38.857 0.0663735C39.2818 0.0663735 39.2818 0.743496 38.857 0.716942Z" fill="#161616"/>
    <path d="M49.0934 29.966C37.7019 33.1525 25.6597 33.4844 14.0822 31.0016C13.6574 30.9087 13.83 30.2581 14.2681 30.3511C25.7128 32.8471 37.6355 32.4754 48.9208 29.3155C49.3457 29.2092 49.5316 29.8332 49.1067 29.966H49.0934Z" fill="#161616"/>
    <path d="M3.44748 2.33671C3.96527 12.1351 6.66049 21.721 11.3207 30.3244C11.5198 30.7095 10.9357 31.0414 10.7365 30.6564C6.0232 21.9334 3.28815 12.2413 2.77035 2.33671C2.7438 1.91185 3.42092 1.91185 3.44748 2.33671Z" fill="#161616"/>
    <path d="M3.44742 4.19543C2.8234 7.18273 3.08894 10.1833 3.60674 13.1441C4.05816 15.7198 4.57596 18.3088 5.16014 20.8845C6.30195 25.9297 7.85535 30.9086 10.8161 35.197C11.0684 35.5555 10.4842 35.8874 10.2319 35.5289C7.16495 31.0944 5.585 25.9032 4.41663 20.6853C3.22171 15.348 1.62848 9.49292 2.79685 4.00955C2.88979 3.58469 3.54036 3.75729 3.44742 4.19543Z" fill="#161616"/>
    <path d="M2.95621 6.34636C2.17287 16.5297 3.83248 26.7795 7.80228 36.1928C7.9616 36.5911 7.31103 36.777 7.15171 36.3787C3.18192 26.9123 1.49575 16.5961 2.27909 6.34636C2.30564 5.92149 2.96949 5.92149 2.95621 6.34636Z" fill="#161616"/>
    <path d="M44.805 35.5289C33.5727 37.4541 22.0882 37.3877 10.8692 35.3431C10.4444 35.2767 10.617 34.6261 11.0551 34.6925C22.1413 36.7106 33.5329 36.777 44.6324 34.8784C45.0573 34.812 45.2431 35.4626 44.8183 35.5289H44.805Z" fill="#161616"/>
    <path d="M43.3312 31.7185C43.849 32.5682 44.5262 33.2852 45.3228 33.8694C45.6813 34.1216 45.3493 34.6925 44.9909 34.4535C44.088 33.803 43.3313 33.0196 42.7736 32.077C42.5214 31.6919 43.1055 31.36 43.3312 31.7185Z" fill="#161616"/>
    <path d="M41.7513 36.631C42.0434 37.1886 42.3754 37.7329 42.7869 38.2242C43.0525 38.5561 42.5878 39.0341 42.3222 38.6889C41.8708 38.1445 41.4991 37.5869 41.207 36.9629C41.0078 36.5778 41.5655 36.2194 41.7646 36.631H41.7513Z" fill="#161616"/>
    <path d="M42.4019 39.1403C31.1165 40.468 19.6586 39.751 8.62546 37.016C8.2006 36.9098 8.3732 36.2592 8.81134 36.3654C19.7781 39.0739 31.1696 39.7776 42.4152 38.4499C42.84 38.4234 42.84 39.1005 42.4152 39.1403H42.4019Z" fill="#161616"/>
    <path d="M36.9053 9.53277C27.2131 8.20507 17.4413 8.84237 7.72264 9.50621C7.29778 9.53277 7.29778 8.85564 7.72264 8.82909C17.5077 8.15197 27.3193 7.52795 37.0779 8.86892C37.5027 8.90875 37.3301 9.55932 36.892 9.51949L36.9053 9.53277Z" fill="#161616"/>
    <path d="M39.6934 19.5834C30.612 19.7161 21.5438 20.141 12.5155 20.858C12.0907 20.8978 12.0907 20.2339 12.5155 20.1808C21.5571 19.4373 30.612 19.0125 39.6934 18.9062C40.1448 18.9062 40.1448 19.5834 39.6934 19.5834Z" fill="#161616"/>
    <path d="M42.4019 24.788C32.3512 25.2527 22.3006 25.7572 12.2633 26.2219C11.8384 26.2485 11.8384 25.5713 12.2633 25.5448C22.3139 25.0801 32.3645 24.5756 42.4019 24.1109C42.8267 24.0843 42.8267 24.7614 42.4019 24.788Z" fill="#161616"/>
    <path d="M34.1038 15.6269C36.0157 20.1543 37.8213 24.7083 39.5075 29.3286C39.6668 29.7269 39.0163 29.9128 38.8569 29.5145C37.1708 24.9605 35.405 20.4596 33.5196 15.9853C33.3603 15.587 33.9445 15.2285 34.1038 15.6269Z" fill="#161616"/>
    <path d="M26.5094 16.4235C28.7267 20.9111 30.5722 25.5315 32.1654 30.2448C32.2982 30.6431 31.6476 30.829 31.5148 30.4307C29.9482 25.7705 28.1292 21.1899 25.9253 16.7687C25.7261 16.3837 26.3103 16.0518 26.5094 16.4368V16.4235Z" fill="#161616"/>
    <path d="M17.9857 16.9546C20.5481 21.1103 22.4467 25.6111 23.6416 30.3377C23.7478 30.7626 23.0973 30.9484 22.991 30.5236C21.8227 25.8368 19.9374 21.3891 17.4015 17.2865C17.1758 16.928 17.7599 16.5961 17.9857 16.9546Z" fill="#161616"/>
    <path d="M11.2543 17.2732C13.3653 21.3492 15.1577 25.5978 16.6314 29.9659C16.7642 30.3642 16.1136 30.5501 15.9809 30.1518C14.5204 25.8501 12.7546 21.6679 10.6701 17.6317C10.4842 17.2334 11.0551 16.8882 11.2543 17.2732Z" fill="#161616"/>
    <path d="M26.3767 24.695C27.9965 23.8187 28.2222 21.6413 26.6688 20.5261C25.5004 19.6896 23.1238 18.9992 22.2343 20.5261C21.4509 21.8936 22.3936 23.5532 23.5089 24.3896C25.2614 25.6642 26.4962 24.2569 27.2928 22.7964C27.4919 22.4114 28.0761 22.7566 27.877 23.1283C26.8414 24.9871 25.1818 26.4476 23.1238 24.9473C21.597 23.8453 20.5481 21.5218 21.8492 19.8622C23.1902 18.1628 26.2705 19.0523 27.5716 20.4066C29.0321 21.9334 28.4877 24.2834 26.7219 25.2526C26.3368 25.5049 26.0049 24.9207 26.3899 24.7083L26.3767 24.695Z" fill="#5222D0"/>
    <path d="M35.8829 2.28361C36.3078 3.83701 36.4405 5.40369 36.2148 7.01019C36.175 7.43505 35.4713 7.43505 35.5377 7.01019C35.7369 5.4568 35.6439 3.9565 35.2191 2.45621C35.1129 2.05791 35.7634 1.87203 35.8696 2.27034L35.8829 2.28361Z" fill="#161616"/>
    <path d="M35.4581 2.69516C27.0272 1.7525 18.53 1.5268 10.0461 2.04459L10.378 1.71267C10.2718 3.04036 10.2851 4.3415 10.5108 5.64264C10.5771 6.0675 9.92658 6.25337 9.8602 5.82851C9.63449 4.46099 9.5681 3.12002 9.70087 1.72595C9.72743 1.54007 9.83364 1.4073 10.0328 1.39403C18.5167 0.876227 27.014 1.10193 35.4448 2.04459C35.8697 2.08443 35.8697 2.76155 35.4448 2.72172L35.4581 2.69516Z" fill="#161616"/>
    <path d="M34.8075 6.79777C26.7352 6.61189 18.6628 6.43929 10.5904 6.25342C10.1656 6.25342 10.1656 5.57629 10.5904 5.57629C18.6628 5.76217 26.7352 5.93477 34.8075 6.12065C35.2324 6.1472 35.2324 6.81105 34.8075 6.79777Z" fill="#161616"/>
    <path opacity="0.2" d="M3.60674 6.02773C3.87228 12.5069 7.8288 25.8634 11.3206 30.3245C12.489 31.8115 35.7236 33.4977 44.8315 31.1344C45.8273 30.8821 45.4821 35.0378 45.4821 35.0378L40.5829 35.7282C40.5829 35.7282 41.4061 37.3081 42.4815 38.5827C35.9891 40.1759 16.0207 39.5652 8.12089 36.485C7.74914 36.3389 7.36411 36.1929 7.24462 35.8078L5.57173 31.2937L5.13359 31.3601C4.41664 31.4663 3.31465 30.6564 3.1155 29.966C-1.14639 15.8925 1.52227 1.87206 2.09318 1.75257C2.09318 1.75257 3.26154 -2.56243 3.60674 6.02773Z" fill="#6D6C6C"/>
    <path opacity="0.2" d="M45.6016 35.3564L40.7024 36.0468C40.7024 36.0468 41.5256 37.6267 42.601 38.9013C36.1086 40.4945 16.1401 39.8838 8.24039 36.8036C7.86863 36.6575 7.4836 36.5115 7.36411 36.1264L5.69122 31.6123C5.69122 31.6123 3.8059 31.5725 3.40759 30.59C2.57115 28.5055 1.01775 11.9625 0.977921 7.64747C0.964644 5.41695 1.1638 4.03616 1.46917 3.18643C1.77453 2.33671 3.22172 2.52259 3.1155 3.43869C2.45166 9.26726 4.57596 30.6829 10.2585 34.6793C15.5294 38.3968 45.6016 35.3298 45.6016 35.3298V35.3564Z" fill="#6D6C6C"/>
    <path d="M76.736 146.843V151.848C64.893 156.548 62.4766 158.221 62.6492 158.818C62.689 158.964 63.0077 159.416 69.2213 158.686C75.3817 157.955 80.3739 156.906 83.8391 156.043C83.2284 152.618 82.6044 149.206 82.0069 145.78C80.2411 146.139 78.4885 146.497 76.736 146.829V146.843Z" fill="#161616"/>
    <path d="M82.0467 76.0102C81.7015 76.6475 81.582 77.1653 81.5555 77.2848C79.4444 86.2865 76.6696 91.6106 74.8639 102.046C71.4119 122.161 74.3859 145.01 74.678 147.148C75.6207 147.559 77.4529 148.183 79.7764 148.091C81.821 147.998 83.4009 147.4 84.3038 146.962C83.9586 140.403 84.3038 132.304 86.5741 123.369C89.349 112.429 92.8541 108.804 96.0007 96.0052C98.3375 86.5255 101.046 75.4924 96.3725 72.2263C92.7877 69.6771 84.3967 71.5492 82.0467 75.9969V76.0102Z" fill="#EC615B"/>
    <path opacity="0.2" d="M90.2386 80.7369C87.8753 91.5443 85.6581 103.069 83.7993 115.257C82.0335 126.715 80.7191 137.695 79.7366 148.117C81.2369 147.812 82.7106 147.493 84.2109 147.188C84.025 142.581 84.2242 138.664 84.5163 135.65C84.8747 131.919 85.7776 123.223 89.4022 114.553C89.8801 113.438 90.4776 112.097 91.4734 109.561C93.1462 105.366 94.3544 101.781 94.9121 100.095C97.4878 92.0355 98.7757 82.6886 99.174 79.6083C96.1867 79.9668 93.2126 80.3518 90.2253 80.7369H90.2386Z" fill="#6D6C6C"/>
    <path opacity="0.19" d="M95.1245 99.5635C89.3225 107.131 86.614 113.982 85.2465 118.589C83.9985 122.785 83.4541 126.476 82.7504 131.282C81.7414 138.093 81.3563 143.842 81.197 147.931C82.1795 147.692 83.1355 147.44 84.1179 147.201C83.9586 141.465 84.3569 136.566 84.8482 132.742C85.4456 128.215 86.1228 122.957 88.486 116.638C89.349 114.341 89.7606 113.69 91.7123 108.725C93.2259 104.848 94.381 101.661 95.1378 99.5635H95.1245Z" fill="#6D6C6C"/>
    <path d="M108.72 145.143C109.543 147.201 110.393 149.259 111.216 151.33C104.259 155.751 100.966 158.34 101.338 159.084C101.803 160.013 107.804 158.168 119.368 153.561C118.133 149.564 116.912 145.581 115.677 141.585C113.354 142.767 111.03 143.948 108.707 145.143H108.72Z" fill="#161616"/>
    <path d="M102.998 76.1962C106.622 79.5154 106.503 84.1623 106.968 91.863C106.968 91.863 108.096 110.809 111.867 126.024C112.809 129.835 114.535 135.743 117.722 142.82C117.191 143.497 115.744 145.156 113.194 146.033C110.592 146.922 108.362 146.444 107.538 146.232C103.011 138.505 99.798 131.906 97.7268 127.352C88.1143 106.295 87.3442 95.2087 87.3442 89.42C87.3442 83.6313 87.4504 76.329 91.8717 73.9391C95.2042 72.1467 100.09 73.5408 103.011 76.2095L102.998 76.1962Z" fill="#EC615B"/>
    <path opacity="0.15" d="M92.7213 78.4533C94.3677 84.7731 96.1468 91.1991 98.0321 97.7181C102.984 114.633 108.348 130.605 113.991 145.595C114.535 145.316 115.199 144.931 115.89 144.413C116.58 143.882 117.138 143.351 117.549 142.873C116.779 141.08 115.717 138.491 114.588 135.305C112.889 130.432 110.114 121.47 108.68 109.535C107.299 98.0765 106.609 92.3409 106.662 88.7296C106.702 85.7556 106.967 79.7013 103.117 76.4352C102.321 75.7713 101.537 75.373 100.98 75.134C98.2047 76.2493 95.4564 77.3513 92.7081 78.4533H92.7213Z" fill="#6D6C6C"/>
    <path opacity="0.22" d="M106.848 92.5798C106.171 99.4705 105.945 108.685 107.605 119.359C109.278 130.087 112.318 138.837 115.053 145.196C115.903 144.506 116.739 143.802 117.589 143.098C116.58 140.709 115.266 137.403 113.951 133.34C111.415 125.533 110.327 119.452 109.371 113.982C108.415 108.379 107.406 101.143 106.848 92.5798Z" fill="#6D6C6C"/>
    <path d="M37.516 22.0928C36.9185 22.3849 36.1086 22.9027 35.4713 23.7922C35.1261 24.2569 34.7146 24.8544 34.6614 25.7174C34.6482 26.0626 34.6083 26.7928 35.073 27.284C35.2058 27.4301 35.5643 27.7089 37.3036 27.6558C38.8569 27.6027 39.6403 27.5629 40.0386 27.1513C40.8087 26.3547 40.5298 24.8411 40.0386 23.9383C39.2685 22.5044 37.755 22.1459 37.5027 22.0928H37.516Z" fill="white"/>
    <path d="M36.8521 27.8284C35.5377 27.8284 35.1527 27.6027 34.9668 27.4036C34.4623 26.8858 34.5021 26.1157 34.5154 25.7572V25.7307C34.5818 24.8411 34.9801 24.2304 35.3651 23.7259C35.8829 23.0089 36.5866 22.4115 37.4629 21.9733L37.516 21.9468H37.5691C38.1134 22.0928 39.4677 22.531 40.1979 23.8852C40.6626 24.7482 41.0476 26.368 40.1713 27.2708C39.7332 27.7222 38.9233 27.7621 37.3301 27.8152C37.1575 27.8152 37.0114 27.8152 36.8654 27.8152L36.8521 27.8284ZM37.5425 22.2654C36.7326 22.677 36.0821 23.2214 35.6041 23.8985C35.2456 24.3765 34.8739 24.9474 34.8208 25.744V25.7705C34.8075 26.1024 34.7809 26.7796 35.1925 27.2044C35.4182 27.4567 36.1352 27.5762 37.3168 27.5364C38.8304 27.4832 39.6004 27.4434 39.9589 27.0717C40.636 26.368 40.4502 24.9872 39.9324 24.0313C39.2818 22.8231 38.0869 22.3982 37.5425 22.2654Z" fill="#161616"/>
    <path d="M46.4646 25.8103C48.5491 28.2001 51.8949 29.6208 58.0421 32.1434C65.7825 35.3431 69.6726 36.9363 74.2532 37.5072C79.2187 38.118 81.8609 37.4807 82.777 39.0872C83.9719 41.1717 81.1572 45.0884 78.2628 48.3545C76.0987 47.8765 73.8682 47.2923 71.558 46.5223C58.8918 42.3268 49.744 34.9581 43.7296 28.8241C42.9728 28.9835 41.6849 29.1561 40.2245 28.7047C38.9632 28.3329 37.1841 27.3902 37.2903 26.6335C37.423 25.7174 40.6361 25.558 40.8352 25.5315C39.8527 25.1332 38.4454 24.456 36.9318 23.3408C36.4937 23.0089 33.9445 21.1368 34.2499 20.5394C34.5154 20.0216 36.8256 20.7252 39.003 21.4024C40.9813 22.0131 42.3621 22.438 43.8756 23.4736C45.3228 24.456 46.1725 25.4518 46.4646 25.797V25.8103Z" fill="white"/>
    <path d="M78.3292 48.5271H78.2495C75.8862 47.996 73.6955 47.3853 71.5314 46.6683C61.2418 43.2694 51.8816 37.3214 43.703 28.9967C42.4948 29.249 41.3132 29.1959 40.1979 28.864C38.8968 28.4789 37.038 27.5097 37.1575 26.6335C37.2637 25.9032 38.7773 25.5846 40.2377 25.4518C39.0561 24.9207 37.9276 24.2569 36.8521 23.4868C34.7942 21.9733 33.8781 20.9775 34.1304 20.4995C34.4357 19.9153 36.175 20.4066 39.0163 21.2696H39.0561C41.0078 21.8803 42.4152 22.3052 43.9685 23.3673C45.3759 24.31 46.2256 25.2925 46.5443 25.6642L46.5841 25.7173C48.6155 28.0408 51.7621 29.395 58.1085 32.0106C65.8223 35.1971 69.6992 36.8036 74.2797 37.3612C75.8995 37.5603 77.2936 37.6267 78.4088 37.6798C80.812 37.7993 82.2591 37.8657 82.9097 39.0208C83.9188 40.7866 82.445 43.8802 78.369 48.4607L78.3159 48.5271H78.3292ZM43.7959 28.6648L43.8491 28.7179C52.0144 37.0425 61.348 42.9773 71.6111 46.3762C73.7354 47.0799 75.8995 47.6773 78.223 48.1951C82.0998 43.8138 83.5868 40.7734 82.6707 39.1669C82.0865 38.1445 80.7057 38.0914 78.4088 37.9719C77.2803 37.9188 75.8862 37.8524 74.2532 37.6533C69.6328 37.0824 65.7427 35.4759 58.0022 32.2761C51.616 29.6473 48.4429 28.2665 46.3717 25.9032L46.3318 25.8501C46.0132 25.4916 45.1767 24.5224 43.8092 23.6063C42.2957 22.5707 40.9016 22.1459 38.9764 21.5484H38.9366C37.2106 21.004 34.6083 20.2074 34.3959 20.619C34.2764 20.858 35.0465 21.7741 37.038 23.2346C38.2595 24.1241 39.5606 24.8543 40.9149 25.412L40.875 25.6908H40.8219C38.8569 25.8236 37.5292 26.1953 37.4629 26.66C37.3832 27.2442 38.9233 28.1603 40.2908 28.5719C41.3928 28.9038 42.5479 28.9436 43.7296 28.6914H43.8092L43.7959 28.6648Z" fill="#161616"/>
    <path d="M36.2149 22.2654C36.5733 22.6637 36.6397 23.1948 36.9584 23.6197C37.2239 23.9914 37.6089 24.257 38.0072 24.4827C39.2022 25.1465 40.4768 25.6909 41.7115 26.3016C41.9239 26.4078 42.1895 26.129 41.977 25.9431C41.3398 25.3988 40.6626 24.9075 39.9457 24.4561C39.7067 24.3101 39.4677 24.6951 39.72 24.8411C40.3971 25.266 41.0477 25.7307 41.6584 26.2485C41.7513 26.129 41.831 26.0095 41.9239 25.89C40.7556 25.3324 39.5872 24.7748 38.4321 24.1773C37.8878 23.8985 37.3965 23.5666 37.1177 23.0089C36.9185 22.6239 36.8256 22.2521 36.5202 21.9335C36.3211 21.7609 36.0157 22.0663 36.2149 22.2787V22.2654Z" fill="white"/>
    <path d="M37.3699 23.8188C38.0471 24.1109 38.6976 24.4959 39.2951 24.9606C39.5208 25.1332 39.8262 24.8278 39.6005 24.6552C38.9765 24.164 38.3126 23.7657 37.5824 23.447C37.3168 23.3275 37.0911 23.7126 37.3567 23.8321L37.3699 23.8188Z" fill="white"/>
    <path d="M35.6306 21.9999C36.1883 22.9027 36.9318 23.6462 37.8081 24.2304C38.047 24.3897 38.2728 24.0047 38.0338 23.8454C37.2239 23.301 36.5335 22.5973 36.0157 21.7609C35.8696 21.5352 35.4846 21.7609 35.6306 21.9999Z" fill="white"/>
    <path d="M36.2945 23.2081C36.5866 23.6064 36.9185 23.9781 37.2903 24.31C37.5558 24.549 38.7242 25.3855 38.1134 25.8236C37.9939 25.9033 38.1134 26.0891 38.2329 26.0095C38.6445 25.7307 38.4852 25.2261 38.2329 24.8809C38.0338 24.6287 37.7682 24.4428 37.516 24.2171C37.1309 23.8719 36.7857 23.5002 36.4804 23.1018C36.3874 22.9691 36.2016 23.0886 36.2945 23.2081Z" fill="#161616"/>
    <path d="M35.9759 24.7482C36.414 25.3589 37.2638 26.2086 38.0869 25.9564C38.2197 25.9165 38.1666 25.7041 38.0338 25.7439C37.3169 25.9696 36.5335 25.1465 36.1618 24.6287C36.0688 24.5092 35.883 24.6154 35.9759 24.7349V24.7482Z" fill="#161616"/>
    <path d="M35.3253 25.7837C35.8165 26.4476 36.5202 26.8326 37.3567 26.8857C37.5027 26.899 37.5027 26.6733 37.3567 26.66C36.6131 26.6202 35.9626 26.2617 35.5244 25.6642C35.4315 25.5447 35.2456 25.6642 35.3386 25.7837H35.3253Z" fill="#161616"/>
    <path d="M34.8606 27.1115C35.551 27.8417 36.7061 27.855 37.4098 27.1115C37.516 27.0053 37.3567 26.8459 37.2505 26.9521C36.6397 27.6027 35.6307 27.5894 35.0332 26.9521C34.927 26.8459 34.7677 27.0053 34.8739 27.1115H34.8606Z" fill="#161616"/>
    <path d="M35.0067 21.96C36.653 23.0354 37.8347 24.8677 39.8926 25.2129C40.0254 25.2394 40.105 25.027 39.9457 25.0004C37.9143 24.6552 36.7327 22.8363 35.1129 21.7741C34.9801 21.6679 34.8739 21.8671 34.9934 21.9467L35.0067 21.96Z" fill="#161616"/>
    <path opacity="0.2" d="M34.8207 26.8061C34.2897 26.0759 34.7278 24.5225 36.0157 23.062C37.4629 23.9117 38.8968 24.7615 40.3572 25.6112C40.0917 25.6112 37.7549 25.6377 37.5823 26.368C37.5558 26.4875 37.5823 26.6601 37.8081 26.9123C38.5516 27.2708 39.7863 27.7355 41.3928 27.7886C42.216 27.8019 42.9462 27.6957 43.5038 27.5629C46.531 30.6166 51.8417 35.2237 59.6618 38.5694C66.5393 41.5036 72.6865 42.3401 76.7625 42.5791C76.6297 44.3316 76.497 46.0576 76.3642 47.8102C69.6593 46.0311 60.5647 42.6587 51.5364 35.8742C48.4561 33.564 45.814 31.1742 43.5702 28.8906C41.499 29.2358 40.2112 28.8773 39.388 28.4657C38.6976 28.1072 38.2462 27.6691 37.3301 27.5894C36.7193 27.5496 36.2015 27.6957 35.5377 27.3637C35.458 27.3372 35.0332 27.1115 34.8075 26.8194L34.8207 26.8061Z" fill="#6D6C6C"/>
    <path opacity="0.14" d="M53.8997 37.255C55.9709 38.3703 58.374 39.4855 61.1091 40.4547C67.0704 42.5658 72.4874 43.2429 76.6165 43.3889C76.5634 44.9025 76.5103 46.4293 76.4572 47.9296C72.1687 46.9206 66.7783 45.1548 61.056 41.9683C58.3209 40.4415 55.9444 38.835 53.8997 37.255Z" fill="#6D6C6C"/>
    <path d="M77.3069 41.4771C76.4572 43.389 76.4173 44.9689 76.351 47.8102C76.2978 49.961 76.4439 52.2712 77.599 58.3388C79.0063 65.6809 79.6702 66.8625 79.8959 70.7659C80.0685 73.8196 79.8428 76.3157 79.6171 77.9753C81.4891 78.9976 84.6092 80.3917 88.6985 80.6971C95.9211 81.2414 101.272 78.055 103.104 76.8468C103.33 72.1999 103.542 67.5264 103.781 62.8795C102.971 58.9097 102.002 55.8029 101.312 53.7582C99.1208 47.3189 97.0762 44.2652 98.3773 41.039C99.1076 39.2466 100.541 38.1579 101.537 37.5471C100.847 37.0161 93.5445 31.6123 85.5784 34.4138C84.7552 34.6926 79.5109 36.5514 77.3334 41.4771H77.3069Z" fill="white"/>
    <path d="M90.3315 80.9228C89.7872 80.9228 89.2295 80.8962 88.6719 80.8564C85.4854 80.6174 82.4185 79.688 79.5374 78.1081L79.4444 78.055V77.9487C79.7896 75.5058 79.8826 73.1558 79.7365 70.7659C79.6038 68.3628 79.2984 67.0086 78.7408 64.5523C78.3956 63.0388 77.9707 61.1535 77.4396 58.3653C76.3111 52.4305 76.1252 50.0805 76.1916 47.8102C76.2713 44.9424 76.3111 43.3624 77.1608 41.4107C79.2453 36.6974 84.0648 34.7457 85.4987 34.2677C93.4781 31.4663 100.794 36.8169 101.604 37.4276L101.776 37.5604L101.59 37.6666C100.09 38.5827 99.0411 39.7378 98.4968 41.0921C97.5409 43.4421 98.4171 45.6859 99.8378 49.4034C100.316 50.6514 100.873 52.0721 101.431 53.7184C102.44 56.6659 103.276 59.7461 103.914 62.8529V62.8927C103.688 67.3405 103.476 71.8679 103.263 76.2493L103.237 76.9264L103.17 76.9663C100.86 78.4931 96.2796 80.9095 90.3315 80.9095V80.9228ZM79.7631 77.9089C82.5778 79.4358 85.5784 80.3253 88.6852 80.5643C95.2838 81.0688 100.422 78.4267 102.931 76.7804L102.958 76.2493C103.17 71.8812 103.383 67.3538 103.608 62.906C102.971 59.8125 102.148 56.7588 101.139 53.8246C100.581 52.1915 100.037 50.7709 99.559 49.5229C98.1516 45.8717 97.2222 43.4686 98.218 40.9991C98.7623 39.6449 99.7847 38.4898 101.245 37.5471C99.8776 36.5514 93.0267 31.9443 85.5916 34.5598C84.1843 35.0378 79.4577 36.9497 77.4263 41.5435C76.5899 43.4288 76.5501 44.9955 76.4704 47.8234C76.404 50.0672 76.5899 52.4173 77.7052 58.3255C78.2362 61.1136 78.6611 62.999 79.0063 64.5125C79.5639 66.982 79.8693 68.3495 80.0021 70.7792C80.1348 73.1558 80.0552 75.4925 79.7365 77.9222L79.7631 77.9089Z" fill="#161616"/>
    <path opacity="0.19" d="M85.5253 34.4005C87.7425 37.9587 88.9905 41.092 89.7075 43.2827C89.7075 43.2827 93.186 53.8511 90.6369 68.0441C90.0925 71.0713 89.11 75.3597 87.1849 80.2722C87.9284 80.4315 88.8179 80.5643 89.827 80.6174C89.827 80.6174 91.3804 80.697 93.1329 80.4713C95.2705 80.1925 98.9217 79.0507 103.237 76.86C103.316 71.8944 103.383 66.9554 103.462 61.9899C102.36 57.7944 101.258 54.4353 100.422 52.0853C98.4171 46.4692 97.0098 43.8403 98.1649 41.0522C98.9217 39.2332 100.462 38.1047 101.657 37.4541C100.09 36.4185 97.1824 34.7988 93.2126 34.188C89.9465 33.6835 87.2513 34.042 85.5253 34.4137V34.4005Z" fill="#6D6C6C"/>
    <path opacity="0.11" d="M87.5566 34.0685C89.9465 37.0027 92.7214 41.2778 94.4474 46.9205C99.32 63.0254 91.314 77.1653 89.4552 80.2588C91.0086 80.2456 92.8276 80.1128 94.8191 79.7278C98.364 79.0506 101.192 77.8292 103.21 76.7537C103.29 72.1334 103.356 67.513 103.436 62.9059C102.175 58.6308 100.993 54.568 99.3731 49.0581C98.2711 45.2875 97.4214 42.1807 99.0279 39.7112C99.8112 38.5162 100.913 37.8391 101.736 37.4541C97.0098 36.3123 92.2699 35.1837 87.5566 34.0685Z" fill="#6D6C6C"/>
    <path d="M100.727 37.1621C103.821 36.7505 107.512 43.8536 108.972 48.9652C110.658 54.8469 109.915 59.9187 109.318 62.6006C108.136 67.8583 105.68 71.5625 104.14 73.5541C104.379 74.3374 104.923 76.475 104.02 78.8117C102.692 82.2371 99.0677 83.8702 98.7889 83.5648C98.696 83.4586 98.8819 83.0338 100.289 81.414C99.9971 81.7193 97.8595 83.8437 95.4564 83.3391C95.0448 83.2462 94.527 83.1533 94.2217 82.7284C93.5313 81.7194 94.6864 79.4357 97.1426 76.9131C94.4607 77.577 93.757 77.4044 93.6242 77.099C93.279 76.382 96.0273 74.3772 97.0098 73.6337C98.4703 72.5583 99.798 71.8148 100.701 71.3501C103.237 66.0924 103.104 61.9899 102.878 60.0647C102.546 57.2235 101.484 54.1299 101.285 53.5325C100.688 51.833 100.409 51.448 99.2271 48.381C97.3152 43.4686 97.3152 42.6189 97.3949 41.9683C97.6604 40.0166 98.9748 37.3745 100.741 37.1355L100.727 37.1621Z" fill="white"/>
    <path d="M98.9084 83.7507C98.8155 83.7507 98.7358 83.7374 98.6694 83.6578C98.5632 83.525 98.5367 83.3391 99.1474 82.5425C98.218 83.1665 96.8638 83.7905 95.4166 83.4852H95.39C94.9519 83.3922 94.4208 83.2727 94.1022 82.8213C93.3852 81.799 94.381 79.6481 96.6912 77.1786C94.1287 77.7761 93.6242 77.484 93.4782 77.1786C93.1462 76.475 94.8855 75.0411 96.824 73.5939L96.9169 73.5275C98.0853 72.6645 99.32 71.8944 100.581 71.2571C102.387 67.4865 103.13 63.6229 102.719 60.1045C102.414 57.4226 101.418 54.4486 101.126 53.6121C100.82 52.7359 100.595 52.2048 100.289 51.4878C99.9971 50.7974 99.6387 49.9477 99.0677 48.474C97.2223 43.7208 97.1426 42.7251 97.2223 41.9948C97.4745 40.1493 98.7491 37.2948 100.701 37.0425C103.98 36.6044 107.658 43.8934 109.105 48.9519C110.698 54.5017 110.167 59.4672 109.45 62.667C108.561 66.6368 106.821 70.3145 104.286 73.6204C104.817 75.4394 104.777 77.2716 104.14 78.9046C102.958 81.9185 100.077 83.5914 99.0677 83.7773C99.0146 83.7773 98.9615 83.7905 98.9084 83.7905V83.7507ZM98.9084 83.4586C99.4395 83.4586 102.626 81.945 103.861 78.7586C104.471 77.1654 104.511 75.3863 103.98 73.5939L103.954 73.5275L103.993 73.4611C106.529 70.1684 108.255 66.504 109.145 62.5608C109.862 59.4009 110.38 54.4884 108.813 48.9918C107.326 43.827 103.701 36.8965 100.727 37.2948C99.0146 37.5205 97.7533 40.1759 97.5144 41.9948C97.4347 42.6852 97.5143 43.6412 99.3466 48.3279C99.9175 49.8017 100.276 50.6514 100.568 51.3418C100.873 52.072 101.099 52.6031 101.404 53.4926C101.697 54.3424 102.706 57.3297 103.011 60.0514C103.423 63.6495 102.666 67.5794 100.82 71.4165L100.794 71.4563L100.754 71.4828C99.4926 72.1201 98.2579 72.8902 97.0895 73.7532L96.9966 73.8196C94.0756 75.997 93.6109 76.7671 93.7437 77.0326C93.7968 77.1521 94.1951 77.484 97.1028 76.7538L97.6073 76.6343L97.2488 77.006C94.8723 79.449 93.7039 81.7193 94.3412 82.6354C94.5934 82.9939 95.0581 83.0869 95.4564 83.1798H95.483C97.833 83.6843 99.944 81.5467 100.17 81.3078L100.382 81.5069C99.2005 82.8612 98.9615 83.3126 98.9084 83.4453V83.4586Z" fill="#161616"/>
    <path d="M94.2747 82.3168C95.9211 81.3874 97.355 80.1792 98.5499 78.732C98.7225 78.5063 98.4171 78.201 98.2445 78.4267C97.0762 79.8473 95.6688 81.0289 94.049 81.945C93.7968 82.0645 94.0225 82.4496 94.2747 82.3168Z" fill="#161616"/>
    <path d="M95.7353 83.3126C97.3683 82.4629 98.7624 81.2945 99.8776 79.8473C100.05 79.6216 99.6652 79.4092 99.4926 79.6216C98.4305 81.0157 97.0629 82.1177 95.5095 82.9275C95.2573 83.0603 95.483 83.4453 95.7353 83.3126Z" fill="#161616"/>
    <path opacity="0.17" d="M99.4793 37.8658C96.5318 40.4282 108.561 51.6605 106.503 64.4329C105.095 73.1823 99.2669 78.9047 99.2669 78.9047C97.6338 80.5378 94.5669 82.5293 94.9386 83.233C95.2042 83.7375 97.0629 83.2728 97.7268 83.0736C98.9881 82.6886 99.8643 82.038 100.342 81.6132C99.5988 82.4364 98.7624 83.4587 98.935 83.6711C99.1872 83.9366 101.285 82.8479 102.613 81.3078C104.896 78.6392 104.564 74.9349 104.339 73.4346C104.87 72.7442 105.573 71.7617 106.277 70.5137C106.928 69.3984 108.813 65.9332 109.623 61.2331C111.057 52.8952 108.109 46.3232 106.928 43.7474C105.866 41.4505 104.06 37.6401 101.312 37.4807C100.953 37.4409 100.05 37.3878 99.4793 37.8923V37.8658Z" fill="#6D6C6C"/>
    <path opacity="0.22" d="M109.464 60.9675C108.667 63.291 107.711 65.7339 106.596 68.2964C105.799 70.1153 104.976 71.8148 104.153 73.4345C103.741 74.7622 102.958 76.767 101.404 78.825C99.7714 80.9891 97.979 82.3035 96.7841 83.0603C97.1293 83.0736 97.5409 83.047 97.9923 82.9275C99.1474 82.662 99.9175 82.0247 100.303 81.6397C99.8644 82.1973 99.3997 82.7549 98.9615 83.3126C99.32 83.2595 99.8776 83.1532 100.502 82.8744C103.754 81.414 104.445 77.4309 104.485 77.1521C104.604 76.4219 104.671 75.1871 104.232 73.647C105.295 72.3857 106.649 70.5136 107.724 67.9777C108.919 65.1896 109.318 62.6935 109.477 60.9675H109.464Z" fill="#6D6C6C"/>
    <path d="M73.908 27.4167C71.5181 30.1385 73.1645 33.949 73.3902 34.4668C74.2133 36.3919 76.3642 39.127 79.086 38.9145C81.0642 38.7419 82.3255 37.0691 82.6442 36.6176C84.8349 33.4577 84.1046 27.43 80.4136 25.8766C78.369 25.0136 75.5543 25.5181 73.908 27.4167Z" fill="#5222D0"/>
    <path d="M79.9224 29.8465C80.0286 31.0148 81.2501 31.2671 82.0865 33.1922C82.684 34.5863 82.684 35.9406 82.5778 36.923C83.5337 37.016 85.3128 37.0558 87.3309 36.2858C88.9109 35.675 90.0261 34.7987 90.69 34.2013C90.3846 33.5109 89.9199 32.4886 89.3756 31.2671C87.0123 26.1024 86.6272 25.6509 86.0431 25.4385C83.7329 24.5622 79.7365 27.669 79.9224 29.8465Z" fill="white"/>
    <path d="M83.5868 37.1222C83.2416 37.1222 82.8964 37.1089 82.5512 37.0691H82.4052L82.4185 36.9098C82.5645 35.5688 82.4052 34.3341 81.9405 33.2453C81.5422 32.316 81.0244 31.7716 80.6261 31.3335C80.2012 30.8821 79.8295 30.4838 79.7764 29.8465C79.6834 28.7976 80.5199 27.4566 81.9007 26.4077C83.0558 25.5315 84.7552 24.7747 86.0962 25.2792C86.7467 25.5315 87.1451 26.036 89.5083 31.1874C90.0527 32.4089 90.5174 33.4312 90.8228 34.1216L90.8626 34.2146L90.7829 34.2809C89.7606 35.2103 88.6188 35.9273 87.3708 36.392C86.1626 36.8567 84.9013 37.0824 83.5868 37.0824V37.1222ZM82.7238 36.7903C84.3038 36.9098 85.8306 36.6973 87.2645 36.153C88.4462 35.7016 89.5216 35.0377 90.5041 34.1615C90.1987 33.4711 89.7473 32.4886 89.2295 31.3335C86.9326 26.3281 86.521 25.7837 85.9767 25.5713C84.7552 25.1066 83.162 25.8236 82.0733 26.66C80.7721 27.6425 79.9888 28.8905 80.0685 29.8332C80.1216 30.3643 80.4269 30.6962 80.8385 31.1343C81.2634 31.5857 81.7945 32.1434 82.2193 33.1259C82.684 34.2146 82.8566 35.436 82.7371 36.777L82.7238 36.7903Z" fill="#161616"/>
    <path d="M71.3854 14.5514C70.8809 15.2684 70.5755 16.1314 70.5224 19.8887C70.4958 23.0885 70.6684 26.0094 70.9605 28.5984C71.6244 28.2134 72.2882 27.8283 72.9653 27.4433C73.2574 28.1735 73.762 29.156 74.625 30.1252C76.3244 32.0371 78.3956 32.6877 79.325 32.9267C80.2809 32.6877 82.684 31.9442 84.503 29.6871C85.6979 28.1735 86.0829 26.6865 86.1759 26.3413C86.7202 24.1108 86.1891 22.252 85.9103 21.482C86.2688 21.3226 86.8132 21.004 87.2247 20.4464C88.101 19.2647 88.34 17.1404 87.2513 16.4367C86.4547 15.9057 85.034 16.211 83.9586 17.313C83.7196 16.7687 83.3479 16.0119 82.7637 15.2285C82.6177 15.0427 81.5024 13.5822 80.1482 12.8254C77.5326 11.3119 73.191 12.0288 71.3854 14.578V14.5514Z" fill="white"/>
    <path d="M79.325 33.0594H79.2851C77.3865 32.5549 75.7402 31.5724 74.5187 30.2049C73.8549 29.4614 73.3105 28.5984 72.8989 27.6425L70.8543 28.8241L70.8277 28.5984C70.5091 25.7704 70.3498 22.8362 70.3763 19.8755C70.4162 16.2774 70.695 15.2551 71.2659 14.4585C73.0715 11.9226 77.4264 11.0463 80.2278 12.6661C81.4758 13.3565 82.4981 14.5913 82.8832 15.0958C83.3213 15.68 83.6931 16.304 84.0117 17.0209C85.0739 16.0252 86.4679 15.7065 87.3309 16.2774C87.716 16.5297 87.9682 16.9545 88.0744 17.5255C88.247 18.4681 87.9417 19.6896 87.3442 20.5128C87.0389 20.9376 86.614 21.2828 86.0962 21.5351C86.4281 22.4777 86.8397 24.2568 86.3219 26.3546C85.9236 27.908 85.1801 29.0631 84.6224 29.7535C82.8832 31.9176 80.573 32.7541 79.3648 33.0462H79.325V33.0594ZM73.045 27.2176L73.1114 27.3769C73.5097 28.3594 74.0673 29.249 74.7444 30.019C75.9128 31.3334 77.506 32.2894 79.325 32.7673C80.5199 32.4752 82.7238 31.6654 84.3967 29.5809C84.9278 28.9038 85.6448 27.7885 86.0431 26.3015C86.5609 24.1905 86.0962 22.3981 85.7775 21.5218L85.7244 21.389L85.8439 21.3359C86.375 21.0969 86.7999 20.765 87.1052 20.3402C87.6629 19.5834 87.9417 18.4548 87.7823 17.5918C87.7027 17.1139 87.4903 16.7554 87.1716 16.543C86.4016 16.0252 85.034 16.3969 84.0781 17.3927L83.9188 17.552L83.8258 17.3529C83.4939 16.5828 83.1089 15.9057 82.6442 15.2949C82.2724 14.8037 81.2634 13.5955 80.0685 12.9316C77.4264 11.4048 73.1778 12.2545 71.4916 14.6311C71.0269 15.2817 70.7083 16.0384 70.6551 19.8755C70.6286 22.7433 70.7746 25.5978 71.0667 28.3329L73.0184 27.2043L73.045 27.2176Z" fill="#161616"/>
    <path d="M70.31 19.1983C69.7125 19.0921 68.6238 18.7868 68.106 17.8839C67.2164 16.3571 68.5176 14.0336 68.8495 13.4627C69.115 12.9715 69.832 11.8031 72.8459 9.69207C75.1428 8.07229 76.2978 7.27568 77.5459 6.89065C81.9538 5.57623 86.0033 7.84658 86.76 8.28472C88.34 9.18755 89.349 10.17 90.1457 10.9401C91.3804 12.1217 92.7479 13.4893 94.2881 15.0559C98.2446 20.1808 99.6386 24.8543 100.196 27.6557C100.834 30.8289 101.484 34.0552 99.5855 35.9538C97.6869 37.8524 94.2217 37.4674 92.1106 36.5645C89.1632 35.3032 87.9019 32.6346 86.9326 30.5766C85.273 27.0583 85.1668 23.6727 85.3394 21.482C86.8264 21.0571 87.5699 19.663 87.238 18.6142C86.9725 17.791 85.9767 16.9545 84.9544 17.2466C84.1711 17.4723 83.6134 18.2822 83.6533 19.2249C82.9363 19.2116 81.051 19.0523 79.2453 17.6848C77.9309 16.689 77.2671 15.5074 76.9484 14.8568C76.1385 14.963 74.5055 15.2551 72.8591 16.4367C71.4783 17.3794 70.7083 18.5212 70.3232 19.2116L70.31 19.1983Z" fill="#5222D0"/>
    <path opacity="0.24" d="M80.1083 22.0264C81.8874 24.1772 82.445 26.4343 82.445 26.4343C83.0292 28.9835 82.1928 31.1476 81.821 32.0106C82.7504 31.2936 83.7063 30.59 84.6357 29.873C85.2863 32.0371 85.9236 34.188 86.5742 36.3389C87.0654 36.299 88.0744 36.1132 89.0702 35.4095C89.8403 34.8651 90.305 34.2278 90.5572 33.8295C89.3623 32.7143 87.0654 30.258 86.0165 26.3945C85.512 24.5224 85.4323 22.8761 85.4987 21.6281C86.8397 21.0837 87.5434 19.756 87.2646 18.6673C87.0521 17.8707 86.2422 16.9015 85.1934 17.0475C84.3171 17.1803 83.6001 18.0433 83.6134 19.0922C82.9496 19.0922 81.3829 19.0125 79.7366 18.03C78.0371 17.0077 77.2139 15.5871 76.9086 14.9763C76.9882 17.8176 77.8512 19.4639 78.6346 20.4464C79.1524 21.1102 79.3914 21.1368 80.1216 22.0131L80.1083 22.0264Z" fill="#6D6C6C"/>
    <path d="M73.2176 21.4024C73.0582 21.9998 73.0715 22.5973 73.2972 23.1815C73.3769 23.3939 73.6557 23.4072 73.7221 23.1815C73.8947 22.6504 73.8947 22.0795 73.7354 21.5484C73.6424 21.2829 73.2176 21.3891 73.3105 21.6679C73.4566 22.1459 73.4433 22.5973 73.2972 23.0753H73.7221C73.5229 22.5707 73.4964 22.0529 73.6424 21.5351C73.7221 21.2431 73.2972 21.1236 73.2176 21.4024Z" fill="#161616"/>
    <path d="M72.6865 20.4862C73.0716 20.2472 73.5495 20.3003 73.8682 20.6057C74.0806 20.8049 74.386 20.4862 74.1735 20.3003C73.7088 19.8622 73.0052 19.7693 72.4608 20.1145C72.2218 20.2605 72.4475 20.6455 72.6865 20.4995V20.4862Z" fill="#161616"/>
    <path d="M74.293 24.2437C74.5719 24.2437 74.5719 23.8055 74.293 23.8055C74.001 23.8055 74.001 24.2437 74.293 24.2437Z" fill="#161616"/>
    <path d="M75.2622 22.9558V22.9956C75.2622 23.1151 75.3684 23.2213 75.4879 23.2213C75.6074 23.2213 75.7136 23.1151 75.7136 22.9956V22.9558C75.7136 22.8363 75.6074 22.7301 75.4879 22.7301C75.3684 22.7301 75.2622 22.823 75.2622 22.9558Z" fill="#161616"/>
    <path d="M75.3153 24.0711C75.5941 24.0711 75.5941 23.6329 75.3153 23.6329C75.0365 23.6329 75.0365 24.0711 75.3153 24.0711Z" fill="#161616"/>
    <path d="M69.208 22.0795C69.0354 22.6769 69.0486 23.2744 69.2478 23.8586C69.3275 24.071 69.6063 24.071 69.6727 23.8586C69.8453 23.3275 69.8718 22.7566 69.7125 22.2255C69.6328 21.9467 69.208 22.0662 69.2876 22.345C69.4204 22.823 69.4071 23.2744 69.2478 23.7391H69.6727C69.5001 23.2346 69.4602 22.7168 69.6328 22.199C69.7125 21.9201 69.2744 21.8007 69.208 22.0795Z" fill="#161616"/>
    <path d="M68.9557 20.9775C69.2611 20.8182 69.6992 20.8846 69.8984 21.19C70.0577 21.4157 70.4427 21.19 70.2834 20.9643C69.9117 20.473 69.2744 20.3137 68.73 20.5925C68.4777 20.7253 68.7035 21.1103 68.9557 20.9775Z" fill="#161616"/>
    <path d="M73.9478 29.0233C75.0896 28.8109 76.0854 28.2134 76.8156 27.3106C76.9484 27.1512 76.7094 26.9123 76.5766 27.0716C75.8862 27.9346 74.9436 28.4922 73.8549 28.7046C73.6424 28.7445 73.7354 29.0764 73.9478 29.0366V29.0233Z" fill="#161616"/>
    <path d="M76.258 27.0981C76.5235 27.1911 76.7492 27.3238 76.9351 27.5097C77.0812 27.6557 77.3201 27.4168 77.1741 27.2707C76.9351 27.0317 76.6563 26.8724 76.3509 26.7662C76.1385 26.7131 76.0588 27.0317 76.258 27.0981Z" fill="#161616"/>
    <path opacity="0.45" d="M85.4855 7.74045C87.3708 10.3427 89.7739 14.0337 92.0708 18.747C94.5005 23.7258 96.2796 27.4699 94.8988 28.9437C93.0799 30.9086 86.7866 27.7886 85.7776 27.2708C85.99 28.625 86.5078 30.7626 88.0346 32.9135C88.8047 33.9889 90.1457 35.9008 92.6417 36.7903C94.142 37.3214 95.4697 37.2948 95.9875 37.255C96.6779 37.2152 97.4878 37.1488 98.3508 36.6708C98.3508 36.6708 99.4926 36.0601 100.263 34.8253C101.431 32.9267 100.807 30.3643 99.9839 27.1513C98.9881 23.301 97.6604 20.7385 96.3593 18.2027C96.0273 17.5786 95.6423 16.8484 95.0316 16.012C94.4075 15.149 93.9561 14.6975 92.031 12.8388C89.1765 10.0639 88.725 9.6656 87.8753 9.09469C86.9327 8.44413 86.0829 8.01926 85.512 7.72717L85.4855 7.74045Z" fill="#371B9B"/>
    <path opacity="0.43" d="M81.9139 32.9268C82.0334 33.272 82.299 34.2279 81.9139 35.29C81.3298 36.87 79.7365 37.4011 79.4843 37.4807C77.6653 38.0782 75.3684 37.1355 73.8283 35.1174C74.0407 35.6485 74.4922 36.6045 75.4481 37.4276C75.9261 37.8392 77.2139 38.9545 79.0329 38.8217C79.3382 38.7952 81.343 38.6491 82.2591 36.9098C82.923 35.6751 82.7769 34.135 81.9139 32.9268Z" fill="#371B9B"/>
    <path d="M49.266 160H135.061C136.495 160 136.495 158.606 135.061 158.606H49.266C47.8321 158.606 47.8321 160 49.266 160Z" fill="#161616"/>
    <path d="M141.209 159.575H151.259C152.693 159.575 152.693 158.181 151.259 158.181H141.209C139.775 158.181 139.775 159.575 141.209 159.575Z" fill="#161616"/>
  </g>
  <defs>
    <clipPath id="clip0_7201_216">
      <rect width="151.835" height="160" fill="white" transform="translate(0.5)"/>
    </clipPath>
  </defs>
</svg>